<?xml version="1.0" encoding="UTF-8" standalone="no"?>
<svg
   version="1.1"
   id="Layer_1"
   x="0px"
   y="0px"
   viewBox="0 0 25 32.000001"
   xml:space="preserve"
   sodipodi:docname="tasks_icon.svg"
   inkscape:version="1.4.2 (ebf0e940d0, 2025-05-08)"
   inkscape:export-filename="tasks_icon_32.png"
   inkscape:export-xdpi="25"
   inkscape:export-ydpi="25"
   width="25"
   height="32"
   xmlns:inkscape="http://www.inkscape.org/namespaces/inkscape"
   xmlns:sodipodi="http://sodipodi.sourceforge.net/DTD/sodipodi-0.dtd"
   xmlns="http://www.w3.org/2000/svg"
   xmlns:svg="http://www.w3.org/2000/svg"><defs
     id="defs1" /><sodipodi:namedview
     id="namedview1"
     pagecolor="#000000"
     bordercolor="#000000"
     borderopacity="1"
     inkscape:showpageshadow="2"
     inkscape:pageopacity="0.0"
     inkscape:pagecheckerboard="0"
     inkscape:deskcolor="#bfbfbf"
     inkscape:zoom="23.958334"
     inkscape:cx="12.646956"
     inkscape:cy="22.434782"
     inkscape:window-width="1440"
     inkscape:window-height="2560"
     inkscape:window-x="0"
     inkscape:window-y="0"
     inkscape:window-maximized="0"
     inkscape:current-layer="Layer_1"
     inkscape:export-bgcolor="#000000ff" /><style
     type="text/css"
     id="style1">.st0{fill-rule:evenodd;clip-rule:evenodd;}</style><g
     id="g1"
     transform="matrix(0.26068822,0,0,0.26068822,-1.49e-7,-0.01668404)"><path
       class="st0"
       d="m 26.6,66.95 c 0.67,-0.68 1.76,-0.69 2.44,-0.01 0.68,0.68 0.68,1.78 0.01,2.47 l -2.95,2.99 2.95,2.99 c 0.67,0.68 0.66,1.77 -0.02,2.45 -0.68,0.68 -1.77,0.67 -2.43,0 l -2.93,-2.97 -2.94,2.98 c -0.67,0.68 -1.77,0.69 -2.44,0.01 -0.68,-0.68 -0.68,-1.78 -0.01,-2.47 l 2.95,-2.99 -2.95,-2.99 c -0.67,-0.68 -0.66,-1.77 0.02,-2.45 0.68,-0.68 1.77,-0.67 2.43,0 l 2.93,2.97 z M 37.06,5.04 v 5 c 0,1.29 -1.03,2.41 -2.28,2.5 -0.27,0.09 -0.58,0.13 -0.89,0.13 H 24.6 v 10.35 c 15.56,0 31.13,0 46.69,0 V 12.68 h -9.28 c -0.31,0 -0.63,-0.04 -0.89,-0.13 -1.25,-0.09 -2.28,-1.21 -2.28,-2.5 v -5 C 51.58,5.04 44.32,5.04 37.06,5.04 Z M 23.35,28.16 c -1.03,0 -2.01,-0.45 -2.68,-1.12 -0.09,-0.09 -0.13,-0.18 -0.22,-0.27 -0.54,-0.67 -0.89,-1.52 -0.89,-2.41 V 19.27 H 5.58 c -0.13,0 -0.31,0.04 -0.4,0.18 C 5.09,19.55 5,19.73 5,19.86 v 97.39 c 0,0.18 0.04,0.31 0.18,0.4 0.09,0.09 0.22,0.18 0.4,0.18 28.69,0 56.05,0 84.74,0 0.18,0 0.31,-0.09 0.4,-0.18 0.13,-0.09 0.18,-0.22 0.18,-0.4 V 19.86 c 0,-0.13 -0.09,-0.31 -0.18,-0.4 -0.09,-0.13 -0.27,-0.18 -0.4,-0.18 H 76.34 v 5.09 c 0,0.89 -0.36,1.74 -0.89,2.41 -0.09,0.09 -0.13,0.18 -0.22,0.27 -0.67,0.67 -1.65,1.12 -2.68,1.12 -16.4,-0.01 -32.8,-0.01 -49.2,-0.01 z M 5.62,122.88 c -1.52,0 -2.95,-0.62 -3.97,-1.65 C 0.62,120.2 0,118.82 0,117.26 V 19.86 C 0,18.3 0.62,16.91 1.65,15.89 2.68,14.86 4.06,14.24 5.62,14.24 H 19.6 v -2.77 c 0,-1.03 0.4,-1.96 1.12,-2.68 0.67,-0.67 1.61,-1.12 2.68,-1.12 h 8.66 V 4.2 c 0,-1.16 0.49,-2.19 1.25,-2.95 C 34.07,0.49 35.09,0 36.25,0 c 7.8,0 15.59,0 23.39,0 1.16,0 2.19,0.49 2.95,1.25 0.76,0.76 1.25,1.79 1.25,2.95 v 3.48 h 8.66 c 1.07,0 2.01,0.45 2.68,1.12 0.71,0.71 1.12,1.65 1.12,2.68 v 2.77 h 13.98 c 1.56,0 2.95,0.62 3.97,1.65 1.03,1.03 1.65,2.41 1.65,3.97 v 97.39 c 0,1.56 -0.62,2.95 -1.65,3.97 -1.03,1.03 -2.46,1.65 -3.97,1.65 -28.66,0 -56,0 -84.66,0 z M 76.37,99.6 c 1.38,0 2.54,-1.12 2.54,-2.54 0,-1.38 -1.12,-2.54 -2.54,-2.54 -4.91,0 -28.9,0 -33.81,0 -1.43,0 -2.54,1.16 -2.54,2.54 0,1.43 1.16,2.54 2.54,2.54 v 0 c 4.91,0 28.9,0 33.81,0 z m 0,-48.8 c 1.38,0 2.54,-1.12 2.54,-2.54 0,-1.38 -1.12,-2.54 -2.54,-2.54 -4.91,0 -28.9,0 -33.81,0 -1.43,0 -2.54,1.16 -2.54,2.54 0,1.43 1.16,2.54 2.54,2.54 4.91,0 28.9,0 33.81,0 z m 0,24.07 c 1.38,0 2.54,-1.12 2.54,-2.54 0,-1.38 -1.12,-2.54 -2.54,-2.54 -4.91,0 -28.9,0 -33.81,0 -1.43,0 -2.54,1.16 -2.54,2.54 0,1.43 1.16,2.54 2.54,2.54 4.91,0 28.9,0 33.81,0 z M 18.39,96.93 C 17.7,95.9 17.97,94.5 19.01,93.8 c 1.03,-0.69 2.43,-0.42 3.13,0.62 l 1.23,1.82 4.87,-5.93 c 0.79,-0.96 2.21,-1.1 3.17,-0.31 0.96,0.79 1.1,2.21 0.31,3.17 l -6.74,8.2 c -0.15,0.19 -0.33,0.36 -0.54,0.51 -1.03,0.69 -2.43,0.42 -3.13,-0.62 z m 0,-46.27 c -0.69,-1.03 -0.42,-2.43 0.62,-3.13 1.03,-0.69 2.43,-0.42 3.13,0.62 l 1.23,1.82 4.87,-5.93 c 0.79,-0.96 2.21,-1.1 3.17,-0.31 0.96,0.79 1.1,2.21 0.31,3.17 l -6.74,8.2 c -0.15,0.19 -0.33,0.36 -0.54,0.51 -1.03,0.69 -2.43,0.42 -3.13,-0.62 z"
       id="path1"
       style="fill:#ffffff" /></g></svg>
