%TF.GenerationSoftware,KiCad,Pcbnew,10.0.3*%
%TF.CreationDate,2026-06-18T18:50:31+02:00*%
%TF.ProjectId,SenseMatePCB,53656e73-654d-4617-9465-5043422e6b69,rev?*%
%TF.SameCoordinates,Original*%
%TF.FileFunction,Legend,Bot*%
%TF.FilePolarity,Positive*%
%FSLAX46Y46*%
G04 Gerber Fmt 4.6, Leading zero omitted, Abs format (unit mm)*
G04 Created by KiCad (PCBNEW 10.0.3) date 2026-06-18 18:50:31*
%MOMM*%
%LPD*%
G01*
G04 APERTURE LIST*
%ADD10C,0.100000*%
%ADD11C,0.125000*%
%ADD12C,0.150000*%
%ADD13C,0.152400*%
%ADD14C,0.120000*%
G04 APERTURE END LIST*
D10*
X101744761Y-53704895D02*
X102011428Y-53323942D01*
X102201904Y-53704895D02*
X102201904Y-52904895D01*
X102201904Y-52904895D02*
X101897142Y-52904895D01*
X101897142Y-52904895D02*
X101820952Y-52942990D01*
X101820952Y-52942990D02*
X101782857Y-52981085D01*
X101782857Y-52981085D02*
X101744761Y-53057276D01*
X101744761Y-53057276D02*
X101744761Y-53171561D01*
X101744761Y-53171561D02*
X101782857Y-53247752D01*
X101782857Y-53247752D02*
X101820952Y-53285847D01*
X101820952Y-53285847D02*
X101897142Y-53323942D01*
X101897142Y-53323942D02*
X102201904Y-53323942D01*
X101478095Y-52904895D02*
X100944761Y-53704895D01*
X100944761Y-52904895D02*
X101478095Y-53704895D01*
X99801904Y-54009657D02*
X99839999Y-53971561D01*
X99839999Y-53971561D02*
X99916190Y-53857276D01*
X99916190Y-53857276D02*
X99954285Y-53781085D01*
X99954285Y-53781085D02*
X99992380Y-53666800D01*
X99992380Y-53666800D02*
X100030475Y-53476323D01*
X100030475Y-53476323D02*
X100030475Y-53323942D01*
X100030475Y-53323942D02*
X99992380Y-53133466D01*
X99992380Y-53133466D02*
X99954285Y-53019180D01*
X99954285Y-53019180D02*
X99916190Y-52942990D01*
X99916190Y-52942990D02*
X99839999Y-52828704D01*
X99839999Y-52828704D02*
X99801904Y-52790609D01*
X99497142Y-53704895D02*
X99497142Y-52904895D01*
X99497142Y-52904895D02*
X99192380Y-52904895D01*
X99192380Y-52904895D02*
X99116190Y-52942990D01*
X99116190Y-52942990D02*
X99078095Y-52981085D01*
X99078095Y-52981085D02*
X99039999Y-53057276D01*
X99039999Y-53057276D02*
X99039999Y-53171561D01*
X99039999Y-53171561D02*
X99078095Y-53247752D01*
X99078095Y-53247752D02*
X99116190Y-53285847D01*
X99116190Y-53285847D02*
X99192380Y-53323942D01*
X99192380Y-53323942D02*
X99497142Y-53323942D01*
X98278095Y-53704895D02*
X98735238Y-53704895D01*
X98506666Y-53704895D02*
X98506666Y-52904895D01*
X98506666Y-52904895D02*
X98582857Y-53019180D01*
X98582857Y-53019180D02*
X98659047Y-53095371D01*
X98659047Y-53095371D02*
X98735238Y-53133466D01*
X97935237Y-53628704D02*
X97897142Y-53666800D01*
X97897142Y-53666800D02*
X97935237Y-53704895D01*
X97935237Y-53704895D02*
X97973333Y-53666800D01*
X97973333Y-53666800D02*
X97935237Y-53628704D01*
X97935237Y-53628704D02*
X97935237Y-53704895D01*
X97135238Y-53704895D02*
X97592381Y-53704895D01*
X97363809Y-53704895D02*
X97363809Y-52904895D01*
X97363809Y-52904895D02*
X97440000Y-53019180D01*
X97440000Y-53019180D02*
X97516190Y-53095371D01*
X97516190Y-53095371D02*
X97592381Y-53133466D01*
X96830476Y-52981085D02*
X96792380Y-52942990D01*
X96792380Y-52942990D02*
X96716190Y-52904895D01*
X96716190Y-52904895D02*
X96525714Y-52904895D01*
X96525714Y-52904895D02*
X96449523Y-52942990D01*
X96449523Y-52942990D02*
X96411428Y-52981085D01*
X96411428Y-52981085D02*
X96373333Y-53057276D01*
X96373333Y-53057276D02*
X96373333Y-53133466D01*
X96373333Y-53133466D02*
X96411428Y-53247752D01*
X96411428Y-53247752D02*
X96868571Y-53704895D01*
X96868571Y-53704895D02*
X96373333Y-53704895D01*
X96106666Y-54009657D02*
X96068571Y-53971561D01*
X96068571Y-53971561D02*
X95992380Y-53857276D01*
X95992380Y-53857276D02*
X95954285Y-53781085D01*
X95954285Y-53781085D02*
X95916190Y-53666800D01*
X95916190Y-53666800D02*
X95878094Y-53476323D01*
X95878094Y-53476323D02*
X95878094Y-53323942D01*
X95878094Y-53323942D02*
X95916190Y-53133466D01*
X95916190Y-53133466D02*
X95954285Y-53019180D01*
X95954285Y-53019180D02*
X95992380Y-52942990D01*
X95992380Y-52942990D02*
X96068571Y-52828704D01*
X96068571Y-52828704D02*
X96106666Y-52790609D01*
X102130952Y-55514895D02*
X101673809Y-55514895D01*
X101902381Y-56314895D02*
X101902381Y-55514895D01*
X101483333Y-55514895D02*
X100949999Y-56314895D01*
X100949999Y-55514895D02*
X101483333Y-56314895D01*
X99807142Y-56619657D02*
X99845237Y-56581561D01*
X99845237Y-56581561D02*
X99921428Y-56467276D01*
X99921428Y-56467276D02*
X99959523Y-56391085D01*
X99959523Y-56391085D02*
X99997618Y-56276800D01*
X99997618Y-56276800D02*
X100035713Y-56086323D01*
X100035713Y-56086323D02*
X100035713Y-55933942D01*
X100035713Y-55933942D02*
X99997618Y-55743466D01*
X99997618Y-55743466D02*
X99959523Y-55629180D01*
X99959523Y-55629180D02*
X99921428Y-55552990D01*
X99921428Y-55552990D02*
X99845237Y-55438704D01*
X99845237Y-55438704D02*
X99807142Y-55400609D01*
X99502380Y-56314895D02*
X99502380Y-55514895D01*
X99502380Y-55514895D02*
X99197618Y-55514895D01*
X99197618Y-55514895D02*
X99121428Y-55552990D01*
X99121428Y-55552990D02*
X99083333Y-55591085D01*
X99083333Y-55591085D02*
X99045237Y-55667276D01*
X99045237Y-55667276D02*
X99045237Y-55781561D01*
X99045237Y-55781561D02*
X99083333Y-55857752D01*
X99083333Y-55857752D02*
X99121428Y-55895847D01*
X99121428Y-55895847D02*
X99197618Y-55933942D01*
X99197618Y-55933942D02*
X99502380Y-55933942D01*
X98283333Y-56314895D02*
X98740476Y-56314895D01*
X98511904Y-56314895D02*
X98511904Y-55514895D01*
X98511904Y-55514895D02*
X98588095Y-55629180D01*
X98588095Y-55629180D02*
X98664285Y-55705371D01*
X98664285Y-55705371D02*
X98740476Y-55743466D01*
X97940475Y-56238704D02*
X97902380Y-56276800D01*
X97902380Y-56276800D02*
X97940475Y-56314895D01*
X97940475Y-56314895D02*
X97978571Y-56276800D01*
X97978571Y-56276800D02*
X97940475Y-56238704D01*
X97940475Y-56238704D02*
X97940475Y-56314895D01*
X97140476Y-56314895D02*
X97597619Y-56314895D01*
X97369047Y-56314895D02*
X97369047Y-55514895D01*
X97369047Y-55514895D02*
X97445238Y-55629180D01*
X97445238Y-55629180D02*
X97521428Y-55705371D01*
X97521428Y-55705371D02*
X97597619Y-55743466D01*
X96378571Y-56314895D02*
X96835714Y-56314895D01*
X96607142Y-56314895D02*
X96607142Y-55514895D01*
X96607142Y-55514895D02*
X96683333Y-55629180D01*
X96683333Y-55629180D02*
X96759523Y-55705371D01*
X96759523Y-55705371D02*
X96835714Y-55743466D01*
X96111904Y-56619657D02*
X96073809Y-56581561D01*
X96073809Y-56581561D02*
X95997618Y-56467276D01*
X95997618Y-56467276D02*
X95959523Y-56391085D01*
X95959523Y-56391085D02*
X95921428Y-56276800D01*
X95921428Y-56276800D02*
X95883332Y-56086323D01*
X95883332Y-56086323D02*
X95883332Y-55933942D01*
X95883332Y-55933942D02*
X95921428Y-55743466D01*
X95921428Y-55743466D02*
X95959523Y-55629180D01*
X95959523Y-55629180D02*
X95997618Y-55552990D01*
X95997618Y-55552990D02*
X96073809Y-55438704D01*
X96073809Y-55438704D02*
X96111904Y-55400609D01*
X100369524Y-63876800D02*
X100255238Y-63914895D01*
X100255238Y-63914895D02*
X100064762Y-63914895D01*
X100064762Y-63914895D02*
X99988571Y-63876800D01*
X99988571Y-63876800D02*
X99950476Y-63838704D01*
X99950476Y-63838704D02*
X99912381Y-63762514D01*
X99912381Y-63762514D02*
X99912381Y-63686323D01*
X99912381Y-63686323D02*
X99950476Y-63610133D01*
X99950476Y-63610133D02*
X99988571Y-63572038D01*
X99988571Y-63572038D02*
X100064762Y-63533942D01*
X100064762Y-63533942D02*
X100217143Y-63495847D01*
X100217143Y-63495847D02*
X100293333Y-63457752D01*
X100293333Y-63457752D02*
X100331428Y-63419657D01*
X100331428Y-63419657D02*
X100369524Y-63343466D01*
X100369524Y-63343466D02*
X100369524Y-63267276D01*
X100369524Y-63267276D02*
X100331428Y-63191085D01*
X100331428Y-63191085D02*
X100293333Y-63152990D01*
X100293333Y-63152990D02*
X100217143Y-63114895D01*
X100217143Y-63114895D02*
X100026666Y-63114895D01*
X100026666Y-63114895D02*
X99912381Y-63152990D01*
X99645714Y-63114895D02*
X99455238Y-63914895D01*
X99455238Y-63914895D02*
X99302857Y-63343466D01*
X99302857Y-63343466D02*
X99150476Y-63914895D01*
X99150476Y-63914895D02*
X98960000Y-63114895D01*
X98655237Y-63914895D02*
X98655237Y-63114895D01*
X98655237Y-63114895D02*
X98464761Y-63114895D01*
X98464761Y-63114895D02*
X98350475Y-63152990D01*
X98350475Y-63152990D02*
X98274285Y-63229180D01*
X98274285Y-63229180D02*
X98236190Y-63305371D01*
X98236190Y-63305371D02*
X98198094Y-63457752D01*
X98198094Y-63457752D02*
X98198094Y-63572038D01*
X98198094Y-63572038D02*
X98236190Y-63724419D01*
X98236190Y-63724419D02*
X98274285Y-63800609D01*
X98274285Y-63800609D02*
X98350475Y-63876800D01*
X98350475Y-63876800D02*
X98464761Y-63914895D01*
X98464761Y-63914895D02*
X98655237Y-63914895D01*
X97398094Y-63838704D02*
X97436190Y-63876800D01*
X97436190Y-63876800D02*
X97550475Y-63914895D01*
X97550475Y-63914895D02*
X97626666Y-63914895D01*
X97626666Y-63914895D02*
X97740952Y-63876800D01*
X97740952Y-63876800D02*
X97817142Y-63800609D01*
X97817142Y-63800609D02*
X97855237Y-63724419D01*
X97855237Y-63724419D02*
X97893333Y-63572038D01*
X97893333Y-63572038D02*
X97893333Y-63457752D01*
X97893333Y-63457752D02*
X97855237Y-63305371D01*
X97855237Y-63305371D02*
X97817142Y-63229180D01*
X97817142Y-63229180D02*
X97740952Y-63152990D01*
X97740952Y-63152990D02*
X97626666Y-63114895D01*
X97626666Y-63114895D02*
X97550475Y-63114895D01*
X97550475Y-63114895D02*
X97436190Y-63152990D01*
X97436190Y-63152990D02*
X97398094Y-63191085D01*
X96674285Y-63914895D02*
X97055237Y-63914895D01*
X97055237Y-63914895D02*
X97055237Y-63114895D01*
X96407618Y-63914895D02*
X96407618Y-63114895D01*
X95950475Y-63914895D02*
X96293333Y-63457752D01*
X95950475Y-63114895D02*
X96407618Y-63572038D01*
X97579523Y-58212990D02*
X97655713Y-58174895D01*
X97655713Y-58174895D02*
X97769999Y-58174895D01*
X97769999Y-58174895D02*
X97884285Y-58212990D01*
X97884285Y-58212990D02*
X97960475Y-58289180D01*
X97960475Y-58289180D02*
X97998570Y-58365371D01*
X97998570Y-58365371D02*
X98036666Y-58517752D01*
X98036666Y-58517752D02*
X98036666Y-58632038D01*
X98036666Y-58632038D02*
X97998570Y-58784419D01*
X97998570Y-58784419D02*
X97960475Y-58860609D01*
X97960475Y-58860609D02*
X97884285Y-58936800D01*
X97884285Y-58936800D02*
X97769999Y-58974895D01*
X97769999Y-58974895D02*
X97693808Y-58974895D01*
X97693808Y-58974895D02*
X97579523Y-58936800D01*
X97579523Y-58936800D02*
X97541427Y-58898704D01*
X97541427Y-58898704D02*
X97541427Y-58632038D01*
X97541427Y-58632038D02*
X97693808Y-58632038D01*
X97198570Y-58974895D02*
X97198570Y-58174895D01*
X97198570Y-58174895D02*
X96741427Y-58974895D01*
X96741427Y-58974895D02*
X96741427Y-58174895D01*
X96360475Y-58974895D02*
X96360475Y-58174895D01*
X96360475Y-58174895D02*
X96169999Y-58174895D01*
X96169999Y-58174895D02*
X96055713Y-58212990D01*
X96055713Y-58212990D02*
X95979523Y-58289180D01*
X95979523Y-58289180D02*
X95941428Y-58365371D01*
X95941428Y-58365371D02*
X95903332Y-58517752D01*
X95903332Y-58517752D02*
X95903332Y-58632038D01*
X95903332Y-58632038D02*
X95941428Y-58784419D01*
X95941428Y-58784419D02*
X95979523Y-58860609D01*
X95979523Y-58860609D02*
X96055713Y-58936800D01*
X96055713Y-58936800D02*
X96169999Y-58974895D01*
X96169999Y-58974895D02*
X96360475Y-58974895D01*
X100085238Y-61576800D02*
X99970952Y-61614895D01*
X99970952Y-61614895D02*
X99780476Y-61614895D01*
X99780476Y-61614895D02*
X99704285Y-61576800D01*
X99704285Y-61576800D02*
X99666190Y-61538704D01*
X99666190Y-61538704D02*
X99628095Y-61462514D01*
X99628095Y-61462514D02*
X99628095Y-61386323D01*
X99628095Y-61386323D02*
X99666190Y-61310133D01*
X99666190Y-61310133D02*
X99704285Y-61272038D01*
X99704285Y-61272038D02*
X99780476Y-61233942D01*
X99780476Y-61233942D02*
X99932857Y-61195847D01*
X99932857Y-61195847D02*
X100009047Y-61157752D01*
X100009047Y-61157752D02*
X100047142Y-61119657D01*
X100047142Y-61119657D02*
X100085238Y-61043466D01*
X100085238Y-61043466D02*
X100085238Y-60967276D01*
X100085238Y-60967276D02*
X100047142Y-60891085D01*
X100047142Y-60891085D02*
X100009047Y-60852990D01*
X100009047Y-60852990D02*
X99932857Y-60814895D01*
X99932857Y-60814895D02*
X99742380Y-60814895D01*
X99742380Y-60814895D02*
X99628095Y-60852990D01*
X99361428Y-60814895D02*
X99170952Y-61614895D01*
X99170952Y-61614895D02*
X99018571Y-61043466D01*
X99018571Y-61043466D02*
X98866190Y-61614895D01*
X98866190Y-61614895D02*
X98675714Y-60814895D01*
X98370951Y-61614895D02*
X98370951Y-60814895D01*
X98370951Y-60814895D02*
X98180475Y-60814895D01*
X98180475Y-60814895D02*
X98066189Y-60852990D01*
X98066189Y-60852990D02*
X97989999Y-60929180D01*
X97989999Y-60929180D02*
X97951904Y-61005371D01*
X97951904Y-61005371D02*
X97913808Y-61157752D01*
X97913808Y-61157752D02*
X97913808Y-61272038D01*
X97913808Y-61272038D02*
X97951904Y-61424419D01*
X97951904Y-61424419D02*
X97989999Y-61500609D01*
X97989999Y-61500609D02*
X98066189Y-61576800D01*
X98066189Y-61576800D02*
X98180475Y-61614895D01*
X98180475Y-61614895D02*
X98370951Y-61614895D01*
X97570951Y-61614895D02*
X97570951Y-60814895D01*
X97570951Y-60814895D02*
X97380475Y-60814895D01*
X97380475Y-60814895D02*
X97266189Y-60852990D01*
X97266189Y-60852990D02*
X97189999Y-60929180D01*
X97189999Y-60929180D02*
X97151904Y-61005371D01*
X97151904Y-61005371D02*
X97113808Y-61157752D01*
X97113808Y-61157752D02*
X97113808Y-61272038D01*
X97113808Y-61272038D02*
X97151904Y-61424419D01*
X97151904Y-61424419D02*
X97189999Y-61500609D01*
X97189999Y-61500609D02*
X97266189Y-61576800D01*
X97266189Y-61576800D02*
X97380475Y-61614895D01*
X97380475Y-61614895D02*
X97570951Y-61614895D01*
X96770951Y-61614895D02*
X96770951Y-60814895D01*
X96237618Y-60814895D02*
X96085237Y-60814895D01*
X96085237Y-60814895D02*
X96009047Y-60852990D01*
X96009047Y-60852990D02*
X95932856Y-60929180D01*
X95932856Y-60929180D02*
X95894761Y-61081561D01*
X95894761Y-61081561D02*
X95894761Y-61348228D01*
X95894761Y-61348228D02*
X95932856Y-61500609D01*
X95932856Y-61500609D02*
X96009047Y-61576800D01*
X96009047Y-61576800D02*
X96085237Y-61614895D01*
X96085237Y-61614895D02*
X96237618Y-61614895D01*
X96237618Y-61614895D02*
X96313809Y-61576800D01*
X96313809Y-61576800D02*
X96389999Y-61500609D01*
X96389999Y-61500609D02*
X96428095Y-61348228D01*
X96428095Y-61348228D02*
X96428095Y-61081561D01*
X96428095Y-61081561D02*
X96389999Y-60929180D01*
X96389999Y-60929180D02*
X96313809Y-60852990D01*
X96313809Y-60852990D02*
X96237618Y-60814895D01*
X120245104Y-40000476D02*
X120245104Y-39505238D01*
X120245104Y-39505238D02*
X119940342Y-39771904D01*
X119940342Y-39771904D02*
X119940342Y-39657619D01*
X119940342Y-39657619D02*
X119902247Y-39581428D01*
X119902247Y-39581428D02*
X119864152Y-39543333D01*
X119864152Y-39543333D02*
X119787961Y-39505238D01*
X119787961Y-39505238D02*
X119597485Y-39505238D01*
X119597485Y-39505238D02*
X119521295Y-39543333D01*
X119521295Y-39543333D02*
X119483200Y-39581428D01*
X119483200Y-39581428D02*
X119445104Y-39657619D01*
X119445104Y-39657619D02*
X119445104Y-39886190D01*
X119445104Y-39886190D02*
X119483200Y-39962381D01*
X119483200Y-39962381D02*
X119521295Y-40000476D01*
X120245104Y-39276666D02*
X119445104Y-39009999D01*
X119445104Y-39009999D02*
X120245104Y-38743333D01*
X120245104Y-38552857D02*
X120245104Y-38057619D01*
X120245104Y-38057619D02*
X119940342Y-38324285D01*
X119940342Y-38324285D02*
X119940342Y-38210000D01*
X119940342Y-38210000D02*
X119902247Y-38133809D01*
X119902247Y-38133809D02*
X119864152Y-38095714D01*
X119864152Y-38095714D02*
X119787961Y-38057619D01*
X119787961Y-38057619D02*
X119597485Y-38057619D01*
X119597485Y-38057619D02*
X119521295Y-38095714D01*
X119521295Y-38095714D02*
X119483200Y-38133809D01*
X119483200Y-38133809D02*
X119445104Y-38210000D01*
X119445104Y-38210000D02*
X119445104Y-38438571D01*
X119445104Y-38438571D02*
X119483200Y-38514762D01*
X119483200Y-38514762D02*
X119521295Y-38552857D01*
X97981503Y-29175847D02*
X97867217Y-29213942D01*
X97867217Y-29213942D02*
X97829122Y-29252038D01*
X97829122Y-29252038D02*
X97791026Y-29328228D01*
X97791026Y-29328228D02*
X97791026Y-29442514D01*
X97791026Y-29442514D02*
X97829122Y-29518704D01*
X97829122Y-29518704D02*
X97867217Y-29556800D01*
X97867217Y-29556800D02*
X97943407Y-29594895D01*
X97943407Y-29594895D02*
X98248169Y-29594895D01*
X98248169Y-29594895D02*
X98248169Y-28794895D01*
X98248169Y-28794895D02*
X97981503Y-28794895D01*
X97981503Y-28794895D02*
X97905312Y-28832990D01*
X97905312Y-28832990D02*
X97867217Y-28871085D01*
X97867217Y-28871085D02*
X97829122Y-28947276D01*
X97829122Y-28947276D02*
X97829122Y-29023466D01*
X97829122Y-29023466D02*
X97867217Y-29099657D01*
X97867217Y-29099657D02*
X97905312Y-29137752D01*
X97905312Y-29137752D02*
X97981503Y-29175847D01*
X97981503Y-29175847D02*
X98248169Y-29175847D01*
X97448169Y-28794895D02*
X97448169Y-29442514D01*
X97448169Y-29442514D02*
X97410074Y-29518704D01*
X97410074Y-29518704D02*
X97371979Y-29556800D01*
X97371979Y-29556800D02*
X97295788Y-29594895D01*
X97295788Y-29594895D02*
X97143407Y-29594895D01*
X97143407Y-29594895D02*
X97067217Y-29556800D01*
X97067217Y-29556800D02*
X97029122Y-29518704D01*
X97029122Y-29518704D02*
X96991026Y-29442514D01*
X96991026Y-29442514D02*
X96991026Y-28794895D01*
X96686265Y-28794895D02*
X96152931Y-28794895D01*
X96152931Y-28794895D02*
X96686265Y-29594895D01*
X96686265Y-29594895D02*
X96152931Y-29594895D01*
X95010074Y-29899657D02*
X95048169Y-29861561D01*
X95048169Y-29861561D02*
X95124360Y-29747276D01*
X95124360Y-29747276D02*
X95162455Y-29671085D01*
X95162455Y-29671085D02*
X95200550Y-29556800D01*
X95200550Y-29556800D02*
X95238645Y-29366323D01*
X95238645Y-29366323D02*
X95238645Y-29213942D01*
X95238645Y-29213942D02*
X95200550Y-29023466D01*
X95200550Y-29023466D02*
X95162455Y-28909180D01*
X95162455Y-28909180D02*
X95124360Y-28832990D01*
X95124360Y-28832990D02*
X95048169Y-28718704D01*
X95048169Y-28718704D02*
X95010074Y-28680609D01*
X94705312Y-29594895D02*
X94705312Y-28794895D01*
X94705312Y-28794895D02*
X94400550Y-28794895D01*
X94400550Y-28794895D02*
X94324360Y-28832990D01*
X94324360Y-28832990D02*
X94286265Y-28871085D01*
X94286265Y-28871085D02*
X94248169Y-28947276D01*
X94248169Y-28947276D02*
X94248169Y-29061561D01*
X94248169Y-29061561D02*
X94286265Y-29137752D01*
X94286265Y-29137752D02*
X94324360Y-29175847D01*
X94324360Y-29175847D02*
X94400550Y-29213942D01*
X94400550Y-29213942D02*
X94705312Y-29213942D01*
X93752931Y-28794895D02*
X93676741Y-28794895D01*
X93676741Y-28794895D02*
X93600550Y-28832990D01*
X93600550Y-28832990D02*
X93562455Y-28871085D01*
X93562455Y-28871085D02*
X93524360Y-28947276D01*
X93524360Y-28947276D02*
X93486265Y-29099657D01*
X93486265Y-29099657D02*
X93486265Y-29290133D01*
X93486265Y-29290133D02*
X93524360Y-29442514D01*
X93524360Y-29442514D02*
X93562455Y-29518704D01*
X93562455Y-29518704D02*
X93600550Y-29556800D01*
X93600550Y-29556800D02*
X93676741Y-29594895D01*
X93676741Y-29594895D02*
X93752931Y-29594895D01*
X93752931Y-29594895D02*
X93829122Y-29556800D01*
X93829122Y-29556800D02*
X93867217Y-29518704D01*
X93867217Y-29518704D02*
X93905312Y-29442514D01*
X93905312Y-29442514D02*
X93943408Y-29290133D01*
X93943408Y-29290133D02*
X93943408Y-29099657D01*
X93943408Y-29099657D02*
X93905312Y-28947276D01*
X93905312Y-28947276D02*
X93867217Y-28871085D01*
X93867217Y-28871085D02*
X93829122Y-28832990D01*
X93829122Y-28832990D02*
X93752931Y-28794895D01*
X93143407Y-29518704D02*
X93105312Y-29556800D01*
X93105312Y-29556800D02*
X93143407Y-29594895D01*
X93143407Y-29594895D02*
X93181503Y-29556800D01*
X93181503Y-29556800D02*
X93143407Y-29518704D01*
X93143407Y-29518704D02*
X93143407Y-29594895D01*
X92610074Y-28794895D02*
X92533884Y-28794895D01*
X92533884Y-28794895D02*
X92457693Y-28832990D01*
X92457693Y-28832990D02*
X92419598Y-28871085D01*
X92419598Y-28871085D02*
X92381503Y-28947276D01*
X92381503Y-28947276D02*
X92343408Y-29099657D01*
X92343408Y-29099657D02*
X92343408Y-29290133D01*
X92343408Y-29290133D02*
X92381503Y-29442514D01*
X92381503Y-29442514D02*
X92419598Y-29518704D01*
X92419598Y-29518704D02*
X92457693Y-29556800D01*
X92457693Y-29556800D02*
X92533884Y-29594895D01*
X92533884Y-29594895D02*
X92610074Y-29594895D01*
X92610074Y-29594895D02*
X92686265Y-29556800D01*
X92686265Y-29556800D02*
X92724360Y-29518704D01*
X92724360Y-29518704D02*
X92762455Y-29442514D01*
X92762455Y-29442514D02*
X92800551Y-29290133D01*
X92800551Y-29290133D02*
X92800551Y-29099657D01*
X92800551Y-29099657D02*
X92762455Y-28947276D01*
X92762455Y-28947276D02*
X92724360Y-28871085D01*
X92724360Y-28871085D02*
X92686265Y-28832990D01*
X92686265Y-28832990D02*
X92610074Y-28794895D01*
X92038646Y-28871085D02*
X92000550Y-28832990D01*
X92000550Y-28832990D02*
X91924360Y-28794895D01*
X91924360Y-28794895D02*
X91733884Y-28794895D01*
X91733884Y-28794895D02*
X91657693Y-28832990D01*
X91657693Y-28832990D02*
X91619598Y-28871085D01*
X91619598Y-28871085D02*
X91581503Y-28947276D01*
X91581503Y-28947276D02*
X91581503Y-29023466D01*
X91581503Y-29023466D02*
X91619598Y-29137752D01*
X91619598Y-29137752D02*
X92076741Y-29594895D01*
X92076741Y-29594895D02*
X91581503Y-29594895D01*
X91314836Y-29899657D02*
X91276741Y-29861561D01*
X91276741Y-29861561D02*
X91200550Y-29747276D01*
X91200550Y-29747276D02*
X91162455Y-29671085D01*
X91162455Y-29671085D02*
X91124360Y-29556800D01*
X91124360Y-29556800D02*
X91086264Y-29366323D01*
X91086264Y-29366323D02*
X91086264Y-29213942D01*
X91086264Y-29213942D02*
X91124360Y-29023466D01*
X91124360Y-29023466D02*
X91162455Y-28909180D01*
X91162455Y-28909180D02*
X91200550Y-28832990D01*
X91200550Y-28832990D02*
X91276741Y-28718704D01*
X91276741Y-28718704D02*
X91314836Y-28680609D01*
X98619121Y-31624895D02*
X98619121Y-30824895D01*
X98619121Y-30824895D02*
X98428645Y-30824895D01*
X98428645Y-30824895D02*
X98314359Y-30862990D01*
X98314359Y-30862990D02*
X98238169Y-30939180D01*
X98238169Y-30939180D02*
X98200074Y-31015371D01*
X98200074Y-31015371D02*
X98161978Y-31167752D01*
X98161978Y-31167752D02*
X98161978Y-31282038D01*
X98161978Y-31282038D02*
X98200074Y-31434419D01*
X98200074Y-31434419D02*
X98238169Y-31510609D01*
X98238169Y-31510609D02*
X98314359Y-31586800D01*
X98314359Y-31586800D02*
X98428645Y-31624895D01*
X98428645Y-31624895D02*
X98619121Y-31624895D01*
X97819121Y-31624895D02*
X97819121Y-30824895D01*
X97285788Y-30824895D02*
X97133407Y-30824895D01*
X97133407Y-30824895D02*
X97057217Y-30862990D01*
X97057217Y-30862990D02*
X96981026Y-30939180D01*
X96981026Y-30939180D02*
X96942931Y-31091561D01*
X96942931Y-31091561D02*
X96942931Y-31358228D01*
X96942931Y-31358228D02*
X96981026Y-31510609D01*
X96981026Y-31510609D02*
X97057217Y-31586800D01*
X97057217Y-31586800D02*
X97133407Y-31624895D01*
X97133407Y-31624895D02*
X97285788Y-31624895D01*
X97285788Y-31624895D02*
X97361979Y-31586800D01*
X97361979Y-31586800D02*
X97438169Y-31510609D01*
X97438169Y-31510609D02*
X97476265Y-31358228D01*
X97476265Y-31358228D02*
X97476265Y-31091561D01*
X97476265Y-31091561D02*
X97438169Y-30939180D01*
X97438169Y-30939180D02*
X97361979Y-30862990D01*
X97361979Y-30862990D02*
X97285788Y-30824895D01*
X96447693Y-30824895D02*
X96371503Y-30824895D01*
X96371503Y-30824895D02*
X96295312Y-30862990D01*
X96295312Y-30862990D02*
X96257217Y-30901085D01*
X96257217Y-30901085D02*
X96219122Y-30977276D01*
X96219122Y-30977276D02*
X96181027Y-31129657D01*
X96181027Y-31129657D02*
X96181027Y-31320133D01*
X96181027Y-31320133D02*
X96219122Y-31472514D01*
X96219122Y-31472514D02*
X96257217Y-31548704D01*
X96257217Y-31548704D02*
X96295312Y-31586800D01*
X96295312Y-31586800D02*
X96371503Y-31624895D01*
X96371503Y-31624895D02*
X96447693Y-31624895D01*
X96447693Y-31624895D02*
X96523884Y-31586800D01*
X96523884Y-31586800D02*
X96561979Y-31548704D01*
X96561979Y-31548704D02*
X96600074Y-31472514D01*
X96600074Y-31472514D02*
X96638170Y-31320133D01*
X96638170Y-31320133D02*
X96638170Y-31129657D01*
X96638170Y-31129657D02*
X96600074Y-30977276D01*
X96600074Y-30977276D02*
X96561979Y-30901085D01*
X96561979Y-30901085D02*
X96523884Y-30862990D01*
X96523884Y-30862990D02*
X96447693Y-30824895D01*
X95000074Y-31929657D02*
X95038169Y-31891561D01*
X95038169Y-31891561D02*
X95114360Y-31777276D01*
X95114360Y-31777276D02*
X95152455Y-31701085D01*
X95152455Y-31701085D02*
X95190550Y-31586800D01*
X95190550Y-31586800D02*
X95228645Y-31396323D01*
X95228645Y-31396323D02*
X95228645Y-31243942D01*
X95228645Y-31243942D02*
X95190550Y-31053466D01*
X95190550Y-31053466D02*
X95152455Y-30939180D01*
X95152455Y-30939180D02*
X95114360Y-30862990D01*
X95114360Y-30862990D02*
X95038169Y-30748704D01*
X95038169Y-30748704D02*
X95000074Y-30710609D01*
X94695312Y-31624895D02*
X94695312Y-30824895D01*
X94695312Y-30824895D02*
X94390550Y-30824895D01*
X94390550Y-30824895D02*
X94314360Y-30862990D01*
X94314360Y-30862990D02*
X94276265Y-30901085D01*
X94276265Y-30901085D02*
X94238169Y-30977276D01*
X94238169Y-30977276D02*
X94238169Y-31091561D01*
X94238169Y-31091561D02*
X94276265Y-31167752D01*
X94276265Y-31167752D02*
X94314360Y-31205847D01*
X94314360Y-31205847D02*
X94390550Y-31243942D01*
X94390550Y-31243942D02*
X94695312Y-31243942D01*
X93742931Y-30824895D02*
X93666741Y-30824895D01*
X93666741Y-30824895D02*
X93590550Y-30862990D01*
X93590550Y-30862990D02*
X93552455Y-30901085D01*
X93552455Y-30901085D02*
X93514360Y-30977276D01*
X93514360Y-30977276D02*
X93476265Y-31129657D01*
X93476265Y-31129657D02*
X93476265Y-31320133D01*
X93476265Y-31320133D02*
X93514360Y-31472514D01*
X93514360Y-31472514D02*
X93552455Y-31548704D01*
X93552455Y-31548704D02*
X93590550Y-31586800D01*
X93590550Y-31586800D02*
X93666741Y-31624895D01*
X93666741Y-31624895D02*
X93742931Y-31624895D01*
X93742931Y-31624895D02*
X93819122Y-31586800D01*
X93819122Y-31586800D02*
X93857217Y-31548704D01*
X93857217Y-31548704D02*
X93895312Y-31472514D01*
X93895312Y-31472514D02*
X93933408Y-31320133D01*
X93933408Y-31320133D02*
X93933408Y-31129657D01*
X93933408Y-31129657D02*
X93895312Y-30977276D01*
X93895312Y-30977276D02*
X93857217Y-30901085D01*
X93857217Y-30901085D02*
X93819122Y-30862990D01*
X93819122Y-30862990D02*
X93742931Y-30824895D01*
X93133407Y-31548704D02*
X93095312Y-31586800D01*
X93095312Y-31586800D02*
X93133407Y-31624895D01*
X93133407Y-31624895D02*
X93171503Y-31586800D01*
X93171503Y-31586800D02*
X93133407Y-31548704D01*
X93133407Y-31548704D02*
X93133407Y-31624895D01*
X92333408Y-31624895D02*
X92790551Y-31624895D01*
X92561979Y-31624895D02*
X92561979Y-30824895D01*
X92561979Y-30824895D02*
X92638170Y-30939180D01*
X92638170Y-30939180D02*
X92714360Y-31015371D01*
X92714360Y-31015371D02*
X92790551Y-31053466D01*
X91609598Y-30824895D02*
X91990550Y-30824895D01*
X91990550Y-30824895D02*
X92028646Y-31205847D01*
X92028646Y-31205847D02*
X91990550Y-31167752D01*
X91990550Y-31167752D02*
X91914360Y-31129657D01*
X91914360Y-31129657D02*
X91723884Y-31129657D01*
X91723884Y-31129657D02*
X91647693Y-31167752D01*
X91647693Y-31167752D02*
X91609598Y-31205847D01*
X91609598Y-31205847D02*
X91571503Y-31282038D01*
X91571503Y-31282038D02*
X91571503Y-31472514D01*
X91571503Y-31472514D02*
X91609598Y-31548704D01*
X91609598Y-31548704D02*
X91647693Y-31586800D01*
X91647693Y-31586800D02*
X91723884Y-31624895D01*
X91723884Y-31624895D02*
X91914360Y-31624895D01*
X91914360Y-31624895D02*
X91990550Y-31586800D01*
X91990550Y-31586800D02*
X92028646Y-31548704D01*
X91304836Y-31929657D02*
X91266741Y-31891561D01*
X91266741Y-31891561D02*
X91190550Y-31777276D01*
X91190550Y-31777276D02*
X91152455Y-31701085D01*
X91152455Y-31701085D02*
X91114360Y-31586800D01*
X91114360Y-31586800D02*
X91076264Y-31396323D01*
X91076264Y-31396323D02*
X91076264Y-31243942D01*
X91076264Y-31243942D02*
X91114360Y-31053466D01*
X91114360Y-31053466D02*
X91152455Y-30939180D01*
X91152455Y-30939180D02*
X91190550Y-30862990D01*
X91190550Y-30862990D02*
X91266741Y-30748704D01*
X91266741Y-30748704D02*
X91304836Y-30710609D01*
X119554895Y-31269449D02*
X120354895Y-31536116D01*
X120354895Y-31536116D02*
X119554895Y-31802782D01*
X119935847Y-32336115D02*
X119973942Y-32450401D01*
X119973942Y-32450401D02*
X120012038Y-32488496D01*
X120012038Y-32488496D02*
X120088228Y-32526592D01*
X120088228Y-32526592D02*
X120202514Y-32526592D01*
X120202514Y-32526592D02*
X120278704Y-32488496D01*
X120278704Y-32488496D02*
X120316800Y-32450401D01*
X120316800Y-32450401D02*
X120354895Y-32374211D01*
X120354895Y-32374211D02*
X120354895Y-32069449D01*
X120354895Y-32069449D02*
X119554895Y-32069449D01*
X119554895Y-32069449D02*
X119554895Y-32336115D01*
X119554895Y-32336115D02*
X119592990Y-32412306D01*
X119592990Y-32412306D02*
X119631085Y-32450401D01*
X119631085Y-32450401D02*
X119707276Y-32488496D01*
X119707276Y-32488496D02*
X119783466Y-32488496D01*
X119783466Y-32488496D02*
X119859657Y-32450401D01*
X119859657Y-32450401D02*
X119897752Y-32412306D01*
X119897752Y-32412306D02*
X119935847Y-32336115D01*
X119935847Y-32336115D02*
X119935847Y-32069449D01*
X120126323Y-32831353D02*
X120126323Y-33212306D01*
X120354895Y-32755163D02*
X119554895Y-33021830D01*
X119554895Y-33021830D02*
X120354895Y-33288496D01*
X119554895Y-33440877D02*
X119554895Y-33898020D01*
X120354895Y-33669448D02*
X119554895Y-33669448D01*
X119500550Y-27874895D02*
X119233883Y-28674895D01*
X119233883Y-28674895D02*
X118967217Y-27874895D01*
X118433884Y-28255847D02*
X118319598Y-28293942D01*
X118319598Y-28293942D02*
X118281503Y-28332038D01*
X118281503Y-28332038D02*
X118243407Y-28408228D01*
X118243407Y-28408228D02*
X118243407Y-28522514D01*
X118243407Y-28522514D02*
X118281503Y-28598704D01*
X118281503Y-28598704D02*
X118319598Y-28636800D01*
X118319598Y-28636800D02*
X118395788Y-28674895D01*
X118395788Y-28674895D02*
X118700550Y-28674895D01*
X118700550Y-28674895D02*
X118700550Y-27874895D01*
X118700550Y-27874895D02*
X118433884Y-27874895D01*
X118433884Y-27874895D02*
X118357693Y-27912990D01*
X118357693Y-27912990D02*
X118319598Y-27951085D01*
X118319598Y-27951085D02*
X118281503Y-28027276D01*
X118281503Y-28027276D02*
X118281503Y-28103466D01*
X118281503Y-28103466D02*
X118319598Y-28179657D01*
X118319598Y-28179657D02*
X118357693Y-28217752D01*
X118357693Y-28217752D02*
X118433884Y-28255847D01*
X118433884Y-28255847D02*
X118700550Y-28255847D01*
X117938646Y-28446323D02*
X117557693Y-28446323D01*
X118014836Y-28674895D02*
X117748169Y-27874895D01*
X117748169Y-27874895D02*
X117481503Y-28674895D01*
X117329122Y-27874895D02*
X116871979Y-27874895D01*
X117100551Y-28674895D02*
X117100551Y-27874895D01*
X116705788Y-28460133D02*
X116096265Y-28460133D01*
X116401026Y-28764895D02*
X116401026Y-28155371D01*
G36*
X115377982Y-32036326D02*
G01*
X114798687Y-32036326D01*
X114798687Y-32128699D01*
X115377982Y-32128699D01*
X115377982Y-32036326D01*
G37*
G36*
X117020243Y-31798224D02*
G01*
X117020243Y-32040318D01*
X116777075Y-32040318D01*
X116777075Y-32132690D01*
X117020243Y-32132690D01*
X117020243Y-32374784D01*
X117112030Y-32374784D01*
X117112030Y-32132690D01*
X117354709Y-32132690D01*
X117354709Y-32040318D01*
X117112030Y-32040318D01*
X117112030Y-31798224D01*
X117020243Y-31798224D01*
G37*
D11*
X99319668Y-66461119D02*
X99319668Y-65461119D01*
X99319668Y-65461119D02*
X98938716Y-65461119D01*
X98938716Y-65461119D02*
X98843478Y-65508738D01*
X98843478Y-65508738D02*
X98795859Y-65556357D01*
X98795859Y-65556357D02*
X98748240Y-65651595D01*
X98748240Y-65651595D02*
X98748240Y-65794452D01*
X98748240Y-65794452D02*
X98795859Y-65889690D01*
X98795859Y-65889690D02*
X98843478Y-65937309D01*
X98843478Y-65937309D02*
X98938716Y-65984928D01*
X98938716Y-65984928D02*
X99319668Y-65984928D01*
X98176811Y-66461119D02*
X98272049Y-66413500D01*
X98272049Y-66413500D02*
X98319668Y-66365880D01*
X98319668Y-66365880D02*
X98367287Y-66270642D01*
X98367287Y-66270642D02*
X98367287Y-65984928D01*
X98367287Y-65984928D02*
X98319668Y-65889690D01*
X98319668Y-65889690D02*
X98272049Y-65842071D01*
X98272049Y-65842071D02*
X98176811Y-65794452D01*
X98176811Y-65794452D02*
X98033954Y-65794452D01*
X98033954Y-65794452D02*
X97938716Y-65842071D01*
X97938716Y-65842071D02*
X97891097Y-65889690D01*
X97891097Y-65889690D02*
X97843478Y-65984928D01*
X97843478Y-65984928D02*
X97843478Y-66270642D01*
X97843478Y-66270642D02*
X97891097Y-66365880D01*
X97891097Y-66365880D02*
X97938716Y-66413500D01*
X97938716Y-66413500D02*
X98033954Y-66461119D01*
X98033954Y-66461119D02*
X98176811Y-66461119D01*
X96986335Y-65794452D02*
X96986335Y-66603976D01*
X96986335Y-66603976D02*
X97033954Y-66699214D01*
X97033954Y-66699214D02*
X97081573Y-66746833D01*
X97081573Y-66746833D02*
X97176811Y-66794452D01*
X97176811Y-66794452D02*
X97319668Y-66794452D01*
X97319668Y-66794452D02*
X97414906Y-66746833D01*
X96986335Y-66413500D02*
X97081573Y-66461119D01*
X97081573Y-66461119D02*
X97272049Y-66461119D01*
X97272049Y-66461119D02*
X97367287Y-66413500D01*
X97367287Y-66413500D02*
X97414906Y-66365880D01*
X97414906Y-66365880D02*
X97462525Y-66270642D01*
X97462525Y-66270642D02*
X97462525Y-65984928D01*
X97462525Y-65984928D02*
X97414906Y-65889690D01*
X97414906Y-65889690D02*
X97367287Y-65842071D01*
X97367287Y-65842071D02*
X97272049Y-65794452D01*
X97272049Y-65794452D02*
X97081573Y-65794452D01*
X97081573Y-65794452D02*
X96986335Y-65842071D01*
X96367287Y-66461119D02*
X96462525Y-66413500D01*
X96462525Y-66413500D02*
X96510144Y-66365880D01*
X96510144Y-66365880D02*
X96557763Y-66270642D01*
X96557763Y-66270642D02*
X96557763Y-65984928D01*
X96557763Y-65984928D02*
X96510144Y-65889690D01*
X96510144Y-65889690D02*
X96462525Y-65842071D01*
X96462525Y-65842071D02*
X96367287Y-65794452D01*
X96367287Y-65794452D02*
X96224430Y-65794452D01*
X96224430Y-65794452D02*
X96129192Y-65842071D01*
X96129192Y-65842071D02*
X96081573Y-65889690D01*
X96081573Y-65889690D02*
X96033954Y-65984928D01*
X96033954Y-65984928D02*
X96033954Y-66270642D01*
X96033954Y-66270642D02*
X96081573Y-66365880D01*
X96081573Y-66365880D02*
X96129192Y-66413500D01*
X96129192Y-66413500D02*
X96224430Y-66461119D01*
X96224430Y-66461119D02*
X96367287Y-66461119D01*
X95605382Y-66080166D02*
X94843478Y-66080166D01*
X94367287Y-66461119D02*
X94367287Y-65461119D01*
X94367287Y-65461119D02*
X93986335Y-65461119D01*
X93986335Y-65461119D02*
X93891097Y-65508738D01*
X93891097Y-65508738D02*
X93843478Y-65556357D01*
X93843478Y-65556357D02*
X93795859Y-65651595D01*
X93795859Y-65651595D02*
X93795859Y-65794452D01*
X93795859Y-65794452D02*
X93843478Y-65889690D01*
X93843478Y-65889690D02*
X93891097Y-65937309D01*
X93891097Y-65937309D02*
X93986335Y-65984928D01*
X93986335Y-65984928D02*
X94367287Y-65984928D01*
X93367287Y-66461119D02*
X93367287Y-65794452D01*
X93367287Y-65461119D02*
X93414906Y-65508738D01*
X93414906Y-65508738D02*
X93367287Y-65556357D01*
X93367287Y-65556357D02*
X93319668Y-65508738D01*
X93319668Y-65508738D02*
X93367287Y-65461119D01*
X93367287Y-65461119D02*
X93367287Y-65556357D01*
X92891097Y-65794452D02*
X92891097Y-66461119D01*
X92891097Y-65889690D02*
X92843478Y-65842071D01*
X92843478Y-65842071D02*
X92748240Y-65794452D01*
X92748240Y-65794452D02*
X92605383Y-65794452D01*
X92605383Y-65794452D02*
X92510145Y-65842071D01*
X92510145Y-65842071D02*
X92462526Y-65937309D01*
X92462526Y-65937309D02*
X92462526Y-66461119D01*
X92033954Y-66413500D02*
X91938716Y-66461119D01*
X91938716Y-66461119D02*
X91748240Y-66461119D01*
X91748240Y-66461119D02*
X91653002Y-66413500D01*
X91653002Y-66413500D02*
X91605383Y-66318261D01*
X91605383Y-66318261D02*
X91605383Y-66270642D01*
X91605383Y-66270642D02*
X91653002Y-66175404D01*
X91653002Y-66175404D02*
X91748240Y-66127785D01*
X91748240Y-66127785D02*
X91891097Y-66127785D01*
X91891097Y-66127785D02*
X91986335Y-66080166D01*
X91986335Y-66080166D02*
X92033954Y-65984928D01*
X92033954Y-65984928D02*
X92033954Y-65937309D01*
X92033954Y-65937309D02*
X91986335Y-65842071D01*
X91986335Y-65842071D02*
X91891097Y-65794452D01*
X91891097Y-65794452D02*
X91748240Y-65794452D01*
X91748240Y-65794452D02*
X91653002Y-65842071D01*
D10*
X92800000Y-51540000D02*
X90240000Y-53670000D01*
X92740000Y-63730000D02*
X90490000Y-64180000D01*
X92890000Y-61220000D02*
X90460000Y-62090000D01*
X92960000Y-58720000D02*
X90420000Y-59750000D01*
X92890000Y-56300000D02*
X90390000Y-57850000D01*
X92980000Y-53780000D02*
X90370000Y-55870000D01*
X120214761Y-34850133D02*
X119605238Y-34850133D01*
X119909999Y-35154895D02*
X119909999Y-34545371D01*
X98606666Y-50434895D02*
X98339999Y-51234895D01*
X98339999Y-51234895D02*
X98073333Y-50434895D01*
X97540000Y-50815847D02*
X97425714Y-50853942D01*
X97425714Y-50853942D02*
X97387619Y-50892038D01*
X97387619Y-50892038D02*
X97349523Y-50968228D01*
X97349523Y-50968228D02*
X97349523Y-51082514D01*
X97349523Y-51082514D02*
X97387619Y-51158704D01*
X97387619Y-51158704D02*
X97425714Y-51196800D01*
X97425714Y-51196800D02*
X97501904Y-51234895D01*
X97501904Y-51234895D02*
X97806666Y-51234895D01*
X97806666Y-51234895D02*
X97806666Y-50434895D01*
X97806666Y-50434895D02*
X97540000Y-50434895D01*
X97540000Y-50434895D02*
X97463809Y-50472990D01*
X97463809Y-50472990D02*
X97425714Y-50511085D01*
X97425714Y-50511085D02*
X97387619Y-50587276D01*
X97387619Y-50587276D02*
X97387619Y-50663466D01*
X97387619Y-50663466D02*
X97425714Y-50739657D01*
X97425714Y-50739657D02*
X97463809Y-50777752D01*
X97463809Y-50777752D02*
X97540000Y-50815847D01*
X97540000Y-50815847D02*
X97806666Y-50815847D01*
X97006666Y-50434895D02*
X97006666Y-51082514D01*
X97006666Y-51082514D02*
X96968571Y-51158704D01*
X96968571Y-51158704D02*
X96930476Y-51196800D01*
X96930476Y-51196800D02*
X96854285Y-51234895D01*
X96854285Y-51234895D02*
X96701904Y-51234895D01*
X96701904Y-51234895D02*
X96625714Y-51196800D01*
X96625714Y-51196800D02*
X96587619Y-51158704D01*
X96587619Y-51158704D02*
X96549523Y-51082514D01*
X96549523Y-51082514D02*
X96549523Y-50434895D01*
X96206667Y-51196800D02*
X96092381Y-51234895D01*
X96092381Y-51234895D02*
X95901905Y-51234895D01*
X95901905Y-51234895D02*
X95825714Y-51196800D01*
X95825714Y-51196800D02*
X95787619Y-51158704D01*
X95787619Y-51158704D02*
X95749524Y-51082514D01*
X95749524Y-51082514D02*
X95749524Y-51006323D01*
X95749524Y-51006323D02*
X95787619Y-50930133D01*
X95787619Y-50930133D02*
X95825714Y-50892038D01*
X95825714Y-50892038D02*
X95901905Y-50853942D01*
X95901905Y-50853942D02*
X96054286Y-50815847D01*
X96054286Y-50815847D02*
X96130476Y-50777752D01*
X96130476Y-50777752D02*
X96168571Y-50739657D01*
X96168571Y-50739657D02*
X96206667Y-50663466D01*
X96206667Y-50663466D02*
X96206667Y-50587276D01*
X96206667Y-50587276D02*
X96168571Y-50511085D01*
X96168571Y-50511085D02*
X96130476Y-50472990D01*
X96130476Y-50472990D02*
X96054286Y-50434895D01*
X96054286Y-50434895D02*
X95863809Y-50434895D01*
X95863809Y-50434895D02*
X95749524Y-50472990D01*
X91887068Y-51025847D02*
X91772782Y-51063942D01*
X91772782Y-51063942D02*
X91734687Y-51102038D01*
X91734687Y-51102038D02*
X91696591Y-51178228D01*
X91696591Y-51178228D02*
X91696591Y-51292514D01*
X91696591Y-51292514D02*
X91734687Y-51368704D01*
X91734687Y-51368704D02*
X91772782Y-51406800D01*
X91772782Y-51406800D02*
X91848972Y-51444895D01*
X91848972Y-51444895D02*
X92153734Y-51444895D01*
X92153734Y-51444895D02*
X92153734Y-50644895D01*
X92153734Y-50644895D02*
X91887068Y-50644895D01*
X91887068Y-50644895D02*
X91810877Y-50682990D01*
X91810877Y-50682990D02*
X91772782Y-50721085D01*
X91772782Y-50721085D02*
X91734687Y-50797276D01*
X91734687Y-50797276D02*
X91734687Y-50873466D01*
X91734687Y-50873466D02*
X91772782Y-50949657D01*
X91772782Y-50949657D02*
X91810877Y-50987752D01*
X91810877Y-50987752D02*
X91887068Y-51025847D01*
X91887068Y-51025847D02*
X92153734Y-51025847D01*
X91391830Y-51216323D02*
X91010877Y-51216323D01*
X91468020Y-51444895D02*
X91201353Y-50644895D01*
X91201353Y-50644895D02*
X90934687Y-51444895D01*
X90782306Y-50644895D02*
X90325163Y-50644895D01*
X90553735Y-51444895D02*
X90553735Y-50644895D01*
X97983809Y-49446800D02*
X97869523Y-49484895D01*
X97869523Y-49484895D02*
X97679047Y-49484895D01*
X97679047Y-49484895D02*
X97602856Y-49446800D01*
X97602856Y-49446800D02*
X97564761Y-49408704D01*
X97564761Y-49408704D02*
X97526666Y-49332514D01*
X97526666Y-49332514D02*
X97526666Y-49256323D01*
X97526666Y-49256323D02*
X97564761Y-49180133D01*
X97564761Y-49180133D02*
X97602856Y-49142038D01*
X97602856Y-49142038D02*
X97679047Y-49103942D01*
X97679047Y-49103942D02*
X97831428Y-49065847D01*
X97831428Y-49065847D02*
X97907618Y-49027752D01*
X97907618Y-49027752D02*
X97945713Y-48989657D01*
X97945713Y-48989657D02*
X97983809Y-48913466D01*
X97983809Y-48913466D02*
X97983809Y-48837276D01*
X97983809Y-48837276D02*
X97945713Y-48761085D01*
X97945713Y-48761085D02*
X97907618Y-48722990D01*
X97907618Y-48722990D02*
X97831428Y-48684895D01*
X97831428Y-48684895D02*
X97640951Y-48684895D01*
X97640951Y-48684895D02*
X97526666Y-48722990D01*
X96726665Y-49408704D02*
X96764761Y-49446800D01*
X96764761Y-49446800D02*
X96879046Y-49484895D01*
X96879046Y-49484895D02*
X96955237Y-49484895D01*
X96955237Y-49484895D02*
X97069523Y-49446800D01*
X97069523Y-49446800D02*
X97145713Y-49370609D01*
X97145713Y-49370609D02*
X97183808Y-49294419D01*
X97183808Y-49294419D02*
X97221904Y-49142038D01*
X97221904Y-49142038D02*
X97221904Y-49027752D01*
X97221904Y-49027752D02*
X97183808Y-48875371D01*
X97183808Y-48875371D02*
X97145713Y-48799180D01*
X97145713Y-48799180D02*
X97069523Y-48722990D01*
X97069523Y-48722990D02*
X96955237Y-48684895D01*
X96955237Y-48684895D02*
X96879046Y-48684895D01*
X96879046Y-48684895D02*
X96764761Y-48722990D01*
X96764761Y-48722990D02*
X96726665Y-48761085D01*
X96002856Y-49484895D02*
X96383808Y-49484895D01*
X96383808Y-49484895D02*
X96383808Y-48684895D01*
X94898094Y-49789657D02*
X94936189Y-49751561D01*
X94936189Y-49751561D02*
X95012380Y-49637276D01*
X95012380Y-49637276D02*
X95050475Y-49561085D01*
X95050475Y-49561085D02*
X95088570Y-49446800D01*
X95088570Y-49446800D02*
X95126665Y-49256323D01*
X95126665Y-49256323D02*
X95126665Y-49103942D01*
X95126665Y-49103942D02*
X95088570Y-48913466D01*
X95088570Y-48913466D02*
X95050475Y-48799180D01*
X95050475Y-48799180D02*
X95012380Y-48722990D01*
X95012380Y-48722990D02*
X94936189Y-48608704D01*
X94936189Y-48608704D02*
X94898094Y-48570609D01*
X94593332Y-49484895D02*
X94593332Y-48684895D01*
X94593332Y-48684895D02*
X94288570Y-48684895D01*
X94288570Y-48684895D02*
X94212380Y-48722990D01*
X94212380Y-48722990D02*
X94174285Y-48761085D01*
X94174285Y-48761085D02*
X94136189Y-48837276D01*
X94136189Y-48837276D02*
X94136189Y-48951561D01*
X94136189Y-48951561D02*
X94174285Y-49027752D01*
X94174285Y-49027752D02*
X94212380Y-49065847D01*
X94212380Y-49065847D02*
X94288570Y-49103942D01*
X94288570Y-49103942D02*
X94593332Y-49103942D01*
X93640951Y-48684895D02*
X93564761Y-48684895D01*
X93564761Y-48684895D02*
X93488570Y-48722990D01*
X93488570Y-48722990D02*
X93450475Y-48761085D01*
X93450475Y-48761085D02*
X93412380Y-48837276D01*
X93412380Y-48837276D02*
X93374285Y-48989657D01*
X93374285Y-48989657D02*
X93374285Y-49180133D01*
X93374285Y-49180133D02*
X93412380Y-49332514D01*
X93412380Y-49332514D02*
X93450475Y-49408704D01*
X93450475Y-49408704D02*
X93488570Y-49446800D01*
X93488570Y-49446800D02*
X93564761Y-49484895D01*
X93564761Y-49484895D02*
X93640951Y-49484895D01*
X93640951Y-49484895D02*
X93717142Y-49446800D01*
X93717142Y-49446800D02*
X93755237Y-49408704D01*
X93755237Y-49408704D02*
X93793332Y-49332514D01*
X93793332Y-49332514D02*
X93831428Y-49180133D01*
X93831428Y-49180133D02*
X93831428Y-48989657D01*
X93831428Y-48989657D02*
X93793332Y-48837276D01*
X93793332Y-48837276D02*
X93755237Y-48761085D01*
X93755237Y-48761085D02*
X93717142Y-48722990D01*
X93717142Y-48722990D02*
X93640951Y-48684895D01*
X93031427Y-49408704D02*
X92993332Y-49446800D01*
X92993332Y-49446800D02*
X93031427Y-49484895D01*
X93031427Y-49484895D02*
X93069523Y-49446800D01*
X93069523Y-49446800D02*
X93031427Y-49408704D01*
X93031427Y-49408704D02*
X93031427Y-49484895D01*
X92498094Y-48684895D02*
X92421904Y-48684895D01*
X92421904Y-48684895D02*
X92345713Y-48722990D01*
X92345713Y-48722990D02*
X92307618Y-48761085D01*
X92307618Y-48761085D02*
X92269523Y-48837276D01*
X92269523Y-48837276D02*
X92231428Y-48989657D01*
X92231428Y-48989657D02*
X92231428Y-49180133D01*
X92231428Y-49180133D02*
X92269523Y-49332514D01*
X92269523Y-49332514D02*
X92307618Y-49408704D01*
X92307618Y-49408704D02*
X92345713Y-49446800D01*
X92345713Y-49446800D02*
X92421904Y-49484895D01*
X92421904Y-49484895D02*
X92498094Y-49484895D01*
X92498094Y-49484895D02*
X92574285Y-49446800D01*
X92574285Y-49446800D02*
X92612380Y-49408704D01*
X92612380Y-49408704D02*
X92650475Y-49332514D01*
X92650475Y-49332514D02*
X92688571Y-49180133D01*
X92688571Y-49180133D02*
X92688571Y-48989657D01*
X92688571Y-48989657D02*
X92650475Y-48837276D01*
X92650475Y-48837276D02*
X92612380Y-48761085D01*
X92612380Y-48761085D02*
X92574285Y-48722990D01*
X92574285Y-48722990D02*
X92498094Y-48684895D01*
X91507618Y-48684895D02*
X91888570Y-48684895D01*
X91888570Y-48684895D02*
X91926666Y-49065847D01*
X91926666Y-49065847D02*
X91888570Y-49027752D01*
X91888570Y-49027752D02*
X91812380Y-48989657D01*
X91812380Y-48989657D02*
X91621904Y-48989657D01*
X91621904Y-48989657D02*
X91545713Y-49027752D01*
X91545713Y-49027752D02*
X91507618Y-49065847D01*
X91507618Y-49065847D02*
X91469523Y-49142038D01*
X91469523Y-49142038D02*
X91469523Y-49332514D01*
X91469523Y-49332514D02*
X91507618Y-49408704D01*
X91507618Y-49408704D02*
X91545713Y-49446800D01*
X91545713Y-49446800D02*
X91621904Y-49484895D01*
X91621904Y-49484895D02*
X91812380Y-49484895D01*
X91812380Y-49484895D02*
X91888570Y-49446800D01*
X91888570Y-49446800D02*
X91926666Y-49408704D01*
X91202856Y-49789657D02*
X91164761Y-49751561D01*
X91164761Y-49751561D02*
X91088570Y-49637276D01*
X91088570Y-49637276D02*
X91050475Y-49561085D01*
X91050475Y-49561085D02*
X91012380Y-49446800D01*
X91012380Y-49446800D02*
X90974284Y-49256323D01*
X90974284Y-49256323D02*
X90974284Y-49103942D01*
X90974284Y-49103942D02*
X91012380Y-48913466D01*
X91012380Y-48913466D02*
X91050475Y-48799180D01*
X91050475Y-48799180D02*
X91088570Y-48722990D01*
X91088570Y-48722990D02*
X91164761Y-48608704D01*
X91164761Y-48608704D02*
X91202856Y-48570609D01*
X119562990Y-36170476D02*
X119524895Y-36094286D01*
X119524895Y-36094286D02*
X119524895Y-35980000D01*
X119524895Y-35980000D02*
X119562990Y-35865714D01*
X119562990Y-35865714D02*
X119639180Y-35789524D01*
X119639180Y-35789524D02*
X119715371Y-35751429D01*
X119715371Y-35751429D02*
X119867752Y-35713333D01*
X119867752Y-35713333D02*
X119982038Y-35713333D01*
X119982038Y-35713333D02*
X120134419Y-35751429D01*
X120134419Y-35751429D02*
X120210609Y-35789524D01*
X120210609Y-35789524D02*
X120286800Y-35865714D01*
X120286800Y-35865714D02*
X120324895Y-35980000D01*
X120324895Y-35980000D02*
X120324895Y-36056191D01*
X120324895Y-36056191D02*
X120286800Y-36170476D01*
X120286800Y-36170476D02*
X120248704Y-36208572D01*
X120248704Y-36208572D02*
X119982038Y-36208572D01*
X119982038Y-36208572D02*
X119982038Y-36056191D01*
X120324895Y-36551429D02*
X119524895Y-36551429D01*
X119524895Y-36551429D02*
X120324895Y-37008572D01*
X120324895Y-37008572D02*
X119524895Y-37008572D01*
X120324895Y-37389524D02*
X119524895Y-37389524D01*
X119524895Y-37389524D02*
X119524895Y-37580000D01*
X119524895Y-37580000D02*
X119562990Y-37694286D01*
X119562990Y-37694286D02*
X119639180Y-37770476D01*
X119639180Y-37770476D02*
X119715371Y-37808571D01*
X119715371Y-37808571D02*
X119867752Y-37846667D01*
X119867752Y-37846667D02*
X119982038Y-37846667D01*
X119982038Y-37846667D02*
X120134419Y-37808571D01*
X120134419Y-37808571D02*
X120210609Y-37770476D01*
X120210609Y-37770476D02*
X120286800Y-37694286D01*
X120286800Y-37694286D02*
X120324895Y-37580000D01*
X120324895Y-37580000D02*
X120324895Y-37389524D01*
X119929523Y-57704895D02*
X119929523Y-56904895D01*
X119929523Y-56904895D02*
X119662857Y-57476323D01*
X119662857Y-57476323D02*
X119396190Y-56904895D01*
X119396190Y-56904895D02*
X119396190Y-57704895D01*
X118862856Y-56904895D02*
X118710475Y-56904895D01*
X118710475Y-56904895D02*
X118634285Y-56942990D01*
X118634285Y-56942990D02*
X118558094Y-57019180D01*
X118558094Y-57019180D02*
X118519999Y-57171561D01*
X118519999Y-57171561D02*
X118519999Y-57438228D01*
X118519999Y-57438228D02*
X118558094Y-57590609D01*
X118558094Y-57590609D02*
X118634285Y-57666800D01*
X118634285Y-57666800D02*
X118710475Y-57704895D01*
X118710475Y-57704895D02*
X118862856Y-57704895D01*
X118862856Y-57704895D02*
X118939047Y-57666800D01*
X118939047Y-57666800D02*
X119015237Y-57590609D01*
X119015237Y-57590609D02*
X119053333Y-57438228D01*
X119053333Y-57438228D02*
X119053333Y-57171561D01*
X119053333Y-57171561D02*
X119015237Y-57019180D01*
X119015237Y-57019180D02*
X118939047Y-56942990D01*
X118939047Y-56942990D02*
X118862856Y-56904895D01*
X118215238Y-57666800D02*
X118100952Y-57704895D01*
X118100952Y-57704895D02*
X117910476Y-57704895D01*
X117910476Y-57704895D02*
X117834285Y-57666800D01*
X117834285Y-57666800D02*
X117796190Y-57628704D01*
X117796190Y-57628704D02*
X117758095Y-57552514D01*
X117758095Y-57552514D02*
X117758095Y-57476323D01*
X117758095Y-57476323D02*
X117796190Y-57400133D01*
X117796190Y-57400133D02*
X117834285Y-57362038D01*
X117834285Y-57362038D02*
X117910476Y-57323942D01*
X117910476Y-57323942D02*
X118062857Y-57285847D01*
X118062857Y-57285847D02*
X118139047Y-57247752D01*
X118139047Y-57247752D02*
X118177142Y-57209657D01*
X118177142Y-57209657D02*
X118215238Y-57133466D01*
X118215238Y-57133466D02*
X118215238Y-57057276D01*
X118215238Y-57057276D02*
X118177142Y-56981085D01*
X118177142Y-56981085D02*
X118139047Y-56942990D01*
X118139047Y-56942990D02*
X118062857Y-56904895D01*
X118062857Y-56904895D02*
X117872380Y-56904895D01*
X117872380Y-56904895D02*
X117758095Y-56942990D01*
X117415237Y-57704895D02*
X117415237Y-56904895D01*
X116615238Y-57704895D02*
X117072381Y-57704895D01*
X116843809Y-57704895D02*
X116843809Y-56904895D01*
X116843809Y-56904895D02*
X116920000Y-57019180D01*
X116920000Y-57019180D02*
X116996190Y-57095371D01*
X116996190Y-57095371D02*
X117072381Y-57133466D01*
X115434285Y-58009657D02*
X115472380Y-57971561D01*
X115472380Y-57971561D02*
X115548571Y-57857276D01*
X115548571Y-57857276D02*
X115586666Y-57781085D01*
X115586666Y-57781085D02*
X115624761Y-57666800D01*
X115624761Y-57666800D02*
X115662856Y-57476323D01*
X115662856Y-57476323D02*
X115662856Y-57323942D01*
X115662856Y-57323942D02*
X115624761Y-57133466D01*
X115624761Y-57133466D02*
X115586666Y-57019180D01*
X115586666Y-57019180D02*
X115548571Y-56942990D01*
X115548571Y-56942990D02*
X115472380Y-56828704D01*
X115472380Y-56828704D02*
X115434285Y-56790609D01*
X115129523Y-57704895D02*
X115129523Y-56904895D01*
X115129523Y-56904895D02*
X114824761Y-56904895D01*
X114824761Y-56904895D02*
X114748571Y-56942990D01*
X114748571Y-56942990D02*
X114710476Y-56981085D01*
X114710476Y-56981085D02*
X114672380Y-57057276D01*
X114672380Y-57057276D02*
X114672380Y-57171561D01*
X114672380Y-57171561D02*
X114710476Y-57247752D01*
X114710476Y-57247752D02*
X114748571Y-57285847D01*
X114748571Y-57285847D02*
X114824761Y-57323942D01*
X114824761Y-57323942D02*
X115129523Y-57323942D01*
X113910476Y-57704895D02*
X114367619Y-57704895D01*
X114139047Y-57704895D02*
X114139047Y-56904895D01*
X114139047Y-56904895D02*
X114215238Y-57019180D01*
X114215238Y-57019180D02*
X114291428Y-57095371D01*
X114291428Y-57095371D02*
X114367619Y-57133466D01*
X113567618Y-57628704D02*
X113529523Y-57666800D01*
X113529523Y-57666800D02*
X113567618Y-57704895D01*
X113567618Y-57704895D02*
X113605714Y-57666800D01*
X113605714Y-57666800D02*
X113567618Y-57628704D01*
X113567618Y-57628704D02*
X113567618Y-57704895D01*
X113034285Y-56904895D02*
X112958095Y-56904895D01*
X112958095Y-56904895D02*
X112881904Y-56942990D01*
X112881904Y-56942990D02*
X112843809Y-56981085D01*
X112843809Y-56981085D02*
X112805714Y-57057276D01*
X112805714Y-57057276D02*
X112767619Y-57209657D01*
X112767619Y-57209657D02*
X112767619Y-57400133D01*
X112767619Y-57400133D02*
X112805714Y-57552514D01*
X112805714Y-57552514D02*
X112843809Y-57628704D01*
X112843809Y-57628704D02*
X112881904Y-57666800D01*
X112881904Y-57666800D02*
X112958095Y-57704895D01*
X112958095Y-57704895D02*
X113034285Y-57704895D01*
X113034285Y-57704895D02*
X113110476Y-57666800D01*
X113110476Y-57666800D02*
X113148571Y-57628704D01*
X113148571Y-57628704D02*
X113186666Y-57552514D01*
X113186666Y-57552514D02*
X113224762Y-57400133D01*
X113224762Y-57400133D02*
X113224762Y-57209657D01*
X113224762Y-57209657D02*
X113186666Y-57057276D01*
X113186666Y-57057276D02*
X113148571Y-56981085D01*
X113148571Y-56981085D02*
X113110476Y-56942990D01*
X113110476Y-56942990D02*
X113034285Y-56904895D01*
X112043809Y-56904895D02*
X112424761Y-56904895D01*
X112424761Y-56904895D02*
X112462857Y-57285847D01*
X112462857Y-57285847D02*
X112424761Y-57247752D01*
X112424761Y-57247752D02*
X112348571Y-57209657D01*
X112348571Y-57209657D02*
X112158095Y-57209657D01*
X112158095Y-57209657D02*
X112081904Y-57247752D01*
X112081904Y-57247752D02*
X112043809Y-57285847D01*
X112043809Y-57285847D02*
X112005714Y-57362038D01*
X112005714Y-57362038D02*
X112005714Y-57552514D01*
X112005714Y-57552514D02*
X112043809Y-57628704D01*
X112043809Y-57628704D02*
X112081904Y-57666800D01*
X112081904Y-57666800D02*
X112158095Y-57704895D01*
X112158095Y-57704895D02*
X112348571Y-57704895D01*
X112348571Y-57704895D02*
X112424761Y-57666800D01*
X112424761Y-57666800D02*
X112462857Y-57628704D01*
X111739047Y-58009657D02*
X111700952Y-57971561D01*
X111700952Y-57971561D02*
X111624761Y-57857276D01*
X111624761Y-57857276D02*
X111586666Y-57781085D01*
X111586666Y-57781085D02*
X111548571Y-57666800D01*
X111548571Y-57666800D02*
X111510475Y-57476323D01*
X111510475Y-57476323D02*
X111510475Y-57323942D01*
X111510475Y-57323942D02*
X111548571Y-57133466D01*
X111548571Y-57133466D02*
X111586666Y-57019180D01*
X111586666Y-57019180D02*
X111624761Y-56942990D01*
X111624761Y-56942990D02*
X111700952Y-56828704D01*
X111700952Y-56828704D02*
X111739047Y-56790609D01*
X119909523Y-59814895D02*
X119909523Y-59014895D01*
X119909523Y-59014895D02*
X119642857Y-59586323D01*
X119642857Y-59586323D02*
X119376190Y-59014895D01*
X119376190Y-59014895D02*
X119376190Y-59814895D01*
X118995237Y-59814895D02*
X118995237Y-59014895D01*
X118652381Y-59776800D02*
X118538095Y-59814895D01*
X118538095Y-59814895D02*
X118347619Y-59814895D01*
X118347619Y-59814895D02*
X118271428Y-59776800D01*
X118271428Y-59776800D02*
X118233333Y-59738704D01*
X118233333Y-59738704D02*
X118195238Y-59662514D01*
X118195238Y-59662514D02*
X118195238Y-59586323D01*
X118195238Y-59586323D02*
X118233333Y-59510133D01*
X118233333Y-59510133D02*
X118271428Y-59472038D01*
X118271428Y-59472038D02*
X118347619Y-59433942D01*
X118347619Y-59433942D02*
X118500000Y-59395847D01*
X118500000Y-59395847D02*
X118576190Y-59357752D01*
X118576190Y-59357752D02*
X118614285Y-59319657D01*
X118614285Y-59319657D02*
X118652381Y-59243466D01*
X118652381Y-59243466D02*
X118652381Y-59167276D01*
X118652381Y-59167276D02*
X118614285Y-59091085D01*
X118614285Y-59091085D02*
X118576190Y-59052990D01*
X118576190Y-59052990D02*
X118500000Y-59014895D01*
X118500000Y-59014895D02*
X118309523Y-59014895D01*
X118309523Y-59014895D02*
X118195238Y-59052990D01*
X117699999Y-59014895D02*
X117547618Y-59014895D01*
X117547618Y-59014895D02*
X117471428Y-59052990D01*
X117471428Y-59052990D02*
X117395237Y-59129180D01*
X117395237Y-59129180D02*
X117357142Y-59281561D01*
X117357142Y-59281561D02*
X117357142Y-59548228D01*
X117357142Y-59548228D02*
X117395237Y-59700609D01*
X117395237Y-59700609D02*
X117471428Y-59776800D01*
X117471428Y-59776800D02*
X117547618Y-59814895D01*
X117547618Y-59814895D02*
X117699999Y-59814895D01*
X117699999Y-59814895D02*
X117776190Y-59776800D01*
X117776190Y-59776800D02*
X117852380Y-59700609D01*
X117852380Y-59700609D02*
X117890476Y-59548228D01*
X117890476Y-59548228D02*
X117890476Y-59281561D01*
X117890476Y-59281561D02*
X117852380Y-59129180D01*
X117852380Y-59129180D02*
X117776190Y-59052990D01*
X117776190Y-59052990D02*
X117699999Y-59014895D01*
X116595238Y-59814895D02*
X117052381Y-59814895D01*
X116823809Y-59814895D02*
X116823809Y-59014895D01*
X116823809Y-59014895D02*
X116900000Y-59129180D01*
X116900000Y-59129180D02*
X116976190Y-59205371D01*
X116976190Y-59205371D02*
X117052381Y-59243466D01*
X115414285Y-60119657D02*
X115452380Y-60081561D01*
X115452380Y-60081561D02*
X115528571Y-59967276D01*
X115528571Y-59967276D02*
X115566666Y-59891085D01*
X115566666Y-59891085D02*
X115604761Y-59776800D01*
X115604761Y-59776800D02*
X115642856Y-59586323D01*
X115642856Y-59586323D02*
X115642856Y-59433942D01*
X115642856Y-59433942D02*
X115604761Y-59243466D01*
X115604761Y-59243466D02*
X115566666Y-59129180D01*
X115566666Y-59129180D02*
X115528571Y-59052990D01*
X115528571Y-59052990D02*
X115452380Y-58938704D01*
X115452380Y-58938704D02*
X115414285Y-58900609D01*
X115109523Y-59814895D02*
X115109523Y-59014895D01*
X115109523Y-59014895D02*
X114804761Y-59014895D01*
X114804761Y-59014895D02*
X114728571Y-59052990D01*
X114728571Y-59052990D02*
X114690476Y-59091085D01*
X114690476Y-59091085D02*
X114652380Y-59167276D01*
X114652380Y-59167276D02*
X114652380Y-59281561D01*
X114652380Y-59281561D02*
X114690476Y-59357752D01*
X114690476Y-59357752D02*
X114728571Y-59395847D01*
X114728571Y-59395847D02*
X114804761Y-59433942D01*
X114804761Y-59433942D02*
X115109523Y-59433942D01*
X113890476Y-59814895D02*
X114347619Y-59814895D01*
X114119047Y-59814895D02*
X114119047Y-59014895D01*
X114119047Y-59014895D02*
X114195238Y-59129180D01*
X114195238Y-59129180D02*
X114271428Y-59205371D01*
X114271428Y-59205371D02*
X114347619Y-59243466D01*
X113547618Y-59738704D02*
X113509523Y-59776800D01*
X113509523Y-59776800D02*
X113547618Y-59814895D01*
X113547618Y-59814895D02*
X113585714Y-59776800D01*
X113585714Y-59776800D02*
X113547618Y-59738704D01*
X113547618Y-59738704D02*
X113547618Y-59814895D01*
X113014285Y-59014895D02*
X112938095Y-59014895D01*
X112938095Y-59014895D02*
X112861904Y-59052990D01*
X112861904Y-59052990D02*
X112823809Y-59091085D01*
X112823809Y-59091085D02*
X112785714Y-59167276D01*
X112785714Y-59167276D02*
X112747619Y-59319657D01*
X112747619Y-59319657D02*
X112747619Y-59510133D01*
X112747619Y-59510133D02*
X112785714Y-59662514D01*
X112785714Y-59662514D02*
X112823809Y-59738704D01*
X112823809Y-59738704D02*
X112861904Y-59776800D01*
X112861904Y-59776800D02*
X112938095Y-59814895D01*
X112938095Y-59814895D02*
X113014285Y-59814895D01*
X113014285Y-59814895D02*
X113090476Y-59776800D01*
X113090476Y-59776800D02*
X113128571Y-59738704D01*
X113128571Y-59738704D02*
X113166666Y-59662514D01*
X113166666Y-59662514D02*
X113204762Y-59510133D01*
X113204762Y-59510133D02*
X113204762Y-59319657D01*
X113204762Y-59319657D02*
X113166666Y-59167276D01*
X113166666Y-59167276D02*
X113128571Y-59091085D01*
X113128571Y-59091085D02*
X113090476Y-59052990D01*
X113090476Y-59052990D02*
X113014285Y-59014895D01*
X112480952Y-59014895D02*
X111947618Y-59014895D01*
X111947618Y-59014895D02*
X112290476Y-59814895D01*
X111719047Y-60119657D02*
X111680952Y-60081561D01*
X111680952Y-60081561D02*
X111604761Y-59967276D01*
X111604761Y-59967276D02*
X111566666Y-59891085D01*
X111566666Y-59891085D02*
X111528571Y-59776800D01*
X111528571Y-59776800D02*
X111490475Y-59586323D01*
X111490475Y-59586323D02*
X111490475Y-59433942D01*
X111490475Y-59433942D02*
X111528571Y-59243466D01*
X111528571Y-59243466D02*
X111566666Y-59129180D01*
X111566666Y-59129180D02*
X111604761Y-59052990D01*
X111604761Y-59052990D02*
X111680952Y-58938704D01*
X111680952Y-58938704D02*
X111719047Y-58900609D01*
X97798570Y-46724895D02*
X97531903Y-47524895D01*
X97531903Y-47524895D02*
X97265237Y-46724895D01*
X96998570Y-47524895D02*
X96998570Y-46724895D01*
X96350952Y-47105847D02*
X96236666Y-47143942D01*
X96236666Y-47143942D02*
X96198571Y-47182038D01*
X96198571Y-47182038D02*
X96160475Y-47258228D01*
X96160475Y-47258228D02*
X96160475Y-47372514D01*
X96160475Y-47372514D02*
X96198571Y-47448704D01*
X96198571Y-47448704D02*
X96236666Y-47486800D01*
X96236666Y-47486800D02*
X96312856Y-47524895D01*
X96312856Y-47524895D02*
X96617618Y-47524895D01*
X96617618Y-47524895D02*
X96617618Y-46724895D01*
X96617618Y-46724895D02*
X96350952Y-46724895D01*
X96350952Y-46724895D02*
X96274761Y-46762990D01*
X96274761Y-46762990D02*
X96236666Y-46801085D01*
X96236666Y-46801085D02*
X96198571Y-46877276D01*
X96198571Y-46877276D02*
X96198571Y-46953466D01*
X96198571Y-46953466D02*
X96236666Y-47029657D01*
X96236666Y-47029657D02*
X96274761Y-47067752D01*
X96274761Y-47067752D02*
X96350952Y-47105847D01*
X96350952Y-47105847D02*
X96617618Y-47105847D01*
X94979523Y-47829657D02*
X95017618Y-47791561D01*
X95017618Y-47791561D02*
X95093809Y-47677276D01*
X95093809Y-47677276D02*
X95131904Y-47601085D01*
X95131904Y-47601085D02*
X95169999Y-47486800D01*
X95169999Y-47486800D02*
X95208094Y-47296323D01*
X95208094Y-47296323D02*
X95208094Y-47143942D01*
X95208094Y-47143942D02*
X95169999Y-46953466D01*
X95169999Y-46953466D02*
X95131904Y-46839180D01*
X95131904Y-46839180D02*
X95093809Y-46762990D01*
X95093809Y-46762990D02*
X95017618Y-46648704D01*
X95017618Y-46648704D02*
X94979523Y-46610609D01*
X94674761Y-47524895D02*
X94674761Y-46724895D01*
X94674761Y-46724895D02*
X94369999Y-46724895D01*
X94369999Y-46724895D02*
X94293809Y-46762990D01*
X94293809Y-46762990D02*
X94255714Y-46801085D01*
X94255714Y-46801085D02*
X94217618Y-46877276D01*
X94217618Y-46877276D02*
X94217618Y-46991561D01*
X94217618Y-46991561D02*
X94255714Y-47067752D01*
X94255714Y-47067752D02*
X94293809Y-47105847D01*
X94293809Y-47105847D02*
X94369999Y-47143942D01*
X94369999Y-47143942D02*
X94674761Y-47143942D01*
X93722380Y-46724895D02*
X93646190Y-46724895D01*
X93646190Y-46724895D02*
X93569999Y-46762990D01*
X93569999Y-46762990D02*
X93531904Y-46801085D01*
X93531904Y-46801085D02*
X93493809Y-46877276D01*
X93493809Y-46877276D02*
X93455714Y-47029657D01*
X93455714Y-47029657D02*
X93455714Y-47220133D01*
X93455714Y-47220133D02*
X93493809Y-47372514D01*
X93493809Y-47372514D02*
X93531904Y-47448704D01*
X93531904Y-47448704D02*
X93569999Y-47486800D01*
X93569999Y-47486800D02*
X93646190Y-47524895D01*
X93646190Y-47524895D02*
X93722380Y-47524895D01*
X93722380Y-47524895D02*
X93798571Y-47486800D01*
X93798571Y-47486800D02*
X93836666Y-47448704D01*
X93836666Y-47448704D02*
X93874761Y-47372514D01*
X93874761Y-47372514D02*
X93912857Y-47220133D01*
X93912857Y-47220133D02*
X93912857Y-47029657D01*
X93912857Y-47029657D02*
X93874761Y-46877276D01*
X93874761Y-46877276D02*
X93836666Y-46801085D01*
X93836666Y-46801085D02*
X93798571Y-46762990D01*
X93798571Y-46762990D02*
X93722380Y-46724895D01*
X93112856Y-47448704D02*
X93074761Y-47486800D01*
X93074761Y-47486800D02*
X93112856Y-47524895D01*
X93112856Y-47524895D02*
X93150952Y-47486800D01*
X93150952Y-47486800D02*
X93112856Y-47448704D01*
X93112856Y-47448704D02*
X93112856Y-47524895D01*
X92312857Y-47524895D02*
X92770000Y-47524895D01*
X92541428Y-47524895D02*
X92541428Y-46724895D01*
X92541428Y-46724895D02*
X92617619Y-46839180D01*
X92617619Y-46839180D02*
X92693809Y-46915371D01*
X92693809Y-46915371D02*
X92770000Y-46953466D01*
X91817618Y-46724895D02*
X91741428Y-46724895D01*
X91741428Y-46724895D02*
X91665237Y-46762990D01*
X91665237Y-46762990D02*
X91627142Y-46801085D01*
X91627142Y-46801085D02*
X91589047Y-46877276D01*
X91589047Y-46877276D02*
X91550952Y-47029657D01*
X91550952Y-47029657D02*
X91550952Y-47220133D01*
X91550952Y-47220133D02*
X91589047Y-47372514D01*
X91589047Y-47372514D02*
X91627142Y-47448704D01*
X91627142Y-47448704D02*
X91665237Y-47486800D01*
X91665237Y-47486800D02*
X91741428Y-47524895D01*
X91741428Y-47524895D02*
X91817618Y-47524895D01*
X91817618Y-47524895D02*
X91893809Y-47486800D01*
X91893809Y-47486800D02*
X91931904Y-47448704D01*
X91931904Y-47448704D02*
X91969999Y-47372514D01*
X91969999Y-47372514D02*
X92008095Y-47220133D01*
X92008095Y-47220133D02*
X92008095Y-47029657D01*
X92008095Y-47029657D02*
X91969999Y-46877276D01*
X91969999Y-46877276D02*
X91931904Y-46801085D01*
X91931904Y-46801085D02*
X91893809Y-46762990D01*
X91893809Y-46762990D02*
X91817618Y-46724895D01*
X91284285Y-47829657D02*
X91246190Y-47791561D01*
X91246190Y-47791561D02*
X91169999Y-47677276D01*
X91169999Y-47677276D02*
X91131904Y-47601085D01*
X91131904Y-47601085D02*
X91093809Y-47486800D01*
X91093809Y-47486800D02*
X91055713Y-47296323D01*
X91055713Y-47296323D02*
X91055713Y-47143942D01*
X91055713Y-47143942D02*
X91093809Y-46953466D01*
X91093809Y-46953466D02*
X91131904Y-46839180D01*
X91131904Y-46839180D02*
X91169999Y-46762990D01*
X91169999Y-46762990D02*
X91246190Y-46648704D01*
X91246190Y-46648704D02*
X91284285Y-46610609D01*
X97962857Y-45516800D02*
X97848571Y-45554895D01*
X97848571Y-45554895D02*
X97658095Y-45554895D01*
X97658095Y-45554895D02*
X97581904Y-45516800D01*
X97581904Y-45516800D02*
X97543809Y-45478704D01*
X97543809Y-45478704D02*
X97505714Y-45402514D01*
X97505714Y-45402514D02*
X97505714Y-45326323D01*
X97505714Y-45326323D02*
X97543809Y-45250133D01*
X97543809Y-45250133D02*
X97581904Y-45212038D01*
X97581904Y-45212038D02*
X97658095Y-45173942D01*
X97658095Y-45173942D02*
X97810476Y-45135847D01*
X97810476Y-45135847D02*
X97886666Y-45097752D01*
X97886666Y-45097752D02*
X97924761Y-45059657D01*
X97924761Y-45059657D02*
X97962857Y-44983466D01*
X97962857Y-44983466D02*
X97962857Y-44907276D01*
X97962857Y-44907276D02*
X97924761Y-44831085D01*
X97924761Y-44831085D02*
X97886666Y-44792990D01*
X97886666Y-44792990D02*
X97810476Y-44754895D01*
X97810476Y-44754895D02*
X97619999Y-44754895D01*
X97619999Y-44754895D02*
X97505714Y-44792990D01*
X97162856Y-45554895D02*
X97162856Y-44754895D01*
X97162856Y-44754895D02*
X96972380Y-44754895D01*
X96972380Y-44754895D02*
X96858094Y-44792990D01*
X96858094Y-44792990D02*
X96781904Y-44869180D01*
X96781904Y-44869180D02*
X96743809Y-44945371D01*
X96743809Y-44945371D02*
X96705713Y-45097752D01*
X96705713Y-45097752D02*
X96705713Y-45212038D01*
X96705713Y-45212038D02*
X96743809Y-45364419D01*
X96743809Y-45364419D02*
X96781904Y-45440609D01*
X96781904Y-45440609D02*
X96858094Y-45516800D01*
X96858094Y-45516800D02*
X96972380Y-45554895D01*
X96972380Y-45554895D02*
X97162856Y-45554895D01*
X96400952Y-45326323D02*
X96019999Y-45326323D01*
X96477142Y-45554895D02*
X96210475Y-44754895D01*
X96210475Y-44754895D02*
X95943809Y-45554895D01*
X94839047Y-45859657D02*
X94877142Y-45821561D01*
X94877142Y-45821561D02*
X94953333Y-45707276D01*
X94953333Y-45707276D02*
X94991428Y-45631085D01*
X94991428Y-45631085D02*
X95029523Y-45516800D01*
X95029523Y-45516800D02*
X95067618Y-45326323D01*
X95067618Y-45326323D02*
X95067618Y-45173942D01*
X95067618Y-45173942D02*
X95029523Y-44983466D01*
X95029523Y-44983466D02*
X94991428Y-44869180D01*
X94991428Y-44869180D02*
X94953333Y-44792990D01*
X94953333Y-44792990D02*
X94877142Y-44678704D01*
X94877142Y-44678704D02*
X94839047Y-44640609D01*
X94534285Y-45554895D02*
X94534285Y-44754895D01*
X94534285Y-44754895D02*
X94229523Y-44754895D01*
X94229523Y-44754895D02*
X94153333Y-44792990D01*
X94153333Y-44792990D02*
X94115238Y-44831085D01*
X94115238Y-44831085D02*
X94077142Y-44907276D01*
X94077142Y-44907276D02*
X94077142Y-45021561D01*
X94077142Y-45021561D02*
X94115238Y-45097752D01*
X94115238Y-45097752D02*
X94153333Y-45135847D01*
X94153333Y-45135847D02*
X94229523Y-45173942D01*
X94229523Y-45173942D02*
X94534285Y-45173942D01*
X93581904Y-44754895D02*
X93505714Y-44754895D01*
X93505714Y-44754895D02*
X93429523Y-44792990D01*
X93429523Y-44792990D02*
X93391428Y-44831085D01*
X93391428Y-44831085D02*
X93353333Y-44907276D01*
X93353333Y-44907276D02*
X93315238Y-45059657D01*
X93315238Y-45059657D02*
X93315238Y-45250133D01*
X93315238Y-45250133D02*
X93353333Y-45402514D01*
X93353333Y-45402514D02*
X93391428Y-45478704D01*
X93391428Y-45478704D02*
X93429523Y-45516800D01*
X93429523Y-45516800D02*
X93505714Y-45554895D01*
X93505714Y-45554895D02*
X93581904Y-45554895D01*
X93581904Y-45554895D02*
X93658095Y-45516800D01*
X93658095Y-45516800D02*
X93696190Y-45478704D01*
X93696190Y-45478704D02*
X93734285Y-45402514D01*
X93734285Y-45402514D02*
X93772381Y-45250133D01*
X93772381Y-45250133D02*
X93772381Y-45059657D01*
X93772381Y-45059657D02*
X93734285Y-44907276D01*
X93734285Y-44907276D02*
X93696190Y-44831085D01*
X93696190Y-44831085D02*
X93658095Y-44792990D01*
X93658095Y-44792990D02*
X93581904Y-44754895D01*
X92972380Y-45478704D02*
X92934285Y-45516800D01*
X92934285Y-45516800D02*
X92972380Y-45554895D01*
X92972380Y-45554895D02*
X93010476Y-45516800D01*
X93010476Y-45516800D02*
X92972380Y-45478704D01*
X92972380Y-45478704D02*
X92972380Y-45554895D01*
X92439047Y-44754895D02*
X92362857Y-44754895D01*
X92362857Y-44754895D02*
X92286666Y-44792990D01*
X92286666Y-44792990D02*
X92248571Y-44831085D01*
X92248571Y-44831085D02*
X92210476Y-44907276D01*
X92210476Y-44907276D02*
X92172381Y-45059657D01*
X92172381Y-45059657D02*
X92172381Y-45250133D01*
X92172381Y-45250133D02*
X92210476Y-45402514D01*
X92210476Y-45402514D02*
X92248571Y-45478704D01*
X92248571Y-45478704D02*
X92286666Y-45516800D01*
X92286666Y-45516800D02*
X92362857Y-45554895D01*
X92362857Y-45554895D02*
X92439047Y-45554895D01*
X92439047Y-45554895D02*
X92515238Y-45516800D01*
X92515238Y-45516800D02*
X92553333Y-45478704D01*
X92553333Y-45478704D02*
X92591428Y-45402514D01*
X92591428Y-45402514D02*
X92629524Y-45250133D01*
X92629524Y-45250133D02*
X92629524Y-45059657D01*
X92629524Y-45059657D02*
X92591428Y-44907276D01*
X92591428Y-44907276D02*
X92553333Y-44831085D01*
X92553333Y-44831085D02*
X92515238Y-44792990D01*
X92515238Y-44792990D02*
X92439047Y-44754895D01*
X91486666Y-45021561D02*
X91486666Y-45554895D01*
X91677142Y-44716800D02*
X91867619Y-45288228D01*
X91867619Y-45288228D02*
X91372380Y-45288228D01*
X91143809Y-45859657D02*
X91105714Y-45821561D01*
X91105714Y-45821561D02*
X91029523Y-45707276D01*
X91029523Y-45707276D02*
X90991428Y-45631085D01*
X90991428Y-45631085D02*
X90953333Y-45516800D01*
X90953333Y-45516800D02*
X90915237Y-45326323D01*
X90915237Y-45326323D02*
X90915237Y-45173942D01*
X90915237Y-45173942D02*
X90953333Y-44983466D01*
X90953333Y-44983466D02*
X90991428Y-44869180D01*
X90991428Y-44869180D02*
X91029523Y-44792990D01*
X91029523Y-44792990D02*
X91105714Y-44678704D01*
X91105714Y-44678704D02*
X91143809Y-44640609D01*
X98788095Y-42894895D02*
X98330952Y-42894895D01*
X98559524Y-43694895D02*
X98559524Y-42894895D01*
X98064285Y-43694895D02*
X98064285Y-42894895D01*
X98064285Y-42894895D02*
X97797619Y-43466323D01*
X97797619Y-43466323D02*
X97530952Y-42894895D01*
X97530952Y-42894895D02*
X97530952Y-43694895D01*
X96883333Y-43275847D02*
X96769047Y-43313942D01*
X96769047Y-43313942D02*
X96730952Y-43352038D01*
X96730952Y-43352038D02*
X96692856Y-43428228D01*
X96692856Y-43428228D02*
X96692856Y-43542514D01*
X96692856Y-43542514D02*
X96730952Y-43618704D01*
X96730952Y-43618704D02*
X96769047Y-43656800D01*
X96769047Y-43656800D02*
X96845237Y-43694895D01*
X96845237Y-43694895D02*
X97149999Y-43694895D01*
X97149999Y-43694895D02*
X97149999Y-42894895D01*
X97149999Y-42894895D02*
X96883333Y-42894895D01*
X96883333Y-42894895D02*
X96807142Y-42932990D01*
X96807142Y-42932990D02*
X96769047Y-42971085D01*
X96769047Y-42971085D02*
X96730952Y-43047276D01*
X96730952Y-43047276D02*
X96730952Y-43123466D01*
X96730952Y-43123466D02*
X96769047Y-43199657D01*
X96769047Y-43199657D02*
X96807142Y-43237752D01*
X96807142Y-43237752D02*
X96883333Y-43275847D01*
X96883333Y-43275847D02*
X97149999Y-43275847D01*
X96388095Y-42971085D02*
X96349999Y-42932990D01*
X96349999Y-42932990D02*
X96273809Y-42894895D01*
X96273809Y-42894895D02*
X96083333Y-42894895D01*
X96083333Y-42894895D02*
X96007142Y-42932990D01*
X96007142Y-42932990D02*
X95969047Y-42971085D01*
X95969047Y-42971085D02*
X95930952Y-43047276D01*
X95930952Y-43047276D02*
X95930952Y-43123466D01*
X95930952Y-43123466D02*
X95969047Y-43237752D01*
X95969047Y-43237752D02*
X96426190Y-43694895D01*
X96426190Y-43694895D02*
X95930952Y-43694895D01*
X94749999Y-43999657D02*
X94788094Y-43961561D01*
X94788094Y-43961561D02*
X94864285Y-43847276D01*
X94864285Y-43847276D02*
X94902380Y-43771085D01*
X94902380Y-43771085D02*
X94940475Y-43656800D01*
X94940475Y-43656800D02*
X94978570Y-43466323D01*
X94978570Y-43466323D02*
X94978570Y-43313942D01*
X94978570Y-43313942D02*
X94940475Y-43123466D01*
X94940475Y-43123466D02*
X94902380Y-43009180D01*
X94902380Y-43009180D02*
X94864285Y-42932990D01*
X94864285Y-42932990D02*
X94788094Y-42818704D01*
X94788094Y-42818704D02*
X94749999Y-42780609D01*
X94445237Y-43694895D02*
X94445237Y-42894895D01*
X94445237Y-42894895D02*
X94140475Y-42894895D01*
X94140475Y-42894895D02*
X94064285Y-42932990D01*
X94064285Y-42932990D02*
X94026190Y-42971085D01*
X94026190Y-42971085D02*
X93988094Y-43047276D01*
X93988094Y-43047276D02*
X93988094Y-43161561D01*
X93988094Y-43161561D02*
X94026190Y-43237752D01*
X94026190Y-43237752D02*
X94064285Y-43275847D01*
X94064285Y-43275847D02*
X94140475Y-43313942D01*
X94140475Y-43313942D02*
X94445237Y-43313942D01*
X93492856Y-42894895D02*
X93416666Y-42894895D01*
X93416666Y-42894895D02*
X93340475Y-42932990D01*
X93340475Y-42932990D02*
X93302380Y-42971085D01*
X93302380Y-42971085D02*
X93264285Y-43047276D01*
X93264285Y-43047276D02*
X93226190Y-43199657D01*
X93226190Y-43199657D02*
X93226190Y-43390133D01*
X93226190Y-43390133D02*
X93264285Y-43542514D01*
X93264285Y-43542514D02*
X93302380Y-43618704D01*
X93302380Y-43618704D02*
X93340475Y-43656800D01*
X93340475Y-43656800D02*
X93416666Y-43694895D01*
X93416666Y-43694895D02*
X93492856Y-43694895D01*
X93492856Y-43694895D02*
X93569047Y-43656800D01*
X93569047Y-43656800D02*
X93607142Y-43618704D01*
X93607142Y-43618704D02*
X93645237Y-43542514D01*
X93645237Y-43542514D02*
X93683333Y-43390133D01*
X93683333Y-43390133D02*
X93683333Y-43199657D01*
X93683333Y-43199657D02*
X93645237Y-43047276D01*
X93645237Y-43047276D02*
X93607142Y-42971085D01*
X93607142Y-42971085D02*
X93569047Y-42932990D01*
X93569047Y-42932990D02*
X93492856Y-42894895D01*
X92883332Y-43618704D02*
X92845237Y-43656800D01*
X92845237Y-43656800D02*
X92883332Y-43694895D01*
X92883332Y-43694895D02*
X92921428Y-43656800D01*
X92921428Y-43656800D02*
X92883332Y-43618704D01*
X92883332Y-43618704D02*
X92883332Y-43694895D01*
X92349999Y-42894895D02*
X92273809Y-42894895D01*
X92273809Y-42894895D02*
X92197618Y-42932990D01*
X92197618Y-42932990D02*
X92159523Y-42971085D01*
X92159523Y-42971085D02*
X92121428Y-43047276D01*
X92121428Y-43047276D02*
X92083333Y-43199657D01*
X92083333Y-43199657D02*
X92083333Y-43390133D01*
X92083333Y-43390133D02*
X92121428Y-43542514D01*
X92121428Y-43542514D02*
X92159523Y-43618704D01*
X92159523Y-43618704D02*
X92197618Y-43656800D01*
X92197618Y-43656800D02*
X92273809Y-43694895D01*
X92273809Y-43694895D02*
X92349999Y-43694895D01*
X92349999Y-43694895D02*
X92426190Y-43656800D01*
X92426190Y-43656800D02*
X92464285Y-43618704D01*
X92464285Y-43618704D02*
X92502380Y-43542514D01*
X92502380Y-43542514D02*
X92540476Y-43390133D01*
X92540476Y-43390133D02*
X92540476Y-43199657D01*
X92540476Y-43199657D02*
X92502380Y-43047276D01*
X92502380Y-43047276D02*
X92464285Y-42971085D01*
X92464285Y-42971085D02*
X92426190Y-42932990D01*
X92426190Y-42932990D02*
X92349999Y-42894895D01*
X91702380Y-43694895D02*
X91549999Y-43694895D01*
X91549999Y-43694895D02*
X91473809Y-43656800D01*
X91473809Y-43656800D02*
X91435713Y-43618704D01*
X91435713Y-43618704D02*
X91359523Y-43504419D01*
X91359523Y-43504419D02*
X91321428Y-43352038D01*
X91321428Y-43352038D02*
X91321428Y-43047276D01*
X91321428Y-43047276D02*
X91359523Y-42971085D01*
X91359523Y-42971085D02*
X91397618Y-42932990D01*
X91397618Y-42932990D02*
X91473809Y-42894895D01*
X91473809Y-42894895D02*
X91626190Y-42894895D01*
X91626190Y-42894895D02*
X91702380Y-42932990D01*
X91702380Y-42932990D02*
X91740475Y-42971085D01*
X91740475Y-42971085D02*
X91778571Y-43047276D01*
X91778571Y-43047276D02*
X91778571Y-43237752D01*
X91778571Y-43237752D02*
X91740475Y-43313942D01*
X91740475Y-43313942D02*
X91702380Y-43352038D01*
X91702380Y-43352038D02*
X91626190Y-43390133D01*
X91626190Y-43390133D02*
X91473809Y-43390133D01*
X91473809Y-43390133D02*
X91397618Y-43352038D01*
X91397618Y-43352038D02*
X91359523Y-43313942D01*
X91359523Y-43313942D02*
X91321428Y-43237752D01*
X91054761Y-43999657D02*
X91016666Y-43961561D01*
X91016666Y-43961561D02*
X90940475Y-43847276D01*
X90940475Y-43847276D02*
X90902380Y-43771085D01*
X90902380Y-43771085D02*
X90864285Y-43656800D01*
X90864285Y-43656800D02*
X90826189Y-43466323D01*
X90826189Y-43466323D02*
X90826189Y-43313942D01*
X90826189Y-43313942D02*
X90864285Y-43123466D01*
X90864285Y-43123466D02*
X90902380Y-43009180D01*
X90902380Y-43009180D02*
X90940475Y-42932990D01*
X90940475Y-42932990D02*
X91016666Y-42818704D01*
X91016666Y-42818704D02*
X91054761Y-42780609D01*
X99462857Y-38794895D02*
X99005714Y-38794895D01*
X99234286Y-39594895D02*
X99234286Y-38794895D01*
X98739047Y-39594895D02*
X98739047Y-38794895D01*
X98739047Y-38794895D02*
X98472381Y-39366323D01*
X98472381Y-39366323D02*
X98205714Y-38794895D01*
X98205714Y-38794895D02*
X98205714Y-39594895D01*
X97558095Y-39175847D02*
X97443809Y-39213942D01*
X97443809Y-39213942D02*
X97405714Y-39252038D01*
X97405714Y-39252038D02*
X97367618Y-39328228D01*
X97367618Y-39328228D02*
X97367618Y-39442514D01*
X97367618Y-39442514D02*
X97405714Y-39518704D01*
X97405714Y-39518704D02*
X97443809Y-39556800D01*
X97443809Y-39556800D02*
X97519999Y-39594895D01*
X97519999Y-39594895D02*
X97824761Y-39594895D01*
X97824761Y-39594895D02*
X97824761Y-38794895D01*
X97824761Y-38794895D02*
X97558095Y-38794895D01*
X97558095Y-38794895D02*
X97481904Y-38832990D01*
X97481904Y-38832990D02*
X97443809Y-38871085D01*
X97443809Y-38871085D02*
X97405714Y-38947276D01*
X97405714Y-38947276D02*
X97405714Y-39023466D01*
X97405714Y-39023466D02*
X97443809Y-39099657D01*
X97443809Y-39099657D02*
X97481904Y-39137752D01*
X97481904Y-39137752D02*
X97558095Y-39175847D01*
X97558095Y-39175847D02*
X97824761Y-39175847D01*
X97139047Y-38794895D02*
X96681904Y-38794895D01*
X96910476Y-39594895D02*
X96910476Y-38794895D01*
X95996190Y-39594895D02*
X96453333Y-39594895D01*
X96224761Y-39594895D02*
X96224761Y-38794895D01*
X96224761Y-38794895D02*
X96300952Y-38909180D01*
X96300952Y-38909180D02*
X96377142Y-38985371D01*
X96377142Y-38985371D02*
X96453333Y-39023466D01*
X94815237Y-39899657D02*
X94853332Y-39861561D01*
X94853332Y-39861561D02*
X94929523Y-39747276D01*
X94929523Y-39747276D02*
X94967618Y-39671085D01*
X94967618Y-39671085D02*
X95005713Y-39556800D01*
X95005713Y-39556800D02*
X95043808Y-39366323D01*
X95043808Y-39366323D02*
X95043808Y-39213942D01*
X95043808Y-39213942D02*
X95005713Y-39023466D01*
X95005713Y-39023466D02*
X94967618Y-38909180D01*
X94967618Y-38909180D02*
X94929523Y-38832990D01*
X94929523Y-38832990D02*
X94853332Y-38718704D01*
X94853332Y-38718704D02*
X94815237Y-38680609D01*
X94510475Y-39594895D02*
X94510475Y-38794895D01*
X94510475Y-38794895D02*
X94205713Y-38794895D01*
X94205713Y-38794895D02*
X94129523Y-38832990D01*
X94129523Y-38832990D02*
X94091428Y-38871085D01*
X94091428Y-38871085D02*
X94053332Y-38947276D01*
X94053332Y-38947276D02*
X94053332Y-39061561D01*
X94053332Y-39061561D02*
X94091428Y-39137752D01*
X94091428Y-39137752D02*
X94129523Y-39175847D01*
X94129523Y-39175847D02*
X94205713Y-39213942D01*
X94205713Y-39213942D02*
X94510475Y-39213942D01*
X93291428Y-39594895D02*
X93748571Y-39594895D01*
X93519999Y-39594895D02*
X93519999Y-38794895D01*
X93519999Y-38794895D02*
X93596190Y-38909180D01*
X93596190Y-38909180D02*
X93672380Y-38985371D01*
X93672380Y-38985371D02*
X93748571Y-39023466D01*
X92948570Y-39518704D02*
X92910475Y-39556800D01*
X92910475Y-39556800D02*
X92948570Y-39594895D01*
X92948570Y-39594895D02*
X92986666Y-39556800D01*
X92986666Y-39556800D02*
X92948570Y-39518704D01*
X92948570Y-39518704D02*
X92948570Y-39594895D01*
X92415237Y-38794895D02*
X92339047Y-38794895D01*
X92339047Y-38794895D02*
X92262856Y-38832990D01*
X92262856Y-38832990D02*
X92224761Y-38871085D01*
X92224761Y-38871085D02*
X92186666Y-38947276D01*
X92186666Y-38947276D02*
X92148571Y-39099657D01*
X92148571Y-39099657D02*
X92148571Y-39290133D01*
X92148571Y-39290133D02*
X92186666Y-39442514D01*
X92186666Y-39442514D02*
X92224761Y-39518704D01*
X92224761Y-39518704D02*
X92262856Y-39556800D01*
X92262856Y-39556800D02*
X92339047Y-39594895D01*
X92339047Y-39594895D02*
X92415237Y-39594895D01*
X92415237Y-39594895D02*
X92491428Y-39556800D01*
X92491428Y-39556800D02*
X92529523Y-39518704D01*
X92529523Y-39518704D02*
X92567618Y-39442514D01*
X92567618Y-39442514D02*
X92605714Y-39290133D01*
X92605714Y-39290133D02*
X92605714Y-39099657D01*
X92605714Y-39099657D02*
X92567618Y-38947276D01*
X92567618Y-38947276D02*
X92529523Y-38871085D01*
X92529523Y-38871085D02*
X92491428Y-38832990D01*
X92491428Y-38832990D02*
X92415237Y-38794895D01*
X91386666Y-39594895D02*
X91843809Y-39594895D01*
X91615237Y-39594895D02*
X91615237Y-38794895D01*
X91615237Y-38794895D02*
X91691428Y-38909180D01*
X91691428Y-38909180D02*
X91767618Y-38985371D01*
X91767618Y-38985371D02*
X91843809Y-39023466D01*
X91119999Y-39899657D02*
X91081904Y-39861561D01*
X91081904Y-39861561D02*
X91005713Y-39747276D01*
X91005713Y-39747276D02*
X90967618Y-39671085D01*
X90967618Y-39671085D02*
X90929523Y-39556800D01*
X90929523Y-39556800D02*
X90891427Y-39366323D01*
X90891427Y-39366323D02*
X90891427Y-39213942D01*
X90891427Y-39213942D02*
X90929523Y-39023466D01*
X90929523Y-39023466D02*
X90967618Y-38909180D01*
X90967618Y-38909180D02*
X91005713Y-38832990D01*
X91005713Y-38832990D02*
X91081904Y-38718704D01*
X91081904Y-38718704D02*
X91119999Y-38680609D01*
X98451427Y-41594895D02*
X98451427Y-40794895D01*
X98451427Y-40794895D02*
X98260951Y-40794895D01*
X98260951Y-40794895D02*
X98146665Y-40832990D01*
X98146665Y-40832990D02*
X98070475Y-40909180D01*
X98070475Y-40909180D02*
X98032380Y-40985371D01*
X98032380Y-40985371D02*
X97994284Y-41137752D01*
X97994284Y-41137752D02*
X97994284Y-41252038D01*
X97994284Y-41252038D02*
X98032380Y-41404419D01*
X98032380Y-41404419D02*
X98070475Y-41480609D01*
X98070475Y-41480609D02*
X98146665Y-41556800D01*
X98146665Y-41556800D02*
X98260951Y-41594895D01*
X98260951Y-41594895D02*
X98451427Y-41594895D01*
X97651427Y-41594895D02*
X97651427Y-40794895D01*
X97118094Y-40794895D02*
X96965713Y-40794895D01*
X96965713Y-40794895D02*
X96889523Y-40832990D01*
X96889523Y-40832990D02*
X96813332Y-40909180D01*
X96813332Y-40909180D02*
X96775237Y-41061561D01*
X96775237Y-41061561D02*
X96775237Y-41328228D01*
X96775237Y-41328228D02*
X96813332Y-41480609D01*
X96813332Y-41480609D02*
X96889523Y-41556800D01*
X96889523Y-41556800D02*
X96965713Y-41594895D01*
X96965713Y-41594895D02*
X97118094Y-41594895D01*
X97118094Y-41594895D02*
X97194285Y-41556800D01*
X97194285Y-41556800D02*
X97270475Y-41480609D01*
X97270475Y-41480609D02*
X97308571Y-41328228D01*
X97308571Y-41328228D02*
X97308571Y-41061561D01*
X97308571Y-41061561D02*
X97270475Y-40909180D01*
X97270475Y-40909180D02*
X97194285Y-40832990D01*
X97194285Y-40832990D02*
X97118094Y-40794895D01*
X96470476Y-40871085D02*
X96432380Y-40832990D01*
X96432380Y-40832990D02*
X96356190Y-40794895D01*
X96356190Y-40794895D02*
X96165714Y-40794895D01*
X96165714Y-40794895D02*
X96089523Y-40832990D01*
X96089523Y-40832990D02*
X96051428Y-40871085D01*
X96051428Y-40871085D02*
X96013333Y-40947276D01*
X96013333Y-40947276D02*
X96013333Y-41023466D01*
X96013333Y-41023466D02*
X96051428Y-41137752D01*
X96051428Y-41137752D02*
X96508571Y-41594895D01*
X96508571Y-41594895D02*
X96013333Y-41594895D01*
X94832380Y-41899657D02*
X94870475Y-41861561D01*
X94870475Y-41861561D02*
X94946666Y-41747276D01*
X94946666Y-41747276D02*
X94984761Y-41671085D01*
X94984761Y-41671085D02*
X95022856Y-41556800D01*
X95022856Y-41556800D02*
X95060951Y-41366323D01*
X95060951Y-41366323D02*
X95060951Y-41213942D01*
X95060951Y-41213942D02*
X95022856Y-41023466D01*
X95022856Y-41023466D02*
X94984761Y-40909180D01*
X94984761Y-40909180D02*
X94946666Y-40832990D01*
X94946666Y-40832990D02*
X94870475Y-40718704D01*
X94870475Y-40718704D02*
X94832380Y-40680609D01*
X94527618Y-41594895D02*
X94527618Y-40794895D01*
X94527618Y-40794895D02*
X94222856Y-40794895D01*
X94222856Y-40794895D02*
X94146666Y-40832990D01*
X94146666Y-40832990D02*
X94108571Y-40871085D01*
X94108571Y-40871085D02*
X94070475Y-40947276D01*
X94070475Y-40947276D02*
X94070475Y-41061561D01*
X94070475Y-41061561D02*
X94108571Y-41137752D01*
X94108571Y-41137752D02*
X94146666Y-41175847D01*
X94146666Y-41175847D02*
X94222856Y-41213942D01*
X94222856Y-41213942D02*
X94527618Y-41213942D01*
X93575237Y-40794895D02*
X93499047Y-40794895D01*
X93499047Y-40794895D02*
X93422856Y-40832990D01*
X93422856Y-40832990D02*
X93384761Y-40871085D01*
X93384761Y-40871085D02*
X93346666Y-40947276D01*
X93346666Y-40947276D02*
X93308571Y-41099657D01*
X93308571Y-41099657D02*
X93308571Y-41290133D01*
X93308571Y-41290133D02*
X93346666Y-41442514D01*
X93346666Y-41442514D02*
X93384761Y-41518704D01*
X93384761Y-41518704D02*
X93422856Y-41556800D01*
X93422856Y-41556800D02*
X93499047Y-41594895D01*
X93499047Y-41594895D02*
X93575237Y-41594895D01*
X93575237Y-41594895D02*
X93651428Y-41556800D01*
X93651428Y-41556800D02*
X93689523Y-41518704D01*
X93689523Y-41518704D02*
X93727618Y-41442514D01*
X93727618Y-41442514D02*
X93765714Y-41290133D01*
X93765714Y-41290133D02*
X93765714Y-41099657D01*
X93765714Y-41099657D02*
X93727618Y-40947276D01*
X93727618Y-40947276D02*
X93689523Y-40871085D01*
X93689523Y-40871085D02*
X93651428Y-40832990D01*
X93651428Y-40832990D02*
X93575237Y-40794895D01*
X92965713Y-41518704D02*
X92927618Y-41556800D01*
X92927618Y-41556800D02*
X92965713Y-41594895D01*
X92965713Y-41594895D02*
X93003809Y-41556800D01*
X93003809Y-41556800D02*
X92965713Y-41518704D01*
X92965713Y-41518704D02*
X92965713Y-41594895D01*
X92622857Y-40871085D02*
X92584761Y-40832990D01*
X92584761Y-40832990D02*
X92508571Y-40794895D01*
X92508571Y-40794895D02*
X92318095Y-40794895D01*
X92318095Y-40794895D02*
X92241904Y-40832990D01*
X92241904Y-40832990D02*
X92203809Y-40871085D01*
X92203809Y-40871085D02*
X92165714Y-40947276D01*
X92165714Y-40947276D02*
X92165714Y-41023466D01*
X92165714Y-41023466D02*
X92203809Y-41137752D01*
X92203809Y-41137752D02*
X92660952Y-41594895D01*
X92660952Y-41594895D02*
X92165714Y-41594895D01*
X91784761Y-41594895D02*
X91632380Y-41594895D01*
X91632380Y-41594895D02*
X91556190Y-41556800D01*
X91556190Y-41556800D02*
X91518094Y-41518704D01*
X91518094Y-41518704D02*
X91441904Y-41404419D01*
X91441904Y-41404419D02*
X91403809Y-41252038D01*
X91403809Y-41252038D02*
X91403809Y-40947276D01*
X91403809Y-40947276D02*
X91441904Y-40871085D01*
X91441904Y-40871085D02*
X91479999Y-40832990D01*
X91479999Y-40832990D02*
X91556190Y-40794895D01*
X91556190Y-40794895D02*
X91708571Y-40794895D01*
X91708571Y-40794895D02*
X91784761Y-40832990D01*
X91784761Y-40832990D02*
X91822856Y-40871085D01*
X91822856Y-40871085D02*
X91860952Y-40947276D01*
X91860952Y-40947276D02*
X91860952Y-41137752D01*
X91860952Y-41137752D02*
X91822856Y-41213942D01*
X91822856Y-41213942D02*
X91784761Y-41252038D01*
X91784761Y-41252038D02*
X91708571Y-41290133D01*
X91708571Y-41290133D02*
X91556190Y-41290133D01*
X91556190Y-41290133D02*
X91479999Y-41252038D01*
X91479999Y-41252038D02*
X91441904Y-41213942D01*
X91441904Y-41213942D02*
X91403809Y-41137752D01*
X91137142Y-41899657D02*
X91099047Y-41861561D01*
X91099047Y-41861561D02*
X91022856Y-41747276D01*
X91022856Y-41747276D02*
X90984761Y-41671085D01*
X90984761Y-41671085D02*
X90946666Y-41556800D01*
X90946666Y-41556800D02*
X90908570Y-41366323D01*
X90908570Y-41366323D02*
X90908570Y-41213942D01*
X90908570Y-41213942D02*
X90946666Y-41023466D01*
X90946666Y-41023466D02*
X90984761Y-40909180D01*
X90984761Y-40909180D02*
X91022856Y-40832990D01*
X91022856Y-40832990D02*
X91099047Y-40718704D01*
X91099047Y-40718704D02*
X91137142Y-40680609D01*
X98898170Y-34764895D02*
X98441027Y-34764895D01*
X98669599Y-35564895D02*
X98669599Y-34764895D01*
X98174360Y-35564895D02*
X98174360Y-34764895D01*
X98174360Y-34764895D02*
X97907694Y-35336323D01*
X97907694Y-35336323D02*
X97641027Y-34764895D01*
X97641027Y-34764895D02*
X97641027Y-35564895D01*
X96993408Y-35145847D02*
X96879122Y-35183942D01*
X96879122Y-35183942D02*
X96841027Y-35222038D01*
X96841027Y-35222038D02*
X96802931Y-35298228D01*
X96802931Y-35298228D02*
X96802931Y-35412514D01*
X96802931Y-35412514D02*
X96841027Y-35488704D01*
X96841027Y-35488704D02*
X96879122Y-35526800D01*
X96879122Y-35526800D02*
X96955312Y-35564895D01*
X96955312Y-35564895D02*
X97260074Y-35564895D01*
X97260074Y-35564895D02*
X97260074Y-34764895D01*
X97260074Y-34764895D02*
X96993408Y-34764895D01*
X96993408Y-34764895D02*
X96917217Y-34802990D01*
X96917217Y-34802990D02*
X96879122Y-34841085D01*
X96879122Y-34841085D02*
X96841027Y-34917276D01*
X96841027Y-34917276D02*
X96841027Y-34993466D01*
X96841027Y-34993466D02*
X96879122Y-35069657D01*
X96879122Y-35069657D02*
X96917217Y-35107752D01*
X96917217Y-35107752D02*
X96993408Y-35145847D01*
X96993408Y-35145847D02*
X97260074Y-35145847D01*
X96041027Y-35564895D02*
X96498170Y-35564895D01*
X96269598Y-35564895D02*
X96269598Y-34764895D01*
X96269598Y-34764895D02*
X96345789Y-34879180D01*
X96345789Y-34879180D02*
X96421979Y-34955371D01*
X96421979Y-34955371D02*
X96498170Y-34993466D01*
X94860074Y-35869657D02*
X94898169Y-35831561D01*
X94898169Y-35831561D02*
X94974360Y-35717276D01*
X94974360Y-35717276D02*
X95012455Y-35641085D01*
X95012455Y-35641085D02*
X95050550Y-35526800D01*
X95050550Y-35526800D02*
X95088645Y-35336323D01*
X95088645Y-35336323D02*
X95088645Y-35183942D01*
X95088645Y-35183942D02*
X95050550Y-34993466D01*
X95050550Y-34993466D02*
X95012455Y-34879180D01*
X95012455Y-34879180D02*
X94974360Y-34802990D01*
X94974360Y-34802990D02*
X94898169Y-34688704D01*
X94898169Y-34688704D02*
X94860074Y-34650609D01*
X94555312Y-35564895D02*
X94555312Y-34764895D01*
X94555312Y-34764895D02*
X94250550Y-34764895D01*
X94250550Y-34764895D02*
X94174360Y-34802990D01*
X94174360Y-34802990D02*
X94136265Y-34841085D01*
X94136265Y-34841085D02*
X94098169Y-34917276D01*
X94098169Y-34917276D02*
X94098169Y-35031561D01*
X94098169Y-35031561D02*
X94136265Y-35107752D01*
X94136265Y-35107752D02*
X94174360Y-35145847D01*
X94174360Y-35145847D02*
X94250550Y-35183942D01*
X94250550Y-35183942D02*
X94555312Y-35183942D01*
X93602931Y-34764895D02*
X93526741Y-34764895D01*
X93526741Y-34764895D02*
X93450550Y-34802990D01*
X93450550Y-34802990D02*
X93412455Y-34841085D01*
X93412455Y-34841085D02*
X93374360Y-34917276D01*
X93374360Y-34917276D02*
X93336265Y-35069657D01*
X93336265Y-35069657D02*
X93336265Y-35260133D01*
X93336265Y-35260133D02*
X93374360Y-35412514D01*
X93374360Y-35412514D02*
X93412455Y-35488704D01*
X93412455Y-35488704D02*
X93450550Y-35526800D01*
X93450550Y-35526800D02*
X93526741Y-35564895D01*
X93526741Y-35564895D02*
X93602931Y-35564895D01*
X93602931Y-35564895D02*
X93679122Y-35526800D01*
X93679122Y-35526800D02*
X93717217Y-35488704D01*
X93717217Y-35488704D02*
X93755312Y-35412514D01*
X93755312Y-35412514D02*
X93793408Y-35260133D01*
X93793408Y-35260133D02*
X93793408Y-35069657D01*
X93793408Y-35069657D02*
X93755312Y-34917276D01*
X93755312Y-34917276D02*
X93717217Y-34841085D01*
X93717217Y-34841085D02*
X93679122Y-34802990D01*
X93679122Y-34802990D02*
X93602931Y-34764895D01*
X92993407Y-35488704D02*
X92955312Y-35526800D01*
X92955312Y-35526800D02*
X92993407Y-35564895D01*
X92993407Y-35564895D02*
X93031503Y-35526800D01*
X93031503Y-35526800D02*
X92993407Y-35488704D01*
X92993407Y-35488704D02*
X92993407Y-35564895D01*
X92193408Y-35564895D02*
X92650551Y-35564895D01*
X92421979Y-35564895D02*
X92421979Y-34764895D01*
X92421979Y-34764895D02*
X92498170Y-34879180D01*
X92498170Y-34879180D02*
X92574360Y-34955371D01*
X92574360Y-34955371D02*
X92650551Y-34993466D01*
X91812455Y-35564895D02*
X91660074Y-35564895D01*
X91660074Y-35564895D02*
X91583884Y-35526800D01*
X91583884Y-35526800D02*
X91545788Y-35488704D01*
X91545788Y-35488704D02*
X91469598Y-35374419D01*
X91469598Y-35374419D02*
X91431503Y-35222038D01*
X91431503Y-35222038D02*
X91431503Y-34917276D01*
X91431503Y-34917276D02*
X91469598Y-34841085D01*
X91469598Y-34841085D02*
X91507693Y-34802990D01*
X91507693Y-34802990D02*
X91583884Y-34764895D01*
X91583884Y-34764895D02*
X91736265Y-34764895D01*
X91736265Y-34764895D02*
X91812455Y-34802990D01*
X91812455Y-34802990D02*
X91850550Y-34841085D01*
X91850550Y-34841085D02*
X91888646Y-34917276D01*
X91888646Y-34917276D02*
X91888646Y-35107752D01*
X91888646Y-35107752D02*
X91850550Y-35183942D01*
X91850550Y-35183942D02*
X91812455Y-35222038D01*
X91812455Y-35222038D02*
X91736265Y-35260133D01*
X91736265Y-35260133D02*
X91583884Y-35260133D01*
X91583884Y-35260133D02*
X91507693Y-35222038D01*
X91507693Y-35222038D02*
X91469598Y-35183942D01*
X91469598Y-35183942D02*
X91431503Y-35107752D01*
X91164836Y-35869657D02*
X91126741Y-35831561D01*
X91126741Y-35831561D02*
X91050550Y-35717276D01*
X91050550Y-35717276D02*
X91012455Y-35641085D01*
X91012455Y-35641085D02*
X90974360Y-35526800D01*
X90974360Y-35526800D02*
X90936264Y-35336323D01*
X90936264Y-35336323D02*
X90936264Y-35183942D01*
X90936264Y-35183942D02*
X90974360Y-34993466D01*
X90974360Y-34993466D02*
X91012455Y-34879180D01*
X91012455Y-34879180D02*
X91050550Y-34802990D01*
X91050550Y-34802990D02*
X91126741Y-34688704D01*
X91126741Y-34688704D02*
X91164836Y-34650609D01*
X97432455Y-33704895D02*
X97699122Y-33323942D01*
X97889598Y-33704895D02*
X97889598Y-32904895D01*
X97889598Y-32904895D02*
X97584836Y-32904895D01*
X97584836Y-32904895D02*
X97508646Y-32942990D01*
X97508646Y-32942990D02*
X97470551Y-32981085D01*
X97470551Y-32981085D02*
X97432455Y-33057276D01*
X97432455Y-33057276D02*
X97432455Y-33171561D01*
X97432455Y-33171561D02*
X97470551Y-33247752D01*
X97470551Y-33247752D02*
X97508646Y-33285847D01*
X97508646Y-33285847D02*
X97584836Y-33323942D01*
X97584836Y-33323942D02*
X97889598Y-33323942D01*
X97127694Y-33666800D02*
X97013408Y-33704895D01*
X97013408Y-33704895D02*
X96822932Y-33704895D01*
X96822932Y-33704895D02*
X96746741Y-33666800D01*
X96746741Y-33666800D02*
X96708646Y-33628704D01*
X96708646Y-33628704D02*
X96670551Y-33552514D01*
X96670551Y-33552514D02*
X96670551Y-33476323D01*
X96670551Y-33476323D02*
X96708646Y-33400133D01*
X96708646Y-33400133D02*
X96746741Y-33362038D01*
X96746741Y-33362038D02*
X96822932Y-33323942D01*
X96822932Y-33323942D02*
X96975313Y-33285847D01*
X96975313Y-33285847D02*
X97051503Y-33247752D01*
X97051503Y-33247752D02*
X97089598Y-33209657D01*
X97089598Y-33209657D02*
X97127694Y-33133466D01*
X97127694Y-33133466D02*
X97127694Y-33057276D01*
X97127694Y-33057276D02*
X97089598Y-32981085D01*
X97089598Y-32981085D02*
X97051503Y-32942990D01*
X97051503Y-32942990D02*
X96975313Y-32904895D01*
X96975313Y-32904895D02*
X96784836Y-32904895D01*
X96784836Y-32904895D02*
X96670551Y-32942990D01*
X96441979Y-32904895D02*
X95984836Y-32904895D01*
X96213408Y-33704895D02*
X96213408Y-32904895D01*
X94880074Y-34009657D02*
X94918169Y-33971561D01*
X94918169Y-33971561D02*
X94994360Y-33857276D01*
X94994360Y-33857276D02*
X95032455Y-33781085D01*
X95032455Y-33781085D02*
X95070550Y-33666800D01*
X95070550Y-33666800D02*
X95108645Y-33476323D01*
X95108645Y-33476323D02*
X95108645Y-33323942D01*
X95108645Y-33323942D02*
X95070550Y-33133466D01*
X95070550Y-33133466D02*
X95032455Y-33019180D01*
X95032455Y-33019180D02*
X94994360Y-32942990D01*
X94994360Y-32942990D02*
X94918169Y-32828704D01*
X94918169Y-32828704D02*
X94880074Y-32790609D01*
X94575312Y-33704895D02*
X94575312Y-32904895D01*
X94575312Y-32904895D02*
X94270550Y-32904895D01*
X94270550Y-32904895D02*
X94194360Y-32942990D01*
X94194360Y-32942990D02*
X94156265Y-32981085D01*
X94156265Y-32981085D02*
X94118169Y-33057276D01*
X94118169Y-33057276D02*
X94118169Y-33171561D01*
X94118169Y-33171561D02*
X94156265Y-33247752D01*
X94156265Y-33247752D02*
X94194360Y-33285847D01*
X94194360Y-33285847D02*
X94270550Y-33323942D01*
X94270550Y-33323942D02*
X94575312Y-33323942D01*
X93622931Y-32904895D02*
X93546741Y-32904895D01*
X93546741Y-32904895D02*
X93470550Y-32942990D01*
X93470550Y-32942990D02*
X93432455Y-32981085D01*
X93432455Y-32981085D02*
X93394360Y-33057276D01*
X93394360Y-33057276D02*
X93356265Y-33209657D01*
X93356265Y-33209657D02*
X93356265Y-33400133D01*
X93356265Y-33400133D02*
X93394360Y-33552514D01*
X93394360Y-33552514D02*
X93432455Y-33628704D01*
X93432455Y-33628704D02*
X93470550Y-33666800D01*
X93470550Y-33666800D02*
X93546741Y-33704895D01*
X93546741Y-33704895D02*
X93622931Y-33704895D01*
X93622931Y-33704895D02*
X93699122Y-33666800D01*
X93699122Y-33666800D02*
X93737217Y-33628704D01*
X93737217Y-33628704D02*
X93775312Y-33552514D01*
X93775312Y-33552514D02*
X93813408Y-33400133D01*
X93813408Y-33400133D02*
X93813408Y-33209657D01*
X93813408Y-33209657D02*
X93775312Y-33057276D01*
X93775312Y-33057276D02*
X93737217Y-32981085D01*
X93737217Y-32981085D02*
X93699122Y-32942990D01*
X93699122Y-32942990D02*
X93622931Y-32904895D01*
X93013407Y-33628704D02*
X92975312Y-33666800D01*
X92975312Y-33666800D02*
X93013407Y-33704895D01*
X93013407Y-33704895D02*
X93051503Y-33666800D01*
X93051503Y-33666800D02*
X93013407Y-33628704D01*
X93013407Y-33628704D02*
X93013407Y-33704895D01*
X92480074Y-32904895D02*
X92403884Y-32904895D01*
X92403884Y-32904895D02*
X92327693Y-32942990D01*
X92327693Y-32942990D02*
X92289598Y-32981085D01*
X92289598Y-32981085D02*
X92251503Y-33057276D01*
X92251503Y-33057276D02*
X92213408Y-33209657D01*
X92213408Y-33209657D02*
X92213408Y-33400133D01*
X92213408Y-33400133D02*
X92251503Y-33552514D01*
X92251503Y-33552514D02*
X92289598Y-33628704D01*
X92289598Y-33628704D02*
X92327693Y-33666800D01*
X92327693Y-33666800D02*
X92403884Y-33704895D01*
X92403884Y-33704895D02*
X92480074Y-33704895D01*
X92480074Y-33704895D02*
X92556265Y-33666800D01*
X92556265Y-33666800D02*
X92594360Y-33628704D01*
X92594360Y-33628704D02*
X92632455Y-33552514D01*
X92632455Y-33552514D02*
X92670551Y-33400133D01*
X92670551Y-33400133D02*
X92670551Y-33209657D01*
X92670551Y-33209657D02*
X92632455Y-33057276D01*
X92632455Y-33057276D02*
X92594360Y-32981085D01*
X92594360Y-32981085D02*
X92556265Y-32942990D01*
X92556265Y-32942990D02*
X92480074Y-32904895D01*
X91946741Y-32904895D02*
X91451503Y-32904895D01*
X91451503Y-32904895D02*
X91718169Y-33209657D01*
X91718169Y-33209657D02*
X91603884Y-33209657D01*
X91603884Y-33209657D02*
X91527693Y-33247752D01*
X91527693Y-33247752D02*
X91489598Y-33285847D01*
X91489598Y-33285847D02*
X91451503Y-33362038D01*
X91451503Y-33362038D02*
X91451503Y-33552514D01*
X91451503Y-33552514D02*
X91489598Y-33628704D01*
X91489598Y-33628704D02*
X91527693Y-33666800D01*
X91527693Y-33666800D02*
X91603884Y-33704895D01*
X91603884Y-33704895D02*
X91832455Y-33704895D01*
X91832455Y-33704895D02*
X91908646Y-33666800D01*
X91908646Y-33666800D02*
X91946741Y-33628704D01*
X91184836Y-34009657D02*
X91146741Y-33971561D01*
X91146741Y-33971561D02*
X91070550Y-33857276D01*
X91070550Y-33857276D02*
X91032455Y-33781085D01*
X91032455Y-33781085D02*
X90994360Y-33666800D01*
X90994360Y-33666800D02*
X90956264Y-33476323D01*
X90956264Y-33476323D02*
X90956264Y-33323942D01*
X90956264Y-33323942D02*
X90994360Y-33133466D01*
X90994360Y-33133466D02*
X91032455Y-33019180D01*
X91032455Y-33019180D02*
X91070550Y-32942990D01*
X91070550Y-32942990D02*
X91146741Y-32828704D01*
X91146741Y-32828704D02*
X91184836Y-32790609D01*
X98549121Y-37584895D02*
X98549121Y-36784895D01*
X98549121Y-36784895D02*
X98358645Y-36784895D01*
X98358645Y-36784895D02*
X98244359Y-36822990D01*
X98244359Y-36822990D02*
X98168169Y-36899180D01*
X98168169Y-36899180D02*
X98130074Y-36975371D01*
X98130074Y-36975371D02*
X98091978Y-37127752D01*
X98091978Y-37127752D02*
X98091978Y-37242038D01*
X98091978Y-37242038D02*
X98130074Y-37394419D01*
X98130074Y-37394419D02*
X98168169Y-37470609D01*
X98168169Y-37470609D02*
X98244359Y-37546800D01*
X98244359Y-37546800D02*
X98358645Y-37584895D01*
X98358645Y-37584895D02*
X98549121Y-37584895D01*
X97749121Y-37584895D02*
X97749121Y-36784895D01*
X97215788Y-36784895D02*
X97063407Y-36784895D01*
X97063407Y-36784895D02*
X96987217Y-36822990D01*
X96987217Y-36822990D02*
X96911026Y-36899180D01*
X96911026Y-36899180D02*
X96872931Y-37051561D01*
X96872931Y-37051561D02*
X96872931Y-37318228D01*
X96872931Y-37318228D02*
X96911026Y-37470609D01*
X96911026Y-37470609D02*
X96987217Y-37546800D01*
X96987217Y-37546800D02*
X97063407Y-37584895D01*
X97063407Y-37584895D02*
X97215788Y-37584895D01*
X97215788Y-37584895D02*
X97291979Y-37546800D01*
X97291979Y-37546800D02*
X97368169Y-37470609D01*
X97368169Y-37470609D02*
X97406265Y-37318228D01*
X97406265Y-37318228D02*
X97406265Y-37051561D01*
X97406265Y-37051561D02*
X97368169Y-36899180D01*
X97368169Y-36899180D02*
X97291979Y-36822990D01*
X97291979Y-36822990D02*
X97215788Y-36784895D01*
X96111027Y-37584895D02*
X96568170Y-37584895D01*
X96339598Y-37584895D02*
X96339598Y-36784895D01*
X96339598Y-36784895D02*
X96415789Y-36899180D01*
X96415789Y-36899180D02*
X96491979Y-36975371D01*
X96491979Y-36975371D02*
X96568170Y-37013466D01*
X94930074Y-37889657D02*
X94968169Y-37851561D01*
X94968169Y-37851561D02*
X95044360Y-37737276D01*
X95044360Y-37737276D02*
X95082455Y-37661085D01*
X95082455Y-37661085D02*
X95120550Y-37546800D01*
X95120550Y-37546800D02*
X95158645Y-37356323D01*
X95158645Y-37356323D02*
X95158645Y-37203942D01*
X95158645Y-37203942D02*
X95120550Y-37013466D01*
X95120550Y-37013466D02*
X95082455Y-36899180D01*
X95082455Y-36899180D02*
X95044360Y-36822990D01*
X95044360Y-36822990D02*
X94968169Y-36708704D01*
X94968169Y-36708704D02*
X94930074Y-36670609D01*
X94625312Y-37584895D02*
X94625312Y-36784895D01*
X94625312Y-36784895D02*
X94320550Y-36784895D01*
X94320550Y-36784895D02*
X94244360Y-36822990D01*
X94244360Y-36822990D02*
X94206265Y-36861085D01*
X94206265Y-36861085D02*
X94168169Y-36937276D01*
X94168169Y-36937276D02*
X94168169Y-37051561D01*
X94168169Y-37051561D02*
X94206265Y-37127752D01*
X94206265Y-37127752D02*
X94244360Y-37165847D01*
X94244360Y-37165847D02*
X94320550Y-37203942D01*
X94320550Y-37203942D02*
X94625312Y-37203942D01*
X93672931Y-36784895D02*
X93596741Y-36784895D01*
X93596741Y-36784895D02*
X93520550Y-36822990D01*
X93520550Y-36822990D02*
X93482455Y-36861085D01*
X93482455Y-36861085D02*
X93444360Y-36937276D01*
X93444360Y-36937276D02*
X93406265Y-37089657D01*
X93406265Y-37089657D02*
X93406265Y-37280133D01*
X93406265Y-37280133D02*
X93444360Y-37432514D01*
X93444360Y-37432514D02*
X93482455Y-37508704D01*
X93482455Y-37508704D02*
X93520550Y-37546800D01*
X93520550Y-37546800D02*
X93596741Y-37584895D01*
X93596741Y-37584895D02*
X93672931Y-37584895D01*
X93672931Y-37584895D02*
X93749122Y-37546800D01*
X93749122Y-37546800D02*
X93787217Y-37508704D01*
X93787217Y-37508704D02*
X93825312Y-37432514D01*
X93825312Y-37432514D02*
X93863408Y-37280133D01*
X93863408Y-37280133D02*
X93863408Y-37089657D01*
X93863408Y-37089657D02*
X93825312Y-36937276D01*
X93825312Y-36937276D02*
X93787217Y-36861085D01*
X93787217Y-36861085D02*
X93749122Y-36822990D01*
X93749122Y-36822990D02*
X93672931Y-36784895D01*
X93063407Y-37508704D02*
X93025312Y-37546800D01*
X93025312Y-37546800D02*
X93063407Y-37584895D01*
X93063407Y-37584895D02*
X93101503Y-37546800D01*
X93101503Y-37546800D02*
X93063407Y-37508704D01*
X93063407Y-37508704D02*
X93063407Y-37584895D01*
X92720551Y-36861085D02*
X92682455Y-36822990D01*
X92682455Y-36822990D02*
X92606265Y-36784895D01*
X92606265Y-36784895D02*
X92415789Y-36784895D01*
X92415789Y-36784895D02*
X92339598Y-36822990D01*
X92339598Y-36822990D02*
X92301503Y-36861085D01*
X92301503Y-36861085D02*
X92263408Y-36937276D01*
X92263408Y-36937276D02*
X92263408Y-37013466D01*
X92263408Y-37013466D02*
X92301503Y-37127752D01*
X92301503Y-37127752D02*
X92758646Y-37584895D01*
X92758646Y-37584895D02*
X92263408Y-37584895D01*
X91806265Y-37127752D02*
X91882455Y-37089657D01*
X91882455Y-37089657D02*
X91920550Y-37051561D01*
X91920550Y-37051561D02*
X91958646Y-36975371D01*
X91958646Y-36975371D02*
X91958646Y-36937276D01*
X91958646Y-36937276D02*
X91920550Y-36861085D01*
X91920550Y-36861085D02*
X91882455Y-36822990D01*
X91882455Y-36822990D02*
X91806265Y-36784895D01*
X91806265Y-36784895D02*
X91653884Y-36784895D01*
X91653884Y-36784895D02*
X91577693Y-36822990D01*
X91577693Y-36822990D02*
X91539598Y-36861085D01*
X91539598Y-36861085D02*
X91501503Y-36937276D01*
X91501503Y-36937276D02*
X91501503Y-36975371D01*
X91501503Y-36975371D02*
X91539598Y-37051561D01*
X91539598Y-37051561D02*
X91577693Y-37089657D01*
X91577693Y-37089657D02*
X91653884Y-37127752D01*
X91653884Y-37127752D02*
X91806265Y-37127752D01*
X91806265Y-37127752D02*
X91882455Y-37165847D01*
X91882455Y-37165847D02*
X91920550Y-37203942D01*
X91920550Y-37203942D02*
X91958646Y-37280133D01*
X91958646Y-37280133D02*
X91958646Y-37432514D01*
X91958646Y-37432514D02*
X91920550Y-37508704D01*
X91920550Y-37508704D02*
X91882455Y-37546800D01*
X91882455Y-37546800D02*
X91806265Y-37584895D01*
X91806265Y-37584895D02*
X91653884Y-37584895D01*
X91653884Y-37584895D02*
X91577693Y-37546800D01*
X91577693Y-37546800D02*
X91539598Y-37508704D01*
X91539598Y-37508704D02*
X91501503Y-37432514D01*
X91501503Y-37432514D02*
X91501503Y-37280133D01*
X91501503Y-37280133D02*
X91539598Y-37203942D01*
X91539598Y-37203942D02*
X91577693Y-37165847D01*
X91577693Y-37165847D02*
X91653884Y-37127752D01*
X91234836Y-37889657D02*
X91196741Y-37851561D01*
X91196741Y-37851561D02*
X91120550Y-37737276D01*
X91120550Y-37737276D02*
X91082455Y-37661085D01*
X91082455Y-37661085D02*
X91044360Y-37546800D01*
X91044360Y-37546800D02*
X91006264Y-37356323D01*
X91006264Y-37356323D02*
X91006264Y-37203942D01*
X91006264Y-37203942D02*
X91044360Y-37013466D01*
X91044360Y-37013466D02*
X91082455Y-36899180D01*
X91082455Y-36899180D02*
X91120550Y-36822990D01*
X91120550Y-36822990D02*
X91196741Y-36708704D01*
X91196741Y-36708704D02*
X91234836Y-36670609D01*
D12*
X114955714Y-40921009D02*
X114812857Y-40968628D01*
X114812857Y-40968628D02*
X114765238Y-41016247D01*
X114765238Y-41016247D02*
X114717619Y-41111485D01*
X114717619Y-41111485D02*
X114717619Y-41254342D01*
X114717619Y-41254342D02*
X114765238Y-41349580D01*
X114765238Y-41349580D02*
X114812857Y-41397200D01*
X114812857Y-41397200D02*
X114908095Y-41444819D01*
X114908095Y-41444819D02*
X115289047Y-41444819D01*
X115289047Y-41444819D02*
X115289047Y-40444819D01*
X115289047Y-40444819D02*
X114955714Y-40444819D01*
X114955714Y-40444819D02*
X114860476Y-40492438D01*
X114860476Y-40492438D02*
X114812857Y-40540057D01*
X114812857Y-40540057D02*
X114765238Y-40635295D01*
X114765238Y-40635295D02*
X114765238Y-40730533D01*
X114765238Y-40730533D02*
X114812857Y-40825771D01*
X114812857Y-40825771D02*
X114860476Y-40873390D01*
X114860476Y-40873390D02*
X114955714Y-40921009D01*
X114955714Y-40921009D02*
X115289047Y-40921009D01*
X114431904Y-40444819D02*
X113860476Y-40444819D01*
X114146190Y-41444819D02*
X114146190Y-40444819D01*
X113003333Y-41444819D02*
X113574761Y-41444819D01*
X113289047Y-41444819D02*
X113289047Y-40444819D01*
X113289047Y-40444819D02*
X113384285Y-40587676D01*
X113384285Y-40587676D02*
X113479523Y-40682914D01*
X113479523Y-40682914D02*
X113574761Y-40730533D01*
%TO.C,SW5*%
D13*
X122724300Y-29493900D02*
G75*
G02*
X121962300Y-29493900I-381000J0D01*
G01*
X121962300Y-29493900D02*
G75*
G02*
X122724300Y-29493900I381000J0D01*
G01*
%TO.C,BT1*%
D14*
X112967200Y-32333600D02*
X113887200Y-32333600D01*
X112967200Y-33933600D02*
X113887200Y-33933600D01*
X112967200Y-40153600D02*
X112967200Y-32333600D01*
X113887200Y-32333600D02*
X113887200Y-33933600D01*
X113887200Y-33933600D02*
X114167200Y-33933600D01*
X115527200Y-35793600D02*
X115527200Y-40153600D01*
X116527200Y-35793600D02*
X115527200Y-35793600D01*
X116527200Y-40153600D02*
X116527200Y-35793600D01*
X117327200Y-37893600D02*
X117327200Y-40153600D01*
X117827200Y-37893600D02*
X117827200Y-40153600D01*
X117887200Y-33933600D02*
X117887200Y-32718600D01*
X117887200Y-33933600D02*
X118167200Y-33933600D01*
X118167200Y-32333600D02*
X119087200Y-32333600D01*
X118167200Y-33933600D02*
X118167200Y-32333600D01*
X119087200Y-32333600D02*
X119087200Y-40153600D01*
X119087200Y-33933600D02*
X118167200Y-33933600D01*
X119087200Y-40153600D02*
X112967200Y-40153600D01*
X113727200Y-36293600D02*
X114727200Y-36293600D01*
X114727200Y-37893600D01*
X113727200Y-37893600D01*
X113727200Y-36293600D01*
X117327200Y-36293600D02*
X118327200Y-36293600D01*
X118327200Y-37893600D01*
X117327200Y-37893600D01*
X117327200Y-36293600D01*
%TD*%
M02*
