ISO-10303-21;
HEADER;
/* Generated by software containing ST-Developer
 * from STEP Tools, Inc. (www.steptools.com) 
 */
/* OPTION: using custom renumber hook */

FILE_DESCRIPTION(
/* description */ ('STEP AP242 Edition 2',
'CAx-IF Rec.Pracs.---Representation and Presentation of Product Manufa
cturing Information (PMI)---4.0---2014-10-13',
'CAx-IF Rec.Pracs.---3D Tessellated Geometry---0.4---2014-09-14','2;1',
'CAx-IF Rec.Pracs.---User Defined Attributes---1.5---2016-08-15'),
/* implementation_level */ '2;1');

FILE_NAME(
/* name */ 'Dockingstation - Bottom Shell',
/* time_stamp */ '2026-08-12T15:42:06Z',
/* author */ (''),
/* organization */ (''),
/* preprocessor_version */ 'ST-DEVELOPER v20',
/* originating_system */ 'ONSHAPE BY PTC INC, 1.219',
/* authorisation */ '  ');

FILE_SCHEMA (('AP242_MANAGED_MODEL_BASED_3D_ENGINEERING_MIM_LF { 1 0 10303 442 3 1 4 }'));
ENDSEC;

DATA;
#10=SHAPE_REPRESENTATION_RELATIONSHIP('','',#791,#11);
#11=ADVANCED_BREP_SHAPE_REPRESENTATION('',(#789),#1261);
#12=CYLINDRICAL_SURFACE('',#823,0.0015);
#13=CYLINDRICAL_SURFACE('',#824,0.0015);
#14=CYLINDRICAL_SURFACE('',#825,0.0015);
#15=CYLINDRICAL_SURFACE('',#826,0.0015);
#16=CIRCLE('',#794,0.0015);
#17=CIRCLE('',#795,0.0015);
#18=CIRCLE('',#796,0.0015);
#19=CIRCLE('',#797,0.0015);
#20=CIRCLE('',#818,0.0015);
#21=CIRCLE('',#819,0.0015);
#22=CIRCLE('',#820,0.0015);
#23=CIRCLE('',#821,0.0015);
#24=ORIENTED_EDGE('',*,*,#240,.F.);
#25=ORIENTED_EDGE('',*,*,#241,.F.);
#26=ORIENTED_EDGE('',*,*,#242,.F.);
#27=ORIENTED_EDGE('',*,*,#243,.F.);
#28=ORIENTED_EDGE('',*,*,#244,.T.);
#29=ORIENTED_EDGE('',*,*,#245,.T.);
#30=ORIENTED_EDGE('',*,*,#246,.F.);
#31=ORIENTED_EDGE('',*,*,#247,.T.);
#32=ORIENTED_EDGE('',*,*,#248,.T.);
#33=ORIENTED_EDGE('',*,*,#249,.T.);
#34=ORIENTED_EDGE('',*,*,#250,.T.);
#35=ORIENTED_EDGE('',*,*,#251,.T.);
#36=ORIENTED_EDGE('',*,*,#252,.F.);
#37=ORIENTED_EDGE('',*,*,#253,.F.);
#38=ORIENTED_EDGE('',*,*,#254,.F.);
#39=ORIENTED_EDGE('',*,*,#255,.F.);
#40=ORIENTED_EDGE('',*,*,#256,.T.);
#41=ORIENTED_EDGE('',*,*,#257,.T.);
#42=ORIENTED_EDGE('',*,*,#258,.F.);
#43=ORIENTED_EDGE('',*,*,#259,.F.);
#44=ORIENTED_EDGE('',*,*,#260,.T.);
#45=ORIENTED_EDGE('',*,*,#261,.T.);
#46=ORIENTED_EDGE('',*,*,#262,.F.);
#47=ORIENTED_EDGE('',*,*,#263,.F.);
#48=ORIENTED_EDGE('',*,*,#264,.F.);
#49=ORIENTED_EDGE('',*,*,#265,.F.);
#50=ORIENTED_EDGE('',*,*,#266,.T.);
#51=ORIENTED_EDGE('',*,*,#267,.T.);
#52=ORIENTED_EDGE('',*,*,#268,.F.);
#53=ORIENTED_EDGE('',*,*,#269,.T.);
#54=ORIENTED_EDGE('',*,*,#270,.F.);
#55=ORIENTED_EDGE('',*,*,#271,.F.);
#56=ORIENTED_EDGE('',*,*,#272,.F.);
#57=ORIENTED_EDGE('',*,*,#273,.T.);
#58=ORIENTED_EDGE('',*,*,#274,.T.);
#59=ORIENTED_EDGE('',*,*,#275,.F.);
#60=ORIENTED_EDGE('',*,*,#276,.F.);
#61=ORIENTED_EDGE('',*,*,#277,.F.);
#62=ORIENTED_EDGE('',*,*,#278,.T.);
#63=ORIENTED_EDGE('',*,*,#258,.T.);
#64=ORIENTED_EDGE('',*,*,#259,.T.);
#65=ORIENTED_EDGE('',*,*,#278,.F.);
#66=ORIENTED_EDGE('',*,*,#279,.F.);
#67=ORIENTED_EDGE('',*,*,#280,.T.);
#68=ORIENTED_EDGE('',*,*,#281,.F.);
#69=ORIENTED_EDGE('',*,*,#282,.T.);
#70=ORIENTED_EDGE('',*,*,#262,.T.);
#71=ORIENTED_EDGE('',*,*,#283,.F.);
#72=ORIENTED_EDGE('',*,*,#261,.F.);
#73=ORIENTED_EDGE('',*,*,#284,.F.);
#74=ORIENTED_EDGE('',*,*,#285,.T.);
#75=ORIENTED_EDGE('',*,*,#283,.T.);
#76=ORIENTED_EDGE('',*,*,#248,.F.);
#77=ORIENTED_EDGE('',*,*,#286,.T.);
#78=ORIENTED_EDGE('',*,*,#287,.T.);
#79=ORIENTED_EDGE('',*,*,#288,.T.);
#80=ORIENTED_EDGE('',*,*,#289,.F.);
#81=ORIENTED_EDGE('',*,*,#290,.T.);
#82=ORIENTED_EDGE('',*,*,#246,.T.);
#83=ORIENTED_EDGE('',*,*,#291,.T.);
#84=ORIENTED_EDGE('',*,*,#292,.F.);
#85=ORIENTED_EDGE('',*,*,#293,.T.);
#86=ORIENTED_EDGE('',*,*,#268,.T.);
#87=ORIENTED_EDGE('',*,*,#294,.F.);
#88=ORIENTED_EDGE('',*,*,#295,.T.);
#89=ORIENTED_EDGE('',*,*,#296,.T.);
#90=ORIENTED_EDGE('',*,*,#252,.T.);
#91=ORIENTED_EDGE('',*,*,#297,.T.);
#92=ORIENTED_EDGE('',*,*,#298,.T.);
#93=ORIENTED_EDGE('',*,*,#299,.T.);
#94=ORIENTED_EDGE('',*,*,#250,.F.);
#95=ORIENTED_EDGE('',*,*,#300,.T.);
#96=ORIENTED_EDGE('',*,*,#260,.F.);
#97=ORIENTED_EDGE('',*,*,#280,.F.);
#98=ORIENTED_EDGE('',*,*,#301,.T.);
#99=ORIENTED_EDGE('',*,*,#284,.T.);
#100=ORIENTED_EDGE('',*,*,#302,.T.);
#101=ORIENTED_EDGE('',*,*,#303,.T.);
#102=ORIENTED_EDGE('',*,*,#265,.T.);
#103=ORIENTED_EDGE('',*,*,#304,.F.);
#104=ORIENTED_EDGE('',*,*,#305,.T.);
#105=ORIENTED_EDGE('',*,*,#266,.F.);
#106=ORIENTED_EDGE('',*,*,#303,.F.);
#107=ORIENTED_EDGE('',*,*,#306,.F.);
#108=ORIENTED_EDGE('',*,*,#307,.T.);
#109=ORIENTED_EDGE('',*,*,#304,.T.);
#110=ORIENTED_EDGE('',*,*,#264,.T.);
#111=ORIENTED_EDGE('',*,*,#308,.F.);
#112=ORIENTED_EDGE('',*,*,#294,.T.);
#113=ORIENTED_EDGE('',*,*,#267,.F.);
#114=ORIENTED_EDGE('',*,*,#305,.F.);
#115=ORIENTED_EDGE('',*,*,#309,.F.);
#116=ORIENTED_EDGE('',*,*,#310,.T.);
#117=ORIENTED_EDGE('',*,*,#308,.T.);
#118=ORIENTED_EDGE('',*,*,#263,.T.);
#119=ORIENTED_EDGE('',*,*,#282,.F.);
#120=ORIENTED_EDGE('',*,*,#276,.T.);
#121=ORIENTED_EDGE('',*,*,#257,.F.);
#122=ORIENTED_EDGE('',*,*,#311,.F.);
#123=ORIENTED_EDGE('',*,*,#312,.F.);
#124=ORIENTED_EDGE('',*,*,#311,.T.);
#125=ORIENTED_EDGE('',*,*,#256,.F.);
#126=ORIENTED_EDGE('',*,*,#313,.F.);
#127=ORIENTED_EDGE('',*,*,#314,.F.);
#128=ORIENTED_EDGE('',*,*,#315,.T.);
#129=ORIENTED_EDGE('',*,*,#313,.T.);
#130=ORIENTED_EDGE('',*,*,#255,.T.);
#131=ORIENTED_EDGE('',*,*,#316,.F.);
#132=ORIENTED_EDGE('',*,*,#317,.T.);
#133=ORIENTED_EDGE('',*,*,#316,.T.);
#134=ORIENTED_EDGE('',*,*,#254,.T.);
#135=ORIENTED_EDGE('',*,*,#318,.F.);
#136=ORIENTED_EDGE('',*,*,#319,.T.);
#137=ORIENTED_EDGE('',*,*,#318,.T.);
#138=ORIENTED_EDGE('',*,*,#253,.T.);
#139=ORIENTED_EDGE('',*,*,#296,.F.);
#140=ORIENTED_EDGE('',*,*,#287,.F.);
#141=ORIENTED_EDGE('',*,*,#320,.T.);
#142=ORIENTED_EDGE('',*,*,#289,.T.);
#143=ORIENTED_EDGE('',*,*,#321,.T.);
#144=ORIENTED_EDGE('',*,*,#292,.T.);
#145=ORIENTED_EDGE('',*,*,#322,.T.);
#146=ORIENTED_EDGE('',*,*,#298,.F.);
#147=ORIENTED_EDGE('',*,*,#323,.T.);
#148=ORIENTED_EDGE('',*,*,#319,.F.);
#149=ORIENTED_EDGE('',*,*,#295,.F.);
#150=ORIENTED_EDGE('',*,*,#309,.T.);
#151=ORIENTED_EDGE('',*,*,#306,.T.);
#152=ORIENTED_EDGE('',*,*,#302,.F.);
#153=ORIENTED_EDGE('',*,*,#307,.F.);
#154=ORIENTED_EDGE('',*,*,#310,.F.);
#155=ORIENTED_EDGE('',*,*,#281,.T.);
#156=ORIENTED_EDGE('',*,*,#285,.F.);
#157=ORIENTED_EDGE('',*,*,#301,.F.);
#158=ORIENTED_EDGE('',*,*,#279,.T.);
#159=ORIENTED_EDGE('',*,*,#277,.T.);
#160=ORIENTED_EDGE('',*,*,#312,.T.);
#161=ORIENTED_EDGE('',*,*,#314,.T.);
#162=ORIENTED_EDGE('',*,*,#315,.F.);
#163=ORIENTED_EDGE('',*,*,#317,.F.);
#164=ORIENTED_EDGE('',*,*,#320,.F.);
#165=ORIENTED_EDGE('',*,*,#286,.F.);
#166=ORIENTED_EDGE('',*,*,#247,.F.);
#167=ORIENTED_EDGE('',*,*,#290,.F.);
#168=ORIENTED_EDGE('',*,*,#321,.F.);
#169=ORIENTED_EDGE('',*,*,#291,.F.);
#170=ORIENTED_EDGE('',*,*,#269,.F.);
#171=ORIENTED_EDGE('',*,*,#293,.F.);
#172=ORIENTED_EDGE('',*,*,#322,.F.);
#173=ORIENTED_EDGE('',*,*,#297,.F.);
#174=ORIENTED_EDGE('',*,*,#251,.F.);
#175=ORIENTED_EDGE('',*,*,#299,.F.);
#176=ORIENTED_EDGE('',*,*,#323,.F.);
#177=ORIENTED_EDGE('',*,*,#300,.F.);
#178=ORIENTED_EDGE('',*,*,#249,.F.);
#179=ORIENTED_EDGE('',*,*,#288,.F.);
#180=ORIENTED_EDGE('',*,*,#240,.T.);
#181=ORIENTED_EDGE('',*,*,#324,.F.);
#182=ORIENTED_EDGE('',*,*,#325,.T.);
#183=ORIENTED_EDGE('',*,*,#326,.T.);
#184=ORIENTED_EDGE('',*,*,#327,.F.);
#185=ORIENTED_EDGE('',*,*,#328,.F.);
#186=ORIENTED_EDGE('',*,*,#324,.T.);
#187=ORIENTED_EDGE('',*,*,#245,.F.);
#188=ORIENTED_EDGE('',*,*,#329,.F.);
#189=ORIENTED_EDGE('',*,*,#330,.F.);
#190=ORIENTED_EDGE('',*,*,#327,.T.);
#191=ORIENTED_EDGE('',*,*,#244,.F.);
#192=ORIENTED_EDGE('',*,*,#243,.T.);
#193=ORIENTED_EDGE('',*,*,#331,.F.);
#194=ORIENTED_EDGE('',*,*,#332,.T.);
#195=ORIENTED_EDGE('',*,*,#329,.T.);
#196=ORIENTED_EDGE('',*,*,#242,.T.);
#197=ORIENTED_EDGE('',*,*,#333,.F.);
#198=ORIENTED_EDGE('',*,*,#334,.T.);
#199=ORIENTED_EDGE('',*,*,#331,.T.);
#200=ORIENTED_EDGE('',*,*,#241,.T.);
#201=ORIENTED_EDGE('',*,*,#326,.F.);
#202=ORIENTED_EDGE('',*,*,#335,.T.);
#203=ORIENTED_EDGE('',*,*,#333,.T.);
#204=ORIENTED_EDGE('',*,*,#325,.F.);
#205=ORIENTED_EDGE('',*,*,#328,.T.);
#206=ORIENTED_EDGE('',*,*,#330,.T.);
#207=ORIENTED_EDGE('',*,*,#332,.F.);
#208=ORIENTED_EDGE('',*,*,#334,.F.);
#209=ORIENTED_EDGE('',*,*,#335,.F.);
#210=ORIENTED_EDGE('',*,*,#270,.T.);
#211=ORIENTED_EDGE('',*,*,#336,.F.);
#212=ORIENTED_EDGE('',*,*,#337,.T.);
#213=ORIENTED_EDGE('',*,*,#338,.T.);
#214=ORIENTED_EDGE('',*,*,#275,.T.);
#215=ORIENTED_EDGE('',*,*,#339,.F.);
#216=ORIENTED_EDGE('',*,*,#340,.T.);
#217=ORIENTED_EDGE('',*,*,#336,.T.);
#218=ORIENTED_EDGE('',*,*,#341,.F.);
#219=ORIENTED_EDGE('',*,*,#342,.F.);
#220=ORIENTED_EDGE('',*,*,#339,.T.);
#221=ORIENTED_EDGE('',*,*,#274,.F.);
#222=ORIENTED_EDGE('',*,*,#343,.F.);
#223=ORIENTED_EDGE('',*,*,#344,.F.);
#224=ORIENTED_EDGE('',*,*,#341,.T.);
#225=ORIENTED_EDGE('',*,*,#273,.F.);
#226=ORIENTED_EDGE('',*,*,#272,.T.);
#227=ORIENTED_EDGE('',*,*,#345,.F.);
#228=ORIENTED_EDGE('',*,*,#346,.T.);
#229=ORIENTED_EDGE('',*,*,#343,.T.);
#230=ORIENTED_EDGE('',*,*,#271,.T.);
#231=ORIENTED_EDGE('',*,*,#338,.F.);
#232=ORIENTED_EDGE('',*,*,#347,.T.);
#233=ORIENTED_EDGE('',*,*,#345,.T.);
#234=ORIENTED_EDGE('',*,*,#337,.F.);
#235=ORIENTED_EDGE('',*,*,#340,.F.);
#236=ORIENTED_EDGE('',*,*,#342,.T.);
#237=ORIENTED_EDGE('',*,*,#344,.T.);
#238=ORIENTED_EDGE('',*,*,#346,.F.);
#239=ORIENTED_EDGE('',*,*,#347,.F.);
#240=EDGE_CURVE('',#348,#349,#420,.T.);
#241=EDGE_CURVE('',#350,#348,#421,.T.);
#242=EDGE_CURVE('',#351,#350,#422,.T.);
#243=EDGE_CURVE('',#352,#351,#423,.T.);
#244=EDGE_CURVE('',#352,#353,#424,.T.);
#245=EDGE_CURVE('',#353,#349,#425,.T.);
#246=EDGE_CURVE('',#354,#355,#426,.T.);
#247=EDGE_CURVE('',#354,#356,#16,.F.);
#248=EDGE_CURVE('',#356,#357,#427,.T.);
#249=EDGE_CURVE('',#357,#358,#17,.F.);
#250=EDGE_CURVE('',#358,#359,#428,.T.);
#251=EDGE_CURVE('',#359,#360,#18,.F.);
#252=EDGE_CURVE('',#361,#360,#429,.T.);
#253=EDGE_CURVE('',#362,#361,#430,.T.);
#254=EDGE_CURVE('',#363,#362,#431,.T.);
#255=EDGE_CURVE('',#364,#363,#432,.T.);
#256=EDGE_CURVE('',#364,#365,#433,.T.);
#257=EDGE_CURVE('',#365,#366,#434,.T.);
#258=EDGE_CURVE('',#367,#366,#435,.T.);
#259=EDGE_CURVE('',#368,#367,#436,.T.);
#260=EDGE_CURVE('',#368,#369,#437,.T.);
#261=EDGE_CURVE('',#369,#370,#438,.T.);
#262=EDGE_CURVE('',#371,#370,#439,.T.);
#263=EDGE_CURVE('',#372,#371,#440,.T.);
#264=EDGE_CURVE('',#373,#372,#441,.T.);
#265=EDGE_CURVE('',#374,#373,#442,.T.);
#266=EDGE_CURVE('',#374,#375,#443,.T.);
#267=EDGE_CURVE('',#375,#376,#444,.T.);
#268=EDGE_CURVE('',#377,#376,#445,.T.);
#269=EDGE_CURVE('',#377,#355,#19,.F.);
#270=EDGE_CURVE('',#378,#379,#446,.T.);
#271=EDGE_CURVE('',#380,#378,#447,.T.);
#272=EDGE_CURVE('',#381,#380,#448,.T.);
#273=EDGE_CURVE('',#381,#382,#449,.T.);
#274=EDGE_CURVE('',#382,#383,#450,.T.);
#275=EDGE_CURVE('',#379,#383,#451,.T.);
#276=EDGE_CURVE('',#384,#366,#452,.T.);
#277=EDGE_CURVE('',#385,#384,#453,.T.);
#278=EDGE_CURVE('',#385,#367,#454,.T.);
#279=EDGE_CURVE('',#386,#385,#455,.T.);
#280=EDGE_CURVE('',#386,#368,#456,.T.);
#281=EDGE_CURVE('',#387,#388,#457,.T.);
#282=EDGE_CURVE('',#387,#371,#458,.T.);
#283=EDGE_CURVE('',#388,#370,#459,.T.);
#284=EDGE_CURVE('',#389,#369,#460,.T.);
#285=EDGE_CURVE('',#389,#388,#461,.T.);
#286=EDGE_CURVE('',#356,#390,#462,.F.);
#287=EDGE_CURVE('',#390,#391,#463,.T.);
#288=EDGE_CURVE('',#391,#357,#464,.T.);
#289=EDGE_CURVE('',#392,#393,#465,.T.);
#290=EDGE_CURVE('',#392,#354,#466,.T.);
#291=EDGE_CURVE('',#355,#393,#467,.F.);
#292=EDGE_CURVE('',#394,#395,#468,.T.);
#293=EDGE_CURVE('',#394,#377,#469,.T.);
#294=EDGE_CURVE('',#396,#376,#470,.T.);
#295=EDGE_CURVE('',#396,#397,#471,.T.);
#296=EDGE_CURVE('',#397,#361,#472,.T.);
#297=EDGE_CURVE('',#360,#395,#473,.F.);
#298=EDGE_CURVE('',#398,#399,#474,.T.);
#299=EDGE_CURVE('',#399,#359,#475,.T.);
#300=EDGE_CURVE('',#358,#398,#476,.F.);
#301=EDGE_CURVE('',#386,#389,#477,.T.);
#302=EDGE_CURVE('',#400,#401,#478,.T.);
#303=EDGE_CURVE('',#401,#374,#479,.T.);
#304=EDGE_CURVE('',#400,#373,#480,.T.);
#305=EDGE_CURVE('',#402,#375,#481,.T.);
#306=EDGE_CURVE('',#402,#401,#482,.T.);
#307=EDGE_CURVE('',#403,#400,#483,.T.);
#308=EDGE_CURVE('',#403,#372,#484,.T.);
#309=EDGE_CURVE('',#396,#402,#485,.T.);
#310=EDGE_CURVE('',#387,#403,#486,.T.);
#311=EDGE_CURVE('',#404,#365,#487,.T.);
#312=EDGE_CURVE('',#384,#404,#488,.T.);
#313=EDGE_CURVE('',#405,#364,#489,.T.);
#314=EDGE_CURVE('',#404,#405,#490,.T.);
#315=EDGE_CURVE('',#406,#405,#491,.T.);
#316=EDGE_CURVE('',#406,#363,#492,.T.);
#317=EDGE_CURVE('',#407,#406,#493,.T.);
#318=EDGE_CURVE('',#407,#362,#494,.T.);
#319=EDGE_CURVE('',#397,#407,#495,.T.);
#320=EDGE_CURVE('',#390,#392,#20,.T.);
#321=EDGE_CURVE('',#393,#394,#21,.T.);
#322=EDGE_CURVE('',#395,#399,#22,.T.);
#323=EDGE_CURVE('',#398,#391,#23,.T.);
#324=EDGE_CURVE('',#408,#349,#496,.T.);
#325=EDGE_CURVE('',#408,#409,#497,.T.);
#326=EDGE_CURVE('',#409,#348,#498,.T.);
#327=EDGE_CURVE('',#410,#353,#499,.T.);
#328=EDGE_CURVE('',#408,#410,#500,.T.);
#329=EDGE_CURVE('',#411,#352,#501,.T.);
#330=EDGE_CURVE('',#410,#411,#502,.T.);
#331=EDGE_CURVE('',#412,#351,#503,.T.);
#332=EDGE_CURVE('',#412,#411,#504,.T.);
#333=EDGE_CURVE('',#413,#350,#505,.T.);
#334=EDGE_CURVE('',#413,#412,#506,.T.);
#335=EDGE_CURVE('',#409,#413,#507,.T.);
#336=EDGE_CURVE('',#414,#379,#508,.T.);
#337=EDGE_CURVE('',#414,#415,#509,.T.);
#338=EDGE_CURVE('',#415,#378,#510,.T.);
#339=EDGE_CURVE('',#416,#383,#511,.T.);
#340=EDGE_CURVE('',#416,#414,#512,.T.);
#341=EDGE_CURVE('',#417,#382,#513,.T.);
#342=EDGE_CURVE('',#416,#417,#514,.T.);
#343=EDGE_CURVE('',#418,#381,#515,.T.);
#344=EDGE_CURVE('',#417,#418,#516,.T.);
#345=EDGE_CURVE('',#419,#380,#517,.T.);
#346=EDGE_CURVE('',#419,#418,#518,.T.);
#347=EDGE_CURVE('',#415,#419,#519,.T.);
#348=VERTEX_POINT('',#1042);
#349=VERTEX_POINT('',#1043);
#350=VERTEX_POINT('',#1045);
#351=VERTEX_POINT('',#1047);
#352=VERTEX_POINT('',#1049);
#353=VERTEX_POINT('',#1051);
#354=VERTEX_POINT('',#1054);
#355=VERTEX_POINT('',#1055);
#356=VERTEX_POINT('',#1057);
#357=VERTEX_POINT('',#1059);
#358=VERTEX_POINT('',#1061);
#359=VERTEX_POINT('',#1063);
#360=VERTEX_POINT('',#1065);
#361=VERTEX_POINT('',#1067);
#362=VERTEX_POINT('',#1069);
#363=VERTEX_POINT('',#1071);
#364=VERTEX_POINT('',#1073);
#365=VERTEX_POINT('',#1075);
#366=VERTEX_POINT('',#1077);
#367=VERTEX_POINT('',#1079);
#368=VERTEX_POINT('',#1081);
#369=VERTEX_POINT('',#1083);
#370=VERTEX_POINT('',#1085);
#371=VERTEX_POINT('',#1087);
#372=VERTEX_POINT('',#1089);
#373=VERTEX_POINT('',#1091);
#374=VERTEX_POINT('',#1093);
#375=VERTEX_POINT('',#1095);
#376=VERTEX_POINT('',#1097);
#377=VERTEX_POINT('',#1099);
#378=VERTEX_POINT('',#1102);
#379=VERTEX_POINT('',#1103);
#380=VERTEX_POINT('',#1105);
#381=VERTEX_POINT('',#1107);
#382=VERTEX_POINT('',#1109);
#383=VERTEX_POINT('',#1111);
#384=VERTEX_POINT('',#1115);
#385=VERTEX_POINT('',#1117);
#386=VERTEX_POINT('',#1121);
#387=VERTEX_POINT('',#1125);
#388=VERTEX_POINT('',#1126);
#389=VERTEX_POINT('',#1131);
#390=VERTEX_POINT('',#1135);
#391=VERTEX_POINT('',#1137);
#392=VERTEX_POINT('',#1141);
#393=VERTEX_POINT('',#1142);
#394=VERTEX_POINT('',#1147);
#395=VERTEX_POINT('',#1148);
#396=VERTEX_POINT('',#1151);
#397=VERTEX_POINT('',#1153);
#398=VERTEX_POINT('',#1158);
#399=VERTEX_POINT('',#1159);
#400=VERTEX_POINT('',#1166);
#401=VERTEX_POINT('',#1167);
#402=VERTEX_POINT('',#1172);
#403=VERTEX_POINT('',#1176);
#404=VERTEX_POINT('',#1184);
#405=VERTEX_POINT('',#1188);
#406=VERTEX_POINT('',#1192);
#407=VERTEX_POINT('',#1196);
#408=VERTEX_POINT('',#1212);
#409=VERTEX_POINT('',#1214);
#410=VERTEX_POINT('',#1218);
#411=VERTEX_POINT('',#1222);
#412=VERTEX_POINT('',#1226);
#413=VERTEX_POINT('',#1230);
#414=VERTEX_POINT('',#1237);
#415=VERTEX_POINT('',#1239);
#416=VERTEX_POINT('',#1243);
#417=VERTEX_POINT('',#1247);
#418=VERTEX_POINT('',#1251);
#419=VERTEX_POINT('',#1255);
#420=LINE('',#1041,#520);
#421=LINE('',#1044,#521);
#422=LINE('',#1046,#522);
#423=LINE('',#1048,#523);
#424=LINE('',#1050,#524);
#425=LINE('',#1052,#525);
#426=LINE('',#1053,#526);
#427=LINE('',#1058,#527);
#428=LINE('',#1062,#528);
#429=LINE('',#1066,#529);
#430=LINE('',#1068,#530);
#431=LINE('',#1070,#531);
#432=LINE('',#1072,#532);
#433=LINE('',#1074,#533);
#434=LINE('',#1076,#534);
#435=LINE('',#1078,#535);
#436=LINE('',#1080,#536);
#437=LINE('',#1082,#537);
#438=LINE('',#1084,#538);
#439=LINE('',#1086,#539);
#440=LINE('',#1088,#540);
#441=LINE('',#1090,#541);
#442=LINE('',#1092,#542);
#443=LINE('',#1094,#543);
#444=LINE('',#1096,#544);
#445=LINE('',#1098,#545);
#446=LINE('',#1101,#546);
#447=LINE('',#1104,#547);
#448=LINE('',#1106,#548);
#449=LINE('',#1108,#549);
#450=LINE('',#1110,#550);
#451=LINE('',#1112,#551);
#452=LINE('',#1114,#552);
#453=LINE('',#1116,#553);
#454=LINE('',#1118,#554);
#455=LINE('',#1120,#555);
#456=LINE('',#1122,#556);
#457=LINE('',#1124,#557);
#458=LINE('',#1127,#558);
#459=LINE('',#1128,#559);
#460=LINE('',#1130,#560);
#461=LINE('',#1132,#561);
#462=LINE('',#1134,#562);
#463=LINE('',#1136,#563);
#464=LINE('',#1138,#564);
#465=LINE('',#1140,#565);
#466=LINE('',#1143,#566);
#467=LINE('',#1144,#567);
#468=LINE('',#1146,#568);
#469=LINE('',#1149,#569);
#470=LINE('',#1150,#570);
#471=LINE('',#1152,#571);
#472=LINE('',#1154,#572);
#473=LINE('',#1155,#573);
#474=LINE('',#1157,#574);
#475=LINE('',#1160,#575);
#476=LINE('',#1161,#576);
#477=LINE('',#1163,#577);
#478=LINE('',#1165,#578);
#479=LINE('',#1168,#579);
#480=LINE('',#1169,#580);
#481=LINE('',#1171,#581);
#482=LINE('',#1173,#582);
#483=LINE('',#1175,#583);
#484=LINE('',#1177,#584);
#485=LINE('',#1179,#585);
#486=LINE('',#1181,#586);
#487=LINE('',#1183,#587);
#488=LINE('',#1185,#588);
#489=LINE('',#1187,#589);
#490=LINE('',#1189,#590);
#491=LINE('',#1191,#591);
#492=LINE('',#1193,#592);
#493=LINE('',#1195,#593);
#494=LINE('',#1197,#594);
#495=LINE('',#1199,#595);
#496=LINE('',#1211,#596);
#497=LINE('',#1213,#597);
#498=LINE('',#1215,#598);
#499=LINE('',#1217,#599);
#500=LINE('',#1219,#600);
#501=LINE('',#1221,#601);
#502=LINE('',#1223,#602);
#503=LINE('',#1225,#603);
#504=LINE('',#1227,#604);
#505=LINE('',#1229,#605);
#506=LINE('',#1231,#606);
#507=LINE('',#1233,#607);
#508=LINE('',#1236,#608);
#509=LINE('',#1238,#609);
#510=LINE('',#1240,#610);
#511=LINE('',#1242,#611);
#512=LINE('',#1244,#612);
#513=LINE('',#1246,#613);
#514=LINE('',#1248,#614);
#515=LINE('',#1250,#615);
#516=LINE('',#1252,#616);
#517=LINE('',#1254,#617);
#518=LINE('',#1256,#618);
#519=LINE('',#1258,#619);
#520=VECTOR('',#845,1.);
#521=VECTOR('',#846,1.);
#522=VECTOR('',#847,1.);
#523=VECTOR('',#848,1.);
#524=VECTOR('',#849,1.);
#525=VECTOR('',#850,1.);
#526=VECTOR('',#851,1.);
#527=VECTOR('',#854,1.);
#528=VECTOR('',#857,1.);
#529=VECTOR('',#860,1.);
#530=VECTOR('',#861,1.);
#531=VECTOR('',#862,1.);
#532=VECTOR('',#863,1.);
#533=VECTOR('',#864,1.);
#534=VECTOR('',#865,1.);
#535=VECTOR('',#866,1.);
#536=VECTOR('',#867,1.);
#537=VECTOR('',#868,1.);
#538=VECTOR('',#869,1.);
#539=VECTOR('',#870,1.);
#540=VECTOR('',#871,1.);
#541=VECTOR('',#872,1.);
#542=VECTOR('',#873,1.);
#543=VECTOR('',#874,1.);
#544=VECTOR('',#875,1.);
#545=VECTOR('',#876,1.);
#546=VECTOR('',#879,1.);
#547=VECTOR('',#880,1.);
#548=VECTOR('',#881,1.);
#549=VECTOR('',#882,1.);
#550=VECTOR('',#883,1.);
#551=VECTOR('',#884,1.);
#552=VECTOR('',#887,1.);
#553=VECTOR('',#888,1.);
#554=VECTOR('',#889,1.);
#555=VECTOR('',#892,1.);
#556=VECTOR('',#893,1.);
#557=VECTOR('',#896,1.);
#558=VECTOR('',#897,1.);
#559=VECTOR('',#898,1.);
#560=VECTOR('',#901,1.);
#561=VECTOR('',#902,1.);
#562=VECTOR('',#905,1.);
#563=VECTOR('',#906,1.);
#564=VECTOR('',#907,1.);
#565=VECTOR('',#910,1.);
#566=VECTOR('',#911,1.);
#567=VECTOR('',#912,1.);
#568=VECTOR('',#915,1.);
#569=VECTOR('',#916,1.);
#570=VECTOR('',#917,1.);
#571=VECTOR('',#918,1.);
#572=VECTOR('',#919,1.);
#573=VECTOR('',#920,1.);
#574=VECTOR('',#923,1.);
#575=VECTOR('',#924,1.);
#576=VECTOR('',#925,1.);
#577=VECTOR('',#928,1.);
#578=VECTOR('',#931,1.);
#579=VECTOR('',#932,1.);
#580=VECTOR('',#933,1.);
#581=VECTOR('',#936,1.);
#582=VECTOR('',#937,1.);
#583=VECTOR('',#940,1.);
#584=VECTOR('',#941,1.);
#585=VECTOR('',#944,1.);
#586=VECTOR('',#947,1.);
#587=VECTOR('',#950,1.);
#588=VECTOR('',#951,1.);
#589=VECTOR('',#954,1.);
#590=VECTOR('',#955,1.);
#591=VECTOR('',#958,1.);
#592=VECTOR('',#959,1.);
#593=VECTOR('',#962,1.);
#594=VECTOR('',#963,1.);
#595=VECTOR('',#966,1.);
#596=VECTOR('',#989,1.);
#597=VECTOR('',#990,1.);
#598=VECTOR('',#991,1.);
#599=VECTOR('',#994,1.);
#600=VECTOR('',#995,1.);
#601=VECTOR('',#998,1.);
#602=VECTOR('',#999,1.);
#603=VECTOR('',#1002,1.);
#604=VECTOR('',#1003,1.);
#605=VECTOR('',#1006,1.);
#606=VECTOR('',#1007,1.);
#607=VECTOR('',#1010,1.);
#608=VECTOR('',#1015,1.);
#609=VECTOR('',#1016,1.);
#610=VECTOR('',#1017,1.);
#611=VECTOR('',#1020,1.);
#612=VECTOR('',#1021,1.);
#613=VECTOR('',#1024,1.);
#614=VECTOR('',#1025,1.);
#615=VECTOR('',#1028,1.);
#616=VECTOR('',#1029,1.);
#617=VECTOR('',#1032,1.);
#618=VECTOR('',#1033,1.);
#619=VECTOR('',#1036,1.);
#620=EDGE_LOOP('',(#24,#25,#26,#27,#28,#29));
#621=EDGE_LOOP('',(#30,#31,#32,#33,#34,#35,#36,#37,#38,#39,#40,#41,#42,
#43,#44,#45,#46,#47,#48,#49,#50,#51,#52,#53));
#622=EDGE_LOOP('',(#54,#55,#56,#57,#58,#59));
#623=EDGE_LOOP('',(#60,#61,#62,#63));
#624=EDGE_LOOP('',(#64,#65,#66,#67));
#625=EDGE_LOOP('',(#68,#69,#70,#71));
#626=EDGE_LOOP('',(#72,#73,#74,#75));
#627=EDGE_LOOP('',(#76,#77,#78,#79));
#628=EDGE_LOOP('',(#80,#81,#82,#83));
#629=EDGE_LOOP('',(#84,#85,#86,#87,#88,#89,#90,#91));
#630=EDGE_LOOP('',(#92,#93,#94,#95));
#631=EDGE_LOOP('',(#96,#97,#98,#99));
#632=EDGE_LOOP('',(#100,#101,#102,#103));
#633=EDGE_LOOP('',(#104,#105,#106,#107));
#634=EDGE_LOOP('',(#108,#109,#110,#111));
#635=EDGE_LOOP('',(#112,#113,#114,#115));
#636=EDGE_LOOP('',(#116,#117,#118,#119));
#637=EDGE_LOOP('',(#120,#121,#122,#123));
#638=EDGE_LOOP('',(#124,#125,#126,#127));
#639=EDGE_LOOP('',(#128,#129,#130,#131));
#640=EDGE_LOOP('',(#132,#133,#134,#135));
#641=EDGE_LOOP('',(#136,#137,#138,#139));
#642=EDGE_LOOP('',(#140,#141,#142,#143,#144,#145,#146,#147));
#643=EDGE_LOOP('',(#148,#149,#150,#151,#152,#153,#154,#155,#156,#157,#158,
#159,#160,#161,#162,#163));
#644=EDGE_LOOP('',(#164,#165,#166,#167));
#645=EDGE_LOOP('',(#168,#169,#170,#171));
#646=EDGE_LOOP('',(#172,#173,#174,#175));
#647=EDGE_LOOP('',(#176,#177,#178,#179));
#648=EDGE_LOOP('',(#180,#181,#182,#183));
#649=EDGE_LOOP('',(#184,#185,#186,#187));
#650=EDGE_LOOP('',(#188,#189,#190,#191));
#651=EDGE_LOOP('',(#192,#193,#194,#195));
#652=EDGE_LOOP('',(#196,#197,#198,#199));
#653=EDGE_LOOP('',(#200,#201,#202,#203));
#654=EDGE_LOOP('',(#204,#205,#206,#207,#208,#209));
#655=EDGE_LOOP('',(#210,#211,#212,#213));
#656=EDGE_LOOP('',(#214,#215,#216,#217));
#657=EDGE_LOOP('',(#218,#219,#220,#221));
#658=EDGE_LOOP('',(#222,#223,#224,#225));
#659=EDGE_LOOP('',(#226,#227,#228,#229));
#660=EDGE_LOOP('',(#230,#231,#232,#233));
#661=EDGE_LOOP('',(#234,#235,#236,#237,#238,#239));
#662=FACE_BOUND('',#620,.T.);
#663=FACE_BOUND('',#621,.T.);
#664=FACE_BOUND('',#622,.T.);
#665=FACE_BOUND('',#623,.T.);
#666=FACE_BOUND('',#624,.T.);
#667=FACE_BOUND('',#625,.T.);
#668=FACE_BOUND('',#626,.T.);
#669=FACE_BOUND('',#627,.T.);
#670=FACE_BOUND('',#628,.T.);
#671=FACE_BOUND('',#629,.T.);
#672=FACE_BOUND('',#630,.T.);
#673=FACE_BOUND('',#631,.T.);
#674=FACE_BOUND('',#632,.T.);
#675=FACE_BOUND('',#633,.T.);
#676=FACE_BOUND('',#634,.T.);
#677=FACE_BOUND('',#635,.T.);
#678=FACE_BOUND('',#636,.T.);
#679=FACE_BOUND('',#637,.T.);
#680=FACE_BOUND('',#638,.T.);
#681=FACE_BOUND('',#639,.T.);
#682=FACE_BOUND('',#640,.T.);
#683=FACE_BOUND('',#641,.T.);
#684=FACE_BOUND('',#642,.T.);
#685=FACE_BOUND('',#643,.T.);
#686=FACE_BOUND('',#644,.T.);
#687=FACE_BOUND('',#645,.T.);
#688=FACE_BOUND('',#646,.T.);
#689=FACE_BOUND('',#647,.T.);
#690=FACE_BOUND('',#648,.T.);
#691=FACE_BOUND('',#649,.T.);
#692=FACE_BOUND('',#650,.T.);
#693=FACE_BOUND('',#651,.T.);
#694=FACE_BOUND('',#652,.T.);
#695=FACE_BOUND('',#653,.T.);
#696=FACE_BOUND('',#654,.T.);
#697=FACE_BOUND('',#655,.T.);
#698=FACE_BOUND('',#656,.T.);
#699=FACE_BOUND('',#657,.T.);
#700=FACE_BOUND('',#658,.T.);
#701=FACE_BOUND('',#659,.T.);
#702=FACE_BOUND('',#660,.T.);
#703=FACE_BOUND('',#661,.T.);
#704=PLANE('',#793);
#705=PLANE('',#798);
#706=PLANE('',#799);
#707=PLANE('',#800);
#708=PLANE('',#801);
#709=PLANE('',#802);
#710=PLANE('',#803);
#711=PLANE('',#804);
#712=PLANE('',#805);
#713=PLANE('',#806);
#714=PLANE('',#807);
#715=PLANE('',#808);
#716=PLANE('',#809);
#717=PLANE('',#810);
#718=PLANE('',#811);
#719=PLANE('',#812);
#720=PLANE('',#813);
#721=PLANE('',#814);
#722=PLANE('',#815);
#723=PLANE('',#816);
#724=PLANE('',#817);
#725=PLANE('',#822);
#726=PLANE('',#827);
#727=PLANE('',#828);
#728=PLANE('',#829);
#729=PLANE('',#830);
#730=PLANE('',#831);
#731=PLANE('',#832);
#732=PLANE('',#833);
#733=PLANE('',#834);
#734=PLANE('',#835);
#735=PLANE('',#836);
#736=PLANE('',#837);
#737=PLANE('',#838);
#738=PLANE('',#839);
#739=PLANE('',#840);
#740=ADVANCED_FACE('',(#662,#663,#664),#704,.F.);
#741=ADVANCED_FACE('',(#665),#705,.F.);
#742=ADVANCED_FACE('',(#666),#706,.F.);
#743=ADVANCED_FACE('',(#667),#707,.F.);
#744=ADVANCED_FACE('',(#668),#708,.T.);
#745=ADVANCED_FACE('',(#669),#709,.T.);
#746=ADVANCED_FACE('',(#670),#710,.F.);
#747=ADVANCED_FACE('',(#671),#711,.F.);
#748=ADVANCED_FACE('',(#672),#712,.T.);
#749=ADVANCED_FACE('',(#673),#713,.T.);
#750=ADVANCED_FACE('',(#674),#714,.F.);
#751=ADVANCED_FACE('',(#675),#715,.T.);
#752=ADVANCED_FACE('',(#676),#716,.F.);
#753=ADVANCED_FACE('',(#677),#717,.T.);
#754=ADVANCED_FACE('',(#678),#718,.F.);
#755=ADVANCED_FACE('',(#679),#719,.T.);
#756=ADVANCED_FACE('',(#680),#720,.T.);
#757=ADVANCED_FACE('',(#681),#721,.F.);
#758=ADVANCED_FACE('',(#682),#722,.F.);
#759=ADVANCED_FACE('',(#683),#723,.F.);
#760=ADVANCED_FACE('',(#684),#724,.T.);
#761=ADVANCED_FACE('',(#685),#725,.F.);
#762=ADVANCED_FACE('',(#686),#12,.T.);
#763=ADVANCED_FACE('',(#687),#13,.T.);
#764=ADVANCED_FACE('',(#688),#14,.T.);
#765=ADVANCED_FACE('',(#689),#15,.T.);
#766=ADVANCED_FACE('',(#690),#726,.T.);
#767=ADVANCED_FACE('',(#691),#727,.F.);
#768=ADVANCED_FACE('',(#692),#728,.F.);
#769=ADVANCED_FACE('',(#693),#729,.T.);
#770=ADVANCED_FACE('',(#694),#730,.T.);
#771=ADVANCED_FACE('',(#695),#731,.T.);
#772=ADVANCED_FACE('',(#696),#732,.T.);
#773=ADVANCED_FACE('',(#697),#733,.T.);
#774=ADVANCED_FACE('',(#698),#734,.T.);
#775=ADVANCED_FACE('',(#699),#735,.F.);
#776=ADVANCED_FACE('',(#700),#736,.F.);
#777=ADVANCED_FACE('',(#701),#737,.T.);
#778=ADVANCED_FACE('',(#702),#738,.T.);
#779=ADVANCED_FACE('',(#703),#739,.T.);
#780=CLOSED_SHELL('',(#740,#741,#742,#743,#744,#745,#746,#747,#748,#749,
#750,#751,#752,#753,#754,#755,#756,#757,#758,#759,#760,#761,#762,#763,#764,
#765,#766,#767,#768,#769,#770,#771,#772,#773,#774,#775,#776,#777,#778,#779));
#781=STYLED_ITEM('',(#782),#789);
#782=PRESENTATION_STYLE_ASSIGNMENT((#783));
#783=SURFACE_STYLE_USAGE(.BOTH.,#784);
#784=SURFACE_SIDE_STYLE('',(#785));
#785=SURFACE_STYLE_FILL_AREA(#786);
#786=FILL_AREA_STYLE('',(#787));
#787=FILL_AREA_STYLE_COLOUR('',#788);
#788=COLOUR_RGB('',0.647058823529412,0.647058823529412,0.647058823529412);
#789=MANIFOLD_SOLID_BREP('Bottom Shell',#780);
#790=SHAPE_DEFINITION_REPRESENTATION(#1266,#791);
#791=SHAPE_REPRESENTATION('Bottom Shell',(#792),#1261);
#792=AXIS2_PLACEMENT_3D('',#1039,#841,#842);
#793=AXIS2_PLACEMENT_3D('',#1040,#843,#844);
#794=AXIS2_PLACEMENT_3D('',#1056,#852,#853);
#795=AXIS2_PLACEMENT_3D('',#1060,#855,#856);
#796=AXIS2_PLACEMENT_3D('',#1064,#858,#859);
#797=AXIS2_PLACEMENT_3D('',#1100,#877,#878);
#798=AXIS2_PLACEMENT_3D('',#1113,#885,#886);
#799=AXIS2_PLACEMENT_3D('',#1119,#890,#891);
#800=AXIS2_PLACEMENT_3D('',#1123,#894,#895);
#801=AXIS2_PLACEMENT_3D('',#1129,#899,#900);
#802=AXIS2_PLACEMENT_3D('',#1133,#903,#904);
#803=AXIS2_PLACEMENT_3D('',#1139,#908,#909);
#804=AXIS2_PLACEMENT_3D('',#1145,#913,#914);
#805=AXIS2_PLACEMENT_3D('',#1156,#921,#922);
#806=AXIS2_PLACEMENT_3D('',#1162,#926,#927);
#807=AXIS2_PLACEMENT_3D('',#1164,#929,#930);
#808=AXIS2_PLACEMENT_3D('',#1170,#934,#935);
#809=AXIS2_PLACEMENT_3D('',#1174,#938,#939);
#810=AXIS2_PLACEMENT_3D('',#1178,#942,#943);
#811=AXIS2_PLACEMENT_3D('',#1180,#945,#946);
#812=AXIS2_PLACEMENT_3D('',#1182,#948,#949);
#813=AXIS2_PLACEMENT_3D('',#1186,#952,#953);
#814=AXIS2_PLACEMENT_3D('',#1190,#956,#957);
#815=AXIS2_PLACEMENT_3D('',#1194,#960,#961);
#816=AXIS2_PLACEMENT_3D('',#1198,#964,#965);
#817=AXIS2_PLACEMENT_3D('',#1200,#967,#968);
#818=AXIS2_PLACEMENT_3D('',#1201,#969,#970);
#819=AXIS2_PLACEMENT_3D('',#1202,#971,#972);
#820=AXIS2_PLACEMENT_3D('',#1203,#973,#974);
#821=AXIS2_PLACEMENT_3D('',#1204,#975,#976);
#822=AXIS2_PLACEMENT_3D('',#1205,#977,#978);
#823=AXIS2_PLACEMENT_3D('',#1206,#979,#980);
#824=AXIS2_PLACEMENT_3D('',#1207,#981,#982);
#825=AXIS2_PLACEMENT_3D('',#1208,#983,#984);
#826=AXIS2_PLACEMENT_3D('',#1209,#985,#986);
#827=AXIS2_PLACEMENT_3D('',#1210,#987,#988);
#828=AXIS2_PLACEMENT_3D('',#1216,#992,#993);
#829=AXIS2_PLACEMENT_3D('',#1220,#996,#997);
#830=AXIS2_PLACEMENT_3D('',#1224,#1000,#1001);
#831=AXIS2_PLACEMENT_3D('',#1228,#1004,#1005);
#832=AXIS2_PLACEMENT_3D('',#1232,#1008,#1009);
#833=AXIS2_PLACEMENT_3D('',#1234,#1011,#1012);
#834=AXIS2_PLACEMENT_3D('',#1235,#1013,#1014);
#835=AXIS2_PLACEMENT_3D('',#1241,#1018,#1019);
#836=AXIS2_PLACEMENT_3D('',#1245,#1022,#1023);
#837=AXIS2_PLACEMENT_3D('',#1249,#1026,#1027);
#838=AXIS2_PLACEMENT_3D('',#1253,#1030,#1031);
#839=AXIS2_PLACEMENT_3D('',#1257,#1034,#1035);
#840=AXIS2_PLACEMENT_3D('',#1259,#1037,#1038);
#841=DIRECTION('',(0.,0.,1.));
#842=DIRECTION('',(1.,0.,0.));
#843=DIRECTION('',(0.,0.,-1.));
#844=DIRECTION('',(1.,0.,0.));
#845=DIRECTION('',(1.,0.,0.));
#846=DIRECTION('',(0.,-1.,0.));
#847=DIRECTION('',(-1.,0.,0.));
#848=DIRECTION('',(0.,1.,0.));
#849=DIRECTION('',(-1.,0.,0.));
#850=DIRECTION('',(0.,-1.,0.));
#851=DIRECTION('',(1.,0.,0.));
#852=DIRECTION('',(0.,0.,-1.));
#853=DIRECTION('',(-1.,0.,0.));
#854=DIRECTION('',(0.,-1.,0.));
#855=DIRECTION('',(0.,0.,-1.));
#856=DIRECTION('',(-1.,0.,0.));
#857=DIRECTION('',(1.,0.,0.));
#858=DIRECTION('',(0.,0.,-1.));
#859=DIRECTION('',(-1.,0.,0.));
#860=DIRECTION('',(0.,-1.,0.));
#861=DIRECTION('',(1.,0.,0.));
#862=DIRECTION('',(0.,1.,0.));
#863=DIRECTION('',(1.,0.,0.));
#864=DIRECTION('',(0.,1.,0.));
#865=DIRECTION('',(-1.,0.,0.));
#866=DIRECTION('',(0.,1.,0.));
#867=DIRECTION('',(1.,0.,0.));
#868=DIRECTION('',(0.,1.,0.));
#869=DIRECTION('',(1.,0.,0.));
#870=DIRECTION('',(0.,1.,0.));
#871=DIRECTION('',(-1.,0.,0.));
#872=DIRECTION('',(0.,-1.,0.));
#873=DIRECTION('',(-1.,0.,0.));
#874=DIRECTION('',(0.,-1.,0.));
#875=DIRECTION('',(1.,0.,0.));
#876=DIRECTION('',(0.,-1.,0.));
#877=DIRECTION('',(0.,0.,-1.));
#878=DIRECTION('',(-1.,0.,0.));
#879=DIRECTION('',(0.,1.,0.));
#880=DIRECTION('',(1.,0.,0.));
#881=DIRECTION('',(0.,-1.,0.));
#882=DIRECTION('',(1.,0.,0.));
#883=DIRECTION('',(0.,1.,0.));
#884=DIRECTION('',(-1.,0.,0.));
#885=DIRECTION('',(1.,0.,0.));
#886=DIRECTION('',(0.,0.,-1.));
#887=DIRECTION('',(0.,0.,1.));
#888=DIRECTION('',(0.,1.,0.));
#889=DIRECTION('',(0.,0.,1.));
#890=DIRECTION('',(0.,-1.,0.));
#891=DIRECTION('',(0.,0.,-1.));
#892=DIRECTION('',(1.,0.,0.));
#893=DIRECTION('',(0.,0.,1.));
#894=DIRECTION('',(1.,0.,0.));
#895=DIRECTION('',(0.,0.,-1.));
#896=DIRECTION('',(0.,1.,0.));
#897=DIRECTION('',(0.,0.,1.));
#898=DIRECTION('',(0.,0.,1.));
#899=DIRECTION('',(0.,-1.,0.));
#900=DIRECTION('',(0.,0.,-1.));
#901=DIRECTION('',(0.,0.,1.));
#902=DIRECTION('',(1.,0.,0.));
#903=DIRECTION('',(-1.,0.,0.));
#904=DIRECTION('',(0.,0.,1.));
#905=DIRECTION('',(0.,0.,1.));
#906=DIRECTION('',(0.,-1.,0.));
#907=DIRECTION('',(0.,0.,1.));
#908=DIRECTION('',(0.,-1.,0.));
#909=DIRECTION('',(0.,0.,-1.));
#910=DIRECTION('',(1.,0.,0.));
#911=DIRECTION('',(0.,0.,1.));
#912=DIRECTION('',(0.,0.,1.));
#913=DIRECTION('',(-1.,0.,0.));
#914=DIRECTION('',(0.,0.,1.));
#915=DIRECTION('',(0.,-1.,0.));
#916=DIRECTION('',(0.,0.,1.));
#917=DIRECTION('',(0.,0.,1.));
#918=DIRECTION('',(0.,-1.,0.));
#919=DIRECTION('',(0.,0.,1.));
#920=DIRECTION('',(0.,0.,1.));
#921=DIRECTION('',(0.,-1.,0.));
#922=DIRECTION('',(0.,0.,-1.));
#923=DIRECTION('',(1.,0.,0.));
#924=DIRECTION('',(0.,0.,1.));
#925=DIRECTION('',(0.,0.,1.));
#926=DIRECTION('',(1.,0.,0.));
#927=DIRECTION('',(0.,0.,-1.));
#928=DIRECTION('',(0.,1.,0.));
#929=DIRECTION('',(0.,1.,0.));
#930=DIRECTION('',(0.,0.,1.));
#931=DIRECTION('',(1.,0.,0.));
#932=DIRECTION('',(0.,0.,1.));
#933=DIRECTION('',(0.,0.,1.));
#934=DIRECTION('',(-1.,0.,0.));
#935=DIRECTION('',(0.,0.,1.));
#936=DIRECTION('',(0.,0.,1.));
#937=DIRECTION('',(0.,1.,0.));
#938=DIRECTION('',(-1.,0.,0.));
#939=DIRECTION('',(0.,0.,1.));
#940=DIRECTION('',(0.,1.,0.));
#941=DIRECTION('',(0.,0.,1.));
#942=DIRECTION('',(0.,-1.,0.));
#943=DIRECTION('',(0.,0.,-1.));
#944=DIRECTION('',(-1.,0.,0.));
#945=DIRECTION('',(0.,1.,0.));
#946=DIRECTION('',(0.,0.,1.));
#947=DIRECTION('',(1.,0.,0.));
#948=DIRECTION('',(0.,1.,0.));
#949=DIRECTION('',(0.,0.,1.));
#950=DIRECTION('',(0.,0.,1.));
#951=DIRECTION('',(1.,0.,0.));
#952=DIRECTION('',(1.,0.,0.));
#953=DIRECTION('',(0.,0.,-1.));
#954=DIRECTION('',(0.,0.,1.));
#955=DIRECTION('',(0.,-1.,0.));
#956=DIRECTION('',(0.,-1.,0.));
#957=DIRECTION('',(0.,0.,-1.));
#958=DIRECTION('',(-1.,0.,0.));
#959=DIRECTION('',(0.,0.,1.));
#960=DIRECTION('',(1.,0.,0.));
#961=DIRECTION('',(0.,0.,-1.));
#962=DIRECTION('',(0.,-1.,0.));
#963=DIRECTION('',(0.,0.,1.));
#964=DIRECTION('',(0.,-1.,0.));
#965=DIRECTION('',(0.,0.,-1.));
#966=DIRECTION('',(-1.,0.,0.));
#967=DIRECTION('',(0.,0.,-1.));
#968=DIRECTION('',(1.,0.,0.));
#969=DIRECTION('',(0.,0.,-1.));
#970=DIRECTION('',(-1.,0.,0.));
#971=DIRECTION('',(0.,0.,-1.));
#972=DIRECTION('',(-1.,0.,0.));
#973=DIRECTION('',(0.,0.,-1.));
#974=DIRECTION('',(-1.,0.,0.));
#975=DIRECTION('',(0.,0.,-1.));
#976=DIRECTION('',(-1.,0.,0.));
#977=DIRECTION('',(0.,0.,-1.));
#978=DIRECTION('',(1.,0.,0.));
#979=DIRECTION('',(0.,0.,-1.));
#980=DIRECTION('',(-1.,0.,0.));
#981=DIRECTION('',(0.,0.,1.));
#982=DIRECTION('',(1.,0.,0.));
#983=DIRECTION('',(0.,0.,-1.));
#984=DIRECTION('',(-1.,0.,0.));
#985=DIRECTION('',(0.,0.,1.));
#986=DIRECTION('',(1.,0.,0.));
#987=DIRECTION('',(0.,1.,0.));
#988=DIRECTION('',(0.,0.,1.));
#989=DIRECTION('',(0.,0.,1.));
#990=DIRECTION('',(-1.,0.,0.));
#991=DIRECTION('',(0.,0.,1.));
#992=DIRECTION('',(1.,0.,0.));
#993=DIRECTION('',(0.,0.,-1.));
#994=DIRECTION('',(0.,0.,1.));
#995=DIRECTION('',(0.,1.,0.));
#996=DIRECTION('',(0.,-1.,0.));
#997=DIRECTION('',(0.,0.,-1.));
#998=DIRECTION('',(0.,0.,1.));
#999=DIRECTION('',(1.,0.,0.));
#1000=DIRECTION('',(-1.,0.,0.));
#1001=DIRECTION('',(0.,0.,1.));
#1002=DIRECTION('',(0.,0.,1.));
#1003=DIRECTION('',(0.,-1.,0.));
#1004=DIRECTION('',(0.,-1.,0.));
#1005=DIRECTION('',(0.,0.,-1.));
#1006=DIRECTION('',(0.,0.,1.));
#1007=DIRECTION('',(1.,0.,0.));
#1008=DIRECTION('',(1.,0.,0.));
#1009=DIRECTION('',(0.,0.,-1.));
#1010=DIRECTION('',(0.,1.,0.));
#1011=DIRECTION('',(0.,0.,1.));
#1012=DIRECTION('',(1.,0.,0.));
#1013=DIRECTION('',(-1.,0.,0.));
#1014=DIRECTION('',(0.,0.,1.));
#1015=DIRECTION('',(0.,0.,1.));
#1016=DIRECTION('',(0.,-1.,0.));
#1017=DIRECTION('',(0.,0.,1.));
#1018=DIRECTION('',(0.,-1.,0.));
#1019=DIRECTION('',(0.,0.,-1.));
#1020=DIRECTION('',(0.,0.,1.));
#1021=DIRECTION('',(1.,0.,0.));
#1022=DIRECTION('',(-1.,0.,0.));
#1023=DIRECTION('',(0.,0.,1.));
#1024=DIRECTION('',(0.,0.,1.));
#1025=DIRECTION('',(0.,-1.,0.));
#1026=DIRECTION('',(0.,1.,0.));
#1027=DIRECTION('',(0.,0.,1.));
#1028=DIRECTION('',(0.,0.,1.));
#1029=DIRECTION('',(-1.,0.,0.));
#1030=DIRECTION('',(1.,0.,0.));
#1031=DIRECTION('',(0.,0.,-1.));
#1032=DIRECTION('',(0.,0.,1.));
#1033=DIRECTION('',(0.,1.,0.));
#1034=DIRECTION('',(0.,1.,0.));
#1035=DIRECTION('',(0.,0.,1.));
#1036=DIRECTION('',(-1.,0.,0.));
#1037=DIRECTION('',(0.,0.,1.));
#1038=DIRECTION('',(1.,0.,0.));
#1039=CARTESIAN_POINT('',(0.,0.,0.));
#1040=CARTESIAN_POINT('',(0.,0.,0.));
#1041=CARTESIAN_POINT('',(0.,0.035103246020683,0.));
#1042=CARTESIAN_POINT('',(-0.0322766451720794,0.035103246020683,0.));
#1043=CARTESIAN_POINT('',(-0.0302766451720794,0.035103246020683,0.));
#1044=CARTESIAN_POINT('',(-0.0322766451720794,0.,0.));
#1045=CARTESIAN_POINT('',(-0.0322766451720794,0.045103246020683,0.));
#1046=CARTESIAN_POINT('',(0.,0.045103246020683,0.));
#1047=CARTESIAN_POINT('',(-0.0222766451720794,0.045103246020683,0.));
#1048=CARTESIAN_POINT('',(-0.0222766451720794,0.,0.));
#1049=CARTESIAN_POINT('',(-0.0222766451720794,0.043103246020683,0.));
#1050=CARTESIAN_POINT('',(0.,0.043103246020683,0.));
#1051=CARTESIAN_POINT('',(-0.0302766451720794,0.043103246020683,0.));
#1052=CARTESIAN_POINT('',(-0.0302766451720794,0.,0.));
#1053=CARTESIAN_POINT('',(0.,0.046603246020683,0.));
#1054=CARTESIAN_POINT('',(-0.0322766451720794,0.046603246020683,0.));
#1055=CARTESIAN_POINT('',(0.0322766451720794,0.046603246020683,0.));
#1056=CARTESIAN_POINT('',(-0.0322766451720794,0.045103246020683,0.));
#1057=CARTESIAN_POINT('',(-0.0337766451720794,0.045103246020683,0.));
#1058=CARTESIAN_POINT('',(-0.0337766451720794,-6.93889390390723E-18,0.));
#1059=CARTESIAN_POINT('',(-0.0337766451720794,-0.045103246020683,0.));
#1060=CARTESIAN_POINT('',(-0.0322766451720794,-0.045103246020683,0.));
#1061=CARTESIAN_POINT('',(-0.0322766451720794,-0.046603246020683,0.));
#1062=CARTESIAN_POINT('',(-3.46944695195361E-18,-0.046603246020683,0.));
#1063=CARTESIAN_POINT('',(0.0322766451720794,-0.046603246020683,0.));
#1064=CARTESIAN_POINT('',(0.0322766451720794,-0.045103246020683,0.));
#1065=CARTESIAN_POINT('',(0.0337766451720794,-0.045103246020683,0.));
#1066=CARTESIAN_POINT('',(0.0337766451720794,0.,0.));
#1067=CARTESIAN_POINT('',(0.0337766451720794,0.0328026451170444,0.));
#1068=CARTESIAN_POINT('',(0.0331413199505805,0.0328026451170444,0.));
#1069=CARTESIAN_POINT('',(0.0325059947290817,0.0328026451170444,0.));
#1070=CARTESIAN_POINT('',(0.0325059947290817,0.0320536684917224,0.));
#1071=CARTESIAN_POINT('',(0.0325059947290817,0.0313046918664003,0.));
#1072=CARTESIAN_POINT('',(0.0306619703935782,0.0313046918664003,0.));
#1073=CARTESIAN_POINT('',(0.030047295615077,0.0313046918664003,0.));
#1074=CARTESIAN_POINT('',(0.030047295615077,0.0320536684917224,0.));
#1075=CARTESIAN_POINT('',(0.030047295615077,0.0328026451170444,0.));
#1076=CARTESIAN_POINT('',(0.0294119703935782,0.0328026451170444,0.));
#1077=CARTESIAN_POINT('',(0.0287766451720794,0.0328026451170444,0.));
#1078=CARTESIAN_POINT('',(0.0287766451720794,0.,0.));
#1079=CARTESIAN_POINT('',(0.0287766451720794,-0.041603246020683,0.));
#1080=CARTESIAN_POINT('',(0.,-0.041603246020683,0.));
#1081=CARTESIAN_POINT('',(-0.0287766451720794,-0.041603246020683,0.));
#1082=CARTESIAN_POINT('',(-0.0287766451720794,0.,0.));
#1083=CARTESIAN_POINT('',(-0.0287766451720794,0.041603246020683,0.));
#1084=CARTESIAN_POINT('',(0.,0.041603246020683,0.));
#1085=CARTESIAN_POINT('',(0.0287766451720794,0.041603246020683,0.));
#1086=CARTESIAN_POINT('',(0.0287766451720794,0.,0.));
#1087=CARTESIAN_POINT('',(0.0287766451720794,0.0390391685068607,0.));
#1088=CARTESIAN_POINT('',(0.0294119703935782,0.0390391685068607,0.));
#1089=CARTESIAN_POINT('',(0.030047295615077,0.0390391685068607,0.));
#1090=CARTESIAN_POINT('',(0.030047295615077,0.0397881451321828,0.));
#1091=CARTESIAN_POINT('',(0.030047295615077,0.040537121757505,0.));
#1092=CARTESIAN_POINT('',(0.0318913199505805,0.040537121757505,0.));
#1093=CARTESIAN_POINT('',(0.0325059947290817,0.040537121757505,0.));
#1094=CARTESIAN_POINT('',(0.0325059947290817,0.0397881451321828,0.));
#1095=CARTESIAN_POINT('',(0.0325059947290817,0.0390391685068607,0.));
#1096=CARTESIAN_POINT('',(0.0331413199505805,0.0390391685068607,0.));
#1097=CARTESIAN_POINT('',(0.0337766451720794,0.0390391685068607,0.));
#1098=CARTESIAN_POINT('',(0.0337766451720794,0.,0.));
#1099=CARTESIAN_POINT('',(0.0337766451720794,0.045103246020683,0.));
#1100=CARTESIAN_POINT('',(0.0322766451720794,0.045103246020683,0.));
#1101=CARTESIAN_POINT('',(0.0322766451720794,0.,0.));
#1102=CARTESIAN_POINT('',(0.0322766451720794,-0.045103246020683,0.));
#1103=CARTESIAN_POINT('',(0.0322766451720794,-0.035103246020683,0.));
#1104=CARTESIAN_POINT('',(0.,-0.045103246020683,0.));
#1105=CARTESIAN_POINT('',(0.0222766451720794,-0.045103246020683,0.));
#1106=CARTESIAN_POINT('',(0.0222766451720794,0.,0.));
#1107=CARTESIAN_POINT('',(0.0222766451720794,-0.043103246020683,0.));
#1108=CARTESIAN_POINT('',(0.,-0.043103246020683,0.));
#1109=CARTESIAN_POINT('',(0.0302766451720794,-0.043103246020683,0.));
#1110=CARTESIAN_POINT('',(0.0302766451720794,0.,0.));
#1111=CARTESIAN_POINT('',(0.0302766451720794,-0.035103246020683,0.));
#1112=CARTESIAN_POINT('',(0.,-0.035103246020683,0.));
#1113=CARTESIAN_POINT('',(0.0287766451720794,0.,-0.025));
#1114=CARTESIAN_POINT('',(0.0287766451720794,0.0328026451170444,-0.119367863984655));
#1115=CARTESIAN_POINT('',(0.0287766451720794,0.0328026451170444,-0.025));
#1116=CARTESIAN_POINT('',(0.0287766451720794,0.,-0.025));
#1117=CARTESIAN_POINT('',(0.0287766451720794,-0.041603246020683,-0.025));
#1118=CARTESIAN_POINT('',(0.0287766451720794,-0.041603246020683,-0.025));
#1119=CARTESIAN_POINT('',(0.,-0.041603246020683,-0.025));
#1120=CARTESIAN_POINT('',(0.,-0.041603246020683,-0.025));
#1121=CARTESIAN_POINT('',(-0.0287766451720794,-0.041603246020683,-0.025));
#1122=CARTESIAN_POINT('',(-0.0287766451720794,-0.041603246020683,-0.025));
#1123=CARTESIAN_POINT('',(0.0287766451720794,0.,-0.025));
#1124=CARTESIAN_POINT('',(0.0287766451720794,0.,-0.025));
#1125=CARTESIAN_POINT('',(0.0287766451720794,0.0390391685068607,-0.025));
#1126=CARTESIAN_POINT('',(0.0287766451720794,0.041603246020683,-0.025));
#1127=CARTESIAN_POINT('',(0.0287766451720794,0.0390391685068607,-0.119367863984655));
#1128=CARTESIAN_POINT('',(0.0287766451720794,0.041603246020683,-0.025));
#1129=CARTESIAN_POINT('',(0.,0.041603246020683,-0.025));
#1130=CARTESIAN_POINT('',(-0.0287766451720794,0.041603246020683,-0.025));
#1131=CARTESIAN_POINT('',(-0.0287766451720794,0.041603246020683,-0.025));
#1132=CARTESIAN_POINT('',(0.,0.041603246020683,-0.025));
#1133=CARTESIAN_POINT('',(-0.0337766451720794,-6.93889390390723E-18,-0.025));
#1134=CARTESIAN_POINT('',(-0.0337766451720794,0.045103246020683,-0.03));
#1135=CARTESIAN_POINT('',(-0.0337766451720794,0.045103246020683,-0.03));
#1136=CARTESIAN_POINT('',(-0.0337766451720794,-6.93889390390723E-18,-0.03));
#1137=CARTESIAN_POINT('',(-0.0337766451720794,-0.045103246020683,-0.03));
#1138=CARTESIAN_POINT('',(-0.0337766451720794,-0.045103246020683,-0.025));
#1139=CARTESIAN_POINT('',(0.,0.046603246020683,-0.025));
#1140=CARTESIAN_POINT('',(0.,0.046603246020683,-0.03));
#1141=CARTESIAN_POINT('',(-0.0322766451720794,0.046603246020683,-0.03));
#1142=CARTESIAN_POINT('',(0.0322766451720794,0.046603246020683,-0.03));
#1143=CARTESIAN_POINT('',(-0.0322766451720794,0.046603246020683,0.));
#1144=CARTESIAN_POINT('',(0.0322766451720794,0.046603246020683,-0.025));
#1145=CARTESIAN_POINT('',(0.0337766451720794,0.,-0.025));
#1146=CARTESIAN_POINT('',(0.0337766451720794,0.,-0.03));
#1147=CARTESIAN_POINT('',(0.0337766451720794,0.045103246020683,-0.03));
#1148=CARTESIAN_POINT('',(0.0337766451720794,-0.045103246020683,-0.03));
#1149=CARTESIAN_POINT('',(0.0337766451720794,0.045103246020683,-0.025));
#1150=CARTESIAN_POINT('',(0.0337766451720794,0.0390391685068607,-0.119367863984655));
#1151=CARTESIAN_POINT('',(0.0337766451720794,0.0390391685068607,-0.025));
#1152=CARTESIAN_POINT('',(0.0337766451720794,0.,-0.025));
#1153=CARTESIAN_POINT('',(0.0337766451720794,0.0328026451170444,-0.025));
#1154=CARTESIAN_POINT('',(0.0337766451720794,0.0328026451170444,-0.119367863984655));
#1155=CARTESIAN_POINT('',(0.0337766451720794,-0.045103246020683,-0.03));
#1156=CARTESIAN_POINT('',(-3.46944695195361E-18,-0.046603246020683,-0.025));
#1157=CARTESIAN_POINT('',(-3.46944695195361E-18,-0.046603246020683,-0.03));
#1158=CARTESIAN_POINT('',(-0.0322766451720794,-0.046603246020683,-0.03));
#1159=CARTESIAN_POINT('',(0.0322766451720794,-0.046603246020683,-0.03));
#1160=CARTESIAN_POINT('',(0.0322766451720794,-0.046603246020683,0.));
#1161=CARTESIAN_POINT('',(-0.0322766451720794,-0.046603246020683,-0.025));
#1162=CARTESIAN_POINT('',(-0.0287766451720794,0.,-0.025));
#1163=CARTESIAN_POINT('',(-0.0287766451720794,0.,-0.025));
#1164=CARTESIAN_POINT('',(0.0318913199505805,0.040537121757505,-0.119367863984655));
#1165=CARTESIAN_POINT('',(0.,0.040537121757505,-0.025));
#1166=CARTESIAN_POINT('',(0.030047295615077,0.040537121757505,-0.025));
#1167=CARTESIAN_POINT('',(0.0325059947290817,0.040537121757505,-0.025));
#1168=CARTESIAN_POINT('',(0.0325059947290817,0.040537121757505,-0.119367863984655));
#1169=CARTESIAN_POINT('',(0.030047295615077,0.040537121757505,-0.119367863984655));
#1170=CARTESIAN_POINT('',(0.0325059947290817,0.0397881451321828,-0.119367863984655));
#1171=CARTESIAN_POINT('',(0.0325059947290817,0.0390391685068607,-0.119367863984655));
#1172=CARTESIAN_POINT('',(0.0325059947290817,0.0390391685068607,-0.025));
#1173=CARTESIAN_POINT('',(0.0325059947290817,0.,-0.025));
#1174=CARTESIAN_POINT('',(0.030047295615077,0.0397881451321828,-0.119367863984655));
#1175=CARTESIAN_POINT('',(0.030047295615077,0.,-0.025));
#1176=CARTESIAN_POINT('',(0.030047295615077,0.0390391685068607,-0.025));
#1177=CARTESIAN_POINT('',(0.030047295615077,0.0390391685068607,-0.119367863984655));
#1178=CARTESIAN_POINT('',(0.0331413199505805,0.0390391685068607,-0.119367863984655));
#1179=CARTESIAN_POINT('',(0.,0.0390391685068607,-0.025));
#1180=CARTESIAN_POINT('',(0.0294119703935782,0.0390391685068607,-0.119367863984655));
#1181=CARTESIAN_POINT('',(0.,0.0390391685068607,-0.025));
#1182=CARTESIAN_POINT('',(0.0294119703935782,0.0328026451170444,-0.119367863984655));
#1183=CARTESIAN_POINT('',(0.030047295615077,0.0328026451170444,-0.119367863984655));
#1184=CARTESIAN_POINT('',(0.030047295615077,0.0328026451170444,-0.025));
#1185=CARTESIAN_POINT('',(0.,0.0328026451170444,-0.025));
#1186=CARTESIAN_POINT('',(0.030047295615077,0.0320536684917224,-0.119367863984655));
#1187=CARTESIAN_POINT('',(0.030047295615077,0.0313046918664003,-0.119367863984655));
#1188=CARTESIAN_POINT('',(0.030047295615077,0.0313046918664003,-0.025));
#1189=CARTESIAN_POINT('',(0.030047295615077,0.,-0.025));
#1190=CARTESIAN_POINT('',(0.0306619703935782,0.0313046918664003,-0.119367863984655));
#1191=CARTESIAN_POINT('',(0.,0.0313046918664003,-0.025));
#1192=CARTESIAN_POINT('',(0.0325059947290817,0.0313046918664003,-0.025));
#1193=CARTESIAN_POINT('',(0.0325059947290817,0.0313046918664003,-0.119367863984655));
#1194=CARTESIAN_POINT('',(0.0325059947290817,0.0320536684917224,-0.119367863984655));
#1195=CARTESIAN_POINT('',(0.0325059947290817,0.,-0.025));
#1196=CARTESIAN_POINT('',(0.0325059947290817,0.0328026451170444,-0.025));
#1197=CARTESIAN_POINT('',(0.0325059947290817,0.0328026451170444,-0.119367863984655));
#1198=CARTESIAN_POINT('',(0.0331413199505805,0.0328026451170444,-0.119367863984655));
#1199=CARTESIAN_POINT('',(0.,0.0328026451170444,-0.025));
#1200=CARTESIAN_POINT('',(0.,0.,-0.03));
#1201=CARTESIAN_POINT('',(-0.0322766451720794,0.045103246020683,-0.03));
#1202=CARTESIAN_POINT('',(0.0322766451720794,0.045103246020683,-0.03));
#1203=CARTESIAN_POINT('',(0.0322766451720794,-0.045103246020683,-0.03));
#1204=CARTESIAN_POINT('',(-0.0322766451720794,-0.045103246020683,-0.03));
#1205=CARTESIAN_POINT('',(0.,0.,-0.025));
#1206=CARTESIAN_POINT('',(-0.0322766451720794,0.045103246020683,-0.025));
#1207=CARTESIAN_POINT('',(0.0322766451720794,0.045103246020683,-0.025));
#1208=CARTESIAN_POINT('',(0.0322766451720794,-0.045103246020683,-0.025));
#1209=CARTESIAN_POINT('',(-0.0322766451720794,-0.045103246020683,-0.025));
#1210=CARTESIAN_POINT('',(-0.0312766451720794,0.035103246020683,-0.0025));
#1211=CARTESIAN_POINT('',(-0.0302766451720794,0.035103246020683,-0.0025));
#1212=CARTESIAN_POINT('',(-0.0302766451720794,0.035103246020683,-0.0025));
#1213=CARTESIAN_POINT('',(-0.0312766451720794,0.035103246020683,-0.0025));
#1214=CARTESIAN_POINT('',(-0.0322766451720794,0.035103246020683,-0.0025));
#1215=CARTESIAN_POINT('',(-0.0322766451720794,0.035103246020683,-0.0025));
#1216=CARTESIAN_POINT('',(-0.0302766451720794,0.039103246020683,-0.0025));
#1217=CARTESIAN_POINT('',(-0.0302766451720794,0.043103246020683,-0.0025));
#1218=CARTESIAN_POINT('',(-0.0302766451720794,0.043103246020683,-0.0025));
#1219=CARTESIAN_POINT('',(-0.0302766451720794,0.039103246020683,-0.0025));
#1220=CARTESIAN_POINT('',(-0.0262766451720794,0.043103246020683,-0.0025));
#1221=CARTESIAN_POINT('',(-0.0222766451720794,0.043103246020683,-0.0025));
#1222=CARTESIAN_POINT('',(-0.0222766451720794,0.043103246020683,-0.0025));
#1223=CARTESIAN_POINT('',(-0.0262766451720794,0.043103246020683,-0.0025));
#1224=CARTESIAN_POINT('',(-0.0222766451720794,0.044103246020683,-0.0025));
#1225=CARTESIAN_POINT('',(-0.0222766451720794,0.045103246020683,-0.0025));
#1226=CARTESIAN_POINT('',(-0.0222766451720794,0.045103246020683,-0.0025));
#1227=CARTESIAN_POINT('',(-0.0222766451720794,0.044103246020683,-0.0025));
#1228=CARTESIAN_POINT('',(-0.0272766451720794,0.045103246020683,-0.0025));
#1229=CARTESIAN_POINT('',(-0.0322766451720794,0.045103246020683,-0.0025));
#1230=CARTESIAN_POINT('',(-0.0322766451720794,0.045103246020683,-0.0025));
#1231=CARTESIAN_POINT('',(-0.0272766451720794,0.045103246020683,-0.0025));
#1232=CARTESIAN_POINT('',(-0.0322766451720794,0.040103246020683,-0.0025));
#1233=CARTESIAN_POINT('',(-0.0322766451720794,0.040103246020683,-0.0025));
#1234=CARTESIAN_POINT('',(0.,0.,-0.0025));
#1235=CARTESIAN_POINT('',(0.0322766451720794,-0.044103246020683,-0.0025));
#1236=CARTESIAN_POINT('',(0.0322766451720794,-0.035103246020683,-0.0025));
#1237=CARTESIAN_POINT('',(0.0322766451720794,-0.035103246020683,-0.0025));
#1238=CARTESIAN_POINT('',(0.0322766451720794,-0.044103246020683,-0.0025));
#1239=CARTESIAN_POINT('',(0.0322766451720794,-0.045103246020683,-0.0025));
#1240=CARTESIAN_POINT('',(0.0322766451720794,-0.045103246020683,-0.0025));
#1241=CARTESIAN_POINT('',(0.0312766451720794,-0.035103246020683,-0.0025));
#1242=CARTESIAN_POINT('',(0.0302766451720794,-0.035103246020683,-0.0025));
#1243=CARTESIAN_POINT('',(0.0302766451720794,-0.035103246020683,-0.0025));
#1244=CARTESIAN_POINT('',(0.0312766451720794,-0.035103246020683,-0.0025));
#1245=CARTESIAN_POINT('',(0.0302766451720794,-0.039103246020683,-0.0025));
#1246=CARTESIAN_POINT('',(0.0302766451720794,-0.043103246020683,-0.0025));
#1247=CARTESIAN_POINT('',(0.0302766451720794,-0.043103246020683,-0.0025));
#1248=CARTESIAN_POINT('',(0.0302766451720794,-0.039103246020683,-0.0025));
#1249=CARTESIAN_POINT('',(0.0262766451720794,-0.043103246020683,-0.0025));
#1250=CARTESIAN_POINT('',(0.0222766451720794,-0.043103246020683,-0.0025));
#1251=CARTESIAN_POINT('',(0.0222766451720794,-0.043103246020683,-0.0025));
#1252=CARTESIAN_POINT('',(0.0262766451720794,-0.043103246020683,-0.0025));
#1253=CARTESIAN_POINT('',(0.0222766451720794,-0.044103246020683,-0.0025));
#1254=CARTESIAN_POINT('',(0.0222766451720794,-0.045103246020683,-0.0025));
#1255=CARTESIAN_POINT('',(0.0222766451720794,-0.045103246020683,-0.0025));
#1256=CARTESIAN_POINT('',(0.0222766451720794,-0.044103246020683,-0.0025));
#1257=CARTESIAN_POINT('',(0.0262766451720794,-0.045103246020683,-0.0025));
#1258=CARTESIAN_POINT('',(0.0262766451720794,-0.045103246020683,-0.0025));
#1259=CARTESIAN_POINT('',(0.,0.,-0.0025));
#1260=MECHANICAL_DESIGN_GEOMETRIC_PRESENTATION_REPRESENTATION('',(#781),
#1261);
#1261=(
GEOMETRIC_REPRESENTATION_CONTEXT(3)
GLOBAL_UNCERTAINTY_ASSIGNED_CONTEXT((#1262))
GLOBAL_UNIT_ASSIGNED_CONTEXT((#1265,#1264,#1263))
REPRESENTATION_CONTEXT('Bottom Shell','TOP_LEVEL_ASSEMBLY_PART')
);
#1262=UNCERTAINTY_MEASURE_WITH_UNIT(LENGTH_MEASURE(1.E-8),#1265,
'DISTANCE_ACCURACY_VALUE','Maximum Tolerance applied to model');
#1263=(
NAMED_UNIT(*)
SI_UNIT($,.STERADIAN.)
SOLID_ANGLE_UNIT()
);
#1264=(
NAMED_UNIT(*)
PLANE_ANGLE_UNIT()
SI_UNIT($,.RADIAN.)
);
#1265=(
LENGTH_UNIT()
NAMED_UNIT(*)
SI_UNIT($,.METRE.)
);
#1266=PRODUCT_DEFINITION_SHAPE('','',#1267);
#1267=PRODUCT_DEFINITION('','',#1269,#1268);
#1268=PRODUCT_DEFINITION_CONTEXT('',#1275,'design');
#1269=PRODUCT_DEFINITION_FORMATION_WITH_SPECIFIED_SOURCE('','',#1271,
 .NOT_KNOWN.);
#1270=PRODUCT_RELATED_PRODUCT_CATEGORY('','',(#1271));
#1271=PRODUCT('Bottom Shell','Bottom Shell','Bottom Shell',(#1273));
#1272=PRODUCT_CATEGORY('','');
#1273=PRODUCT_CONTEXT('',#1275,'mechanical');
#1274=APPLICATION_PROTOCOL_DEFINITION('international standard',
'ap242_managed_model_based_3d_engineering',2020,#1275);
#1275=APPLICATION_CONTEXT('managed model based 3d engineering');
ENDSEC;
END-ISO-10303-21;
