ISO-10303-21;
HEADER;
/* Generated by software containing ST-Developer
 * from STEP Tools, Inc. (www.steptools.com) 
 */
/* OPTION: using custom renumber hook */

FILE_DESCRIPTION(
/* description */ ('STEP AP242 Edition 2',
'CAx-IF Rec.Pracs.---Representation and Presentation of Product Manufa
cturing Information (PMI)---4.0---2014-10-13',
'CAx-IF Rec.Pracs.---3D Tessellated Geometry---0.4---2014-09-14','2;1',
'CAx-IF Rec.Pracs.---User Defined Attributes---1.5---2016-08-15'),
/* implementation_level */ '2;1');

FILE_NAME(
/* name */ 'Sensemate case - Top',
/* time_stamp */ '2026-07-29T12:03:06Z',
/* author */ (''),
/* organization */ (''),
/* preprocessor_version */ 'ST-DEVELOPER v20',
/* originating_system */ 'ONSHAPE BY PTC INC, 1.218',
/* authorisation */ '  ');

FILE_SCHEMA (('AP242_MANAGED_MODEL_BASED_3D_ENGINEERING_MIM_LF { 1 0 10303 442 3 1 4 }'));
ENDSEC;

DATA;
#10=SHAPE_REPRESENTATION_RELATIONSHIP('','',#1199,#11);
#11=ADVANCED_BREP_SHAPE_REPRESENTATION('',(#1197),#2057);
#12=(
BOUNDED_SURFACE()
B_SPLINE_SURFACE(3,2,((#1951,#1952,#1953),(#1954,#1955,#1956),(#1957,#1958,
#1959),(#1960,#1961,#1962),(#1963,#1964,#1965),(#1966,#1967,#1968),(#1969,
#1970,#1971)),.UNSPECIFIED.,.F.,.F.,.F.)
B_SPLINE_SURFACE_WITH_KNOTS((4,1,1,1,4),(3,3),(6.28318530717959,6.67588438887831,
7.06858347057703,7.46128255227576,7.85398163397448),(0.,1.),
 .UNSPECIFIED.)
GEOMETRIC_REPRESENTATION_ITEM()
RATIONAL_B_SPLINE_SURFACE(((1.,0.707106781186548,1.),(1.,0.707106781348509,
1.),(1.,0.746571860755488,1.),(1.,0.869029034424642,1.),(1.,0.973464424252578,
1.),(1.,0.999999999985521,1.),(1.,1.,1.)))
REPRESENTATION_ITEM('')
SURFACE()
);
#13=(
BOUNDED_SURFACE()
B_SPLINE_SURFACE(3,2,((#1974,#1975,#1976),(#1977,#1978,#1979),(#1980,#1981,
#1982),(#1983,#1984,#1985),(#1986,#1987,#1988),(#1989,#1990,#1991),(#1992,
#1993,#1994)),.UNSPECIFIED.,.F.,.F.,.F.)
B_SPLINE_SURFACE_WITH_KNOTS((4,1,1,1,4),(3,3),(6.28318530717959,6.67588438887831,
7.06858347057703,7.46128255227576,7.85398163397448),(0.,1.),
 .UNSPECIFIED.)
GEOMETRIC_REPRESENTATION_ITEM()
RATIONAL_B_SPLINE_SURFACE(((1.,0.707106781186548,1.),(1.,0.707106781348509,
1.),(1.,0.746571860755487,1.),(1.,0.869029034424641,1.),(1.,0.973464424252577,
1.),(1.,0.999999999985521,1.),(1.,1.,1.)))
REPRESENTATION_ITEM('')
SURFACE()
);
#14=(
BOUNDED_SURFACE()
B_SPLINE_SURFACE(3,2,((#1997,#1998,#1999),(#2000,#2001,#2002),(#2003,#2004,
#2005),(#2006,#2007,#2008),(#2009,#2010,#2011),(#2012,#2013,#2014),(#2015,
#2016,#2017)),.UNSPECIFIED.,.F.,.F.,.F.)
B_SPLINE_SURFACE_WITH_KNOTS((4,1,1,1,4),(3,3),(6.28318530717959,6.67588438887831,
7.06858347057703,7.46128255227576,7.85398163397448),(0.,1.),
 .UNSPECIFIED.)
GEOMETRIC_REPRESENTATION_ITEM()
RATIONAL_B_SPLINE_SURFACE(((1.,0.707106781186548,1.),(1.,0.707106781348516,
1.),(1.,0.746571860755485,1.),(1.,0.869029034424642,1.),(1.,0.973464424252578,
1.),(1.,0.999999999985521,1.),(1.,1.,1.)))
REPRESENTATION_ITEM('')
SURFACE()
);
#15=(
BOUNDED_SURFACE()
B_SPLINE_SURFACE(3,2,((#2020,#2021,#2022),(#2023,#2024,#2025),(#2026,#2027,
#2028),(#2029,#2030,#2031),(#2032,#2033,#2034),(#2035,#2036,#2037),(#2038,
#2039,#2040)),.UNSPECIFIED.,.F.,.F.,.F.)
B_SPLINE_SURFACE_WITH_KNOTS((4,1,1,1,4),(3,3),(6.28318530717959,6.67588438887831,
7.06858347057703,7.46128255227576,7.85398163397448),(0.,1.),
 .UNSPECIFIED.)
GEOMETRIC_REPRESENTATION_ITEM()
RATIONAL_B_SPLINE_SURFACE(((1.,0.707106781186548,1.),(1.,0.707106781348516,
1.),(1.,0.746571860755485,1.),(1.,0.869029034424641,1.),(1.,0.973464424252576,
1.),(1.,0.999999999985521,1.),(1.,1.,1.)))
REPRESENTATION_ITEM('')
SURFACE()
);
#16=ELLIPSE('',#1215,0.0014142135623731,0.001);
#17=ELLIPSE('',#1218,0.0014142135623731,0.001);
#18=ELLIPSE('',#1229,0.00269258240356725,0.0025);
#19=ELLIPSE('',#1230,0.00269258240356725,0.0025);
#20=ELLIPSE('',#1233,0.00269258240356726,0.0025);
#21=ELLIPSE('',#1234,0.00269258240356725,0.0025);
#22=ELLIPSE('',#1237,0.00269258240356725,0.0025);
#23=ELLIPSE('',#1238,0.00269258240356725,0.0025);
#24=ELLIPSE('',#1242,0.00269258240356725,0.0025);
#25=ELLIPSE('',#1243,0.00269258240356725,0.0025);
#26=B_SPLINE_CURVE_WITH_KNOTS('',3,(#1667,#1668,#1669,#1670,#1671),
 .UNSPECIFIED.,.F.,.F.,(4,1,4),(0.,0.000472194271553029,0.000944388543106058),
 .UNSPECIFIED.);
#27=B_SPLINE_CURVE_WITH_KNOTS('',3,(#1680,#1681,#1682,#1683,#1684),
 .UNSPECIFIED.,.F.,.F.,(4,1,4),(0.,0.000472157945663029,0.000944315891326059),
 .UNSPECIFIED.);
#28=B_SPLINE_CURVE_WITH_KNOTS('',3,(#1899,#1900,#1901,#1902,#1903),
 .UNSPECIFIED.,.F.,.F.,(4,1,4),(0.,0.000472157945663031,0.000944315891326062),
 .UNSPECIFIED.);
#29=B_SPLINE_CURVE_WITH_KNOTS('',3,(#1936,#1937,#1938,#1939,#1940),
 .UNSPECIFIED.,.F.,.F.,(4,1,4),(0.,0.000472194271553031,0.000944388543106062),
 .UNSPECIFIED.);
#30=CIRCLE('',#1203,0.001);
#31=CIRCLE('',#1204,0.001);
#32=CIRCLE('',#1207,0.0003);
#33=CIRCLE('',#1209,0.0003);
#34=CIRCLE('',#1213,0.001);
#35=CIRCLE('',#1214,0.001);
#36=CIRCLE('',#1217,0.001);
#37=CIRCLE('',#1219,0.001);
#38=CIRCLE('',#1223,0.0015);
#39=CIRCLE('',#1224,0.0015);
#40=CIRCLE('',#1225,0.0015);
#41=CIRCLE('',#1226,0.0015);
#42=CIRCLE('',#1245,0.0003);
#43=CIRCLE('',#1247,0.0003);
#44=CIRCLE('',#1259,0.000925);
#45=CIRCLE('',#1261,0.0009);
#46=CIRCLE('',#1262,0.0003);
#47=CIRCLE('',#1266,0.000925);
#48=CIRCLE('',#1271,0.0003);
#49=CIRCLE('',#1273,0.000925);
#50=CIRCLE('',#1275,0.000925);
#51=CIRCLE('',#1279,0.000925);
#52=CIRCLE('',#1281,0.0015);
#53=CIRCLE('',#1283,0.0015);
#54=CIRCLE('',#1285,0.0015);
#55=CIRCLE('',#1287,0.0015);
#56=CIRCLE('',#1291,0.000925);
#57=CIRCLE('',#1296,0.0009);
#58=CYLINDRICAL_SURFACE('',#1202,0.001);
#59=CYLINDRICAL_SURFACE('',#1206,0.0003);
#60=CYLINDRICAL_SURFACE('',#1208,0.0003);
#61=CYLINDRICAL_SURFACE('',#1212,0.001);
#62=CYLINDRICAL_SURFACE('',#1216,0.001);
#63=CYLINDRICAL_SURFACE('',#1228,0.0025);
#64=CYLINDRICAL_SURFACE('',#1232,0.0025);
#65=CYLINDRICAL_SURFACE('',#1236,0.0025);
#66=CYLINDRICAL_SURFACE('',#1239,0.001);
#67=CYLINDRICAL_SURFACE('',#1241,0.0025);
#68=CYLINDRICAL_SURFACE('',#1264,0.0003);
#69=CYLINDRICAL_SURFACE('',#1267,0.0003);
#70=CYLINDRICAL_SURFACE('',#1276,0.0003);
#71=CYLINDRICAL_SURFACE('',#1282,0.0015);
#72=CYLINDRICAL_SURFACE('',#1284,0.0015);
#73=CYLINDRICAL_SURFACE('',#1286,0.0015);
#74=CYLINDRICAL_SURFACE('',#1288,0.0015);
#75=CYLINDRICAL_SURFACE('',#1289,0.000925);
#76=CYLINDRICAL_SURFACE('',#1290,0.000925);
#77=CYLINDRICAL_SURFACE('',#1297,0.0009);
#78=ORIENTED_EDGE('',*,*,#414,.F.);
#79=ORIENTED_EDGE('',*,*,#415,.F.);
#80=ORIENTED_EDGE('',*,*,#416,.F.);
#81=ORIENTED_EDGE('',*,*,#417,.T.);
#82=ORIENTED_EDGE('',*,*,#418,.T.);
#83=ORIENTED_EDGE('',*,*,#419,.F.);
#84=ORIENTED_EDGE('',*,*,#420,.F.);
#85=ORIENTED_EDGE('',*,*,#421,.T.);
#86=ORIENTED_EDGE('',*,*,#422,.T.);
#87=ORIENTED_EDGE('',*,*,#423,.T.);
#88=ORIENTED_EDGE('',*,*,#424,.T.);
#89=ORIENTED_EDGE('',*,*,#425,.T.);
#90=ORIENTED_EDGE('',*,*,#426,.T.);
#91=ORIENTED_EDGE('',*,*,#427,.F.);
#92=ORIENTED_EDGE('',*,*,#428,.T.);
#93=ORIENTED_EDGE('',*,*,#429,.T.);
#94=ORIENTED_EDGE('',*,*,#430,.F.);
#95=ORIENTED_EDGE('',*,*,#429,.F.);
#96=ORIENTED_EDGE('',*,*,#431,.T.);
#97=ORIENTED_EDGE('',*,*,#432,.T.);
#98=ORIENTED_EDGE('',*,*,#433,.F.);
#99=ORIENTED_EDGE('',*,*,#434,.T.);
#100=ORIENTED_EDGE('',*,*,#432,.F.);
#101=ORIENTED_EDGE('',*,*,#435,.F.);
#102=ORIENTED_EDGE('',*,*,#436,.F.);
#103=ORIENTED_EDGE('',*,*,#437,.T.);
#104=ORIENTED_EDGE('',*,*,#438,.F.);
#105=ORIENTED_EDGE('',*,*,#439,.F.);
#106=ORIENTED_EDGE('',*,*,#440,.F.);
#107=ORIENTED_EDGE('',*,*,#441,.T.);
#108=ORIENTED_EDGE('',*,*,#442,.F.);
#109=ORIENTED_EDGE('',*,*,#443,.F.);
#110=ORIENTED_EDGE('',*,*,#444,.F.);
#111=ORIENTED_EDGE('',*,*,#445,.T.);
#112=ORIENTED_EDGE('',*,*,#446,.T.);
#113=ORIENTED_EDGE('',*,*,#447,.F.);
#114=ORIENTED_EDGE('',*,*,#448,.F.);
#115=ORIENTED_EDGE('',*,*,#449,.F.);
#116=ORIENTED_EDGE('',*,*,#450,.T.);
#117=ORIENTED_EDGE('',*,*,#451,.T.);
#118=ORIENTED_EDGE('',*,*,#452,.F.);
#119=ORIENTED_EDGE('',*,*,#447,.T.);
#120=ORIENTED_EDGE('',*,*,#453,.F.);
#121=ORIENTED_EDGE('',*,*,#454,.T.);
#122=ORIENTED_EDGE('',*,*,#424,.F.);
#123=ORIENTED_EDGE('',*,*,#455,.F.);
#124=ORIENTED_EDGE('',*,*,#426,.F.);
#125=ORIENTED_EDGE('',*,*,#456,.F.);
#126=ORIENTED_EDGE('',*,*,#457,.F.);
#127=ORIENTED_EDGE('',*,*,#449,.T.);
#128=ORIENTED_EDGE('',*,*,#458,.F.);
#129=ORIENTED_EDGE('',*,*,#416,.T.);
#130=ORIENTED_EDGE('',*,*,#459,.T.);
#131=ORIENTED_EDGE('',*,*,#460,.T.);
#132=ORIENTED_EDGE('',*,*,#461,.F.);
#133=ORIENTED_EDGE('',*,*,#420,.T.);
#134=ORIENTED_EDGE('',*,*,#462,.T.);
#135=ORIENTED_EDGE('',*,*,#463,.F.);
#136=ORIENTED_EDGE('',*,*,#464,.F.);
#137=ORIENTED_EDGE('',*,*,#465,.F.);
#138=ORIENTED_EDGE('',*,*,#466,.F.);
#139=ORIENTED_EDGE('',*,*,#467,.F.);
#140=ORIENTED_EDGE('',*,*,#468,.F.);
#141=ORIENTED_EDGE('',*,*,#469,.T.);
#142=ORIENTED_EDGE('',*,*,#470,.T.);
#143=ORIENTED_EDGE('',*,*,#460,.F.);
#144=ORIENTED_EDGE('',*,*,#471,.T.);
#145=ORIENTED_EDGE('',*,*,#472,.T.);
#146=ORIENTED_EDGE('',*,*,#473,.T.);
#147=ORIENTED_EDGE('',*,*,#474,.T.);
#148=ORIENTED_EDGE('',*,*,#475,.T.);
#149=ORIENTED_EDGE('',*,*,#476,.T.);
#150=ORIENTED_EDGE('',*,*,#477,.T.);
#151=ORIENTED_EDGE('',*,*,#478,.T.);
#152=ORIENTED_EDGE('',*,*,#479,.T.);
#153=ORIENTED_EDGE('',*,*,#480,.F.);
#154=ORIENTED_EDGE('',*,*,#481,.F.);
#155=ORIENTED_EDGE('',*,*,#482,.T.);
#156=ORIENTED_EDGE('',*,*,#451,.F.);
#157=ORIENTED_EDGE('',*,*,#483,.F.);
#158=ORIENTED_EDGE('',*,*,#484,.F.);
#159=ORIENTED_EDGE('',*,*,#485,.T.);
#160=ORIENTED_EDGE('',*,*,#445,.F.);
#161=ORIENTED_EDGE('',*,*,#486,.F.);
#162=ORIENTED_EDGE('',*,*,#487,.F.);
#163=ORIENTED_EDGE('',*,*,#488,.T.);
#164=ORIENTED_EDGE('',*,*,#477,.F.);
#165=ORIENTED_EDGE('',*,*,#489,.T.);
#166=ORIENTED_EDGE('',*,*,#490,.T.);
#167=ORIENTED_EDGE('',*,*,#491,.T.);
#168=ORIENTED_EDGE('',*,*,#490,.F.);
#169=ORIENTED_EDGE('',*,*,#492,.T.);
#170=ORIENTED_EDGE('',*,*,#467,.T.);
#171=ORIENTED_EDGE('',*,*,#493,.T.);
#172=ORIENTED_EDGE('',*,*,#494,.T.);
#173=ORIENTED_EDGE('',*,*,#495,.T.);
#174=ORIENTED_EDGE('',*,*,#471,.F.);
#175=ORIENTED_EDGE('',*,*,#496,.F.);
#176=ORIENTED_EDGE('',*,*,#497,.F.);
#177=ORIENTED_EDGE('',*,*,#498,.T.);
#178=ORIENTED_EDGE('',*,*,#479,.F.);
#179=ORIENTED_EDGE('',*,*,#499,.T.);
#180=ORIENTED_EDGE('',*,*,#466,.T.);
#181=ORIENTED_EDGE('',*,*,#500,.T.);
#182=ORIENTED_EDGE('',*,*,#494,.F.);
#183=ORIENTED_EDGE('',*,*,#501,.T.);
#184=ORIENTED_EDGE('',*,*,#475,.F.);
#185=ORIENTED_EDGE('',*,*,#502,.T.);
#186=ORIENTED_EDGE('',*,*,#503,.T.);
#187=ORIENTED_EDGE('',*,*,#504,.T.);
#188=ORIENTED_EDGE('',*,*,#503,.F.);
#189=ORIENTED_EDGE('',*,*,#505,.T.);
#190=ORIENTED_EDGE('',*,*,#464,.T.);
#191=ORIENTED_EDGE('',*,*,#506,.T.);
#192=ORIENTED_EDGE('',*,*,#507,.F.);
#193=ORIENTED_EDGE('',*,*,#456,.T.);
#194=ORIENTED_EDGE('',*,*,#425,.F.);
#195=ORIENTED_EDGE('',*,*,#454,.F.);
#196=ORIENTED_EDGE('',*,*,#473,.F.);
#197=ORIENTED_EDGE('',*,*,#508,.T.);
#198=ORIENTED_EDGE('',*,*,#509,.T.);
#199=ORIENTED_EDGE('',*,*,#510,.T.);
#200=ORIENTED_EDGE('',*,*,#509,.F.);
#201=ORIENTED_EDGE('',*,*,#511,.T.);
#202=ORIENTED_EDGE('',*,*,#465,.T.);
#203=ORIENTED_EDGE('',*,*,#512,.T.);
#204=ORIENTED_EDGE('',*,*,#513,.F.);
#205=ORIENTED_EDGE('',*,*,#514,.F.);
#206=ORIENTED_EDGE('',*,*,#515,.T.);
#207=ORIENTED_EDGE('',*,*,#496,.T.);
#208=ORIENTED_EDGE('',*,*,#488,.F.);
#209=ORIENTED_EDGE('',*,*,#516,.F.);
#210=ORIENTED_EDGE('',*,*,#517,.T.);
#211=ORIENTED_EDGE('',*,*,#518,.T.);
#212=ORIENTED_EDGE('',*,*,#519,.T.);
#213=ORIENTED_EDGE('',*,*,#480,.T.);
#214=ORIENTED_EDGE('',*,*,#498,.F.);
#215=ORIENTED_EDGE('',*,*,#520,.F.);
#216=ORIENTED_EDGE('',*,*,#521,.T.);
#217=ORIENTED_EDGE('',*,*,#522,.F.);
#218=ORIENTED_EDGE('',*,*,#523,.F.);
#219=ORIENTED_EDGE('',*,*,#433,.T.);
#220=ORIENTED_EDGE('',*,*,#524,.F.);
#221=ORIENTED_EDGE('',*,*,#525,.T.);
#222=ORIENTED_EDGE('',*,*,#526,.T.);
#223=ORIENTED_EDGE('',*,*,#527,.F.);
#224=ORIENTED_EDGE('',*,*,#520,.T.);
#225=ORIENTED_EDGE('',*,*,#497,.T.);
#226=ORIENTED_EDGE('',*,*,#515,.F.);
#227=ORIENTED_EDGE('',*,*,#528,.F.);
#228=ORIENTED_EDGE('',*,*,#529,.F.);
#229=ORIENTED_EDGE('',*,*,#530,.T.);
#230=ORIENTED_EDGE('',*,*,#469,.F.);
#231=ORIENTED_EDGE('',*,*,#531,.F.);
#232=ORIENTED_EDGE('',*,*,#415,.T.);
#233=ORIENTED_EDGE('',*,*,#532,.F.);
#234=ORIENTED_EDGE('',*,*,#533,.T.);
#235=ORIENTED_EDGE('',*,*,#531,.T.);
#236=ORIENTED_EDGE('',*,*,#468,.T.);
#237=ORIENTED_EDGE('',*,*,#459,.F.);
#238=ORIENTED_EDGE('',*,*,#461,.T.);
#239=ORIENTED_EDGE('',*,*,#470,.F.);
#240=ORIENTED_EDGE('',*,*,#530,.F.);
#241=ORIENTED_EDGE('',*,*,#534,.F.);
#242=ORIENTED_EDGE('',*,*,#535,.T.);
#243=ORIENTED_EDGE('',*,*,#421,.F.);
#244=ORIENTED_EDGE('',*,*,#458,.T.);
#245=ORIENTED_EDGE('',*,*,#536,.T.);
#246=ORIENTED_EDGE('',*,*,#537,.T.);
#247=ORIENTED_EDGE('',*,*,#417,.F.);
#248=ORIENTED_EDGE('',*,*,#419,.T.);
#249=ORIENTED_EDGE('',*,*,#538,.F.);
#250=ORIENTED_EDGE('',*,*,#539,.F.);
#251=ORIENTED_EDGE('',*,*,#462,.F.);
#252=ORIENTED_EDGE('',*,*,#463,.T.);
#253=ORIENTED_EDGE('',*,*,#539,.T.);
#254=ORIENTED_EDGE('',*,*,#540,.F.);
#255=ORIENTED_EDGE('',*,*,#536,.F.);
#256=ORIENTED_EDGE('',*,*,#418,.F.);
#257=ORIENTED_EDGE('',*,*,#537,.F.);
#258=ORIENTED_EDGE('',*,*,#540,.T.);
#259=ORIENTED_EDGE('',*,*,#538,.T.);
#260=ORIENTED_EDGE('',*,*,#414,.T.);
#261=ORIENTED_EDGE('',*,*,#535,.F.);
#262=ORIENTED_EDGE('',*,*,#541,.F.);
#263=ORIENTED_EDGE('',*,*,#532,.T.);
#264=ORIENTED_EDGE('',*,*,#533,.F.);
#265=ORIENTED_EDGE('',*,*,#541,.T.);
#266=ORIENTED_EDGE('',*,*,#534,.T.);
#267=ORIENTED_EDGE('',*,*,#529,.T.);
#268=ORIENTED_EDGE('',*,*,#542,.F.);
#269=ORIENTED_EDGE('',*,*,#543,.F.);
#270=ORIENTED_EDGE('',*,*,#517,.F.);
#271=ORIENTED_EDGE('',*,*,#527,.T.);
#272=ORIENTED_EDGE('',*,*,#544,.F.);
#273=ORIENTED_EDGE('',*,*,#437,.F.);
#274=ORIENTED_EDGE('',*,*,#545,.T.);
#275=ORIENTED_EDGE('',*,*,#546,.F.);
#276=ORIENTED_EDGE('',*,*,#521,.F.);
#277=ORIENTED_EDGE('',*,*,#547,.T.);
#278=ORIENTED_EDGE('',*,*,#548,.T.);
#279=ORIENTED_EDGE('',*,*,#549,.T.);
#280=ORIENTED_EDGE('',*,*,#486,.T.);
#281=ORIENTED_EDGE('',*,*,#550,.T.);
#282=ORIENTED_EDGE('',*,*,#516,.T.);
#283=ORIENTED_EDGE('',*,*,#487,.T.);
#284=ORIENTED_EDGE('',*,*,#549,.F.);
#285=ORIENTED_EDGE('',*,*,#551,.F.);
#286=ORIENTED_EDGE('',*,*,#552,.F.);
#287=ORIENTED_EDGE('',*,*,#518,.F.);
#288=ORIENTED_EDGE('',*,*,#543,.T.);
#289=ORIENTED_EDGE('',*,*,#553,.F.);
#290=ORIENTED_EDGE('',*,*,#439,.T.);
#291=ORIENTED_EDGE('',*,*,#554,.F.);
#292=ORIENTED_EDGE('',*,*,#481,.T.);
#293=ORIENTED_EDGE('',*,*,#519,.F.);
#294=ORIENTED_EDGE('',*,*,#552,.T.);
#295=ORIENTED_EDGE('',*,*,#555,.T.);
#296=ORIENTED_EDGE('',*,*,#513,.T.);
#297=ORIENTED_EDGE('',*,*,#550,.F.);
#298=ORIENTED_EDGE('',*,*,#548,.F.);
#299=ORIENTED_EDGE('',*,*,#528,.T.);
#300=ORIENTED_EDGE('',*,*,#514,.T.);
#301=ORIENTED_EDGE('',*,*,#555,.F.);
#302=ORIENTED_EDGE('',*,*,#547,.F.);
#303=ORIENTED_EDGE('',*,*,#482,.F.);
#304=ORIENTED_EDGE('',*,*,#554,.T.);
#305=ORIENTED_EDGE('',*,*,#438,.T.);
#306=ORIENTED_EDGE('',*,*,#544,.T.);
#307=ORIENTED_EDGE('',*,*,#526,.F.);
#308=ORIENTED_EDGE('',*,*,#556,.F.);
#309=ORIENTED_EDGE('',*,*,#485,.F.);
#310=ORIENTED_EDGE('',*,*,#557,.T.);
#311=ORIENTED_EDGE('',*,*,#558,.T.);
#312=ORIENTED_EDGE('',*,*,#559,.T.);
#313=ORIENTED_EDGE('',*,*,#560,.T.);
#314=ORIENTED_EDGE('',*,*,#561,.T.);
#315=ORIENTED_EDGE('',*,*,#562,.F.);
#316=ORIENTED_EDGE('',*,*,#563,.F.);
#317=ORIENTED_EDGE('',*,*,#557,.F.);
#318=ORIENTED_EDGE('',*,*,#484,.T.);
#319=ORIENTED_EDGE('',*,*,#564,.F.);
#320=ORIENTED_EDGE('',*,*,#441,.F.);
#321=ORIENTED_EDGE('',*,*,#565,.F.);
#322=ORIENTED_EDGE('',*,*,#507,.T.);
#323=ORIENTED_EDGE('',*,*,#453,.T.);
#324=ORIENTED_EDGE('',*,*,#446,.F.);
#325=ORIENTED_EDGE('',*,*,#561,.F.);
#326=ORIENTED_EDGE('',*,*,#566,.T.);
#327=ORIENTED_EDGE('',*,*,#567,.F.);
#328=ORIENTED_EDGE('',*,*,#450,.F.);
#329=ORIENTED_EDGE('',*,*,#457,.T.);
#330=ORIENTED_EDGE('',*,*,#568,.F.);
#331=ORIENTED_EDGE('',*,*,#569,.F.);
#332=ORIENTED_EDGE('',*,*,#558,.F.);
#333=ORIENTED_EDGE('',*,*,#563,.T.);
#334=ORIENTED_EDGE('',*,*,#566,.F.);
#335=ORIENTED_EDGE('',*,*,#560,.F.);
#336=ORIENTED_EDGE('',*,*,#570,.T.);
#337=ORIENTED_EDGE('',*,*,#571,.F.);
#338=ORIENTED_EDGE('',*,*,#572,.F.);
#339=ORIENTED_EDGE('',*,*,#443,.T.);
#340=ORIENTED_EDGE('',*,*,#573,.F.);
#341=ORIENTED_EDGE('',*,*,#570,.F.);
#342=ORIENTED_EDGE('',*,*,#559,.F.);
#343=ORIENTED_EDGE('',*,*,#569,.T.);
#344=ORIENTED_EDGE('',*,*,#483,.T.);
#345=ORIENTED_EDGE('',*,*,#567,.T.);
#346=ORIENTED_EDGE('',*,*,#571,.T.);
#347=ORIENTED_EDGE('',*,*,#573,.T.);
#348=ORIENTED_EDGE('',*,*,#442,.T.);
#349=ORIENTED_EDGE('',*,*,#564,.T.);
#350=ORIENTED_EDGE('',*,*,#500,.F.);
#351=ORIENTED_EDGE('',*,*,#511,.F.);
#352=ORIENTED_EDGE('',*,*,#574,.F.);
#353=ORIENTED_EDGE('',*,*,#574,.T.);
#354=ORIENTED_EDGE('',*,*,#508,.F.);
#355=ORIENTED_EDGE('',*,*,#472,.F.);
#356=ORIENTED_EDGE('',*,*,#495,.F.);
#357=ORIENTED_EDGE('',*,*,#512,.F.);
#358=ORIENTED_EDGE('',*,*,#505,.F.);
#359=ORIENTED_EDGE('',*,*,#575,.F.);
#360=ORIENTED_EDGE('',*,*,#575,.T.);
#361=ORIENTED_EDGE('',*,*,#502,.F.);
#362=ORIENTED_EDGE('',*,*,#474,.F.);
#363=ORIENTED_EDGE('',*,*,#510,.F.);
#364=ORIENTED_EDGE('',*,*,#506,.F.);
#365=ORIENTED_EDGE('',*,*,#492,.F.);
#366=ORIENTED_EDGE('',*,*,#576,.F.);
#367=ORIENTED_EDGE('',*,*,#576,.T.);
#368=ORIENTED_EDGE('',*,*,#489,.F.);
#369=ORIENTED_EDGE('',*,*,#476,.F.);
#370=ORIENTED_EDGE('',*,*,#504,.F.);
#371=ORIENTED_EDGE('',*,*,#493,.F.);
#372=ORIENTED_EDGE('',*,*,#501,.F.);
#373=ORIENTED_EDGE('',*,*,#577,.F.);
#374=ORIENTED_EDGE('',*,*,#577,.T.);
#375=ORIENTED_EDGE('',*,*,#499,.F.);
#376=ORIENTED_EDGE('',*,*,#478,.F.);
#377=ORIENTED_EDGE('',*,*,#491,.F.);
#378=ORIENTED_EDGE('',*,*,#565,.T.);
#379=ORIENTED_EDGE('',*,*,#562,.T.);
#380=ORIENTED_EDGE('',*,*,#440,.T.);
#381=ORIENTED_EDGE('',*,*,#572,.T.);
#382=ORIENTED_EDGE('',*,*,#568,.T.);
#383=ORIENTED_EDGE('',*,*,#542,.T.);
#384=ORIENTED_EDGE('',*,*,#436,.T.);
#385=ORIENTED_EDGE('',*,*,#553,.T.);
#386=ORIENTED_EDGE('',*,*,#551,.T.);
#387=ORIENTED_EDGE('',*,*,#578,.F.);
#388=ORIENTED_EDGE('',*,*,#431,.F.);
#389=ORIENTED_EDGE('',*,*,#428,.F.);
#390=ORIENTED_EDGE('',*,*,#579,.F.);
#391=ORIENTED_EDGE('',*,*,#524,.T.);
#392=ORIENTED_EDGE('',*,*,#435,.T.);
#393=ORIENTED_EDGE('',*,*,#427,.T.);
#394=ORIENTED_EDGE('',*,*,#455,.T.);
#395=ORIENTED_EDGE('',*,*,#448,.T.);
#396=ORIENTED_EDGE('',*,*,#556,.T.);
#397=ORIENTED_EDGE('',*,*,#525,.F.);
#398=ORIENTED_EDGE('',*,*,#579,.T.);
#399=ORIENTED_EDGE('',*,*,#578,.T.);
#400=ORIENTED_EDGE('',*,*,#444,.T.);
#401=ORIENTED_EDGE('',*,*,#452,.T.);
#402=ORIENTED_EDGE('',*,*,#423,.F.);
#403=ORIENTED_EDGE('',*,*,#580,.F.);
#404=ORIENTED_EDGE('',*,*,#522,.T.);
#405=ORIENTED_EDGE('',*,*,#546,.T.);
#406=ORIENTED_EDGE('',*,*,#581,.F.);
#407=ORIENTED_EDGE('',*,*,#422,.F.);
#408=ORIENTED_EDGE('',*,*,#430,.T.);
#409=ORIENTED_EDGE('',*,*,#434,.F.);
#410=ORIENTED_EDGE('',*,*,#523,.T.);
#411=ORIENTED_EDGE('',*,*,#580,.T.);
#412=ORIENTED_EDGE('',*,*,#581,.T.);
#413=ORIENTED_EDGE('',*,*,#545,.F.);
#414=EDGE_CURVE('',#582,#583,#690,.T.);
#415=EDGE_CURVE('',#584,#582,#691,.T.);
#416=EDGE_CURVE('',#585,#584,#692,.T.);
#417=EDGE_CURVE('',#585,#586,#693,.T.);
#418=EDGE_CURVE('',#586,#587,#694,.T.);
#419=EDGE_CURVE('',#588,#587,#695,.T.);
#420=EDGE_CURVE('',#589,#588,#696,.T.);
#421=EDGE_CURVE('',#589,#583,#697,.T.);
#422=EDGE_CURVE('',#590,#591,#698,.T.);
#423=EDGE_CURVE('',#591,#592,#699,.T.);
#424=EDGE_CURVE('',#592,#593,#700,.T.);
#425=EDGE_CURVE('',#593,#594,#701,.T.);
#426=EDGE_CURVE('',#594,#595,#702,.T.);
#427=EDGE_CURVE('',#596,#595,#703,.T.);
#428=EDGE_CURVE('',#596,#597,#704,.T.);
#429=EDGE_CURVE('',#597,#590,#705,.T.);
#430=EDGE_CURVE('',#590,#598,#30,.T.);
#431=EDGE_CURVE('',#597,#599,#31,.T.);
#432=EDGE_CURVE('',#599,#598,#706,.T.);
#433=EDGE_CURVE('',#600,#601,#707,.T.);
#434=EDGE_CURVE('',#600,#598,#708,.T.);
#435=EDGE_CURVE('',#601,#599,#709,.T.);
#436=EDGE_CURVE('',#602,#603,#26,.T.);
#437=EDGE_CURVE('',#602,#604,#710,.T.);
#438=EDGE_CURVE('',#605,#604,#32,.F.);
#439=EDGE_CURVE('',#603,#605,#711,.T.);
#440=EDGE_CURVE('',#606,#607,#27,.T.);
#441=EDGE_CURVE('',#606,#608,#712,.T.);
#442=EDGE_CURVE('',#609,#608,#33,.F.);
#443=EDGE_CURVE('',#607,#609,#713,.T.);
#444=EDGE_CURVE('',#610,#611,#714,.T.);
#445=EDGE_CURVE('',#610,#612,#715,.T.);
#446=EDGE_CURVE('',#612,#613,#716,.T.);
#447=EDGE_CURVE('',#611,#613,#717,.T.);
#448=EDGE_CURVE('',#614,#615,#718,.T.);
#449=EDGE_CURVE('',#616,#614,#719,.T.);
#450=EDGE_CURVE('',#616,#617,#720,.T.);
#451=EDGE_CURVE('',#617,#615,#721,.T.);
#452=EDGE_CURVE('',#611,#592,#34,.T.);
#453=EDGE_CURVE('',#618,#613,#35,.T.);
#454=EDGE_CURVE('',#618,#593,#16,.T.);
#455=EDGE_CURVE('',#595,#614,#36,.T.);
#456=EDGE_CURVE('',#619,#594,#17,.T.);
#457=EDGE_CURVE('',#616,#619,#37,.T.);
#458=EDGE_CURVE('',#585,#620,#722,.T.);
#459=EDGE_CURVE('',#584,#621,#723,.T.);
#460=EDGE_CURVE('',#621,#622,#724,.T.);
#461=EDGE_CURVE('',#589,#622,#725,.T.);
#462=EDGE_CURVE('',#588,#623,#726,.T.);
#463=EDGE_CURVE('',#620,#623,#727,.T.);
#464=EDGE_CURVE('',#624,#625,#728,.T.);
#465=EDGE_CURVE('',#626,#624,#729,.T.);
#466=EDGE_CURVE('',#627,#626,#730,.T.);
#467=EDGE_CURVE('',#625,#627,#731,.T.);
#468=EDGE_CURVE('',#628,#621,#732,.T.);
#469=EDGE_CURVE('',#628,#629,#733,.T.);
#470=EDGE_CURVE('',#629,#622,#734,.T.);
#471=EDGE_CURVE('',#630,#631,#735,.T.);
#472=EDGE_CURVE('',#631,#632,#38,.T.);
#473=EDGE_CURVE('',#632,#633,#736,.T.);
#474=EDGE_CURVE('',#633,#634,#39,.T.);
#475=EDGE_CURVE('',#634,#635,#737,.T.);
#476=EDGE_CURVE('',#635,#636,#40,.T.);
#477=EDGE_CURVE('',#636,#637,#738,.T.);
#478=EDGE_CURVE('',#637,#638,#41,.T.);
#479=EDGE_CURVE('',#638,#639,#739,.T.);
#480=EDGE_CURVE('',#640,#639,#740,.T.);
#481=EDGE_CURVE('',#641,#640,#741,.T.);
#482=EDGE_CURVE('',#641,#615,#742,.T.);
#483=EDGE_CURVE('',#642,#617,#743,.T.);
#484=EDGE_CURVE('',#643,#642,#744,.T.);
#485=EDGE_CURVE('',#643,#612,#745,.T.);
#486=EDGE_CURVE('',#644,#610,#746,.T.);
#487=EDGE_CURVE('',#645,#644,#747,.T.);
#488=EDGE_CURVE('',#645,#630,#748,.T.);
#489=EDGE_CURVE('',#636,#646,#749,.F.);
#490=EDGE_CURVE('',#646,#647,#750,.T.);
#491=EDGE_CURVE('',#647,#637,#751,.T.);
#492=EDGE_CURVE('',#646,#625,#18,.F.);
#493=EDGE_CURVE('',#627,#647,#19,.T.);
#494=EDGE_CURVE('',#648,#649,#752,.T.);
#495=EDGE_CURVE('',#649,#631,#753,.T.);
#496=EDGE_CURVE('',#650,#630,#754,.T.);
#497=EDGE_CURVE('',#651,#650,#755,.T.);
#498=EDGE_CURVE('',#651,#639,#756,.T.);
#499=EDGE_CURVE('',#638,#648,#757,.F.);
#500=EDGE_CURVE('',#626,#649,#20,.T.);
#501=EDGE_CURVE('',#648,#627,#21,.F.);
#502=EDGE_CURVE('',#634,#652,#758,.F.);
#503=EDGE_CURVE('',#652,#653,#759,.T.);
#504=EDGE_CURVE('',#653,#635,#760,.T.);
#505=EDGE_CURVE('',#652,#624,#22,.F.);
#506=EDGE_CURVE('',#625,#653,#23,.T.);
#507=EDGE_CURVE('',#619,#618,#761,.F.);
#508=EDGE_CURVE('',#632,#654,#762,.F.);
#509=EDGE_CURVE('',#654,#655,#763,.T.);
#510=EDGE_CURVE('',#655,#633,#764,.T.);
#511=EDGE_CURVE('',#654,#626,#24,.F.);
#512=EDGE_CURVE('',#624,#655,#25,.T.);
#513=EDGE_CURVE('',#656,#657,#42,.T.);
#514=EDGE_CURVE('',#658,#656,#765,.T.);
#515=EDGE_CURVE('',#658,#650,#766,.T.);
#516=EDGE_CURVE('',#657,#645,#767,.T.);
#517=EDGE_CURVE('',#659,#660,#768,.T.);
#518=EDGE_CURVE('',#660,#661,#43,.T.);
#519=EDGE_CURVE('',#661,#640,#769,.T.);
#520=EDGE_CURVE('',#659,#651,#770,.T.);
#521=EDGE_CURVE('',#662,#663,#771,.T.);
#522=EDGE_CURVE('',#664,#663,#772,.T.);
#523=EDGE_CURVE('',#600,#664,#773,.T.);
#524=EDGE_CURVE('',#665,#601,#774,.T.);
#525=EDGE_CURVE('',#665,#666,#775,.T.);
#526=EDGE_CURVE('',#666,#667,#776,.T.);
#527=EDGE_CURVE('',#659,#667,#777,.T.);
#528=EDGE_CURVE('',#662,#658,#778,.T.);
#529=EDGE_CURVE('',#668,#669,#779,.T.);
#530=EDGE_CURVE('',#668,#629,#780,.T.);
#531=EDGE_CURVE('',#669,#628,#781,.T.);
#532=EDGE_CURVE('',#670,#582,#782,.T.);
#533=EDGE_CURVE('',#670,#669,#783,.T.);
#534=EDGE_CURVE('',#671,#668,#784,.T.);
#535=EDGE_CURVE('',#671,#583,#785,.T.);
#536=EDGE_CURVE('',#620,#672,#786,.T.);
#537=EDGE_CURVE('',#672,#586,#787,.T.);
#538=EDGE_CURVE('',#673,#587,#788,.T.);
#539=EDGE_CURVE('',#623,#673,#789,.T.);
#540=EDGE_CURVE('',#672,#673,#790,.T.);
#541=EDGE_CURVE('',#670,#671,#791,.T.);
#542=EDGE_CURVE('',#674,#602,#44,.T.);
#543=EDGE_CURVE('',#660,#674,#792,.T.);
#544=EDGE_CURVE('',#604,#667,#793,.T.);
#545=EDGE_CURVE('',#675,#675,#45,.T.);
#546=EDGE_CURVE('',#663,#610,#794,.T.);
#547=EDGE_CURVE('',#662,#676,#795,.T.);
#548=EDGE_CURVE('',#676,#677,#46,.F.);
#549=EDGE_CURVE('',#677,#644,#796,.T.);
#550=EDGE_CURVE('',#677,#657,#797,.T.);
#551=EDGE_CURVE('',#678,#674,#28,.T.);
#552=EDGE_CURVE('',#661,#678,#798,.T.);
#553=EDGE_CURVE('',#603,#678,#47,.T.);
#554=EDGE_CURVE('',#641,#605,#799,.T.);
#555=EDGE_CURVE('',#676,#656,#800,.T.);
#556=EDGE_CURVE('',#615,#666,#801,.T.);
#557=EDGE_CURVE('',#643,#679,#802,.T.);
#558=EDGE_CURVE('',#679,#680,#48,.F.);
#559=EDGE_CURVE('',#680,#681,#803,.T.);
#560=EDGE_CURVE('',#681,#682,#804,.T.);
#561=EDGE_CURVE('',#682,#612,#805,.T.);
#562=EDGE_CURVE('',#683,#606,#49,.T.);
#563=EDGE_CURVE('',#679,#683,#806,.T.);
#564=EDGE_CURVE('',#608,#642,#807,.T.);
#565=EDGE_CURVE('',#684,#684,#50,.T.);
#566=EDGE_CURVE('',#682,#685,#808,.T.);
#567=EDGE_CURVE('',#617,#685,#809,.T.);
#568=EDGE_CURVE('',#686,#683,#29,.T.);
#569=EDGE_CURVE('',#680,#686,#810,.T.);
#570=EDGE_CURVE('',#681,#687,#811,.T.);
#571=EDGE_CURVE('',#685,#687,#812,.T.);
#572=EDGE_CURVE('',#607,#686,#51,.T.);
#573=EDGE_CURVE('',#687,#609,#813,.T.);
#574=EDGE_CURVE('',#649,#654,#52,.T.);
#575=EDGE_CURVE('',#655,#652,#53,.T.);
#576=EDGE_CURVE('',#653,#646,#54,.T.);
#577=EDGE_CURVE('',#647,#648,#55,.T.);
#578=EDGE_CURVE('',#688,#688,#56,.T.);
#579=EDGE_CURVE('',#665,#596,#814,.T.);
#580=EDGE_CURVE('',#664,#591,#815,.T.);
#581=EDGE_CURVE('',#689,#689,#57,.T.);
#582=VERTEX_POINT('',#1623);
#583=VERTEX_POINT('',#1624);
#584=VERTEX_POINT('',#1626);
#585=VERTEX_POINT('',#1628);
#586=VERTEX_POINT('',#1630);
#587=VERTEX_POINT('',#1632);
#588=VERTEX_POINT('',#1634);
#589=VERTEX_POINT('',#1636);
#590=VERTEX_POINT('',#1639);
#591=VERTEX_POINT('',#1640);
#592=VERTEX_POINT('',#1642);
#593=VERTEX_POINT('',#1644);
#594=VERTEX_POINT('',#1646);
#595=VERTEX_POINT('',#1648);
#596=VERTEX_POINT('',#1650);
#597=VERTEX_POINT('',#1652);
#598=VERTEX_POINT('',#1656);
#599=VERTEX_POINT('',#1658);
#600=VERTEX_POINT('',#1662);
#601=VERTEX_POINT('',#1663);
#602=VERTEX_POINT('',#1672);
#603=VERTEX_POINT('',#1673);
#604=VERTEX_POINT('',#1675);
#605=VERTEX_POINT('',#1677);
#606=VERTEX_POINT('',#1685);
#607=VERTEX_POINT('',#1686);
#608=VERTEX_POINT('',#1688);
#609=VERTEX_POINT('',#1690);
#610=VERTEX_POINT('',#1694);
#611=VERTEX_POINT('',#1695);
#612=VERTEX_POINT('',#1697);
#613=VERTEX_POINT('',#1699);
#614=VERTEX_POINT('',#1703);
#615=VERTEX_POINT('',#1704);
#616=VERTEX_POINT('',#1706);
#617=VERTEX_POINT('',#1708);
#618=VERTEX_POINT('',#1713);
#619=VERTEX_POINT('',#1718);
#620=VERTEX_POINT('',#1722);
#621=VERTEX_POINT('',#1724);
#622=VERTEX_POINT('',#1726);
#623=VERTEX_POINT('',#1729);
#624=VERTEX_POINT('',#1733);
#625=VERTEX_POINT('',#1734);
#626=VERTEX_POINT('',#1736);
#627=VERTEX_POINT('',#1738);
#628=VERTEX_POINT('',#1741);
#629=VERTEX_POINT('',#1743);
#630=VERTEX_POINT('',#1747);
#631=VERTEX_POINT('',#1748);
#632=VERTEX_POINT('',#1750);
#633=VERTEX_POINT('',#1752);
#634=VERTEX_POINT('',#1754);
#635=VERTEX_POINT('',#1756);
#636=VERTEX_POINT('',#1758);
#637=VERTEX_POINT('',#1760);
#638=VERTEX_POINT('',#1762);
#639=VERTEX_POINT('',#1764);
#640=VERTEX_POINT('',#1766);
#641=VERTEX_POINT('',#1768);
#642=VERTEX_POINT('',#1771);
#643=VERTEX_POINT('',#1773);
#644=VERTEX_POINT('',#1776);
#645=VERTEX_POINT('',#1778);
#646=VERTEX_POINT('',#1782);
#647=VERTEX_POINT('',#1784);
#648=VERTEX_POINT('',#1791);
#649=VERTEX_POINT('',#1792);
#650=VERTEX_POINT('',#1795);
#651=VERTEX_POINT('',#1797);
#652=VERTEX_POINT('',#1805);
#653=VERTEX_POINT('',#1807);
#654=VERTEX_POINT('',#1816);
#655=VERTEX_POINT('',#1818);
#656=VERTEX_POINT('',#1825);
#657=VERTEX_POINT('',#1826);
#658=VERTEX_POINT('',#1828);
#659=VERTEX_POINT('',#1833);
#660=VERTEX_POINT('',#1834);
#661=VERTEX_POINT('',#1836);
#662=VERTEX_POINT('',#1841);
#663=VERTEX_POINT('',#1842);
#664=VERTEX_POINT('',#1844);
#665=VERTEX_POINT('',#1847);
#666=VERTEX_POINT('',#1849);
#667=VERTEX_POINT('',#1851);
#668=VERTEX_POINT('',#1856);
#669=VERTEX_POINT('',#1857);
#670=VERTEX_POINT('',#1862);
#671=VERTEX_POINT('',#1866);
#672=VERTEX_POINT('',#1870);
#673=VERTEX_POINT('',#1874);
#674=VERTEX_POINT('',#1884);
#675=VERTEX_POINT('',#1889);
#676=VERTEX_POINT('',#1892);
#677=VERTEX_POINT('',#1894);
#678=VERTEX_POINT('',#1904);
#679=VERTEX_POINT('',#1916);
#680=VERTEX_POINT('',#1918);
#681=VERTEX_POINT('',#1920);
#682=VERTEX_POINT('',#1922);
#683=VERTEX_POINT('',#1926);
#684=VERTEX_POINT('',#1931);
#685=VERTEX_POINT('',#1933);
#686=VERTEX_POINT('',#1941);
#687=VERTEX_POINT('',#1945);
#688=VERTEX_POINT('',#2046);
#689=VERTEX_POINT('',#2054);
#690=LINE('',#1622,#816);
#691=LINE('',#1625,#817);
#692=LINE('',#1627,#818);
#693=LINE('',#1629,#819);
#694=LINE('',#1631,#820);
#695=LINE('',#1633,#821);
#696=LINE('',#1635,#822);
#697=LINE('',#1637,#823);
#698=LINE('',#1638,#824);
#699=LINE('',#1641,#825);
#700=LINE('',#1643,#826);
#701=LINE('',#1645,#827);
#702=LINE('',#1647,#828);
#703=LINE('',#1649,#829);
#704=LINE('',#1651,#830);
#705=LINE('',#1653,#831);
#706=LINE('',#1659,#832);
#707=LINE('',#1661,#833);
#708=LINE('',#1664,#834);
#709=LINE('',#1665,#835);
#710=LINE('',#1674,#836);
#711=LINE('',#1678,#837);
#712=LINE('',#1687,#838);
#713=LINE('',#1691,#839);
#714=LINE('',#1693,#840);
#715=LINE('',#1696,#841);
#716=LINE('',#1698,#842);
#717=LINE('',#1700,#843);
#718=LINE('',#1702,#844);
#719=LINE('',#1705,#845);
#720=LINE('',#1707,#846);
#721=LINE('',#1709,#847);
#722=LINE('',#1721,#848);
#723=LINE('',#1723,#849);
#724=LINE('',#1725,#850);
#725=LINE('',#1727,#851);
#726=LINE('',#1728,#852);
#727=LINE('',#1730,#853);
#728=LINE('',#1732,#854);
#729=LINE('',#1735,#855);
#730=LINE('',#1737,#856);
#731=LINE('',#1739,#857);
#732=LINE('',#1740,#858);
#733=LINE('',#1742,#859);
#734=LINE('',#1744,#860);
#735=LINE('',#1746,#861);
#736=LINE('',#1751,#862);
#737=LINE('',#1755,#863);
#738=LINE('',#1759,#864);
#739=LINE('',#1763,#865);
#740=LINE('',#1765,#866);
#741=LINE('',#1767,#867);
#742=LINE('',#1769,#868);
#743=LINE('',#1770,#869);
#744=LINE('',#1772,#870);
#745=LINE('',#1774,#871);
#746=LINE('',#1775,#872);
#747=LINE('',#1777,#873);
#748=LINE('',#1779,#874);
#749=LINE('',#1781,#875);
#750=LINE('',#1783,#876);
#751=LINE('',#1785,#877);
#752=LINE('',#1790,#878);
#753=LINE('',#1793,#879);
#754=LINE('',#1794,#880);
#755=LINE('',#1796,#881);
#756=LINE('',#1798,#882);
#757=LINE('',#1799,#883);
#758=LINE('',#1804,#884);
#759=LINE('',#1806,#885);
#760=LINE('',#1808,#886);
#761=LINE('',#1813,#887);
#762=LINE('',#1815,#888);
#763=LINE('',#1817,#889);
#764=LINE('',#1819,#890);
#765=LINE('',#1827,#891);
#766=LINE('',#1829,#892);
#767=LINE('',#1830,#893);
#768=LINE('',#1832,#894);
#769=LINE('',#1837,#895);
#770=LINE('',#1838,#896);
#771=LINE('',#1840,#897);
#772=LINE('',#1843,#898);
#773=LINE('',#1845,#899);
#774=LINE('',#1846,#900);
#775=LINE('',#1848,#901);
#776=LINE('',#1850,#902);
#777=LINE('',#1852,#903);
#778=LINE('',#1853,#904);
#779=LINE('',#1855,#905);
#780=LINE('',#1858,#906);
#781=LINE('',#1859,#907);
#782=LINE('',#1861,#908);
#783=LINE('',#1863,#909);
#784=LINE('',#1865,#910);
#785=LINE('',#1867,#911);
#786=LINE('',#1869,#912);
#787=LINE('',#1871,#913);
#788=LINE('',#1873,#914);
#789=LINE('',#1875,#915);
#790=LINE('',#1877,#916);
#791=LINE('',#1880,#917);
#792=LINE('',#1885,#918);
#793=LINE('',#1886,#919);
#794=LINE('',#1890,#920);
#795=LINE('',#1891,#921);
#796=LINE('',#1895,#922);
#797=LINE('',#1897,#923);
#798=LINE('',#1905,#924);
#799=LINE('',#1908,#925);
#800=LINE('',#1910,#926);
#801=LINE('',#1913,#927);
#802=LINE('',#1915,#928);
#803=LINE('',#1919,#929);
#804=LINE('',#1921,#930);
#805=LINE('',#1923,#931);
#806=LINE('',#1927,#932);
#807=LINE('',#1928,#933);
#808=LINE('',#1932,#934);
#809=LINE('',#1934,#935);
#810=LINE('',#1942,#936);
#811=LINE('',#1944,#937);
#812=LINE('',#1946,#938);
#813=LINE('',#1949,#939);
#814=LINE('',#2048,#940);
#815=LINE('',#2051,#941);
#816=VECTOR('',#1302,1.);
#817=VECTOR('',#1303,1.);
#818=VECTOR('',#1304,1.);
#819=VECTOR('',#1305,1.);
#820=VECTOR('',#1306,1.);
#821=VECTOR('',#1307,1.);
#822=VECTOR('',#1308,1.);
#823=VECTOR('',#1309,1.);
#824=VECTOR('',#1310,1.);
#825=VECTOR('',#1311,1.);
#826=VECTOR('',#1312,1.);
#827=VECTOR('',#1313,1.);
#828=VECTOR('',#1314,1.);
#829=VECTOR('',#1315,1.);
#830=VECTOR('',#1316,1.);
#831=VECTOR('',#1317,1.);
#832=VECTOR('',#1324,1.);
#833=VECTOR('',#1327,1.);
#834=VECTOR('',#1328,1.);
#835=VECTOR('',#1329,1.);
#836=VECTOR('',#1332,1.);
#837=VECTOR('',#1335,1.);
#838=VECTOR('',#1338,1.);
#839=VECTOR('',#1341,1.);
#840=VECTOR('',#1344,1.);
#841=VECTOR('',#1345,1.);
#842=VECTOR('',#1346,1.);
#843=VECTOR('',#1347,1.);
#844=VECTOR('',#1350,1.);
#845=VECTOR('',#1351,1.);
#846=VECTOR('',#1352,1.);
#847=VECTOR('',#1353,1.);
#848=VECTOR('',#1372,1.);
#849=VECTOR('',#1373,1.);
#850=VECTOR('',#1374,1.);
#851=VECTOR('',#1375,1.);
#852=VECTOR('',#1376,1.);
#853=VECTOR('',#1377,1.);
#854=VECTOR('',#1380,1.);
#855=VECTOR('',#1381,1.);
#856=VECTOR('',#1382,1.);
#857=VECTOR('',#1383,1.);
#858=VECTOR('',#1384,1.);
#859=VECTOR('',#1385,1.);
#860=VECTOR('',#1386,1.);
#861=VECTOR('',#1389,1.);
#862=VECTOR('',#1392,1.);
#863=VECTOR('',#1395,1.);
#864=VECTOR('',#1398,1.);
#865=VECTOR('',#1401,1.);
#866=VECTOR('',#1402,1.);
#867=VECTOR('',#1403,1.);
#868=VECTOR('',#1404,1.);
#869=VECTOR('',#1405,1.);
#870=VECTOR('',#1406,1.);
#871=VECTOR('',#1407,1.);
#872=VECTOR('',#1408,1.);
#873=VECTOR('',#1409,1.);
#874=VECTOR('',#1410,1.);
#875=VECTOR('',#1413,1.);
#876=VECTOR('',#1414,1.);
#877=VECTOR('',#1415,1.);
#878=VECTOR('',#1424,1.);
#879=VECTOR('',#1425,1.);
#880=VECTOR('',#1426,1.);
#881=VECTOR('',#1427,1.);
#882=VECTOR('',#1428,1.);
#883=VECTOR('',#1429,1.);
#884=VECTOR('',#1438,1.);
#885=VECTOR('',#1439,1.);
#886=VECTOR('',#1440,1.);
#887=VECTOR('',#1449,1.);
#888=VECTOR('',#1452,1.);
#889=VECTOR('',#1453,1.);
#890=VECTOR('',#1454,1.);
#891=VECTOR('',#1465,1.);
#892=VECTOR('',#1466,1.);
#893=VECTOR('',#1467,1.);
#894=VECTOR('',#1470,1.);
#895=VECTOR('',#1473,1.);
#896=VECTOR('',#1474,1.);
#897=VECTOR('',#1477,1.);
#898=VECTOR('',#1478,1.);
#899=VECTOR('',#1479,1.);
#900=VECTOR('',#1480,1.);
#901=VECTOR('',#1481,1.);
#902=VECTOR('',#1482,1.);
#903=VECTOR('',#1483,1.);
#904=VECTOR('',#1484,1.);
#905=VECTOR('',#1487,1.);
#906=VECTOR('',#1488,1.);
#907=VECTOR('',#1489,1.);
#908=VECTOR('',#1492,1.);
#909=VECTOR('',#1493,1.);
#910=VECTOR('',#1496,1.);
#911=VECTOR('',#1497,1.);
#912=VECTOR('',#1500,1.);
#913=VECTOR('',#1501,1.);
#914=VECTOR('',#1504,1.);
#915=VECTOR('',#1505,1.);
#916=VECTOR('',#1508,1.);
#917=VECTOR('',#1513,1.);
#918=VECTOR('',#1520,1.);
#919=VECTOR('',#1521,1.);
#920=VECTOR('',#1526,1.);
#921=VECTOR('',#1527,1.);
#922=VECTOR('',#1530,1.);
#923=VECTOR('',#1533,1.);
#924=VECTOR('',#1536,1.);
#925=VECTOR('',#1541,1.);
#926=VECTOR('',#1544,1.);
#927=VECTOR('',#1549,1.);
#928=VECTOR('',#1552,1.);
#929=VECTOR('',#1555,1.);
#930=VECTOR('',#1556,1.);
#931=VECTOR('',#1557,1.);
#932=VECTOR('',#1562,1.);
#933=VECTOR('',#1563,1.);
#934=VECTOR('',#1568,1.);
#935=VECTOR('',#1569,1.);
#936=VECTOR('',#1572,1.);
#937=VECTOR('',#1575,1.);
#938=VECTOR('',#1576,1.);
#939=VECTOR('',#1581,1.);
#940=VECTOR('',#1608,1.);
#941=VECTOR('',#1613,1.);
#942=EDGE_LOOP('',(#78,#79,#80,#81,#82,#83,#84,#85));
#943=EDGE_LOOP('',(#86,#87,#88,#89,#90,#91,#92,#93));
#944=EDGE_LOOP('',(#94,#95,#96,#97));
#945=EDGE_LOOP('',(#98,#99,#100,#101));
#946=EDGE_LOOP('',(#102,#103,#104,#105));
#947=EDGE_LOOP('',(#106,#107,#108,#109));
#948=EDGE_LOOP('',(#110,#111,#112,#113));
#949=EDGE_LOOP('',(#114,#115,#116,#117));
#950=EDGE_LOOP('',(#118,#119,#120,#121,#122));
#951=EDGE_LOOP('',(#123,#124,#125,#126,#127));
#952=EDGE_LOOP('',(#128,#129,#130,#131,#132,#133,#134,#135));
#953=EDGE_LOOP('',(#136,#137,#138,#139));
#954=EDGE_LOOP('',(#140,#141,#142,#143));
#955=EDGE_LOOP('',(#144,#145,#146,#147,#148,#149,#150,#151,#152,#153,#154,
#155,#156,#157,#158,#159,#160,#161,#162,#163));
#956=EDGE_LOOP('',(#164,#165,#166,#167));
#957=EDGE_LOOP('',(#168,#169,#170,#171));
#958=EDGE_LOOP('',(#172,#173,#174,#175,#176,#177,#178,#179));
#959=EDGE_LOOP('',(#180,#181,#182,#183));
#960=EDGE_LOOP('',(#184,#185,#186,#187));
#961=EDGE_LOOP('',(#188,#189,#190,#191));
#962=EDGE_LOOP('',(#192,#193,#194,#195));
#963=EDGE_LOOP('',(#196,#197,#198,#199));
#964=EDGE_LOOP('',(#200,#201,#202,#203));
#965=EDGE_LOOP('',(#204,#205,#206,#207,#208,#209));
#966=EDGE_LOOP('',(#210,#211,#212,#213,#214,#215));
#967=EDGE_LOOP('',(#216,#217,#218,#219,#220,#221,#222,#223,#224,#225,#226,
#227));
#968=EDGE_LOOP('',(#228,#229,#230,#231));
#969=EDGE_LOOP('',(#232,#233,#234,#235,#236,#237));
#970=EDGE_LOOP('',(#238,#239,#240,#241,#242,#243));
#971=EDGE_LOOP('',(#244,#245,#246,#247));
#972=EDGE_LOOP('',(#248,#249,#250,#251));
#973=EDGE_LOOP('',(#252,#253,#254,#255));
#974=EDGE_LOOP('',(#256,#257,#258,#259));
#975=EDGE_LOOP('',(#260,#261,#262,#263));
#976=EDGE_LOOP('',(#264,#265,#266,#267));
#977=EDGE_LOOP('',(#268,#269,#270,#271,#272,#273));
#978=EDGE_LOOP('',(#274));
#979=EDGE_LOOP('',(#275,#276,#277,#278,#279,#280));
#980=EDGE_LOOP('',(#281,#282,#283,#284));
#981=EDGE_LOOP('',(#285,#286,#287,#288));
#982=EDGE_LOOP('',(#289,#290,#291,#292,#293,#294));
#983=EDGE_LOOP('',(#295,#296,#297,#298));
#984=EDGE_LOOP('',(#299,#300,#301,#302));
#985=EDGE_LOOP('',(#303,#304,#305,#306,#307,#308));
#986=EDGE_LOOP('',(#309,#310,#311,#312,#313,#314));
#987=EDGE_LOOP('',(#315,#316,#317,#318,#319,#320));
#988=EDGE_LOOP('',(#321));
#989=EDGE_LOOP('',(#322,#323,#324,#325,#326,#327,#328,#329));
#990=EDGE_LOOP('',(#330,#331,#332,#333));
#991=EDGE_LOOP('',(#334,#335,#336,#337));
#992=EDGE_LOOP('',(#338,#339,#340,#341,#342,#343));
#993=EDGE_LOOP('',(#344,#345,#346,#347,#348,#349));
#994=EDGE_LOOP('',(#350,#351,#352));
#995=EDGE_LOOP('',(#353,#354,#355,#356));
#996=EDGE_LOOP('',(#357,#358,#359));
#997=EDGE_LOOP('',(#360,#361,#362,#363));
#998=EDGE_LOOP('',(#364,#365,#366));
#999=EDGE_LOOP('',(#367,#368,#369,#370));
#1000=EDGE_LOOP('',(#371,#372,#373));
#1001=EDGE_LOOP('',(#374,#375,#376,#377));
#1002=EDGE_LOOP('',(#378));
#1003=EDGE_LOOP('',(#379,#380,#381,#382));
#1004=EDGE_LOOP('',(#383,#384,#385,#386));
#1005=EDGE_LOOP('',(#387));
#1006=EDGE_LOOP('',(#388,#389,#390,#391,#392));
#1007=EDGE_LOOP('',(#393,#394,#395,#396,#397,#398));
#1008=EDGE_LOOP('',(#399));
#1009=EDGE_LOOP('',(#400,#401,#402,#403,#404,#405));
#1010=EDGE_LOOP('',(#406));
#1011=EDGE_LOOP('',(#407,#408,#409,#410,#411));
#1012=EDGE_LOOP('',(#412));
#1013=EDGE_LOOP('',(#413));
#1014=FACE_BOUND('',#942,.T.);
#1015=FACE_BOUND('',#943,.T.);
#1016=FACE_BOUND('',#944,.T.);
#1017=FACE_BOUND('',#945,.T.);
#1018=FACE_BOUND('',#946,.T.);
#1019=FACE_BOUND('',#947,.T.);
#1020=FACE_BOUND('',#948,.T.);
#1021=FACE_BOUND('',#949,.T.);
#1022=FACE_BOUND('',#950,.T.);
#1023=FACE_BOUND('',#951,.T.);
#1024=FACE_BOUND('',#952,.T.);
#1025=FACE_BOUND('',#953,.T.);
#1026=FACE_BOUND('',#954,.T.);
#1027=FACE_BOUND('',#955,.T.);
#1028=FACE_BOUND('',#956,.T.);
#1029=FACE_BOUND('',#957,.T.);
#1030=FACE_BOUND('',#958,.T.);
#1031=FACE_BOUND('',#959,.T.);
#1032=FACE_BOUND('',#960,.T.);
#1033=FACE_BOUND('',#961,.T.);
#1034=FACE_BOUND('',#962,.T.);
#1035=FACE_BOUND('',#963,.T.);
#1036=FACE_BOUND('',#964,.T.);
#1037=FACE_BOUND('',#965,.T.);
#1038=FACE_BOUND('',#966,.T.);
#1039=FACE_BOUND('',#967,.T.);
#1040=FACE_BOUND('',#968,.T.);
#1041=FACE_BOUND('',#969,.T.);
#1042=FACE_BOUND('',#970,.T.);
#1043=FACE_BOUND('',#971,.T.);
#1044=FACE_BOUND('',#972,.T.);
#1045=FACE_BOUND('',#973,.T.);
#1046=FACE_BOUND('',#974,.T.);
#1047=FACE_BOUND('',#975,.T.);
#1048=FACE_BOUND('',#976,.T.);
#1049=FACE_BOUND('',#977,.T.);
#1050=FACE_BOUND('',#978,.T.);
#1051=FACE_BOUND('',#979,.T.);
#1052=FACE_BOUND('',#980,.T.);
#1053=FACE_BOUND('',#981,.T.);
#1054=FACE_BOUND('',#982,.T.);
#1055=FACE_BOUND('',#983,.T.);
#1056=FACE_BOUND('',#984,.T.);
#1057=FACE_BOUND('',#985,.T.);
#1058=FACE_BOUND('',#986,.T.);
#1059=FACE_BOUND('',#987,.T.);
#1060=FACE_BOUND('',#988,.T.);
#1061=FACE_BOUND('',#989,.T.);
#1062=FACE_BOUND('',#990,.T.);
#1063=FACE_BOUND('',#991,.T.);
#1064=FACE_BOUND('',#992,.T.);
#1065=FACE_BOUND('',#993,.T.);
#1066=FACE_BOUND('',#994,.T.);
#1067=FACE_BOUND('',#995,.T.);
#1068=FACE_BOUND('',#996,.T.);
#1069=FACE_BOUND('',#997,.T.);
#1070=FACE_BOUND('',#998,.T.);
#1071=FACE_BOUND('',#999,.T.);
#1072=FACE_BOUND('',#1000,.T.);
#1073=FACE_BOUND('',#1001,.T.);
#1074=FACE_BOUND('',#1002,.T.);
#1075=FACE_BOUND('',#1003,.T.);
#1076=FACE_BOUND('',#1004,.T.);
#1077=FACE_BOUND('',#1005,.T.);
#1078=FACE_BOUND('',#1006,.T.);
#1079=FACE_BOUND('',#1007,.T.);
#1080=FACE_BOUND('',#1008,.T.);
#1081=FACE_BOUND('',#1009,.T.);
#1082=FACE_BOUND('',#1010,.T.);
#1083=FACE_BOUND('',#1011,.T.);
#1084=FACE_BOUND('',#1012,.T.);
#1085=FACE_BOUND('',#1013,.T.);
#1086=PLANE('',#1201);
#1087=PLANE('',#1205);
#1088=PLANE('',#1210);
#1089=PLANE('',#1211);
#1090=PLANE('',#1220);
#1091=PLANE('',#1221);
#1092=PLANE('',#1222);
#1093=PLANE('',#1227);
#1094=PLANE('',#1231);
#1095=PLANE('',#1235);
#1096=PLANE('',#1240);
#1097=PLANE('',#1244);
#1098=PLANE('',#1246);
#1099=PLANE('',#1248);
#1100=PLANE('',#1249);
#1101=PLANE('',#1250);
#1102=PLANE('',#1251);
#1103=PLANE('',#1252);
#1104=PLANE('',#1253);
#1105=PLANE('',#1254);
#1106=PLANE('',#1255);
#1107=PLANE('',#1256);
#1108=PLANE('',#1257);
#1109=PLANE('',#1258);
#1110=PLANE('',#1260);
#1111=PLANE('',#1263);
#1112=PLANE('',#1265);
#1113=PLANE('',#1268);
#1114=PLANE('',#1269);
#1115=PLANE('',#1270);
#1116=PLANE('',#1272);
#1117=PLANE('',#1274);
#1118=PLANE('',#1277);
#1119=PLANE('',#1278);
#1120=PLANE('',#1280);
#1121=PLANE('',#1292);
#1122=PLANE('',#1293);
#1123=PLANE('',#1294);
#1124=PLANE('',#1295);
#1125=ADVANCED_FACE('',(#1014,#1015),#1086,.T.);
#1126=ADVANCED_FACE('',(#1016),#58,.F.);
#1127=ADVANCED_FACE('',(#1017),#1087,.F.);
#1128=ADVANCED_FACE('',(#1018),#59,.T.);
#1129=ADVANCED_FACE('',(#1019),#60,.T.);
#1130=ADVANCED_FACE('',(#1020),#1088,.T.);
#1131=ADVANCED_FACE('',(#1021),#1089,.T.);
#1132=ADVANCED_FACE('',(#1022),#61,.F.);
#1133=ADVANCED_FACE('',(#1023),#62,.F.);
#1134=ADVANCED_FACE('',(#1024),#1090,.F.);
#1135=ADVANCED_FACE('',(#1025,#1026),#1091,.T.);
#1136=ADVANCED_FACE('',(#1027),#1092,.T.);
#1137=ADVANCED_FACE('',(#1028),#1093,.T.);
#1138=ADVANCED_FACE('',(#1029),#63,.T.);
#1139=ADVANCED_FACE('',(#1030),#1094,.T.);
#1140=ADVANCED_FACE('',(#1031),#64,.T.);
#1141=ADVANCED_FACE('',(#1032),#1095,.T.);
#1142=ADVANCED_FACE('',(#1033),#65,.T.);
#1143=ADVANCED_FACE('',(#1034),#66,.F.);
#1144=ADVANCED_FACE('',(#1035),#1096,.T.);
#1145=ADVANCED_FACE('',(#1036),#67,.T.);
#1146=ADVANCED_FACE('',(#1037),#1097,.T.);
#1147=ADVANCED_FACE('',(#1038),#1098,.F.);
#1148=ADVANCED_FACE('',(#1039),#1099,.T.);
#1149=ADVANCED_FACE('',(#1040),#1100,.T.);
#1150=ADVANCED_FACE('',(#1041),#1101,.F.);
#1151=ADVANCED_FACE('',(#1042),#1102,.T.);
#1152=ADVANCED_FACE('',(#1043),#1103,.T.);
#1153=ADVANCED_FACE('',(#1044),#1104,.F.);
#1154=ADVANCED_FACE('',(#1045),#1105,.T.);
#1155=ADVANCED_FACE('',(#1046),#1106,.T.);
#1156=ADVANCED_FACE('',(#1047),#1107,.F.);
#1157=ADVANCED_FACE('',(#1048),#1108,.T.);
#1158=ADVANCED_FACE('',(#1049),#1109,.T.);
#1159=ADVANCED_FACE('',(#1050,#1051),#1110,.F.);
#1160=ADVANCED_FACE('',(#1052),#1111,.T.);
#1161=ADVANCED_FACE('',(#1053),#68,.T.);
#1162=ADVANCED_FACE('',(#1054),#1112,.T.);
#1163=ADVANCED_FACE('',(#1055),#69,.T.);
#1164=ADVANCED_FACE('',(#1056),#1113,.T.);
#1165=ADVANCED_FACE('',(#1057),#1114,.F.);
#1166=ADVANCED_FACE('',(#1058),#1115,.F.);
#1167=ADVANCED_FACE('',(#1059),#1116,.T.);
#1168=ADVANCED_FACE('',(#1060,#1061),#1117,.T.);
#1169=ADVANCED_FACE('',(#1062),#70,.T.);
#1170=ADVANCED_FACE('',(#1063),#1118,.T.);
#1171=ADVANCED_FACE('',(#1064),#1119,.T.);
#1172=ADVANCED_FACE('',(#1065),#1120,.F.);
#1173=ADVANCED_FACE('',(#1066),#12,.T.);
#1174=ADVANCED_FACE('',(#1067),#71,.T.);
#1175=ADVANCED_FACE('',(#1068),#13,.T.);
#1176=ADVANCED_FACE('',(#1069),#72,.T.);
#1177=ADVANCED_FACE('',(#1070),#14,.T.);
#1178=ADVANCED_FACE('',(#1071),#73,.T.);
#1179=ADVANCED_FACE('',(#1072),#15,.T.);
#1180=ADVANCED_FACE('',(#1073),#74,.T.);
#1181=ADVANCED_FACE('',(#1074,#1075),#75,.F.);
#1182=ADVANCED_FACE('',(#1076,#1077),#76,.F.);
#1183=ADVANCED_FACE('',(#1078),#1121,.F.);
#1184=ADVANCED_FACE('',(#1079,#1080),#1122,.T.);
#1185=ADVANCED_FACE('',(#1081),#1123,.T.);
#1186=ADVANCED_FACE('',(#1082,#1083),#1124,.T.);
#1187=ADVANCED_FACE('',(#1084,#1085),#77,.F.);
#1188=CLOSED_SHELL('',(#1125,#1126,#1127,#1128,#1129,#1130,#1131,#1132,
#1133,#1134,#1135,#1136,#1137,#1138,#1139,#1140,#1141,#1142,#1143,#1144,
#1145,#1146,#1147,#1148,#1149,#1150,#1151,#1152,#1153,#1154,#1155,#1156,
#1157,#1158,#1159,#1160,#1161,#1162,#1163,#1164,#1165,#1166,#1167,#1168,
#1169,#1170,#1171,#1172,#1173,#1174,#1175,#1176,#1177,#1178,#1179,#1180,
#1181,#1182,#1183,#1184,#1185,#1186,#1187));
#1189=STYLED_ITEM('',(#1190),#1197);
#1190=PRESENTATION_STYLE_ASSIGNMENT((#1191));
#1191=SURFACE_STYLE_USAGE(.BOTH.,#1192);
#1192=SURFACE_SIDE_STYLE('',(#1193));
#1193=SURFACE_STYLE_FILL_AREA(#1194);
#1194=FILL_AREA_STYLE('',(#1195));
#1195=FILL_AREA_STYLE_COLOUR('',#1196);
#1196=COLOUR_RGB('',0.231372549019608,0.380392156862745,0.705882352941177);
#1197=MANIFOLD_SOLID_BREP('Top',#1188);
#1198=SHAPE_DEFINITION_REPRESENTATION(#2062,#1199);
#1199=SHAPE_REPRESENTATION('Top',(#1200),#2057);
#1200=AXIS2_PLACEMENT_3D('',#1620,#1298,#1299);
#1201=AXIS2_PLACEMENT_3D('',#1621,#1300,#1301);
#1202=AXIS2_PLACEMENT_3D('',#1654,#1318,#1319);
#1203=AXIS2_PLACEMENT_3D('',#1655,#1320,#1321);
#1204=AXIS2_PLACEMENT_3D('',#1657,#1322,#1323);
#1205=AXIS2_PLACEMENT_3D('',#1660,#1325,#1326);
#1206=AXIS2_PLACEMENT_3D('',#1666,#1330,#1331);
#1207=AXIS2_PLACEMENT_3D('',#1676,#1333,#1334);
#1208=AXIS2_PLACEMENT_3D('',#1679,#1336,#1337);
#1209=AXIS2_PLACEMENT_3D('',#1689,#1339,#1340);
#1210=AXIS2_PLACEMENT_3D('',#1692,#1342,#1343);
#1211=AXIS2_PLACEMENT_3D('',#1701,#1348,#1349);
#1212=AXIS2_PLACEMENT_3D('',#1710,#1354,#1355);
#1213=AXIS2_PLACEMENT_3D('',#1711,#1356,#1357);
#1214=AXIS2_PLACEMENT_3D('',#1712,#1358,#1359);
#1215=AXIS2_PLACEMENT_3D('',#1714,#1360,#1361);
#1216=AXIS2_PLACEMENT_3D('',#1715,#1362,#1363);
#1217=AXIS2_PLACEMENT_3D('',#1716,#1364,#1365);
#1218=AXIS2_PLACEMENT_3D('',#1717,#1366,#1367);
#1219=AXIS2_PLACEMENT_3D('',#1719,#1368,#1369);
#1220=AXIS2_PLACEMENT_3D('',#1720,#1370,#1371);
#1221=AXIS2_PLACEMENT_3D('',#1731,#1378,#1379);
#1222=AXIS2_PLACEMENT_3D('',#1745,#1387,#1388);
#1223=AXIS2_PLACEMENT_3D('',#1749,#1390,#1391);
#1224=AXIS2_PLACEMENT_3D('',#1753,#1393,#1394);
#1225=AXIS2_PLACEMENT_3D('',#1757,#1396,#1397);
#1226=AXIS2_PLACEMENT_3D('',#1761,#1399,#1400);
#1227=AXIS2_PLACEMENT_3D('',#1780,#1411,#1412);
#1228=AXIS2_PLACEMENT_3D('',#1786,#1416,#1417);
#1229=AXIS2_PLACEMENT_3D('',#1787,#1418,#1419);
#1230=AXIS2_PLACEMENT_3D('',#1788,#1420,#1421);
#1231=AXIS2_PLACEMENT_3D('',#1789,#1422,#1423);
#1232=AXIS2_PLACEMENT_3D('',#1800,#1430,#1431);
#1233=AXIS2_PLACEMENT_3D('',#1801,#1432,#1433);
#1234=AXIS2_PLACEMENT_3D('',#1802,#1434,#1435);
#1235=AXIS2_PLACEMENT_3D('',#1803,#1436,#1437);
#1236=AXIS2_PLACEMENT_3D('',#1809,#1441,#1442);
#1237=AXIS2_PLACEMENT_3D('',#1810,#1443,#1444);
#1238=AXIS2_PLACEMENT_3D('',#1811,#1445,#1446);
#1239=AXIS2_PLACEMENT_3D('',#1812,#1447,#1448);
#1240=AXIS2_PLACEMENT_3D('',#1814,#1450,#1451);
#1241=AXIS2_PLACEMENT_3D('',#1820,#1455,#1456);
#1242=AXIS2_PLACEMENT_3D('',#1821,#1457,#1458);
#1243=AXIS2_PLACEMENT_3D('',#1822,#1459,#1460);
#1244=AXIS2_PLACEMENT_3D('',#1823,#1461,#1462);
#1245=AXIS2_PLACEMENT_3D('',#1824,#1463,#1464);
#1246=AXIS2_PLACEMENT_3D('',#1831,#1468,#1469);
#1247=AXIS2_PLACEMENT_3D('',#1835,#1471,#1472);
#1248=AXIS2_PLACEMENT_3D('',#1839,#1475,#1476);
#1249=AXIS2_PLACEMENT_3D('',#1854,#1485,#1486);
#1250=AXIS2_PLACEMENT_3D('',#1860,#1490,#1491);
#1251=AXIS2_PLACEMENT_3D('',#1864,#1494,#1495);
#1252=AXIS2_PLACEMENT_3D('',#1868,#1498,#1499);
#1253=AXIS2_PLACEMENT_3D('',#1872,#1502,#1503);
#1254=AXIS2_PLACEMENT_3D('',#1876,#1506,#1507);
#1255=AXIS2_PLACEMENT_3D('',#1878,#1509,#1510);
#1256=AXIS2_PLACEMENT_3D('',#1879,#1511,#1512);
#1257=AXIS2_PLACEMENT_3D('',#1881,#1514,#1515);
#1258=AXIS2_PLACEMENT_3D('',#1882,#1516,#1517);
#1259=AXIS2_PLACEMENT_3D('',#1883,#1518,#1519);
#1260=AXIS2_PLACEMENT_3D('',#1887,#1522,#1523);
#1261=AXIS2_PLACEMENT_3D('',#1888,#1524,#1525);
#1262=AXIS2_PLACEMENT_3D('',#1893,#1528,#1529);
#1263=AXIS2_PLACEMENT_3D('',#1896,#1531,#1532);
#1264=AXIS2_PLACEMENT_3D('',#1898,#1534,#1535);
#1265=AXIS2_PLACEMENT_3D('',#1906,#1537,#1538);
#1266=AXIS2_PLACEMENT_3D('',#1907,#1539,#1540);
#1267=AXIS2_PLACEMENT_3D('',#1909,#1542,#1543);
#1268=AXIS2_PLACEMENT_3D('',#1911,#1545,#1546);
#1269=AXIS2_PLACEMENT_3D('',#1912,#1547,#1548);
#1270=AXIS2_PLACEMENT_3D('',#1914,#1550,#1551);
#1271=AXIS2_PLACEMENT_3D('',#1917,#1553,#1554);
#1272=AXIS2_PLACEMENT_3D('',#1924,#1558,#1559);
#1273=AXIS2_PLACEMENT_3D('',#1925,#1560,#1561);
#1274=AXIS2_PLACEMENT_3D('',#1929,#1564,#1565);
#1275=AXIS2_PLACEMENT_3D('',#1930,#1566,#1567);
#1276=AXIS2_PLACEMENT_3D('',#1935,#1570,#1571);
#1277=AXIS2_PLACEMENT_3D('',#1943,#1573,#1574);
#1278=AXIS2_PLACEMENT_3D('',#1947,#1577,#1578);
#1279=AXIS2_PLACEMENT_3D('',#1948,#1579,#1580);
#1280=AXIS2_PLACEMENT_3D('',#1950,#1582,#1583);
#1281=AXIS2_PLACEMENT_3D('',#1972,#1584,#1585);
#1282=AXIS2_PLACEMENT_3D('',#1973,#1586,#1587);
#1283=AXIS2_PLACEMENT_3D('',#1995,#1588,#1589);
#1284=AXIS2_PLACEMENT_3D('',#1996,#1590,#1591);
#1285=AXIS2_PLACEMENT_3D('',#2018,#1592,#1593);
#1286=AXIS2_PLACEMENT_3D('',#2019,#1594,#1595);
#1287=AXIS2_PLACEMENT_3D('',#2041,#1596,#1597);
#1288=AXIS2_PLACEMENT_3D('',#2042,#1598,#1599);
#1289=AXIS2_PLACEMENT_3D('',#2043,#1600,#1601);
#1290=AXIS2_PLACEMENT_3D('',#2044,#1602,#1603);
#1291=AXIS2_PLACEMENT_3D('',#2045,#1604,#1605);
#1292=AXIS2_PLACEMENT_3D('',#2047,#1606,#1607);
#1293=AXIS2_PLACEMENT_3D('',#2049,#1609,#1610);
#1294=AXIS2_PLACEMENT_3D('',#2050,#1611,#1612);
#1295=AXIS2_PLACEMENT_3D('',#2052,#1614,#1615);
#1296=AXIS2_PLACEMENT_3D('',#2053,#1616,#1617);
#1297=AXIS2_PLACEMENT_3D('',#2055,#1618,#1619);
#1298=DIRECTION('',(0.,0.,1.));
#1299=DIRECTION('',(1.,0.,0.));
#1300=DIRECTION('',(0.,0.,-1.));
#1301=DIRECTION('',(-1.,0.,0.));
#1302=DIRECTION('',(1.,0.,0.));
#1303=DIRECTION('',(0.,1.,0.));
#1304=DIRECTION('',(-1.,0.,0.));
#1305=DIRECTION('',(-1.73362916055418E-16,-1.,0.));
#1306=DIRECTION('',(1.,0.,0.));
#1307=DIRECTION('',(0.,-1.,0.));
#1308=DIRECTION('',(-1.,0.,0.));
#1309=DIRECTION('',(0.,1.,0.));
#1310=DIRECTION('',(1.,0.,0.));
#1311=DIRECTION('',(0.,1.,0.));
#1312=DIRECTION('',(1.,0.,0.));
#1313=DIRECTION('',(6.12323399573677E-17,-1.,0.));
#1314=DIRECTION('',(-1.,0.,0.));
#1315=DIRECTION('',(0.,-1.,0.));
#1316=DIRECTION('',(-1.,0.,0.));
#1317=DIRECTION('',(-1.22464679914735E-16,1.,0.));
#1318=DIRECTION('',(-1.22464679914735E-16,1.,0.));
#1319=DIRECTION('',(-1.,-1.22464679914735E-16,0.));
#1320=DIRECTION('',(0.,-1.,0.));
#1321=DIRECTION('',(0.,0.,-1.));
#1322=DIRECTION('',(0.,-1.,0.));
#1323=DIRECTION('',(0.,0.,-1.));
#1324=DIRECTION('',(-1.22464679914735E-16,1.,0.));
#1325=DIRECTION('',(-1.,0.,-3.61400724161835E-16));
#1326=DIRECTION('',(-3.61400724161835E-16,0.,1.));
#1327=DIRECTION('',(0.,-1.,0.));
#1328=DIRECTION('',(-3.61400724161835E-16,0.,1.));
#1329=DIRECTION('',(-3.61400724161835E-16,0.,1.));
#1330=DIRECTION('',(0.,-1.,0.));
#1331=DIRECTION('',(0.,0.,-1.));
#1332=DIRECTION('',(0.,-1.,0.));
#1333=DIRECTION('',(0.,1.,0.));
#1334=DIRECTION('',(0.,0.,1.));
#1335=DIRECTION('',(0.,-1.,0.));
#1336=DIRECTION('',(0.,-1.,0.));
#1337=DIRECTION('',(0.,0.,-1.));
#1338=DIRECTION('',(0.,-1.,0.));
#1339=DIRECTION('',(0.,1.,0.));
#1340=DIRECTION('',(0.,0.,1.));
#1341=DIRECTION('',(0.,-1.,0.));
#1342=DIRECTION('',(0.,-1.,0.));
#1343=DIRECTION('',(0.,0.,-1.));
#1344=DIRECTION('',(0.,0.,1.));
#1345=DIRECTION('',(1.,0.,0.));
#1346=DIRECTION('',(0.,0.,1.));
#1347=DIRECTION('',(1.,0.,0.));
#1348=DIRECTION('',(0.,1.,0.));
#1349=DIRECTION('',(0.,0.,1.));
#1350=DIRECTION('',(3.61400724161835E-16,0.,-1.));
#1351=DIRECTION('',(-1.,0.,0.));
#1352=DIRECTION('',(0.,0.,-1.));
#1353=DIRECTION('',(-1.,0.,0.));
#1354=DIRECTION('',(1.,0.,0.));
#1355=DIRECTION('',(0.,0.,-1.));
#1356=DIRECTION('',(1.,0.,0.));
#1357=DIRECTION('',(0.,0.,-1.));
#1358=DIRECTION('',(-1.,0.,0.));
#1359=DIRECTION('',(0.,0.,1.));
#1360=DIRECTION('',(0.707106781186548,-0.707106781186548,0.));
#1361=DIRECTION('',(-0.707106781186548,-0.707106781186548,0.));
#1362=DIRECTION('',(-1.,0.,0.));
#1363=DIRECTION('',(0.,0.,1.));
#1364=DIRECTION('',(1.,0.,3.61400724161835E-16));
#1365=DIRECTION('',(3.61400724161835E-16,0.,-1.));
#1366=DIRECTION('',(-0.707106781186547,-0.707106781186548,0.));
#1367=DIRECTION('',(-0.707106781186548,0.707106781186548,0.));
#1368=DIRECTION('',(-1.,0.,0.));
#1369=DIRECTION('',(0.,0.,1.));
#1370=DIRECTION('',(0.,-1.,0.));
#1371=DIRECTION('',(0.,0.,-1.));
#1372=DIRECTION('',(0.,0.,1.));
#1373=DIRECTION('',(0.,0.,1.));
#1374=DIRECTION('',(1.,0.,0.));
#1375=DIRECTION('',(0.,0.,1.));
#1376=DIRECTION('',(0.,0.,1.));
#1377=DIRECTION('',(1.,0.,0.));
#1378=DIRECTION('',(0.,0.,1.));
#1379=DIRECTION('',(1.,0.,0.));
#1380=DIRECTION('',(6.12323399573677E-17,-1.,0.));
#1381=DIRECTION('',(1.,0.,0.));
#1382=DIRECTION('',(-1.22464679914735E-16,1.,0.));
#1383=DIRECTION('',(-1.,0.,0.));
#1384=DIRECTION('',(0.,-1.,0.));
#1385=DIRECTION('',(1.,0.,0.));
#1386=DIRECTION('',(0.,-1.,0.));
#1387=DIRECTION('',(0.,0.,-1.));
#1388=DIRECTION('',(-1.,0.,0.));
#1389=DIRECTION('',(-1.22464679914735E-16,1.,0.));
#1390=DIRECTION('',(0.,0.,-1.));
#1391=DIRECTION('',(-1.,0.,0.));
#1392=DIRECTION('',(1.,0.,0.));
#1393=DIRECTION('',(0.,0.,-1.));
#1394=DIRECTION('',(-1.,0.,0.));
#1395=DIRECTION('',(6.12323399573677E-17,-1.,0.));
#1396=DIRECTION('',(0.,0.,-1.));
#1397=DIRECTION('',(-1.,0.,0.));
#1398=DIRECTION('',(-1.,0.,0.));
#1399=DIRECTION('',(0.,0.,-1.));
#1400=DIRECTION('',(-1.,0.,0.));
#1401=DIRECTION('',(-1.22464679914735E-16,1.,0.));
#1402=DIRECTION('',(-1.,0.,0.));
#1403=DIRECTION('',(-1.22464679914735E-16,1.,0.));
#1404=DIRECTION('',(1.,0.,0.));
#1405=DIRECTION('',(-1.,0.,0.));
#1406=DIRECTION('',(6.12323399573677E-17,-1.,0.));
#1407=DIRECTION('',(-1.,0.,0.));
#1408=DIRECTION('',(1.,0.,0.));
#1409=DIRECTION('',(-1.22464679914735E-16,1.,0.));
#1410=DIRECTION('',(-1.,0.,0.));
#1411=DIRECTION('',(0.,-1.,0.));
#1412=DIRECTION('',(0.,0.,-1.));
#1413=DIRECTION('',(0.,0.,-1.));
#1414=DIRECTION('',(-1.,0.,0.));
#1415=DIRECTION('',(0.,0.,-1.));
#1416=DIRECTION('',(-1.,0.,0.));
#1417=DIRECTION('',(0.,0.,1.));
#1418=DIRECTION('',(0.928476690885259,0.371390676354103,0.));
#1419=DIRECTION('',(0.371390676354103,-0.928476690885259,0.));
#1420=DIRECTION('',(0.928476690885259,-0.371390676354103,0.));
#1421=DIRECTION('',(-0.371390676354103,-0.928476690885259,0.));
#1422=DIRECTION('',(-1.,-1.22464679914735E-16,0.));
#1423=DIRECTION('',(1.22464679914735E-16,-1.,0.));
#1424=DIRECTION('',(-1.22464679914735E-16,1.,0.));
#1425=DIRECTION('',(0.,0.,-1.));
#1426=DIRECTION('',(0.,0.,1.));
#1427=DIRECTION('',(-1.22464679914735E-16,1.,0.));
#1428=DIRECTION('',(0.,0.,1.));
#1429=DIRECTION('',(0.,0.,-1.));
#1430=DIRECTION('',(-1.22464679914735E-16,1.,0.));
#1431=DIRECTION('',(-1.,-1.22464679914735E-16,0.));
#1432=DIRECTION('',(-0.371390676354107,-0.928476690885258,0.));
#1433=DIRECTION('',(-0.928476690885258,0.371390676354107,0.));
#1434=DIRECTION('',(0.371390676354104,-0.928476690885259,0.));
#1435=DIRECTION('',(-0.928476690885259,-0.371390676354104,0.));
#1436=DIRECTION('',(1.,6.12323399573677E-17,0.));
#1437=DIRECTION('',(-6.12323399573677E-17,1.,0.));
#1438=DIRECTION('',(0.,0.,-1.));
#1439=DIRECTION('',(6.12323399573677E-17,-1.,0.));
#1440=DIRECTION('',(0.,0.,-1.));
#1441=DIRECTION('',(6.12323399573677E-17,-1.,0.));
#1442=DIRECTION('',(1.,6.12323399573677E-17,0.));
#1443=DIRECTION('',(-0.371390676354103,0.928476690885259,0.));
#1444=DIRECTION('',(0.928476690885259,0.371390676354103,0.));
#1445=DIRECTION('',(0.371390676354105,0.928476690885259,0.));
#1446=DIRECTION('',(0.928476690885259,-0.371390676354105,0.));
#1447=DIRECTION('',(6.12323399573677E-17,-1.,0.));
#1448=DIRECTION('',(1.,6.12323399573677E-17,0.));
#1449=DIRECTION('',(6.12323399573677E-17,-1.,0.));
#1450=DIRECTION('',(0.,1.,0.));
#1451=DIRECTION('',(0.,0.,1.));
#1452=DIRECTION('',(0.,0.,-1.));
#1453=DIRECTION('',(1.,0.,0.));
#1454=DIRECTION('',(0.,0.,-1.));
#1455=DIRECTION('',(1.,0.,0.));
#1456=DIRECTION('',(0.,0.,-1.));
#1457=DIRECTION('',(-0.928476690885259,-0.371390676354103,0.));
#1458=DIRECTION('',(-0.371390676354103,0.928476690885259,0.));
#1459=DIRECTION('',(-0.928476690885259,0.371390676354103,0.));
#1460=DIRECTION('',(0.371390676354103,0.928476690885259,0.));
#1461=DIRECTION('',(0.,1.,0.));
#1462=DIRECTION('',(0.,0.,1.));
#1463=DIRECTION('',(0.,1.,0.));
#1464=DIRECTION('',(0.,0.,1.));
#1465=DIRECTION('',(0.,0.,1.));
#1466=DIRECTION('',(-1.,0.,0.));
#1467=DIRECTION('',(0.,0.,1.));
#1468=DIRECTION('',(0.,1.,0.));
#1469=DIRECTION('',(0.,0.,1.));
#1470=DIRECTION('',(0.,0.,1.));
#1471=DIRECTION('',(0.,1.,0.));
#1472=DIRECTION('',(0.,0.,1.));
#1473=DIRECTION('',(0.,0.,1.));
#1474=DIRECTION('',(-1.,0.,0.));
#1475=DIRECTION('',(0.,0.,-1.));
#1476=DIRECTION('',(1.,0.,0.));
#1477=DIRECTION('',(1.,0.,0.));
#1478=DIRECTION('',(0.,1.,0.));
#1479=DIRECTION('',(1.,0.,0.));
#1480=DIRECTION('',(-1.,0.,-3.61400724161835E-16));
#1481=DIRECTION('',(0.,-1.,0.));
#1482=DIRECTION('',(-1.,0.,0.));
#1483=DIRECTION('',(0.,-1.,0.));
#1484=DIRECTION('',(0.,-1.,0.));
#1485=DIRECTION('',(0.,-1.,0.));
#1486=DIRECTION('',(0.,0.,-1.));
#1487=DIRECTION('',(-1.,0.,0.));
#1488=DIRECTION('',(0.,0.,1.));
#1489=DIRECTION('',(0.,0.,1.));
#1490=DIRECTION('',(-1.,0.,0.));
#1491=DIRECTION('',(0.,0.,1.));
#1492=DIRECTION('',(0.,0.,-1.));
#1493=DIRECTION('',(-2.49476697383784E-16,-1.,0.));
#1494=DIRECTION('',(-1.,0.,0.));
#1495=DIRECTION('',(0.,0.,1.));
#1496=DIRECTION('',(0.,-1.,0.));
#1497=DIRECTION('',(0.,0.,-1.));
#1498=DIRECTION('',(1.,-1.73362916055418E-16,0.));
#1499=DIRECTION('',(1.73362916055418E-16,1.,0.));
#1500=DIRECTION('',(-1.73362916055418E-16,-1.,0.));
#1501=DIRECTION('',(0.,0.,-1.));
#1502=DIRECTION('',(1.,0.,0.));
#1503=DIRECTION('',(0.,0.,-1.));
#1504=DIRECTION('',(0.,0.,-1.));
#1505=DIRECTION('',(0.,-1.,0.));
#1506=DIRECTION('',(0.,0.,-1.));
#1507=DIRECTION('',(1.,0.,0.));
#1508=DIRECTION('',(1.,0.,0.));
#1509=DIRECTION('',(0.,1.,0.));
#1510=DIRECTION('',(0.,0.,1.));
#1511=DIRECTION('',(0.,1.,0.));
#1512=DIRECTION('',(0.,0.,1.));
#1513=DIRECTION('',(1.,0.,0.));
#1514=DIRECTION('',(0.,0.,-1.));
#1515=DIRECTION('',(1.,0.,0.));
#1516=DIRECTION('',(-1.,0.,0.));
#1517=DIRECTION('',(0.,0.,1.));
#1518=DIRECTION('',(-1.,0.,0.));
#1519=DIRECTION('',(0.,0.,1.));
#1520=DIRECTION('',(0.,-1.,0.));
#1521=DIRECTION('',(0.,0.,-1.));
#1522=DIRECTION('',(0.,-1.,0.));
#1523=DIRECTION('',(0.,0.,-1.));
#1524=DIRECTION('',(0.,-1.,0.));
#1525=DIRECTION('',(0.,0.,-1.));
#1526=DIRECTION('',(0.,0.,1.));
#1527=DIRECTION('',(0.,0.,1.));
#1528=DIRECTION('',(0.,-1.,0.));
#1529=DIRECTION('',(0.,0.,-1.));
#1530=DIRECTION('',(0.,0.,1.));
#1531=DIRECTION('',(-1.,0.,0.));
#1532=DIRECTION('',(0.,0.,1.));
#1533=DIRECTION('',(0.,-1.,0.));
#1534=DIRECTION('',(0.,-1.,0.));
#1535=DIRECTION('',(0.,0.,-1.));
#1536=DIRECTION('',(0.,-1.,0.));
#1537=DIRECTION('',(-1.,0.,0.));
#1538=DIRECTION('',(0.,0.,1.));
#1539=DIRECTION('',(-1.,0.,0.));
#1540=DIRECTION('',(0.,0.,1.));
#1541=DIRECTION('',(0.,0.,-1.));
#1542=DIRECTION('',(0.,-1.,0.));
#1543=DIRECTION('',(0.,0.,-1.));
#1544=DIRECTION('',(0.,-1.,0.));
#1545=DIRECTION('',(-1.,0.,0.));
#1546=DIRECTION('',(0.,0.,1.));
#1547=DIRECTION('',(0.,1.,0.));
#1548=DIRECTION('',(0.,0.,1.));
#1549=DIRECTION('',(3.61400724161835E-16,0.,-1.));
#1550=DIRECTION('',(0.,-1.,0.));
#1551=DIRECTION('',(0.,0.,-1.));
#1552=DIRECTION('',(0.,0.,-1.));
#1553=DIRECTION('',(0.,-1.,0.));
#1554=DIRECTION('',(0.,0.,-1.));
#1555=DIRECTION('',(0.,0.,-1.));
#1556=DIRECTION('',(-1.,0.,0.));
#1557=DIRECTION('',(0.,0.,1.));
#1558=DIRECTION('',(1.,0.,0.));
#1559=DIRECTION('',(0.,0.,-1.));
#1560=DIRECTION('',(1.,0.,0.));
#1561=DIRECTION('',(0.,0.,-1.));
#1562=DIRECTION('',(0.,-1.,0.));
#1563=DIRECTION('',(0.,0.,1.));
#1564=DIRECTION('',(-1.,0.,0.));
#1565=DIRECTION('',(0.,0.,1.));
#1566=DIRECTION('',(-1.,0.,0.));
#1567=DIRECTION('',(0.,0.,1.));
#1568=DIRECTION('',(0.,-1.,0.));
#1569=DIRECTION('',(0.,0.,-1.));
#1570=DIRECTION('',(0.,-1.,0.));
#1571=DIRECTION('',(0.,0.,-1.));
#1572=DIRECTION('',(0.,-1.,0.));
#1573=DIRECTION('',(0.,0.,-1.));
#1574=DIRECTION('',(-1.,0.,0.));
#1575=DIRECTION('',(0.,-1.,0.));
#1576=DIRECTION('',(1.,0.,0.));
#1577=DIRECTION('',(1.,0.,0.));
#1578=DIRECTION('',(0.,0.,-1.));
#1579=DIRECTION('',(1.,0.,0.));
#1580=DIRECTION('',(0.,0.,-1.));
#1581=DIRECTION('',(0.,0.,1.));
#1582=DIRECTION('',(0.,1.,0.));
#1583=DIRECTION('',(0.,0.,1.));
#1584=DIRECTION('',(0.,0.,-1.));
#1585=DIRECTION('',(-1.,0.,0.));
#1586=DIRECTION('',(0.,0.,-1.));
#1587=DIRECTION('',(-1.,0.,0.));
#1588=DIRECTION('',(0.,0.,-1.));
#1589=DIRECTION('',(-1.,0.,0.));
#1590=DIRECTION('',(0.,0.,-1.));
#1591=DIRECTION('',(-1.,0.,0.));
#1592=DIRECTION('',(0.,0.,-1.));
#1593=DIRECTION('',(-1.,0.,0.));
#1594=DIRECTION('',(0.,0.,-1.));
#1595=DIRECTION('',(-1.,0.,0.));
#1596=DIRECTION('',(0.,0.,-1.));
#1597=DIRECTION('',(-1.,0.,0.));
#1598=DIRECTION('',(0.,0.,-1.));
#1599=DIRECTION('',(-1.,0.,0.));
#1600=DIRECTION('',(-1.,-1.22464679914735E-16,0.));
#1601=DIRECTION('',(1.22464679914735E-16,-1.,0.));
#1602=DIRECTION('',(-1.,-1.22464679914735E-16,0.));
#1603=DIRECTION('',(1.22464679914735E-16,-1.,0.));
#1604=DIRECTION('',(-1.,0.,-3.61400724161835E-16));
#1605=DIRECTION('',(-3.61400724161835E-16,0.,1.));
#1606=DIRECTION('',(0.,-1.,0.));
#1607=DIRECTION('',(0.,0.,-1.));
#1608=DIRECTION('',(-3.61400724161835E-16,0.,1.));
#1609=DIRECTION('',(1.,0.,3.61400724161835E-16));
#1610=DIRECTION('',(0.,1.,0.));
#1611=DIRECTION('',(1.,0.,0.));
#1612=DIRECTION('',(0.,0.,-1.));
#1613=DIRECTION('',(0.,0.,1.));
#1614=DIRECTION('',(0.,-1.,0.));
#1615=DIRECTION('',(0.,0.,-1.));
#1616=DIRECTION('',(0.,-1.,0.));
#1617=DIRECTION('',(0.,0.,-1.));
#1618=DIRECTION('',(0.,1.,0.));
#1619=DIRECTION('',(0.,0.,1.));
#1620=CARTESIAN_POINT('',(0.,0.,0.));
#1621=CARTESIAN_POINT('',(0.020496510062235,-0.0313625713612042,0.006210098999999));
#1622=CARTESIAN_POINT('',(0.00450908066704869,-0.0032758089307533,0.006210098999999));
#1623=CARTESIAN_POINT('',(-0.00823458563536405,-0.0032758089307533,0.006210098999999));
#1624=CARTESIAN_POINT('',(0.0172527469694614,-0.0032758089307533,0.006210098999999));
#1625=CARTESIAN_POINT('',(-0.00823458563536406,-0.0313625713612042,0.006210098999999));
#1626=CARTESIAN_POINT('',(-0.00823458563536406,-0.0246260375173224,0.00621009899999897));
#1627=CARTESIAN_POINT('',(0.020496510062235,-0.0246260375173224,0.006210098999999));
#1628=CARTESIAN_POINT('',(-0.000903496984392405,-0.0246260375173224,0.006210098999999));
#1629=CARTESIAN_POINT('',(-0.000903496984392405,-0.0268270289525389,0.006210098999999));
#1630=CARTESIAN_POINT('',(-0.000903496984392405,-0.0293286070227623,0.006210098999999));
#1631=CARTESIAN_POINT('',(0.00452511780895293,-0.0293286070227623,0.006210098999999));
#1632=CARTESIAN_POINT('',(0.00995373260229826,-0.0293286070227623,0.006210098999999));
#1633=CARTESIAN_POINT('',(0.00995373260229826,-0.0268270289525389,0.006210098999999));
#1634=CARTESIAN_POINT('',(0.00995373260229826,-0.0246260375173224,0.006210098999999));
#1635=CARTESIAN_POINT('',(0.020496510062235,-0.0246260375173224,0.006210098999999));
#1636=CARTESIAN_POINT('',(0.0172527469694614,-0.0246260375173224,0.00621009899999897));
#1637=CARTESIAN_POINT('',(0.0172527469694614,-0.0313625713612042,0.006210098999999));
#1638=CARTESIAN_POINT('',(-0.0108178348746151,0.027053413912654,0.006210098999999));
#1639=CARTESIAN_POINT('',(-0.01347848993776,0.0270534139126539,0.006210098999999));
#1640=CARTESIAN_POINT('',(-0.00783427292481071,0.027053413912654,0.006210098999999));
#1641=CARTESIAN_POINT('',(-0.00783427292481071,0.028273956956327,0.006210098999999));
#1642=CARTESIAN_POINT('',(-0.00783427292481071,0.0284945,0.006210098999999));
#1643=CARTESIAN_POINT('',(-0.01622848993776,0.0284945,0.006210098999999));
#1644=CARTESIAN_POINT('',(0.017746510062235,0.0284945,0.006210098999999));
#1645=CARTESIAN_POINT('',(0.017746510062235,0.0312445,0.006210098999999));
#1646=CARTESIAN_POINT('',(0.017746510062235,-0.0319955,0.006210098999999));
#1647=CARTESIAN_POINT('',(0.020496510062235,-0.0319955,0.006210098999999));
#1648=CARTESIAN_POINT('',(-0.01067848993776,-0.0319955,0.006210098999999));
#1649=CARTESIAN_POINT('',(-0.01067848993776,-0.0313625713612042,0.006210098999999));
#1650=CARTESIAN_POINT('',(-0.01067848993776,-0.0288929175585509,0.006210098999999));
#1651=CARTESIAN_POINT('',(0.020496510062235,-0.0288929175585509,0.006210098999999));
#1652=CARTESIAN_POINT('',(-0.01347848993776,-0.0288929175585509,0.006210098999999));
#1653=CARTESIAN_POINT('',(-0.01347848993776,-0.0347455,0.006210098999999));
#1654=CARTESIAN_POINT('',(-0.01347848993776,-0.0347455,0.005210098999999));
#1655=CARTESIAN_POINT('',(-0.01347848993776,0.027053413912654,0.005210098999999));
#1656=CARTESIAN_POINT('',(-0.01367848993776,0.0270534139126539,0.00618989489711227));
#1657=CARTESIAN_POINT('',(-0.01347848993776,-0.0288929175585509,0.005210098999999));
#1658=CARTESIAN_POINT('',(-0.01367848993776,-0.0288929175585509,0.00618989489711227));
#1659=CARTESIAN_POINT('',(-0.01367848993776,-0.0347455,0.00618989489711227));
#1660=CARTESIAN_POINT('',(-0.01367848993776,0.0294965,0.003810098999999));
#1661=CARTESIAN_POINT('',(-0.01367848993776,0.0294965,0.001410098999999));
#1662=CARTESIAN_POINT('',(-0.01367848993776,0.027053413912654,0.001410098999999));
#1663=CARTESIAN_POINT('',(-0.01367848993776,-0.0288929175585509,0.001410098999999));
#1664=CARTESIAN_POINT('',(-0.01367848993776,0.027053413912654,0.003810098999999));
#1665=CARTESIAN_POINT('',(-0.01367848993776,-0.0288929175585509,0.00382298523200653));
#1666=CARTESIAN_POINT('',(-0.01447848993776,0.0294965,0.002910098999999));
#1667=CARTESIAN_POINT('',(-0.01447848993776,-0.031444783956064,0.002610098999999));
#1668=CARTESIAN_POINT('',(-0.0146382278281357,-0.031444783956064,0.002610098999999));
#1669=CARTESIAN_POINT('',(-0.0149187193003379,-0.0315334200401863,0.00291205904203902));
#1670=CARTESIAN_POINT('',(-0.01463828691927,-0.0314217580547927,0.003210098999999));
#1671=CARTESIAN_POINT('',(-0.01447848993776,-0.0314217580547927,0.003210098999999));
#1672=CARTESIAN_POINT('',(-0.01447848993776,-0.031444783956064,0.002610098999999));
#1673=CARTESIAN_POINT('',(-0.01447848993776,-0.0314217580547927,0.003210098999999));
#1674=CARTESIAN_POINT('',(-0.01447848993776,0.0294965,0.002610098999999));
#1675=CARTESIAN_POINT('',(-0.01447848993776,-0.0329955,0.002610098999999));
#1676=CARTESIAN_POINT('',(-0.01447848993776,-0.0329955,0.002910098999999));
#1677=CARTESIAN_POINT('',(-0.01447848993776,-0.0329955,0.003210098999999));
#1678=CARTESIAN_POINT('',(-0.01447848993776,0.0294965,0.003210098999999));
#1679=CARTESIAN_POINT('',(0.018746510062235,0.0294965,0.002910098999999));
#1680=CARTESIAN_POINT('',(0.018746510062235,-0.0314217580547927,0.00321009899999901));
#1681=CARTESIAN_POINT('',(0.0189062750410946,-0.0314217580547927,0.00321009899999901));
#1682=CARTESIAN_POINT('',(0.0191867490981307,-0.0315333733577538,0.00291329752584895));
#1683=CARTESIAN_POINT('',(0.0189062499605169,-0.031444783956064,0.002610098999999));
#1684=CARTESIAN_POINT('',(0.018746510062235,-0.031444783956064,0.002610098999999));
#1685=CARTESIAN_POINT('',(0.018746510062235,-0.0314217580547927,0.00321009899999901));
#1686=CARTESIAN_POINT('',(0.018746510062235,-0.031444783956064,0.002610098999999));
#1687=CARTESIAN_POINT('',(0.018746510062235,0.0294965,0.00321009899999901));
#1688=CARTESIAN_POINT('',(0.018746510062235,-0.0329955,0.00321009899999901));
#1689=CARTESIAN_POINT('',(0.018746510062235,-0.0329955,0.002910098999999));
#1690=CARTESIAN_POINT('',(0.018746510062235,-0.0329955,0.002610098999999));
#1691=CARTESIAN_POINT('',(0.018746510062235,0.0294965,0.002610098999999));
#1692=CARTESIAN_POINT('',(-0.01622848993776,0.0294945,0.004810098999999));
#1693=CARTESIAN_POINT('',(-0.00783427292481071,0.0294945,0.001408098999999));
#1694=CARTESIAN_POINT('',(-0.00783427292481071,0.0294945,0.004410098999999));
#1695=CARTESIAN_POINT('',(-0.00783427292481071,0.0294945,0.005210098999999));
#1696=CARTESIAN_POINT('',(-0.01622848993776,0.0294945,0.004410098999999));
#1697=CARTESIAN_POINT('',(0.017946510062235,0.0294945,0.004410098999999));
#1698=CARTESIAN_POINT('',(0.017946510062235,0.0294945,0.003810098999999));
#1699=CARTESIAN_POINT('',(0.017946510062235,0.0294945,0.005210098999999));
#1700=CARTESIAN_POINT('',(-0.01622848993776,0.0294945,0.005210098999999));
#1701=CARTESIAN_POINT('',(0.020496510062235,-0.0329955,0.004810098999999));
#1702=CARTESIAN_POINT('',(-0.01067848993776,-0.0329955,0.003810098999999));
#1703=CARTESIAN_POINT('',(-0.01067848993776,-0.0329955,0.005210098999999));
#1704=CARTESIAN_POINT('',(-0.01067848993776,-0.0329955,0.004410098999999));
#1705=CARTESIAN_POINT('',(0.020496510062235,-0.0329955,0.005210098999999));
#1706=CARTESIAN_POINT('',(0.017946510062235,-0.0329955,0.005210098999999));
#1707=CARTESIAN_POINT('',(0.017946510062235,-0.0329955,0.003810098999999));
#1708=CARTESIAN_POINT('',(0.017946510062235,-0.0329955,0.004410098999999));
#1709=CARTESIAN_POINT('',(0.020496510062235,-0.0329955,0.004410098999999));
#1710=CARTESIAN_POINT('',(-0.01622848993776,0.0284945,0.005210098999999));
#1711=CARTESIAN_POINT('',(-0.00783427292481071,0.0284945,0.005210098999999));
#1712=CARTESIAN_POINT('',(0.017946510062235,0.0284945,0.005210098999999));
#1713=CARTESIAN_POINT('',(0.017946510062235,0.0286945,0.00618989489711227));
#1714=CARTESIAN_POINT('',(0.017746510062235,0.0284945,0.005210098999999));
#1715=CARTESIAN_POINT('',(0.020496510062235,-0.0319955,0.005210098999999));
#1716=CARTESIAN_POINT('',(-0.01067848993776,-0.0319955,0.005210098999999));
#1717=CARTESIAN_POINT('',(0.017746510062235,-0.0319955,0.005210098999999));
#1718=CARTESIAN_POINT('',(0.017946510062235,-0.0321955,0.00618989489711227));
#1719=CARTESIAN_POINT('',(0.017946510062235,-0.0319955,0.005210098999999));
#1720=CARTESIAN_POINT('',(0.00450908066704869,-0.0246260375173224,-0.0723365228563509));
#1721=CARTESIAN_POINT('',(-0.000903496984392405,-0.0246260375173224,-0.0723365228563509));
#1722=CARTESIAN_POINT('',(-0.000903496984392405,-0.0246260375173224,0.00751009899999899));
#1723=CARTESIAN_POINT('',(-0.00823458563536406,-0.0246260375173224,-0.0723365228563509));
#1724=CARTESIAN_POINT('',(-0.00823458563536406,-0.0246260375173224,0.007710098999999));
#1725=CARTESIAN_POINT('',(0.00450908066704869,-0.0246260375173224,0.007710098999999));
#1726=CARTESIAN_POINT('',(0.0172527469694614,-0.0246260375173224,0.007710098999999));
#1727=CARTESIAN_POINT('',(0.0172527469694614,-0.0246260375173224,-0.0723365228563509));
#1728=CARTESIAN_POINT('',(0.00995373260229826,-0.0246260375173224,-0.0723365228563509));
#1729=CARTESIAN_POINT('',(0.00995373260229826,-0.0246260375173224,0.007510098999999));
#1730=CARTESIAN_POINT('',(0.00450908066704869,-0.0246260375173224,0.00751009899999899));
#1731=CARTESIAN_POINT('',(0.020496510062235,-0.0313625713612042,0.007710098999999));
#1732=CARTESIAN_POINT('',(0.017746510062235,0.0312445,0.007710098999999));
#1733=CARTESIAN_POINT('',(0.017746510062235,0.0284945,0.007710098999999));
#1734=CARTESIAN_POINT('',(0.017746510062235,-0.0319955,0.007710098999999));
#1735=CARTESIAN_POINT('',(-0.01622848993776,0.0284945,0.007710098999999));
#1736=CARTESIAN_POINT('',(-0.01347848993776,0.0284945,0.007710098999999));
#1737=CARTESIAN_POINT('',(-0.01347848993776,-0.0347455,0.007710098999999));
#1738=CARTESIAN_POINT('',(-0.01347848993776,-0.0319955,0.007710098999999));
#1739=CARTESIAN_POINT('',(0.020496510062235,-0.0319955,0.007710098999999));
#1740=CARTESIAN_POINT('',(-0.00823458563536406,-0.0174276476920313,0.007710098999999));
#1741=CARTESIAN_POINT('',(-0.00823458563536406,-0.0102292578667402,0.007710098999999));
#1742=CARTESIAN_POINT('',(0.00450908066704869,-0.0102292578667402,0.007710098999999));
#1743=CARTESIAN_POINT('',(0.0172527469694614,-0.0102292578667402,0.007710098999999));
#1744=CARTESIAN_POINT('',(0.0172527469694614,-0.0174276476920313,0.007710098999999));
#1745=CARTESIAN_POINT('',(0.020496510062235,-0.0337455,0.004410098999999));
#1746=CARTESIAN_POINT('',(-0.01597848993776,-0.0347455,0.004410098999999));
#1747=CARTESIAN_POINT('',(-0.01597848993776,-0.0128864077851176,0.004410098999999));
#1748=CARTESIAN_POINT('',(-0.01597848993776,0.0294945,0.004410098999999));
#1749=CARTESIAN_POINT('',(-0.01447848993776,0.0294945,0.004410098999999));
#1750=CARTESIAN_POINT('',(-0.01447848993776,0.0309945,0.004410098999999));
#1751=CARTESIAN_POINT('',(-0.01622848993776,0.0309945,0.004410098999999));
#1752=CARTESIAN_POINT('',(0.018746510062235,0.0309945,0.004410098999999));
#1753=CARTESIAN_POINT('',(0.018746510062235,0.0294945,0.004410098999999));
#1754=CARTESIAN_POINT('',(0.020246510062235,0.0294945,0.004410098999999));
#1755=CARTESIAN_POINT('',(0.020246510062235,0.0312445,0.004410098999999));
#1756=CARTESIAN_POINT('',(0.020246510062235,-0.0329955,0.004410098999999));
#1757=CARTESIAN_POINT('',(0.018746510062235,-0.0329955,0.004410098999999));
#1758=CARTESIAN_POINT('',(0.018746510062235,-0.0344955,0.004410098999999));
#1759=CARTESIAN_POINT('',(0.020496510062235,-0.0344955,0.004410098999999));
#1760=CARTESIAN_POINT('',(-0.01447848993776,-0.0344955,0.004410098999999));
#1761=CARTESIAN_POINT('',(-0.01447848993776,-0.0329955,0.004410098999999));
#1762=CARTESIAN_POINT('',(-0.01597848993776,-0.0329955,0.004410098999999));
#1763=CARTESIAN_POINT('',(-0.01597848993776,-0.0347455,0.004410098999999));
#1764=CARTESIAN_POINT('',(-0.01597848993776,-0.0271586552262306,0.004410098999999));
#1765=CARTESIAN_POINT('',(-0.01522848993776,-0.0271586552262306,0.004410098999999));
#1766=CARTESIAN_POINT('',(-0.01447848993776,-0.0271586552262306,0.004410098999999));
#1767=CARTESIAN_POINT('',(-0.01447848993776,-0.0347455,0.004410098999999));
#1768=CARTESIAN_POINT('',(-0.01447848993776,-0.0329955,0.004410098999999));
#1769=CARTESIAN_POINT('',(0.020496510062235,-0.0329955,0.004410098999999));
#1770=CARTESIAN_POINT('',(0.020496510062235,-0.0329955,0.004410098999999));
#1771=CARTESIAN_POINT('',(0.018746510062235,-0.0329955,0.004410098999999));
#1772=CARTESIAN_POINT('',(0.018746510062235,0.0312445,0.004410098999999));
#1773=CARTESIAN_POINT('',(0.018746510062235,0.0294945,0.004410098999999));
#1774=CARTESIAN_POINT('',(0.020496510062235,0.0294945,0.004410098999999));
#1775=CARTESIAN_POINT('',(-0.01622848993776,0.0294945,0.004410098999999));
#1776=CARTESIAN_POINT('',(-0.01447848993776,0.0294945,0.004410098999999));
#1777=CARTESIAN_POINT('',(-0.01447848993776,-0.0347455,0.004410098999999));
#1778=CARTESIAN_POINT('',(-0.01447848993776,-0.0128864077851176,0.004410098999999));
#1779=CARTESIAN_POINT('',(-0.01522848993776,-0.0128864077851176,0.004410098999999));
#1780=CARTESIAN_POINT('',(0.020496510062235,-0.0344955,0.004810098999999));
#1781=CARTESIAN_POINT('',(0.018746510062235,-0.0344955,0.004810098999999));
#1782=CARTESIAN_POINT('',(0.018746510062235,-0.0344955,0.005210098999999));
#1783=CARTESIAN_POINT('',(0.020496510062235,-0.0344955,0.005210098999999));
#1784=CARTESIAN_POINT('',(-0.01447848993776,-0.0344955,0.005210098999999));
#1785=CARTESIAN_POINT('',(-0.01447848993776,-0.0344955,0.004810098999999));
#1786=CARTESIAN_POINT('',(0.020496510062235,-0.0319955,0.005210098999999));
#1787=CARTESIAN_POINT('',(0.017746510062235,-0.0319955,0.005210098999999));
#1788=CARTESIAN_POINT('',(-0.01347848993776,-0.0319955,0.005210098999999));
#1789=CARTESIAN_POINT('',(-0.01597848993776,-0.0347455,0.004810098999999));
#1790=CARTESIAN_POINT('',(-0.01597848993776,-0.0347455,0.005210098999999));
#1791=CARTESIAN_POINT('',(-0.01597848993776,-0.0329955,0.005210098999999));
#1792=CARTESIAN_POINT('',(-0.01597848993776,0.0294945,0.005210098999999));
#1793=CARTESIAN_POINT('',(-0.01597848993776,0.0294945,0.004810098999999));
#1794=CARTESIAN_POINT('',(-0.01597848993776,-0.0128864077851176,0.001410098999999));
#1795=CARTESIAN_POINT('',(-0.01597848993776,-0.0128864077851176,0.001410098999999));
#1796=CARTESIAN_POINT('',(-0.01597848993776,-0.0347455,0.001410098999999));
#1797=CARTESIAN_POINT('',(-0.01597848993776,-0.0271586552262306,0.001410098999999));
#1798=CARTESIAN_POINT('',(-0.01597848993776,-0.0271586552262306,0.001410098999999));
#1799=CARTESIAN_POINT('',(-0.01597848993776,-0.0329955,0.004810098999999));
#1800=CARTESIAN_POINT('',(-0.01347848993776,-0.0347455,0.005210098999999));
#1801=CARTESIAN_POINT('',(-0.01347848993776,0.0284945,0.005210098999999));
#1802=CARTESIAN_POINT('',(-0.01347848993776,-0.0319955,0.005210098999999));
#1803=CARTESIAN_POINT('',(0.020246510062235,0.0312445,0.004810098999999));
#1804=CARTESIAN_POINT('',(0.020246510062235,0.0294945,0.004810098999999));
#1805=CARTESIAN_POINT('',(0.020246510062235,0.0294945,0.005210098999999));
#1806=CARTESIAN_POINT('',(0.020246510062235,0.0312445,0.005210098999999));
#1807=CARTESIAN_POINT('',(0.020246510062235,-0.0329955,0.005210098999999));
#1808=CARTESIAN_POINT('',(0.020246510062235,-0.0329955,0.004810098999999));
#1809=CARTESIAN_POINT('',(0.017746510062235,0.0312445,0.005210098999999));
#1810=CARTESIAN_POINT('',(0.017746510062235,0.0284945,0.005210098999999));
#1811=CARTESIAN_POINT('',(0.017746510062235,-0.0319955,0.005210098999999));
#1812=CARTESIAN_POINT('',(0.017746510062235,0.0312445,0.005210098999999));
#1813=CARTESIAN_POINT('',(0.017946510062235,0.0312445,0.00618989489711227));
#1814=CARTESIAN_POINT('',(-0.01622848993776,0.0309945,0.004810098999999));
#1815=CARTESIAN_POINT('',(-0.01447848993776,0.0309945,0.004810098999999));
#1816=CARTESIAN_POINT('',(-0.01447848993776,0.0309945,0.005210098999999));
#1817=CARTESIAN_POINT('',(-0.01622848993776,0.0309945,0.005210098999999));
#1818=CARTESIAN_POINT('',(0.018746510062235,0.0309945,0.005210098999999));
#1819=CARTESIAN_POINT('',(0.018746510062235,0.0309945,0.004810098999999));
#1820=CARTESIAN_POINT('',(-0.01622848993776,0.0284945,0.005210098999999));
#1821=CARTESIAN_POINT('',(-0.01347848993776,0.0284945,0.005210098999999));
#1822=CARTESIAN_POINT('',(0.017746510062235,0.0284945,0.005210098999999));
#1823=CARTESIAN_POINT('',(-0.01522848993776,-0.0128864077851176,0.001410098999999));
#1824=CARTESIAN_POINT('',(-0.01447848993776,-0.0128864077851176,0.002910098999999));
#1825=CARTESIAN_POINT('',(-0.01447848993776,-0.0128864077851176,0.002610098999999));
#1826=CARTESIAN_POINT('',(-0.01447848993776,-0.0128864077851176,0.003210098999999));
#1827=CARTESIAN_POINT('',(-0.01447848993776,-0.0128864077851176,0.001410098999999));
#1828=CARTESIAN_POINT('',(-0.01447848993776,-0.0128864077851176,0.001410098999999));
#1829=CARTESIAN_POINT('',(-0.01522848993776,-0.0128864077851176,0.001410098999999));
#1830=CARTESIAN_POINT('',(-0.01447848993776,-0.0128864077851176,0.001410098999999));
#1831=CARTESIAN_POINT('',(-0.01522848993776,-0.0271586552262306,0.001410098999999));
#1832=CARTESIAN_POINT('',(-0.01447848993776,-0.0271586552262306,0.001410098999999));
#1833=CARTESIAN_POINT('',(-0.01447848993776,-0.0271586552262306,0.001410098999999));
#1834=CARTESIAN_POINT('',(-0.01447848993776,-0.0271586552262306,0.002610098999999));
#1835=CARTESIAN_POINT('',(-0.01447848993776,-0.0271586552262306,0.002910098999999));
#1836=CARTESIAN_POINT('',(-0.01447848993776,-0.0271586552262306,0.003210098999999));
#1837=CARTESIAN_POINT('',(-0.01447848993776,-0.0271586552262306,0.001410098999999));
#1838=CARTESIAN_POINT('',(-0.01522848993776,-0.0271586552262306,0.001410098999999));
#1839=CARTESIAN_POINT('',(0.0021340100622375,-0.0017505,0.001410098999999));
#1840=CARTESIAN_POINT('',(-0.01407848993776,0.0294945,0.001410098999999));
#1841=CARTESIAN_POINT('',(-0.01447848993776,0.0294945,0.001410098999999));
#1842=CARTESIAN_POINT('',(-0.00783427292481071,0.0294945,0.001410098999999));
#1843=CARTESIAN_POINT('',(-0.00783427292481071,0.028273956956327,0.001410098999999));
#1844=CARTESIAN_POINT('',(-0.00783427292481071,0.027053413912654,0.001410098999999));
#1845=CARTESIAN_POINT('',(-0.0108178348746151,0.027053413912654,0.001410098999999));
#1846=CARTESIAN_POINT('',(-0.01067848993776,-0.0288929175585509,0.001410098999999));
#1847=CARTESIAN_POINT('',(-0.01067848993776,-0.0288929175585509,0.001410098999999));
#1848=CARTESIAN_POINT('',(-0.01067848993776,0.0294965,0.001410098999999));
#1849=CARTESIAN_POINT('',(-0.01067848993776,-0.0329955,0.001410098999999));
#1850=CARTESIAN_POINT('',(-0.01407848993776,-0.0329955,0.001410098999999));
#1851=CARTESIAN_POINT('',(-0.01447848993776,-0.0329955,0.001410098999999));
#1852=CARTESIAN_POINT('',(-0.01447848993776,0.0294965,0.001410098999999));
#1853=CARTESIAN_POINT('',(-0.01447848993776,0.0294965,0.001410098999999));
#1854=CARTESIAN_POINT('',(0.00450908066704869,-0.0102292578667402,-0.0723365228563509));
#1855=CARTESIAN_POINT('',(0.020496510062235,-0.0102292578667402,0.007510098999999));
#1856=CARTESIAN_POINT('',(0.0172527469694614,-0.0102292578667402,0.007510098999999));
#1857=CARTESIAN_POINT('',(-0.00823458563536406,-0.0102292578667402,0.00751009899999897));
#1858=CARTESIAN_POINT('',(0.0172527469694614,-0.0102292578667402,-0.0723365228563509));
#1859=CARTESIAN_POINT('',(-0.00823458563536406,-0.0102292578667402,-0.0723365228563509));
#1860=CARTESIAN_POINT('',(-0.00823458563536406,-0.0174276476920313,-0.0723365228563509));
#1861=CARTESIAN_POINT('',(-0.00823458563536405,-0.0032758089307533,0.007510098999999));
#1862=CARTESIAN_POINT('',(-0.00823458563536405,-0.0032758089307533,0.007510098999999));
#1863=CARTESIAN_POINT('',(-0.00823458563536406,-0.00675253339874676,0.007510098999999));
#1864=CARTESIAN_POINT('',(0.0172527469694614,-0.0174276476920313,-0.0723365228563509));
#1865=CARTESIAN_POINT('',(0.0172527469694614,-0.00675253339874676,0.007510098999999));
#1866=CARTESIAN_POINT('',(0.0172527469694614,-0.0032758089307533,0.007510098999999));
#1867=CARTESIAN_POINT('',(0.0172527469694614,-0.0032758089307533,0.007510098999999));
#1868=CARTESIAN_POINT('',(-0.000903496984392405,-0.0268270289525389,0.007510098999999));
#1869=CARTESIAN_POINT('',(-0.000903496984392405,-0.0268270289525389,0.007510098999999));
#1870=CARTESIAN_POINT('',(-0.000903496984392405,-0.0293286070227623,0.007510098999999));
#1871=CARTESIAN_POINT('',(-0.000903496984392405,-0.0293286070227623,0.007510098999999));
#1872=CARTESIAN_POINT('',(0.00995373260229826,-0.0268270289525389,0.007510098999999));
#1873=CARTESIAN_POINT('',(0.00995373260229826,-0.0293286070227623,0.007510098999999));
#1874=CARTESIAN_POINT('',(0.00995373260229826,-0.0293286070227623,0.007510098999999));
#1875=CARTESIAN_POINT('',(0.00995373260229826,-0.0268270289525389,0.007510098999999));
#1876=CARTESIAN_POINT('',(0.0021340100622375,-0.0017505,0.007510098999999));
#1877=CARTESIAN_POINT('',(0.00452511780895293,-0.0293286070227623,0.007510098999999));
#1878=CARTESIAN_POINT('',(0.00452511780895293,-0.0293286070227623,0.007510098999999));
#1879=CARTESIAN_POINT('',(0.00450908066704869,-0.0032758089307533,0.007510098999999));
#1880=CARTESIAN_POINT('',(0.00450908066704869,-0.0032758089307533,0.007510098999999));
#1881=CARTESIAN_POINT('',(0.0021340100622375,-0.0017505,0.007510098999999));
#1882=CARTESIAN_POINT('',(-0.01447848993776,0.0294965,0.002010098999999));
#1883=CARTESIAN_POINT('',(-0.01447848993776,-0.0305589903146029,0.00287654716521501));
#1884=CARTESIAN_POINT('',(-0.01447848993776,-0.0296731966731417,0.002610098999999));
#1885=CARTESIAN_POINT('',(-0.01447848993776,0.0294965,0.002610098999999));
#1886=CARTESIAN_POINT('',(-0.01447848993776,-0.0329955,0.002010098999999));
#1887=CARTESIAN_POINT('',(-0.01622848993776,0.0294945,0.004810098999999));
#1888=CARTESIAN_POINT('',(-0.0111080864444375,0.0294945,0.00301755336113274));
#1889=CARTESIAN_POINT('',(-0.0111080864444375,0.0294945,0.00211755336113274));
#1890=CARTESIAN_POINT('',(-0.00783427292481071,0.0294945,0.001408098999999));
#1891=CARTESIAN_POINT('',(-0.01447848993776,0.0294945,0.002010098999999));
#1892=CARTESIAN_POINT('',(-0.01447848993776,0.0294945,0.002610098999999));
#1893=CARTESIAN_POINT('',(-0.01447848993776,0.0294945,0.002910098999999));
#1894=CARTESIAN_POINT('',(-0.01447848993776,0.0294945,0.003210098999999));
#1895=CARTESIAN_POINT('',(-0.01447848993776,0.0294945,0.005310098999999));
#1896=CARTESIAN_POINT('',(-0.01447848993776,0.0294965,0.005310098999999));
#1897=CARTESIAN_POINT('',(-0.01447848993776,0.0294965,0.003210098999999));
#1898=CARTESIAN_POINT('',(-0.01447848993776,0.0294965,0.002910098999999));
#1899=CARTESIAN_POINT('',(-0.01447848993776,-0.029696222574413,0.003210098999999));
#1900=CARTESIAN_POINT('',(-0.0146382549166196,-0.029696222574413,0.003210098999999));
#1901=CARTESIAN_POINT('',(-0.0149187289736557,-0.029584607271452,0.00291329752584894));
#1902=CARTESIAN_POINT('',(-0.0146382298360419,-0.0296731966731417,0.002610098999999));
#1903=CARTESIAN_POINT('',(-0.01447848993776,-0.0296731966731417,0.002610098999999));
#1904=CARTESIAN_POINT('',(-0.01447848993776,-0.029696222574413,0.003210098999999));
#1905=CARTESIAN_POINT('',(-0.01447848993776,0.0294965,0.003210098999999));
#1906=CARTESIAN_POINT('',(-0.01447848993776,0.0294965,0.005310098999999));
#1907=CARTESIAN_POINT('',(-0.01447848993776,-0.0305589903146029,0.00287654716521501));
#1908=CARTESIAN_POINT('',(-0.01447848993776,-0.0329955,0.005310098999999));
#1909=CARTESIAN_POINT('',(-0.01447848993776,0.0294965,0.002910098999999));
#1910=CARTESIAN_POINT('',(-0.01447848993776,0.0294965,0.002610098999999));
#1911=CARTESIAN_POINT('',(-0.01447848993776,0.0294965,0.002010098999999));
#1912=CARTESIAN_POINT('',(0.020496510062235,-0.0329955,0.004810098999999));
#1913=CARTESIAN_POINT('',(-0.01067848993776,-0.0329955,0.003810098999999));
#1914=CARTESIAN_POINT('',(-0.01622848993776,0.0294945,0.004810098999999));
#1915=CARTESIAN_POINT('',(0.018746510062235,0.0294945,0.003810098999999));
#1916=CARTESIAN_POINT('',(0.018746510062235,0.0294945,0.00321009899999901));
#1917=CARTESIAN_POINT('',(0.018746510062235,0.0294945,0.002910098999999));
#1918=CARTESIAN_POINT('',(0.018746510062235,0.0294945,0.002610098999999));
#1919=CARTESIAN_POINT('',(0.018746510062235,0.0294945,0.00201009899999901));
#1920=CARTESIAN_POINT('',(0.018746510062235,0.0294945,0.00141009899999901));
#1921=CARTESIAN_POINT('',(0.018346510062235,0.0294945,0.001410098999999));
#1922=CARTESIAN_POINT('',(0.017946510062235,0.0294945,0.001410098999999));
#1923=CARTESIAN_POINT('',(0.017946510062235,0.0294945,0.003810098999999));
#1924=CARTESIAN_POINT('',(0.018746510062235,0.0294965,0.003810098999999));
#1925=CARTESIAN_POINT('',(0.018746510062235,-0.0305589903146029,0.00287654716521501));
#1926=CARTESIAN_POINT('',(0.018746510062235,-0.029696222574413,0.00321009899999901));
#1927=CARTESIAN_POINT('',(0.018746510062235,0.0294965,0.00321009899999901));
#1928=CARTESIAN_POINT('',(0.018746510062235,-0.0329955,0.003810098999999));
#1929=CARTESIAN_POINT('',(0.017946510062235,0.0294965,0.003810098999999));
#1930=CARTESIAN_POINT('',(0.017946510062235,-0.0305589903146029,0.00287654716521501));
#1931=CARTESIAN_POINT('',(0.017946510062235,-0.0305589903146029,0.00380154716521502));
#1932=CARTESIAN_POINT('',(0.017946510062235,0.0294965,0.001410098999999));
#1933=CARTESIAN_POINT('',(0.017946510062235,-0.0329955,0.001410098999999));
#1934=CARTESIAN_POINT('',(0.017946510062235,-0.0329955,0.003810098999999));
#1935=CARTESIAN_POINT('',(0.018746510062235,0.0294965,0.002910098999999));
#1936=CARTESIAN_POINT('',(0.018746510062235,-0.0296731966731417,0.002610098999999));
#1937=CARTESIAN_POINT('',(0.0189062479526107,-0.0296731966731417,0.002610098999999));
#1938=CARTESIAN_POINT('',(0.0191867394248129,-0.0295845605890194,0.00291205904203903));
#1939=CARTESIAN_POINT('',(0.018906307043745,-0.0296962225744131,0.00321009899999901));
#1940=CARTESIAN_POINT('',(0.018746510062235,-0.029696222574413,0.00321009899999901));
#1941=CARTESIAN_POINT('',(0.018746510062235,-0.0296731966731417,0.002610098999999));
#1942=CARTESIAN_POINT('',(0.018746510062235,0.0294965,0.002610098999999));
#1943=CARTESIAN_POINT('',(0.018346510062235,0.0294965,0.001410098999999));
#1944=CARTESIAN_POINT('',(0.018746510062235,0.0294965,0.00141009899999901));
#1945=CARTESIAN_POINT('',(0.018746510062235,-0.0329955,0.00141009899999901));
#1946=CARTESIAN_POINT('',(0.018346510062235,-0.0329955,0.001410098999999));
#1947=CARTESIAN_POINT('',(0.018746510062235,0.0294965,0.00201009899999901));
#1948=CARTESIAN_POINT('',(0.018746510062235,-0.0305589903146029,0.00287654716521501));
#1949=CARTESIAN_POINT('',(0.018746510062235,-0.0329955,0.00201009899999901));
#1950=CARTESIAN_POINT('',(0.020496510062235,-0.0329955,0.004810098999999));
#1951=CARTESIAN_POINT('',(-0.01597848993776,0.0294945,0.005210098999999));
#1952=CARTESIAN_POINT('',(-0.01597848993776,0.0309945,0.005210098999999));
#1953=CARTESIAN_POINT('',(-0.01447848993776,0.0309945,0.005210098999999));
#1954=CARTESIAN_POINT('',(-0.01597848993776,0.0294944999999673,0.00553734834383119));
#1955=CARTESIAN_POINT('',(-0.0159784899365981,0.0309944999988392,0.00573369821180691));
#1956=CARTESIAN_POINT('',(-0.0144784899377273,0.0309945,0.00553734834383119));
#1957=CARTESIAN_POINT('',(-0.0158483180420206,0.0294424312417195,0.00619169409718568));
#1958=CARTESIAN_POINT('',(-0.0156920876568859,0.0307080977191255,0.00668227640425707));
#1959=CARTESIAN_POINT('',(-0.0144264211794794,0.0308643281042607,0.00619169409718568));
#1960=CARTESIAN_POINT('',(-0.0152922845605171,0.0292200178490986,0.0070238936295737));
#1961=CARTESIAN_POINT('',(-0.0149195207929947,0.0299355308552345,0.00737952599693347));
#1962=CARTESIAN_POINT('',(-0.0142040077868588,0.0303082946227568,0.00702389362957369));
#1963=CARTESIAN_POINT('',(-0.0144600850602691,0.0288871380490054,0.00757992710231175));
#1964=CARTESIAN_POINT('',(-0.0141838766291555,0.0291998866913966,0.00765747906393051));
#1965=CARTESIAN_POINT('',(-0.0138711279867649,0.0294760951225105,0.00757992710231175));
#1966=CARTESIAN_POINT('',(-0.0138057392270515,0.0286253997157154,0.007710098999999));
#1967=CARTESIAN_POINT('',(-0.0137075643993626,0.0287235744616004,0.0077099601613145));
#1968=CARTESIAN_POINT('',(-0.0136093896534766,0.0288217492892886,0.007710098999999));
#1969=CARTESIAN_POINT('',(-0.01347848993776,0.0284945,0.007710098999999));
#1970=CARTESIAN_POINT('',(-0.01347848993776,0.0284945,0.007710098999999));
#1971=CARTESIAN_POINT('',(-0.01347848993776,0.0284945,0.007710098999999));
#1972=CARTESIAN_POINT('',(-0.01447848993776,0.0294945,0.005210098999999));
#1973=CARTESIAN_POINT('',(-0.01447848993776,0.0294945,0.004810098999999));
#1974=CARTESIAN_POINT('',(0.018746510062235,0.0309945,0.005210098999999));
#1975=CARTESIAN_POINT('',(0.020246510062235,0.0309945,0.005210098999999));
#1976=CARTESIAN_POINT('',(0.020246510062235,0.0294945,0.005210098999999));
#1977=CARTESIAN_POINT('',(0.0187465100622023,0.0309945,0.00553734834383119));
#1978=CARTESIAN_POINT('',(0.0202465100610737,0.0309944999988392,0.00573369821180691));
#1979=CARTESIAN_POINT('',(0.020246510062235,0.0294944999999673,0.00553734834383119));
#1980=CARTESIAN_POINT('',(0.0186944413039545,0.0308643281042607,0.00619169409718568));
#1981=CARTESIAN_POINT('',(0.0199601077813608,0.0307080977191255,0.00668227640425707));
#1982=CARTESIAN_POINT('',(0.0201163381664957,0.0294424312417195,0.00619169409718568));
#1983=CARTESIAN_POINT('',(0.0184720279113336,0.0303082946227568,0.00702389362957369));
#1984=CARTESIAN_POINT('',(0.0191875409174694,0.0299355308552345,0.00737952599693346));
#1985=CARTESIAN_POINT('',(0.0195603046849918,0.0292200178490986,0.00702389362957369));
#1986=CARTESIAN_POINT('',(0.0181391481112404,0.0294760951225105,0.00757992710231175));
#1987=CARTESIAN_POINT('',(0.0184518967536317,0.0291998866913966,0.00765747906393051));
#1988=CARTESIAN_POINT('',(0.0187281051847455,0.0288871380490054,0.00757992710231175));
#1989=CARTESIAN_POINT('',(0.0178774097779504,0.0288217492892886,0.007710098999999));
#1990=CARTESIAN_POINT('',(0.0179755845238352,0.0287235744616004,0.0077099601613145));
#1991=CARTESIAN_POINT('',(0.0180737593515236,0.0286253997157154,0.007710098999999));
#1992=CARTESIAN_POINT('',(0.017746510062235,0.0284945,0.007710098999999));
#1993=CARTESIAN_POINT('',(0.017746510062235,0.0284945,0.007710098999999));
#1994=CARTESIAN_POINT('',(0.017746510062235,0.0284945,0.007710098999999));
#1995=CARTESIAN_POINT('',(0.018746510062235,0.0294945,0.005210098999999));
#1996=CARTESIAN_POINT('',(0.018746510062235,0.0294945,0.004810098999999));
#1997=CARTESIAN_POINT('',(0.020246510062235,-0.0329955,0.005210098999999));
#1998=CARTESIAN_POINT('',(0.020246510062235,-0.0344955,0.005210098999999));
#1999=CARTESIAN_POINT('',(0.018746510062235,-0.0344955,0.005210098999999));
#2000=CARTESIAN_POINT('',(0.020246510062235,-0.0329954999999673,0.00553734834383119));
#2001=CARTESIAN_POINT('',(0.0202465100610732,-0.0344954999988375,0.00573369821180673));
#2002=CARTESIAN_POINT('',(0.0187465100622023,-0.0344955,0.00553734834383119));
#2003=CARTESIAN_POINT('',(0.0201163381664957,-0.0329434312417195,0.00619169409718568));
#2004=CARTESIAN_POINT('',(0.019960107781361,-0.0342090977191262,0.00668227640425715));
#2005=CARTESIAN_POINT('',(0.0186944413039545,-0.0343653281042607,0.00619169409718568));
#2006=CARTESIAN_POINT('',(0.0195603046849918,-0.0327210178490986,0.00702389362957369));
#2007=CARTESIAN_POINT('',(0.0191875409174693,-0.0334365308552344,0.00737952599693345));
#2008=CARTESIAN_POINT('',(0.0184720279113336,-0.0338092946227568,0.00702389362957369));
#2009=CARTESIAN_POINT('',(0.0187281051847455,-0.0323881380490054,0.00757992710231176));
#2010=CARTESIAN_POINT('',(0.0184518967536317,-0.0327008866913963,0.00765747906393052));
#2011=CARTESIAN_POINT('',(0.0181391481112404,-0.0329770951225105,0.00757992710231175));
#2012=CARTESIAN_POINT('',(0.0180737593515236,-0.0321263997157154,0.007710098999999));
#2013=CARTESIAN_POINT('',(0.0179755845238352,-0.032224574461601,0.0077099601613145));
#2014=CARTESIAN_POINT('',(0.0178774097779504,-0.0323227492892886,0.007710098999999));
#2015=CARTESIAN_POINT('',(0.017746510062235,-0.0319955,0.007710098999999));
#2016=CARTESIAN_POINT('',(0.017746510062235,-0.0319955,0.007710098999999));
#2017=CARTESIAN_POINT('',(0.017746510062235,-0.0319955,0.007710098999999));
#2018=CARTESIAN_POINT('',(0.018746510062235,-0.0329955,0.005210098999999));
#2019=CARTESIAN_POINT('',(0.018746510062235,-0.0329955,0.004810098999999));
#2020=CARTESIAN_POINT('',(-0.01447848993776,-0.0344955,0.005210098999999));
#2021=CARTESIAN_POINT('',(-0.01597848993776,-0.0344955,0.005210098999999));
#2022=CARTESIAN_POINT('',(-0.01597848993776,-0.0329955,0.005210098999999));
#2023=CARTESIAN_POINT('',(-0.0144784899377273,-0.0344955,0.00553734834383119));
#2024=CARTESIAN_POINT('',(-0.0159784899365981,-0.0344954999988375,0.00573369821180673));
#2025=CARTESIAN_POINT('',(-0.01597848993776,-0.0329954999999673,0.00553734834383119));
#2026=CARTESIAN_POINT('',(-0.0144264211794794,-0.0343653281042607,0.00619169409718568));
#2027=CARTESIAN_POINT('',(-0.0156920876568859,-0.0342090977191262,0.00668227640425714));
#2028=CARTESIAN_POINT('',(-0.0158483180420206,-0.0329434312417195,0.00619169409718568));
#2029=CARTESIAN_POINT('',(-0.0142040077868588,-0.0338092946227568,0.00702389362957369));
#2030=CARTESIAN_POINT('',(-0.0149195207929946,-0.0334365308552344,0.00737952599693346));
#2031=CARTESIAN_POINT('',(-0.0152922845605171,-0.0327210178490986,0.00702389362957369));
#2032=CARTESIAN_POINT('',(-0.0138711279867649,-0.0329770951225105,0.00757992710231175));
#2033=CARTESIAN_POINT('',(-0.0141838766291559,-0.0327008866913964,0.00765747906393048));
#2034=CARTESIAN_POINT('',(-0.0144600850602692,-0.0323881380490054,0.00757992710231175));
#2035=CARTESIAN_POINT('',(-0.0136093896534766,-0.0323227492892886,0.007710098999999));
#2036=CARTESIAN_POINT('',(-0.0137075643993618,-0.032224574461601,0.00770996016131458));
#2037=CARTESIAN_POINT('',(-0.0138057392270513,-0.0321263997157154,0.007710098999999));
#2038=CARTESIAN_POINT('',(-0.01347848993776,-0.0319955,0.007710098999999));
#2039=CARTESIAN_POINT('',(-0.01347848993776,-0.0319955,0.007710098999999));
#2040=CARTESIAN_POINT('',(-0.01347848993776,-0.0319955,0.007710098999999));
#2041=CARTESIAN_POINT('',(-0.01447848993776,-0.0329955,0.005210098999999));
#2042=CARTESIAN_POINT('',(-0.01447848993776,-0.0329955,0.004810098999999));
#2043=CARTESIAN_POINT('',(0.0695441603798028,-0.0305589903146029,0.00287654716521501));
#2044=CARTESIAN_POINT('',(0.0695441603798028,-0.0305589903146029,0.00287654716521501));
#2045=CARTESIAN_POINT('',(-0.01067848993776,-0.0305589903146029,0.00287654716521501));
#2046=CARTESIAN_POINT('',(-0.01067848993776,-0.0305589903146029,0.00380154716521502));
#2047=CARTESIAN_POINT('',(-0.01067848993776,-0.0288929175585509,0.00382298523200653));
#2048=CARTESIAN_POINT('',(-0.01067848993776,-0.0288929175585509,0.00382298523200653));
#2049=CARTESIAN_POINT('',(-0.01067848993776,-0.0017505,0.00382298523200653));
#2050=CARTESIAN_POINT('',(-0.00783427292481071,0.028273956956327,0.001408098999999));
#2051=CARTESIAN_POINT('',(-0.00783427292481071,0.027053413912654,0.001408098999999));
#2052=CARTESIAN_POINT('',(-0.0108178348746151,0.027053413912654,0.001408098999999));
#2053=CARTESIAN_POINT('',(-0.0111080864444375,0.027053413912654,0.00301755336113274));
#2054=CARTESIAN_POINT('',(-0.0111080864444375,0.027053413912654,0.00211755336113274));
#2055=CARTESIAN_POINT('',(-0.0111080864444375,0.0059945,0.00301755336113274));
#2056=MECHANICAL_DESIGN_GEOMETRIC_PRESENTATION_REPRESENTATION('',(#1189),
#2057);
#2057=(
GEOMETRIC_REPRESENTATION_CONTEXT(3)
GLOBAL_UNCERTAINTY_ASSIGNED_CONTEXT((#2058))
GLOBAL_UNIT_ASSIGNED_CONTEXT((#2061,#2060,#2059))
REPRESENTATION_CONTEXT('Top','TOP_LEVEL_ASSEMBLY_PART')
);
#2058=UNCERTAINTY_MEASURE_WITH_UNIT(LENGTH_MEASURE(2.E-5),#2061,
'DISTANCE_ACCURACY_VALUE','Maximum Tolerance applied to model');
#2059=(
NAMED_UNIT(*)
SI_UNIT($,.STERADIAN.)
SOLID_ANGLE_UNIT()
);
#2060=(
NAMED_UNIT(*)
PLANE_ANGLE_UNIT()
SI_UNIT($,.RADIAN.)
);
#2061=(
LENGTH_UNIT()
NAMED_UNIT(*)
SI_UNIT($,.METRE.)
);
#2062=PRODUCT_DEFINITION_SHAPE('','',#2063);
#2063=PRODUCT_DEFINITION('','',#2065,#2064);
#2064=PRODUCT_DEFINITION_CONTEXT('',#2071,'design');
#2065=PRODUCT_DEFINITION_FORMATION_WITH_SPECIFIED_SOURCE('','',#2067,
 .NOT_KNOWN.);
#2066=PRODUCT_RELATED_PRODUCT_CATEGORY('','',(#2067));
#2067=PRODUCT('Top','Top','Top',(#2069));
#2068=PRODUCT_CATEGORY('','');
#2069=PRODUCT_CONTEXT('',#2071,'mechanical');
#2070=APPLICATION_PROTOCOL_DEFINITION('international standard',
'ap242_managed_model_based_3d_engineering',2020,#2071);
#2071=APPLICATION_CONTEXT('managed model based 3d engineering');
ENDSEC;
END-ISO-10303-21;
