<?xml version="1.0" encoding="UTF-8" standalone="no"?>
<svg
   version="1.1"
   id="Layer_1"
   x="0px"
   y="0px"
   viewBox="0 0 32.000001 32.000001"
   xml:space="preserve"
   sodipodi:docname="male-icon.svg"
   width="32"
   height="32"
   inkscape:version="1.4.2 (ebf0e940d0, 2025-05-08)"
   xmlns:inkscape="http://www.inkscape.org/namespaces/inkscape"
   xmlns:sodipodi="http://sodipodi.sourceforge.net/DTD/sodipodi-0.dtd"
   xmlns="http://www.w3.org/2000/svg"
   xmlns:svg="http://www.w3.org/2000/svg"><defs
     id="defs1" /><sodipodi:namedview
     id="namedview1"
     pagecolor="#000000"
     bordercolor="#000000"
     borderopacity="0.25"
     inkscape:showpageshadow="2"
     inkscape:pageopacity="0.0"
     inkscape:pagecheckerboard="0"
     inkscape:deskcolor="#d1d1d1"
     inkscape:export-bgcolor="#00000000"
     inkscape:zoom="17.144806"
     inkscape:cx="16.156496"
     inkscape:cy="29.950761"
     inkscape:window-width="1440"
     inkscape:window-height="2560"
     inkscape:window-x="0"
     inkscape:window-y="0"
     inkscape:window-maximized="0"
     inkscape:current-layer="Layer_1" /><style
     type="text/css"
     id="style1">.st0{fill-rule:evenodd;clip-rule:evenodd;}</style><g
     id="g1"
     style="fill:#ffffff"
     transform="matrix(0.26043786,0,0,0.26043786,0,0.37763453)"><path
       class="st0"
       d="M 0,121.42 V 101.79 C 10.5,97.12 42.65,88.23 44.16,75.38 44.5,72.48 37.66,61.42 36.09,56.12 32.73,50.77 31.53,42.27 35.2,36.62 c 1.46,-2.25 0.84,-10.44 0.84,-13.53 0,-30.77 53.92,-30.78 53.92,0 0,3.89 -0.9,11.04 1.22,14.1 3.54,5.12 1.71,14.19 -1.27,18.93 -1.91,5.57 -9.18,16.11 -8.56,19.26 2.31,11.74 32.13,19.63 41.52,23.8 v 22.23 z"
       id="path1"
       style="fill:#ffffff" /></g></svg>
