%TF.GenerationSoftware,KiCad,Pcbnew,10.0.3*%
%TF.CreationDate,2026-06-18T18:50:31+02:00*%
%TF.ProjectId,SenseMatePCB,53656e73-654d-4617-9465-5043422e6b69,rev?*%
%TF.SameCoordinates,Original*%
%TF.FileFunction,Legend,Top*%
%TF.FilePolarity,Positive*%
%FSLAX46Y46*%
G04 Gerber Fmt 4.6, Leading zero omitted, Abs format (unit mm)*
G04 Created by KiCad (PCBNEW 10.0.3) date 2026-06-18 18:50:31*
%MOMM*%
%LPD*%
G01*
G04 APERTURE LIST*
%ADD10C,0.100000*%
%ADD11C,0.125000*%
%ADD12C,0.160000*%
%ADD13C,0.150000*%
%ADD14C,0.101600*%
%ADD15C,0.152400*%
%ADD16C,0.120000*%
%ADD17C,0.200000*%
%ADD18C,0.127000*%
%ADD19C,0.504000*%
%ADD20C,0.000000*%
G04 APERTURE END LIST*
D10*
X116175238Y-41530133D02*
X116784762Y-41530133D01*
X116175238Y-44260133D02*
X116784762Y-44260133D01*
X116480000Y-44564895D02*
X116480000Y-43955371D01*
X103940000Y-51150000D02*
X104440000Y-50800000D01*
X103940000Y-50450000D02*
X103940000Y-51150000D01*
X104440000Y-50800000D02*
X103940000Y-50450000D01*
X104440000Y-50410000D02*
X104440000Y-51160000D01*
X104640000Y-50800000D02*
X104440000Y-50800000D01*
X103680000Y-50800000D02*
X104640000Y-50800000D01*
X118195238Y-52770133D02*
X118804762Y-52770133D01*
X118500000Y-53074895D02*
X118500000Y-52465371D01*
D11*
X114680331Y-35530166D02*
X115442236Y-35530166D01*
X116640331Y-35590166D02*
X117402236Y-35590166D01*
X117021283Y-35971119D02*
X117021283Y-35209214D01*
D10*
X111365864Y-81530827D02*
X111285051Y-81557765D01*
X111285051Y-81557765D02*
X111204239Y-81638577D01*
X111204239Y-81638577D02*
X111150364Y-81746326D01*
X111150364Y-81746326D02*
X111150364Y-81854076D01*
X111150364Y-81854076D02*
X111177302Y-81934888D01*
X111177302Y-81934888D02*
X111258114Y-82069575D01*
X111258114Y-82069575D02*
X111338926Y-82150387D01*
X111338926Y-82150387D02*
X111473613Y-82231200D01*
X111473613Y-82231200D02*
X111554425Y-82258137D01*
X111554425Y-82258137D02*
X111662175Y-82258137D01*
X111662175Y-82258137D02*
X111769925Y-82204262D01*
X111769925Y-82204262D02*
X111823799Y-82150387D01*
X111823799Y-82150387D02*
X111877674Y-82042638D01*
X111877674Y-82042638D02*
X111877674Y-81988763D01*
X111877674Y-81988763D02*
X111689112Y-81800201D01*
X111689112Y-81800201D02*
X111581363Y-81907951D01*
X112173986Y-81800201D02*
X111608300Y-81234516D01*
X111608300Y-81234516D02*
X112497235Y-81476952D01*
X112497235Y-81476952D02*
X111931549Y-80911267D01*
X112766608Y-81207578D02*
X112200923Y-80641893D01*
X112200923Y-80641893D02*
X112335610Y-80507206D01*
X112335610Y-80507206D02*
X112443360Y-80453331D01*
X112443360Y-80453331D02*
X112551109Y-80453331D01*
X112551109Y-80453331D02*
X112631921Y-80480269D01*
X112631921Y-80480269D02*
X112766608Y-80561081D01*
X112766608Y-80561081D02*
X112847421Y-80641893D01*
X112847421Y-80641893D02*
X112928233Y-80776580D01*
X112928233Y-80776580D02*
X112955170Y-80857392D01*
X112955170Y-80857392D02*
X112955170Y-80965142D01*
X112955170Y-80965142D02*
X112901295Y-81072891D01*
X112901295Y-81072891D02*
X112766608Y-81207578D01*
X108528740Y-81824076D02*
X108878926Y-81473890D01*
X108878926Y-81473890D02*
X108905864Y-81877951D01*
X108905864Y-81877951D02*
X108986676Y-81797139D01*
X108986676Y-81797139D02*
X109067488Y-81770201D01*
X109067488Y-81770201D02*
X109121363Y-81770201D01*
X109121363Y-81770201D02*
X109202175Y-81797139D01*
X109202175Y-81797139D02*
X109336862Y-81931826D01*
X109336862Y-81931826D02*
X109363799Y-82012638D01*
X109363799Y-82012638D02*
X109363799Y-82066513D01*
X109363799Y-82066513D02*
X109336862Y-82147325D01*
X109336862Y-82147325D02*
X109175238Y-82308949D01*
X109175238Y-82308949D02*
X109094425Y-82335887D01*
X109094425Y-82335887D02*
X109040551Y-82335887D01*
X109040551Y-81312265D02*
X109794798Y-81689389D01*
X109794798Y-81689389D02*
X109417674Y-80935142D01*
X109552361Y-80800455D02*
X109902547Y-80450269D01*
X109902547Y-80450269D02*
X109929485Y-80854330D01*
X109929485Y-80854330D02*
X110010297Y-80773517D01*
X110010297Y-80773517D02*
X110091109Y-80746580D01*
X110091109Y-80746580D02*
X110144984Y-80746580D01*
X110144984Y-80746580D02*
X110225796Y-80773517D01*
X110225796Y-80773517D02*
X110360483Y-80908204D01*
X110360483Y-80908204D02*
X110387421Y-80989017D01*
X110387421Y-80989017D02*
X110387421Y-81042891D01*
X110387421Y-81042891D02*
X110360483Y-81123704D01*
X110360483Y-81123704D02*
X110198859Y-81285328D01*
X110198859Y-81285328D02*
X110118047Y-81312265D01*
X110118047Y-81312265D02*
X110064172Y-81312265D01*
X106194425Y-82305887D02*
X106302175Y-82252012D01*
X106302175Y-82252012D02*
X106436862Y-82117325D01*
X106436862Y-82117325D02*
X106463799Y-82036513D01*
X106463799Y-82036513D02*
X106463799Y-81982638D01*
X106463799Y-81982638D02*
X106436862Y-81901826D01*
X106436862Y-81901826D02*
X106382987Y-81847951D01*
X106382987Y-81847951D02*
X106302175Y-81821013D01*
X106302175Y-81821013D02*
X106248300Y-81821013D01*
X106248300Y-81821013D02*
X106167488Y-81847951D01*
X106167488Y-81847951D02*
X106032801Y-81928763D01*
X106032801Y-81928763D02*
X105951989Y-81955700D01*
X105951989Y-81955700D02*
X105898114Y-81955700D01*
X105898114Y-81955700D02*
X105817302Y-81928763D01*
X105817302Y-81928763D02*
X105763427Y-81874888D01*
X105763427Y-81874888D02*
X105736490Y-81794076D01*
X105736490Y-81794076D02*
X105736490Y-81740201D01*
X105736490Y-81740201D02*
X105763427Y-81659389D01*
X105763427Y-81659389D02*
X105898114Y-81524702D01*
X105898114Y-81524702D02*
X106005864Y-81470827D01*
X107056422Y-81390015D02*
X107056422Y-81443890D01*
X107056422Y-81443890D02*
X107002548Y-81551639D01*
X107002548Y-81551639D02*
X106948673Y-81605514D01*
X106948673Y-81605514D02*
X106840923Y-81659389D01*
X106840923Y-81659389D02*
X106733174Y-81659389D01*
X106733174Y-81659389D02*
X106652361Y-81632451D01*
X106652361Y-81632451D02*
X106517674Y-81551639D01*
X106517674Y-81551639D02*
X106436862Y-81470827D01*
X106436862Y-81470827D02*
X106356050Y-81336140D01*
X106356050Y-81336140D02*
X106329113Y-81255328D01*
X106329113Y-81255328D02*
X106329113Y-81147578D01*
X106329113Y-81147578D02*
X106382987Y-81039829D01*
X106382987Y-81039829D02*
X106436862Y-80985954D01*
X106436862Y-80985954D02*
X106544612Y-80932079D01*
X106544612Y-80932079D02*
X106598487Y-80932079D01*
X107622108Y-80932079D02*
X107352734Y-81201453D01*
X107352734Y-81201453D02*
X106787048Y-80635768D01*
X103564425Y-82295887D02*
X103672175Y-82242012D01*
X103672175Y-82242012D02*
X103806862Y-82107325D01*
X103806862Y-82107325D02*
X103833799Y-82026513D01*
X103833799Y-82026513D02*
X103833799Y-81972638D01*
X103833799Y-81972638D02*
X103806862Y-81891826D01*
X103806862Y-81891826D02*
X103752987Y-81837951D01*
X103752987Y-81837951D02*
X103672175Y-81811013D01*
X103672175Y-81811013D02*
X103618300Y-81811013D01*
X103618300Y-81811013D02*
X103537488Y-81837951D01*
X103537488Y-81837951D02*
X103402801Y-81918763D01*
X103402801Y-81918763D02*
X103321989Y-81945700D01*
X103321989Y-81945700D02*
X103268114Y-81945700D01*
X103268114Y-81945700D02*
X103187302Y-81918763D01*
X103187302Y-81918763D02*
X103133427Y-81864888D01*
X103133427Y-81864888D02*
X103106490Y-81784076D01*
X103106490Y-81784076D02*
X103106490Y-81730201D01*
X103106490Y-81730201D02*
X103133427Y-81649389D01*
X103133427Y-81649389D02*
X103268114Y-81514702D01*
X103268114Y-81514702D02*
X103375864Y-81460827D01*
X104157048Y-81757138D02*
X103591363Y-81191453D01*
X103591363Y-81191453D02*
X103726050Y-81056766D01*
X103726050Y-81056766D02*
X103833800Y-81002891D01*
X103833800Y-81002891D02*
X103941549Y-81002891D01*
X103941549Y-81002891D02*
X104022361Y-81029829D01*
X104022361Y-81029829D02*
X104157048Y-81110641D01*
X104157048Y-81110641D02*
X104237861Y-81191453D01*
X104237861Y-81191453D02*
X104318673Y-81326140D01*
X104318673Y-81326140D02*
X104345610Y-81406952D01*
X104345610Y-81406952D02*
X104345610Y-81514702D01*
X104345610Y-81514702D02*
X104291735Y-81622451D01*
X104291735Y-81622451D02*
X104157048Y-81757138D01*
X104534172Y-81056766D02*
X104803546Y-80787392D01*
X104641922Y-81272265D02*
X104264798Y-80518018D01*
X104264798Y-80518018D02*
X105019045Y-80895142D01*
D11*
X96741119Y-60729668D02*
X95741119Y-60729668D01*
X95741119Y-60729668D02*
X95741119Y-60348716D01*
X95741119Y-60348716D02*
X95788738Y-60253478D01*
X95788738Y-60253478D02*
X95836357Y-60205859D01*
X95836357Y-60205859D02*
X95931595Y-60158240D01*
X95931595Y-60158240D02*
X96074452Y-60158240D01*
X96074452Y-60158240D02*
X96169690Y-60205859D01*
X96169690Y-60205859D02*
X96217309Y-60253478D01*
X96217309Y-60253478D02*
X96264928Y-60348716D01*
X96264928Y-60348716D02*
X96264928Y-60729668D01*
X96741119Y-59586811D02*
X96693500Y-59682049D01*
X96693500Y-59682049D02*
X96645880Y-59729668D01*
X96645880Y-59729668D02*
X96550642Y-59777287D01*
X96550642Y-59777287D02*
X96264928Y-59777287D01*
X96264928Y-59777287D02*
X96169690Y-59729668D01*
X96169690Y-59729668D02*
X96122071Y-59682049D01*
X96122071Y-59682049D02*
X96074452Y-59586811D01*
X96074452Y-59586811D02*
X96074452Y-59443954D01*
X96074452Y-59443954D02*
X96122071Y-59348716D01*
X96122071Y-59348716D02*
X96169690Y-59301097D01*
X96169690Y-59301097D02*
X96264928Y-59253478D01*
X96264928Y-59253478D02*
X96550642Y-59253478D01*
X96550642Y-59253478D02*
X96645880Y-59301097D01*
X96645880Y-59301097D02*
X96693500Y-59348716D01*
X96693500Y-59348716D02*
X96741119Y-59443954D01*
X96741119Y-59443954D02*
X96741119Y-59586811D01*
X96074452Y-58396335D02*
X96883976Y-58396335D01*
X96883976Y-58396335D02*
X96979214Y-58443954D01*
X96979214Y-58443954D02*
X97026833Y-58491573D01*
X97026833Y-58491573D02*
X97074452Y-58586811D01*
X97074452Y-58586811D02*
X97074452Y-58729668D01*
X97074452Y-58729668D02*
X97026833Y-58824906D01*
X96693500Y-58396335D02*
X96741119Y-58491573D01*
X96741119Y-58491573D02*
X96741119Y-58682049D01*
X96741119Y-58682049D02*
X96693500Y-58777287D01*
X96693500Y-58777287D02*
X96645880Y-58824906D01*
X96645880Y-58824906D02*
X96550642Y-58872525D01*
X96550642Y-58872525D02*
X96264928Y-58872525D01*
X96264928Y-58872525D02*
X96169690Y-58824906D01*
X96169690Y-58824906D02*
X96122071Y-58777287D01*
X96122071Y-58777287D02*
X96074452Y-58682049D01*
X96074452Y-58682049D02*
X96074452Y-58491573D01*
X96074452Y-58491573D02*
X96122071Y-58396335D01*
X96741119Y-57777287D02*
X96693500Y-57872525D01*
X96693500Y-57872525D02*
X96645880Y-57920144D01*
X96645880Y-57920144D02*
X96550642Y-57967763D01*
X96550642Y-57967763D02*
X96264928Y-57967763D01*
X96264928Y-57967763D02*
X96169690Y-57920144D01*
X96169690Y-57920144D02*
X96122071Y-57872525D01*
X96122071Y-57872525D02*
X96074452Y-57777287D01*
X96074452Y-57777287D02*
X96074452Y-57634430D01*
X96074452Y-57634430D02*
X96122071Y-57539192D01*
X96122071Y-57539192D02*
X96169690Y-57491573D01*
X96169690Y-57491573D02*
X96264928Y-57443954D01*
X96264928Y-57443954D02*
X96550642Y-57443954D01*
X96550642Y-57443954D02*
X96645880Y-57491573D01*
X96645880Y-57491573D02*
X96693500Y-57539192D01*
X96693500Y-57539192D02*
X96741119Y-57634430D01*
X96741119Y-57634430D02*
X96741119Y-57777287D01*
X96360166Y-57015382D02*
X96360166Y-56253478D01*
X96741119Y-55777287D02*
X95741119Y-55777287D01*
X95741119Y-55777287D02*
X95741119Y-55396335D01*
X95741119Y-55396335D02*
X95788738Y-55301097D01*
X95788738Y-55301097D02*
X95836357Y-55253478D01*
X95836357Y-55253478D02*
X95931595Y-55205859D01*
X95931595Y-55205859D02*
X96074452Y-55205859D01*
X96074452Y-55205859D02*
X96169690Y-55253478D01*
X96169690Y-55253478D02*
X96217309Y-55301097D01*
X96217309Y-55301097D02*
X96264928Y-55396335D01*
X96264928Y-55396335D02*
X96264928Y-55777287D01*
X96741119Y-54777287D02*
X96074452Y-54777287D01*
X95741119Y-54777287D02*
X95788738Y-54824906D01*
X95788738Y-54824906D02*
X95836357Y-54777287D01*
X95836357Y-54777287D02*
X95788738Y-54729668D01*
X95788738Y-54729668D02*
X95741119Y-54777287D01*
X95741119Y-54777287D02*
X95836357Y-54777287D01*
X96074452Y-54301097D02*
X96741119Y-54301097D01*
X96169690Y-54301097D02*
X96122071Y-54253478D01*
X96122071Y-54253478D02*
X96074452Y-54158240D01*
X96074452Y-54158240D02*
X96074452Y-54015383D01*
X96074452Y-54015383D02*
X96122071Y-53920145D01*
X96122071Y-53920145D02*
X96217309Y-53872526D01*
X96217309Y-53872526D02*
X96741119Y-53872526D01*
X96693500Y-53443954D02*
X96741119Y-53348716D01*
X96741119Y-53348716D02*
X96741119Y-53158240D01*
X96741119Y-53158240D02*
X96693500Y-53063002D01*
X96693500Y-53063002D02*
X96598261Y-53015383D01*
X96598261Y-53015383D02*
X96550642Y-53015383D01*
X96550642Y-53015383D02*
X96455404Y-53063002D01*
X96455404Y-53063002D02*
X96407785Y-53158240D01*
X96407785Y-53158240D02*
X96407785Y-53301097D01*
X96407785Y-53301097D02*
X96360166Y-53396335D01*
X96360166Y-53396335D02*
X96264928Y-53443954D01*
X96264928Y-53443954D02*
X96217309Y-53443954D01*
X96217309Y-53443954D02*
X96122071Y-53396335D01*
X96122071Y-53396335D02*
X96074452Y-53301097D01*
X96074452Y-53301097D02*
X96074452Y-53158240D01*
X96074452Y-53158240D02*
X96122071Y-53063002D01*
D10*
X92660000Y-53690000D02*
X92640000Y-55282500D01*
X104496265Y-86666895D02*
X104496265Y-85866895D01*
X104496265Y-85866895D02*
X104686741Y-85866895D01*
X104686741Y-85866895D02*
X104801027Y-85904990D01*
X104801027Y-85904990D02*
X104877217Y-85981180D01*
X104877217Y-85981180D02*
X104915312Y-86057371D01*
X104915312Y-86057371D02*
X104953408Y-86209752D01*
X104953408Y-86209752D02*
X104953408Y-86324038D01*
X104953408Y-86324038D02*
X104915312Y-86476419D01*
X104915312Y-86476419D02*
X104877217Y-86552609D01*
X104877217Y-86552609D02*
X104801027Y-86628800D01*
X104801027Y-86628800D02*
X104686741Y-86666895D01*
X104686741Y-86666895D02*
X104496265Y-86666895D01*
X105296265Y-86666895D02*
X105296265Y-86133561D01*
X105296265Y-85866895D02*
X105258169Y-85904990D01*
X105258169Y-85904990D02*
X105296265Y-85943085D01*
X105296265Y-85943085D02*
X105334360Y-85904990D01*
X105334360Y-85904990D02*
X105296265Y-85866895D01*
X105296265Y-85866895D02*
X105296265Y-85943085D01*
X105639121Y-86628800D02*
X105715312Y-86666895D01*
X105715312Y-86666895D02*
X105867693Y-86666895D01*
X105867693Y-86666895D02*
X105943883Y-86628800D01*
X105943883Y-86628800D02*
X105981979Y-86552609D01*
X105981979Y-86552609D02*
X105981979Y-86514514D01*
X105981979Y-86514514D02*
X105943883Y-86438323D01*
X105943883Y-86438323D02*
X105867693Y-86400228D01*
X105867693Y-86400228D02*
X105753407Y-86400228D01*
X105753407Y-86400228D02*
X105677217Y-86362133D01*
X105677217Y-86362133D02*
X105639121Y-86285942D01*
X105639121Y-86285942D02*
X105639121Y-86247847D01*
X105639121Y-86247847D02*
X105677217Y-86171657D01*
X105677217Y-86171657D02*
X105753407Y-86133561D01*
X105753407Y-86133561D02*
X105867693Y-86133561D01*
X105867693Y-86133561D02*
X105943883Y-86171657D01*
X106324836Y-86133561D02*
X106324836Y-86933561D01*
X106324836Y-86171657D02*
X106401026Y-86133561D01*
X106401026Y-86133561D02*
X106553407Y-86133561D01*
X106553407Y-86133561D02*
X106629598Y-86171657D01*
X106629598Y-86171657D02*
X106667693Y-86209752D01*
X106667693Y-86209752D02*
X106705788Y-86285942D01*
X106705788Y-86285942D02*
X106705788Y-86514514D01*
X106705788Y-86514514D02*
X106667693Y-86590704D01*
X106667693Y-86590704D02*
X106629598Y-86628800D01*
X106629598Y-86628800D02*
X106553407Y-86666895D01*
X106553407Y-86666895D02*
X106401026Y-86666895D01*
X106401026Y-86666895D02*
X106324836Y-86628800D01*
X107162931Y-86666895D02*
X107086741Y-86628800D01*
X107086741Y-86628800D02*
X107048646Y-86552609D01*
X107048646Y-86552609D02*
X107048646Y-85866895D01*
X107810551Y-86666895D02*
X107810551Y-86247847D01*
X107810551Y-86247847D02*
X107772456Y-86171657D01*
X107772456Y-86171657D02*
X107696265Y-86133561D01*
X107696265Y-86133561D02*
X107543884Y-86133561D01*
X107543884Y-86133561D02*
X107467694Y-86171657D01*
X107810551Y-86628800D02*
X107734360Y-86666895D01*
X107734360Y-86666895D02*
X107543884Y-86666895D01*
X107543884Y-86666895D02*
X107467694Y-86628800D01*
X107467694Y-86628800D02*
X107429598Y-86552609D01*
X107429598Y-86552609D02*
X107429598Y-86476419D01*
X107429598Y-86476419D02*
X107467694Y-86400228D01*
X107467694Y-86400228D02*
X107543884Y-86362133D01*
X107543884Y-86362133D02*
X107734360Y-86362133D01*
X107734360Y-86362133D02*
X107810551Y-86324038D01*
X108115313Y-86133561D02*
X108305789Y-86666895D01*
X108496266Y-86133561D02*
X108305789Y-86666895D01*
X108305789Y-86666895D02*
X108229599Y-86857371D01*
X108229599Y-86857371D02*
X108191504Y-86895466D01*
X108191504Y-86895466D02*
X108115313Y-86933561D01*
X116558169Y-87028323D02*
X116939122Y-87028323D01*
X116481979Y-87256895D02*
X116748646Y-86456895D01*
X116748646Y-86456895D02*
X117015312Y-87256895D01*
X117281979Y-86723561D02*
X117281979Y-87256895D01*
X117281979Y-86799752D02*
X117320074Y-86761657D01*
X117320074Y-86761657D02*
X117396264Y-86723561D01*
X117396264Y-86723561D02*
X117510550Y-86723561D01*
X117510550Y-86723561D02*
X117586741Y-86761657D01*
X117586741Y-86761657D02*
X117624836Y-86837847D01*
X117624836Y-86837847D02*
X117624836Y-87256895D01*
X117891503Y-86723561D02*
X118196265Y-86723561D01*
X118005789Y-86456895D02*
X118005789Y-87142609D01*
X118005789Y-87142609D02*
X118043884Y-87218800D01*
X118043884Y-87218800D02*
X118120074Y-87256895D01*
X118120074Y-87256895D02*
X118196265Y-87256895D01*
X118767694Y-87218800D02*
X118691503Y-87256895D01*
X118691503Y-87256895D02*
X118539122Y-87256895D01*
X118539122Y-87256895D02*
X118462932Y-87218800D01*
X118462932Y-87218800D02*
X118424836Y-87142609D01*
X118424836Y-87142609D02*
X118424836Y-86837847D01*
X118424836Y-86837847D02*
X118462932Y-86761657D01*
X118462932Y-86761657D02*
X118539122Y-86723561D01*
X118539122Y-86723561D02*
X118691503Y-86723561D01*
X118691503Y-86723561D02*
X118767694Y-86761657D01*
X118767694Y-86761657D02*
X118805789Y-86837847D01*
X118805789Y-86837847D02*
X118805789Y-86914038D01*
X118805789Y-86914038D02*
X118424836Y-86990228D01*
X119148646Y-86723561D02*
X119148646Y-87256895D01*
X119148646Y-86799752D02*
X119186741Y-86761657D01*
X119186741Y-86761657D02*
X119262931Y-86723561D01*
X119262931Y-86723561D02*
X119377217Y-86723561D01*
X119377217Y-86723561D02*
X119453408Y-86761657D01*
X119453408Y-86761657D02*
X119491503Y-86837847D01*
X119491503Y-86837847D02*
X119491503Y-87256895D01*
X119872456Y-86723561D02*
X119872456Y-87256895D01*
X119872456Y-86799752D02*
X119910551Y-86761657D01*
X119910551Y-86761657D02*
X119986741Y-86723561D01*
X119986741Y-86723561D02*
X120101027Y-86723561D01*
X120101027Y-86723561D02*
X120177218Y-86761657D01*
X120177218Y-86761657D02*
X120215313Y-86837847D01*
X120215313Y-86837847D02*
X120215313Y-87256895D01*
X120939123Y-87256895D02*
X120939123Y-86837847D01*
X120939123Y-86837847D02*
X120901028Y-86761657D01*
X120901028Y-86761657D02*
X120824837Y-86723561D01*
X120824837Y-86723561D02*
X120672456Y-86723561D01*
X120672456Y-86723561D02*
X120596266Y-86761657D01*
X120939123Y-87218800D02*
X120862932Y-87256895D01*
X120862932Y-87256895D02*
X120672456Y-87256895D01*
X120672456Y-87256895D02*
X120596266Y-87218800D01*
X120596266Y-87218800D02*
X120558170Y-87142609D01*
X120558170Y-87142609D02*
X120558170Y-87066419D01*
X120558170Y-87066419D02*
X120596266Y-86990228D01*
X120596266Y-86990228D02*
X120672456Y-86952133D01*
X120672456Y-86952133D02*
X120862932Y-86952133D01*
X120862932Y-86952133D02*
X120939123Y-86914038D01*
X108128571Y-77264895D02*
X107861904Y-76883942D01*
X107671428Y-77264895D02*
X107671428Y-76464895D01*
X107671428Y-76464895D02*
X107976190Y-76464895D01*
X107976190Y-76464895D02*
X108052380Y-76502990D01*
X108052380Y-76502990D02*
X108090475Y-76541085D01*
X108090475Y-76541085D02*
X108128571Y-76617276D01*
X108128571Y-76617276D02*
X108128571Y-76731561D01*
X108128571Y-76731561D02*
X108090475Y-76807752D01*
X108090475Y-76807752D02*
X108052380Y-76845847D01*
X108052380Y-76845847D02*
X107976190Y-76883942D01*
X107976190Y-76883942D02*
X107671428Y-76883942D01*
X108738094Y-76845847D02*
X108471428Y-76845847D01*
X108471428Y-77264895D02*
X108471428Y-76464895D01*
X108471428Y-76464895D02*
X108852380Y-76464895D01*
X109157142Y-77264895D02*
X109157142Y-76464895D01*
X109157142Y-76464895D02*
X109423808Y-77036323D01*
X109423808Y-77036323D02*
X109690475Y-76464895D01*
X109690475Y-76464895D02*
X109690475Y-77264895D01*
X110109523Y-77264895D02*
X110261904Y-77264895D01*
X110261904Y-77264895D02*
X110338094Y-77226800D01*
X110338094Y-77226800D02*
X110376190Y-77188704D01*
X110376190Y-77188704D02*
X110452380Y-77074419D01*
X110452380Y-77074419D02*
X110490475Y-76922038D01*
X110490475Y-76922038D02*
X110490475Y-76617276D01*
X110490475Y-76617276D02*
X110452380Y-76541085D01*
X110452380Y-76541085D02*
X110414285Y-76502990D01*
X110414285Y-76502990D02*
X110338094Y-76464895D01*
X110338094Y-76464895D02*
X110185713Y-76464895D01*
X110185713Y-76464895D02*
X110109523Y-76502990D01*
X110109523Y-76502990D02*
X110071428Y-76541085D01*
X110071428Y-76541085D02*
X110033332Y-76617276D01*
X110033332Y-76617276D02*
X110033332Y-76807752D01*
X110033332Y-76807752D02*
X110071428Y-76883942D01*
X110071428Y-76883942D02*
X110109523Y-76922038D01*
X110109523Y-76922038D02*
X110185713Y-76960133D01*
X110185713Y-76960133D02*
X110338094Y-76960133D01*
X110338094Y-76960133D02*
X110414285Y-76922038D01*
X110414285Y-76922038D02*
X110452380Y-76883942D01*
X110452380Y-76883942D02*
X110490475Y-76807752D01*
X111214285Y-76464895D02*
X110833333Y-76464895D01*
X110833333Y-76464895D02*
X110795237Y-76845847D01*
X110795237Y-76845847D02*
X110833333Y-76807752D01*
X110833333Y-76807752D02*
X110909523Y-76769657D01*
X110909523Y-76769657D02*
X111099999Y-76769657D01*
X111099999Y-76769657D02*
X111176190Y-76807752D01*
X111176190Y-76807752D02*
X111214285Y-76845847D01*
X111214285Y-76845847D02*
X111252380Y-76922038D01*
X111252380Y-76922038D02*
X111252380Y-77112514D01*
X111252380Y-77112514D02*
X111214285Y-77188704D01*
X111214285Y-77188704D02*
X111176190Y-77226800D01*
X111176190Y-77226800D02*
X111099999Y-77264895D01*
X111099999Y-77264895D02*
X110909523Y-77264895D01*
X110909523Y-77264895D02*
X110833333Y-77226800D01*
X110833333Y-77226800D02*
X110795237Y-77188704D01*
X111519047Y-76464895D02*
X111709523Y-77264895D01*
X111709523Y-77264895D02*
X111861904Y-76693466D01*
X111861904Y-76693466D02*
X112014285Y-77264895D01*
X112014285Y-77264895D02*
X112204762Y-76464895D01*
X112509524Y-76960133D02*
X113119048Y-76960133D01*
X113614285Y-76807752D02*
X113538095Y-76769657D01*
X113538095Y-76769657D02*
X113500000Y-76731561D01*
X113500000Y-76731561D02*
X113461904Y-76655371D01*
X113461904Y-76655371D02*
X113461904Y-76617276D01*
X113461904Y-76617276D02*
X113500000Y-76541085D01*
X113500000Y-76541085D02*
X113538095Y-76502990D01*
X113538095Y-76502990D02*
X113614285Y-76464895D01*
X113614285Y-76464895D02*
X113766666Y-76464895D01*
X113766666Y-76464895D02*
X113842857Y-76502990D01*
X113842857Y-76502990D02*
X113880952Y-76541085D01*
X113880952Y-76541085D02*
X113919047Y-76617276D01*
X113919047Y-76617276D02*
X113919047Y-76655371D01*
X113919047Y-76655371D02*
X113880952Y-76731561D01*
X113880952Y-76731561D02*
X113842857Y-76769657D01*
X113842857Y-76769657D02*
X113766666Y-76807752D01*
X113766666Y-76807752D02*
X113614285Y-76807752D01*
X113614285Y-76807752D02*
X113538095Y-76845847D01*
X113538095Y-76845847D02*
X113500000Y-76883942D01*
X113500000Y-76883942D02*
X113461904Y-76960133D01*
X113461904Y-76960133D02*
X113461904Y-77112514D01*
X113461904Y-77112514D02*
X113500000Y-77188704D01*
X113500000Y-77188704D02*
X113538095Y-77226800D01*
X113538095Y-77226800D02*
X113614285Y-77264895D01*
X113614285Y-77264895D02*
X113766666Y-77264895D01*
X113766666Y-77264895D02*
X113842857Y-77226800D01*
X113842857Y-77226800D02*
X113880952Y-77188704D01*
X113880952Y-77188704D02*
X113919047Y-77112514D01*
X113919047Y-77112514D02*
X113919047Y-76960133D01*
X113919047Y-76960133D02*
X113880952Y-76883942D01*
X113880952Y-76883942D02*
X113842857Y-76845847D01*
X113842857Y-76845847D02*
X113766666Y-76807752D01*
X114604762Y-76464895D02*
X114452381Y-76464895D01*
X114452381Y-76464895D02*
X114376190Y-76502990D01*
X114376190Y-76502990D02*
X114338095Y-76541085D01*
X114338095Y-76541085D02*
X114261905Y-76655371D01*
X114261905Y-76655371D02*
X114223809Y-76807752D01*
X114223809Y-76807752D02*
X114223809Y-77112514D01*
X114223809Y-77112514D02*
X114261905Y-77188704D01*
X114261905Y-77188704D02*
X114300000Y-77226800D01*
X114300000Y-77226800D02*
X114376190Y-77264895D01*
X114376190Y-77264895D02*
X114528571Y-77264895D01*
X114528571Y-77264895D02*
X114604762Y-77226800D01*
X114604762Y-77226800D02*
X114642857Y-77188704D01*
X114642857Y-77188704D02*
X114680952Y-77112514D01*
X114680952Y-77112514D02*
X114680952Y-76922038D01*
X114680952Y-76922038D02*
X114642857Y-76845847D01*
X114642857Y-76845847D02*
X114604762Y-76807752D01*
X114604762Y-76807752D02*
X114528571Y-76769657D01*
X114528571Y-76769657D02*
X114376190Y-76769657D01*
X114376190Y-76769657D02*
X114300000Y-76807752D01*
X114300000Y-76807752D02*
X114261905Y-76845847D01*
X114261905Y-76845847D02*
X114223809Y-76922038D01*
X115138095Y-76807752D02*
X115061905Y-76769657D01*
X115061905Y-76769657D02*
X115023810Y-76731561D01*
X115023810Y-76731561D02*
X114985714Y-76655371D01*
X114985714Y-76655371D02*
X114985714Y-76617276D01*
X114985714Y-76617276D02*
X115023810Y-76541085D01*
X115023810Y-76541085D02*
X115061905Y-76502990D01*
X115061905Y-76502990D02*
X115138095Y-76464895D01*
X115138095Y-76464895D02*
X115290476Y-76464895D01*
X115290476Y-76464895D02*
X115366667Y-76502990D01*
X115366667Y-76502990D02*
X115404762Y-76541085D01*
X115404762Y-76541085D02*
X115442857Y-76617276D01*
X115442857Y-76617276D02*
X115442857Y-76655371D01*
X115442857Y-76655371D02*
X115404762Y-76731561D01*
X115404762Y-76731561D02*
X115366667Y-76769657D01*
X115366667Y-76769657D02*
X115290476Y-76807752D01*
X115290476Y-76807752D02*
X115138095Y-76807752D01*
X115138095Y-76807752D02*
X115061905Y-76845847D01*
X115061905Y-76845847D02*
X115023810Y-76883942D01*
X115023810Y-76883942D02*
X114985714Y-76960133D01*
X114985714Y-76960133D02*
X114985714Y-77112514D01*
X114985714Y-77112514D02*
X115023810Y-77188704D01*
X115023810Y-77188704D02*
X115061905Y-77226800D01*
X115061905Y-77226800D02*
X115138095Y-77264895D01*
X115138095Y-77264895D02*
X115290476Y-77264895D01*
X115290476Y-77264895D02*
X115366667Y-77226800D01*
X115366667Y-77226800D02*
X115404762Y-77188704D01*
X115404762Y-77188704D02*
X115442857Y-77112514D01*
X115442857Y-77112514D02*
X115442857Y-76960133D01*
X115442857Y-76960133D02*
X115404762Y-76883942D01*
X115404762Y-76883942D02*
X115366667Y-76845847D01*
X115366667Y-76845847D02*
X115290476Y-76807752D01*
X115747619Y-77226800D02*
X115861905Y-77264895D01*
X115861905Y-77264895D02*
X116052381Y-77264895D01*
X116052381Y-77264895D02*
X116128572Y-77226800D01*
X116128572Y-77226800D02*
X116166667Y-77188704D01*
X116166667Y-77188704D02*
X116204762Y-77112514D01*
X116204762Y-77112514D02*
X116204762Y-77036323D01*
X116204762Y-77036323D02*
X116166667Y-76960133D01*
X116166667Y-76960133D02*
X116128572Y-76922038D01*
X116128572Y-76922038D02*
X116052381Y-76883942D01*
X116052381Y-76883942D02*
X115900000Y-76845847D01*
X115900000Y-76845847D02*
X115823810Y-76807752D01*
X115823810Y-76807752D02*
X115785715Y-76769657D01*
X115785715Y-76769657D02*
X115747619Y-76693466D01*
X115747619Y-76693466D02*
X115747619Y-76617276D01*
X115747619Y-76617276D02*
X115785715Y-76541085D01*
X115785715Y-76541085D02*
X115823810Y-76502990D01*
X115823810Y-76502990D02*
X115900000Y-76464895D01*
X115900000Y-76464895D02*
X116090477Y-76464895D01*
X116090477Y-76464895D02*
X116204762Y-76502990D01*
X116509524Y-76541085D02*
X116547620Y-76502990D01*
X116547620Y-76502990D02*
X116623810Y-76464895D01*
X116623810Y-76464895D02*
X116814286Y-76464895D01*
X116814286Y-76464895D02*
X116890477Y-76502990D01*
X116890477Y-76502990D02*
X116928572Y-76541085D01*
X116928572Y-76541085D02*
X116966667Y-76617276D01*
X116966667Y-76617276D02*
X116966667Y-76693466D01*
X116966667Y-76693466D02*
X116928572Y-76807752D01*
X116928572Y-76807752D02*
X116471429Y-77264895D01*
X116471429Y-77264895D02*
X116966667Y-77264895D01*
X100914895Y-41263333D02*
X101714895Y-40729999D01*
X100914895Y-40729999D02*
X101714895Y-41263333D01*
X101714895Y-40425237D02*
X100914895Y-40425237D01*
X101486323Y-40082381D02*
X101486323Y-39701428D01*
X101714895Y-40158571D02*
X100914895Y-39891904D01*
X100914895Y-39891904D02*
X101714895Y-39625238D01*
X100914895Y-39206190D02*
X100914895Y-39053809D01*
X100914895Y-39053809D02*
X100952990Y-38977619D01*
X100952990Y-38977619D02*
X101029180Y-38901428D01*
X101029180Y-38901428D02*
X101181561Y-38863333D01*
X101181561Y-38863333D02*
X101448228Y-38863333D01*
X101448228Y-38863333D02*
X101600609Y-38901428D01*
X101600609Y-38901428D02*
X101676800Y-38977619D01*
X101676800Y-38977619D02*
X101714895Y-39053809D01*
X101714895Y-39053809D02*
X101714895Y-39206190D01*
X101714895Y-39206190D02*
X101676800Y-39282381D01*
X101676800Y-39282381D02*
X101600609Y-39358571D01*
X101600609Y-39358571D02*
X101448228Y-39396667D01*
X101448228Y-39396667D02*
X101181561Y-39396667D01*
X101181561Y-39396667D02*
X101029180Y-39358571D01*
X101029180Y-39358571D02*
X100952990Y-39282381D01*
X100952990Y-39282381D02*
X100914895Y-39206190D01*
X101181561Y-37910952D02*
X101714895Y-37910952D01*
X101257752Y-37910952D02*
X101219657Y-37872857D01*
X101219657Y-37872857D02*
X101181561Y-37796667D01*
X101181561Y-37796667D02*
X101181561Y-37682381D01*
X101181561Y-37682381D02*
X101219657Y-37606190D01*
X101219657Y-37606190D02*
X101295847Y-37568095D01*
X101295847Y-37568095D02*
X101714895Y-37568095D01*
X101714895Y-36729999D02*
X101333942Y-36996666D01*
X101714895Y-37187142D02*
X100914895Y-37187142D01*
X100914895Y-37187142D02*
X100914895Y-36882380D01*
X100914895Y-36882380D02*
X100952990Y-36806190D01*
X100952990Y-36806190D02*
X100991085Y-36768095D01*
X100991085Y-36768095D02*
X101067276Y-36729999D01*
X101067276Y-36729999D02*
X101181561Y-36729999D01*
X101181561Y-36729999D02*
X101257752Y-36768095D01*
X101257752Y-36768095D02*
X101295847Y-36806190D01*
X101295847Y-36806190D02*
X101333942Y-36882380D01*
X101333942Y-36882380D02*
X101333942Y-37187142D01*
X101295847Y-36120476D02*
X101295847Y-36387142D01*
X101714895Y-36387142D02*
X100914895Y-36387142D01*
X100914895Y-36387142D02*
X100914895Y-36006190D01*
X100914895Y-35320476D02*
X100914895Y-35701428D01*
X100914895Y-35701428D02*
X101295847Y-35739524D01*
X101295847Y-35739524D02*
X101257752Y-35701428D01*
X101257752Y-35701428D02*
X101219657Y-35625238D01*
X101219657Y-35625238D02*
X101219657Y-35434762D01*
X101219657Y-35434762D02*
X101257752Y-35358571D01*
X101257752Y-35358571D02*
X101295847Y-35320476D01*
X101295847Y-35320476D02*
X101372038Y-35282381D01*
X101372038Y-35282381D02*
X101562514Y-35282381D01*
X101562514Y-35282381D02*
X101638704Y-35320476D01*
X101638704Y-35320476D02*
X101676800Y-35358571D01*
X101676800Y-35358571D02*
X101714895Y-35434762D01*
X101714895Y-35434762D02*
X101714895Y-35625238D01*
X101714895Y-35625238D02*
X101676800Y-35701428D01*
X101676800Y-35701428D02*
X101638704Y-35739524D01*
X100991085Y-34977619D02*
X100952990Y-34939523D01*
X100952990Y-34939523D02*
X100914895Y-34863333D01*
X100914895Y-34863333D02*
X100914895Y-34672857D01*
X100914895Y-34672857D02*
X100952990Y-34596666D01*
X100952990Y-34596666D02*
X100991085Y-34558571D01*
X100991085Y-34558571D02*
X101067276Y-34520476D01*
X101067276Y-34520476D02*
X101143466Y-34520476D01*
X101143466Y-34520476D02*
X101257752Y-34558571D01*
X101257752Y-34558571D02*
X101714895Y-35015714D01*
X101714895Y-35015714D02*
X101714895Y-34520476D01*
X101257752Y-34063333D02*
X101219657Y-34139523D01*
X101219657Y-34139523D02*
X101181561Y-34177618D01*
X101181561Y-34177618D02*
X101105371Y-34215714D01*
X101105371Y-34215714D02*
X101067276Y-34215714D01*
X101067276Y-34215714D02*
X100991085Y-34177618D01*
X100991085Y-34177618D02*
X100952990Y-34139523D01*
X100952990Y-34139523D02*
X100914895Y-34063333D01*
X100914895Y-34063333D02*
X100914895Y-33910952D01*
X100914895Y-33910952D02*
X100952990Y-33834761D01*
X100952990Y-33834761D02*
X100991085Y-33796666D01*
X100991085Y-33796666D02*
X101067276Y-33758571D01*
X101067276Y-33758571D02*
X101105371Y-33758571D01*
X101105371Y-33758571D02*
X101181561Y-33796666D01*
X101181561Y-33796666D02*
X101219657Y-33834761D01*
X101219657Y-33834761D02*
X101257752Y-33910952D01*
X101257752Y-33910952D02*
X101257752Y-34063333D01*
X101257752Y-34063333D02*
X101295847Y-34139523D01*
X101295847Y-34139523D02*
X101333942Y-34177618D01*
X101333942Y-34177618D02*
X101410133Y-34215714D01*
X101410133Y-34215714D02*
X101562514Y-34215714D01*
X101562514Y-34215714D02*
X101638704Y-34177618D01*
X101638704Y-34177618D02*
X101676800Y-34139523D01*
X101676800Y-34139523D02*
X101714895Y-34063333D01*
X101714895Y-34063333D02*
X101714895Y-33910952D01*
X101714895Y-33910952D02*
X101676800Y-33834761D01*
X101676800Y-33834761D02*
X101638704Y-33796666D01*
X101638704Y-33796666D02*
X101562514Y-33758571D01*
X101562514Y-33758571D02*
X101410133Y-33758571D01*
X101410133Y-33758571D02*
X101333942Y-33796666D01*
X101333942Y-33796666D02*
X101295847Y-33834761D01*
X101295847Y-33834761D02*
X101257752Y-33910952D01*
X101181561Y-33072856D02*
X101714895Y-33072856D01*
X100876800Y-33263332D02*
X101448228Y-33453809D01*
X101448228Y-33453809D02*
X101448228Y-32958570D01*
X100914895Y-32501427D02*
X100914895Y-32425237D01*
X100914895Y-32425237D02*
X100952990Y-32349046D01*
X100952990Y-32349046D02*
X100991085Y-32310951D01*
X100991085Y-32310951D02*
X101067276Y-32272856D01*
X101067276Y-32272856D02*
X101219657Y-32234761D01*
X101219657Y-32234761D02*
X101410133Y-32234761D01*
X101410133Y-32234761D02*
X101562514Y-32272856D01*
X101562514Y-32272856D02*
X101638704Y-32310951D01*
X101638704Y-32310951D02*
X101676800Y-32349046D01*
X101676800Y-32349046D02*
X101714895Y-32425237D01*
X101714895Y-32425237D02*
X101714895Y-32501427D01*
X101714895Y-32501427D02*
X101676800Y-32577618D01*
X101676800Y-32577618D02*
X101638704Y-32615713D01*
X101638704Y-32615713D02*
X101562514Y-32653808D01*
X101562514Y-32653808D02*
X101410133Y-32691904D01*
X101410133Y-32691904D02*
X101219657Y-32691904D01*
X101219657Y-32691904D02*
X101067276Y-32653808D01*
X101067276Y-32653808D02*
X100991085Y-32615713D01*
X100991085Y-32615713D02*
X100952990Y-32577618D01*
X100952990Y-32577618D02*
X100914895Y-32501427D01*
X120036895Y-61205163D02*
X120608323Y-61205163D01*
X120608323Y-61205163D02*
X120722609Y-61243258D01*
X120722609Y-61243258D02*
X120798800Y-61319449D01*
X120798800Y-61319449D02*
X120836895Y-61433734D01*
X120836895Y-61433734D02*
X120836895Y-61509925D01*
X120036895Y-60481353D02*
X120036895Y-60633734D01*
X120036895Y-60633734D02*
X120074990Y-60709925D01*
X120074990Y-60709925D02*
X120113085Y-60748020D01*
X120113085Y-60748020D02*
X120227371Y-60824210D01*
X120227371Y-60824210D02*
X120379752Y-60862306D01*
X120379752Y-60862306D02*
X120684514Y-60862306D01*
X120684514Y-60862306D02*
X120760704Y-60824210D01*
X120760704Y-60824210D02*
X120798800Y-60786115D01*
X120798800Y-60786115D02*
X120836895Y-60709925D01*
X120836895Y-60709925D02*
X120836895Y-60557544D01*
X120836895Y-60557544D02*
X120798800Y-60481353D01*
X120798800Y-60481353D02*
X120760704Y-60443258D01*
X120760704Y-60443258D02*
X120684514Y-60405163D01*
X120684514Y-60405163D02*
X120494038Y-60405163D01*
X120494038Y-60405163D02*
X120417847Y-60443258D01*
X120417847Y-60443258D02*
X120379752Y-60481353D01*
X120379752Y-60481353D02*
X120341657Y-60557544D01*
X120341657Y-60557544D02*
X120341657Y-60709925D01*
X120341657Y-60709925D02*
X120379752Y-60786115D01*
X120379752Y-60786115D02*
X120417847Y-60824210D01*
X120417847Y-60824210D02*
X120494038Y-60862306D01*
X120206895Y-40565163D02*
X120778323Y-40565163D01*
X120778323Y-40565163D02*
X120892609Y-40603258D01*
X120892609Y-40603258D02*
X120968800Y-40679449D01*
X120968800Y-40679449D02*
X121006895Y-40793734D01*
X121006895Y-40793734D02*
X121006895Y-40869925D01*
X120206895Y-40260401D02*
X120206895Y-39727067D01*
X120206895Y-39727067D02*
X121006895Y-40069925D01*
X90713104Y-65714836D02*
X90141676Y-65714836D01*
X90141676Y-65714836D02*
X90027390Y-65676741D01*
X90027390Y-65676741D02*
X89951200Y-65600550D01*
X89951200Y-65600550D02*
X89913104Y-65486265D01*
X89913104Y-65486265D02*
X89913104Y-65410074D01*
X90446438Y-66438646D02*
X89913104Y-66438646D01*
X90751200Y-66248170D02*
X90179771Y-66057693D01*
X90179771Y-66057693D02*
X90179771Y-66552932D01*
D12*
X102115680Y-71482356D02*
X102153775Y-71368070D01*
X102153775Y-71368070D02*
X102153775Y-71177594D01*
X102153775Y-71177594D02*
X102115680Y-71101403D01*
X102115680Y-71101403D02*
X102077584Y-71063308D01*
X102077584Y-71063308D02*
X102001394Y-71025213D01*
X102001394Y-71025213D02*
X101925203Y-71025213D01*
X101925203Y-71025213D02*
X101849013Y-71063308D01*
X101849013Y-71063308D02*
X101810918Y-71101403D01*
X101810918Y-71101403D02*
X101772822Y-71177594D01*
X101772822Y-71177594D02*
X101734727Y-71329975D01*
X101734727Y-71329975D02*
X101696632Y-71406165D01*
X101696632Y-71406165D02*
X101658537Y-71444260D01*
X101658537Y-71444260D02*
X101582346Y-71482356D01*
X101582346Y-71482356D02*
X101506156Y-71482356D01*
X101506156Y-71482356D02*
X101429965Y-71444260D01*
X101429965Y-71444260D02*
X101391870Y-71406165D01*
X101391870Y-71406165D02*
X101353775Y-71329975D01*
X101353775Y-71329975D02*
X101353775Y-71139498D01*
X101353775Y-71139498D02*
X101391870Y-71025213D01*
X102115680Y-70377593D02*
X102153775Y-70453784D01*
X102153775Y-70453784D02*
X102153775Y-70606165D01*
X102153775Y-70606165D02*
X102115680Y-70682355D01*
X102115680Y-70682355D02*
X102039489Y-70720451D01*
X102039489Y-70720451D02*
X101734727Y-70720451D01*
X101734727Y-70720451D02*
X101658537Y-70682355D01*
X101658537Y-70682355D02*
X101620441Y-70606165D01*
X101620441Y-70606165D02*
X101620441Y-70453784D01*
X101620441Y-70453784D02*
X101658537Y-70377593D01*
X101658537Y-70377593D02*
X101734727Y-70339498D01*
X101734727Y-70339498D02*
X101810918Y-70339498D01*
X101810918Y-70339498D02*
X101887108Y-70720451D01*
X101620441Y-69996641D02*
X102153775Y-69996641D01*
X101696632Y-69996641D02*
X101658537Y-69958546D01*
X101658537Y-69958546D02*
X101620441Y-69882356D01*
X101620441Y-69882356D02*
X101620441Y-69768070D01*
X101620441Y-69768070D02*
X101658537Y-69691879D01*
X101658537Y-69691879D02*
X101734727Y-69653784D01*
X101734727Y-69653784D02*
X102153775Y-69653784D01*
X102115680Y-69310927D02*
X102153775Y-69234736D01*
X102153775Y-69234736D02*
X102153775Y-69082355D01*
X102153775Y-69082355D02*
X102115680Y-69006165D01*
X102115680Y-69006165D02*
X102039489Y-68968069D01*
X102039489Y-68968069D02*
X102001394Y-68968069D01*
X102001394Y-68968069D02*
X101925203Y-69006165D01*
X101925203Y-69006165D02*
X101887108Y-69082355D01*
X101887108Y-69082355D02*
X101887108Y-69196641D01*
X101887108Y-69196641D02*
X101849013Y-69272831D01*
X101849013Y-69272831D02*
X101772822Y-69310927D01*
X101772822Y-69310927D02*
X101734727Y-69310927D01*
X101734727Y-69310927D02*
X101658537Y-69272831D01*
X101658537Y-69272831D02*
X101620441Y-69196641D01*
X101620441Y-69196641D02*
X101620441Y-69082355D01*
X101620441Y-69082355D02*
X101658537Y-69006165D01*
X102115680Y-68320450D02*
X102153775Y-68396641D01*
X102153775Y-68396641D02*
X102153775Y-68549022D01*
X102153775Y-68549022D02*
X102115680Y-68625212D01*
X102115680Y-68625212D02*
X102039489Y-68663308D01*
X102039489Y-68663308D02*
X101734727Y-68663308D01*
X101734727Y-68663308D02*
X101658537Y-68625212D01*
X101658537Y-68625212D02*
X101620441Y-68549022D01*
X101620441Y-68549022D02*
X101620441Y-68396641D01*
X101620441Y-68396641D02*
X101658537Y-68320450D01*
X101658537Y-68320450D02*
X101734727Y-68282355D01*
X101734727Y-68282355D02*
X101810918Y-68282355D01*
X101810918Y-68282355D02*
X101887108Y-68663308D01*
X102153775Y-67939498D02*
X101353775Y-67939498D01*
X101353775Y-67939498D02*
X101925203Y-67672832D01*
X101925203Y-67672832D02*
X101353775Y-67406165D01*
X101353775Y-67406165D02*
X102153775Y-67406165D01*
X102153775Y-66682355D02*
X101734727Y-66682355D01*
X101734727Y-66682355D02*
X101658537Y-66720450D01*
X101658537Y-66720450D02*
X101620441Y-66796641D01*
X101620441Y-66796641D02*
X101620441Y-66949022D01*
X101620441Y-66949022D02*
X101658537Y-67025212D01*
X102115680Y-66682355D02*
X102153775Y-66758546D01*
X102153775Y-66758546D02*
X102153775Y-66949022D01*
X102153775Y-66949022D02*
X102115680Y-67025212D01*
X102115680Y-67025212D02*
X102039489Y-67063308D01*
X102039489Y-67063308D02*
X101963299Y-67063308D01*
X101963299Y-67063308D02*
X101887108Y-67025212D01*
X101887108Y-67025212D02*
X101849013Y-66949022D01*
X101849013Y-66949022D02*
X101849013Y-66758546D01*
X101849013Y-66758546D02*
X101810918Y-66682355D01*
X101620441Y-66415688D02*
X101620441Y-66110926D01*
X101353775Y-66301402D02*
X102039489Y-66301402D01*
X102039489Y-66301402D02*
X102115680Y-66263307D01*
X102115680Y-66263307D02*
X102153775Y-66187117D01*
X102153775Y-66187117D02*
X102153775Y-66110926D01*
X102115680Y-65539497D02*
X102153775Y-65615688D01*
X102153775Y-65615688D02*
X102153775Y-65768069D01*
X102153775Y-65768069D02*
X102115680Y-65844259D01*
X102115680Y-65844259D02*
X102039489Y-65882355D01*
X102039489Y-65882355D02*
X101734727Y-65882355D01*
X101734727Y-65882355D02*
X101658537Y-65844259D01*
X101658537Y-65844259D02*
X101620441Y-65768069D01*
X101620441Y-65768069D02*
X101620441Y-65615688D01*
X101620441Y-65615688D02*
X101658537Y-65539497D01*
X101658537Y-65539497D02*
X101734727Y-65501402D01*
X101734727Y-65501402D02*
X101810918Y-65501402D01*
X101810918Y-65501402D02*
X101887108Y-65882355D01*
X101620441Y-64625212D02*
X102153775Y-64434736D01*
X102153775Y-64434736D02*
X101620441Y-64244259D01*
X101429965Y-63977593D02*
X101391870Y-63939497D01*
X101391870Y-63939497D02*
X101353775Y-63863307D01*
X101353775Y-63863307D02*
X101353775Y-63672831D01*
X101353775Y-63672831D02*
X101391870Y-63596640D01*
X101391870Y-63596640D02*
X101429965Y-63558545D01*
X101429965Y-63558545D02*
X101506156Y-63520450D01*
X101506156Y-63520450D02*
X101582346Y-63520450D01*
X101582346Y-63520450D02*
X101696632Y-63558545D01*
X101696632Y-63558545D02*
X102153775Y-64015688D01*
X102153775Y-64015688D02*
X102153775Y-63520450D01*
D11*
X114072712Y-31323500D02*
X114215569Y-31371119D01*
X114215569Y-31371119D02*
X114453664Y-31371119D01*
X114453664Y-31371119D02*
X114548902Y-31323500D01*
X114548902Y-31323500D02*
X114596521Y-31275880D01*
X114596521Y-31275880D02*
X114644140Y-31180642D01*
X114644140Y-31180642D02*
X114644140Y-31085404D01*
X114644140Y-31085404D02*
X114596521Y-30990166D01*
X114596521Y-30990166D02*
X114548902Y-30942547D01*
X114548902Y-30942547D02*
X114453664Y-30894928D01*
X114453664Y-30894928D02*
X114263188Y-30847309D01*
X114263188Y-30847309D02*
X114167950Y-30799690D01*
X114167950Y-30799690D02*
X114120331Y-30752071D01*
X114120331Y-30752071D02*
X114072712Y-30656833D01*
X114072712Y-30656833D02*
X114072712Y-30561595D01*
X114072712Y-30561595D02*
X114120331Y-30466357D01*
X114120331Y-30466357D02*
X114167950Y-30418738D01*
X114167950Y-30418738D02*
X114263188Y-30371119D01*
X114263188Y-30371119D02*
X114501283Y-30371119D01*
X114501283Y-30371119D02*
X114644140Y-30418738D01*
X114977474Y-30704452D02*
X115167950Y-31371119D01*
X115167950Y-31371119D02*
X115358426Y-30894928D01*
X115358426Y-30894928D02*
X115548902Y-31371119D01*
X115548902Y-31371119D02*
X115739378Y-30704452D01*
X116120331Y-31371119D02*
X116120331Y-30704452D01*
X116120331Y-30371119D02*
X116072712Y-30418738D01*
X116072712Y-30418738D02*
X116120331Y-30466357D01*
X116120331Y-30466357D02*
X116167950Y-30418738D01*
X116167950Y-30418738D02*
X116120331Y-30371119D01*
X116120331Y-30371119D02*
X116120331Y-30466357D01*
X116453664Y-30704452D02*
X116834616Y-30704452D01*
X116596521Y-30371119D02*
X116596521Y-31228261D01*
X116596521Y-31228261D02*
X116644140Y-31323500D01*
X116644140Y-31323500D02*
X116739378Y-31371119D01*
X116739378Y-31371119D02*
X116834616Y-31371119D01*
X117596521Y-31323500D02*
X117501283Y-31371119D01*
X117501283Y-31371119D02*
X117310807Y-31371119D01*
X117310807Y-31371119D02*
X117215569Y-31323500D01*
X117215569Y-31323500D02*
X117167950Y-31275880D01*
X117167950Y-31275880D02*
X117120331Y-31180642D01*
X117120331Y-31180642D02*
X117120331Y-30894928D01*
X117120331Y-30894928D02*
X117167950Y-30799690D01*
X117167950Y-30799690D02*
X117215569Y-30752071D01*
X117215569Y-30752071D02*
X117310807Y-30704452D01*
X117310807Y-30704452D02*
X117501283Y-30704452D01*
X117501283Y-30704452D02*
X117596521Y-30752071D01*
X118025093Y-31371119D02*
X118025093Y-30371119D01*
X118453664Y-31371119D02*
X118453664Y-30847309D01*
X118453664Y-30847309D02*
X118406045Y-30752071D01*
X118406045Y-30752071D02*
X118310807Y-30704452D01*
X118310807Y-30704452D02*
X118167950Y-30704452D01*
X118167950Y-30704452D02*
X118072712Y-30752071D01*
X118072712Y-30752071D02*
X118025093Y-30799690D01*
X93071119Y-80222525D02*
X93071119Y-79651097D01*
X94071119Y-79936811D02*
X93071119Y-79936811D01*
X94071119Y-79317763D02*
X93071119Y-79317763D01*
X94071119Y-78889192D02*
X93547309Y-78889192D01*
X93547309Y-78889192D02*
X93452071Y-78936811D01*
X93452071Y-78936811D02*
X93404452Y-79032049D01*
X93404452Y-79032049D02*
X93404452Y-79174906D01*
X93404452Y-79174906D02*
X93452071Y-79270144D01*
X93452071Y-79270144D02*
X93499690Y-79317763D01*
X93404452Y-77984430D02*
X94071119Y-77984430D01*
X93404452Y-78413001D02*
X93928261Y-78413001D01*
X93928261Y-78413001D02*
X94023500Y-78365382D01*
X94023500Y-78365382D02*
X94071119Y-78270144D01*
X94071119Y-78270144D02*
X94071119Y-78127287D01*
X94071119Y-78127287D02*
X94023500Y-78032049D01*
X94023500Y-78032049D02*
X93975880Y-77984430D01*
X94071119Y-77508239D02*
X93404452Y-77508239D01*
X93499690Y-77508239D02*
X93452071Y-77460620D01*
X93452071Y-77460620D02*
X93404452Y-77365382D01*
X93404452Y-77365382D02*
X93404452Y-77222525D01*
X93404452Y-77222525D02*
X93452071Y-77127287D01*
X93452071Y-77127287D02*
X93547309Y-77079668D01*
X93547309Y-77079668D02*
X94071119Y-77079668D01*
X93547309Y-77079668D02*
X93452071Y-77032049D01*
X93452071Y-77032049D02*
X93404452Y-76936811D01*
X93404452Y-76936811D02*
X93404452Y-76793954D01*
X93404452Y-76793954D02*
X93452071Y-76698715D01*
X93452071Y-76698715D02*
X93547309Y-76651096D01*
X93547309Y-76651096D02*
X94071119Y-76651096D01*
X94071119Y-76174906D02*
X93071119Y-76174906D01*
X93452071Y-76174906D02*
X93404452Y-76079668D01*
X93404452Y-76079668D02*
X93404452Y-75889192D01*
X93404452Y-75889192D02*
X93452071Y-75793954D01*
X93452071Y-75793954D02*
X93499690Y-75746335D01*
X93499690Y-75746335D02*
X93594928Y-75698716D01*
X93594928Y-75698716D02*
X93880642Y-75698716D01*
X93880642Y-75698716D02*
X93975880Y-75746335D01*
X93975880Y-75746335D02*
X94023500Y-75793954D01*
X94023500Y-75793954D02*
X94071119Y-75889192D01*
X94071119Y-75889192D02*
X94071119Y-76079668D01*
X94071119Y-76079668D02*
X94023500Y-76174906D01*
X94023500Y-75317763D02*
X94071119Y-75222525D01*
X94071119Y-75222525D02*
X94071119Y-75032049D01*
X94071119Y-75032049D02*
X94023500Y-74936811D01*
X94023500Y-74936811D02*
X93928261Y-74889192D01*
X93928261Y-74889192D02*
X93880642Y-74889192D01*
X93880642Y-74889192D02*
X93785404Y-74936811D01*
X93785404Y-74936811D02*
X93737785Y-75032049D01*
X93737785Y-75032049D02*
X93737785Y-75174906D01*
X93737785Y-75174906D02*
X93690166Y-75270144D01*
X93690166Y-75270144D02*
X93594928Y-75317763D01*
X93594928Y-75317763D02*
X93547309Y-75317763D01*
X93547309Y-75317763D02*
X93452071Y-75270144D01*
X93452071Y-75270144D02*
X93404452Y-75174906D01*
X93404452Y-75174906D02*
X93404452Y-75032049D01*
X93404452Y-75032049D02*
X93452071Y-74936811D01*
X93404452Y-74603477D02*
X93404452Y-74222525D01*
X93071119Y-74460620D02*
X93928261Y-74460620D01*
X93928261Y-74460620D02*
X94023500Y-74413001D01*
X94023500Y-74413001D02*
X94071119Y-74317763D01*
X94071119Y-74317763D02*
X94071119Y-74222525D01*
X94071119Y-73889191D02*
X93404452Y-73889191D01*
X93071119Y-73889191D02*
X93118738Y-73936810D01*
X93118738Y-73936810D02*
X93166357Y-73889191D01*
X93166357Y-73889191D02*
X93118738Y-73841572D01*
X93118738Y-73841572D02*
X93071119Y-73889191D01*
X93071119Y-73889191D02*
X93166357Y-73889191D01*
X94023500Y-72984430D02*
X94071119Y-73079668D01*
X94071119Y-73079668D02*
X94071119Y-73270144D01*
X94071119Y-73270144D02*
X94023500Y-73365382D01*
X94023500Y-73365382D02*
X93975880Y-73413001D01*
X93975880Y-73413001D02*
X93880642Y-73460620D01*
X93880642Y-73460620D02*
X93594928Y-73460620D01*
X93594928Y-73460620D02*
X93499690Y-73413001D01*
X93499690Y-73413001D02*
X93452071Y-73365382D01*
X93452071Y-73365382D02*
X93404452Y-73270144D01*
X93404452Y-73270144D02*
X93404452Y-73079668D01*
X93404452Y-73079668D02*
X93452071Y-72984430D01*
X94071119Y-72555858D02*
X93071119Y-72555858D01*
X93690166Y-72460620D02*
X94071119Y-72174906D01*
X93404452Y-72174906D02*
X93785404Y-72555858D01*
D10*
X89763333Y-27434895D02*
X89763333Y-28006323D01*
X89763333Y-28006323D02*
X89725238Y-28120609D01*
X89725238Y-28120609D02*
X89649047Y-28196800D01*
X89649047Y-28196800D02*
X89534762Y-28234895D01*
X89534762Y-28234895D02*
X89458571Y-28234895D01*
X90106190Y-27511085D02*
X90144286Y-27472990D01*
X90144286Y-27472990D02*
X90220476Y-27434895D01*
X90220476Y-27434895D02*
X90410952Y-27434895D01*
X90410952Y-27434895D02*
X90487143Y-27472990D01*
X90487143Y-27472990D02*
X90525238Y-27511085D01*
X90525238Y-27511085D02*
X90563333Y-27587276D01*
X90563333Y-27587276D02*
X90563333Y-27663466D01*
X90563333Y-27663466D02*
X90525238Y-27777752D01*
X90525238Y-27777752D02*
X90068095Y-28234895D01*
X90068095Y-28234895D02*
X90563333Y-28234895D01*
X115133332Y-28236800D02*
X115247618Y-28274895D01*
X115247618Y-28274895D02*
X115438094Y-28274895D01*
X115438094Y-28274895D02*
X115514285Y-28236800D01*
X115514285Y-28236800D02*
X115552380Y-28198704D01*
X115552380Y-28198704D02*
X115590475Y-28122514D01*
X115590475Y-28122514D02*
X115590475Y-28046323D01*
X115590475Y-28046323D02*
X115552380Y-27970133D01*
X115552380Y-27970133D02*
X115514285Y-27932038D01*
X115514285Y-27932038D02*
X115438094Y-27893942D01*
X115438094Y-27893942D02*
X115285713Y-27855847D01*
X115285713Y-27855847D02*
X115209523Y-27817752D01*
X115209523Y-27817752D02*
X115171428Y-27779657D01*
X115171428Y-27779657D02*
X115133332Y-27703466D01*
X115133332Y-27703466D02*
X115133332Y-27627276D01*
X115133332Y-27627276D02*
X115171428Y-27551085D01*
X115171428Y-27551085D02*
X115209523Y-27512990D01*
X115209523Y-27512990D02*
X115285713Y-27474895D01*
X115285713Y-27474895D02*
X115476190Y-27474895D01*
X115476190Y-27474895D02*
X115590475Y-27512990D01*
X115857142Y-27474895D02*
X116047618Y-28274895D01*
X116047618Y-28274895D02*
X116199999Y-27703466D01*
X116199999Y-27703466D02*
X116352380Y-28274895D01*
X116352380Y-28274895D02*
X116542857Y-27474895D01*
X117228571Y-27474895D02*
X116847619Y-27474895D01*
X116847619Y-27474895D02*
X116809523Y-27855847D01*
X116809523Y-27855847D02*
X116847619Y-27817752D01*
X116847619Y-27817752D02*
X116923809Y-27779657D01*
X116923809Y-27779657D02*
X117114285Y-27779657D01*
X117114285Y-27779657D02*
X117190476Y-27817752D01*
X117190476Y-27817752D02*
X117228571Y-27855847D01*
X117228571Y-27855847D02*
X117266666Y-27932038D01*
X117266666Y-27932038D02*
X117266666Y-28122514D01*
X117266666Y-28122514D02*
X117228571Y-28198704D01*
X117228571Y-28198704D02*
X117190476Y-28236800D01*
X117190476Y-28236800D02*
X117114285Y-28274895D01*
X117114285Y-28274895D02*
X116923809Y-28274895D01*
X116923809Y-28274895D02*
X116847619Y-28236800D01*
X116847619Y-28236800D02*
X116809523Y-28198704D01*
X94474895Y-49386666D02*
X95046323Y-49386666D01*
X95046323Y-49386666D02*
X95160609Y-49424761D01*
X95160609Y-49424761D02*
X95236800Y-49500952D01*
X95236800Y-49500952D02*
X95274895Y-49615237D01*
X95274895Y-49615237D02*
X95274895Y-49691428D01*
X94474895Y-48624761D02*
X94474895Y-49005713D01*
X94474895Y-49005713D02*
X94855847Y-49043809D01*
X94855847Y-49043809D02*
X94817752Y-49005713D01*
X94817752Y-49005713D02*
X94779657Y-48929523D01*
X94779657Y-48929523D02*
X94779657Y-48739047D01*
X94779657Y-48739047D02*
X94817752Y-48662856D01*
X94817752Y-48662856D02*
X94855847Y-48624761D01*
X94855847Y-48624761D02*
X94932038Y-48586666D01*
X94932038Y-48586666D02*
X95122514Y-48586666D01*
X95122514Y-48586666D02*
X95198704Y-48624761D01*
X95198704Y-48624761D02*
X95236800Y-48662856D01*
X95236800Y-48662856D02*
X95274895Y-48739047D01*
X95274895Y-48739047D02*
X95274895Y-48929523D01*
X95274895Y-48929523D02*
X95236800Y-49005713D01*
X95236800Y-49005713D02*
X95198704Y-49043809D01*
X114908333Y-81489895D02*
X114908333Y-82061323D01*
X114908333Y-82061323D02*
X114870238Y-82175609D01*
X114870238Y-82175609D02*
X114794047Y-82251800D01*
X114794047Y-82251800D02*
X114679762Y-82289895D01*
X114679762Y-82289895D02*
X114603571Y-82289895D01*
X115213095Y-81489895D02*
X115708333Y-81489895D01*
X115708333Y-81489895D02*
X115441667Y-81794657D01*
X115441667Y-81794657D02*
X115555952Y-81794657D01*
X115555952Y-81794657D02*
X115632143Y-81832752D01*
X115632143Y-81832752D02*
X115670238Y-81870847D01*
X115670238Y-81870847D02*
X115708333Y-81947038D01*
X115708333Y-81947038D02*
X115708333Y-82137514D01*
X115708333Y-82137514D02*
X115670238Y-82213704D01*
X115670238Y-82213704D02*
X115632143Y-82251800D01*
X115632143Y-82251800D02*
X115555952Y-82289895D01*
X115555952Y-82289895D02*
X115327381Y-82289895D01*
X115327381Y-82289895D02*
X115251190Y-82251800D01*
X115251190Y-82251800D02*
X115213095Y-82213704D01*
X106796667Y-52754895D02*
X106530000Y-52373942D01*
X106339524Y-52754895D02*
X106339524Y-51954895D01*
X106339524Y-51954895D02*
X106644286Y-51954895D01*
X106644286Y-51954895D02*
X106720476Y-51992990D01*
X106720476Y-51992990D02*
X106758571Y-52031085D01*
X106758571Y-52031085D02*
X106796667Y-52107276D01*
X106796667Y-52107276D02*
X106796667Y-52221561D01*
X106796667Y-52221561D02*
X106758571Y-52297752D01*
X106758571Y-52297752D02*
X106720476Y-52335847D01*
X106720476Y-52335847D02*
X106644286Y-52373942D01*
X106644286Y-52373942D02*
X106339524Y-52373942D01*
X107558571Y-52754895D02*
X107101428Y-52754895D01*
X107330000Y-52754895D02*
X107330000Y-51954895D01*
X107330000Y-51954895D02*
X107253809Y-52069180D01*
X107253809Y-52069180D02*
X107177619Y-52145371D01*
X107177619Y-52145371D02*
X107101428Y-52183466D01*
D11*
X112976190Y-50256119D02*
X113642856Y-51256119D01*
X113642856Y-50256119D02*
X112976190Y-51256119D01*
X113880952Y-50256119D02*
X114452380Y-50256119D01*
X114166666Y-51256119D02*
X114166666Y-50256119D01*
X114738095Y-50970404D02*
X115214285Y-50970404D01*
X114642857Y-51256119D02*
X114976190Y-50256119D01*
X114976190Y-50256119D02*
X115309523Y-51256119D01*
X116119047Y-51256119D02*
X115642857Y-51256119D01*
X115642857Y-51256119D02*
X115642857Y-50256119D01*
X116976190Y-51256119D02*
X116404762Y-51256119D01*
X116690476Y-51256119D02*
X116690476Y-50256119D01*
X116690476Y-50256119D02*
X116595238Y-50398976D01*
X116595238Y-50398976D02*
X116500000Y-50494214D01*
X116500000Y-50494214D02*
X116404762Y-50541833D01*
X111866666Y-55785880D02*
X111819047Y-55833500D01*
X111819047Y-55833500D02*
X111676190Y-55881119D01*
X111676190Y-55881119D02*
X111580952Y-55881119D01*
X111580952Y-55881119D02*
X111438095Y-55833500D01*
X111438095Y-55833500D02*
X111342857Y-55738261D01*
X111342857Y-55738261D02*
X111295238Y-55643023D01*
X111295238Y-55643023D02*
X111247619Y-55452547D01*
X111247619Y-55452547D02*
X111247619Y-55309690D01*
X111247619Y-55309690D02*
X111295238Y-55119214D01*
X111295238Y-55119214D02*
X111342857Y-55023976D01*
X111342857Y-55023976D02*
X111438095Y-54928738D01*
X111438095Y-54928738D02*
X111580952Y-54881119D01*
X111580952Y-54881119D02*
X111676190Y-54881119D01*
X111676190Y-54881119D02*
X111819047Y-54928738D01*
X111819047Y-54928738D02*
X111866666Y-54976357D01*
X112866666Y-55881119D02*
X112533333Y-55404928D01*
X112295238Y-55881119D02*
X112295238Y-54881119D01*
X112295238Y-54881119D02*
X112676190Y-54881119D01*
X112676190Y-54881119D02*
X112771428Y-54928738D01*
X112771428Y-54928738D02*
X112819047Y-54976357D01*
X112819047Y-54976357D02*
X112866666Y-55071595D01*
X112866666Y-55071595D02*
X112866666Y-55214452D01*
X112866666Y-55214452D02*
X112819047Y-55309690D01*
X112819047Y-55309690D02*
X112771428Y-55357309D01*
X112771428Y-55357309D02*
X112676190Y-55404928D01*
X112676190Y-55404928D02*
X112295238Y-55404928D01*
X113485714Y-55404928D02*
X113485714Y-55881119D01*
X113152381Y-54881119D02*
X113485714Y-55404928D01*
X113485714Y-55404928D02*
X113819047Y-54881119D01*
X114104762Y-55833500D02*
X114247619Y-55881119D01*
X114247619Y-55881119D02*
X114485714Y-55881119D01*
X114485714Y-55881119D02*
X114580952Y-55833500D01*
X114580952Y-55833500D02*
X114628571Y-55785880D01*
X114628571Y-55785880D02*
X114676190Y-55690642D01*
X114676190Y-55690642D02*
X114676190Y-55595404D01*
X114676190Y-55595404D02*
X114628571Y-55500166D01*
X114628571Y-55500166D02*
X114580952Y-55452547D01*
X114580952Y-55452547D02*
X114485714Y-55404928D01*
X114485714Y-55404928D02*
X114295238Y-55357309D01*
X114295238Y-55357309D02*
X114200000Y-55309690D01*
X114200000Y-55309690D02*
X114152381Y-55262071D01*
X114152381Y-55262071D02*
X114104762Y-55166833D01*
X114104762Y-55166833D02*
X114104762Y-55071595D01*
X114104762Y-55071595D02*
X114152381Y-54976357D01*
X114152381Y-54976357D02*
X114200000Y-54928738D01*
X114200000Y-54928738D02*
X114295238Y-54881119D01*
X114295238Y-54881119D02*
X114533333Y-54881119D01*
X114533333Y-54881119D02*
X114676190Y-54928738D01*
X114961905Y-54881119D02*
X115533333Y-54881119D01*
X115247619Y-55881119D02*
X115247619Y-54881119D01*
X115819048Y-55595404D02*
X116295238Y-55595404D01*
X115723810Y-55881119D02*
X116057143Y-54881119D01*
X116057143Y-54881119D02*
X116390476Y-55881119D01*
X117200000Y-55881119D02*
X116723810Y-55881119D01*
X116723810Y-55881119D02*
X116723810Y-54881119D01*
X117533334Y-55881119D02*
X117533334Y-54881119D01*
X117533334Y-55357309D02*
X118104762Y-55357309D01*
X118104762Y-55881119D02*
X118104762Y-54881119D01*
D10*
X99256667Y-49004895D02*
X98990000Y-48623942D01*
X98799524Y-49004895D02*
X98799524Y-48204895D01*
X98799524Y-48204895D02*
X99104286Y-48204895D01*
X99104286Y-48204895D02*
X99180476Y-48242990D01*
X99180476Y-48242990D02*
X99218571Y-48281085D01*
X99218571Y-48281085D02*
X99256667Y-48357276D01*
X99256667Y-48357276D02*
X99256667Y-48471561D01*
X99256667Y-48471561D02*
X99218571Y-48547752D01*
X99218571Y-48547752D02*
X99180476Y-48585847D01*
X99180476Y-48585847D02*
X99104286Y-48623942D01*
X99104286Y-48623942D02*
X98799524Y-48623942D01*
X99523333Y-48204895D02*
X100018571Y-48204895D01*
X100018571Y-48204895D02*
X99751905Y-48509657D01*
X99751905Y-48509657D02*
X99866190Y-48509657D01*
X99866190Y-48509657D02*
X99942381Y-48547752D01*
X99942381Y-48547752D02*
X99980476Y-48585847D01*
X99980476Y-48585847D02*
X100018571Y-48662038D01*
X100018571Y-48662038D02*
X100018571Y-48852514D01*
X100018571Y-48852514D02*
X99980476Y-48928704D01*
X99980476Y-48928704D02*
X99942381Y-48966800D01*
X99942381Y-48966800D02*
X99866190Y-49004895D01*
X99866190Y-49004895D02*
X99637619Y-49004895D01*
X99637619Y-49004895D02*
X99561428Y-48966800D01*
X99561428Y-48966800D02*
X99523333Y-48928704D01*
D11*
X91433500Y-76861904D02*
X91481119Y-76719047D01*
X91481119Y-76719047D02*
X91481119Y-76480952D01*
X91481119Y-76480952D02*
X91433500Y-76385714D01*
X91433500Y-76385714D02*
X91385880Y-76338095D01*
X91385880Y-76338095D02*
X91290642Y-76290476D01*
X91290642Y-76290476D02*
X91195404Y-76290476D01*
X91195404Y-76290476D02*
X91100166Y-76338095D01*
X91100166Y-76338095D02*
X91052547Y-76385714D01*
X91052547Y-76385714D02*
X91004928Y-76480952D01*
X91004928Y-76480952D02*
X90957309Y-76671428D01*
X90957309Y-76671428D02*
X90909690Y-76766666D01*
X90909690Y-76766666D02*
X90862071Y-76814285D01*
X90862071Y-76814285D02*
X90766833Y-76861904D01*
X90766833Y-76861904D02*
X90671595Y-76861904D01*
X90671595Y-76861904D02*
X90576357Y-76814285D01*
X90576357Y-76814285D02*
X90528738Y-76766666D01*
X90528738Y-76766666D02*
X90481119Y-76671428D01*
X90481119Y-76671428D02*
X90481119Y-76433333D01*
X90481119Y-76433333D02*
X90528738Y-76290476D01*
X91481119Y-75338095D02*
X91481119Y-75909523D01*
X91481119Y-75623809D02*
X90481119Y-75623809D01*
X90481119Y-75623809D02*
X90623976Y-75719047D01*
X90623976Y-75719047D02*
X90719214Y-75814285D01*
X90719214Y-75814285D02*
X90766833Y-75909523D01*
D10*
X103559524Y-49664895D02*
X103559524Y-48864895D01*
X103559524Y-48864895D02*
X103750000Y-48864895D01*
X103750000Y-48864895D02*
X103864286Y-48902990D01*
X103864286Y-48902990D02*
X103940476Y-48979180D01*
X103940476Y-48979180D02*
X103978571Y-49055371D01*
X103978571Y-49055371D02*
X104016667Y-49207752D01*
X104016667Y-49207752D02*
X104016667Y-49322038D01*
X104016667Y-49322038D02*
X103978571Y-49474419D01*
X103978571Y-49474419D02*
X103940476Y-49550609D01*
X103940476Y-49550609D02*
X103864286Y-49626800D01*
X103864286Y-49626800D02*
X103750000Y-49664895D01*
X103750000Y-49664895D02*
X103559524Y-49664895D01*
X104778571Y-49664895D02*
X104321428Y-49664895D01*
X104550000Y-49664895D02*
X104550000Y-48864895D01*
X104550000Y-48864895D02*
X104473809Y-48979180D01*
X104473809Y-48979180D02*
X104397619Y-49055371D01*
X104397619Y-49055371D02*
X104321428Y-49093466D01*
X101743809Y-53266085D02*
X101667619Y-53227990D01*
X101667619Y-53227990D02*
X101591428Y-53151800D01*
X101591428Y-53151800D02*
X101477142Y-53037514D01*
X101477142Y-53037514D02*
X101400952Y-52999419D01*
X101400952Y-52999419D02*
X101324761Y-52999419D01*
X101362857Y-53189895D02*
X101286666Y-53151800D01*
X101286666Y-53151800D02*
X101210476Y-53075609D01*
X101210476Y-53075609D02*
X101172380Y-52923228D01*
X101172380Y-52923228D02*
X101172380Y-52656561D01*
X101172380Y-52656561D02*
X101210476Y-52504180D01*
X101210476Y-52504180D02*
X101286666Y-52427990D01*
X101286666Y-52427990D02*
X101362857Y-52389895D01*
X101362857Y-52389895D02*
X101515238Y-52389895D01*
X101515238Y-52389895D02*
X101591428Y-52427990D01*
X101591428Y-52427990D02*
X101667619Y-52504180D01*
X101667619Y-52504180D02*
X101705714Y-52656561D01*
X101705714Y-52656561D02*
X101705714Y-52923228D01*
X101705714Y-52923228D02*
X101667619Y-53075609D01*
X101667619Y-53075609D02*
X101591428Y-53151800D01*
X101591428Y-53151800D02*
X101515238Y-53189895D01*
X101515238Y-53189895D02*
X101362857Y-53189895D01*
X102391428Y-52656561D02*
X102391428Y-53189895D01*
X102200952Y-52351800D02*
X102010475Y-52923228D01*
X102010475Y-52923228D02*
X102505714Y-52923228D01*
X104656667Y-52704895D02*
X104390000Y-52323942D01*
X104199524Y-52704895D02*
X104199524Y-51904895D01*
X104199524Y-51904895D02*
X104504286Y-51904895D01*
X104504286Y-51904895D02*
X104580476Y-51942990D01*
X104580476Y-51942990D02*
X104618571Y-51981085D01*
X104618571Y-51981085D02*
X104656667Y-52057276D01*
X104656667Y-52057276D02*
X104656667Y-52171561D01*
X104656667Y-52171561D02*
X104618571Y-52247752D01*
X104618571Y-52247752D02*
X104580476Y-52285847D01*
X104580476Y-52285847D02*
X104504286Y-52323942D01*
X104504286Y-52323942D02*
X104199524Y-52323942D01*
X104961428Y-51981085D02*
X104999524Y-51942990D01*
X104999524Y-51942990D02*
X105075714Y-51904895D01*
X105075714Y-51904895D02*
X105266190Y-51904895D01*
X105266190Y-51904895D02*
X105342381Y-51942990D01*
X105342381Y-51942990D02*
X105380476Y-51981085D01*
X105380476Y-51981085D02*
X105418571Y-52057276D01*
X105418571Y-52057276D02*
X105418571Y-52133466D01*
X105418571Y-52133466D02*
X105380476Y-52247752D01*
X105380476Y-52247752D02*
X104923333Y-52704895D01*
X104923333Y-52704895D02*
X105418571Y-52704895D01*
D13*
X111008095Y-62294819D02*
X111008095Y-63104342D01*
X111008095Y-63104342D02*
X111055714Y-63199580D01*
X111055714Y-63199580D02*
X111103333Y-63247200D01*
X111103333Y-63247200D02*
X111198571Y-63294819D01*
X111198571Y-63294819D02*
X111389047Y-63294819D01*
X111389047Y-63294819D02*
X111484285Y-63247200D01*
X111484285Y-63247200D02*
X111531904Y-63199580D01*
X111531904Y-63199580D02*
X111579523Y-63104342D01*
X111579523Y-63104342D02*
X111579523Y-62294819D01*
X112008095Y-62390057D02*
X112055714Y-62342438D01*
X112055714Y-62342438D02*
X112150952Y-62294819D01*
X112150952Y-62294819D02*
X112389047Y-62294819D01*
X112389047Y-62294819D02*
X112484285Y-62342438D01*
X112484285Y-62342438D02*
X112531904Y-62390057D01*
X112531904Y-62390057D02*
X112579523Y-62485295D01*
X112579523Y-62485295D02*
X112579523Y-62580533D01*
X112579523Y-62580533D02*
X112531904Y-62723390D01*
X112531904Y-62723390D02*
X111960476Y-63294819D01*
X111960476Y-63294819D02*
X112579523Y-63294819D01*
D14*
X100680476Y-27224811D02*
X100680476Y-27872430D01*
X100680476Y-27872430D02*
X100718571Y-27948620D01*
X100718571Y-27948620D02*
X100756666Y-27986716D01*
X100756666Y-27986716D02*
X100832857Y-28024811D01*
X100832857Y-28024811D02*
X100985238Y-28024811D01*
X100985238Y-28024811D02*
X101061428Y-27986716D01*
X101061428Y-27986716D02*
X101099523Y-27948620D01*
X101099523Y-27948620D02*
X101137619Y-27872430D01*
X101137619Y-27872430D02*
X101137619Y-27224811D01*
X101937618Y-28024811D02*
X101480475Y-28024811D01*
X101709047Y-28024811D02*
X101709047Y-27224811D01*
X101709047Y-27224811D02*
X101632856Y-27339096D01*
X101632856Y-27339096D02*
X101556666Y-27415287D01*
X101556666Y-27415287D02*
X101480475Y-27453382D01*
D10*
X105548809Y-57516085D02*
X105472619Y-57477990D01*
X105472619Y-57477990D02*
X105396428Y-57401800D01*
X105396428Y-57401800D02*
X105282142Y-57287514D01*
X105282142Y-57287514D02*
X105205952Y-57249419D01*
X105205952Y-57249419D02*
X105129761Y-57249419D01*
X105167857Y-57439895D02*
X105091666Y-57401800D01*
X105091666Y-57401800D02*
X105015476Y-57325609D01*
X105015476Y-57325609D02*
X104977380Y-57173228D01*
X104977380Y-57173228D02*
X104977380Y-56906561D01*
X104977380Y-56906561D02*
X105015476Y-56754180D01*
X105015476Y-56754180D02*
X105091666Y-56677990D01*
X105091666Y-56677990D02*
X105167857Y-56639895D01*
X105167857Y-56639895D02*
X105320238Y-56639895D01*
X105320238Y-56639895D02*
X105396428Y-56677990D01*
X105396428Y-56677990D02*
X105472619Y-56754180D01*
X105472619Y-56754180D02*
X105510714Y-56906561D01*
X105510714Y-56906561D02*
X105510714Y-57173228D01*
X105510714Y-57173228D02*
X105472619Y-57325609D01*
X105472619Y-57325609D02*
X105396428Y-57401800D01*
X105396428Y-57401800D02*
X105320238Y-57439895D01*
X105320238Y-57439895D02*
X105167857Y-57439895D01*
X105777380Y-56639895D02*
X106272618Y-56639895D01*
X106272618Y-56639895D02*
X106005952Y-56944657D01*
X106005952Y-56944657D02*
X106120237Y-56944657D01*
X106120237Y-56944657D02*
X106196428Y-56982752D01*
X106196428Y-56982752D02*
X106234523Y-57020847D01*
X106234523Y-57020847D02*
X106272618Y-57097038D01*
X106272618Y-57097038D02*
X106272618Y-57287514D01*
X106272618Y-57287514D02*
X106234523Y-57363704D01*
X106234523Y-57363704D02*
X106196428Y-57401800D01*
X106196428Y-57401800D02*
X106120237Y-57439895D01*
X106120237Y-57439895D02*
X105891666Y-57439895D01*
X105891666Y-57439895D02*
X105815475Y-57401800D01*
X105815475Y-57401800D02*
X105777380Y-57363704D01*
X118062381Y-46474895D02*
X118062381Y-45674895D01*
X118062381Y-45674895D02*
X118329047Y-46246323D01*
X118329047Y-46246323D02*
X118595714Y-45674895D01*
X118595714Y-45674895D02*
X118595714Y-46474895D01*
X119395714Y-46474895D02*
X118938571Y-46474895D01*
X119167143Y-46474895D02*
X119167143Y-45674895D01*
X119167143Y-45674895D02*
X119090952Y-45789180D01*
X119090952Y-45789180D02*
X119014762Y-45865371D01*
X119014762Y-45865371D02*
X118938571Y-45903466D01*
D13*
X111146666Y-85964819D02*
X111146666Y-86679104D01*
X111146666Y-86679104D02*
X111099047Y-86821961D01*
X111099047Y-86821961D02*
X111003809Y-86917200D01*
X111003809Y-86917200D02*
X110860952Y-86964819D01*
X110860952Y-86964819D02*
X110765714Y-86964819D01*
X112146666Y-86964819D02*
X111575238Y-86964819D01*
X111860952Y-86964819D02*
X111860952Y-85964819D01*
X111860952Y-85964819D02*
X111765714Y-86107676D01*
X111765714Y-86107676D02*
X111670476Y-86202914D01*
X111670476Y-86202914D02*
X111575238Y-86250533D01*
%TO.C,SW5*%
D15*
X111700700Y-30787955D02*
X111700700Y-31818000D01*
X111700700Y-31818000D02*
X120565300Y-31818000D01*
X120565300Y-31818000D02*
X120565300Y-30787955D01*
X122724300Y-29493900D02*
G75*
G02*
X121962300Y-29493900I-381000J0D01*
G01*
X121962300Y-29493900D02*
G75*
G02*
X122724300Y-29493900I381000J0D01*
G01*
%TO.C,J5*%
D16*
X92640000Y-49430000D02*
X94020000Y-49430000D01*
X92640000Y-50810000D02*
X92640000Y-49430000D01*
X92640000Y-52080000D02*
X92640000Y-64890000D01*
X92640000Y-52080000D02*
X95400000Y-52080000D01*
X92640000Y-64890000D02*
X95400000Y-64890000D01*
X95400000Y-52080000D02*
X95400000Y-64890000D01*
%TO.C,J3*%
X117000000Y-82250000D02*
X117800000Y-82250000D01*
X117000000Y-82450000D02*
X117000000Y-82250000D01*
X117200000Y-85250000D02*
X117000000Y-85050000D01*
X117800000Y-85250000D02*
X117200000Y-85250000D01*
X117800000Y-85250000D02*
X117800000Y-85750000D01*
X119200000Y-82250000D02*
X120000000Y-82250000D01*
X119200000Y-85250000D02*
X119200000Y-85750000D01*
X120000000Y-82250000D02*
X120000000Y-82450000D01*
X120000000Y-85050000D02*
X120000000Y-85250000D01*
X120000000Y-85250000D02*
X119200000Y-85250000D01*
%TO.C,R1*%
X106225000Y-54817064D02*
X106225000Y-54362936D01*
X107695000Y-54817064D02*
X107695000Y-54362936D01*
%TO.C,XTAL1*%
D15*
X121989000Y-53385000D02*
X121989000Y-52115000D01*
X122624000Y-52750000D02*
X121354000Y-52750000D01*
X121227000Y-52750000D02*
G75*
G02*
X108273000Y-52750000I-6477000J0D01*
G01*
X108273000Y-52750000D02*
G75*
G02*
X121227000Y-52750000I6477000J0D01*
G01*
%TO.C,R3*%
D16*
X100445000Y-50217064D02*
X100445000Y-49762936D01*
X101915000Y-50217064D02*
X101915000Y-49762936D01*
%TO.C,S1*%
D17*
X98470000Y-78720000D02*
X98470000Y-78720000D01*
X98570000Y-78720000D02*
X98570000Y-78720000D01*
X98570000Y-78720000D02*
X98570000Y-78720000D01*
X98470000Y-78720000D02*
G75*
G02*
X98570000Y-78720000I50000J0D01*
G01*
X98470000Y-78720000D02*
G75*
G02*
X98570000Y-78720000I50000J0D01*
G01*
X98570000Y-78720000D02*
G75*
G02*
X98470000Y-78720000I-50000J0D01*
G01*
%TO.C,D1*%
D16*
X105750000Y-49950000D02*
X103090000Y-49950000D01*
X105750000Y-51650000D02*
X103090000Y-51650000D01*
X105750000Y-51650000D02*
X105750000Y-49950000D01*
%TO.C,Q4*%
X101060000Y-53570000D02*
X102580000Y-53570000D01*
X101060000Y-53620000D02*
X101060000Y-53570000D01*
X101060000Y-55520000D02*
X101060000Y-54740000D01*
X101060000Y-56690000D02*
X101060000Y-56640000D01*
X102580000Y-53570000D02*
X102580000Y-54570000D01*
X102580000Y-55690000D02*
X102580000Y-56690000D01*
X102580000Y-56690000D02*
X101060000Y-56690000D01*
X100520000Y-54750000D02*
X100760000Y-55080000D01*
X100280000Y-55080000D01*
X100520000Y-54750000D01*
G36*
X100760000Y-55080000D02*
G01*
X100280000Y-55080000D01*
X100520000Y-54750000D01*
X100760000Y-55080000D01*
G37*
%TO.C,R2*%
X104065000Y-54817064D02*
X104065000Y-54362936D01*
X105535000Y-54817064D02*
X105535000Y-54362936D01*
%TO.C,U2*%
X103965000Y-63900000D02*
X120165000Y-63900000D01*
X103965000Y-79700000D02*
X103965000Y-80100000D01*
X103965000Y-80100000D02*
X120165000Y-80100000D01*
X120165000Y-63900000D02*
X120165000Y-64300000D01*
X120165000Y-80100000D02*
X120165000Y-79700000D01*
X103465000Y-64100000D02*
X103225000Y-63764000D01*
X103705000Y-63764000D01*
X103465000Y-64100000D01*
G36*
X103465000Y-64100000D02*
G01*
X103225000Y-63764000D01*
X103705000Y-63764000D01*
X103465000Y-64100000D01*
G37*
%TO.C,U1*%
D10*
X92417200Y-46009000D02*
X92417200Y-28864000D01*
X94322200Y-47914000D02*
X108292200Y-47914000D01*
D18*
X96812200Y-26959000D02*
X96815928Y-25948728D01*
X97315928Y-25449000D02*
X105311200Y-25449000D01*
X105811200Y-25949000D02*
X105811200Y-26959000D01*
D10*
X108292200Y-26959000D02*
X94322200Y-26959000D01*
X110197200Y-46009000D02*
X110197200Y-28864000D01*
X92417200Y-28860000D02*
G75*
G02*
X94322200Y-26955000I1905000J0D01*
G01*
X94322200Y-47914000D02*
G75*
G02*
X92417200Y-46009000I1J1905001D01*
G01*
D18*
X96815928Y-25948728D02*
G75*
G02*
X97315928Y-25449028I499972J-272D01*
G01*
X105311200Y-25449000D02*
G75*
G02*
X105811200Y-25949000I-100J-500100D01*
G01*
D10*
X108292200Y-26959000D02*
G75*
G02*
X110197200Y-28864000I-50J-1905050D01*
G01*
X110197200Y-46009000D02*
G75*
G02*
X108292200Y-47914000I-1905001J1D01*
G01*
D19*
X92459200Y-27375000D02*
G75*
G02*
X91955200Y-27375000I-252000J0D01*
G01*
X91955200Y-27375000D02*
G75*
G02*
X92459200Y-27375000I252000J0D01*
G01*
X93733200Y-28092000D02*
G75*
G02*
X93229200Y-28092000I-252000J0D01*
G01*
X93229200Y-28092000D02*
G75*
G02*
X93733200Y-28092000I252000J0D01*
G01*
%TO.C,Q3*%
D16*
X104880000Y-57780000D02*
X106400000Y-57780000D01*
X104880000Y-57830000D02*
X104880000Y-57780000D01*
X104880000Y-59730000D02*
X104880000Y-58950000D01*
X104880000Y-60900000D02*
X104880000Y-60850000D01*
X106400000Y-57780000D02*
X106400000Y-58780000D01*
X106400000Y-59900000D02*
X106400000Y-60900000D01*
X106400000Y-60900000D02*
X104880000Y-60900000D01*
X104340000Y-58960000D02*
X104580000Y-59290000D01*
X104100000Y-59290000D01*
X104340000Y-58960000D01*
G36*
X104580000Y-59290000D02*
G01*
X104100000Y-59290000D01*
X104340000Y-58960000D01*
X104580000Y-59290000D01*
G37*
%TO.C,M1*%
X117230000Y-42815000D02*
X117230000Y-40165000D01*
X119990000Y-40165000D02*
X117230000Y-40165000D01*
X119990000Y-42815000D02*
X117230000Y-42815000D01*
X119990000Y-42815000D02*
X119990000Y-40165000D01*
X119990000Y-44085000D02*
X119990000Y-45465000D01*
X119990000Y-45465000D02*
X118610000Y-45465000D01*
D20*
%TO.C,G\u002A\u002A\u002A*%
G36*
X100520640Y-64869349D02*
G01*
X100600273Y-64944451D01*
X100670878Y-65051352D01*
X100683404Y-65142901D01*
X100648204Y-65255844D01*
X100588975Y-65318949D01*
X100449664Y-65415357D01*
X100232059Y-65543947D01*
X99937947Y-65703601D01*
X99910583Y-65717987D01*
X99659043Y-65849185D01*
X99473284Y-65943107D01*
X99340822Y-66004449D01*
X99249170Y-66037907D01*
X99185844Y-66048180D01*
X99138359Y-66039963D01*
X99101711Y-66022284D01*
X98987492Y-65918442D01*
X98946722Y-65789945D01*
X98975396Y-65677355D01*
X99037085Y-65612206D01*
X99160782Y-65516360D01*
X99329926Y-65399841D01*
X99527955Y-65272672D01*
X99738307Y-65144878D01*
X99944422Y-65026484D01*
X100129736Y-64927512D01*
X100277690Y-64857988D01*
X100371721Y-64827935D01*
X100379587Y-64827448D01*
X100520640Y-64869349D01*
G37*
G36*
X97231552Y-64664277D02*
G01*
X97511561Y-64765170D01*
X97774891Y-64941419D01*
X97943021Y-65097845D01*
X98083119Y-65265371D01*
X98218005Y-65467825D01*
X98335374Y-65681926D01*
X98422924Y-65884391D01*
X98468353Y-66051938D01*
X98472027Y-66098974D01*
X98435221Y-66258657D01*
X98336521Y-66373637D01*
X98193508Y-66424999D01*
X98168070Y-66426050D01*
X98056917Y-66405082D01*
X97965514Y-66333491D01*
X97882252Y-66198243D01*
X97808977Y-66022876D01*
X97677899Y-65759240D01*
X97503081Y-65535639D01*
X97298928Y-65364593D01*
X97079845Y-65258620D01*
X96895629Y-65229049D01*
X96708414Y-65261983D01*
X96517250Y-65348137D01*
X96358063Y-65468536D01*
X96294622Y-65546457D01*
X96237156Y-65665730D01*
X96215415Y-65801486D01*
X96218568Y-65945099D01*
X96277238Y-66217734D01*
X96415827Y-66451646D01*
X96634310Y-66646792D01*
X96636205Y-66648078D01*
X96710560Y-66694495D01*
X96784186Y-66725813D01*
X96876255Y-66744980D01*
X97005943Y-66754941D01*
X97192422Y-66758644D01*
X97358516Y-66759092D01*
X97582065Y-66757966D01*
X97869365Y-66754835D01*
X98195389Y-66750065D01*
X98535110Y-66744024D01*
X98863498Y-66737079D01*
X98871677Y-66736889D01*
X99826398Y-66714686D01*
X100092831Y-66839206D01*
X100403838Y-67023474D01*
X100637682Y-67250904D01*
X100796442Y-67524557D01*
X100882195Y-67847491D01*
X100898193Y-68024651D01*
X100900176Y-68203820D01*
X100892456Y-68361256D01*
X100876695Y-68464592D01*
X100875418Y-68468707D01*
X100727827Y-68794759D01*
X100523836Y-69053069D01*
X100267486Y-69240966D01*
X99962821Y-69355777D01*
X99613882Y-69394831D01*
X99481469Y-69390067D01*
X99119678Y-69322200D01*
X98795293Y-69177308D01*
X98516990Y-68962399D01*
X98293441Y-68684483D01*
X98133322Y-68350567D01*
X98111229Y-68282832D01*
X98062678Y-68113788D01*
X98041380Y-68003584D01*
X98045418Y-67927174D01*
X98072873Y-67859517D01*
X98078078Y-67850030D01*
X98171238Y-67756883D01*
X98295351Y-67719323D01*
X98417178Y-67742404D01*
X98476970Y-67789367D01*
X98526023Y-67874513D01*
X98583049Y-68011425D01*
X98622311Y-68127807D01*
X98722223Y-68363123D01*
X98874068Y-68554641D01*
X98880789Y-68561213D01*
X99096245Y-68721034D01*
X99337421Y-68818358D01*
X99586319Y-68852346D01*
X99824939Y-68822160D01*
X100035282Y-68726962D01*
X100156553Y-68620630D01*
X100263382Y-68476884D01*
X100320186Y-68331653D01*
X100335787Y-68153421D01*
X100328219Y-68007430D01*
X100269751Y-67752638D01*
X100141619Y-67552360D01*
X99944774Y-67407971D01*
X99823286Y-67353987D01*
X99698256Y-67317029D01*
X99552975Y-67295710D01*
X99370738Y-67288646D01*
X99134838Y-67294449D01*
X98828567Y-67311734D01*
X98804065Y-67313338D01*
X98496054Y-67330960D01*
X98141901Y-67347013D01*
X97784273Y-67359780D01*
X97465840Y-67367543D01*
X97450698Y-67367785D01*
X97186506Y-67371125D01*
X96992970Y-67370349D01*
X96851961Y-67363425D01*
X96745348Y-67348317D01*
X96655002Y-67322993D01*
X96562791Y-67285419D01*
X96512852Y-67262577D01*
X96197060Y-67074092D01*
X95942495Y-66826550D01*
X95758805Y-66548980D01*
X95683111Y-66401252D01*
X95638035Y-66280707D01*
X95615825Y-66153550D01*
X95608732Y-65985989D01*
X95608399Y-65893183D01*
X95623720Y-65618791D01*
X95676245Y-65401646D01*
X95777138Y-65214085D01*
X95937565Y-65028446D01*
X95970450Y-64996161D01*
X96224911Y-64799332D01*
X96506166Y-64680054D01*
X96829581Y-64632403D01*
X96917831Y-64630982D01*
X97231552Y-64664277D01*
G37*
%TO.C,J1*%
D16*
X102500000Y-82620000D02*
X102500000Y-85380000D01*
X110230000Y-82620000D02*
X102500000Y-82620000D01*
X110230000Y-82620000D02*
X110230000Y-85380000D01*
X110230000Y-85380000D02*
X102500000Y-85380000D01*
X111500000Y-82620000D02*
X112880000Y-82620000D01*
X112880000Y-82620000D02*
X112880000Y-84000000D01*
%TD*%
M02*
