%TF.GenerationSoftware,KiCad,Pcbnew,10.0.3*%
%TF.CreationDate,2026-06-16T11:49:15+02:00*%
%TF.ProjectId,SenseMatePCB,53656e73-654d-4617-9465-5043422e6b69,rev?*%
%TF.SameCoordinates,Original*%
%TF.FileFunction,Copper,L1,Top*%
%TF.FilePolarity,Positive*%
%FSLAX46Y46*%
G04 Gerber Fmt 4.6, Leading zero omitted, Abs format (unit mm)*
G04 Created by KiCad (PCBNEW 10.0.3) date 2026-06-16 11:49:15*
%MOMM*%
%LPD*%
G01*
G04 APERTURE LIST*
G04 Aperture macros list*
%AMRoundRect*
0 Rectangle with rounded corners*
0 $1 Rounding radius*
0 $2 $3 $4 $5 $6 $7 $8 $9 X,Y pos of 4 corners*
0 Add a 4 corners polygon primitive as box body*
4,1,4,$2,$3,$4,$5,$6,$7,$8,$9,$2,$3,0*
0 Add four circle primitives for the rounded corners*
1,1,$1+$1,$2,$3*
1,1,$1+$1,$4,$5*
1,1,$1+$1,$6,$7*
1,1,$1+$1,$8,$9*
0 Add four rect primitives between the rounded corners*
20,1,$1+$1,$2,$3,$4,$5,0*
20,1,$1+$1,$4,$5,$6,$7,0*
20,1,$1+$1,$6,$7,$8,$9,0*
20,1,$1+$1,$8,$9,$2,$3,0*%
%AMFreePoly0*
4,1,15,-0.616000,0.142500,-0.283500,0.475000,0.521000,0.475000,0.557355,0.467769,0.588175,0.447175,0.608769,0.416355,0.616000,0.380000,0.616000,-0.380000,0.608769,-0.416355,0.588175,-0.447175,0.557355,-0.467769,0.521000,-0.475000,-0.283500,-0.475000,-0.616000,-0.142500,-0.616000,0.142500,-0.616000,0.142500,$1*%
G04 Aperture macros list end*
%TA.AperFunction,ComponentPad*%
%ADD10C,1.320800*%
%TD*%
%TA.AperFunction,ComponentPad*%
%ADD11C,2.006600*%
%TD*%
%TA.AperFunction,ComponentPad*%
%ADD12R,1.700000X1.700000*%
%TD*%
%TA.AperFunction,ComponentPad*%
%ADD13C,1.700000*%
%TD*%
%TA.AperFunction,SMDPad,CuDef*%
%ADD14RoundRect,0.100000X-0.400000X-0.400000X0.400000X-0.400000X0.400000X0.400000X-0.400000X0.400000X0*%
%TD*%
%TA.AperFunction,SMDPad,CuDef*%
%ADD15RoundRect,0.105000X-0.420000X-0.995000X0.420000X-0.995000X0.420000X0.995000X-0.420000X0.995000X0*%
%TD*%
%TA.AperFunction,SMDPad,CuDef*%
%ADD16RoundRect,0.250000X0.450000X-0.350000X0.450000X0.350000X-0.450000X0.350000X-0.450000X-0.350000X0*%
%TD*%
%TA.AperFunction,ComponentPad*%
%ADD17O,2.500000X1.300000*%
%TD*%
%TA.AperFunction,ComponentPad*%
%ADD18R,1.422400X1.422400*%
%TD*%
%TA.AperFunction,ComponentPad*%
%ADD19C,1.422400*%
%TD*%
%TA.AperFunction,SMDPad,CuDef*%
%ADD20R,2.600000X1.950000*%
%TD*%
%TA.AperFunction,SMDPad,CuDef*%
%ADD21R,2.600000X1.900000*%
%TD*%
%TA.AperFunction,SMDPad,CuDef*%
%ADD22R,1.700000X2.400000*%
%TD*%
%TA.AperFunction,SMDPad,CuDef*%
%ADD23RoundRect,0.112500X0.187500X0.112500X-0.187500X0.112500X-0.187500X-0.112500X0.187500X-0.112500X0*%
%TD*%
%TA.AperFunction,SMDPad,CuDef*%
%ADD24RoundRect,0.150000X-0.587500X-0.150000X0.587500X-0.150000X0.587500X0.150000X-0.587500X0.150000X0*%
%TD*%
%TA.AperFunction,SMDPad,CuDef*%
%ADD25RoundRect,0.317500X-1.157500X-0.317500X1.157500X-0.317500X1.157500X0.317500X-1.157500X0.317500X0*%
%TD*%
%TA.AperFunction,SMDPad,CuDef*%
%ADD26RoundRect,0.095000X0.921000X0.380000X-0.921000X0.380000X-0.921000X-0.380000X0.921000X-0.380000X0*%
%TD*%
%TA.AperFunction,SMDPad,CuDef*%
%ADD27RoundRect,0.095000X-0.921000X-0.380000X0.921000X-0.380000X0.921000X0.380000X-0.921000X0.380000X0*%
%TD*%
%TA.AperFunction,SMDPad,CuDef*%
%ADD28FreePoly0,180.000000*%
%TD*%
%TA.AperFunction,SMDPad,CuDef*%
%ADD29FreePoly0,0.000000*%
%TD*%
%TA.AperFunction,SMDPad,CuDef*%
%ADD30C,1.700000*%
%TD*%
%TA.AperFunction,SMDPad,CuDef*%
%ADD31RoundRect,0.110000X-0.440000X1.140000X-0.440000X-1.140000X0.440000X-1.140000X0.440000X1.140000X0*%
%TD*%
%TA.AperFunction,ComponentPad*%
%ADD32RoundRect,0.250000X0.350000X0.625000X-0.350000X0.625000X-0.350000X-0.625000X0.350000X-0.625000X0*%
%TD*%
%TA.AperFunction,ComponentPad*%
%ADD33O,1.200000X1.750000*%
%TD*%
%TA.AperFunction,ViaPad*%
%ADD34C,0.600000*%
%TD*%
%TA.AperFunction,ViaPad*%
%ADD35C,1.100000*%
%TD*%
%TA.AperFunction,ViaPad*%
%ADD36C,0.850000*%
%TD*%
%TA.AperFunction,Conductor*%
%ADD37C,0.200000*%
%TD*%
%TA.AperFunction,Conductor*%
%ADD38C,0.340000*%
%TD*%
G04 APERTURE END LIST*
D10*
%TO.P,SW5,1,A_1*%
%TO.N,VBAT*%
X118133000Y-29493900D03*
%TO.P,SW5,2,B_2*%
%TO.N,Battery Castellation*%
X116133000Y-29493900D03*
%TO.P,SW5,3,C_3*%
%TO.N,unconnected-(SW5A-C-Pad3)*%
X114132999Y-29493900D03*
D11*
%TO.P,SW5,4*%
%TO.N,N/C*%
X120232999Y-29493900D03*
%TO.P,SW5,5*%
X112033001Y-29493900D03*
%TD*%
D12*
%TO.P,J5,1,Pin_1_1*%
%TO.N,Pogo VBUS*%
X94020000Y-50810000D03*
D13*
%TO.P,J5,2,Pin_2_2*%
%TO.N,Pogo RX*%
X94020000Y-53350000D03*
%TO.P,J5,3,Pin_3_3*%
%TO.N,Pogo TX*%
X94020000Y-55890000D03*
%TO.P,J5,4,Pin_4_4*%
%TO.N,GND*%
X94020000Y-58430000D03*
%TO.P,J5,5,Pin_5_5*%
%TO.N,Pogo SWDIO*%
X94020000Y-60970000D03*
%TO.P,J5,6,Pin_6_6*%
%TO.N,Pogo SWDCLK*%
X94020000Y-63510000D03*
%TD*%
D14*
%TO.P,J3,1,In_1*%
%TO.N,ANT*%
X118500000Y-82250000D03*
D15*
%TO.P,J3,2,Ext_2*%
%TO.N,GND*%
X119975000Y-83750000D03*
D14*
X118500000Y-85250000D03*
D15*
X117025000Y-83750000D03*
%TD*%
D16*
%TO.P,R1,1*%
%TO.N,Net-(Q3-C)*%
X106960000Y-55590000D03*
%TO.P,R1,2*%
%TO.N,+3V3*%
X106960000Y-53590000D03*
%TD*%
D17*
%TO.P,J4,1,Pin_1_1*%
%TO.N,Pogo VBUS*%
X88950000Y-54230000D03*
%TO.P,J4,2,Pin_2_2*%
%TO.N,Pogo RX*%
X88950000Y-56230000D03*
%TO.P,J4,3,Pin_3_3*%
%TO.N,Pogo TX*%
X88950000Y-58230000D03*
%TO.P,J4,4,Pin_4_4*%
%TO.N,GND*%
X88950000Y-60230000D03*
%TO.P,J4,5,Pin_5_5*%
%TO.N,Pogo SWDIO*%
X88950000Y-62230000D03*
%TO.P,J4,6,Pin_6_6*%
%TO.N,Pogo SWDCLK*%
X88950000Y-64230000D03*
%TD*%
D18*
%TO.P,XTAL1,1,1_1*%
%TO.N,+3V3*%
X117250000Y-52750000D03*
D19*
%TO.P,XTAL1,2,2_2*%
%TO.N,Net-(Q3-C)*%
X112250000Y-52750000D03*
%TD*%
D16*
%TO.P,R3,1*%
%TO.N,Net-(Q4-B)*%
X101180000Y-50990000D03*
%TO.P,R3,2*%
%TO.N,VIB_EN*%
X101180000Y-48990000D03*
%TD*%
D20*
%TO.P,S1,1,1_1*%
%TO.N,TMB1*%
X96370000Y-78645000D03*
D21*
%TO.P,S1,2,2_2*%
%TO.N,TMB2*%
X96370000Y-73620000D03*
D22*
%TO.P,S1,MP1,MP1_MP1*%
%TO.N,GND*%
X91320000Y-81920000D03*
%TO.P,S1,MP2,MP2_MP2*%
X91320000Y-70320000D03*
D21*
%TO.P,S1,T1,T1_T1*%
%TO.N,TMBT1*%
X96370000Y-76120000D03*
%TD*%
D17*
%TO.P,J7,1,Pin_1_1*%
%TO.N,VBAT*%
X121710000Y-32870000D03*
%TO.P,J7,2,Pin_2_2*%
%TO.N,Battery Castellation*%
X121710000Y-34870000D03*
%TO.P,J7,3,Pin_3_3*%
%TO.N,GND*%
X121710000Y-36870000D03*
%TO.P,J7,4,Pin_4_4*%
%TO.N,+3V3*%
X121710000Y-38870000D03*
%TD*%
D23*
%TO.P,D1,1,K_1*%
%TO.N,+3V3*%
X105190000Y-50800000D03*
%TO.P,D1,2,A_2*%
%TO.N,Net-(D1-A)*%
X103090000Y-50800000D03*
%TD*%
D24*
%TO.P,Q4,1,B_1*%
%TO.N,Net-(Q4-B)*%
X100882500Y-54180000D03*
%TO.P,Q4,2,E_2*%
%TO.N,GND*%
X100882500Y-56080000D03*
%TO.P,Q4,3,C_3*%
%TO.N,Net-(D1-A)*%
X102757500Y-55130000D03*
%TD*%
D16*
%TO.P,R2,1*%
%TO.N,Net-(Q3-B)*%
X104800000Y-55590000D03*
%TO.P,R2,2*%
%TO.N,BUZ_EN*%
X104800000Y-53590000D03*
%TD*%
D17*
%TO.P,J6,1,Pin_1_1*%
%TO.N,SPI_MOSI1*%
X121680000Y-57300000D03*
%TO.P,J6,2,Pin_2_2*%
%TO.N,SPI_MISO1*%
X121680000Y-59300000D03*
%TD*%
D25*
%TO.P,U2,1,GND_1*%
%TO.N,GND*%
X104750000Y-65000000D03*
%TO.P,U2,2,MISO_2*%
%TO.N,LoRa_MISO*%
X104750000Y-67000000D03*
%TO.P,U2,3,MOSI_3*%
%TO.N,LoRa_MOSI*%
X104750000Y-69000000D03*
%TO.P,U2,4,SCK_4*%
%TO.N,LoRa_SCK*%
X104750000Y-71000000D03*
%TO.P,U2,5,NSS_5*%
%TO.N,LoRa_NSS*%
X104750000Y-73000000D03*
%TO.P,U2,6,RESET_6*%
%TO.N,LoRa_RST*%
X104750000Y-75000000D03*
%TO.P,U2,7,DIO5_7*%
%TO.N,unconnected-(U2-DIO5-Pad7)*%
X104750000Y-77000000D03*
%TO.P,U2,8,GND_8*%
%TO.N,GND*%
X104750000Y-79000000D03*
%TO.P,U2,9,ANT_9*%
%TO.N,ANT*%
X119800000Y-79000000D03*
%TO.P,U2,10,GND_10*%
%TO.N,GND*%
X119800000Y-77000000D03*
%TO.P,U2,11,DIO3_11*%
%TO.N,unconnected-(U2-DIO3-Pad11)*%
X119800000Y-75000000D03*
%TO.P,U2,12,DIO4_12*%
%TO.N,unconnected-(U2-DIO4-Pad12)*%
X119800000Y-73000000D03*
%TO.P,U2,13,3.3V_13*%
%TO.N,+3V3*%
X119800000Y-71000000D03*
%TO.P,U2,14,DIO0_14*%
%TO.N,LoRa_DIO0*%
X119800000Y-69000000D03*
%TO.P,U2,15,DIO1_15*%
%TO.N,LoRa_DIO1*%
X119800000Y-67000000D03*
%TO.P,U2,16,DIO2_16*%
%TO.N,LoRa_DIO2*%
X119800000Y-65000000D03*
%TD*%
D17*
%TO.P,J2,1,Pin_1_1*%
%TO.N,BUZ_EN*%
X89030000Y-29160000D03*
%TO.P,J2,2,Pin_2_2*%
%TO.N,LoRa_DIO0*%
X89030000Y-31160000D03*
%TO.P,J2,3,Pin_3_3*%
%TO.N,LoRa_RST*%
X89030000Y-33160000D03*
%TO.P,J2,4,Pin_4_4*%
%TO.N,TMB1*%
X89030000Y-35160000D03*
%TO.P,J2,5,Pin_5_5*%
%TO.N,LoRa_DIO1*%
X89030000Y-37160000D03*
%TO.P,J2,6,Pin_6_6*%
%TO.N,TMBT1*%
X89030000Y-39160000D03*
%TO.P,J2,7,Pin_7_7*%
%TO.N,LoRa_DIO2*%
X89030000Y-41160000D03*
%TO.P,J2,8,Pin_8_8*%
%TO.N,TMB2*%
X89030000Y-43160000D03*
%TO.P,J2,9,Pin_9_9*%
%TO.N,SDA*%
X89030000Y-45160000D03*
%TO.P,J2,10,Pin_10_10*%
%TO.N,VIB_EN*%
X89030000Y-47160000D03*
%TO.P,J2,11,Pin_11_11*%
%TO.N,SCL*%
X89030000Y-49160000D03*
%TO.P,J2,12,Pin_12_12*%
%TO.N,P0.31*%
X89030000Y-51160000D03*
%TD*%
D26*
%TO.P,U1,1,P0.02_A0_D0_1*%
%TO.N,BUZ_EN*%
X93052200Y-29880000D03*
%TO.P,U1,2,P0.03_A1_D1_2*%
%TO.N,LoRa_RST*%
X93052200Y-32420000D03*
%TO.P,U1,3,P0.28_A2_D2_3*%
%TO.N,LoRa_DIO1*%
X93052200Y-34960000D03*
%TO.P,U1,4,P0.29_A3_D3_4*%
%TO.N,LoRa_DIO2*%
X93052200Y-37500000D03*
%TO.P,U1,5,P0.04_A4_D4_SDA_5*%
%TO.N,SDA*%
X93052200Y-40040000D03*
%TO.P,U1,6,P0.05_A5_D5_SCL_6*%
%TO.N,SCL*%
X93052200Y-42580000D03*
%TO.P,U1,7,P1.11_D6_TX_7*%
%TO.N,Pogo TX*%
X93052200Y-45120000D03*
D27*
%TO.P,U1,8,P1.12_D7_RX_8*%
%TO.N,Pogo RX*%
X109562200Y-45120000D03*
%TO.P,U1,9,P1.13_D8_SCK_9*%
%TO.N,LoRa_SCK*%
X109562200Y-42580000D03*
%TO.P,U1,10,P1.14_D9_MISO_10*%
%TO.N,LoRa_MISO*%
X109562200Y-40040000D03*
%TO.P,U1,11,P1.15_D10_MOSI_11*%
%TO.N,LoRa_MOSI*%
X109562200Y-37500000D03*
%TO.P,U1,12,3V3_12*%
%TO.N,+3V3*%
X109562200Y-34960000D03*
%TO.P,U1,13,GND_13*%
%TO.N,GND*%
X109562200Y-32420000D03*
%TO.P,U1,14,VBUS_14*%
%TO.N,Pogo VBUS*%
X109562200Y-29880000D03*
D28*
%TO.P,U1,15,P0.15_D11_I2S_SD_15*%
%TO.N,LoRa_DIO0*%
X92652200Y-31150000D03*
%TO.P,U1,16,P0.19_D12_I2S_SCK_16*%
%TO.N,TMB1*%
X92652200Y-33690000D03*
%TO.P,U1,17,P1.01_D13_I2S_WS_17*%
%TO.N,TMBT1*%
X92652200Y-36230000D03*
%TO.P,U1,18,P0.09_D14_NFC1_RX1_18*%
%TO.N,TMB2*%
X92652200Y-38770000D03*
%TO.P,U1,19,P0.10_D15_NFC2_TX1_19*%
%TO.N,VIB_EN*%
X92652200Y-41310000D03*
%TO.P,U1,20,P0.31_D16_BAT_20*%
%TO.N,P0.31*%
X92652200Y-43850000D03*
D29*
%TO.P,U1,21,P1.03_D17_SCK1_21*%
%TO.N,LoRa_NSS*%
X109962200Y-43850000D03*
%TO.P,U1,22,P1.05_D18_MISO1_22*%
%TO.N,SPI_MISO1*%
X109962200Y-41310000D03*
%TO.P,U1,23,P1.07_D19_MOSI1_23*%
%TO.N,SPI_MOSI1*%
X109962200Y-38770000D03*
D30*
%TO.P,U1,24,SWDIO_24*%
%TO.N,Pogo SWDIO*%
X100037200Y-28927500D03*
%TO.P,U1,25,SWDCLK_25*%
%TO.N,Pogo SWDCLK*%
X102577200Y-28927500D03*
%TO.P,U1,26,REST_26*%
%TO.N,unconnected-(U1-REST-Pad26)*%
X100037200Y-31467500D03*
%TO.P,U1,27,GND_27*%
%TO.N,GND*%
X102577200Y-31467500D03*
D31*
%TO.P,U1,28,VBAT_28*%
%TO.N,VBAT*%
X100313212Y-43017823D03*
%TO.P,U1,29,GND_29*%
%TO.N,GND*%
X102313212Y-43017823D03*
%TD*%
D24*
%TO.P,Q3,1,B_1*%
%TO.N,Net-(Q3-B)*%
X104702500Y-58390000D03*
%TO.P,Q3,2,E_2*%
%TO.N,GND*%
X104702500Y-60290000D03*
%TO.P,Q3,3,C_3*%
%TO.N,Net-(Q3-C)*%
X106577500Y-59340000D03*
%TD*%
D12*
%TO.P,M1,1,+_1*%
%TO.N,+3V3*%
X118610000Y-44085000D03*
D13*
%TO.P,M1,2,-_2*%
%TO.N,Net-(D1-A)*%
X118610000Y-41545000D03*
%TD*%
D12*
%TO.P,J1,1,Pin_1_1*%
%TO.N,GND*%
X111500000Y-84000000D03*
D13*
%TO.P,J1,2,Pin_2_2*%
%TO.N,+3V3*%
X108960000Y-84000000D03*
%TO.P,J1,3,Pin_3_3*%
%TO.N,SCL*%
X106420000Y-84000000D03*
%TO.P,J1,4,Pin_4_4*%
%TO.N,SDA*%
X103880000Y-84000000D03*
%TD*%
D32*
%TO.P,BT1,1,+_1*%
%TO.N,Battery Castellation*%
X117027200Y-33793600D03*
D33*
%TO.P,BT1,2,-_2*%
%TO.N,GND*%
X115027200Y-33793600D03*
%TD*%
D34*
%TO.N,VBAT*%
X104480000Y-31770000D03*
D35*
X100320000Y-42360000D03*
X100310000Y-43700000D03*
D34*
%TO.N,Pogo VBUS*%
X105300000Y-49000000D03*
%TO.N,Pogo RX*%
X109220000Y-51950000D03*
%TO.N,Pogo TX*%
X91190000Y-56940000D03*
X91170000Y-51900000D03*
D35*
%TO.N,GND*%
X102312903Y-42370067D03*
X102310000Y-43690000D03*
D36*
X102580000Y-31930000D03*
X102573850Y-31000000D03*
D34*
X119810000Y-36890000D03*
D36*
%TO.N,Pogo SWDIO*%
X100030000Y-28460000D03*
D34*
X98850000Y-38840000D03*
D36*
X100050000Y-29400000D03*
D34*
%TO.N,Pogo SWDCLK*%
X103550000Y-39760735D03*
D36*
X102580000Y-28460000D03*
X102580000Y-29390000D03*
D34*
%TO.N,Net-(Q3-C)*%
X108714523Y-52753943D03*
%TO.N,+3V3*%
X114160000Y-38450000D03*
X119160000Y-39660000D03*
X106090000Y-50780000D03*
%TO.N,VIB_EN*%
X99400000Y-41330000D03*
X99417500Y-46932500D03*
X101280000Y-46900000D03*
X93760000Y-41310000D03*
%TO.N,TMB1*%
X95670000Y-33750000D03*
X94330000Y-33720000D03*
%TO.N,TMB2*%
X96870000Y-38750000D03*
X94780000Y-38750000D03*
%TO.N,TMBT1*%
X94300000Y-36240000D03*
X96280000Y-36180000D03*
%TO.N,Net-(D1-A)*%
X116510000Y-45380000D03*
X103050000Y-46870000D03*
%TO.N,BUZ_EN*%
X104240000Y-36860000D03*
X94550000Y-29900000D03*
X98210000Y-36860000D03*
X98230000Y-29890000D03*
%TO.N,SPI_MOSI1*%
X115900000Y-41350000D03*
X112460000Y-40830000D03*
X117890000Y-47730000D03*
X119590000Y-48030000D03*
%TO.N,SPI_MISO1*%
X115280000Y-42900000D03*
X119530000Y-49010000D03*
X111990000Y-42750000D03*
X117880000Y-48640000D03*
%TO.N,LoRa_MISO*%
X106720000Y-66940000D03*
X112760000Y-66980000D03*
%TO.N,LoRa_MOSI*%
X113300000Y-69030000D03*
X106720000Y-69020000D03*
%TO.N,LoRa_SCK*%
X111950000Y-71040000D03*
X107030000Y-71030000D03*
%TO.N,LoRa_NSS*%
X107010000Y-72920000D03*
X111250000Y-72910000D03*
%TO.N,LoRa_RST*%
X107060000Y-75030000D03*
X94760000Y-32390000D03*
X107460000Y-33400000D03*
X113945000Y-74045000D03*
%TO.N,LoRa_DIO0*%
X97950000Y-38230000D03*
X117590000Y-69010000D03*
X106290000Y-38250000D03*
X93990000Y-31150000D03*
X115970000Y-69010000D03*
X97510000Y-31190000D03*
X115970000Y-49540000D03*
X106290000Y-49540000D03*
%TO.N,LoRa_DIO1*%
X107140000Y-48540000D03*
X117820000Y-67000000D03*
X115270000Y-67000000D03*
X94720000Y-34960000D03*
X115270000Y-48530000D03*
X106942165Y-35023111D03*
%TO.N,LoRa_DIO2*%
X107810000Y-37460000D03*
X114560000Y-65020000D03*
X117710000Y-65000000D03*
X107840000Y-47900000D03*
X114550000Y-47900000D03*
X94800000Y-37510000D03*
%TO.N,SDA*%
X94910000Y-40040000D03*
X97590000Y-40060000D03*
%TO.N,SCL*%
X98200000Y-42510000D03*
X94640000Y-42580000D03*
D36*
%TO.N,unconnected-(U1-REST-Pad26)*%
X100030000Y-30990000D03*
X100040000Y-31940000D03*
%TD*%
%TO.N,VBAT*%
D37*
X104150000Y-40040000D02*
X104150000Y-37618529D01*
X121509100Y-32870000D02*
X121581299Y-32870000D01*
X103991471Y-32258529D02*
X104480000Y-31770000D01*
X118133000Y-29493900D02*
X121509100Y-32870000D01*
X104150000Y-37618529D02*
X103640000Y-37108529D01*
X103640000Y-37108529D02*
X103640000Y-36611471D01*
X102722177Y-41467823D02*
X104150000Y-40040000D01*
X100380000Y-42360000D02*
X101272177Y-41467823D01*
X103991471Y-36260000D02*
X103991471Y-32258529D01*
X100320000Y-42360000D02*
X100380000Y-42360000D01*
X103640000Y-36611471D02*
X103991471Y-36260000D01*
X101272177Y-41467823D02*
X102722177Y-41467823D01*
%TO.N,Battery Castellation*%
X117027200Y-33793600D02*
X118093600Y-34860000D01*
X121583739Y-34860000D02*
X121583751Y-34870155D01*
X116133000Y-29493900D02*
X117027200Y-30388100D01*
X117027200Y-30388100D02*
X117027200Y-33793600D01*
X118093600Y-34860000D02*
X121583739Y-34860000D01*
%TO.N,Pogo VBUS*%
X94020000Y-51040000D02*
X90829768Y-54230232D01*
X105300000Y-49000000D02*
X105300000Y-30650000D01*
X106070000Y-29880000D02*
X109562200Y-29880000D01*
X105300000Y-30650000D02*
X106070000Y-29880000D01*
X94020000Y-50810000D02*
X94020000Y-51040000D01*
X90829768Y-54230232D02*
X89065277Y-54230232D01*
%TO.N,Pogo RX*%
X109220000Y-45462200D02*
X109220000Y-51950000D01*
X91139776Y-56230224D02*
X89061256Y-56230224D01*
X109562200Y-45120000D02*
X109220000Y-45462200D01*
X94020000Y-53350000D02*
X91139776Y-56230224D01*
%TO.N,Pogo TX*%
X94020000Y-55890000D02*
X91679785Y-58230215D01*
X92970000Y-56940000D02*
X94020000Y-55890000D01*
X92577200Y-45595000D02*
X92577200Y-50492800D01*
X93052200Y-45120000D02*
X92577200Y-45595000D01*
X91679785Y-58230215D02*
X89057236Y-58230215D01*
X92577200Y-50492800D02*
X91170000Y-51900000D01*
X91190000Y-56940000D02*
X92970000Y-56940000D01*
%TO.N,GND*%
X92219793Y-60230207D02*
X89053215Y-60230207D01*
X94020000Y-58430000D02*
X92219793Y-60230207D01*
X119810000Y-36890000D02*
X121586228Y-36890000D01*
X121586228Y-36890000D02*
X121586204Y-36870152D01*
%TO.N,Pogo SWDIO*%
X99990000Y-29400000D02*
X100050000Y-29400000D01*
X98887200Y-30502800D02*
X99990000Y-29400000D01*
X98720000Y-36521471D02*
X98810000Y-36611471D01*
X98810000Y-37108529D02*
X98720000Y-37198529D01*
X98720000Y-37198529D02*
X98720000Y-38710000D01*
X92759801Y-62230199D02*
X89049194Y-62230199D01*
X100030000Y-28500000D02*
X98887200Y-29642800D01*
X94020000Y-60970000D02*
X92759801Y-62230199D01*
X98810000Y-36611471D02*
X98810000Y-37108529D01*
X98887200Y-30502800D02*
X98720000Y-30670000D01*
X98720000Y-38710000D02*
X98850000Y-38840000D01*
X98887200Y-29642800D02*
X98887200Y-30502800D01*
X100030000Y-28460000D02*
X100030000Y-28500000D01*
X98720000Y-30670000D02*
X98720000Y-36521471D01*
%TO.N,Pogo SWDCLK*%
X103140000Y-39350735D02*
X103140000Y-32730000D01*
X91554973Y-63510000D02*
X90834973Y-64230000D01*
X102580000Y-29350001D02*
X103727200Y-30497200D01*
X90834973Y-64230000D02*
X89045174Y-64230000D01*
X103591471Y-32092844D02*
X103820000Y-31864314D01*
X103140000Y-32730000D02*
X103591471Y-32278529D01*
X103820000Y-31864314D02*
X103820000Y-30590000D01*
X103820000Y-30590000D02*
X103727200Y-30497200D01*
X102573704Y-28400019D02*
X102573704Y-28493704D01*
X103727200Y-29647200D02*
X103727200Y-30497200D01*
X103550000Y-39760735D02*
X103140000Y-39350735D01*
X102573704Y-28493704D02*
X103727200Y-29647200D01*
X103591471Y-32278529D02*
X103591471Y-32092844D01*
X94020000Y-63510000D02*
X91554973Y-63510000D01*
%TO.N,ANT*%
D38*
X119800000Y-79000000D02*
X118500000Y-80300000D01*
X118500000Y-80300000D02*
X118500000Y-82250000D01*
%TO.N,Net-(Q3-C)*%
D37*
X108714523Y-52753943D02*
X108650000Y-52818466D01*
X106810000Y-59107500D02*
X106810000Y-55652500D01*
X108650000Y-52818466D02*
X108650000Y-53812500D01*
X106810000Y-55652500D02*
X106960000Y-55502500D01*
X106577500Y-59340000D02*
X106810000Y-59107500D01*
X108650000Y-53812500D02*
X106960000Y-55502500D01*
%TO.N,+3V3*%
X118610000Y-51390000D02*
X117250000Y-52750000D01*
X119800000Y-71000000D02*
X118540000Y-71000000D01*
X118610000Y-44085000D02*
X118610000Y-51390000D01*
X106070000Y-50800000D02*
X106090000Y-50780000D01*
X117250000Y-52750000D02*
X116990000Y-53010000D01*
X116990000Y-53010000D02*
X116990000Y-69665000D01*
X110700000Y-34960000D02*
X109562200Y-34960000D01*
X116990000Y-69665000D02*
X118325000Y-71000000D01*
X106960000Y-51650000D02*
X106090000Y-50780000D01*
X105190000Y-50800000D02*
X106070000Y-50800000D01*
X119160000Y-39660000D02*
X119880000Y-40380000D01*
X121588805Y-38991195D02*
X121588657Y-38870149D01*
X113150000Y-76390000D02*
X113150000Y-79810000D01*
X106960000Y-53677500D02*
X106960000Y-51650000D01*
X119880000Y-42815000D02*
X118610000Y-44085000D01*
X119160000Y-39660000D02*
X120920000Y-39660000D01*
X120920000Y-39660000D02*
X121588805Y-38991195D01*
X118540000Y-71000000D02*
X113150000Y-76390000D01*
X118325000Y-71000000D02*
X119800000Y-71000000D01*
X119880000Y-40380000D02*
X119880000Y-42815000D01*
X114160000Y-38450000D02*
X114160000Y-38420000D01*
X113150000Y-79810000D02*
X108960000Y-84000000D01*
X114160000Y-38420000D02*
X110700000Y-34960000D01*
%TO.N,Net-(Q4-B)*%
X100662500Y-53960000D02*
X100662500Y-52457500D01*
X100882500Y-54180000D02*
X100662500Y-53960000D01*
X101180000Y-51940000D02*
X101180000Y-50902500D01*
X100662500Y-52457500D02*
X101180000Y-51940000D01*
%TO.N,VIB_EN*%
X90826053Y-43983145D02*
X90826053Y-46727349D01*
X90826053Y-46727349D02*
X90393303Y-47160099D01*
X99400000Y-41490000D02*
X99417500Y-41507500D01*
X90393303Y-47160099D02*
X89079491Y-47160099D01*
X93760000Y-41310000D02*
X92652200Y-41310000D01*
X91275567Y-42441984D02*
X91275567Y-43533631D01*
X91275567Y-43533631D02*
X90826053Y-43983145D01*
X92407551Y-41310000D02*
X91275567Y-42441984D01*
X92652200Y-41310000D02*
X92407551Y-41310000D01*
X99417500Y-41507500D02*
X99417500Y-46932500D01*
X101280000Y-46900000D02*
X101180000Y-47000000D01*
X99400000Y-41330000D02*
X99400000Y-41490000D01*
X101180000Y-47000000D02*
X101180000Y-49077500D01*
%TO.N,TMB1*%
X95670000Y-70904315D02*
X94370000Y-72204315D01*
X92415784Y-33690000D02*
X90960907Y-35144877D01*
X92652200Y-33690000D02*
X92415784Y-33690000D01*
X92682200Y-33720000D02*
X92652200Y-33690000D01*
X90960907Y-35144877D02*
X89118886Y-35144877D01*
X94370000Y-76970000D02*
X96045000Y-78645000D01*
X96045000Y-78645000D02*
X96370000Y-78645000D01*
X94330000Y-33720000D02*
X92682200Y-33720000D01*
X89118886Y-35144877D02*
X89103615Y-35160148D01*
X95670000Y-33750000D02*
X95670000Y-70904315D01*
X94370000Y-72204315D02*
X94370000Y-76970000D01*
%TO.N,TMB2*%
X97000000Y-39801471D02*
X96990000Y-39811471D01*
X92459954Y-38770000D02*
X91110745Y-40119209D01*
X97000000Y-72990000D02*
X96370000Y-73620000D01*
X94780000Y-38750000D02*
X94760000Y-38770000D01*
X97000000Y-40318529D02*
X97000000Y-72990000D01*
X96990000Y-40308529D02*
X97000000Y-40318529D01*
X91110745Y-41136903D02*
X89087532Y-43160116D01*
X96870000Y-38750000D02*
X97000000Y-38880000D01*
X91110745Y-40119209D02*
X91110745Y-41136903D01*
X97000000Y-38880000D02*
X97000000Y-39801471D01*
X92652200Y-38770000D02*
X92459954Y-38770000D01*
X94760000Y-38770000D02*
X92652200Y-38770000D01*
X96990000Y-39811471D02*
X96990000Y-40308529D01*
%TO.N,TMBT1*%
X94770000Y-72370000D02*
X94770000Y-74870000D01*
X96270000Y-70870000D02*
X94770000Y-72370000D01*
X92652200Y-36230000D02*
X92423028Y-36230000D01*
X92423028Y-36230000D02*
X89492896Y-39160132D01*
X94300000Y-36240000D02*
X92662200Y-36240000D01*
X92662200Y-36240000D02*
X92652200Y-36230000D01*
X96020000Y-76120000D02*
X96370000Y-76120000D01*
X89492896Y-39160132D02*
X89095574Y-39160132D01*
X96270000Y-36190000D02*
X96270000Y-70870000D01*
X96280000Y-36180000D02*
X96270000Y-36190000D01*
X94770000Y-74870000D02*
X96020000Y-76120000D01*
%TO.N,Net-(D1-A)*%
X102945000Y-53252500D02*
X102945000Y-54942500D01*
X103050000Y-46870000D02*
X103090000Y-46910000D01*
X103090000Y-53107500D02*
X102945000Y-53252500D01*
X102945000Y-54942500D02*
X102757500Y-55130000D01*
X116510000Y-45380000D02*
X116510000Y-43645000D01*
X103090000Y-46910000D02*
X103090000Y-50800000D01*
X103090000Y-50800000D02*
X103090000Y-53107500D01*
X116510000Y-43645000D02*
X118610000Y-41545000D01*
%TO.N,Net-(Q3-B)*%
X104702500Y-57595000D02*
X104690000Y-57582500D01*
X104702500Y-58390000D02*
X104702500Y-57595000D01*
X104690000Y-57582500D02*
X104690000Y-55612500D01*
X104690000Y-55612500D02*
X104800000Y-55502500D01*
%TO.N,BUZ_EN*%
X94550000Y-29900000D02*
X93072200Y-29900000D01*
X91200000Y-29400000D02*
X89355506Y-29400000D01*
X93072200Y-29900000D02*
X93052200Y-29880000D01*
X98220000Y-29880000D02*
X98230000Y-29890000D01*
X98210000Y-36860000D02*
X98210000Y-29880000D01*
X104800000Y-53090000D02*
X104550000Y-52840000D01*
X104550000Y-37170000D02*
X104240000Y-36860000D01*
X104550000Y-52840000D02*
X104550000Y-37170000D01*
X98210000Y-29880000D02*
X98220000Y-29880000D01*
X104800000Y-53677500D02*
X104800000Y-53090000D01*
X91680000Y-29880000D02*
X91200000Y-29400000D01*
X89355506Y-29400000D02*
X89115678Y-29160172D01*
X93052200Y-29880000D02*
X91680000Y-29880000D01*
%TO.N,SPI_MOSI1*%
X115910000Y-45750000D02*
X117890000Y-47730000D01*
X120700000Y-57300000D02*
X121611881Y-57300000D01*
X120200000Y-48640000D02*
X120200000Y-56800000D01*
X110400000Y-38770000D02*
X112460000Y-40830000D01*
X115900000Y-41350000D02*
X115900000Y-41610000D01*
X120200000Y-56800000D02*
X120700000Y-57300000D01*
X119590000Y-48030000D02*
X120200000Y-48640000D01*
X115900000Y-41610000D02*
X115910000Y-41620000D01*
X115910000Y-41620000D02*
X115910000Y-45750000D01*
X109962200Y-38770000D02*
X110400000Y-38770000D01*
%TO.N,SPI_MISO1*%
X109962200Y-41310000D02*
X110550000Y-41310000D01*
X121614214Y-59234214D02*
X121614293Y-59300079D01*
X119700000Y-58200000D02*
X120800000Y-59300000D01*
X119530000Y-49010000D02*
X119700000Y-49180000D01*
X119700000Y-49180000D02*
X119700000Y-58200000D01*
X121548428Y-59300000D02*
X121614214Y-59234214D01*
X120800000Y-59300000D02*
X121548428Y-59300000D01*
X115280000Y-42900000D02*
X115280000Y-46040000D01*
X115280000Y-46040000D02*
X117880000Y-48640000D01*
X110550000Y-41310000D02*
X111990000Y-42750000D01*
%TO.N,LoRa_MISO*%
X112834539Y-51334539D02*
X112834539Y-51338800D01*
X113661200Y-53334539D02*
X112834539Y-54161200D01*
X112834539Y-51338800D02*
X113661200Y-52165462D01*
X113661200Y-52165462D02*
X113661200Y-53334539D01*
X110578200Y-40040000D02*
X112720000Y-42181800D01*
X112720000Y-42181800D02*
X112720000Y-51220000D01*
X112834539Y-54161200D02*
X112720000Y-54275738D01*
X112720000Y-54275738D02*
X112720000Y-66940000D01*
X112720000Y-51220000D02*
X112834539Y-51334539D01*
X112720000Y-66940000D02*
X112760000Y-66980000D01*
X106720000Y-66940000D02*
X104810000Y-66940000D01*
X104810000Y-66940000D02*
X104750000Y-67000000D01*
X109562200Y-40040000D02*
X110578200Y-40040000D01*
%TO.N,LoRa_MOSI*%
X113390000Y-51328575D02*
X113390000Y-40738186D01*
X113390000Y-40738186D02*
X110151814Y-37500000D01*
X106720000Y-69020000D02*
X104770000Y-69020000D01*
X104770000Y-69020000D02*
X104750000Y-69000000D01*
X113300000Y-69030000D02*
X113390000Y-68940000D01*
X114061200Y-51999777D02*
X113390000Y-51328575D01*
X113390000Y-54171424D02*
X114061200Y-53500225D01*
X114061200Y-53500225D02*
X114061200Y-51999777D01*
X110151814Y-37500000D02*
X109562200Y-37500000D01*
X113390000Y-68940000D02*
X113390000Y-54171424D01*
%TO.N,LoRa_SCK*%
X106690000Y-71000000D02*
X104750000Y-71000000D01*
X111970000Y-43971800D02*
X111970000Y-51039947D01*
X107030000Y-71030000D02*
X106720000Y-71030000D01*
X111970000Y-54460000D02*
X111970000Y-71020000D01*
X113261200Y-52331147D02*
X113261200Y-53168853D01*
X109562200Y-42580000D02*
X110578200Y-42580000D01*
X106720000Y-71030000D02*
X106690000Y-71000000D01*
X112668853Y-53761200D02*
X112668800Y-53761200D01*
X110578200Y-42580000D02*
X111970000Y-43971800D01*
X111970000Y-71020000D02*
X111950000Y-71040000D01*
X113261200Y-53168853D02*
X112668853Y-53761200D01*
X111970000Y-51039947D02*
X113261200Y-52331147D01*
X112668800Y-53761200D02*
X111970000Y-54460000D01*
%TO.N,LoRa_NSS*%
X106930000Y-73000000D02*
X104750000Y-73000000D01*
X111270000Y-43850000D02*
X111238800Y-43881200D01*
X107010000Y-72920000D02*
X106930000Y-73000000D01*
X109962200Y-43850000D02*
X111270000Y-43850000D01*
X111238800Y-43881200D02*
X111238800Y-72921200D01*
X111238800Y-72921200D02*
X111250000Y-72910000D01*
%TO.N,LoRa_RST*%
X113950000Y-54177110D02*
X114461200Y-53665910D01*
X91072653Y-33160156D02*
X89107636Y-33160156D01*
X93052200Y-32420000D02*
X91812809Y-32420000D01*
X113945000Y-73365000D02*
X113950000Y-73360000D01*
X91812809Y-32420000D02*
X91072653Y-33160156D01*
X107030000Y-75000000D02*
X107060000Y-75030000D01*
X108979954Y-36240000D02*
X107460000Y-34720046D01*
X113950000Y-73360000D02*
X113950000Y-54177110D01*
X114461200Y-53665910D02*
X114461200Y-51834092D01*
X113945000Y-74045000D02*
X113945000Y-73365000D01*
X93082200Y-32390000D02*
X93052200Y-32420000D01*
X104750000Y-75000000D02*
X107030000Y-75000000D01*
X113950000Y-51322891D02*
X113950000Y-40025554D01*
X114461200Y-51834092D02*
X113950000Y-51322891D01*
X94760000Y-32390000D02*
X93082200Y-32390000D01*
X113950000Y-40025554D02*
X110164446Y-36240000D01*
X107460000Y-34720046D02*
X107460000Y-33400000D01*
X110164446Y-36240000D02*
X108979954Y-36240000D01*
%TO.N,LoRa_DIO0*%
X97510000Y-31190000D02*
X97510000Y-37790000D01*
X89121821Y-31150000D02*
X89111657Y-31160164D01*
X117600000Y-69000000D02*
X119800000Y-69000000D01*
X92652200Y-31150000D02*
X93990000Y-31150000D01*
X106290000Y-38250000D02*
X106290000Y-49540000D01*
X115970000Y-49540000D02*
X115970000Y-69010000D01*
X92652200Y-31150000D02*
X89121821Y-31150000D01*
X117590000Y-69010000D02*
X117600000Y-69000000D01*
X97510000Y-37790000D02*
X97950000Y-38230000D01*
%TO.N,LoRa_DIO1*%
X117820000Y-67000000D02*
X119800000Y-67000000D01*
X90653796Y-37160140D02*
X89099595Y-37160140D01*
X106942165Y-35023111D02*
X106942165Y-48342165D01*
X93052200Y-34960000D02*
X94720000Y-34960000D01*
X91545275Y-36268661D02*
X90653796Y-37160140D01*
X91545275Y-35714260D02*
X91545275Y-36268661D01*
X115270000Y-48530000D02*
X115270000Y-67000000D01*
X106942165Y-48342165D02*
X107140000Y-48540000D01*
X93052200Y-34960000D02*
X92299535Y-34960000D01*
X92299535Y-34960000D02*
X91545275Y-35714260D01*
%TO.N,LoRa_DIO2*%
X90706183Y-38830017D02*
X90706183Y-40658913D01*
X90204972Y-41160124D02*
X89091553Y-41160124D01*
X90706183Y-40658913D02*
X90204972Y-41160124D01*
X94790000Y-37500000D02*
X94800000Y-37510000D01*
X114861200Y-51668407D02*
X114861200Y-53831595D01*
X114580000Y-65000000D02*
X114560000Y-65020000D01*
X114580000Y-47930000D02*
X114580000Y-51387207D01*
X114580000Y-51387207D02*
X114861200Y-51668407D01*
X93052200Y-37500000D02*
X94790000Y-37500000D01*
X114861200Y-53831595D02*
X114580000Y-54112796D01*
X92036200Y-37500000D02*
X90706183Y-38830017D01*
X117710000Y-65000000D02*
X119800000Y-65000000D01*
X107810000Y-37460000D02*
X107810000Y-47870000D01*
X114550000Y-47900000D02*
X114580000Y-47930000D01*
X107810000Y-47870000D02*
X107840000Y-47900000D01*
X114580000Y-54112796D02*
X114580000Y-65000000D01*
X93052200Y-37500000D02*
X92036200Y-37500000D01*
%TO.N,SDA*%
X91605210Y-41208124D02*
X90841037Y-41972297D01*
X100260000Y-69570000D02*
X100260000Y-80380000D01*
X92036200Y-40040000D02*
X91605210Y-40470990D01*
X97600000Y-40070000D02*
X97600000Y-66910000D01*
X90841037Y-41972297D02*
X90841037Y-43402475D01*
X97590000Y-40060000D02*
X97600000Y-40070000D01*
X94910000Y-40040000D02*
X93052200Y-40040000D01*
X97600000Y-66910000D02*
X100260000Y-69570000D01*
X100260000Y-80380000D02*
X103880000Y-84000000D01*
X93052200Y-40040000D02*
X92036200Y-40040000D01*
X91605210Y-40470990D02*
X91605210Y-41208124D01*
X90841037Y-43402475D02*
X89083512Y-45160000D01*
%TO.N,SCL*%
X98200000Y-42510000D02*
X98200000Y-66860000D01*
X93052200Y-42580000D02*
X92036200Y-42580000D01*
X100660000Y-69320000D02*
X100660000Y-78240000D01*
X91245599Y-46412690D02*
X91575243Y-46742334D01*
X90730784Y-49160091D02*
X89075470Y-49160091D01*
X94640000Y-42580000D02*
X93052200Y-42580000D01*
X91695113Y-43985315D02*
X91245599Y-44434829D01*
X100660000Y-78240000D02*
X106420000Y-84000000D01*
X98200000Y-66860000D02*
X100660000Y-69320000D01*
X91695113Y-42921087D02*
X91695113Y-43985315D01*
X91245599Y-44434829D02*
X91245599Y-46412690D01*
X92036200Y-42580000D02*
X91695113Y-42921087D01*
X91575243Y-48315632D02*
X90730784Y-49160091D01*
X91575243Y-46742334D02*
X91575243Y-48315632D01*
%TO.N,P0.31*%
X91994789Y-46565751D02*
X91994789Y-49943870D01*
X91665145Y-46236107D02*
X91994789Y-46565751D01*
X92459954Y-43850000D02*
X91665145Y-44644809D01*
X91994789Y-49943870D02*
X90778576Y-51160083D01*
X92652200Y-43850000D02*
X92459954Y-43850000D01*
X90778576Y-51160083D02*
X89071449Y-51160083D01*
X91665145Y-44644809D02*
X91665145Y-46236107D01*
%TD*%
%TA.AperFunction,Conductor*%
%TO.N,GND*%
G36*
X121192539Y-27330185D02*
G01*
X121238294Y-27382989D01*
X121249500Y-27434500D01*
X121249500Y-28611846D01*
X121229815Y-28678885D01*
X121177011Y-28724640D01*
X121107853Y-28734584D01*
X121044297Y-28705559D01*
X121037819Y-28699527D01*
X120969668Y-28631376D01*
X120969666Y-28631374D01*
X120825668Y-28526753D01*
X120667076Y-28445945D01*
X120667073Y-28445944D01*
X120497796Y-28390944D01*
X120409895Y-28377022D01*
X120321995Y-28363100D01*
X120144003Y-28363100D01*
X120085403Y-28372381D01*
X119968201Y-28390944D01*
X119798924Y-28445944D01*
X119798921Y-28445945D01*
X119640329Y-28526753D01*
X119558173Y-28586443D01*
X119496332Y-28631374D01*
X119496330Y-28631376D01*
X119496329Y-28631376D01*
X119370475Y-28757230D01*
X119370475Y-28757231D01*
X119370473Y-28757233D01*
X119325542Y-28819074D01*
X119265852Y-28901230D01*
X119185044Y-29059822D01*
X119185043Y-29059825D01*
X119130042Y-29229104D01*
X119128588Y-29238285D01*
X119098656Y-29301418D01*
X119039343Y-29338346D01*
X118969480Y-29337345D01*
X118911249Y-29298733D01*
X118891555Y-29266333D01*
X118831229Y-29120691D01*
X118831227Y-29120687D01*
X118745005Y-28991647D01*
X118744999Y-28991639D01*
X118635260Y-28881900D01*
X118635252Y-28881894D01*
X118506212Y-28795672D01*
X118506208Y-28795670D01*
X118362826Y-28736280D01*
X118362816Y-28736277D01*
X118210603Y-28706000D01*
X118210601Y-28706000D01*
X118055399Y-28706000D01*
X118055397Y-28706000D01*
X117903183Y-28736277D01*
X117903173Y-28736280D01*
X117759791Y-28795670D01*
X117759787Y-28795672D01*
X117630747Y-28881894D01*
X117630739Y-28881900D01*
X117521000Y-28991639D01*
X117520994Y-28991647D01*
X117434772Y-29120687D01*
X117434770Y-29120691D01*
X117375380Y-29264073D01*
X117375377Y-29264083D01*
X117345100Y-29416296D01*
X117345100Y-29416299D01*
X117345100Y-29571501D01*
X117345100Y-29571503D01*
X117345099Y-29571503D01*
X117375377Y-29723716D01*
X117375380Y-29723726D01*
X117434770Y-29867108D01*
X117434772Y-29867112D01*
X117520994Y-29996152D01*
X117521000Y-29996160D01*
X117630739Y-30105899D01*
X117630747Y-30105905D01*
X117759787Y-30192127D01*
X117759791Y-30192129D01*
X117856255Y-30232085D01*
X117903178Y-30251521D01*
X117903182Y-30251521D01*
X117903183Y-30251522D01*
X118055396Y-30281800D01*
X118055399Y-30281800D01*
X118210603Y-30281800D01*
X118321342Y-30259772D01*
X118362822Y-30251521D01*
X118431987Y-30222871D01*
X118501454Y-30215403D01*
X118563933Y-30246678D01*
X118567119Y-30249752D01*
X120511226Y-32193859D01*
X120544711Y-32255182D01*
X120539727Y-32324874D01*
X120511231Y-32369217D01*
X120506075Y-32374373D01*
X120420991Y-32501709D01*
X120420984Y-32501722D01*
X120362379Y-32643210D01*
X120362376Y-32643219D01*
X120332500Y-32793418D01*
X120332500Y-32946581D01*
X120362376Y-33096780D01*
X120362379Y-33096789D01*
X120420984Y-33238277D01*
X120420991Y-33238290D01*
X120506075Y-33365626D01*
X120506078Y-33365630D01*
X120614369Y-33473921D01*
X120614373Y-33473924D01*
X120741709Y-33559008D01*
X120741722Y-33559015D01*
X120804435Y-33584991D01*
X120883212Y-33617621D01*
X120883214Y-33617621D01*
X120883219Y-33617623D01*
X121033418Y-33647499D01*
X121033421Y-33647500D01*
X121033423Y-33647500D01*
X121125500Y-33647500D01*
X121134185Y-33650050D01*
X121143147Y-33648762D01*
X121167187Y-33659740D01*
X121192539Y-33667185D01*
X121198466Y-33674025D01*
X121206703Y-33677787D01*
X121220992Y-33700021D01*
X121238294Y-33719989D01*
X121240581Y-33730503D01*
X121244477Y-33736565D01*
X121249500Y-33771500D01*
X121249500Y-33968500D01*
X121229815Y-34035539D01*
X121177011Y-34081294D01*
X121125500Y-34092500D01*
X121033420Y-34092500D01*
X120883219Y-34122376D01*
X120883210Y-34122379D01*
X120741722Y-34180984D01*
X120741709Y-34180991D01*
X120614373Y-34266075D01*
X120614369Y-34266078D01*
X120506078Y-34374369D01*
X120506075Y-34374373D01*
X120420991Y-34501709D01*
X120420987Y-34501716D01*
X120410183Y-34527801D01*
X120398522Y-34555952D01*
X120354683Y-34610355D01*
X120288389Y-34632421D01*
X120283962Y-34632500D01*
X118239195Y-34632500D01*
X118172156Y-34612815D01*
X118151514Y-34596181D01*
X117791018Y-34235685D01*
X117757533Y-34174362D01*
X117754699Y-34148004D01*
X117754699Y-33132774D01*
X117754699Y-33132773D01*
X117744009Y-33059396D01*
X117688676Y-32946210D01*
X117688674Y-32946208D01*
X117688674Y-32946207D01*
X117599592Y-32857125D01*
X117486402Y-32801790D01*
X117413028Y-32791100D01*
X117413027Y-32791100D01*
X117378700Y-32791100D01*
X117311661Y-32771415D01*
X117265906Y-32718611D01*
X117254700Y-32667100D01*
X117254700Y-30342848D01*
X117254699Y-30342845D01*
X117238748Y-30304335D01*
X117220066Y-30259232D01*
X116888852Y-29928018D01*
X116855367Y-29866695D01*
X116860351Y-29797003D01*
X116861939Y-29792964D01*
X116890621Y-29723722D01*
X116914844Y-29601947D01*
X116920900Y-29571503D01*
X116920900Y-29416296D01*
X116890622Y-29264083D01*
X116890621Y-29264082D01*
X116890621Y-29264078D01*
X116879230Y-29236577D01*
X116831229Y-29120691D01*
X116831227Y-29120687D01*
X116745005Y-28991647D01*
X116744999Y-28991639D01*
X116635260Y-28881900D01*
X116635252Y-28881894D01*
X116506212Y-28795672D01*
X116506208Y-28795670D01*
X116362826Y-28736280D01*
X116362816Y-28736277D01*
X116210603Y-28706000D01*
X116210601Y-28706000D01*
X116055399Y-28706000D01*
X116055397Y-28706000D01*
X115903183Y-28736277D01*
X115903173Y-28736280D01*
X115759791Y-28795670D01*
X115759787Y-28795672D01*
X115630747Y-28881894D01*
X115630739Y-28881900D01*
X115521000Y-28991639D01*
X115520994Y-28991647D01*
X115434772Y-29120687D01*
X115434770Y-29120691D01*
X115375380Y-29264073D01*
X115375377Y-29264083D01*
X115345100Y-29416296D01*
X115345100Y-29416299D01*
X115345100Y-29571501D01*
X115345100Y-29571503D01*
X115345099Y-29571503D01*
X115375377Y-29723716D01*
X115375380Y-29723726D01*
X115434770Y-29867108D01*
X115434772Y-29867112D01*
X115520994Y-29996152D01*
X115521000Y-29996160D01*
X115630739Y-30105899D01*
X115630747Y-30105905D01*
X115759787Y-30192127D01*
X115759791Y-30192129D01*
X115856255Y-30232085D01*
X115903178Y-30251521D01*
X115903182Y-30251521D01*
X115903183Y-30251522D01*
X116055396Y-30281800D01*
X116055399Y-30281800D01*
X116210603Y-30281800D01*
X116321342Y-30259772D01*
X116362822Y-30251521D01*
X116431987Y-30222871D01*
X116501454Y-30215403D01*
X116563933Y-30246678D01*
X116567096Y-30249730D01*
X116654028Y-30336661D01*
X116763381Y-30446014D01*
X116796866Y-30507337D01*
X116799700Y-30533695D01*
X116799700Y-32667100D01*
X116780015Y-32734139D01*
X116727211Y-32779894D01*
X116675703Y-32791100D01*
X116641379Y-32791100D01*
X116567996Y-32801791D01*
X116454807Y-32857125D01*
X116365725Y-32946207D01*
X116310390Y-33059397D01*
X116301564Y-33119977D01*
X116272420Y-33183478D01*
X116213571Y-33221142D01*
X116143701Y-33221010D01*
X116084994Y-33183125D01*
X116060929Y-33140417D01*
X116046608Y-33096344D01*
X115968004Y-32942075D01*
X115866232Y-32801997D01*
X115743802Y-32679567D01*
X115603724Y-32577795D01*
X115449457Y-32499191D01*
X115284789Y-32445687D01*
X115284781Y-32445685D01*
X115277200Y-32444484D01*
X115277200Y-33513270D01*
X115257455Y-33493525D01*
X115171945Y-33444156D01*
X115076570Y-33418600D01*
X114977830Y-33418600D01*
X114882455Y-33444156D01*
X114796945Y-33493525D01*
X114777200Y-33513270D01*
X114777200Y-32444484D01*
X114777199Y-32444484D01*
X114769618Y-32445685D01*
X114769610Y-32445687D01*
X114604942Y-32499191D01*
X114450675Y-32577795D01*
X114310597Y-32679567D01*
X114188167Y-32801997D01*
X114086395Y-32942075D01*
X114007791Y-33096342D01*
X113954285Y-33261015D01*
X113927200Y-33432028D01*
X113927200Y-33543600D01*
X114746870Y-33543600D01*
X114727125Y-33563345D01*
X114677756Y-33648855D01*
X114652200Y-33744230D01*
X114652200Y-33842970D01*
X114677756Y-33938345D01*
X114727125Y-34023855D01*
X114746870Y-34043600D01*
X113927200Y-34043600D01*
X113927200Y-34155171D01*
X113954285Y-34326184D01*
X114007791Y-34490857D01*
X114086395Y-34645124D01*
X114188167Y-34785202D01*
X114310597Y-34907632D01*
X114450675Y-35009404D01*
X114604944Y-35088008D01*
X114769615Y-35141514D01*
X114769614Y-35141514D01*
X114777199Y-35142715D01*
X114777200Y-35142714D01*
X114777200Y-34073930D01*
X114796945Y-34093675D01*
X114882455Y-34143044D01*
X114977830Y-34168600D01*
X115076570Y-34168600D01*
X115171945Y-34143044D01*
X115257455Y-34093675D01*
X115277200Y-34073930D01*
X115277200Y-35142715D01*
X115284784Y-35141514D01*
X115449455Y-35088008D01*
X115603724Y-35009404D01*
X115743802Y-34907632D01*
X115866232Y-34785202D01*
X115968004Y-34645124D01*
X116046609Y-34490853D01*
X116060929Y-34446782D01*
X116100365Y-34389106D01*
X116164724Y-34361907D01*
X116233570Y-34373821D01*
X116285047Y-34421065D01*
X116301564Y-34467221D01*
X116310390Y-34527801D01*
X116310390Y-34527802D01*
X116310391Y-34527804D01*
X116346080Y-34600808D01*
X116365725Y-34640992D01*
X116454807Y-34730074D01*
X116454808Y-34730074D01*
X116454810Y-34730076D01*
X116567996Y-34785409D01*
X116641373Y-34796100D01*
X117413026Y-34796099D01*
X117486404Y-34785409D01*
X117548499Y-34755052D01*
X117617370Y-34743293D01*
X117681667Y-34770636D01*
X117690639Y-34778772D01*
X117900735Y-34988868D01*
X117964732Y-35052865D01*
X118048347Y-35087500D01*
X120275677Y-35087500D01*
X120342716Y-35107185D01*
X120388471Y-35159989D01*
X120390238Y-35164047D01*
X120420986Y-35238281D01*
X120420991Y-35238290D01*
X120506075Y-35365626D01*
X120506078Y-35365630D01*
X120614369Y-35473921D01*
X120614373Y-35473924D01*
X120741716Y-35559012D01*
X120741719Y-35559013D01*
X120742550Y-35559458D01*
X120742906Y-35559808D01*
X120746781Y-35562397D01*
X120746290Y-35563131D01*
X120792397Y-35608418D01*
X120807860Y-35676555D01*
X120784032Y-35742236D01*
X120728476Y-35784607D01*
X120722420Y-35786750D01*
X120668555Y-35804251D01*
X120668552Y-35804252D01*
X120507265Y-35886434D01*
X120360830Y-35992823D01*
X120232823Y-36120830D01*
X120126434Y-36267265D01*
X120044252Y-36428552D01*
X120044250Y-36428558D01*
X119988318Y-36600704D01*
X119988315Y-36600714D01*
X119985261Y-36620000D01*
X121125500Y-36620000D01*
X121192539Y-36639685D01*
X121238294Y-36692489D01*
X121249500Y-36744000D01*
X121249500Y-36996000D01*
X121229815Y-37063039D01*
X121177011Y-37108794D01*
X121125500Y-37120000D01*
X119985261Y-37120000D01*
X119988315Y-37139285D01*
X119988318Y-37139295D01*
X120044250Y-37311441D01*
X120044252Y-37311447D01*
X120126434Y-37472734D01*
X120232823Y-37619169D01*
X120360830Y-37747176D01*
X120507265Y-37853565D01*
X120668552Y-37935747D01*
X120668558Y-37935749D01*
X120722419Y-37953249D01*
X120780095Y-37992685D01*
X120807294Y-38057044D01*
X120795380Y-38125890D01*
X120748137Y-38177366D01*
X120742564Y-38180534D01*
X120741715Y-38180987D01*
X120614373Y-38266075D01*
X120614369Y-38266078D01*
X120506078Y-38374369D01*
X120506075Y-38374373D01*
X120420991Y-38501709D01*
X120420984Y-38501722D01*
X120362379Y-38643210D01*
X120362376Y-38643219D01*
X120332500Y-38793418D01*
X120332500Y-38946581D01*
X120362376Y-39096780D01*
X120362379Y-39096789D01*
X120420984Y-39238277D01*
X120420990Y-39238288D01*
X120421871Y-39239606D01*
X120422120Y-39240402D01*
X120423861Y-39243659D01*
X120423243Y-39243989D01*
X120442751Y-39306282D01*
X120424269Y-39373663D01*
X120372292Y-39420355D01*
X120318771Y-39432500D01*
X119588438Y-39432500D01*
X119521399Y-39412815D01*
X119500757Y-39396181D01*
X119422493Y-39317917D01*
X119422491Y-39317915D01*
X119369191Y-39287142D01*
X119325010Y-39261633D01*
X119257928Y-39243659D01*
X119216281Y-39232500D01*
X119103719Y-39232500D01*
X118994989Y-39261633D01*
X118897509Y-39317915D01*
X118897506Y-39317917D01*
X118817917Y-39397506D01*
X118817915Y-39397509D01*
X118761633Y-39494989D01*
X118740448Y-39574057D01*
X118732500Y-39603719D01*
X118732500Y-39716281D01*
X118745265Y-39763921D01*
X118761633Y-39825010D01*
X118777716Y-39852865D01*
X118817915Y-39922491D01*
X118897509Y-40002085D01*
X118994991Y-40058367D01*
X119103719Y-40087500D01*
X119103721Y-40087500D01*
X119214405Y-40087500D01*
X119281444Y-40107185D01*
X119302086Y-40123819D01*
X119616181Y-40437914D01*
X119649666Y-40499237D01*
X119652500Y-40525595D01*
X119652500Y-40936983D01*
X119632815Y-41004022D01*
X119580011Y-41049777D01*
X119510853Y-41059721D01*
X119447297Y-41030696D01*
X119425398Y-41005874D01*
X119369274Y-40921880D01*
X119369271Y-40921876D01*
X119233123Y-40785728D01*
X119233119Y-40785725D01*
X119073026Y-40678753D01*
X119073013Y-40678746D01*
X118895132Y-40605066D01*
X118895128Y-40605064D01*
X118895126Y-40605064D01*
X118895122Y-40605063D01*
X118895118Y-40605062D01*
X118706279Y-40567500D01*
X118706275Y-40567500D01*
X118513725Y-40567500D01*
X118513720Y-40567500D01*
X118324881Y-40605062D01*
X118324867Y-40605066D01*
X118146986Y-40678746D01*
X118146973Y-40678753D01*
X117986880Y-40785725D01*
X117986876Y-40785728D01*
X117850728Y-40921876D01*
X117850725Y-40921880D01*
X117743753Y-41081973D01*
X117743746Y-41081986D01*
X117670066Y-41259867D01*
X117670062Y-41259881D01*
X117632500Y-41448720D01*
X117632500Y-41641279D01*
X117670062Y-41830118D01*
X117670066Y-41830132D01*
X117735912Y-41989100D01*
X117743381Y-42058569D01*
X117712105Y-42121048D01*
X117709032Y-42124233D01*
X116381133Y-43452133D01*
X116381132Y-43452135D01*
X116362554Y-43470713D01*
X116349180Y-43484087D01*
X116287856Y-43517571D01*
X116218165Y-43512585D01*
X116162232Y-43470713D01*
X116137816Y-43405248D01*
X116137500Y-43396404D01*
X116137500Y-41768438D01*
X116157185Y-41701399D01*
X116173819Y-41680757D01*
X116202494Y-41652082D01*
X116242085Y-41612491D01*
X116298367Y-41515009D01*
X116327500Y-41406281D01*
X116327500Y-41293719D01*
X116298367Y-41184991D01*
X116242085Y-41087509D01*
X116162491Y-41007915D01*
X116093215Y-40967918D01*
X116065010Y-40951633D01*
X116010333Y-40936983D01*
X115956281Y-40922500D01*
X115843719Y-40922500D01*
X115734989Y-40951633D01*
X115637509Y-41007915D01*
X115637506Y-41007917D01*
X115557917Y-41087506D01*
X115557915Y-41087509D01*
X115501633Y-41184989D01*
X115481567Y-41259881D01*
X115472500Y-41293719D01*
X115472500Y-41406281D01*
X115483871Y-41448720D01*
X115501633Y-41515010D01*
X115509297Y-41528284D01*
X115557915Y-41612491D01*
X115557917Y-41612493D01*
X115643256Y-41697832D01*
X115641463Y-41699624D01*
X115675185Y-41745798D01*
X115682500Y-41787757D01*
X115682500Y-42423974D01*
X115662815Y-42491013D01*
X115610011Y-42536768D01*
X115540853Y-42546712D01*
X115496500Y-42531361D01*
X115445012Y-42501634D01*
X115445009Y-42501633D01*
X115336281Y-42472500D01*
X115223719Y-42472500D01*
X115114989Y-42501633D01*
X115017509Y-42557915D01*
X115017506Y-42557917D01*
X114937917Y-42637506D01*
X114937915Y-42637509D01*
X114881633Y-42734989D01*
X114852829Y-42842490D01*
X114852500Y-42843719D01*
X114852500Y-42956281D01*
X114864780Y-43002112D01*
X114881633Y-43065010D01*
X114909774Y-43113750D01*
X114937915Y-43162491D01*
X114937917Y-43162493D01*
X115016181Y-43240757D01*
X115049666Y-43302080D01*
X115052500Y-43328438D01*
X115052500Y-46085253D01*
X115087136Y-46168870D01*
X117416181Y-48497914D01*
X117449666Y-48559237D01*
X117452500Y-48585595D01*
X117452500Y-48696281D01*
X117466225Y-48747506D01*
X117481633Y-48805010D01*
X117498942Y-48834989D01*
X117537915Y-48902491D01*
X117617509Y-48982085D01*
X117701928Y-49030825D01*
X117704988Y-49032592D01*
X117714991Y-49038367D01*
X117823719Y-49067500D01*
X117823721Y-49067500D01*
X117936279Y-49067500D01*
X117936281Y-49067500D01*
X118045009Y-49038367D01*
X118142491Y-48982085D01*
X118170819Y-48953757D01*
X118232142Y-48920272D01*
X118301834Y-48925256D01*
X118357767Y-48967128D01*
X118382184Y-49032592D01*
X118382500Y-49041438D01*
X118382500Y-51244405D01*
X118362815Y-51311444D01*
X118346181Y-51332086D01*
X117803286Y-51874981D01*
X117741963Y-51908466D01*
X117715605Y-51911300D01*
X116526241Y-51911300D01*
X116489050Y-51918698D01*
X116446878Y-51946877D01*
X116424602Y-51980216D01*
X116370989Y-52025020D01*
X116301664Y-52033727D01*
X116238637Y-52003572D01*
X116201918Y-51944129D01*
X116197500Y-51911324D01*
X116197500Y-49968438D01*
X116217185Y-49901399D01*
X116233819Y-49880757D01*
X116265568Y-49849008D01*
X116312085Y-49802491D01*
X116368367Y-49705009D01*
X116397500Y-49596281D01*
X116397500Y-49483719D01*
X116368367Y-49374991D01*
X116312085Y-49277509D01*
X116232491Y-49197915D01*
X116175497Y-49165009D01*
X116135010Y-49141633D01*
X116044598Y-49117408D01*
X116026281Y-49112500D01*
X115913719Y-49112500D01*
X115804989Y-49141633D01*
X115707509Y-49197915D01*
X115701063Y-49202862D01*
X115699880Y-49201321D01*
X115689744Y-49206855D01*
X115673011Y-49221356D01*
X115659679Y-49223272D01*
X115647858Y-49229728D01*
X115625771Y-49228148D01*
X115603853Y-49231300D01*
X115591601Y-49225704D01*
X115578166Y-49224744D01*
X115560439Y-49211473D01*
X115540297Y-49202275D01*
X115533014Y-49190943D01*
X115522233Y-49182872D01*
X115514495Y-49162126D01*
X115502523Y-49143497D01*
X115499371Y-49121578D01*
X115497816Y-49117408D01*
X115497500Y-49108562D01*
X115497500Y-48958438D01*
X115517185Y-48891399D01*
X115533819Y-48870757D01*
X115569587Y-48834989D01*
X115612085Y-48792491D01*
X115668367Y-48695009D01*
X115697500Y-48586281D01*
X115697500Y-48473719D01*
X115668367Y-48364991D01*
X115612085Y-48267509D01*
X115532491Y-48187915D01*
X115479811Y-48157500D01*
X115435010Y-48131633D01*
X115363602Y-48112500D01*
X115326281Y-48102500D01*
X115213719Y-48102500D01*
X115130680Y-48124750D01*
X115124473Y-48126413D01*
X115054623Y-48124750D01*
X114996761Y-48085587D01*
X114969257Y-48021358D01*
X114972605Y-47974547D01*
X114977500Y-47956281D01*
X114977500Y-47843719D01*
X114948367Y-47734991D01*
X114892085Y-47637509D01*
X114812491Y-47557915D01*
X114761169Y-47528284D01*
X114715010Y-47501633D01*
X114660645Y-47487066D01*
X114606281Y-47472500D01*
X114493719Y-47472500D01*
X114384989Y-47501633D01*
X114363499Y-47514041D01*
X114295599Y-47530513D01*
X114229572Y-47507660D01*
X114186382Y-47452738D01*
X114177500Y-47406653D01*
X114177500Y-39980302D01*
X114177498Y-39980297D01*
X114172473Y-39968166D01*
X114164413Y-39948706D01*
X114142868Y-39896688D01*
X110293316Y-36047136D01*
X110209699Y-36012500D01*
X109125550Y-36012500D01*
X109058511Y-35992815D01*
X109037869Y-35976181D01*
X108835869Y-35774181D01*
X108802384Y-35712858D01*
X108807368Y-35643166D01*
X108849240Y-35587233D01*
X108914704Y-35562816D01*
X108923550Y-35562500D01*
X110505116Y-35562500D01*
X110570011Y-35549591D01*
X110570011Y-35549590D01*
X110570015Y-35549590D01*
X110643614Y-35500414D01*
X110669845Y-35461154D01*
X110723455Y-35416350D01*
X110792779Y-35407640D01*
X110855808Y-35437793D01*
X110860629Y-35442363D01*
X113698674Y-38280408D01*
X113732159Y-38341731D01*
X113731123Y-38385339D01*
X113733561Y-38385660D01*
X113732500Y-38393718D01*
X113732500Y-38393719D01*
X113732500Y-38506281D01*
X113744815Y-38552243D01*
X113761633Y-38615010D01*
X113788169Y-38660970D01*
X113817915Y-38712491D01*
X113897509Y-38792085D01*
X113994991Y-38848367D01*
X114103719Y-38877500D01*
X114103721Y-38877500D01*
X114216279Y-38877500D01*
X114216281Y-38877500D01*
X114325009Y-38848367D01*
X114422491Y-38792085D01*
X114502085Y-38712491D01*
X114558367Y-38615009D01*
X114587500Y-38506281D01*
X114587500Y-38393719D01*
X114558367Y-38284991D01*
X114502085Y-38187509D01*
X114422491Y-38107915D01*
X114373750Y-38079774D01*
X114325010Y-38051633D01*
X114270645Y-38037066D01*
X114216281Y-38022500D01*
X114135596Y-38022500D01*
X114068557Y-38002815D01*
X114047915Y-37986181D01*
X110828871Y-34767137D01*
X110828867Y-34767134D01*
X110782245Y-34747822D01*
X110727842Y-34703980D01*
X110705779Y-34637685D01*
X110705700Y-34633262D01*
X110705700Y-34558083D01*
X110692791Y-34493188D01*
X110692790Y-34493186D01*
X110692790Y-34493185D01*
X110666893Y-34454426D01*
X110643614Y-34419585D01*
X110570017Y-34370411D01*
X110570011Y-34370408D01*
X110505116Y-34357500D01*
X110505114Y-34357500D01*
X108619286Y-34357500D01*
X108619284Y-34357500D01*
X108554388Y-34370408D01*
X108554382Y-34370411D01*
X108480785Y-34419585D01*
X108431611Y-34493182D01*
X108431608Y-34493188D01*
X108418700Y-34558083D01*
X108418700Y-35057650D01*
X108399015Y-35124689D01*
X108346211Y-35170444D01*
X108277053Y-35180388D01*
X108213497Y-35151363D01*
X108207019Y-35145331D01*
X107723819Y-34662131D01*
X107690334Y-34600808D01*
X107687500Y-34574450D01*
X107687500Y-33828438D01*
X107707185Y-33761399D01*
X107723819Y-33740757D01*
X107744587Y-33719989D01*
X107802085Y-33662491D01*
X107858367Y-33565009D01*
X107887500Y-33456281D01*
X107887500Y-33394998D01*
X108940752Y-33394998D01*
X108940753Y-33394999D01*
X110183646Y-33394999D01*
X110183646Y-33394998D01*
X109562201Y-32773553D01*
X109562200Y-32773553D01*
X108940752Y-33394998D01*
X107887500Y-33394998D01*
X107887500Y-33343719D01*
X107858367Y-33234991D01*
X107802085Y-33137509D01*
X107722491Y-33057915D01*
X107661151Y-33022500D01*
X107625010Y-33001633D01*
X107566579Y-32985977D01*
X107516281Y-32972500D01*
X107403719Y-32972500D01*
X107294989Y-33001633D01*
X107197509Y-33057915D01*
X107197506Y-33057917D01*
X107117917Y-33137506D01*
X107117915Y-33137509D01*
X107061633Y-33234989D01*
X107032500Y-33343719D01*
X107032500Y-33456281D01*
X107040867Y-33487506D01*
X107061633Y-33565010D01*
X107089774Y-33613750D01*
X107117915Y-33662491D01*
X107117917Y-33662493D01*
X107196181Y-33740757D01*
X107229666Y-33802080D01*
X107232500Y-33828438D01*
X107232500Y-34496725D01*
X107212815Y-34563764D01*
X107160011Y-34609519D01*
X107090853Y-34619463D01*
X107076408Y-34616500D01*
X106998447Y-34595611D01*
X106998446Y-34595611D01*
X106885884Y-34595611D01*
X106777154Y-34624744D01*
X106679674Y-34681026D01*
X106679671Y-34681028D01*
X106600082Y-34760617D01*
X106600080Y-34760620D01*
X106543798Y-34858100D01*
X106523673Y-34933212D01*
X106514665Y-34966830D01*
X106514665Y-35079392D01*
X106516974Y-35088008D01*
X106543798Y-35188121D01*
X106571775Y-35236577D01*
X106600080Y-35285602D01*
X106600082Y-35285604D01*
X106678346Y-35363868D01*
X106711831Y-35425191D01*
X106714665Y-35451549D01*
X106714665Y-37786771D01*
X106694980Y-37853810D01*
X106642176Y-37899565D01*
X106573018Y-37909509D01*
X106528665Y-37894158D01*
X106455012Y-37851634D01*
X106455009Y-37851633D01*
X106346281Y-37822500D01*
X106233719Y-37822500D01*
X106124989Y-37851633D01*
X106027509Y-37907915D01*
X106027506Y-37907917D01*
X105947917Y-37987506D01*
X105947915Y-37987509D01*
X105891633Y-38084989D01*
X105867356Y-38175595D01*
X105862500Y-38193719D01*
X105862500Y-38306281D01*
X105871999Y-38341731D01*
X105891633Y-38415010D01*
X105919774Y-38463750D01*
X105947915Y-38512491D01*
X105947917Y-38512493D01*
X106026181Y-38590757D01*
X106059666Y-38652080D01*
X106062500Y-38678438D01*
X106062500Y-49111561D01*
X106042815Y-49178600D01*
X106026182Y-49199242D01*
X105947914Y-49277509D01*
X105891633Y-49374989D01*
X105862500Y-49483719D01*
X105862500Y-49596280D01*
X105891633Y-49705010D01*
X105919774Y-49753750D01*
X105947915Y-49802491D01*
X106027509Y-49882085D01*
X106095834Y-49921533D01*
X106123487Y-49937499D01*
X106124991Y-49938367D01*
X106233719Y-49967500D01*
X106233721Y-49967500D01*
X106346279Y-49967500D01*
X106346281Y-49967500D01*
X106455009Y-49938367D01*
X106552491Y-49882085D01*
X106632085Y-49802491D01*
X106688367Y-49705009D01*
X106717500Y-49596281D01*
X106717500Y-49483719D01*
X106688367Y-49374991D01*
X106675141Y-49352084D01*
X106632085Y-49277509D01*
X106553818Y-49199242D01*
X106520334Y-49137918D01*
X106517500Y-49111561D01*
X106517500Y-48779573D01*
X106537185Y-48712534D01*
X106589989Y-48666779D01*
X106659147Y-48656835D01*
X106722703Y-48685860D01*
X106748884Y-48717569D01*
X106797915Y-48802491D01*
X106877509Y-48882085D01*
X106974991Y-48938367D01*
X107083719Y-48967500D01*
X107083721Y-48967500D01*
X107196279Y-48967500D01*
X107196281Y-48967500D01*
X107305009Y-48938367D01*
X107402491Y-48882085D01*
X107482085Y-48802491D01*
X107538367Y-48705009D01*
X107567500Y-48596281D01*
X107567500Y-48483719D01*
X107561266Y-48460453D01*
X107562929Y-48390604D01*
X107602092Y-48332742D01*
X107666321Y-48305238D01*
X107713127Y-48308585D01*
X107783719Y-48327500D01*
X107783722Y-48327500D01*
X107896279Y-48327500D01*
X107896281Y-48327500D01*
X108005009Y-48298367D01*
X108102491Y-48242085D01*
X108182085Y-48162491D01*
X108238367Y-48065009D01*
X108267500Y-47956281D01*
X108267500Y-47843719D01*
X108238367Y-47734991D01*
X108211188Y-47687917D01*
X108182085Y-47637509D01*
X108102490Y-47557914D01*
X108102485Y-47557910D01*
X108099495Y-47556184D01*
X108097476Y-47554067D01*
X108096043Y-47552967D01*
X108096214Y-47552743D01*
X108051282Y-47505615D01*
X108037500Y-47448800D01*
X108037500Y-37888438D01*
X108044358Y-37865079D01*
X108046985Y-37840874D01*
X108054973Y-37828931D01*
X108057185Y-37821399D01*
X108065024Y-37810538D01*
X108071289Y-37802778D01*
X108072491Y-37802085D01*
X108152085Y-37722491D01*
X108192149Y-37653097D01*
X108198224Y-37645575D01*
X108219310Y-37630965D01*
X108237880Y-37613259D01*
X108247556Y-37611394D01*
X108255655Y-37605783D01*
X108281294Y-37604892D01*
X108306488Y-37600037D01*
X108315635Y-37603699D01*
X108325483Y-37603357D01*
X108347535Y-37616470D01*
X108371352Y-37626005D01*
X108377066Y-37634030D01*
X108385537Y-37639067D01*
X108396999Y-37662022D01*
X108411880Y-37682919D01*
X108414137Y-37696342D01*
X108416751Y-37701577D01*
X108416071Y-37707842D01*
X108418700Y-37723475D01*
X108418700Y-37901914D01*
X108418700Y-37901916D01*
X108418699Y-37901916D01*
X108431608Y-37966811D01*
X108431611Y-37966817D01*
X108480785Y-38040414D01*
X108512344Y-38061500D01*
X108554385Y-38089590D01*
X108554386Y-38089590D01*
X108554388Y-38089591D01*
X108619283Y-38102500D01*
X108619286Y-38102500D01*
X109391525Y-38102500D01*
X109458564Y-38122185D01*
X109504319Y-38174989D01*
X109514263Y-38244147D01*
X109485238Y-38307703D01*
X109479206Y-38314181D01*
X109247168Y-38546218D01*
X109247167Y-38546219D01*
X109226098Y-38577751D01*
X109218700Y-38614942D01*
X109218700Y-38925052D01*
X109226097Y-38962246D01*
X109226097Y-38962247D01*
X109226098Y-38962248D01*
X109247166Y-38993778D01*
X109247168Y-38993780D01*
X109247171Y-38993784D01*
X109479206Y-39225819D01*
X109512691Y-39287142D01*
X109507707Y-39356834D01*
X109465835Y-39412767D01*
X109400371Y-39437184D01*
X109391525Y-39437500D01*
X108619284Y-39437500D01*
X108554388Y-39450408D01*
X108554382Y-39450411D01*
X108480785Y-39499585D01*
X108431611Y-39573182D01*
X108431608Y-39573188D01*
X108418700Y-39638083D01*
X108418700Y-39638086D01*
X108418700Y-40441914D01*
X108418700Y-40441916D01*
X108418699Y-40441916D01*
X108431608Y-40506811D01*
X108431611Y-40506817D01*
X108480785Y-40580414D01*
X108517675Y-40605062D01*
X108554385Y-40629590D01*
X108554386Y-40629590D01*
X108554388Y-40629591D01*
X108619283Y-40642500D01*
X109391525Y-40642500D01*
X109458564Y-40662185D01*
X109504319Y-40714989D01*
X109514263Y-40784147D01*
X109485238Y-40847703D01*
X109479206Y-40854181D01*
X109247168Y-41086218D01*
X109247167Y-41086219D01*
X109226098Y-41117751D01*
X109218700Y-41154942D01*
X109218700Y-41465052D01*
X109226097Y-41502246D01*
X109226097Y-41502247D01*
X109226098Y-41502248D01*
X109247166Y-41533778D01*
X109247168Y-41533780D01*
X109247171Y-41533784D01*
X109479206Y-41765819D01*
X109512691Y-41827142D01*
X109507707Y-41896834D01*
X109465835Y-41952767D01*
X109400371Y-41977184D01*
X109391525Y-41977500D01*
X108619284Y-41977500D01*
X108554388Y-41990408D01*
X108554382Y-41990411D01*
X108480785Y-42039585D01*
X108431611Y-42113182D01*
X108431608Y-42113188D01*
X108418700Y-42178083D01*
X108418700Y-42178085D01*
X108418700Y-42178086D01*
X108418700Y-42981914D01*
X108418700Y-42981916D01*
X108418699Y-42981916D01*
X108431608Y-43046811D01*
X108431611Y-43046817D01*
X108480785Y-43120414D01*
X108527218Y-43151438D01*
X108554385Y-43169590D01*
X108554386Y-43169590D01*
X108554388Y-43169591D01*
X108619283Y-43182500D01*
X109391525Y-43182500D01*
X109458564Y-43202185D01*
X109504319Y-43254989D01*
X109514263Y-43324147D01*
X109485238Y-43387703D01*
X109479206Y-43394181D01*
X109247168Y-43626218D01*
X109247167Y-43626219D01*
X109226098Y-43657751D01*
X109218700Y-43694942D01*
X109218700Y-44005052D01*
X109226097Y-44042246D01*
X109226097Y-44042247D01*
X109226098Y-44042248D01*
X109247166Y-44073778D01*
X109247168Y-44073780D01*
X109247171Y-44073784D01*
X109479206Y-44305819D01*
X109512691Y-44367142D01*
X109507707Y-44436834D01*
X109465835Y-44492767D01*
X109400371Y-44517184D01*
X109391525Y-44517500D01*
X108619284Y-44517500D01*
X108554388Y-44530408D01*
X108554382Y-44530411D01*
X108480785Y-44579585D01*
X108431611Y-44653182D01*
X108431608Y-44653188D01*
X108418700Y-44718083D01*
X108418700Y-44718086D01*
X108418700Y-45521914D01*
X108418700Y-45521916D01*
X108418699Y-45521916D01*
X108431608Y-45586811D01*
X108431611Y-45586817D01*
X108480785Y-45660414D01*
X108547137Y-45704747D01*
X108554385Y-45709590D01*
X108554386Y-45709590D01*
X108554388Y-45709591D01*
X108619283Y-45722500D01*
X108619286Y-45722500D01*
X108868500Y-45722500D01*
X108935539Y-45742185D01*
X108981294Y-45794989D01*
X108992500Y-45846500D01*
X108992500Y-51521561D01*
X108972815Y-51588600D01*
X108956182Y-51609242D01*
X108877914Y-51687509D01*
X108821633Y-51784989D01*
X108804480Y-51849008D01*
X108792500Y-51893719D01*
X108792500Y-52006281D01*
X108799854Y-52033727D01*
X108821633Y-52115010D01*
X108836317Y-52140442D01*
X108852790Y-52208342D01*
X108829938Y-52274369D01*
X108775017Y-52317560D01*
X108728930Y-52326443D01*
X108658242Y-52326443D01*
X108549512Y-52355576D01*
X108452032Y-52411858D01*
X108452029Y-52411860D01*
X108372440Y-52491449D01*
X108372438Y-52491452D01*
X108316156Y-52588932D01*
X108287896Y-52694405D01*
X108287023Y-52697662D01*
X108287023Y-52810224D01*
X108298714Y-52853855D01*
X108316156Y-52918953D01*
X108321682Y-52928524D01*
X108372438Y-53016434D01*
X108372440Y-53016436D01*
X108386181Y-53030177D01*
X108419666Y-53091500D01*
X108422500Y-53117858D01*
X108422500Y-53666904D01*
X108402815Y-53733943D01*
X108386181Y-53754585D01*
X107987397Y-54153368D01*
X107926074Y-54186853D01*
X107856382Y-54181869D01*
X107800449Y-54139997D01*
X107776032Y-54074533D01*
X107777012Y-54047808D01*
X107787500Y-53975827D01*
X107787499Y-53204174D01*
X107776809Y-53130796D01*
X107721476Y-53017610D01*
X107721474Y-53017608D01*
X107721474Y-53017607D01*
X107632392Y-52928525D01*
X107519202Y-52873190D01*
X107445828Y-52862500D01*
X107445827Y-52862500D01*
X107311500Y-52862500D01*
X107244461Y-52842815D01*
X107198706Y-52790011D01*
X107187500Y-52738500D01*
X107187500Y-51604748D01*
X107187500Y-51604747D01*
X107177279Y-51580072D01*
X107177279Y-51580070D01*
X107152868Y-51521137D01*
X107152866Y-51521132D01*
X106837405Y-51205671D01*
X106553819Y-50922085D01*
X106520334Y-50860762D01*
X106517500Y-50834404D01*
X106517500Y-50723721D01*
X106517500Y-50723719D01*
X106488367Y-50614991D01*
X106432085Y-50517509D01*
X106352491Y-50437915D01*
X106302049Y-50408792D01*
X106255010Y-50381633D01*
X106184778Y-50362815D01*
X106146281Y-50352500D01*
X106033719Y-50352500D01*
X105924989Y-50381633D01*
X105827509Y-50437915D01*
X105827506Y-50437917D01*
X105742168Y-50523256D01*
X105740970Y-50522058D01*
X105692379Y-50557524D01*
X105622632Y-50561664D01*
X105561719Y-50527439D01*
X105554105Y-50518045D01*
X105550529Y-50514469D01*
X105485459Y-50470991D01*
X105471143Y-50461425D01*
X105471141Y-50461424D01*
X105471138Y-50461423D01*
X105401141Y-50447500D01*
X105401138Y-50447500D01*
X104978862Y-50447500D01*
X104925690Y-50458076D01*
X104856098Y-50451847D01*
X104800922Y-50408984D01*
X104777678Y-50343094D01*
X104777500Y-50336458D01*
X104777500Y-49381438D01*
X104797185Y-49314399D01*
X104849989Y-49268644D01*
X104919147Y-49258700D01*
X104982703Y-49287725D01*
X104989181Y-49293757D01*
X105037509Y-49342085D01*
X105134991Y-49398367D01*
X105243719Y-49427500D01*
X105243721Y-49427500D01*
X105356279Y-49427500D01*
X105356281Y-49427500D01*
X105465009Y-49398367D01*
X105562491Y-49342085D01*
X105642085Y-49262491D01*
X105698367Y-49165009D01*
X105727500Y-49056281D01*
X105727500Y-48943719D01*
X105698367Y-48834991D01*
X105673830Y-48792493D01*
X105642085Y-48737509D01*
X105563818Y-48659242D01*
X105530334Y-48597918D01*
X105527500Y-48571561D01*
X105527500Y-32000995D01*
X108046200Y-32000995D01*
X108046200Y-32838998D01*
X108061513Y-32955318D01*
X108061515Y-32955326D01*
X108121468Y-33100066D01*
X108216841Y-33224358D01*
X108322903Y-33305742D01*
X108350423Y-33278223D01*
X109208646Y-32419999D01*
X109915753Y-32419999D01*
X109915753Y-32420000D01*
X110801495Y-33305743D01*
X110907558Y-33224358D01*
X111002931Y-33100066D01*
X111062884Y-32955326D01*
X111062884Y-32955325D01*
X111078199Y-32839004D01*
X111078199Y-32001001D01*
X111062886Y-31884681D01*
X111062884Y-31884673D01*
X111002931Y-31739933D01*
X110907560Y-31615642D01*
X110801495Y-31534256D01*
X109915753Y-32419999D01*
X109208646Y-32419999D01*
X108322902Y-31534255D01*
X108216843Y-31615638D01*
X108121468Y-31739933D01*
X108061515Y-31884673D01*
X108061515Y-31884674D01*
X108046200Y-32000995D01*
X105527500Y-32000995D01*
X105527500Y-31445000D01*
X108940752Y-31445000D01*
X109562200Y-32066447D01*
X109562201Y-32066447D01*
X110183646Y-31445000D01*
X108940752Y-31445000D01*
X105527500Y-31445000D01*
X105527500Y-30795595D01*
X105547185Y-30728556D01*
X105563819Y-30707914D01*
X106127914Y-30143819D01*
X106189237Y-30110334D01*
X106215595Y-30107500D01*
X108294700Y-30107500D01*
X108361739Y-30127185D01*
X108407494Y-30179989D01*
X108418700Y-30231500D01*
X108418700Y-30281914D01*
X108418700Y-30281916D01*
X108418699Y-30281916D01*
X108431608Y-30346811D01*
X108431611Y-30346817D01*
X108480785Y-30420414D01*
X108541599Y-30461047D01*
X108554385Y-30469590D01*
X108554386Y-30469590D01*
X108554388Y-30469591D01*
X108619283Y-30482500D01*
X108619286Y-30482500D01*
X110505116Y-30482500D01*
X110570011Y-30469591D01*
X110570011Y-30469590D01*
X110570015Y-30469590D01*
X110643614Y-30420414D01*
X110692790Y-30346815D01*
X110693579Y-30342848D01*
X110705700Y-30281916D01*
X110705700Y-29851139D01*
X110725385Y-29784100D01*
X110778189Y-29738345D01*
X110847347Y-29728401D01*
X110910903Y-29757426D01*
X110947631Y-29812822D01*
X110985044Y-29927971D01*
X110985046Y-29927977D01*
X111058871Y-30072865D01*
X111065854Y-30086569D01*
X111170475Y-30230567D01*
X111296334Y-30356426D01*
X111440332Y-30461047D01*
X111482108Y-30482333D01*
X111598923Y-30541854D01*
X111598926Y-30541855D01*
X111651325Y-30558880D01*
X111768205Y-30596856D01*
X111944005Y-30624700D01*
X111944006Y-30624700D01*
X112121996Y-30624700D01*
X112121997Y-30624700D01*
X112297797Y-30596856D01*
X112467078Y-30541854D01*
X112625670Y-30461047D01*
X112769668Y-30356426D01*
X112895527Y-30230567D01*
X113000148Y-30086569D01*
X113080955Y-29927977D01*
X113135957Y-29758696D01*
X113137410Y-29749521D01*
X113167338Y-29686388D01*
X113226649Y-29649457D01*
X113296512Y-29650453D01*
X113354745Y-29689063D01*
X113374444Y-29721468D01*
X113434769Y-29867108D01*
X113434771Y-29867112D01*
X113520993Y-29996152D01*
X113520999Y-29996160D01*
X113630738Y-30105899D01*
X113630746Y-30105905D01*
X113759786Y-30192127D01*
X113759790Y-30192129D01*
X113856254Y-30232085D01*
X113903177Y-30251521D01*
X113903181Y-30251521D01*
X113903182Y-30251522D01*
X114055395Y-30281800D01*
X114055398Y-30281800D01*
X114210602Y-30281800D01*
X114321341Y-30259772D01*
X114362821Y-30251521D01*
X114461234Y-30210757D01*
X114506207Y-30192129D01*
X114506211Y-30192127D01*
X114597049Y-30131431D01*
X114635256Y-30105902D01*
X114745001Y-29996157D01*
X114804159Y-29907620D01*
X114831226Y-29867112D01*
X114831228Y-29867108D01*
X114860266Y-29797003D01*
X114890620Y-29723722D01*
X114914843Y-29601947D01*
X114920899Y-29571503D01*
X114920899Y-29416296D01*
X114890621Y-29264083D01*
X114890620Y-29264082D01*
X114890620Y-29264078D01*
X114879229Y-29236577D01*
X114831228Y-29120691D01*
X114831226Y-29120687D01*
X114745004Y-28991647D01*
X114744998Y-28991639D01*
X114635259Y-28881900D01*
X114635251Y-28881894D01*
X114506211Y-28795672D01*
X114506207Y-28795670D01*
X114362825Y-28736280D01*
X114362815Y-28736277D01*
X114210602Y-28706000D01*
X114210600Y-28706000D01*
X114055398Y-28706000D01*
X114055396Y-28706000D01*
X113903182Y-28736277D01*
X113903172Y-28736280D01*
X113759790Y-28795670D01*
X113759786Y-28795672D01*
X113630746Y-28881894D01*
X113630738Y-28881900D01*
X113520999Y-28991639D01*
X113520993Y-28991647D01*
X113434771Y-29120687D01*
X113434771Y-29120688D01*
X113374444Y-29266332D01*
X113330603Y-29320735D01*
X113264309Y-29342800D01*
X113196610Y-29325521D01*
X113148999Y-29274384D01*
X113137410Y-29238277D01*
X113137141Y-29236577D01*
X113135957Y-29229104D01*
X113088623Y-29083423D01*
X113080956Y-29059825D01*
X113080955Y-29059822D01*
X113000147Y-28901230D01*
X112986103Y-28881900D01*
X112895527Y-28757233D01*
X112769668Y-28631374D01*
X112625670Y-28526753D01*
X112467078Y-28445945D01*
X112467075Y-28445944D01*
X112297798Y-28390944D01*
X112209897Y-28377022D01*
X112121997Y-28363100D01*
X111944005Y-28363100D01*
X111885405Y-28372381D01*
X111768203Y-28390944D01*
X111598926Y-28445944D01*
X111598923Y-28445945D01*
X111440331Y-28526753D01*
X111358175Y-28586443D01*
X111296334Y-28631374D01*
X111296332Y-28631376D01*
X111296331Y-28631376D01*
X111170477Y-28757230D01*
X111170477Y-28757231D01*
X111170475Y-28757233D01*
X111125544Y-28819074D01*
X111065854Y-28901230D01*
X110985046Y-29059822D01*
X110985045Y-29059825D01*
X110930045Y-29229102D01*
X110910575Y-29352032D01*
X110880646Y-29415167D01*
X110821334Y-29452098D01*
X110751472Y-29451100D01*
X110693239Y-29412490D01*
X110684999Y-29401524D01*
X110643613Y-29339584D01*
X110570017Y-29290411D01*
X110570011Y-29290408D01*
X110505116Y-29277500D01*
X110505114Y-29277500D01*
X108619286Y-29277500D01*
X108619284Y-29277500D01*
X108554388Y-29290408D01*
X108554382Y-29290411D01*
X108480785Y-29339585D01*
X108431611Y-29413182D01*
X108431608Y-29413188D01*
X108418700Y-29478083D01*
X108418700Y-29528500D01*
X108399015Y-29595539D01*
X108346211Y-29641294D01*
X108294700Y-29652500D01*
X106024744Y-29652500D01*
X105945052Y-29685511D01*
X105945049Y-29685512D01*
X105941131Y-29687134D01*
X105360597Y-30267670D01*
X105171132Y-30457135D01*
X105107135Y-30521132D01*
X105092660Y-30556078D01*
X105072500Y-30604746D01*
X105072500Y-31478465D01*
X105052815Y-31545504D01*
X105000011Y-31591259D01*
X104930853Y-31601203D01*
X104867297Y-31572178D01*
X104841114Y-31540467D01*
X104833978Y-31528108D01*
X104822085Y-31507509D01*
X104742491Y-31427915D01*
X104671258Y-31386788D01*
X104645010Y-31371633D01*
X104582966Y-31355009D01*
X104536281Y-31342500D01*
X104423719Y-31342500D01*
X104314989Y-31371633D01*
X104233501Y-31418682D01*
X104165601Y-31435155D01*
X104099574Y-31412303D01*
X104056383Y-31357382D01*
X104047500Y-31311295D01*
X104047500Y-30544748D01*
X104047500Y-30544747D01*
X104012865Y-30461132D01*
X104012863Y-30461130D01*
X104012863Y-30461129D01*
X103991019Y-30439285D01*
X103957534Y-30377962D01*
X103954700Y-30351604D01*
X103954700Y-29601948D01*
X103954699Y-29601944D01*
X103941268Y-29569519D01*
X103941268Y-29569518D01*
X103920068Y-29518337D01*
X103920066Y-29518332D01*
X103580132Y-29178398D01*
X103546647Y-29117075D01*
X103546196Y-29066527D01*
X103554700Y-29023775D01*
X103554700Y-28831225D01*
X103517136Y-28642374D01*
X103481390Y-28556075D01*
X103443453Y-28464486D01*
X103443446Y-28464473D01*
X103336474Y-28304380D01*
X103336471Y-28304376D01*
X103200323Y-28168228D01*
X103200319Y-28168225D01*
X103040217Y-28061248D01*
X102986032Y-28038804D01*
X102945804Y-28011924D01*
X102933367Y-27999487D01*
X102933365Y-27999485D01*
X102867750Y-27961602D01*
X102802136Y-27923719D01*
X102728950Y-27904109D01*
X102655766Y-27884500D01*
X102504234Y-27884500D01*
X102357865Y-27923719D01*
X102357864Y-27923719D01*
X102357862Y-27923720D01*
X102357861Y-27923720D01*
X102226639Y-27999482D01*
X102226629Y-27999489D01*
X102218148Y-28007970D01*
X102177928Y-28034843D01*
X102114181Y-28061249D01*
X101954080Y-28168225D01*
X101954076Y-28168228D01*
X101817928Y-28304376D01*
X101817925Y-28304380D01*
X101710953Y-28464473D01*
X101710946Y-28464486D01*
X101637266Y-28642367D01*
X101637262Y-28642381D01*
X101599700Y-28831220D01*
X101599700Y-29023779D01*
X101637262Y-29212618D01*
X101637266Y-29212632D01*
X101710946Y-29390513D01*
X101710953Y-29390526D01*
X101817925Y-29550619D01*
X101817928Y-29550623D01*
X101954076Y-29686771D01*
X101954080Y-29686774D01*
X102114173Y-29793746D01*
X102114177Y-29793748D01*
X102114180Y-29793750D01*
X102186470Y-29823693D01*
X102203781Y-29832512D01*
X102216302Y-29840182D01*
X102226635Y-29850515D01*
X102340253Y-29916113D01*
X102341633Y-29916958D01*
X102364038Y-29941715D01*
X102387076Y-29965877D01*
X102387392Y-29967520D01*
X102388517Y-29968763D01*
X102393982Y-30001714D01*
X102400298Y-30034484D01*
X102399675Y-30036038D01*
X102399950Y-30037691D01*
X102386735Y-30068361D01*
X102374330Y-30099348D01*
X102372965Y-30100319D01*
X102372303Y-30101858D01*
X102344599Y-30120519D01*
X102317416Y-30139876D01*
X102314944Y-30140494D01*
X102314354Y-30140892D01*
X102313260Y-30140915D01*
X102296259Y-30145169D01*
X102261070Y-30150742D01*
X102261069Y-30150742D01*
X102058982Y-30216404D01*
X101869639Y-30312880D01*
X101815482Y-30352227D01*
X101815482Y-30352228D01*
X102666296Y-31203042D01*
X102699781Y-31264365D01*
X102694797Y-31334057D01*
X102666296Y-31378404D01*
X102577200Y-31467500D01*
X102666295Y-31556595D01*
X102699780Y-31617918D01*
X102694796Y-31687610D01*
X102666295Y-31731957D01*
X101815482Y-32582769D01*
X101815482Y-32582770D01*
X101869649Y-32622124D01*
X102058982Y-32718595D01*
X102261070Y-32784257D01*
X102470954Y-32817500D01*
X102683446Y-32817500D01*
X102769102Y-32803933D01*
X102838395Y-32812887D01*
X102891847Y-32857883D01*
X102912487Y-32924635D01*
X102912500Y-32926406D01*
X102912500Y-39305482D01*
X102912500Y-39395988D01*
X102947135Y-39479603D01*
X103086182Y-39618650D01*
X103119666Y-39679971D01*
X103122500Y-39706330D01*
X103122500Y-39817016D01*
X103130078Y-39845298D01*
X103151633Y-39925745D01*
X103158420Y-39937500D01*
X103207915Y-40023226D01*
X103287509Y-40102820D01*
X103384991Y-40159102D01*
X103433202Y-40172020D01*
X103492861Y-40208383D01*
X103523391Y-40271230D01*
X103515097Y-40340606D01*
X103488789Y-40379475D01*
X102664263Y-41204004D01*
X102602940Y-41237489D01*
X102576582Y-41240323D01*
X101317430Y-41240323D01*
X101226924Y-41240323D01*
X101226922Y-41240323D01*
X101226920Y-41240324D01*
X101143311Y-41274954D01*
X101143309Y-41274956D01*
X100814262Y-41604004D01*
X100752939Y-41637489D01*
X100726581Y-41640323D01*
X99921030Y-41640323D01*
X99853991Y-41620638D01*
X99808236Y-41567834D01*
X99798292Y-41498676D01*
X99801255Y-41484230D01*
X99827500Y-41386281D01*
X99827500Y-41273719D01*
X99798367Y-41164991D01*
X99742085Y-41067509D01*
X99662491Y-40987915D01*
X99579922Y-40940243D01*
X99565010Y-40931633D01*
X99490366Y-40911633D01*
X99456281Y-40902500D01*
X99343719Y-40902500D01*
X99234989Y-40931633D01*
X99137509Y-40987915D01*
X99137506Y-40987917D01*
X99057917Y-41067506D01*
X99057915Y-41067509D01*
X99001633Y-41164989D01*
X98976210Y-41259874D01*
X98972500Y-41273719D01*
X98972500Y-41386281D01*
X98979711Y-41413194D01*
X99001633Y-41495010D01*
X99029774Y-41543750D01*
X99057915Y-41592491D01*
X99137509Y-41672085D01*
X99137515Y-41672088D01*
X99141484Y-41675134D01*
X99182688Y-41731561D01*
X99190000Y-41773512D01*
X99190000Y-46504061D01*
X99170315Y-46571100D01*
X99153682Y-46591742D01*
X99075414Y-46670009D01*
X99019133Y-46767489D01*
X98990000Y-46876219D01*
X98990000Y-46988780D01*
X99019133Y-47097510D01*
X99039330Y-47132491D01*
X99075415Y-47194991D01*
X99155009Y-47274585D01*
X99252491Y-47330867D01*
X99361219Y-47360000D01*
X99361221Y-47360000D01*
X99473779Y-47360000D01*
X99473781Y-47360000D01*
X99582509Y-47330867D01*
X99679991Y-47274585D01*
X99759585Y-47194991D01*
X99815867Y-47097509D01*
X99845000Y-46988781D01*
X99845000Y-46876219D01*
X99815867Y-46767491D01*
X99810026Y-46757375D01*
X99759585Y-46670009D01*
X99681318Y-46591742D01*
X99647834Y-46530418D01*
X99645000Y-46504061D01*
X99645000Y-44505676D01*
X99664685Y-44438637D01*
X99717489Y-44392882D01*
X99786647Y-44382938D01*
X99793192Y-44384059D01*
X99849817Y-44395323D01*
X99849820Y-44395323D01*
X100214981Y-44395323D01*
X100241007Y-44400500D01*
X100378993Y-44400500D01*
X100405019Y-44395323D01*
X100776604Y-44395323D01*
X100776606Y-44395323D01*
X100776607Y-44395322D01*
X100845654Y-44381588D01*
X101302998Y-44381588D01*
X101308930Y-44402006D01*
X101387387Y-44534667D01*
X101387391Y-44534673D01*
X101496361Y-44643643D01*
X101496370Y-44643650D01*
X101629025Y-44722102D01*
X101777029Y-44765100D01*
X101777034Y-44765101D01*
X101811608Y-44767822D01*
X101811620Y-44767823D01*
X102814804Y-44767823D01*
X102814815Y-44767822D01*
X102849389Y-44765101D01*
X102849394Y-44765100D01*
X102997398Y-44722102D01*
X103130053Y-44643650D01*
X103130062Y-44643643D01*
X103239032Y-44534673D01*
X103239039Y-44534664D01*
X103317489Y-44402013D01*
X103317491Y-44402009D01*
X103323423Y-44381588D01*
X103323423Y-44381587D01*
X102313212Y-43371376D01*
X101302998Y-44381588D01*
X100845654Y-44381588D01*
X100845880Y-44381543D01*
X100924440Y-44329051D01*
X100976932Y-44250491D01*
X100990712Y-44181215D01*
X100990712Y-43880684D01*
X100993095Y-43856492D01*
X101010500Y-43768995D01*
X101010500Y-43631004D01*
X100993095Y-43543506D01*
X100990712Y-43519314D01*
X100990712Y-42590961D01*
X100993095Y-42566770D01*
X101017595Y-42443600D01*
X101049980Y-42381689D01*
X101110695Y-42347115D01*
X101180465Y-42350854D01*
X101237137Y-42391721D01*
X101262718Y-42456739D01*
X101263212Y-42467791D01*
X101263212Y-43714270D01*
X101959660Y-43017822D01*
X102666765Y-43017822D01*
X102666765Y-43017823D01*
X103363211Y-43714270D01*
X103363212Y-43714269D01*
X103363212Y-42321376D01*
X103363211Y-42321375D01*
X102666765Y-43017822D01*
X101959660Y-43017822D01*
X102313212Y-42664270D01*
X103323423Y-41654058D01*
X103317491Y-41633636D01*
X103317490Y-41633635D01*
X103239036Y-41500978D01*
X103239032Y-41500972D01*
X103212577Y-41474517D01*
X103179092Y-41413194D01*
X103184076Y-41343502D01*
X103212575Y-41299157D01*
X104110821Y-40400911D01*
X104172142Y-40367428D01*
X104241834Y-40372412D01*
X104297767Y-40414284D01*
X104322184Y-40479748D01*
X104322500Y-40488594D01*
X104322500Y-52756475D01*
X104302815Y-52823514D01*
X104250011Y-52869269D01*
X104244604Y-52871329D01*
X104127607Y-52928525D01*
X104038525Y-53017607D01*
X103983190Y-53130797D01*
X103972500Y-53204172D01*
X103972500Y-53975820D01*
X103972501Y-53975826D01*
X103983191Y-54049204D01*
X104027577Y-54139997D01*
X104038525Y-54162392D01*
X104127607Y-54251474D01*
X104127608Y-54251474D01*
X104127610Y-54251476D01*
X104240796Y-54306809D01*
X104314173Y-54317500D01*
X105285826Y-54317499D01*
X105359204Y-54306809D01*
X105472390Y-54251476D01*
X105561476Y-54162390D01*
X105616809Y-54049204D01*
X105627500Y-53975827D01*
X105627499Y-53204174D01*
X105616809Y-53130796D01*
X105561476Y-53017610D01*
X105561474Y-53017608D01*
X105561474Y-53017607D01*
X105472392Y-52928525D01*
X105359202Y-52873190D01*
X105285828Y-52862500D01*
X105285827Y-52862500D01*
X104945595Y-52862500D01*
X104916154Y-52853855D01*
X104886168Y-52847332D01*
X104881152Y-52843577D01*
X104878556Y-52842815D01*
X104857914Y-52826181D01*
X104813819Y-52782086D01*
X104780334Y-52720763D01*
X104777500Y-52694405D01*
X104777500Y-51263541D01*
X104797185Y-51196502D01*
X104849989Y-51150747D01*
X104919147Y-51140803D01*
X104925692Y-51141924D01*
X104978859Y-51152500D01*
X104978862Y-51152500D01*
X105401140Y-51152500D01*
X105401141Y-51152499D01*
X105471143Y-51138575D01*
X105550530Y-51085530D01*
X105552481Y-51082609D01*
X105558380Y-51077679D01*
X105558599Y-51077460D01*
X105561871Y-51070297D01*
X105584996Y-51055435D01*
X105606093Y-51037804D01*
X105615469Y-51035851D01*
X105620649Y-51032523D01*
X105655584Y-51027500D01*
X105681562Y-51027500D01*
X105748601Y-51047185D01*
X105769243Y-51063819D01*
X105827509Y-51122085D01*
X105924991Y-51178367D01*
X106033719Y-51207500D01*
X106033721Y-51207500D01*
X106144405Y-51207500D01*
X106211444Y-51227185D01*
X106232086Y-51243819D01*
X106696181Y-51707914D01*
X106729666Y-51769237D01*
X106732500Y-51795595D01*
X106732500Y-52738500D01*
X106712815Y-52805539D01*
X106660011Y-52851294D01*
X106608501Y-52862500D01*
X106474179Y-52862500D01*
X106400796Y-52873191D01*
X106287607Y-52928525D01*
X106198525Y-53017607D01*
X106143190Y-53130797D01*
X106132500Y-53204172D01*
X106132500Y-53975820D01*
X106132501Y-53975826D01*
X106143191Y-54049204D01*
X106187577Y-54139997D01*
X106198525Y-54162392D01*
X106287607Y-54251474D01*
X106287608Y-54251474D01*
X106287610Y-54251476D01*
X106400796Y-54306809D01*
X106474173Y-54317500D01*
X107445826Y-54317499D01*
X107445830Y-54317499D01*
X107497492Y-54309972D01*
X107517809Y-54307012D01*
X107586986Y-54316825D01*
X107639876Y-54362480D01*
X107659687Y-54429483D01*
X107640128Y-54496559D01*
X107623368Y-54517397D01*
X107314584Y-54826181D01*
X107253261Y-54859666D01*
X107226903Y-54862500D01*
X106474179Y-54862500D01*
X106400796Y-54873191D01*
X106287607Y-54928525D01*
X106198525Y-55017607D01*
X106143190Y-55130797D01*
X106132500Y-55204172D01*
X106132500Y-55975820D01*
X106143191Y-56049203D01*
X106198525Y-56162392D01*
X106287607Y-56251474D01*
X106287608Y-56251474D01*
X106287610Y-56251476D01*
X106400796Y-56306809D01*
X106474173Y-56317500D01*
X106474180Y-56317499D01*
X106476377Y-56317820D01*
X106539878Y-56346964D01*
X106577542Y-56405813D01*
X106582500Y-56440525D01*
X106582500Y-58788500D01*
X106562815Y-58855539D01*
X106510011Y-58901294D01*
X106458500Y-58912500D01*
X105948566Y-58912500D01*
X105925365Y-58915192D01*
X105925363Y-58915192D01*
X105830461Y-58957095D01*
X105830456Y-58957098D01*
X105757098Y-59030456D01*
X105757095Y-59030461D01*
X105715192Y-59125363D01*
X105715192Y-59125365D01*
X105712500Y-59148566D01*
X105712500Y-59420718D01*
X105692815Y-59487757D01*
X105640011Y-59533512D01*
X105570853Y-59543456D01*
X105553906Y-59539795D01*
X105392489Y-59492899D01*
X105355649Y-59490000D01*
X104952500Y-59490000D01*
X104952500Y-60040000D01*
X105937295Y-60040000D01*
X105937295Y-60039998D01*
X105937100Y-60037511D01*
X105904731Y-59926094D01*
X105904931Y-59856225D01*
X105942874Y-59797555D01*
X106006512Y-59768712D01*
X106023808Y-59767500D01*
X107206431Y-59767500D01*
X107206432Y-59767500D01*
X107229634Y-59764808D01*
X107324542Y-59722903D01*
X107397903Y-59649542D01*
X107439808Y-59554634D01*
X107442500Y-59531432D01*
X107442500Y-59148568D01*
X107439808Y-59125366D01*
X107397903Y-59030458D01*
X107324542Y-58957097D01*
X107324539Y-58957095D01*
X107324538Y-58957095D01*
X107229635Y-58915192D01*
X107206433Y-58912500D01*
X107206432Y-58912500D01*
X107161500Y-58912500D01*
X107094461Y-58892815D01*
X107048706Y-58840011D01*
X107037500Y-58788500D01*
X107037500Y-56441499D01*
X107057185Y-56374460D01*
X107109989Y-56328705D01*
X107161500Y-56317499D01*
X107445826Y-56317499D01*
X107519204Y-56306809D01*
X107632390Y-56251476D01*
X107721476Y-56162390D01*
X107776809Y-56049204D01*
X107787500Y-55975827D01*
X107787499Y-55204174D01*
X107776809Y-55130796D01*
X107775184Y-55127472D01*
X107774445Y-55123146D01*
X107773966Y-55121595D01*
X107774169Y-55121532D01*
X107763423Y-55058605D01*
X107790762Y-54994306D01*
X107798891Y-54985341D01*
X108842866Y-53941368D01*
X108842866Y-53941366D01*
X108842868Y-53941365D01*
X108875858Y-53861716D01*
X108877500Y-53857753D01*
X108877500Y-53767247D01*
X108877500Y-53225074D01*
X108897185Y-53158035D01*
X108939497Y-53117688D01*
X108977014Y-53096028D01*
X109056608Y-53016434D01*
X109112890Y-52918952D01*
X109142023Y-52810224D01*
X109142023Y-52697662D01*
X109112890Y-52588934D01*
X109098205Y-52563500D01*
X109081733Y-52495601D01*
X109104585Y-52429574D01*
X109159506Y-52386383D01*
X109205593Y-52377500D01*
X109276279Y-52377500D01*
X109276281Y-52377500D01*
X109385009Y-52348367D01*
X109482491Y-52292085D01*
X109562085Y-52212491D01*
X109618367Y-52115009D01*
X109647500Y-52006281D01*
X109647500Y-51893719D01*
X109618367Y-51784991D01*
X109575903Y-51711443D01*
X109562085Y-51687509D01*
X109483818Y-51609242D01*
X109450334Y-51547918D01*
X109447500Y-51521561D01*
X109447500Y-45846500D01*
X109467185Y-45779461D01*
X109519989Y-45733706D01*
X109571500Y-45722500D01*
X110505116Y-45722500D01*
X110570011Y-45709591D01*
X110570011Y-45709590D01*
X110570015Y-45709590D01*
X110643614Y-45660414D01*
X110692790Y-45586815D01*
X110704432Y-45528290D01*
X110705700Y-45521916D01*
X110705700Y-44718083D01*
X110692791Y-44653188D01*
X110692790Y-44653186D01*
X110692790Y-44653185D01*
X110647584Y-44585527D01*
X110643614Y-44579585D01*
X110636710Y-44572681D01*
X110603225Y-44511358D01*
X110608209Y-44441666D01*
X110636710Y-44397319D01*
X110643614Y-44390414D01*
X110684614Y-44329051D01*
X110692790Y-44316815D01*
X110693207Y-44314718D01*
X110705700Y-44251916D01*
X110705700Y-44201500D01*
X110708250Y-44192814D01*
X110706962Y-44183853D01*
X110717940Y-44159812D01*
X110725385Y-44134461D01*
X110732225Y-44128533D01*
X110735987Y-44120297D01*
X110758221Y-44106007D01*
X110778189Y-44088706D01*
X110788703Y-44086418D01*
X110794765Y-44082523D01*
X110829700Y-44077500D01*
X110887300Y-44077500D01*
X110954339Y-44097185D01*
X111000094Y-44149989D01*
X111011300Y-44201500D01*
X111011300Y-72492762D01*
X110991615Y-72559801D01*
X110974981Y-72580443D01*
X110907917Y-72647506D01*
X110907915Y-72647509D01*
X110851633Y-72744989D01*
X110847955Y-72758716D01*
X110822500Y-72853719D01*
X110822500Y-72966281D01*
X110837066Y-73020645D01*
X110851633Y-73075010D01*
X110857407Y-73085010D01*
X110907915Y-73172491D01*
X110987509Y-73252085D01*
X111084991Y-73308367D01*
X111193719Y-73337500D01*
X111193721Y-73337500D01*
X111306279Y-73337500D01*
X111306281Y-73337500D01*
X111415009Y-73308367D01*
X111512491Y-73252085D01*
X111592085Y-73172491D01*
X111648367Y-73075009D01*
X111677500Y-72966281D01*
X111677500Y-72853719D01*
X111648367Y-72744991D01*
X111622397Y-72700011D01*
X111592085Y-72647509D01*
X111506744Y-72562168D01*
X111508230Y-72560681D01*
X111473611Y-72513269D01*
X111466300Y-72471321D01*
X111466300Y-71460238D01*
X111485985Y-71393199D01*
X111538789Y-71347444D01*
X111607947Y-71337500D01*
X111671503Y-71366525D01*
X111677981Y-71372557D01*
X111687509Y-71382085D01*
X111784991Y-71438367D01*
X111893719Y-71467500D01*
X111893721Y-71467500D01*
X112006279Y-71467500D01*
X112006281Y-71467500D01*
X112115009Y-71438367D01*
X112212491Y-71382085D01*
X112292085Y-71302491D01*
X112348367Y-71205009D01*
X112377500Y-71096281D01*
X112377500Y-70983719D01*
X112348367Y-70874991D01*
X112292085Y-70777509D01*
X112233819Y-70719243D01*
X112200334Y-70657920D01*
X112197500Y-70631562D01*
X112197500Y-67320532D01*
X112217185Y-67253493D01*
X112269989Y-67207738D01*
X112339147Y-67197794D01*
X112402703Y-67226819D01*
X112412109Y-67236802D01*
X112412168Y-67236744D01*
X112417915Y-67242491D01*
X112497509Y-67322085D01*
X112594991Y-67378367D01*
X112703719Y-67407500D01*
X112703721Y-67407500D01*
X112816279Y-67407500D01*
X112816281Y-67407500D01*
X112925009Y-67378367D01*
X112976499Y-67348638D01*
X113044398Y-67332165D01*
X113110425Y-67355016D01*
X113153617Y-67409937D01*
X113162500Y-67456025D01*
X113162500Y-68544159D01*
X113142815Y-68611198D01*
X113100501Y-68651545D01*
X113037515Y-68687910D01*
X113037506Y-68687917D01*
X112957917Y-68767506D01*
X112957915Y-68767509D01*
X112901633Y-68864989D01*
X112872500Y-68973719D01*
X112872500Y-69086280D01*
X112901633Y-69195010D01*
X112920392Y-69227500D01*
X112957915Y-69292491D01*
X113037509Y-69372085D01*
X113110511Y-69414233D01*
X113134987Y-69428365D01*
X113134991Y-69428367D01*
X113243719Y-69457500D01*
X113243721Y-69457500D01*
X113356279Y-69457500D01*
X113356281Y-69457500D01*
X113465009Y-69428367D01*
X113483948Y-69417432D01*
X113536499Y-69387092D01*
X113604399Y-69370618D01*
X113670426Y-69393470D01*
X113713617Y-69448390D01*
X113722500Y-69494478D01*
X113722500Y-73283009D01*
X113717668Y-73307326D01*
X113719883Y-73307767D01*
X113717500Y-73319748D01*
X113717500Y-73616561D01*
X113697815Y-73683600D01*
X113681182Y-73704242D01*
X113602914Y-73782509D01*
X113546633Y-73879989D01*
X113517500Y-73988719D01*
X113517500Y-74101280D01*
X113546633Y-74210010D01*
X113564133Y-74240320D01*
X113602915Y-74307491D01*
X113682509Y-74387085D01*
X113779991Y-74443367D01*
X113888719Y-74472500D01*
X113888721Y-74472500D01*
X114001279Y-74472500D01*
X114001281Y-74472500D01*
X114110009Y-74443367D01*
X114207491Y-74387085D01*
X114287085Y-74307491D01*
X114343367Y-74210009D01*
X114372500Y-74101281D01*
X114372500Y-73988719D01*
X114343367Y-73879991D01*
X114287085Y-73782509D01*
X114208818Y-73704242D01*
X114194113Y-73677311D01*
X114177523Y-73651496D01*
X114176631Y-73645293D01*
X114175334Y-73642918D01*
X114172500Y-73616561D01*
X114172500Y-73441989D01*
X114177343Y-73417674D01*
X114175117Y-73417232D01*
X114177500Y-73405253D01*
X114177500Y-65507572D01*
X114197185Y-65440533D01*
X114249989Y-65394778D01*
X114319147Y-65384834D01*
X114363498Y-65400184D01*
X114394991Y-65418367D01*
X114503719Y-65447500D01*
X114503721Y-65447500D01*
X114616279Y-65447500D01*
X114616281Y-65447500D01*
X114725009Y-65418367D01*
X114822491Y-65362085D01*
X114830819Y-65353757D01*
X114892142Y-65320272D01*
X114961834Y-65325256D01*
X115017767Y-65367128D01*
X115042184Y-65432592D01*
X115042500Y-65441438D01*
X115042500Y-66571561D01*
X115022815Y-66638600D01*
X115006182Y-66659242D01*
X114927914Y-66737509D01*
X114871633Y-66834989D01*
X114842500Y-66943719D01*
X114842500Y-67056280D01*
X114871633Y-67165010D01*
X114893275Y-67202493D01*
X114927915Y-67262491D01*
X115007509Y-67342085D01*
X115104991Y-67398367D01*
X115213719Y-67427500D01*
X115213721Y-67427500D01*
X115326279Y-67427500D01*
X115326281Y-67427500D01*
X115435009Y-67398367D01*
X115532491Y-67342085D01*
X115532498Y-67342077D01*
X115538937Y-67337138D01*
X115540119Y-67338678D01*
X115592142Y-67310272D01*
X115661834Y-67315256D01*
X115717767Y-67357128D01*
X115742184Y-67422592D01*
X115742500Y-67431438D01*
X115742500Y-68581561D01*
X115722815Y-68648600D01*
X115706182Y-68669242D01*
X115627914Y-68747509D01*
X115571633Y-68844989D01*
X115542500Y-68953719D01*
X115542500Y-69066281D01*
X115547859Y-69086280D01*
X115571633Y-69175010D01*
X115597500Y-69219811D01*
X115627915Y-69272491D01*
X115707509Y-69352085D01*
X115804991Y-69408367D01*
X115913719Y-69437500D01*
X115913721Y-69437500D01*
X116026279Y-69437500D01*
X116026281Y-69437500D01*
X116135009Y-69408367D01*
X116232491Y-69352085D01*
X116312085Y-69272491D01*
X116368367Y-69175009D01*
X116397500Y-69066281D01*
X116397500Y-68953719D01*
X116368367Y-68844991D01*
X116312085Y-68747509D01*
X116233818Y-68669242D01*
X116200334Y-68607918D01*
X116197500Y-68581561D01*
X116197500Y-53588675D01*
X116217185Y-53521636D01*
X116269989Y-53475881D01*
X116339147Y-53465937D01*
X116402703Y-53494962D01*
X116424602Y-53519784D01*
X116446877Y-53553122D01*
X116489050Y-53581301D01*
X116489052Y-53581302D01*
X116517005Y-53586862D01*
X116526241Y-53588700D01*
X116526242Y-53588700D01*
X116638500Y-53588700D01*
X116705539Y-53608385D01*
X116751294Y-53661189D01*
X116762500Y-53712700D01*
X116762500Y-69710253D01*
X116797136Y-69793870D01*
X118023085Y-71019819D01*
X118056570Y-71081142D01*
X118051586Y-71150834D01*
X118023085Y-71195181D01*
X115515352Y-73702915D01*
X113021132Y-76197135D01*
X112957135Y-76261132D01*
X112947404Y-76284624D01*
X112922500Y-76344746D01*
X112922500Y-79664404D01*
X112902815Y-79731443D01*
X112886181Y-79752085D01*
X109539233Y-83099032D01*
X109477910Y-83132517D01*
X109408218Y-83127533D01*
X109404100Y-83125912D01*
X109245132Y-83060066D01*
X109245128Y-83060064D01*
X109245126Y-83060064D01*
X109245122Y-83060063D01*
X109245118Y-83060062D01*
X109056279Y-83022500D01*
X109056275Y-83022500D01*
X108863725Y-83022500D01*
X108863720Y-83022500D01*
X108674881Y-83060062D01*
X108674867Y-83060066D01*
X108496986Y-83133746D01*
X108496973Y-83133753D01*
X108336880Y-83240725D01*
X108336876Y-83240728D01*
X108200728Y-83376876D01*
X108200725Y-83376880D01*
X108093753Y-83536973D01*
X108093746Y-83536986D01*
X108020066Y-83714867D01*
X108020062Y-83714881D01*
X107982500Y-83903720D01*
X107982500Y-84096279D01*
X108020062Y-84285118D01*
X108020066Y-84285132D01*
X108093746Y-84463013D01*
X108093753Y-84463026D01*
X108200725Y-84623119D01*
X108200728Y-84623123D01*
X108336876Y-84759271D01*
X108336880Y-84759274D01*
X108496973Y-84866246D01*
X108496986Y-84866253D01*
X108590002Y-84904781D01*
X108674874Y-84939936D01*
X108863720Y-84977499D01*
X108863724Y-84977500D01*
X108863725Y-84977500D01*
X109056276Y-84977500D01*
X109056277Y-84977499D01*
X109245126Y-84939936D01*
X109423020Y-84866250D01*
X109583120Y-84759274D01*
X109719274Y-84623120D01*
X109826250Y-84463020D01*
X109899936Y-84285126D01*
X109904382Y-84262769D01*
X109936767Y-84200859D01*
X109997483Y-84166285D01*
X110067252Y-84170024D01*
X110123924Y-84210890D01*
X110149506Y-84275908D01*
X110150000Y-84286961D01*
X110150000Y-84897844D01*
X110156401Y-84957372D01*
X110156403Y-84957379D01*
X110206645Y-85092086D01*
X110206649Y-85092093D01*
X110292809Y-85207187D01*
X110292812Y-85207190D01*
X110407906Y-85293350D01*
X110407913Y-85293354D01*
X110542620Y-85343596D01*
X110542627Y-85343598D01*
X110602155Y-85349999D01*
X110602172Y-85350000D01*
X111250000Y-85350000D01*
X111250000Y-84433012D01*
X111307007Y-84465925D01*
X111434174Y-84500000D01*
X111565826Y-84500000D01*
X111692993Y-84465925D01*
X111750000Y-84433012D01*
X111750000Y-85350000D01*
X112397828Y-85350000D01*
X112397844Y-85349999D01*
X112457372Y-85343598D01*
X112457379Y-85343596D01*
X112592086Y-85293354D01*
X112592093Y-85293350D01*
X112707187Y-85207190D01*
X112707190Y-85207187D01*
X112793350Y-85092093D01*
X112793354Y-85092086D01*
X112843596Y-84957379D01*
X112843598Y-84957372D01*
X112849999Y-84897844D01*
X112850000Y-84897827D01*
X112850000Y-84784658D01*
X116000001Y-84784658D01*
X116015570Y-84902928D01*
X116015573Y-84902940D01*
X116076531Y-85050108D01*
X116173509Y-85176490D01*
X116299891Y-85273468D01*
X116447059Y-85334426D01*
X116447063Y-85334427D01*
X116565342Y-85349999D01*
X116774999Y-85349999D01*
X117275000Y-85349999D01*
X117376000Y-85349999D01*
X117443039Y-85369684D01*
X117488794Y-85422488D01*
X117500000Y-85473998D01*
X117500000Y-85689323D01*
X117515442Y-85806628D01*
X117515444Y-85806633D01*
X117575899Y-85952585D01*
X117672075Y-86077924D01*
X117797413Y-86174100D01*
X117943365Y-86234554D01*
X117943369Y-86234555D01*
X118060676Y-86249999D01*
X118249999Y-86249999D01*
X118250000Y-86249998D01*
X118250000Y-84285527D01*
X118750000Y-84285527D01*
X118750000Y-86249999D01*
X118939324Y-86249999D01*
X119056628Y-86234557D01*
X119056633Y-86234555D01*
X119202585Y-86174100D01*
X119327924Y-86077924D01*
X119424100Y-85952586D01*
X119484554Y-85806634D01*
X119484555Y-85806630D01*
X119499999Y-85689330D01*
X119499999Y-85474000D01*
X119519683Y-85406960D01*
X119572487Y-85361205D01*
X119623999Y-85349999D01*
X119724999Y-85349999D01*
X120225000Y-85349999D01*
X120434658Y-85349999D01*
X120552928Y-85334429D01*
X120552940Y-85334426D01*
X120700108Y-85273468D01*
X120826490Y-85176490D01*
X120923468Y-85050108D01*
X120984426Y-84902940D01*
X120984427Y-84902936D01*
X120999999Y-84784664D01*
X121000000Y-84784650D01*
X121000000Y-84000000D01*
X120225000Y-84000000D01*
X120225000Y-85349999D01*
X119724999Y-85349999D01*
X119725000Y-85349998D01*
X119725000Y-84000000D01*
X118950000Y-84000000D01*
X118950000Y-84126000D01*
X118930315Y-84193039D01*
X118877511Y-84238794D01*
X118868330Y-84242551D01*
X118750000Y-84285527D01*
X118250000Y-84285527D01*
X118131669Y-84242551D01*
X118120389Y-84234258D01*
X118106960Y-84230315D01*
X118092801Y-84213975D01*
X118075376Y-84201164D01*
X118070370Y-84188088D01*
X118061205Y-84177511D01*
X118054470Y-84146556D01*
X118050396Y-84135912D01*
X118051257Y-84131782D01*
X118049999Y-84126000D01*
X118049999Y-84000000D01*
X117275000Y-84000000D01*
X117275000Y-85349999D01*
X116774999Y-85349999D01*
X116775000Y-85349998D01*
X116775000Y-84000000D01*
X116000001Y-84000000D01*
X116000001Y-84784658D01*
X112850000Y-84784658D01*
X112850000Y-84250000D01*
X111933012Y-84250000D01*
X111965925Y-84192993D01*
X112000000Y-84065826D01*
X112000000Y-83934174D01*
X111965925Y-83807007D01*
X111933012Y-83750000D01*
X112850000Y-83750000D01*
X112850000Y-83102172D01*
X112849999Y-83102155D01*
X112843598Y-83042627D01*
X112843596Y-83042620D01*
X112793354Y-82907913D01*
X112793350Y-82907906D01*
X112707190Y-82792812D01*
X112707187Y-82792809D01*
X112603696Y-82715335D01*
X116000000Y-82715335D01*
X116000000Y-83500000D01*
X116775000Y-83500000D01*
X116775000Y-82150000D01*
X116565341Y-82150000D01*
X116447071Y-82165570D01*
X116447059Y-82165573D01*
X116299891Y-82226531D01*
X116173509Y-82323509D01*
X116076531Y-82449891D01*
X116015573Y-82597059D01*
X116015572Y-82597063D01*
X116000000Y-82715335D01*
X112603696Y-82715335D01*
X112592093Y-82706649D01*
X112592086Y-82706645D01*
X112457379Y-82656403D01*
X112457372Y-82656401D01*
X112397844Y-82650000D01*
X111750000Y-82650000D01*
X111750000Y-83566988D01*
X111692993Y-83534075D01*
X111565826Y-83500000D01*
X111434174Y-83500000D01*
X111307007Y-83534075D01*
X111250000Y-83566988D01*
X111250000Y-82650000D01*
X110931094Y-82650000D01*
X110864055Y-82630315D01*
X110818300Y-82577511D01*
X110808356Y-82508353D01*
X110837381Y-82444797D01*
X110843404Y-82438327D01*
X113342866Y-79938868D01*
X113342866Y-79938866D01*
X113342868Y-79938865D01*
X113360183Y-79897060D01*
X113377500Y-79855253D01*
X113377500Y-79764747D01*
X113377500Y-76535594D01*
X113397185Y-76468555D01*
X113413814Y-76447918D01*
X118192290Y-71669441D01*
X118253611Y-71635958D01*
X118323303Y-71640942D01*
X118353599Y-71657352D01*
X118432217Y-71715375D01*
X118558835Y-71759680D01*
X118568858Y-71760620D01*
X118588902Y-71762500D01*
X118588906Y-71762500D01*
X121011098Y-71762500D01*
X121024458Y-71761246D01*
X121041165Y-71759680D01*
X121084545Y-71744501D01*
X121154324Y-71740939D01*
X121214951Y-71775667D01*
X121247179Y-71837660D01*
X121249500Y-71861542D01*
X121249500Y-72138457D01*
X121229815Y-72205496D01*
X121177011Y-72251251D01*
X121107853Y-72261195D01*
X121084547Y-72255499D01*
X121041167Y-72240320D01*
X121041160Y-72240319D01*
X121011098Y-72237500D01*
X121011094Y-72237500D01*
X118588906Y-72237500D01*
X118588902Y-72237500D01*
X118558839Y-72240319D01*
X118558835Y-72240319D01*
X118432217Y-72284624D01*
X118324283Y-72364283D01*
X118244624Y-72472217D01*
X118200319Y-72598835D01*
X118200319Y-72598839D01*
X118197500Y-72628902D01*
X118197500Y-73371097D01*
X118200319Y-73401160D01*
X118200319Y-73401164D01*
X118244624Y-73527782D01*
X118324283Y-73635716D01*
X118403144Y-73693918D01*
X118432217Y-73715375D01*
X118558835Y-73759680D01*
X118568858Y-73760620D01*
X118588902Y-73762500D01*
X118588906Y-73762500D01*
X121011098Y-73762500D01*
X121024458Y-73761246D01*
X121041165Y-73759680D01*
X121084545Y-73744501D01*
X121154324Y-73740939D01*
X121214951Y-73775667D01*
X121247179Y-73837660D01*
X121249500Y-73861542D01*
X121249500Y-74138457D01*
X121229815Y-74205496D01*
X121177011Y-74251251D01*
X121107853Y-74261195D01*
X121084547Y-74255499D01*
X121041167Y-74240320D01*
X121041160Y-74240319D01*
X121011098Y-74237500D01*
X121011094Y-74237500D01*
X118588906Y-74237500D01*
X118588902Y-74237500D01*
X118558839Y-74240319D01*
X118558835Y-74240319D01*
X118432217Y-74284624D01*
X118324283Y-74364283D01*
X118244624Y-74472217D01*
X118200319Y-74598835D01*
X118200319Y-74598839D01*
X118197500Y-74628902D01*
X118197500Y-75371097D01*
X118200319Y-75401160D01*
X118200319Y-75401164D01*
X118244624Y-75527782D01*
X118324284Y-75635717D01*
X118403930Y-75694498D01*
X118446181Y-75750145D01*
X118451640Y-75819801D01*
X118418573Y-75881351D01*
X118371252Y-75911309D01*
X118285558Y-75941295D01*
X118129571Y-76039308D01*
X117999308Y-76169571D01*
X117901296Y-76325556D01*
X117840452Y-76499440D01*
X117840451Y-76499446D01*
X117825000Y-76636581D01*
X117825000Y-76750000D01*
X119676000Y-76750000D01*
X119743039Y-76769685D01*
X119788794Y-76822489D01*
X119800000Y-76874000D01*
X119800000Y-77126000D01*
X119780315Y-77193039D01*
X119727511Y-77238794D01*
X119676000Y-77250000D01*
X117825000Y-77250000D01*
X117825000Y-77363418D01*
X117840451Y-77500553D01*
X117840452Y-77500559D01*
X117901296Y-77674443D01*
X117999308Y-77830428D01*
X118129571Y-77960691D01*
X118285556Y-78058703D01*
X118371251Y-78088689D01*
X118428027Y-78129411D01*
X118453775Y-78194363D01*
X118440319Y-78262925D01*
X118403931Y-78305501D01*
X118324283Y-78364283D01*
X118244624Y-78472217D01*
X118200319Y-78598835D01*
X118200319Y-78598839D01*
X118197500Y-78628902D01*
X118197500Y-79371097D01*
X118200319Y-79401160D01*
X118200319Y-79401164D01*
X118244624Y-79527782D01*
X118324283Y-79635716D01*
X118376554Y-79674293D01*
X118432217Y-79715375D01*
X118432224Y-79715377D01*
X118435244Y-79716974D01*
X118437943Y-79719601D01*
X118439694Y-79720893D01*
X118439517Y-79721132D01*
X118485317Y-79765703D01*
X118501096Y-79833767D01*
X118477572Y-79899558D01*
X118464984Y-79914286D01*
X118261941Y-80117329D01*
X118261939Y-80117332D01*
X118222774Y-80185168D01*
X118222774Y-80185169D01*
X118202500Y-80260833D01*
X118202500Y-81498500D01*
X118182815Y-81565539D01*
X118130011Y-81611294D01*
X118083603Y-81621389D01*
X118083654Y-81621903D01*
X118079251Y-81622336D01*
X118078500Y-81622500D01*
X118077591Y-81622500D01*
X118011238Y-81635698D01*
X118011234Y-81635700D01*
X117935982Y-81685982D01*
X117885700Y-81761234D01*
X117885698Y-81761238D01*
X117872500Y-81827589D01*
X117872500Y-82091649D01*
X117852815Y-82158688D01*
X117800011Y-82204443D01*
X117730853Y-82214387D01*
X117701048Y-82206210D01*
X117602940Y-82165573D01*
X117602936Y-82165572D01*
X117484664Y-82150000D01*
X117275000Y-82150000D01*
X117275000Y-83500000D01*
X118049999Y-83500000D01*
X118049999Y-83001500D01*
X118069684Y-82934461D01*
X118122488Y-82888706D01*
X118173999Y-82877500D01*
X118826000Y-82877500D01*
X118893039Y-82897185D01*
X118938794Y-82949989D01*
X118950000Y-83001500D01*
X118950000Y-83500000D01*
X119725000Y-83500000D01*
X120225000Y-83500000D01*
X120999999Y-83500000D01*
X120999999Y-82715341D01*
X120984429Y-82597071D01*
X120984426Y-82597059D01*
X120923468Y-82449891D01*
X120826490Y-82323509D01*
X120700108Y-82226531D01*
X120552940Y-82165573D01*
X120552936Y-82165572D01*
X120434664Y-82150000D01*
X120225000Y-82150000D01*
X120225000Y-83500000D01*
X119725000Y-83500000D01*
X119725000Y-82150000D01*
X119515341Y-82150000D01*
X119397071Y-82165570D01*
X119397059Y-82165573D01*
X119298952Y-82206210D01*
X119229483Y-82213679D01*
X119167004Y-82182403D01*
X119131352Y-82122314D01*
X119127500Y-82091649D01*
X119127500Y-81827591D01*
X119127499Y-81827589D01*
X119114301Y-81761238D01*
X119114300Y-81761237D01*
X119114300Y-81761234D01*
X119064018Y-81685982D01*
X118988766Y-81635700D01*
X118988764Y-81635699D01*
X118988761Y-81635698D01*
X118922409Y-81622500D01*
X118922406Y-81622500D01*
X118921500Y-81622500D01*
X118921041Y-81622365D01*
X118916346Y-81621903D01*
X118916433Y-81621012D01*
X118854461Y-81602815D01*
X118808706Y-81550011D01*
X118797500Y-81498500D01*
X118797500Y-80474591D01*
X118817185Y-80407552D01*
X118833819Y-80386910D01*
X119421910Y-79798819D01*
X119483233Y-79765334D01*
X119509591Y-79762500D01*
X121011098Y-79762500D01*
X121024458Y-79761246D01*
X121041165Y-79759680D01*
X121084545Y-79744501D01*
X121154324Y-79740939D01*
X121214951Y-79775667D01*
X121247179Y-79837660D01*
X121249500Y-79861542D01*
X121249500Y-88275975D01*
X121229815Y-88343014D01*
X121177011Y-88388769D01*
X121125594Y-88399975D01*
X89549594Y-88424023D01*
X89482540Y-88404389D01*
X89436745Y-88351620D01*
X89425500Y-88300023D01*
X89425500Y-86007648D01*
X90889500Y-86007648D01*
X90889500Y-86212351D01*
X90921522Y-86414534D01*
X90984781Y-86609223D01*
X91077715Y-86791613D01*
X91198028Y-86957213D01*
X91342786Y-87101971D01*
X91497749Y-87214556D01*
X91508390Y-87222287D01*
X91624607Y-87281503D01*
X91690776Y-87315218D01*
X91690778Y-87315218D01*
X91690781Y-87315220D01*
X91795137Y-87349127D01*
X91885465Y-87378477D01*
X91986557Y-87394488D01*
X92087648Y-87410500D01*
X92087649Y-87410500D01*
X92292351Y-87410500D01*
X92292352Y-87410500D01*
X92494534Y-87378477D01*
X92689219Y-87315220D01*
X92871610Y-87222287D01*
X92964590Y-87154732D01*
X93037213Y-87101971D01*
X93037215Y-87101968D01*
X93037219Y-87101966D01*
X93181966Y-86957219D01*
X93181968Y-86957215D01*
X93181971Y-86957213D01*
X93234732Y-86884590D01*
X93302287Y-86791610D01*
X93395220Y-86609219D01*
X93458477Y-86414534D01*
X93490500Y-86212352D01*
X93490500Y-86007648D01*
X93458662Y-85806633D01*
X93458477Y-85805465D01*
X93395218Y-85610776D01*
X93325525Y-85473998D01*
X93302287Y-85428390D01*
X93245334Y-85350000D01*
X93181971Y-85262786D01*
X93037213Y-85118028D01*
X92871613Y-84997715D01*
X92871612Y-84997714D01*
X92871610Y-84997713D01*
X92814653Y-84968691D01*
X92689223Y-84904781D01*
X92494534Y-84841522D01*
X92319995Y-84813878D01*
X92292352Y-84809500D01*
X92087648Y-84809500D01*
X92063329Y-84813351D01*
X91885465Y-84841522D01*
X91690776Y-84904781D01*
X91508386Y-84997715D01*
X91342786Y-85118028D01*
X91198028Y-85262786D01*
X91077715Y-85428386D01*
X90984781Y-85610776D01*
X90921522Y-85805465D01*
X90889500Y-86007648D01*
X89425500Y-86007648D01*
X89425500Y-83167844D01*
X89970000Y-83167844D01*
X89976401Y-83227372D01*
X89976403Y-83227379D01*
X90026645Y-83362086D01*
X90026649Y-83362093D01*
X90112809Y-83477187D01*
X90112812Y-83477190D01*
X90227906Y-83563350D01*
X90227913Y-83563354D01*
X90362620Y-83613596D01*
X90362627Y-83613598D01*
X90422155Y-83619999D01*
X90422172Y-83620000D01*
X91070000Y-83620000D01*
X91570000Y-83620000D01*
X92217828Y-83620000D01*
X92217844Y-83619999D01*
X92277372Y-83613598D01*
X92277379Y-83613596D01*
X92412086Y-83563354D01*
X92412093Y-83563350D01*
X92527187Y-83477190D01*
X92527190Y-83477187D01*
X92613350Y-83362093D01*
X92613354Y-83362086D01*
X92663596Y-83227379D01*
X92663598Y-83227372D01*
X92669999Y-83167844D01*
X92670000Y-83167827D01*
X92670000Y-82170000D01*
X91570000Y-82170000D01*
X91570000Y-83620000D01*
X91070000Y-83620000D01*
X91070000Y-82170000D01*
X89970000Y-82170000D01*
X89970000Y-83167844D01*
X89425500Y-83167844D01*
X89425500Y-80672155D01*
X89970000Y-80672155D01*
X89970000Y-81670000D01*
X91070000Y-81670000D01*
X91570000Y-81670000D01*
X92670000Y-81670000D01*
X92670000Y-80672172D01*
X92669999Y-80672155D01*
X92663598Y-80612627D01*
X92663596Y-80612620D01*
X92613354Y-80477913D01*
X92613350Y-80477906D01*
X92527190Y-80362812D01*
X92527187Y-80362809D01*
X92412093Y-80276649D01*
X92412086Y-80276645D01*
X92277379Y-80226403D01*
X92277372Y-80226401D01*
X92217844Y-80220000D01*
X91570000Y-80220000D01*
X91570000Y-81670000D01*
X91070000Y-81670000D01*
X91070000Y-80220000D01*
X90422155Y-80220000D01*
X90362627Y-80226401D01*
X90362620Y-80226403D01*
X90227913Y-80276645D01*
X90227906Y-80276649D01*
X90112812Y-80362809D01*
X90112809Y-80362812D01*
X90026649Y-80477906D01*
X90026645Y-80477913D01*
X89976403Y-80612620D01*
X89976401Y-80612627D01*
X89970000Y-80672155D01*
X89425500Y-80672155D01*
X89425500Y-78693920D01*
X91419499Y-78693920D01*
X91448340Y-78838907D01*
X91448343Y-78838917D01*
X91504912Y-78975488D01*
X91504919Y-78975501D01*
X91587048Y-79098415D01*
X91587051Y-79098419D01*
X91691580Y-79202948D01*
X91691584Y-79202951D01*
X91814498Y-79285080D01*
X91814511Y-79285087D01*
X91951082Y-79341656D01*
X91951087Y-79341658D01*
X91951091Y-79341658D01*
X91951092Y-79341659D01*
X92096079Y-79370500D01*
X92096082Y-79370500D01*
X92243920Y-79370500D01*
X92341462Y-79351096D01*
X92388913Y-79341658D01*
X92525495Y-79285084D01*
X92648416Y-79202951D01*
X92752951Y-79098416D01*
X92835084Y-78975495D01*
X92891658Y-78838913D01*
X92920500Y-78693918D01*
X92920500Y-78546082D01*
X92920500Y-78546079D01*
X92891659Y-78401092D01*
X92891658Y-78401091D01*
X92891658Y-78401087D01*
X92876414Y-78364284D01*
X92835087Y-78264511D01*
X92835080Y-78264498D01*
X92752951Y-78141584D01*
X92752948Y-78141580D01*
X92648419Y-78037051D01*
X92648415Y-78037048D01*
X92525501Y-77954919D01*
X92525488Y-77954912D01*
X92388917Y-77898343D01*
X92388907Y-77898340D01*
X92243920Y-77869500D01*
X92243918Y-77869500D01*
X92096082Y-77869500D01*
X92096080Y-77869500D01*
X91951092Y-77898340D01*
X91951082Y-77898343D01*
X91814511Y-77954912D01*
X91814498Y-77954919D01*
X91691584Y-78037048D01*
X91691580Y-78037051D01*
X91587051Y-78141580D01*
X91587048Y-78141584D01*
X91504919Y-78264498D01*
X91504912Y-78264511D01*
X91448343Y-78401082D01*
X91448340Y-78401092D01*
X91419500Y-78546079D01*
X91419500Y-78546082D01*
X91419500Y-78693918D01*
X91419500Y-78693920D01*
X91419499Y-78693920D01*
X89425500Y-78693920D01*
X89425500Y-73693920D01*
X91419499Y-73693920D01*
X91448340Y-73838907D01*
X91448343Y-73838917D01*
X91504912Y-73975488D01*
X91504919Y-73975501D01*
X91587048Y-74098415D01*
X91587051Y-74098419D01*
X91691580Y-74202948D01*
X91691584Y-74202951D01*
X91814498Y-74285080D01*
X91814511Y-74285087D01*
X91951082Y-74341656D01*
X91951087Y-74341658D01*
X91951091Y-74341658D01*
X91951092Y-74341659D01*
X92096079Y-74370500D01*
X92096082Y-74370500D01*
X92243920Y-74370500D01*
X92341462Y-74351096D01*
X92388913Y-74341658D01*
X92525495Y-74285084D01*
X92648416Y-74202951D01*
X92752951Y-74098416D01*
X92835084Y-73975495D01*
X92891658Y-73838913D01*
X92916232Y-73715375D01*
X92920500Y-73693920D01*
X92920500Y-73546079D01*
X92891659Y-73401092D01*
X92891658Y-73401091D01*
X92891658Y-73401087D01*
X92879235Y-73371094D01*
X92835087Y-73264511D01*
X92835080Y-73264498D01*
X92752951Y-73141584D01*
X92752948Y-73141580D01*
X92648419Y-73037051D01*
X92648415Y-73037048D01*
X92525501Y-72954919D01*
X92525488Y-72954912D01*
X92388917Y-72898343D01*
X92388907Y-72898340D01*
X92243920Y-72869500D01*
X92243918Y-72869500D01*
X92096082Y-72869500D01*
X92096080Y-72869500D01*
X91951092Y-72898340D01*
X91951082Y-72898343D01*
X91814511Y-72954912D01*
X91814498Y-72954919D01*
X91691584Y-73037048D01*
X91691580Y-73037051D01*
X91587051Y-73141580D01*
X91587048Y-73141584D01*
X91504919Y-73264498D01*
X91504912Y-73264511D01*
X91448343Y-73401082D01*
X91448340Y-73401092D01*
X91419500Y-73546079D01*
X91419500Y-73546082D01*
X91419500Y-73693918D01*
X91419500Y-73693920D01*
X91419499Y-73693920D01*
X89425500Y-73693920D01*
X89425500Y-71567844D01*
X89970000Y-71567844D01*
X89976401Y-71627372D01*
X89976403Y-71627379D01*
X90026645Y-71762086D01*
X90026649Y-71762093D01*
X90112809Y-71877187D01*
X90112812Y-71877190D01*
X90227906Y-71963350D01*
X90227913Y-71963354D01*
X90362620Y-72013596D01*
X90362627Y-72013598D01*
X90422155Y-72019999D01*
X90422172Y-72020000D01*
X91070000Y-72020000D01*
X91570000Y-72020000D01*
X92217828Y-72020000D01*
X92217844Y-72019999D01*
X92277372Y-72013598D01*
X92277379Y-72013596D01*
X92412086Y-71963354D01*
X92412093Y-71963350D01*
X92527187Y-71877190D01*
X92527190Y-71877187D01*
X92613350Y-71762093D01*
X92613354Y-71762086D01*
X92663596Y-71627379D01*
X92663598Y-71627372D01*
X92669999Y-71567844D01*
X92670000Y-71567827D01*
X92670000Y-70570000D01*
X91570000Y-70570000D01*
X91570000Y-72020000D01*
X91070000Y-72020000D01*
X91070000Y-70570000D01*
X89970000Y-70570000D01*
X89970000Y-71567844D01*
X89425500Y-71567844D01*
X89425500Y-69072155D01*
X89970000Y-69072155D01*
X89970000Y-70070000D01*
X91070000Y-70070000D01*
X91570000Y-70070000D01*
X92670000Y-70070000D01*
X92670000Y-69072172D01*
X92669999Y-69072155D01*
X92663598Y-69012627D01*
X92663596Y-69012620D01*
X92613354Y-68877913D01*
X92613350Y-68877906D01*
X92527190Y-68762812D01*
X92527187Y-68762809D01*
X92412093Y-68676649D01*
X92412086Y-68676645D01*
X92277379Y-68626403D01*
X92277372Y-68626401D01*
X92217844Y-68620000D01*
X91570000Y-68620000D01*
X91570000Y-70070000D01*
X91070000Y-70070000D01*
X91070000Y-68620000D01*
X90422155Y-68620000D01*
X90362627Y-68626401D01*
X90362620Y-68626403D01*
X90227913Y-68676645D01*
X90227906Y-68676649D01*
X90112812Y-68762809D01*
X90112809Y-68762812D01*
X90026649Y-68877906D01*
X90026645Y-68877913D01*
X89976403Y-69012620D01*
X89976401Y-69012627D01*
X89970000Y-69072155D01*
X89425500Y-69072155D01*
X89425500Y-65131500D01*
X89445185Y-65064461D01*
X89497989Y-65018706D01*
X89549500Y-65007500D01*
X89626579Y-65007500D01*
X89626580Y-65007499D01*
X89676647Y-64997540D01*
X89776780Y-64977623D01*
X89776783Y-64977621D01*
X89776788Y-64977621D01*
X89918284Y-64919012D01*
X90045627Y-64833924D01*
X90153924Y-64725627D01*
X90239012Y-64598284D01*
X90265619Y-64534047D01*
X90309459Y-64479644D01*
X90375753Y-64457579D01*
X90380180Y-64457500D01*
X90880225Y-64457500D01*
X90880226Y-64457500D01*
X90963841Y-64422865D01*
X91612888Y-63773819D01*
X91674211Y-63740334D01*
X91700569Y-63737500D01*
X92973341Y-63737500D01*
X93040380Y-63757185D01*
X93086135Y-63809989D01*
X93087902Y-63814048D01*
X93153746Y-63973013D01*
X93153753Y-63973026D01*
X93260725Y-64133119D01*
X93260728Y-64133123D01*
X93396876Y-64269271D01*
X93396880Y-64269274D01*
X93556973Y-64376246D01*
X93556986Y-64376253D01*
X93705806Y-64437896D01*
X93734874Y-64449936D01*
X93923720Y-64487499D01*
X93923724Y-64487500D01*
X93923725Y-64487500D01*
X94116276Y-64487500D01*
X94116277Y-64487499D01*
X94305126Y-64449936D01*
X94483020Y-64376250D01*
X94643120Y-64269274D01*
X94779274Y-64133120D01*
X94886250Y-63973020D01*
X94959936Y-63795126D01*
X94997500Y-63606275D01*
X94997500Y-63413725D01*
X94959936Y-63224874D01*
X94947896Y-63195806D01*
X94886253Y-63046986D01*
X94886246Y-63046973D01*
X94779274Y-62886880D01*
X94779271Y-62886876D01*
X94643123Y-62750728D01*
X94643119Y-62750725D01*
X94483026Y-62643753D01*
X94483013Y-62643746D01*
X94305132Y-62570066D01*
X94305128Y-62570064D01*
X94305126Y-62570064D01*
X94305122Y-62570063D01*
X94305118Y-62570062D01*
X94116279Y-62532500D01*
X94116275Y-62532500D01*
X93923725Y-62532500D01*
X93923720Y-62532500D01*
X93734881Y-62570062D01*
X93734867Y-62570066D01*
X93556986Y-62643746D01*
X93556973Y-62643753D01*
X93396880Y-62750725D01*
X93396876Y-62750728D01*
X93260728Y-62886876D01*
X93260725Y-62886880D01*
X93153753Y-63046973D01*
X93153746Y-63046986D01*
X93087902Y-63205952D01*
X93044062Y-63260356D01*
X92977767Y-63282421D01*
X92973341Y-63282500D01*
X91600226Y-63282500D01*
X91509720Y-63282500D01*
X91509718Y-63282500D01*
X91509716Y-63282501D01*
X91426107Y-63317131D01*
X91426105Y-63317133D01*
X90777059Y-63966181D01*
X90715736Y-63999666D01*
X90689378Y-64002500D01*
X90380180Y-64002500D01*
X90313141Y-63982815D01*
X90267386Y-63930011D01*
X90265619Y-63925952D01*
X90239012Y-63861716D01*
X90239010Y-63861714D01*
X90239010Y-63861712D01*
X90153924Y-63734373D01*
X90153921Y-63734369D01*
X90045630Y-63626078D01*
X90045626Y-63626075D01*
X89918290Y-63540991D01*
X89918277Y-63540984D01*
X89776789Y-63482379D01*
X89776780Y-63482376D01*
X89626580Y-63452500D01*
X89626577Y-63452500D01*
X89549500Y-63452500D01*
X89540814Y-63449949D01*
X89531853Y-63451238D01*
X89507812Y-63440259D01*
X89482461Y-63432815D01*
X89476533Y-63425974D01*
X89468297Y-63422213D01*
X89454007Y-63399978D01*
X89436706Y-63380011D01*
X89434418Y-63369496D01*
X89430523Y-63363435D01*
X89425500Y-63328500D01*
X89425500Y-63131500D01*
X89445185Y-63064461D01*
X89497989Y-63018706D01*
X89549500Y-63007500D01*
X89626579Y-63007500D01*
X89626580Y-63007499D01*
X89676647Y-62997540D01*
X89776780Y-62977623D01*
X89776783Y-62977621D01*
X89776788Y-62977621D01*
X89918284Y-62919012D01*
X90045627Y-62833924D01*
X90153924Y-62725627D01*
X90239012Y-62598284D01*
X90265537Y-62534247D01*
X90309377Y-62479843D01*
X90375671Y-62457778D01*
X90380098Y-62457699D01*
X92805053Y-62457699D01*
X92805054Y-62457699D01*
X92888669Y-62423064D01*
X93440767Y-61870964D01*
X93502088Y-61837481D01*
X93571779Y-61842465D01*
X93575875Y-61844076D01*
X93734874Y-61909936D01*
X93923720Y-61947499D01*
X93923724Y-61947500D01*
X93923725Y-61947500D01*
X94116276Y-61947500D01*
X94116277Y-61947499D01*
X94305126Y-61909936D01*
X94483020Y-61836250D01*
X94643120Y-61729274D01*
X94779274Y-61593120D01*
X94886250Y-61433020D01*
X94959936Y-61255126D01*
X94997500Y-61066275D01*
X94997500Y-60873725D01*
X94959936Y-60684874D01*
X94947896Y-60655806D01*
X94886253Y-60506986D01*
X94886246Y-60506973D01*
X94779274Y-60346880D01*
X94779271Y-60346876D01*
X94643123Y-60210728D01*
X94643119Y-60210725D01*
X94483026Y-60103753D01*
X94483013Y-60103746D01*
X94305132Y-60030066D01*
X94305119Y-60030062D01*
X94206985Y-60010542D01*
X94145074Y-59978157D01*
X94110500Y-59917441D01*
X94114240Y-59847672D01*
X94155107Y-59791000D01*
X94211780Y-59766452D01*
X94336126Y-59746758D01*
X94336130Y-59746757D01*
X94538217Y-59681095D01*
X94727554Y-59584622D01*
X94781716Y-59545270D01*
X94781717Y-59545270D01*
X94149408Y-58912962D01*
X94212993Y-58895925D01*
X94327007Y-58830099D01*
X94420099Y-58737007D01*
X94485925Y-58622993D01*
X94502962Y-58559408D01*
X95135270Y-59191717D01*
X95135270Y-59191716D01*
X95174622Y-59137554D01*
X95208015Y-59072018D01*
X95255989Y-59021222D01*
X95323810Y-59004427D01*
X95389945Y-59026964D01*
X95433397Y-59081679D01*
X95442500Y-59128313D01*
X95442500Y-70758719D01*
X95422815Y-70825758D01*
X95406181Y-70846400D01*
X94814216Y-71438366D01*
X94241132Y-72011450D01*
X94177135Y-72075447D01*
X94156846Y-72124426D01*
X94142500Y-72159061D01*
X94142500Y-77015253D01*
X94177136Y-77098870D01*
X94906181Y-77827914D01*
X94939666Y-77889237D01*
X94942500Y-77915595D01*
X94942500Y-79632558D01*
X94949898Y-79669749D01*
X94978077Y-79711922D01*
X95020250Y-79740101D01*
X95020252Y-79740102D01*
X95048205Y-79745662D01*
X95057441Y-79747500D01*
X95057442Y-79747500D01*
X97682559Y-79747500D01*
X97689957Y-79746028D01*
X97719748Y-79740102D01*
X97761922Y-79711922D01*
X97790102Y-79669748D01*
X97797500Y-79632558D01*
X97797500Y-77657442D01*
X97790102Y-77620252D01*
X97790101Y-77620250D01*
X97761922Y-77578077D01*
X97719749Y-77549898D01*
X97682559Y-77542500D01*
X97682558Y-77542500D01*
X95315595Y-77542500D01*
X95286154Y-77533855D01*
X95256168Y-77527332D01*
X95251152Y-77523577D01*
X95248556Y-77522815D01*
X95227914Y-77506181D01*
X95130914Y-77409181D01*
X95097429Y-77347858D01*
X95102413Y-77278166D01*
X95144285Y-77222233D01*
X95209749Y-77197816D01*
X95218595Y-77197500D01*
X97682559Y-77197500D01*
X97689957Y-77196028D01*
X97719748Y-77190102D01*
X97761922Y-77161922D01*
X97790102Y-77119748D01*
X97797500Y-77082558D01*
X97797500Y-75157442D01*
X97790102Y-75120252D01*
X97790101Y-75120250D01*
X97761922Y-75078077D01*
X97719749Y-75049898D01*
X97682559Y-75042500D01*
X97682558Y-75042500D01*
X95315595Y-75042500D01*
X95286154Y-75033855D01*
X95256168Y-75027332D01*
X95251152Y-75023577D01*
X95248556Y-75022815D01*
X95227914Y-75006181D01*
X95130914Y-74909181D01*
X95097429Y-74847858D01*
X95102413Y-74778166D01*
X95144285Y-74722233D01*
X95209749Y-74697816D01*
X95218595Y-74697500D01*
X97682559Y-74697500D01*
X97689957Y-74696028D01*
X97719748Y-74690102D01*
X97761922Y-74661922D01*
X97790102Y-74619748D01*
X97797500Y-74582558D01*
X97797500Y-72657442D01*
X97790102Y-72620252D01*
X97790101Y-72620250D01*
X97761922Y-72578077D01*
X97719749Y-72549898D01*
X97682559Y-72542500D01*
X97682558Y-72542500D01*
X97351500Y-72542500D01*
X97284461Y-72522815D01*
X97238706Y-72470011D01*
X97227500Y-72418500D01*
X97227500Y-67158595D01*
X97247185Y-67091556D01*
X97299989Y-67045801D01*
X97369147Y-67035857D01*
X97432703Y-67064882D01*
X97439181Y-67070914D01*
X99996181Y-69627914D01*
X100029666Y-69689237D01*
X100032500Y-69715595D01*
X100032500Y-80425253D01*
X100067136Y-80508870D01*
X102979032Y-83420765D01*
X103012517Y-83482088D01*
X103007533Y-83551780D01*
X103005913Y-83555898D01*
X102940063Y-83714875D01*
X102940062Y-83714881D01*
X102902500Y-83903720D01*
X102902500Y-84096279D01*
X102940062Y-84285118D01*
X102940066Y-84285132D01*
X103013746Y-84463013D01*
X103013753Y-84463026D01*
X103120725Y-84623119D01*
X103120728Y-84623123D01*
X103256876Y-84759271D01*
X103256880Y-84759274D01*
X103416973Y-84866246D01*
X103416986Y-84866253D01*
X103510002Y-84904781D01*
X103594874Y-84939936D01*
X103783720Y-84977499D01*
X103783724Y-84977500D01*
X103783725Y-84977500D01*
X103976276Y-84977500D01*
X103976277Y-84977499D01*
X104165126Y-84939936D01*
X104343020Y-84866250D01*
X104503120Y-84759274D01*
X104639274Y-84623120D01*
X104746250Y-84463020D01*
X104819936Y-84285126D01*
X104857500Y-84096275D01*
X104857500Y-83903725D01*
X104819936Y-83714874D01*
X104777986Y-83613598D01*
X104746253Y-83536986D01*
X104746246Y-83536973D01*
X104639274Y-83376880D01*
X104639271Y-83376876D01*
X104503123Y-83240728D01*
X104503119Y-83240725D01*
X104343026Y-83133753D01*
X104343013Y-83133746D01*
X104165132Y-83060066D01*
X104165128Y-83060064D01*
X104165126Y-83060064D01*
X104165122Y-83060063D01*
X104165118Y-83060062D01*
X103976279Y-83022500D01*
X103976275Y-83022500D01*
X103783725Y-83022500D01*
X103783720Y-83022500D01*
X103594881Y-83060062D01*
X103594875Y-83060063D01*
X103435898Y-83125913D01*
X103366428Y-83133381D01*
X103303949Y-83102105D01*
X103300765Y-83099032D01*
X100523819Y-80322086D01*
X100490334Y-80260763D01*
X100487500Y-80234405D01*
X100487500Y-78688595D01*
X100507185Y-78621556D01*
X100559989Y-78575801D01*
X100629147Y-78565857D01*
X100692703Y-78594882D01*
X100699181Y-78600914D01*
X105519032Y-83420765D01*
X105552517Y-83482088D01*
X105547533Y-83551780D01*
X105545913Y-83555898D01*
X105480063Y-83714875D01*
X105480062Y-83714881D01*
X105442500Y-83903720D01*
X105442500Y-84096279D01*
X105480062Y-84285118D01*
X105480066Y-84285132D01*
X105553746Y-84463013D01*
X105553753Y-84463026D01*
X105660725Y-84623119D01*
X105660728Y-84623123D01*
X105796876Y-84759271D01*
X105796880Y-84759274D01*
X105956973Y-84866246D01*
X105956986Y-84866253D01*
X106050002Y-84904781D01*
X106134874Y-84939936D01*
X106323720Y-84977499D01*
X106323724Y-84977500D01*
X106323725Y-84977500D01*
X106516276Y-84977500D01*
X106516277Y-84977499D01*
X106705126Y-84939936D01*
X106883020Y-84866250D01*
X107043120Y-84759274D01*
X107179274Y-84623120D01*
X107286250Y-84463020D01*
X107359936Y-84285126D01*
X107397500Y-84096275D01*
X107397500Y-83903725D01*
X107359936Y-83714874D01*
X107317986Y-83613598D01*
X107286253Y-83536986D01*
X107286246Y-83536973D01*
X107179274Y-83376880D01*
X107179271Y-83376876D01*
X107043123Y-83240728D01*
X107043119Y-83240725D01*
X106883026Y-83133753D01*
X106883013Y-83133746D01*
X106705132Y-83060066D01*
X106705128Y-83060064D01*
X106705126Y-83060064D01*
X106705122Y-83060063D01*
X106705118Y-83060062D01*
X106516279Y-83022500D01*
X106516275Y-83022500D01*
X106323725Y-83022500D01*
X106323720Y-83022500D01*
X106134881Y-83060062D01*
X106134875Y-83060063D01*
X105975898Y-83125913D01*
X105906428Y-83133381D01*
X105843949Y-83102105D01*
X105840765Y-83099032D01*
X102105151Y-79363418D01*
X102775000Y-79363418D01*
X102790451Y-79500553D01*
X102790452Y-79500559D01*
X102851296Y-79674443D01*
X102949308Y-79830428D01*
X103079571Y-79960691D01*
X103235556Y-80058703D01*
X103409440Y-80119547D01*
X103409446Y-80119548D01*
X103546581Y-80134999D01*
X103546585Y-80135000D01*
X104500000Y-80135000D01*
X105000000Y-80135000D01*
X105953415Y-80135000D01*
X105953418Y-80134999D01*
X106090553Y-80119548D01*
X106090559Y-80119547D01*
X106264443Y-80058703D01*
X106420428Y-79960691D01*
X106550691Y-79830428D01*
X106648703Y-79674443D01*
X106709547Y-79500559D01*
X106709548Y-79500553D01*
X106724999Y-79363418D01*
X106725000Y-79363414D01*
X106725000Y-79250000D01*
X105000000Y-79250000D01*
X105000000Y-80135000D01*
X104500000Y-80135000D01*
X104500000Y-79250000D01*
X102775000Y-79250000D01*
X102775000Y-79363418D01*
X102105151Y-79363418D01*
X101378314Y-78636581D01*
X102775000Y-78636581D01*
X102775000Y-78750000D01*
X106725000Y-78750000D01*
X106725000Y-78636585D01*
X106724999Y-78636581D01*
X106709548Y-78499446D01*
X106709547Y-78499440D01*
X106648703Y-78325556D01*
X106550691Y-78169571D01*
X106420428Y-78039308D01*
X106264441Y-77941295D01*
X106178747Y-77911309D01*
X106121971Y-77870588D01*
X106096224Y-77805635D01*
X106109680Y-77737073D01*
X106146064Y-77694501D01*
X106225716Y-77635716D01*
X106305375Y-77527783D01*
X106349680Y-77401165D01*
X106352500Y-77371094D01*
X106352500Y-76628906D01*
X106349680Y-76598835D01*
X106305375Y-76472217D01*
X106287438Y-76447913D01*
X106225716Y-76364283D01*
X106117782Y-76284624D01*
X105991162Y-76240319D01*
X105961098Y-76237500D01*
X105961094Y-76237500D01*
X103538906Y-76237500D01*
X103538902Y-76237500D01*
X103508839Y-76240319D01*
X103508835Y-76240319D01*
X103382217Y-76284624D01*
X103274283Y-76364283D01*
X103194624Y-76472217D01*
X103150319Y-76598835D01*
X103150319Y-76598839D01*
X103147500Y-76628902D01*
X103147500Y-77371097D01*
X103150319Y-77401160D01*
X103150319Y-77401164D01*
X103194624Y-77527782D01*
X103274284Y-77635717D01*
X103353930Y-77694498D01*
X103396181Y-77750145D01*
X103401640Y-77819801D01*
X103368573Y-77881351D01*
X103321252Y-77911309D01*
X103235558Y-77941295D01*
X103079571Y-78039308D01*
X102949308Y-78169571D01*
X102851296Y-78325556D01*
X102790452Y-78499440D01*
X102790451Y-78499446D01*
X102775000Y-78636581D01*
X101378314Y-78636581D01*
X100923819Y-78182086D01*
X100890334Y-78120763D01*
X100887500Y-78094405D01*
X100887500Y-74628902D01*
X103147500Y-74628902D01*
X103147500Y-75371097D01*
X103150319Y-75401160D01*
X103150319Y-75401164D01*
X103194624Y-75527782D01*
X103274283Y-75635716D01*
X103300499Y-75655064D01*
X103382217Y-75715375D01*
X103508835Y-75759680D01*
X103518858Y-75760620D01*
X103538902Y-75762500D01*
X103538906Y-75762500D01*
X105961098Y-75762500D01*
X105974458Y-75761246D01*
X105991165Y-75759680D01*
X106117783Y-75715375D01*
X106225716Y-75635716D01*
X106305375Y-75527783D01*
X106349680Y-75401165D01*
X106352407Y-75372084D01*
X106352500Y-75371097D01*
X106352500Y-75351500D01*
X106355050Y-75342814D01*
X106353762Y-75333853D01*
X106364740Y-75309812D01*
X106372185Y-75284461D01*
X106379025Y-75278533D01*
X106382787Y-75270297D01*
X106405021Y-75256007D01*
X106424989Y-75238706D01*
X106435503Y-75236418D01*
X106441565Y-75232523D01*
X106476500Y-75227500D01*
X106608801Y-75227500D01*
X106675840Y-75247185D01*
X106712922Y-75286075D01*
X106712967Y-75286042D01*
X106713281Y-75286451D01*
X106716187Y-75289499D01*
X106717910Y-75292484D01*
X106717913Y-75292488D01*
X106717915Y-75292491D01*
X106797509Y-75372085D01*
X106894991Y-75428367D01*
X107003719Y-75457500D01*
X107003721Y-75457500D01*
X107116279Y-75457500D01*
X107116281Y-75457500D01*
X107225009Y-75428367D01*
X107322491Y-75372085D01*
X107402085Y-75292491D01*
X107458367Y-75195009D01*
X107487500Y-75086281D01*
X107487500Y-74973719D01*
X107458367Y-74864991D01*
X107402085Y-74767509D01*
X107322491Y-74687915D01*
X107273750Y-74659774D01*
X107225010Y-74631633D01*
X107170645Y-74617066D01*
X107116281Y-74602500D01*
X107003719Y-74602500D01*
X106894989Y-74631633D01*
X106797509Y-74687915D01*
X106797505Y-74687918D01*
X106749241Y-74736182D01*
X106722314Y-74750884D01*
X106696496Y-74767477D01*
X106690293Y-74768368D01*
X106687918Y-74769666D01*
X106661561Y-74772500D01*
X106476500Y-74772500D01*
X106409461Y-74752815D01*
X106363706Y-74700011D01*
X106352500Y-74648500D01*
X106352500Y-74628902D01*
X106351090Y-74613870D01*
X106349680Y-74598835D01*
X106305375Y-74472217D01*
X106284082Y-74443366D01*
X106225716Y-74364283D01*
X106117782Y-74284624D01*
X105991162Y-74240319D01*
X105961098Y-74237500D01*
X105961094Y-74237500D01*
X103538906Y-74237500D01*
X103538902Y-74237500D01*
X103508839Y-74240319D01*
X103508835Y-74240319D01*
X103382217Y-74284624D01*
X103274283Y-74364283D01*
X103194624Y-74472217D01*
X103150319Y-74598835D01*
X103150319Y-74598839D01*
X103147500Y-74628902D01*
X100887500Y-74628902D01*
X100887500Y-72628902D01*
X103147500Y-72628902D01*
X103147500Y-73371097D01*
X103150319Y-73401160D01*
X103150319Y-73401164D01*
X103194624Y-73527782D01*
X103274283Y-73635716D01*
X103353144Y-73693918D01*
X103382217Y-73715375D01*
X103508835Y-73759680D01*
X103518858Y-73760620D01*
X103538902Y-73762500D01*
X103538906Y-73762500D01*
X105961098Y-73762500D01*
X105974458Y-73761246D01*
X105991165Y-73759680D01*
X106117783Y-73715375D01*
X106225716Y-73635716D01*
X106305375Y-73527783D01*
X106349680Y-73401165D01*
X106352500Y-73371094D01*
X106352500Y-73351500D01*
X106355050Y-73342814D01*
X106353762Y-73333853D01*
X106364740Y-73309812D01*
X106372185Y-73284461D01*
X106379025Y-73278533D01*
X106382787Y-73270297D01*
X106405021Y-73256007D01*
X106424989Y-73238706D01*
X106435503Y-73236418D01*
X106441565Y-73232523D01*
X106476500Y-73227500D01*
X106661562Y-73227500D01*
X106728601Y-73247185D01*
X106741020Y-73257193D01*
X106741063Y-73257138D01*
X106747504Y-73262080D01*
X106747509Y-73262085D01*
X106844991Y-73318367D01*
X106953719Y-73347500D01*
X106953721Y-73347500D01*
X107066279Y-73347500D01*
X107066281Y-73347500D01*
X107175009Y-73318367D01*
X107272491Y-73262085D01*
X107352085Y-73182491D01*
X107408367Y-73085009D01*
X107437500Y-72976281D01*
X107437500Y-72863719D01*
X107408367Y-72754991D01*
X107352085Y-72657509D01*
X107272491Y-72577915D01*
X107211151Y-72542500D01*
X107175010Y-72521633D01*
X107120645Y-72507066D01*
X107066281Y-72492500D01*
X106953719Y-72492500D01*
X106844989Y-72521633D01*
X106747509Y-72577915D01*
X106747506Y-72577917D01*
X106667917Y-72657506D01*
X106667915Y-72657509D01*
X106637320Y-72710501D01*
X106628632Y-72718784D01*
X106623646Y-72729703D01*
X106603813Y-72742448D01*
X106586752Y-72758716D01*
X106573496Y-72761931D01*
X106564868Y-72767477D01*
X106529933Y-72772500D01*
X106476500Y-72772500D01*
X106409461Y-72752815D01*
X106363706Y-72700011D01*
X106352500Y-72648500D01*
X106352500Y-72628902D01*
X106349680Y-72598839D01*
X106349680Y-72598835D01*
X106305375Y-72472217D01*
X106225716Y-72364283D01*
X106117782Y-72284624D01*
X105991162Y-72240319D01*
X105961098Y-72237500D01*
X105961094Y-72237500D01*
X103538906Y-72237500D01*
X103538902Y-72237500D01*
X103508839Y-72240319D01*
X103508835Y-72240319D01*
X103382217Y-72284624D01*
X103274283Y-72364283D01*
X103194624Y-72472217D01*
X103150319Y-72598835D01*
X103150319Y-72598839D01*
X103147500Y-72628902D01*
X100887500Y-72628902D01*
X100887500Y-70628902D01*
X103147500Y-70628902D01*
X103147500Y-71371097D01*
X103150319Y-71401160D01*
X103150319Y-71401164D01*
X103194624Y-71527782D01*
X103274283Y-71635716D01*
X103382217Y-71715375D01*
X103508835Y-71759680D01*
X103518858Y-71760620D01*
X103538902Y-71762500D01*
X103538906Y-71762500D01*
X105961098Y-71762500D01*
X105974458Y-71761246D01*
X105991165Y-71759680D01*
X106117783Y-71715375D01*
X106225716Y-71635716D01*
X106305375Y-71527783D01*
X106349680Y-71401165D01*
X106352407Y-71372084D01*
X106352500Y-71371097D01*
X106352500Y-71351500D01*
X106355050Y-71342814D01*
X106353762Y-71333853D01*
X106364740Y-71309812D01*
X106372185Y-71284461D01*
X106379025Y-71278533D01*
X106382787Y-71270297D01*
X106405021Y-71256007D01*
X106424989Y-71238706D01*
X106435503Y-71236418D01*
X106441565Y-71232523D01*
X106476500Y-71227500D01*
X106577656Y-71227500D01*
X106625045Y-71236913D01*
X106626082Y-71237342D01*
X106626549Y-71237535D01*
X106635001Y-71244338D01*
X106644695Y-71247185D01*
X106658891Y-71263568D01*
X106680977Y-71281346D01*
X106686542Y-71290113D01*
X106687915Y-71292491D01*
X106767509Y-71372085D01*
X106864991Y-71428367D01*
X106973719Y-71457500D01*
X106973721Y-71457500D01*
X107086279Y-71457500D01*
X107086281Y-71457500D01*
X107195009Y-71428367D01*
X107292491Y-71372085D01*
X107372085Y-71292491D01*
X107428367Y-71195009D01*
X107457500Y-71086281D01*
X107457500Y-70973719D01*
X107428367Y-70864991D01*
X107372085Y-70767509D01*
X107292491Y-70687915D01*
X107240539Y-70657920D01*
X107195010Y-70631633D01*
X107140645Y-70617066D01*
X107086281Y-70602500D01*
X106973719Y-70602500D01*
X106864989Y-70631633D01*
X106767509Y-70687915D01*
X106767505Y-70687918D01*
X106719241Y-70736182D01*
X106692314Y-70750884D01*
X106666496Y-70767477D01*
X106660293Y-70768368D01*
X106657918Y-70769666D01*
X106631561Y-70772500D01*
X106476500Y-70772500D01*
X106409461Y-70752815D01*
X106363706Y-70700011D01*
X106352500Y-70648500D01*
X106352500Y-70628902D01*
X106351090Y-70613870D01*
X106349680Y-70598835D01*
X106305375Y-70472217D01*
X106283983Y-70443232D01*
X106225716Y-70364283D01*
X106117782Y-70284624D01*
X105991162Y-70240319D01*
X105961098Y-70237500D01*
X105961094Y-70237500D01*
X103538906Y-70237500D01*
X103538902Y-70237500D01*
X103508839Y-70240319D01*
X103508835Y-70240319D01*
X103382217Y-70284624D01*
X103274283Y-70364283D01*
X103194624Y-70472217D01*
X103150319Y-70598835D01*
X103150319Y-70598839D01*
X103147500Y-70628902D01*
X100887500Y-70628902D01*
X100887500Y-69274748D01*
X100887500Y-69274747D01*
X100852865Y-69191132D01*
X100788868Y-69127135D01*
X100290635Y-68628902D01*
X103147500Y-68628902D01*
X103147500Y-69371097D01*
X103150319Y-69401160D01*
X103150319Y-69401164D01*
X103194624Y-69527782D01*
X103274283Y-69635716D01*
X103375277Y-69710253D01*
X103382217Y-69715375D01*
X103508835Y-69759680D01*
X103518858Y-69760620D01*
X103538902Y-69762500D01*
X103538906Y-69762500D01*
X105961098Y-69762500D01*
X105974458Y-69761246D01*
X105991165Y-69759680D01*
X106117783Y-69715375D01*
X106225716Y-69635716D01*
X106305375Y-69527783D01*
X106329748Y-69458125D01*
X106370469Y-69401350D01*
X106435421Y-69375602D01*
X106503983Y-69389057D01*
X106508788Y-69391691D01*
X106554991Y-69418367D01*
X106663719Y-69447500D01*
X106663721Y-69447500D01*
X106776279Y-69447500D01*
X106776281Y-69447500D01*
X106885009Y-69418367D01*
X106982491Y-69362085D01*
X107062085Y-69282491D01*
X107118367Y-69185009D01*
X107147500Y-69076281D01*
X107147500Y-68963719D01*
X107118367Y-68854991D01*
X107062085Y-68757509D01*
X106982491Y-68677915D01*
X106917710Y-68640513D01*
X106885010Y-68621633D01*
X106830645Y-68607066D01*
X106776281Y-68592500D01*
X106663719Y-68592500D01*
X106554987Y-68621634D01*
X106520434Y-68641584D01*
X106452534Y-68658057D01*
X106386507Y-68635205D01*
X106343316Y-68580283D01*
X106341392Y-68575150D01*
X106305376Y-68472219D01*
X106305375Y-68472217D01*
X106225716Y-68364283D01*
X106117782Y-68284624D01*
X105991162Y-68240319D01*
X105961098Y-68237500D01*
X105961094Y-68237500D01*
X103538906Y-68237500D01*
X103538902Y-68237500D01*
X103508839Y-68240319D01*
X103508835Y-68240319D01*
X103382217Y-68284624D01*
X103274283Y-68364283D01*
X103194624Y-68472217D01*
X103150319Y-68598835D01*
X103150319Y-68598839D01*
X103147500Y-68628902D01*
X100290635Y-68628902D01*
X98463819Y-66802086D01*
X98430334Y-66740763D01*
X98427500Y-66714405D01*
X98427500Y-65363418D01*
X102775000Y-65363418D01*
X102790451Y-65500553D01*
X102790452Y-65500559D01*
X102851296Y-65674443D01*
X102949308Y-65830428D01*
X103079571Y-65960691D01*
X103235556Y-66058703D01*
X103321251Y-66088689D01*
X103378027Y-66129411D01*
X103403775Y-66194363D01*
X103390319Y-66262925D01*
X103353931Y-66305501D01*
X103274283Y-66364283D01*
X103194624Y-66472217D01*
X103150319Y-66598835D01*
X103150319Y-66598839D01*
X103147500Y-66628902D01*
X103147500Y-67371097D01*
X103150319Y-67401160D01*
X103150319Y-67401164D01*
X103194624Y-67527782D01*
X103274283Y-67635716D01*
X103300499Y-67655064D01*
X103382217Y-67715375D01*
X103508835Y-67759680D01*
X103518858Y-67760620D01*
X103538902Y-67762500D01*
X103538906Y-67762500D01*
X105961098Y-67762500D01*
X105974458Y-67761246D01*
X105991165Y-67759680D01*
X106117783Y-67715375D01*
X106225716Y-67635716D01*
X106305375Y-67527783D01*
X106349680Y-67401165D01*
X106349680Y-67401164D01*
X106352172Y-67394043D01*
X106354658Y-67394912D01*
X106382177Y-67344610D01*
X106443526Y-67311172D01*
X106513213Y-67316211D01*
X106531791Y-67324973D01*
X106554985Y-67338364D01*
X106554987Y-67338365D01*
X106554988Y-67338365D01*
X106554991Y-67338367D01*
X106663719Y-67367500D01*
X106663721Y-67367500D01*
X106776279Y-67367500D01*
X106776281Y-67367500D01*
X106885009Y-67338367D01*
X106982491Y-67282085D01*
X107062085Y-67202491D01*
X107118367Y-67105009D01*
X107147500Y-66996281D01*
X107147500Y-66883719D01*
X107118367Y-66774991D01*
X107062085Y-66677509D01*
X106982491Y-66597915D01*
X106933750Y-66569774D01*
X106885010Y-66541633D01*
X106830645Y-66527066D01*
X106776281Y-66512500D01*
X106663719Y-66512500D01*
X106554987Y-66541634D01*
X106497146Y-66575029D01*
X106429246Y-66591502D01*
X106363219Y-66568649D01*
X106320028Y-66513728D01*
X106318104Y-66508595D01*
X106305376Y-66472219D01*
X106305375Y-66472217D01*
X106225716Y-66364283D01*
X106172789Y-66325222D01*
X106146067Y-66305499D01*
X106103818Y-66249854D01*
X106098359Y-66180198D01*
X106131426Y-66118648D01*
X106178748Y-66088689D01*
X106264443Y-66058703D01*
X106420428Y-65960691D01*
X106550691Y-65830428D01*
X106648703Y-65674443D01*
X106709547Y-65500559D01*
X106709548Y-65500553D01*
X106724999Y-65363418D01*
X106725000Y-65363414D01*
X106725000Y-65250000D01*
X102775000Y-65250000D01*
X102775000Y-65363418D01*
X98427500Y-65363418D01*
X98427500Y-64636581D01*
X102775000Y-64636581D01*
X102775000Y-64750000D01*
X104500000Y-64750000D01*
X105000000Y-64750000D01*
X106725000Y-64750000D01*
X106725000Y-64636585D01*
X106724999Y-64636581D01*
X106709548Y-64499446D01*
X106709547Y-64499440D01*
X106648703Y-64325556D01*
X106550691Y-64169571D01*
X106420428Y-64039308D01*
X106264443Y-63941296D01*
X106090559Y-63880452D01*
X106090553Y-63880451D01*
X105953418Y-63865000D01*
X105000000Y-63865000D01*
X105000000Y-64750000D01*
X104500000Y-64750000D01*
X104500000Y-63865000D01*
X103546581Y-63865000D01*
X103409446Y-63880451D01*
X103409440Y-63880452D01*
X103235556Y-63941296D01*
X103079571Y-64039308D01*
X102949308Y-64169571D01*
X102851296Y-64325556D01*
X102790452Y-64499440D01*
X102790451Y-64499446D01*
X102775000Y-64636581D01*
X98427500Y-64636581D01*
X98427500Y-60540001D01*
X103467704Y-60540001D01*
X103467899Y-60542486D01*
X103513718Y-60700198D01*
X103597314Y-60841552D01*
X103597321Y-60841561D01*
X103713438Y-60957678D01*
X103713447Y-60957685D01*
X103854803Y-61041282D01*
X103854806Y-61041283D01*
X104012504Y-61087099D01*
X104012510Y-61087100D01*
X104049350Y-61089999D01*
X104049366Y-61090000D01*
X104452500Y-61090000D01*
X104952500Y-61090000D01*
X105355634Y-61090000D01*
X105355649Y-61089999D01*
X105392489Y-61087100D01*
X105392495Y-61087099D01*
X105550193Y-61041283D01*
X105550196Y-61041282D01*
X105691552Y-60957685D01*
X105691561Y-60957678D01*
X105807678Y-60841561D01*
X105807685Y-60841552D01*
X105891281Y-60700198D01*
X105937100Y-60542486D01*
X105937295Y-60540001D01*
X105937295Y-60540000D01*
X104952500Y-60540000D01*
X104952500Y-61090000D01*
X104452500Y-61090000D01*
X104452500Y-60540000D01*
X103467705Y-60540000D01*
X103467704Y-60540001D01*
X98427500Y-60540001D01*
X98427500Y-60039998D01*
X103467704Y-60039998D01*
X103467705Y-60040000D01*
X104452500Y-60040000D01*
X104452500Y-59490000D01*
X104049350Y-59490000D01*
X104012510Y-59492899D01*
X104012504Y-59492900D01*
X103854806Y-59538716D01*
X103854803Y-59538717D01*
X103713447Y-59622314D01*
X103713438Y-59622321D01*
X103597321Y-59738438D01*
X103597314Y-59738447D01*
X103513718Y-59879801D01*
X103467899Y-60037513D01*
X103467704Y-60039998D01*
X98427500Y-60039998D01*
X98427500Y-58198566D01*
X103837500Y-58198566D01*
X103837500Y-58581433D01*
X103840192Y-58604634D01*
X103840192Y-58604636D01*
X103882095Y-58699538D01*
X103882097Y-58699542D01*
X103955458Y-58772903D01*
X104050366Y-58814808D01*
X104073568Y-58817500D01*
X104073569Y-58817500D01*
X105331431Y-58817500D01*
X105331432Y-58817500D01*
X105354634Y-58814808D01*
X105449542Y-58772903D01*
X105522903Y-58699542D01*
X105564808Y-58604634D01*
X105567500Y-58581432D01*
X105567500Y-58198568D01*
X105564808Y-58175366D01*
X105558245Y-58160503D01*
X105534077Y-58105766D01*
X105522903Y-58080458D01*
X105449542Y-58007097D01*
X105449539Y-58007095D01*
X105449538Y-58007095D01*
X105354635Y-57965192D01*
X105331433Y-57962500D01*
X105331432Y-57962500D01*
X105054000Y-57962500D01*
X104986961Y-57942815D01*
X104941206Y-57890011D01*
X104930000Y-57838500D01*
X104930000Y-57549748D01*
X104929999Y-57549745D01*
X104926939Y-57542357D01*
X104917500Y-57494904D01*
X104917500Y-56441499D01*
X104937185Y-56374460D01*
X104989989Y-56328705D01*
X105041500Y-56317499D01*
X105285826Y-56317499D01*
X105359204Y-56306809D01*
X105472390Y-56251476D01*
X105561476Y-56162390D01*
X105616809Y-56049204D01*
X105627500Y-55975827D01*
X105627499Y-55204174D01*
X105616809Y-55130796D01*
X105561476Y-55017610D01*
X105561474Y-55017608D01*
X105561474Y-55017607D01*
X105472392Y-54928525D01*
X105359202Y-54873190D01*
X105285827Y-54862500D01*
X104314174Y-54862500D01*
X104240795Y-54873191D01*
X104127607Y-54928525D01*
X104038525Y-55017607D01*
X103983190Y-55130797D01*
X103972500Y-55204172D01*
X103972500Y-55975820D01*
X103983191Y-56049203D01*
X104038525Y-56162392D01*
X104127607Y-56251474D01*
X104127608Y-56251474D01*
X104127610Y-56251476D01*
X104240796Y-56306809D01*
X104314173Y-56317500D01*
X104338498Y-56317499D01*
X104405536Y-56337181D01*
X104451293Y-56389984D01*
X104462500Y-56441499D01*
X104462500Y-57627755D01*
X104465560Y-57635141D01*
X104467186Y-57643319D01*
X104469977Y-57647661D01*
X104475000Y-57682596D01*
X104475000Y-57838500D01*
X104455315Y-57905539D01*
X104402511Y-57951294D01*
X104351000Y-57962500D01*
X104073566Y-57962500D01*
X104050365Y-57965192D01*
X104050363Y-57965192D01*
X103955461Y-58007095D01*
X103955456Y-58007098D01*
X103882098Y-58080456D01*
X103882095Y-58080461D01*
X103840192Y-58175363D01*
X103840192Y-58175365D01*
X103837500Y-58198566D01*
X98427500Y-58198566D01*
X98427500Y-56330001D01*
X99647704Y-56330001D01*
X99647899Y-56332486D01*
X99693718Y-56490198D01*
X99777314Y-56631552D01*
X99777321Y-56631561D01*
X99893438Y-56747678D01*
X99893447Y-56747685D01*
X100034803Y-56831282D01*
X100034806Y-56831283D01*
X100192504Y-56877099D01*
X100192510Y-56877100D01*
X100229350Y-56879999D01*
X100229366Y-56880000D01*
X100632500Y-56880000D01*
X101132500Y-56880000D01*
X101535634Y-56880000D01*
X101535649Y-56879999D01*
X101572489Y-56877100D01*
X101572495Y-56877099D01*
X101730193Y-56831283D01*
X101730196Y-56831282D01*
X101871552Y-56747685D01*
X101871561Y-56747678D01*
X101987678Y-56631561D01*
X101987685Y-56631552D01*
X102071281Y-56490198D01*
X102117100Y-56332486D01*
X102117295Y-56330001D01*
X102117295Y-56330000D01*
X101132500Y-56330000D01*
X101132500Y-56880000D01*
X100632500Y-56880000D01*
X100632500Y-56330000D01*
X99647705Y-56330000D01*
X99647704Y-56330001D01*
X98427500Y-56330001D01*
X98427500Y-55829998D01*
X99647704Y-55829998D01*
X99647705Y-55830000D01*
X100632500Y-55830000D01*
X100632500Y-55280000D01*
X101132500Y-55280000D01*
X101132500Y-55830000D01*
X102117295Y-55830000D01*
X102117295Y-55829998D01*
X102117100Y-55827511D01*
X102084731Y-55716094D01*
X102084931Y-55646225D01*
X102122874Y-55587555D01*
X102186512Y-55558712D01*
X102203808Y-55557500D01*
X103386431Y-55557500D01*
X103386432Y-55557500D01*
X103409634Y-55554808D01*
X103504542Y-55512903D01*
X103577903Y-55439542D01*
X103619808Y-55344634D01*
X103622500Y-55321432D01*
X103622500Y-54938568D01*
X103619808Y-54915366D01*
X103577903Y-54820458D01*
X103504542Y-54747097D01*
X103504539Y-54747095D01*
X103504538Y-54747095D01*
X103409635Y-54705192D01*
X103386433Y-54702500D01*
X103386432Y-54702500D01*
X103296500Y-54702500D01*
X103229461Y-54682815D01*
X103183706Y-54630011D01*
X103172500Y-54578500D01*
X103172500Y-53398096D01*
X103192185Y-53331057D01*
X103208819Y-53310414D01*
X103282866Y-53236368D01*
X103317500Y-53152753D01*
X103317500Y-53062247D01*
X103317500Y-51240697D01*
X103337185Y-51173658D01*
X103372607Y-51137596D01*
X103450530Y-51085530D01*
X103503575Y-51006143D01*
X103517500Y-50936138D01*
X103517500Y-50663862D01*
X103517500Y-50663859D01*
X103517499Y-50663857D01*
X103503576Y-50593861D01*
X103503575Y-50593860D01*
X103503575Y-50593857D01*
X103489305Y-50572500D01*
X103450531Y-50514470D01*
X103372609Y-50462404D01*
X103327804Y-50408792D01*
X103317500Y-50359302D01*
X103317500Y-47258438D01*
X103337185Y-47191399D01*
X103353819Y-47170757D01*
X103365599Y-47158977D01*
X103392085Y-47132491D01*
X103448367Y-47035009D01*
X103477500Y-46926281D01*
X103477500Y-46813719D01*
X103448367Y-46704991D01*
X103392085Y-46607509D01*
X103312491Y-46527915D01*
X103263750Y-46499774D01*
X103215010Y-46471633D01*
X103160645Y-46457066D01*
X103106281Y-46442500D01*
X102993719Y-46442500D01*
X102884989Y-46471633D01*
X102787509Y-46527915D01*
X102787506Y-46527917D01*
X102707917Y-46607506D01*
X102707915Y-46607509D01*
X102651633Y-46704989D01*
X102622500Y-46813719D01*
X102622500Y-46926280D01*
X102651633Y-47035010D01*
X102679585Y-47083423D01*
X102707915Y-47132491D01*
X102787509Y-47212085D01*
X102800500Y-47219585D01*
X102848714Y-47270148D01*
X102862500Y-47326971D01*
X102862500Y-50359302D01*
X102842815Y-50426341D01*
X102807391Y-50462404D01*
X102729468Y-50514470D01*
X102676426Y-50593854D01*
X102676423Y-50593861D01*
X102662500Y-50663857D01*
X102662500Y-50936142D01*
X102676423Y-51006138D01*
X102676426Y-51006145D01*
X102729468Y-51085528D01*
X102729469Y-51085528D01*
X102729470Y-51085530D01*
X102807391Y-51137595D01*
X102852196Y-51191207D01*
X102862500Y-51240697D01*
X102862500Y-52961904D01*
X102853856Y-52991339D01*
X102847335Y-53021325D01*
X102843578Y-53026344D01*
X102842815Y-53028943D01*
X102826186Y-53049579D01*
X102816132Y-53059635D01*
X102752135Y-53123632D01*
X102740073Y-53152753D01*
X102717500Y-53207246D01*
X102717500Y-54578500D01*
X102697815Y-54645539D01*
X102645011Y-54691294D01*
X102593500Y-54702500D01*
X102128566Y-54702500D01*
X102105365Y-54705192D01*
X102105363Y-54705192D01*
X102010461Y-54747095D01*
X102010456Y-54747098D01*
X101937098Y-54820456D01*
X101937095Y-54820461D01*
X101895192Y-54915363D01*
X101895192Y-54915365D01*
X101892500Y-54938566D01*
X101892500Y-55210718D01*
X101872815Y-55277757D01*
X101820011Y-55323512D01*
X101750853Y-55333456D01*
X101733906Y-55329795D01*
X101572489Y-55282899D01*
X101535649Y-55280000D01*
X101132500Y-55280000D01*
X100632500Y-55280000D01*
X100229350Y-55280000D01*
X100192510Y-55282899D01*
X100192504Y-55282900D01*
X100034806Y-55328716D01*
X100034803Y-55328717D01*
X99893447Y-55412314D01*
X99893438Y-55412321D01*
X99777321Y-55528438D01*
X99777314Y-55528447D01*
X99693718Y-55669801D01*
X99647899Y-55827513D01*
X99647704Y-55829998D01*
X98427500Y-55829998D01*
X98427500Y-53988566D01*
X100017500Y-53988566D01*
X100017500Y-54371433D01*
X100020192Y-54394634D01*
X100020192Y-54394636D01*
X100059776Y-54484285D01*
X100062097Y-54489542D01*
X100135458Y-54562903D01*
X100230366Y-54604808D01*
X100253568Y-54607500D01*
X100253569Y-54607500D01*
X101511431Y-54607500D01*
X101511432Y-54607500D01*
X101534634Y-54604808D01*
X101629542Y-54562903D01*
X101702903Y-54489542D01*
X101744808Y-54394634D01*
X101747500Y-54371432D01*
X101747500Y-53988568D01*
X101744808Y-53965366D01*
X101702903Y-53870458D01*
X101629542Y-53797097D01*
X101629539Y-53797095D01*
X101629538Y-53797095D01*
X101534635Y-53755192D01*
X101511433Y-53752500D01*
X101511432Y-53752500D01*
X101014000Y-53752500D01*
X100946961Y-53732815D01*
X100901206Y-53680011D01*
X100890000Y-53628500D01*
X100890000Y-52603095D01*
X100909685Y-52536056D01*
X100926319Y-52515414D01*
X101124173Y-52317560D01*
X101372866Y-52068868D01*
X101407500Y-51985252D01*
X101407500Y-51894747D01*
X101407500Y-51841499D01*
X101427185Y-51774460D01*
X101479989Y-51728705D01*
X101531500Y-51717499D01*
X101665826Y-51717499D01*
X101739204Y-51706809D01*
X101852390Y-51651476D01*
X101941476Y-51562390D01*
X101996809Y-51449204D01*
X102007500Y-51375827D01*
X102007499Y-50604174D01*
X101996809Y-50530796D01*
X101941476Y-50417610D01*
X101941474Y-50417608D01*
X101941474Y-50417607D01*
X101852392Y-50328525D01*
X101739202Y-50273190D01*
X101665827Y-50262500D01*
X100694174Y-50262500D01*
X100620795Y-50273191D01*
X100507607Y-50328525D01*
X100418525Y-50417607D01*
X100363190Y-50530797D01*
X100352500Y-50604172D01*
X100352500Y-51375820D01*
X100352501Y-51375826D01*
X100363191Y-51449204D01*
X100397248Y-51518869D01*
X100418525Y-51562392D01*
X100507607Y-51651474D01*
X100507608Y-51651474D01*
X100507610Y-51651476D01*
X100620796Y-51706809D01*
X100694173Y-51717500D01*
X100781405Y-51717499D01*
X100848442Y-51737183D01*
X100894198Y-51789986D01*
X100904142Y-51859145D01*
X100875118Y-51922701D01*
X100869086Y-51929180D01*
X100533632Y-52264635D01*
X100469635Y-52328632D01*
X100451464Y-52372500D01*
X100435000Y-52412246D01*
X100435000Y-53628500D01*
X100415315Y-53695539D01*
X100362511Y-53741294D01*
X100311000Y-53752500D01*
X100253566Y-53752500D01*
X100230365Y-53755192D01*
X100230363Y-53755192D01*
X100135461Y-53797095D01*
X100135456Y-53797098D01*
X100062098Y-53870456D01*
X100062095Y-53870461D01*
X100020192Y-53965363D01*
X100020192Y-53965365D01*
X100017500Y-53988566D01*
X98427500Y-53988566D01*
X98427500Y-48604172D01*
X100352500Y-48604172D01*
X100352500Y-49375820D01*
X100354098Y-49386788D01*
X100363191Y-49449204D01*
X100393769Y-49511753D01*
X100418525Y-49562392D01*
X100507607Y-49651474D01*
X100507608Y-49651474D01*
X100507610Y-49651476D01*
X100620796Y-49706809D01*
X100694173Y-49717500D01*
X101665826Y-49717499D01*
X101739204Y-49706809D01*
X101852390Y-49651476D01*
X101941476Y-49562390D01*
X101996809Y-49449204D01*
X102007500Y-49375827D01*
X102007499Y-48604174D01*
X101996809Y-48530796D01*
X101941476Y-48417610D01*
X101941474Y-48417608D01*
X101941474Y-48417607D01*
X101852392Y-48328525D01*
X101739202Y-48273190D01*
X101665828Y-48262500D01*
X101665827Y-48262500D01*
X101531500Y-48262500D01*
X101464461Y-48242815D01*
X101418706Y-48190011D01*
X101407500Y-48138500D01*
X101407500Y-47391614D01*
X101427185Y-47324575D01*
X101469497Y-47284228D01*
X101542491Y-47242085D01*
X101622085Y-47162491D01*
X101678367Y-47065009D01*
X101707500Y-46956281D01*
X101707500Y-46843719D01*
X101678367Y-46734991D01*
X101622085Y-46637509D01*
X101542491Y-46557915D01*
X101477684Y-46520498D01*
X101445010Y-46501633D01*
X101390645Y-46487066D01*
X101336281Y-46472500D01*
X101223719Y-46472500D01*
X101114989Y-46501633D01*
X101017509Y-46557915D01*
X101017506Y-46557917D01*
X100937917Y-46637506D01*
X100937915Y-46637509D01*
X100881633Y-46734989D01*
X100852500Y-46843719D01*
X100852500Y-46956280D01*
X100881634Y-47065012D01*
X100881635Y-47065014D01*
X100935886Y-47158977D01*
X100952500Y-47220978D01*
X100952500Y-48138500D01*
X100932815Y-48205539D01*
X100880011Y-48251294D01*
X100828501Y-48262500D01*
X100694179Y-48262500D01*
X100620796Y-48273191D01*
X100507607Y-48328525D01*
X100418525Y-48417607D01*
X100363190Y-48530797D01*
X100352500Y-48604172D01*
X98427500Y-48604172D01*
X98427500Y-42938438D01*
X98447185Y-42871399D01*
X98463819Y-42850757D01*
X98472086Y-42842490D01*
X98542085Y-42772491D01*
X98598367Y-42675009D01*
X98627500Y-42566281D01*
X98627500Y-42453719D01*
X98598367Y-42344991D01*
X98542085Y-42247509D01*
X98462491Y-42167915D01*
X98403817Y-42134039D01*
X98365010Y-42111633D01*
X98310645Y-42097066D01*
X98256281Y-42082500D01*
X98143719Y-42082500D01*
X98034989Y-42111633D01*
X98013499Y-42124041D01*
X97945599Y-42140513D01*
X97879572Y-42117660D01*
X97836382Y-42062738D01*
X97827500Y-42016653D01*
X97827500Y-40478438D01*
X97847185Y-40411399D01*
X97863819Y-40390757D01*
X97894873Y-40359703D01*
X97932085Y-40322491D01*
X97988367Y-40225009D01*
X98017500Y-40116281D01*
X98017500Y-40003719D01*
X97988367Y-39894991D01*
X97984224Y-39887816D01*
X97976820Y-39874991D01*
X97932085Y-39797509D01*
X97852491Y-39717915D01*
X97786771Y-39679971D01*
X97755010Y-39661633D01*
X97680366Y-39641633D01*
X97646281Y-39632500D01*
X97533719Y-39632500D01*
X97424987Y-39661634D01*
X97413497Y-39668268D01*
X97345596Y-39684738D01*
X97279570Y-39661884D01*
X97236381Y-39606962D01*
X97227500Y-39560879D01*
X97227500Y-39019017D01*
X97244114Y-38957015D01*
X97268366Y-38915011D01*
X97268367Y-38915009D01*
X97297500Y-38806281D01*
X97297500Y-38693719D01*
X97268367Y-38584991D01*
X97266217Y-38581268D01*
X97251673Y-38556076D01*
X97212085Y-38487509D01*
X97132491Y-38407915D01*
X97076900Y-38375819D01*
X97035010Y-38351633D01*
X96958116Y-38331030D01*
X96926281Y-38322500D01*
X96813719Y-38322500D01*
X96704989Y-38351633D01*
X96683499Y-38364041D01*
X96615599Y-38380513D01*
X96549572Y-38357660D01*
X96506382Y-38302738D01*
X96497500Y-38256653D01*
X96497500Y-36617757D01*
X96517185Y-36550718D01*
X96537523Y-36528611D01*
X96536744Y-36527832D01*
X96577391Y-36487185D01*
X96622085Y-36442491D01*
X96678367Y-36345009D01*
X96707500Y-36236281D01*
X96707500Y-36123719D01*
X96678367Y-36014991D01*
X96622085Y-35917509D01*
X96542491Y-35837915D01*
X96476499Y-35799814D01*
X96445010Y-35781633D01*
X96378917Y-35763924D01*
X96336281Y-35752500D01*
X96223719Y-35752500D01*
X96114989Y-35781633D01*
X96083501Y-35799814D01*
X96015600Y-35816287D01*
X95949573Y-35793435D01*
X95906383Y-35738514D01*
X95897500Y-35692427D01*
X95897500Y-34178438D01*
X95917185Y-34111399D01*
X95933819Y-34090757D01*
X95963076Y-34061500D01*
X96012085Y-34012491D01*
X96068367Y-33915009D01*
X96097500Y-33806281D01*
X96097500Y-33693719D01*
X96068367Y-33584991D01*
X96012085Y-33487509D01*
X95932491Y-33407915D01*
X95880530Y-33377915D01*
X95835010Y-33351633D01*
X95780645Y-33337066D01*
X95726281Y-33322500D01*
X95613719Y-33322500D01*
X95504989Y-33351633D01*
X95407509Y-33407915D01*
X95407506Y-33407917D01*
X95327917Y-33487506D01*
X95327915Y-33487509D01*
X95271633Y-33584989D01*
X95247777Y-33674025D01*
X95242500Y-33693719D01*
X95242500Y-33806281D01*
X95248437Y-33828438D01*
X95271633Y-33915010D01*
X95284618Y-33937500D01*
X95327915Y-34012491D01*
X95327917Y-34012493D01*
X95406181Y-34090757D01*
X95439666Y-34152080D01*
X95442500Y-34178438D01*
X95442500Y-37314235D01*
X95422815Y-37381274D01*
X95370011Y-37427029D01*
X95300853Y-37436973D01*
X95237297Y-37407948D01*
X95201620Y-37352434D01*
X95201475Y-37352495D01*
X95201139Y-37351686D01*
X95199523Y-37349170D01*
X95198741Y-37346389D01*
X95198367Y-37344991D01*
X95142085Y-37247509D01*
X95062491Y-37167915D01*
X94987723Y-37124747D01*
X94965010Y-37111633D01*
X94910645Y-37097066D01*
X94856281Y-37082500D01*
X94743719Y-37082500D01*
X94634989Y-37111633D01*
X94537509Y-37167914D01*
X94469242Y-37236182D01*
X94442311Y-37250886D01*
X94416496Y-37267477D01*
X94410293Y-37268368D01*
X94407918Y-37269666D01*
X94381561Y-37272500D01*
X94319700Y-37272500D01*
X94252661Y-37252815D01*
X94206906Y-37200011D01*
X94195700Y-37148500D01*
X94195700Y-37098083D01*
X94182791Y-37033188D01*
X94182790Y-37033186D01*
X94182790Y-37033185D01*
X94162010Y-37002085D01*
X94133614Y-36959585D01*
X94060017Y-36910411D01*
X94060011Y-36910408D01*
X93995116Y-36897500D01*
X93995114Y-36897500D01*
X93222875Y-36897500D01*
X93155836Y-36877815D01*
X93110081Y-36825011D01*
X93100137Y-36755853D01*
X93129162Y-36692297D01*
X93135194Y-36685819D01*
X93317193Y-36503819D01*
X93378516Y-36470334D01*
X93404874Y-36467500D01*
X93871562Y-36467500D01*
X93938601Y-36487185D01*
X93959243Y-36503819D01*
X94037509Y-36582085D01*
X94134991Y-36638367D01*
X94243719Y-36667500D01*
X94243721Y-36667500D01*
X94356279Y-36667500D01*
X94356281Y-36667500D01*
X94465009Y-36638367D01*
X94562491Y-36582085D01*
X94642085Y-36502491D01*
X94698367Y-36405009D01*
X94727500Y-36296281D01*
X94727500Y-36183719D01*
X94698367Y-36074991D01*
X94642085Y-35977509D01*
X94562491Y-35897915D01*
X94513750Y-35869774D01*
X94465010Y-35841633D01*
X94410645Y-35827066D01*
X94356281Y-35812500D01*
X94243719Y-35812500D01*
X94134989Y-35841633D01*
X94037509Y-35897915D01*
X94037506Y-35897917D01*
X93959243Y-35976181D01*
X93897920Y-36009666D01*
X93871562Y-36012500D01*
X93424874Y-36012500D01*
X93357835Y-35992815D01*
X93337193Y-35976181D01*
X93135194Y-35774181D01*
X93101709Y-35712858D01*
X93106693Y-35643166D01*
X93148565Y-35587233D01*
X93214029Y-35562816D01*
X93222875Y-35562500D01*
X93995116Y-35562500D01*
X94060011Y-35549591D01*
X94060011Y-35549590D01*
X94060015Y-35549590D01*
X94133614Y-35500414D01*
X94182790Y-35426815D01*
X94184872Y-35416350D01*
X94195700Y-35361916D01*
X94195700Y-35339638D01*
X94215385Y-35272599D01*
X94268189Y-35226844D01*
X94337347Y-35216900D01*
X94400903Y-35245925D01*
X94407381Y-35251957D01*
X94457509Y-35302085D01*
X94554991Y-35358367D01*
X94663719Y-35387500D01*
X94663721Y-35387500D01*
X94776279Y-35387500D01*
X94776281Y-35387500D01*
X94885009Y-35358367D01*
X94982491Y-35302085D01*
X95062085Y-35222491D01*
X95118367Y-35125009D01*
X95147500Y-35016281D01*
X95147500Y-34903719D01*
X95118367Y-34794991D01*
X95062085Y-34697509D01*
X94982491Y-34617915D01*
X94917448Y-34580362D01*
X94885010Y-34561633D01*
X94830645Y-34547066D01*
X94776281Y-34532500D01*
X94663719Y-34532500D01*
X94554989Y-34561633D01*
X94457509Y-34617915D01*
X94457506Y-34617917D01*
X94407381Y-34668043D01*
X94346058Y-34701528D01*
X94276366Y-34696544D01*
X94220433Y-34654672D01*
X94196016Y-34589208D01*
X94195700Y-34580362D01*
X94195700Y-34558083D01*
X94182791Y-34493188D01*
X94182790Y-34493186D01*
X94182790Y-34493185D01*
X94156893Y-34454426D01*
X94133614Y-34419585D01*
X94060017Y-34370411D01*
X94060011Y-34370408D01*
X93995116Y-34357500D01*
X93995114Y-34357500D01*
X93222875Y-34357500D01*
X93201629Y-34351261D01*
X93179542Y-34349682D01*
X93168758Y-34341609D01*
X93155836Y-34337815D01*
X93141337Y-34321083D01*
X93123608Y-34307811D01*
X93118900Y-34295188D01*
X93110081Y-34285011D01*
X93106929Y-34263094D01*
X93099191Y-34242346D01*
X93102053Y-34229185D01*
X93100137Y-34215853D01*
X93109336Y-34195709D01*
X93114043Y-34174073D01*
X93127312Y-34156345D01*
X93129162Y-34152297D01*
X93135193Y-34145819D01*
X93199718Y-34081294D01*
X93297194Y-33983817D01*
X93358516Y-33950334D01*
X93384874Y-33947500D01*
X93901562Y-33947500D01*
X93968601Y-33967185D01*
X93989243Y-33983819D01*
X94067509Y-34062085D01*
X94164991Y-34118367D01*
X94273719Y-34147500D01*
X94273721Y-34147500D01*
X94386279Y-34147500D01*
X94386281Y-34147500D01*
X94495009Y-34118367D01*
X94592491Y-34062085D01*
X94672085Y-33982491D01*
X94728367Y-33885009D01*
X94757500Y-33776281D01*
X94757500Y-33663719D01*
X94728367Y-33554991D01*
X94672085Y-33457509D01*
X94592491Y-33377915D01*
X94533263Y-33343719D01*
X94495010Y-33321633D01*
X94440645Y-33307066D01*
X94386281Y-33292500D01*
X94273719Y-33292500D01*
X94164989Y-33321633D01*
X94067509Y-33377915D01*
X94067506Y-33377917D01*
X93989243Y-33456181D01*
X93927920Y-33489666D01*
X93901562Y-33492500D01*
X93444874Y-33492500D01*
X93377835Y-33472815D01*
X93357193Y-33456181D01*
X93135194Y-33234181D01*
X93101709Y-33172858D01*
X93106693Y-33103166D01*
X93148565Y-33047233D01*
X93214029Y-33022816D01*
X93222875Y-33022500D01*
X93995116Y-33022500D01*
X94060011Y-33009591D01*
X94060011Y-33009590D01*
X94060015Y-33009590D01*
X94133614Y-32960414D01*
X94182790Y-32886815D01*
X94190202Y-32849555D01*
X94195700Y-32821916D01*
X94195700Y-32741500D01*
X94198250Y-32732814D01*
X94196962Y-32723853D01*
X94207940Y-32699812D01*
X94215385Y-32674461D01*
X94222225Y-32668533D01*
X94225987Y-32660297D01*
X94248221Y-32646007D01*
X94268189Y-32628706D01*
X94278703Y-32626418D01*
X94284765Y-32622523D01*
X94319700Y-32617500D01*
X94331562Y-32617500D01*
X94398601Y-32637185D01*
X94419243Y-32653819D01*
X94497509Y-32732085D01*
X94594991Y-32788367D01*
X94703719Y-32817500D01*
X94703721Y-32817500D01*
X94816279Y-32817500D01*
X94816281Y-32817500D01*
X94925009Y-32788367D01*
X95022491Y-32732085D01*
X95102085Y-32652491D01*
X95158367Y-32555009D01*
X95187500Y-32446281D01*
X95187500Y-32333719D01*
X95158367Y-32224991D01*
X95102085Y-32127509D01*
X95022491Y-32047915D01*
X94957145Y-32010187D01*
X94925010Y-31991633D01*
X94870645Y-31977066D01*
X94816281Y-31962500D01*
X94703719Y-31962500D01*
X94594989Y-31991633D01*
X94497509Y-32047915D01*
X94497506Y-32047917D01*
X94419243Y-32126181D01*
X94392315Y-32140884D01*
X94366497Y-32157477D01*
X94360296Y-32158368D01*
X94357920Y-32159666D01*
X94331562Y-32162500D01*
X94319700Y-32162500D01*
X94252661Y-32142815D01*
X94206906Y-32090011D01*
X94195700Y-32038500D01*
X94195700Y-32018083D01*
X94182791Y-31953188D01*
X94182790Y-31953186D01*
X94182790Y-31953185D01*
X94167646Y-31930520D01*
X94133614Y-31879585D01*
X94060017Y-31830411D01*
X94060010Y-31830408D01*
X94032273Y-31824890D01*
X94032262Y-31824889D01*
X93995114Y-31817500D01*
X93222875Y-31817500D01*
X93155836Y-31797815D01*
X93110081Y-31745011D01*
X93100137Y-31675853D01*
X93129162Y-31612297D01*
X93135194Y-31605819D01*
X93327193Y-31413819D01*
X93388516Y-31380334D01*
X93414874Y-31377500D01*
X93561562Y-31377500D01*
X93628601Y-31397185D01*
X93649243Y-31413819D01*
X93727509Y-31492085D01*
X93824991Y-31548367D01*
X93933719Y-31577500D01*
X94046281Y-31577500D01*
X94155009Y-31548367D01*
X94252491Y-31492085D01*
X94332085Y-31412491D01*
X94388367Y-31315009D01*
X94417500Y-31206281D01*
X94417500Y-31133719D01*
X97082500Y-31133719D01*
X97082500Y-31246281D01*
X97090388Y-31275720D01*
X97111633Y-31355010D01*
X97129981Y-31386788D01*
X97167915Y-31452491D01*
X97167917Y-31452493D01*
X97246181Y-31530757D01*
X97279666Y-31592080D01*
X97282500Y-31618438D01*
X97282500Y-37744747D01*
X97282500Y-37835253D01*
X97304314Y-37887917D01*
X97317136Y-37918870D01*
X97486181Y-38087914D01*
X97519666Y-38149237D01*
X97522500Y-38175595D01*
X97522500Y-38286281D01*
X97527030Y-38303188D01*
X97551633Y-38395010D01*
X97568108Y-38423544D01*
X97607915Y-38492491D01*
X97687509Y-38572085D01*
X97784991Y-38628367D01*
X97893719Y-38657500D01*
X97893721Y-38657500D01*
X98006279Y-38657500D01*
X98006281Y-38657500D01*
X98115009Y-38628367D01*
X98212491Y-38572085D01*
X98252874Y-38531701D01*
X98314195Y-38498217D01*
X98383886Y-38503201D01*
X98439820Y-38545071D01*
X98464238Y-38610536D01*
X98452091Y-38666377D01*
X98454745Y-38667477D01*
X98451634Y-38674987D01*
X98431647Y-38749583D01*
X98422500Y-38783719D01*
X98422500Y-38896281D01*
X98435977Y-38946577D01*
X98451633Y-39005010D01*
X98469433Y-39035839D01*
X98507915Y-39102491D01*
X98587509Y-39182085D01*
X98663258Y-39225819D01*
X98681890Y-39236577D01*
X98684991Y-39238367D01*
X98793719Y-39267500D01*
X98793721Y-39267500D01*
X98906279Y-39267500D01*
X98906281Y-39267500D01*
X99015009Y-39238367D01*
X99112491Y-39182085D01*
X99192085Y-39102491D01*
X99248367Y-39005009D01*
X99277500Y-38896281D01*
X99277500Y-38783719D01*
X99248367Y-38674991D01*
X99192085Y-38577509D01*
X99112491Y-38497915D01*
X99065853Y-38470988D01*
X99009498Y-38438450D01*
X98961284Y-38387882D01*
X98947500Y-38331064D01*
X98947500Y-37344124D01*
X98967185Y-37277085D01*
X98968627Y-37274891D01*
X98975327Y-37264934D01*
X99002865Y-37237397D01*
X99012520Y-37214087D01*
X99037500Y-37153782D01*
X99037500Y-36566218D01*
X99002865Y-36482603D01*
X99002863Y-36482601D01*
X99002863Y-36482600D01*
X98983819Y-36463556D01*
X98950334Y-36402233D01*
X98947500Y-36375875D01*
X98947500Y-32004877D01*
X98967185Y-31937838D01*
X99019989Y-31892083D01*
X99089147Y-31882139D01*
X99152703Y-31911164D01*
X99174602Y-31935986D01*
X99277925Y-32090619D01*
X99277928Y-32090623D01*
X99414076Y-32226771D01*
X99414080Y-32226774D01*
X99574176Y-32333748D01*
X99574178Y-32333748D01*
X99574180Y-32333750D01*
X99619826Y-32352657D01*
X99629389Y-32356618D01*
X99669618Y-32383498D01*
X99686635Y-32400515D01*
X99817865Y-32476281D01*
X99964234Y-32515500D01*
X99964236Y-32515500D01*
X100115764Y-32515500D01*
X100115766Y-32515500D01*
X100262135Y-32476281D01*
X100393365Y-32400515D01*
X100414343Y-32379536D01*
X100454567Y-32352659D01*
X100500220Y-32333750D01*
X100660320Y-32226774D01*
X100796474Y-32090620D01*
X100903450Y-31930520D01*
X100977136Y-31752626D01*
X100996657Y-31654483D01*
X101029041Y-31592575D01*
X101089757Y-31558001D01*
X101159526Y-31561740D01*
X101216199Y-31602606D01*
X101240747Y-31659279D01*
X101260442Y-31783627D01*
X101260442Y-31783630D01*
X101326104Y-31985717D01*
X101422575Y-32175050D01*
X101461928Y-32229216D01*
X102223646Y-31467500D01*
X101461928Y-30705782D01*
X101461927Y-30705782D01*
X101422580Y-30759939D01*
X101326104Y-30949282D01*
X101260442Y-31151369D01*
X101260442Y-31151372D01*
X101240747Y-31275720D01*
X101210818Y-31338855D01*
X101151506Y-31375786D01*
X101081643Y-31374788D01*
X101023411Y-31336178D01*
X100996657Y-31280513D01*
X100977137Y-31182381D01*
X100977136Y-31182374D01*
X100964293Y-31151369D01*
X100903453Y-31004486D01*
X100903446Y-31004473D01*
X100796474Y-30844380D01*
X100796471Y-30844376D01*
X100660323Y-30708228D01*
X100660319Y-30708225D01*
X100500217Y-30601248D01*
X100446032Y-30578804D01*
X100405804Y-30551924D01*
X100383367Y-30529487D01*
X100383365Y-30529485D01*
X100292693Y-30477135D01*
X100252136Y-30453719D01*
X100178950Y-30434109D01*
X100105766Y-30414500D01*
X99954234Y-30414500D01*
X99807865Y-30453719D01*
X99807864Y-30453719D01*
X99807862Y-30453720D01*
X99807861Y-30453720D01*
X99676633Y-30529485D01*
X99644010Y-30562108D01*
X99603787Y-30588985D01*
X99574181Y-30601249D01*
X99414080Y-30708225D01*
X99414076Y-30708228D01*
X99277928Y-30844376D01*
X99277925Y-30844380D01*
X99174602Y-30999013D01*
X99148593Y-31020748D01*
X99123011Y-31042916D01*
X99121872Y-31043079D01*
X99120989Y-31043818D01*
X99087384Y-31048038D01*
X99053853Y-31052860D01*
X99052805Y-31052381D01*
X99051664Y-31052525D01*
X99021120Y-31037911D01*
X98990297Y-31023835D01*
X98989674Y-31022866D01*
X98988637Y-31022370D01*
X98970839Y-30993557D01*
X98952523Y-30965057D01*
X98952307Y-30963557D01*
X98951918Y-30962927D01*
X98947500Y-30930122D01*
X98947500Y-30815596D01*
X98967185Y-30748557D01*
X98983819Y-30727914D01*
X99008564Y-30703169D01*
X99080066Y-30631668D01*
X99080066Y-30631667D01*
X99097504Y-30614229D01*
X99097506Y-30614225D01*
X99735906Y-29975825D01*
X99797227Y-29942342D01*
X99855676Y-29943732D01*
X99974234Y-29975500D01*
X99974236Y-29975500D01*
X100125764Y-29975500D01*
X100125766Y-29975500D01*
X100272135Y-29936281D01*
X100403365Y-29860515D01*
X100431415Y-29832464D01*
X100471637Y-29805588D01*
X100500220Y-29793750D01*
X100660320Y-29686774D01*
X100796474Y-29550620D01*
X100903450Y-29390520D01*
X100977136Y-29212626D01*
X101014700Y-29023775D01*
X101014700Y-28831225D01*
X100977136Y-28642374D01*
X100941390Y-28556075D01*
X100903453Y-28464486D01*
X100903446Y-28464473D01*
X100796474Y-28304380D01*
X100796471Y-28304376D01*
X100660323Y-28168228D01*
X100660319Y-28168225D01*
X100500217Y-28061248D01*
X100428961Y-28031733D01*
X100388733Y-28004853D01*
X100383367Y-27999487D01*
X100383365Y-27999485D01*
X100317750Y-27961602D01*
X100252136Y-27923719D01*
X100178950Y-27904109D01*
X100105766Y-27884500D01*
X99954234Y-27884500D01*
X99807865Y-27923719D01*
X99807864Y-27923719D01*
X99807862Y-27923720D01*
X99807861Y-27923720D01*
X99676639Y-27999482D01*
X99676630Y-27999488D01*
X99661079Y-28015039D01*
X99620858Y-28041914D01*
X99574179Y-28061250D01*
X99414080Y-28168225D01*
X99414076Y-28168228D01*
X99277928Y-28304376D01*
X99277925Y-28304380D01*
X99170953Y-28464473D01*
X99170946Y-28464486D01*
X99097266Y-28642367D01*
X99097262Y-28642381D01*
X99059700Y-28831220D01*
X99059700Y-29023778D01*
X99067473Y-29062861D01*
X99061243Y-29132452D01*
X99033537Y-29174729D01*
X98887532Y-29320735D01*
X98758332Y-29449935D01*
X98694335Y-29513932D01*
X98688220Y-29528692D01*
X98674184Y-29544402D01*
X98661667Y-29552179D01*
X98652420Y-29563650D01*
X98632590Y-29570246D01*
X98614837Y-29581277D01*
X98600103Y-29581052D01*
X98586122Y-29585703D01*
X98565872Y-29580530D01*
X98544975Y-29580212D01*
X98532701Y-29572057D01*
X98518426Y-29568411D01*
X98494038Y-29549462D01*
X98492493Y-29547917D01*
X98492491Y-29547915D01*
X98441247Y-29518329D01*
X98395010Y-29491633D01*
X98323602Y-29472500D01*
X98286281Y-29462500D01*
X98173719Y-29462500D01*
X98064989Y-29491633D01*
X97967509Y-29547915D01*
X97967506Y-29547917D01*
X97887917Y-29627506D01*
X97887915Y-29627509D01*
X97831633Y-29724989D01*
X97813210Y-29793748D01*
X97802500Y-29833719D01*
X97802500Y-29946281D01*
X97815410Y-29994461D01*
X97831633Y-30055010D01*
X97841942Y-30072865D01*
X97887915Y-30152491D01*
X97887917Y-30152493D01*
X97946181Y-30210757D01*
X97979666Y-30272080D01*
X97982500Y-30298438D01*
X97982500Y-30758562D01*
X97962815Y-30825601D01*
X97910011Y-30871356D01*
X97840853Y-30881300D01*
X97777297Y-30852275D01*
X97773197Y-30848457D01*
X97772493Y-30847917D01*
X97772491Y-30847915D01*
X97716514Y-30815596D01*
X97675010Y-30791633D01*
X97573715Y-30764492D01*
X97566281Y-30762500D01*
X97453719Y-30762500D01*
X97344989Y-30791633D01*
X97247509Y-30847915D01*
X97247506Y-30847917D01*
X97167917Y-30927506D01*
X97167915Y-30927509D01*
X97111633Y-31024989D01*
X97093218Y-31093719D01*
X97082500Y-31133719D01*
X94417500Y-31133719D01*
X94417500Y-31093719D01*
X94388367Y-30984991D01*
X94332085Y-30887509D01*
X94252491Y-30807915D01*
X94203750Y-30779774D01*
X94155010Y-30751633D01*
X94046965Y-30722683D01*
X94046964Y-30722683D01*
X94046281Y-30722500D01*
X93933719Y-30722500D01*
X93906900Y-30729685D01*
X93906899Y-30729686D01*
X93824989Y-30751633D01*
X93727509Y-30807915D01*
X93727506Y-30807917D01*
X93649243Y-30886181D01*
X93587920Y-30919666D01*
X93561562Y-30922500D01*
X93414874Y-30922500D01*
X93347835Y-30902815D01*
X93327193Y-30886181D01*
X93135194Y-30694181D01*
X93101709Y-30632858D01*
X93106693Y-30563166D01*
X93148565Y-30507233D01*
X93214029Y-30482816D01*
X93222875Y-30482500D01*
X93884447Y-30482500D01*
X93995114Y-30482500D01*
X94032268Y-30475109D01*
X94032273Y-30475109D01*
X94060010Y-30469591D01*
X94060010Y-30469590D01*
X94060015Y-30469590D01*
X94133614Y-30420414D01*
X94182790Y-30346815D01*
X94182791Y-30346811D01*
X94183899Y-30344138D01*
X94187879Y-30339198D01*
X94189575Y-30336661D01*
X94189802Y-30336812D01*
X94227740Y-30289735D01*
X94294034Y-30267670D01*
X94360462Y-30284205D01*
X94384988Y-30298366D01*
X94384990Y-30298366D01*
X94384991Y-30298367D01*
X94493719Y-30327500D01*
X94493721Y-30327500D01*
X94606279Y-30327500D01*
X94606281Y-30327500D01*
X94715009Y-30298367D01*
X94812491Y-30242085D01*
X94892085Y-30162491D01*
X94948367Y-30065009D01*
X94977500Y-29956281D01*
X94977500Y-29843719D01*
X94948367Y-29734991D01*
X94892085Y-29637509D01*
X94812491Y-29557915D01*
X94743941Y-29518337D01*
X94715010Y-29501633D01*
X94660645Y-29487066D01*
X94606281Y-29472500D01*
X94493719Y-29472500D01*
X94384988Y-29501633D01*
X94369258Y-29510716D01*
X94301358Y-29527187D01*
X94235331Y-29504335D01*
X94192141Y-29449413D01*
X94185642Y-29427519D01*
X94182791Y-29413189D01*
X94182790Y-29413188D01*
X94182790Y-29413185D01*
X94167646Y-29390520D01*
X94133614Y-29339585D01*
X94060017Y-29290411D01*
X94060011Y-29290408D01*
X93995116Y-29277500D01*
X93995114Y-29277500D01*
X92109286Y-29277500D01*
X92109284Y-29277500D01*
X92044388Y-29290408D01*
X92044382Y-29290411D01*
X91970785Y-29339585D01*
X91921611Y-29413182D01*
X91921608Y-29413188D01*
X91908700Y-29478083D01*
X91908700Y-29487604D01*
X91889015Y-29554643D01*
X91836211Y-29600398D01*
X91767053Y-29610342D01*
X91703497Y-29581317D01*
X91697019Y-29575285D01*
X91328869Y-29207136D01*
X91328868Y-29207135D01*
X91245253Y-29172500D01*
X90526983Y-29172500D01*
X90459944Y-29152815D01*
X90414189Y-29100011D01*
X90405366Y-29072692D01*
X90377622Y-28933218D01*
X90377621Y-28933212D01*
X90320650Y-28795670D01*
X90319015Y-28791722D01*
X90319008Y-28791709D01*
X90233924Y-28664373D01*
X90233921Y-28664369D01*
X90125630Y-28556078D01*
X90125626Y-28556075D01*
X89998290Y-28470991D01*
X89998277Y-28470984D01*
X89856789Y-28412379D01*
X89856780Y-28412376D01*
X89706580Y-28382500D01*
X89706577Y-28382500D01*
X89549500Y-28382500D01*
X89482461Y-28362815D01*
X89436706Y-28310011D01*
X89425500Y-28258500D01*
X89425500Y-27434500D01*
X89445185Y-27367461D01*
X89497989Y-27321706D01*
X89549500Y-27310500D01*
X121125500Y-27310500D01*
X121192539Y-27330185D01*
G37*
%TD.AperFunction*%
%TA.AperFunction,Conductor*%
G36*
X92828380Y-57505865D02*
G01*
X92884314Y-57547736D01*
X92908731Y-57613201D01*
X92893879Y-57681474D01*
X92885367Y-57694929D01*
X92865379Y-57722440D01*
X92768904Y-57911782D01*
X92703242Y-58113869D01*
X92703242Y-58113872D01*
X92670000Y-58323753D01*
X92670000Y-58536246D01*
X92703242Y-58746127D01*
X92703242Y-58746130D01*
X92768904Y-58948217D01*
X92865375Y-59137550D01*
X92904728Y-59191716D01*
X93537037Y-58559408D01*
X93554075Y-58622993D01*
X93619901Y-58737007D01*
X93712993Y-58830099D01*
X93827007Y-58895925D01*
X93890590Y-58912962D01*
X93258282Y-59545269D01*
X93258282Y-59545270D01*
X93312449Y-59584624D01*
X93501782Y-59681095D01*
X93703869Y-59746757D01*
X93703874Y-59746758D01*
X93828219Y-59766452D01*
X93891354Y-59796381D01*
X93928286Y-59855692D01*
X93927288Y-59925555D01*
X93888679Y-59983788D01*
X93833014Y-60010542D01*
X93734880Y-60030062D01*
X93734867Y-60030066D01*
X93556986Y-60103746D01*
X93556973Y-60103753D01*
X93396880Y-60210725D01*
X93396876Y-60210728D01*
X93260728Y-60346876D01*
X93260725Y-60346880D01*
X93153753Y-60506973D01*
X93153746Y-60506986D01*
X93080066Y-60684867D01*
X93080062Y-60684881D01*
X93042500Y-60873720D01*
X93042500Y-61066279D01*
X93080062Y-61255118D01*
X93080066Y-61255132D01*
X93145912Y-61414100D01*
X93153381Y-61483569D01*
X93122105Y-61546048D01*
X93119032Y-61549233D01*
X92701887Y-61966380D01*
X92640564Y-61999865D01*
X92614206Y-62002699D01*
X90380263Y-62002699D01*
X90313224Y-61983014D01*
X90267469Y-61930210D01*
X90265702Y-61926151D01*
X90239015Y-61861722D01*
X90239008Y-61861709D01*
X90153924Y-61734373D01*
X90153921Y-61734369D01*
X90045630Y-61626078D01*
X90045626Y-61626075D01*
X89918285Y-61540988D01*
X89917443Y-61540538D01*
X89917084Y-61540185D01*
X89913219Y-61537603D01*
X89913708Y-61536869D01*
X89867599Y-61491575D01*
X89852139Y-61423437D01*
X89875971Y-61357757D01*
X89931529Y-61315389D01*
X89937581Y-61313248D01*
X89991448Y-61295746D01*
X90152734Y-61213565D01*
X90299169Y-61107176D01*
X90427176Y-60979169D01*
X90533565Y-60832734D01*
X90615747Y-60671447D01*
X90615749Y-60671441D01*
X90671681Y-60499295D01*
X90671684Y-60499285D01*
X90674739Y-60480000D01*
X89549500Y-60480000D01*
X89482461Y-60460315D01*
X89436706Y-60407511D01*
X89425500Y-60356000D01*
X89425500Y-60104000D01*
X89445185Y-60036961D01*
X89497989Y-59991206D01*
X89549500Y-59980000D01*
X90674739Y-59980000D01*
X90671684Y-59960714D01*
X90671681Y-59960704D01*
X90615749Y-59788558D01*
X90615747Y-59788552D01*
X90533565Y-59627265D01*
X90427176Y-59480830D01*
X90299169Y-59352823D01*
X90152734Y-59246434D01*
X89991447Y-59164252D01*
X89991444Y-59164251D01*
X89937579Y-59146750D01*
X89879904Y-59107313D01*
X89852705Y-59042954D01*
X89864619Y-58974108D01*
X89911864Y-58922632D01*
X89917456Y-58919454D01*
X89918278Y-58919014D01*
X89918284Y-58919012D01*
X89918289Y-58919008D01*
X89918292Y-58919007D01*
X89961686Y-58890011D01*
X90045627Y-58833924D01*
X90153924Y-58725627D01*
X90239012Y-58598284D01*
X90265530Y-58534262D01*
X90309370Y-58479859D01*
X90375664Y-58457794D01*
X90380091Y-58457715D01*
X91725037Y-58457715D01*
X91725038Y-58457715D01*
X91808653Y-58423080D01*
X92697368Y-57534364D01*
X92758689Y-57500881D01*
X92828380Y-57505865D01*
G37*
%TD.AperFunction*%
%TA.AperFunction,Conductor*%
G36*
X94548601Y-40287185D02*
G01*
X94569243Y-40303819D01*
X94647509Y-40382085D01*
X94727139Y-40428060D01*
X94733327Y-40431633D01*
X94744991Y-40438367D01*
X94853719Y-40467500D01*
X94853721Y-40467500D01*
X94966279Y-40467500D01*
X94966281Y-40467500D01*
X95075009Y-40438367D01*
X95172491Y-40382085D01*
X95230819Y-40323757D01*
X95292142Y-40290272D01*
X95361834Y-40295256D01*
X95417767Y-40337128D01*
X95442184Y-40402592D01*
X95442500Y-40411438D01*
X95442500Y-57731686D01*
X95422815Y-57798725D01*
X95370011Y-57844480D01*
X95300853Y-57854424D01*
X95237297Y-57825399D01*
X95208015Y-57787981D01*
X95174624Y-57722450D01*
X95135270Y-57668282D01*
X95135269Y-57668282D01*
X94502962Y-58300590D01*
X94485925Y-58237007D01*
X94420099Y-58122993D01*
X94327007Y-58029901D01*
X94212993Y-57964075D01*
X94149408Y-57947037D01*
X94781716Y-57314728D01*
X94727550Y-57275375D01*
X94538217Y-57178904D01*
X94336129Y-57113242D01*
X94211779Y-57093547D01*
X94148644Y-57063618D01*
X94111713Y-57004306D01*
X94112711Y-56934444D01*
X94151321Y-56876211D01*
X94206983Y-56849457D01*
X94305126Y-56829936D01*
X94483020Y-56756250D01*
X94643120Y-56649274D01*
X94779274Y-56513120D01*
X94886250Y-56353020D01*
X94888759Y-56346964D01*
X94928311Y-56251476D01*
X94959936Y-56175126D01*
X94997500Y-55986275D01*
X94997500Y-55793725D01*
X94959936Y-55604874D01*
X94921841Y-55512904D01*
X94886253Y-55426986D01*
X94886246Y-55426973D01*
X94779274Y-55266880D01*
X94779271Y-55266876D01*
X94643123Y-55130728D01*
X94643119Y-55130725D01*
X94483026Y-55023753D01*
X94483013Y-55023746D01*
X94305132Y-54950066D01*
X94305128Y-54950064D01*
X94305126Y-54950064D01*
X94305122Y-54950063D01*
X94305118Y-54950062D01*
X94116279Y-54912500D01*
X94116275Y-54912500D01*
X93923725Y-54912500D01*
X93923720Y-54912500D01*
X93734881Y-54950062D01*
X93734867Y-54950066D01*
X93556986Y-55023746D01*
X93556973Y-55023753D01*
X93396880Y-55130725D01*
X93396876Y-55130728D01*
X93260728Y-55266876D01*
X93260725Y-55266880D01*
X93153753Y-55426973D01*
X93153746Y-55426986D01*
X93080066Y-55604867D01*
X93080062Y-55604881D01*
X93042500Y-55793720D01*
X93042500Y-55986279D01*
X93080062Y-56175118D01*
X93080066Y-56175132D01*
X93145912Y-56334099D01*
X93153381Y-56403568D01*
X93122106Y-56466047D01*
X93119033Y-56469232D01*
X92912083Y-56676182D01*
X92850763Y-56709666D01*
X92824404Y-56712500D01*
X91618438Y-56712500D01*
X91596203Y-56705971D01*
X91573119Y-56703922D01*
X91560026Y-56695348D01*
X91551399Y-56692815D01*
X91542437Y-56686479D01*
X91533067Y-56679211D01*
X91532085Y-56677509D01*
X91452491Y-56597915D01*
X91357735Y-56543207D01*
X91351051Y-56538022D01*
X91335346Y-56516275D01*
X91316835Y-56496861D01*
X91315200Y-56488379D01*
X91310144Y-56481378D01*
X91308689Y-56454590D01*
X91303614Y-56428254D01*
X91306823Y-56420237D01*
X91306355Y-56411611D01*
X91319615Y-56388286D01*
X91329583Y-56363390D01*
X91339371Y-56352362D01*
X92370303Y-55321430D01*
X93440767Y-54250965D01*
X93502088Y-54217482D01*
X93571780Y-54222466D01*
X93575898Y-54224087D01*
X93689986Y-54271343D01*
X93734874Y-54289936D01*
X93873446Y-54317499D01*
X93923720Y-54327499D01*
X93923724Y-54327500D01*
X93923725Y-54327500D01*
X94116276Y-54327500D01*
X94116277Y-54327499D01*
X94305126Y-54289936D01*
X94483020Y-54216250D01*
X94643120Y-54109274D01*
X94779274Y-53973120D01*
X94886250Y-53813020D01*
X94959936Y-53635126D01*
X94997500Y-53446275D01*
X94997500Y-53253725D01*
X94959936Y-53064874D01*
X94929477Y-52991339D01*
X94886253Y-52886986D01*
X94886246Y-52886973D01*
X94779274Y-52726880D01*
X94779271Y-52726876D01*
X94643123Y-52590728D01*
X94643119Y-52590725D01*
X94483026Y-52483753D01*
X94483013Y-52483746D01*
X94305132Y-52410066D01*
X94305128Y-52410064D01*
X94305126Y-52410064D01*
X94305122Y-52410063D01*
X94305118Y-52410062D01*
X94116279Y-52372500D01*
X94116275Y-52372500D01*
X93923725Y-52372500D01*
X93923720Y-52372500D01*
X93734881Y-52410062D01*
X93734867Y-52410066D01*
X93556986Y-52483746D01*
X93556973Y-52483753D01*
X93396880Y-52590725D01*
X93396876Y-52590728D01*
X93260728Y-52726876D01*
X93260725Y-52726880D01*
X93153753Y-52886973D01*
X93153746Y-52886986D01*
X93080066Y-53064867D01*
X93080062Y-53064881D01*
X93042500Y-53253720D01*
X93042500Y-53446279D01*
X93080062Y-53635118D01*
X93080066Y-53635132D01*
X93145912Y-53794099D01*
X93153381Y-53863568D01*
X93122106Y-53926047D01*
X93119032Y-53929232D01*
X91081862Y-55966405D01*
X91020539Y-55999890D01*
X90994181Y-56002724D01*
X90380273Y-56002724D01*
X90313234Y-55983039D01*
X90267479Y-55930235D01*
X90265731Y-55926223D01*
X90239012Y-55861716D01*
X90239010Y-55861713D01*
X90239008Y-55861709D01*
X90153924Y-55734373D01*
X90153921Y-55734369D01*
X90045630Y-55626078D01*
X90045626Y-55626075D01*
X89918290Y-55540991D01*
X89918277Y-55540984D01*
X89776789Y-55482379D01*
X89776780Y-55482376D01*
X89626580Y-55452500D01*
X89626577Y-55452500D01*
X89549500Y-55452500D01*
X89540814Y-55449949D01*
X89531853Y-55451238D01*
X89507812Y-55440259D01*
X89482461Y-55432815D01*
X89476533Y-55425974D01*
X89468297Y-55422213D01*
X89454007Y-55399978D01*
X89436706Y-55380011D01*
X89434418Y-55369496D01*
X89430523Y-55363435D01*
X89425500Y-55328500D01*
X89425500Y-55131500D01*
X89445185Y-55064461D01*
X89497989Y-55018706D01*
X89549500Y-55007500D01*
X89626579Y-55007500D01*
X89626580Y-55007499D01*
X89676647Y-54997540D01*
X89776780Y-54977623D01*
X89776783Y-54977621D01*
X89776788Y-54977621D01*
X89918284Y-54919012D01*
X90045627Y-54833924D01*
X90153924Y-54725627D01*
X90239012Y-54598284D01*
X90265523Y-54534279D01*
X90309363Y-54479877D01*
X90375657Y-54457811D01*
X90380084Y-54457732D01*
X90875020Y-54457732D01*
X90875021Y-54457732D01*
X90958636Y-54423097D01*
X93557914Y-51823819D01*
X93619237Y-51790334D01*
X93645595Y-51787500D01*
X94882559Y-51787500D01*
X94889957Y-51786028D01*
X94919748Y-51780102D01*
X94961922Y-51751922D01*
X94990102Y-51709748D01*
X94997500Y-51672558D01*
X94997500Y-49947442D01*
X94990102Y-49910252D01*
X94990101Y-49910250D01*
X94961922Y-49868077D01*
X94919749Y-49839898D01*
X94882559Y-49832500D01*
X94882558Y-49832500D01*
X93157442Y-49832500D01*
X93157441Y-49832500D01*
X93120250Y-49839898D01*
X93078077Y-49868077D01*
X93049897Y-49910252D01*
X93045225Y-49921533D01*
X93043654Y-49920882D01*
X93017929Y-49970058D01*
X92957213Y-50004630D01*
X92887443Y-50000888D01*
X92830773Y-49960020D01*
X92805193Y-49895001D01*
X92804700Y-49883953D01*
X92804700Y-45846500D01*
X92824385Y-45779461D01*
X92877189Y-45733706D01*
X92928700Y-45722500D01*
X93995116Y-45722500D01*
X94060011Y-45709591D01*
X94060011Y-45709590D01*
X94060015Y-45709590D01*
X94133614Y-45660414D01*
X94182790Y-45586815D01*
X94194432Y-45528290D01*
X94195700Y-45521916D01*
X94195700Y-44718083D01*
X94182791Y-44653188D01*
X94182790Y-44653186D01*
X94182790Y-44653185D01*
X94137584Y-44585527D01*
X94133614Y-44579585D01*
X94060017Y-44530411D01*
X94060011Y-44530408D01*
X93995116Y-44517500D01*
X93995114Y-44517500D01*
X93222875Y-44517500D01*
X93155836Y-44497815D01*
X93110081Y-44445011D01*
X93100137Y-44375853D01*
X93129162Y-44312297D01*
X93135194Y-44305819D01*
X93367231Y-44073781D01*
X93367232Y-44073780D01*
X93367236Y-44073776D01*
X93388302Y-44042248D01*
X93395700Y-44005058D01*
X93395700Y-43694946D01*
X93388302Y-43657752D01*
X93367234Y-43626222D01*
X93367230Y-43626218D01*
X93367228Y-43626215D01*
X93135194Y-43394181D01*
X93101709Y-43332858D01*
X93106693Y-43263166D01*
X93148565Y-43207233D01*
X93214029Y-43182816D01*
X93222875Y-43182500D01*
X93995116Y-43182500D01*
X94060011Y-43169591D01*
X94060011Y-43169590D01*
X94060015Y-43169590D01*
X94133614Y-43120414D01*
X94182790Y-43046815D01*
X94186081Y-43030272D01*
X94191345Y-43003810D01*
X94223730Y-42941899D01*
X94284445Y-42907325D01*
X94354215Y-42911064D01*
X94374963Y-42920615D01*
X94474985Y-42978364D01*
X94474987Y-42978365D01*
X94474988Y-42978365D01*
X94474991Y-42978367D01*
X94583719Y-43007500D01*
X94583721Y-43007500D01*
X94696279Y-43007500D01*
X94696281Y-43007500D01*
X94805009Y-42978367D01*
X94902491Y-42922085D01*
X94982085Y-42842491D01*
X95038367Y-42745009D01*
X95067500Y-42636281D01*
X95067500Y-42523719D01*
X95038367Y-42414991D01*
X94982085Y-42317509D01*
X94902491Y-42237915D01*
X94853750Y-42209774D01*
X94805010Y-42181633D01*
X94750645Y-42167066D01*
X94696281Y-42152500D01*
X94583719Y-42152500D01*
X94474989Y-42181633D01*
X94374963Y-42239385D01*
X94307063Y-42255858D01*
X94241036Y-42233006D01*
X94197845Y-42178085D01*
X94191345Y-42156190D01*
X94182791Y-42113188D01*
X94182790Y-42113186D01*
X94182790Y-42113185D01*
X94173480Y-42099251D01*
X94133614Y-42039585D01*
X94060017Y-41990411D01*
X94060011Y-41990408D01*
X93995116Y-41977500D01*
X93995114Y-41977500D01*
X93222875Y-41977500D01*
X93155836Y-41957815D01*
X93110081Y-41905011D01*
X93100137Y-41835853D01*
X93129162Y-41772297D01*
X93135193Y-41765819D01*
X93208927Y-41692085D01*
X93285538Y-41615473D01*
X93346860Y-41581990D01*
X93416551Y-41586974D01*
X93460899Y-41615475D01*
X93497509Y-41652085D01*
X93594991Y-41708367D01*
X93703719Y-41737500D01*
X93816281Y-41737500D01*
X93925009Y-41708367D01*
X94022491Y-41652085D01*
X94102085Y-41572491D01*
X94158367Y-41475009D01*
X94187500Y-41366281D01*
X94187500Y-41253719D01*
X94158367Y-41144991D01*
X94102085Y-41047509D01*
X94022491Y-40967915D01*
X93968916Y-40936983D01*
X93925010Y-40911633D01*
X93898724Y-40904590D01*
X93816281Y-40882500D01*
X93703719Y-40882500D01*
X93634420Y-40901068D01*
X93594989Y-40911633D01*
X93497509Y-40967915D01*
X93497505Y-40967918D01*
X93460898Y-41004525D01*
X93399575Y-41038010D01*
X93329883Y-41033024D01*
X93285537Y-41004524D01*
X93135194Y-40854181D01*
X93101709Y-40792858D01*
X93106693Y-40723166D01*
X93148565Y-40667233D01*
X93214029Y-40642816D01*
X93222875Y-40642500D01*
X93995116Y-40642500D01*
X94060011Y-40629591D01*
X94060011Y-40629590D01*
X94060015Y-40629590D01*
X94133614Y-40580414D01*
X94182790Y-40506815D01*
X94182791Y-40506811D01*
X94195700Y-40441916D01*
X94195700Y-40391500D01*
X94198250Y-40382814D01*
X94196962Y-40373853D01*
X94207940Y-40349812D01*
X94215385Y-40324461D01*
X94222225Y-40318533D01*
X94225987Y-40310297D01*
X94248221Y-40296007D01*
X94268189Y-40278706D01*
X94278703Y-40276418D01*
X94284765Y-40272523D01*
X94319700Y-40267500D01*
X94481562Y-40267500D01*
X94548601Y-40287185D01*
G37*
%TD.AperFunction*%
%TD*%
M02*
