M48
; DRILL file KiCad 10.0.3 date 2026-06-18T18:50:35
; FORMAT={-:-/ absolute / metric / decimal}
; #@! TF.CreationDate,2026-06-18T18:50:35+02:00
; #@! TF.GenerationSoftware,Kicad,Pcbnew,10.0.3
; #@! TF.FileFunction,Plated,1,4,PTH
FMAT,2
METRIC
; #@! TA.AperFunction,Plated,PTH,ViaDrill
T1C0.300
; #@! TA.AperFunction,Plated,PTH,ViaDrill
T2C0.650
; #@! TA.AperFunction,Plated,PTH,ComponentDrill
T3C0.750
; #@! TA.AperFunction,Plated,PTH,ComponentDrill
T4C0.800
; #@! TA.AperFunction,Plated,PTH,ComponentDrill
T5C0.813
; #@! TA.AperFunction,Plated,PTH,ViaDrill
T6C0.900
; #@! TA.AperFunction,Plated,PTH,ComponentDrill
T7C0.914
; #@! TA.AperFunction,Plated,PTH,ComponentDrill
T8C1.000
; #@! TA.AperFunction,Plated,PTH,ComponentDrill
T9C1.499
%
G90
G05
T1
X91.17Y-51.9
X91.19Y-56.94
X93.76Y-41.31
X93.99Y-31.15
X94.3Y-36.24
X94.33Y-33.72
X94.55Y-29.9
X94.64Y-42.58
X94.72Y-34.96
X94.76Y-32.39
X94.78Y-38.75
X94.8Y-37.51
X94.91Y-40.04
X95.67Y-33.75
X96.28Y-36.18
X96.87Y-38.75
X97.51Y-31.19
X97.59Y-40.06
X97.95Y-38.23
X98.2Y-42.51
X98.21Y-36.86
X98.23Y-29.89
X98.85Y-38.84
X99.4Y-41.33
X99.417Y-46.932
X101.28Y-46.9
X103.05Y-46.87
X103.55Y-39.761
X104.24Y-36.86
X104.48Y-31.77
X105.3Y-49.0
X106.09Y-50.78
X106.29Y-38.25
X106.29Y-49.54
X106.72Y-66.94
X106.72Y-69.02
X106.942Y-35.023
X107.01Y-72.92
X107.03Y-71.03
X107.06Y-75.03
X107.14Y-48.54
X107.46Y-33.4
X107.81Y-37.46
X107.84Y-47.9
X108.715Y-52.754
X109.22Y-51.95
X111.25Y-72.91
X111.95Y-71.04
X111.99Y-42.75
X112.46Y-40.83
X112.76Y-66.98
X113.3Y-69.03
X113.945Y-74.045
X114.16Y-38.45
X114.55Y-47.9
X114.56Y-65.02
X115.27Y-48.53
X115.27Y-67.0
X115.28Y-42.9
X115.9Y-41.35
X115.97Y-49.54
X115.97Y-69.01
X116.51Y-45.38
X117.517Y-65.02
X117.517Y-69.01
X117.6Y-67.0
X117.88Y-48.64
X117.89Y-47.73
X119.16Y-39.66
X119.53Y-49.01
X119.59Y-48.03
X119.81Y-36.89
T2
X100.03Y-28.46
X100.03Y-30.99
X100.04Y-31.94
X100.05Y-29.4
X102.574Y-31.0
X102.58Y-28.46
X102.58Y-29.39
X102.58Y-31.93
T3
X115.027Y-33.794
X117.027Y-33.794
T4
X88.95Y-54.23
X88.95Y-56.23
X88.95Y-58.23
X88.95Y-60.23
X88.95Y-62.23
X88.95Y-64.23
X89.03Y-29.16
X89.03Y-31.16
X89.03Y-33.16
X89.03Y-35.16
X89.03Y-37.16
X89.03Y-39.16
X89.03Y-41.16
X89.03Y-43.16
X89.03Y-45.16
X89.03Y-47.16
X89.03Y-49.16
X89.03Y-51.16
X121.68Y-57.3
X121.68Y-59.3
X121.71Y-32.87
X121.71Y-34.87
X121.71Y-36.87
X121.71Y-38.87
T5
X114.133Y-29.494
X116.133Y-29.494
X118.133Y-29.494
T6
X100.31Y-43.7
X100.32Y-42.36
X102.31Y-43.69
X102.313Y-42.37
T7
X112.25Y-52.75
X117.25Y-52.75
T8
X94.02Y-50.81
X94.02Y-53.35
X94.02Y-55.89
X94.02Y-58.43
X94.02Y-60.97
X94.02Y-63.51
X103.88Y-84.0
X106.42Y-84.0
X108.96Y-84.0
X111.5Y-84.0
X118.61Y-41.545
X118.61Y-44.085
T9
X112.033Y-29.494
X120.233Y-29.494
M30
