<?xml version="1.0" encoding="UTF-8" standalone="no"?>
<svg
   version="1.1"
   id="Layer_1"
   x="0px"
   y="0px"
   width="16"
   height="16"
   viewBox="0 0 16 16"
   enable-background="new 0 0 122.88 109.652"
   xml:space="preserve"
   sodipodi:docname="lock_closed_icon_16x16.svg"
   inkscape:version="1.4.2 (ebf0e940d0, 2025-05-08)"
   xmlns:inkscape="http://www.inkscape.org/namespaces/inkscape"
   xmlns:sodipodi="http://sodipodi.sourceforge.net/DTD/sodipodi-0.dtd"
   xmlns="http://www.w3.org/2000/svg"
   xmlns:svg="http://www.w3.org/2000/svg"><sodipodi:namedview
     id="namedview1"
     pagecolor="#000000"
     bordercolor="#000000"
     borderopacity="0.25"
     inkscape:showpageshadow="2"
     inkscape:pageopacity="0.0"
     inkscape:pagecheckerboard="0"
     inkscape:deskcolor="#d1d1d1"
     showgrid="true"
     inkscape:zoom="45.254834"
     inkscape:cx="8.4631843"
     inkscape:cy="10.242"
     inkscape:window-width="2560"
     inkscape:window-height="1440"
     inkscape:window-x="0"
     inkscape:window-y="0"
     inkscape:window-maximized="0"
     inkscape:current-layer="Layer_1"><inkscape:grid
       id="grid1"
       units="px"
       originx="0"
       originy="0"
       spacingx="1"
       spacingy="1"
       empcolor="#0099e5"
       empopacity="0.30196078"
       color="#0099e5"
       opacity="0.14901961"
       empspacing="5"
       enabled="true"
       visible="true" /></sodipodi:namedview><defs
     id="defs1" /><g
     id="g1"
     transform="matrix(0.13580862,0,0,0.13580862,-17.788155,2)"
     style="fill:#ffffff;fill-opacity:0.20518"><path
       fill-rule="evenodd"
       clip-rule="evenodd"
       d="M 2.585,49.871 H 49.72792 V 34.054 34.043 h 0.009 c 0.002,-9.368 3.828,-17.878 9.989,-24.042 6.164,-6.163 14.679,-9.991 24.051,-9.991 V 0 h 0.005 v 0 h 0.012 v 0.009 c 9.368,0.002 17.878,3.828 24.042,9.989 6.164,6.164 9.991,14.679 9.991,24.051 h 0.012 v 0.004 15.96 2.403 h -2.403 -9.811 -2.404 V 50.013 33.868 33.859 h 0.012 c -0.002,-5.332 -2.195,-10.189 -5.722,-13.715 -3.528,-3.531 -8.388,-5.721 -13.724,-5.724 v 0.009 h -0.005 v 0 h -0.011 V 14.42 c -5.334,0.002 -10.191,2.19 -13.72,5.717 l 0.005,0.005 c -3.529,3.528 -5.722,8.388 -5.722,13.722 h 0.009 v 0.005 16.003 H 83.372 c 1.422,0 2.585,1.164 2.585,2.585 v 54.613 c 0,1.422 -1.163,2.583 -2.585,2.583 H 2.585 C 1.161,109.653 0,108.492 0,107.07 V 52.456 c 0,-1.421 1.161,-2.585 2.585,-2.585 z m 41.372,29.882 4.098,18.908 -11.232,0.045 3.297,-19.162 c -3.068,-0.981 -5.295,-3.857 -5.295,-7.252 0,-4.202 3.411,-7.613 7.614,-7.613 4.202,0 7.613,3.411 7.613,7.613 10e-4,3.683 -2.619,6.756 -6.095,7.461 z"
       id="path1"
       sodipodi:nodetypes="scccccccccccccccccccccccccccccccccccccssssssssccccsscc"
       style="fill:#ffffff;fill-opacity:0.20518" /></g><rect
     style="fill:#ffffff;stroke-width:9.38082"
     id="rect1-56-8-3-8-6-5"
     width="11"
     height="8"
     x="0"
     y="8" /><rect
     style="fill:#ffffff;stroke-width:2.82843"
     id="rect1-56-8-3-8-6-5-2"
     width="2"
     height="4"
     x="-10"
     y="4"
     transform="scale(-1,1)" /><rect
     style="fill:#ffffff;stroke-width:2"
     id="rect1-56-8-3-8-6-5-2-9"
     width="2"
     height="2"
     x="-7"
     y="1"
     transform="scale(-1,1)" /><rect
     style="fill:#ffffff;stroke-width:2"
     id="rect1-56-8-3-8-6-5-2-9-6"
     width="2"
     height="2"
     x="-9"
     y="2"
     transform="scale(-1,1)" /><rect
     style="fill:#ffffff;stroke-width:2"
     id="rect1-56-8-3-8-6-5-2-9-4"
     width="2"
     height="2"
     x="-3"
     y="6"
     transform="scale(-1,1)" /><rect
     style="fill:#ffffff;stroke-width:2"
     id="rect1-56-8-3-8-6-5-2-9-4-4"
     width="2"
     height="2"
     x="-3"
     y="4"
     transform="scale(-1,1)" /><rect
     style="fill:#ffffff;stroke-width:2"
     id="rect1-56-8-3-8-6-5-2-9-4-4-7"
     width="2"
     height="2"
     x="-4"
     y="2"
     transform="scale(-1,1)" /><rect
     style="fill:#ffffff;stroke-width:1"
     id="rect1-56-8-3-8-6-5-2-9-4-4-7-4"
     width="1"
     height="1"
     x="-10"
     y="3"
     transform="scale(-1,1)" /><rect
     style="fill:#ffffff;stroke-width:1"
     id="rect1-56-8-3-8-6-5-2-9-4-4-7-4-1"
     width="1"
     height="1"
     x="-8"
     y="1"
     transform="scale(-1,1)" /><rect
     style="fill:#ffffff;stroke-width:1"
     id="rect1-56-8-3-8-6-5-2-9-4-4-7-4-1-1"
     width="1"
     height="1"
     x="-4"
     y="1"
     transform="scale(-1,1)" /><rect
     style="fill:#ffffff;stroke-width:1"
     id="rect1-56-8-3-8-6-5-2-9-4-4-7-4-1-1-7"
     width="1"
     height="1"
     x="-2"
     y="3"
     transform="scale(-1,1)" /><rect
     style="fill:#ffffff;stroke-width:1.41421"
     id="rect1-56-8-3-8-6-5-2-9-4-4-7-2"
     width="1"
     height="2"
     x="-5"
     y="1"
     transform="scale(-1,1)" /><rect
     style="fill:#000000;stroke-width:2"
     id="rect1-56-8-3-8-6-5-2-9-4-4-7-6"
     width="1"
     height="4"
     x="5"
     y="10" /><rect
     style="fill:#000000;stroke-width:2.44948"
     id="rect1-56-8-3-8-6-5-2-9-4-4-7-6-0"
     width="3"
     height="2"
     x="4"
     y="10" /></svg>
