M48
; DRILL file KiCad 10.0.1 date 2026-06-16T19:36:22
; FORMAT={-:-/ absolute / metric / decimal}
; #@! TF.CreationDate,2026-06-16T19:36:22+02:00
; #@! TF.GenerationSoftware,Kicad,Pcbnew,10.0.1
; #@! TF.FileFunction,Plated,1,2,PTH
FMAT,2
METRIC
; #@! TA.AperFunction,Plated,PTH,ViaDrill
T1C0.300
; #@! TA.AperFunction,Plated,PTH,ViaDrill
T2C0.381
; #@! TA.AperFunction,Plated,PTH,ComponentDrill
T3C0.750
; #@! TA.AperFunction,Plated,PTH,ComponentDrill
T4C0.800
; #@! TA.AperFunction,Plated,PTH,ComponentDrill
T5C0.813
; #@! TA.AperFunction,Plated,PTH,ComponentDrill
T6C1.250
; #@! TA.AperFunction,Plated,PTH,ComponentDrill
T7C1.499
; #@! TA.AperFunction,Plated,PTH,ComponentDrill
T8C2.250
%
G90
G05
T1
X102.41Y-111.82
X104.64Y-98.53
X104.81Y-61.31
X109.34Y-86.55
X112.46Y-98.46
X116.18Y-98.46
X116.3Y-95.23
X119.1Y-94.14
X119.64Y-93.31
X121.34Y-96.07
X122.62Y-98.46
X131.08Y-109.06
X132.55Y-96.64
X134.83Y-94.74
X135.65Y-109.06
X138.33Y-94.02
X139.59Y-63.2
X141.01Y-96.33
X144.36Y-108.14
X149.24Y-97.3
X156.22Y-108.54
T2
X101.792Y-94.71
X101.792Y-97.31
X108.93Y-98.14
X109.37Y-96.85
X137.67Y-100.54
X142.31Y-101.34
X146.25Y-107.57
X153.5Y-108.17
T3
X99.045Y-106.385
X99.045Y-108.385
X99.045Y-110.385
X99.045Y-112.385
X105.185Y-106.395
X105.185Y-108.395
X105.185Y-110.395
X105.185Y-112.395
X111.575Y-106.505
X111.575Y-108.505
X111.575Y-110.505
X111.575Y-112.505
X117.855Y-106.505
X117.855Y-108.505
X117.855Y-110.505
X117.855Y-112.505
X123.86Y-106.53
X123.86Y-108.53
X123.86Y-110.53
X123.86Y-112.53
X142.29Y-104.66
X144.29Y-104.66
X156.1Y-93.27
X156.1Y-95.27
T4
X97.95Y-99.82
X100.49Y-97.28
X100.49Y-102.36
T5
X151.49Y-101.22
X153.49Y-101.22
X155.49Y-101.22
T6
X143.7Y-111.39
X146.37Y-111.39
X149.07Y-111.39
X151.75Y-111.39
X154.43Y-111.38
X157.07Y-111.37
T7
X149.39Y-101.22
X157.59Y-101.22
T8
X102.374Y-121.344
X102.374Y-129.21
X134.299Y-121.335
X134.299Y-129.21
M30
