%TF.GenerationSoftware,KiCad,Pcbnew,10.0.1*%
%TF.CreationDate,2026-06-30T18:05:34+02:00*%
%TF.ProjectId,sensegate_pcb,73656e73-6567-4617-9465-5f7063622e6b,rev?*%
%TF.SameCoordinates,Original*%
%TF.FileFunction,Soldermask,Bot*%
%TF.FilePolarity,Negative*%
%FSLAX46Y46*%
G04 Gerber Fmt 4.6, Leading zero omitted, Abs format (unit mm)*
G04 Created by KiCad (PCBNEW 10.0.1) date 2026-06-30 18:05:34*
%MOMM*%
%LPD*%
G01*
G04 APERTURE LIST*
G04 Aperture macros list*
%AMRoundRect*
0 Rectangle with rounded corners*
0 $1 Rounding radius*
0 $2 $3 $4 $5 $6 $7 $8 $9 X,Y pos of 4 corners*
0 Add a 4 corners polygon primitive as box body*
4,1,4,$2,$3,$4,$5,$6,$7,$8,$9,$2,$3,0*
0 Add four circle primitives for the rounded corners*
1,1,$1+$1,$2,$3*
1,1,$1+$1,$4,$5*
1,1,$1+$1,$6,$7*
1,1,$1+$1,$8,$9*
0 Add four rect primitives between the rounded corners*
20,1,$1+$1,$2,$3,$4,$5,0*
20,1,$1+$1,$4,$5,$6,$7,0*
20,1,$1+$1,$6,$7,$8,$9,0*
20,1,$1+$1,$8,$9,$2,$3,0*%
G04 Aperture macros list end*
%ADD10C,2.200000*%
%ADD11RoundRect,0.250000X0.350000X0.625000X-0.350000X0.625000X-0.350000X-0.625000X0.350000X-0.625000X0*%
%ADD12O,1.200000X1.750000*%
%ADD13C,1.320800*%
%ADD14C,2.006600*%
%ADD15C,4.000000*%
%ADD16R,1.700000X1.700000*%
%ADD17C,1.700000*%
%ADD18RoundRect,0.250000X0.625000X-0.350000X0.625000X0.350000X-0.625000X0.350000X-0.625000X-0.350000X0*%
%ADD19O,1.750000X1.200000*%
%ADD20R,5.150000X3.170000*%
%ADD21R,1.830000X2.200000*%
%ADD22C,1.440000*%
G04 APERTURE END LIST*
D10*
X139210000Y-113470000D03*
D11*
X154810000Y-93710000D03*
D12*
X152810000Y-93710000D03*
X142290000Y-104660000D03*
D11*
X144290000Y-104660000D03*
D13*
X156600000Y-101610000D03*
X156600000Y-103610000D03*
X156600000Y-105610001D03*
D14*
X156600000Y-99510001D03*
X156600000Y-107709999D03*
D15*
X101980000Y-78900000D03*
D16*
X113220000Y-53110000D03*
D17*
X115760000Y-53110000D03*
X118300000Y-53110000D03*
X120840000Y-53110000D03*
X123380000Y-53110000D03*
X125920000Y-53110000D03*
X128460000Y-53110000D03*
X131000000Y-53110000D03*
X133540000Y-53110000D03*
X136080000Y-53110000D03*
X138620000Y-53110000D03*
X141160000Y-53110000D03*
D18*
X123860000Y-112530000D03*
D19*
X123860000Y-110530000D03*
X123860000Y-108530000D03*
X123860000Y-106530000D03*
D10*
X114680000Y-136880000D03*
X140850000Y-145570000D03*
D18*
X99045000Y-112385000D03*
D19*
X99045000Y-110385000D03*
X99045000Y-108385000D03*
X99045000Y-106385000D03*
D18*
X105185000Y-112395000D03*
D19*
X105185000Y-110395000D03*
X105185000Y-108395000D03*
X105185000Y-106395000D03*
D16*
X138000000Y-49070000D03*
D17*
X135460000Y-49070000D03*
X132920000Y-49070000D03*
X130380000Y-49070000D03*
X127840000Y-49070000D03*
X125300000Y-49070000D03*
X122760000Y-49070000D03*
X120220000Y-49070000D03*
X117680000Y-49070000D03*
X115140000Y-49070000D03*
X112600000Y-49070000D03*
X110060000Y-49070000D03*
D20*
X102373647Y-121343682D03*
X102373647Y-129209580D03*
X134298647Y-121334580D03*
X134298647Y-129209580D03*
D18*
X117855000Y-112505000D03*
D19*
X117855000Y-110505000D03*
X117855000Y-108505000D03*
X117855000Y-106505000D03*
D10*
X114680000Y-145570000D03*
D18*
X111575000Y-112505000D03*
D19*
X111575000Y-110505000D03*
X111575000Y-108505000D03*
X111575000Y-106505000D03*
D21*
X157070000Y-111370000D03*
X154430000Y-111380000D03*
X151750000Y-111390000D03*
X149070000Y-111390000D03*
X146370000Y-111390000D03*
X143700000Y-111390000D03*
D10*
X140850000Y-136870000D03*
D22*
X100490000Y-102360000D03*
X97950000Y-99820000D03*
X100490000Y-97280000D03*
M02*
