%TF.GenerationSoftware,KiCad,Pcbnew,10.0.1*%
%TF.CreationDate,2026-06-16T19:36:22+02:00*%
%TF.ProjectId,sensegate_pcb,73656e73-6567-4617-9465-5f7063622e6b,rev?*%
%TF.SameCoordinates,Original*%
%TF.FileFunction,Drillmap*%
%TF.FilePolarity,Positive*%
%FSLAX45Y45*%
G04 Gerber Fmt 4.5, Leading zero omitted, Abs format (unit mm)*
G04 Created by KiCad (PCBNEW 10.0.1) date 2026-06-16 19:36:22*
%MOMM*%
%LPD*%
G01*
G04 APERTURE LIST*
%ADD10C,0.200000*%
%ADD11C,0.100000*%
%ADD12C,0.125000*%
%ADD13C,0.149860*%
%ADD14C,0.225000*%
G04 APERTURE END LIST*
D10*
X9532000Y-5153000D02*
X9727000Y-3966000D01*
X9532000Y-13642000D02*
X9532000Y-5153000D01*
X9727000Y-3966000D02*
X9811000Y-3899000D01*
X9728000Y-14834000D02*
X9532000Y-13642000D01*
X9807000Y-14897000D02*
X9728000Y-14834000D01*
X9811000Y-3899000D02*
X15711000Y-3899000D01*
D11*
X9854604Y-13876287D02*
X9858499Y-13836734D01*
X9854604Y-13876755D02*
X9854604Y-13876287D01*
X9854604Y-13916032D02*
X9854604Y-13876755D01*
X9855604Y-4877287D02*
X9859499Y-4837734D01*
X9855604Y-4877755D02*
X9855604Y-4877287D01*
X9855604Y-4917032D02*
X9855604Y-4877755D01*
X9858499Y-13836734D02*
X9866253Y-13797753D01*
X9858499Y-13955586D02*
X9854604Y-13916032D01*
X9859499Y-4837734D02*
X9867253Y-4798753D01*
X9859499Y-4956586D02*
X9855604Y-4917032D01*
X9864116Y-13876755D02*
X9864116Y-13915565D01*
X9864116Y-13915565D02*
X9867920Y-13954188D01*
X9865116Y-4877755D02*
X9865116Y-4916565D01*
X9865116Y-4916565D02*
X9868920Y-4955188D01*
X9866253Y-13797753D02*
X9877790Y-13759719D01*
X9866253Y-13994567D02*
X9858499Y-13955586D01*
X9867253Y-4798753D02*
X9878790Y-4760719D01*
X9867253Y-4995567D02*
X9859499Y-4956586D01*
X9867920Y-13838131D02*
X9864116Y-13876755D01*
X9867920Y-13954188D02*
X9875491Y-13992253D01*
X9868920Y-4839131D02*
X9865116Y-4877755D01*
X9868920Y-4955188D02*
X9876491Y-4993253D01*
X9875491Y-13800067D02*
X9867920Y-13838131D01*
X9875491Y-13992253D02*
X9886757Y-14029392D01*
X9876491Y-4801067D02*
X9868920Y-4839131D01*
X9876491Y-4993253D02*
X9887757Y-5030392D01*
X9877790Y-13759719D02*
X9893000Y-13723000D01*
X9877790Y-14032600D02*
X9866253Y-13994567D01*
X9878790Y-4760719D02*
X9894000Y-4724000D01*
X9878790Y-5033600D02*
X9867253Y-4995567D01*
X9886757Y-13762928D02*
X9875491Y-13800067D01*
X9886757Y-14029392D02*
X9901609Y-14065248D01*
X9887757Y-4763928D02*
X9876491Y-4801067D01*
X9887757Y-5030392D02*
X9902609Y-5066248D01*
X9893000Y-13723000D02*
X9911736Y-13687948D01*
X9893000Y-14069320D02*
X9877790Y-14032600D01*
X9894000Y-4724000D02*
X9912736Y-4688948D01*
X9894000Y-5070320D02*
X9878790Y-5033600D01*
X9901609Y-13727072D02*
X9886757Y-13762928D01*
X9901609Y-14065248D02*
X9919904Y-14099475D01*
X9902609Y-4728072D02*
X9887757Y-4763928D01*
X9902609Y-5066248D02*
X9920904Y-5100475D01*
X9911736Y-13687948D02*
X9933817Y-13654902D01*
X9911736Y-14104371D02*
X9893000Y-14069320D01*
X9912736Y-4688948D02*
X9934817Y-4655902D01*
X9912736Y-5105371D02*
X9894000Y-5070320D01*
X9919904Y-13692844D02*
X9901609Y-13727072D01*
X9919904Y-14099475D02*
X9941466Y-14131745D01*
X9920904Y-4693844D02*
X9902609Y-4728072D01*
X9920904Y-5100475D02*
X9942466Y-5132745D01*
X9933817Y-13654902D02*
X9959031Y-13624178D01*
X9933817Y-14137418D02*
X9911736Y-14104371D01*
X9934817Y-4655902D02*
X9960031Y-4625178D01*
X9934817Y-5138418D02*
X9912736Y-5105371D01*
X9941466Y-13660575D02*
X9919904Y-13692844D01*
X9941466Y-14131745D02*
X9966087Y-14161745D01*
X9942466Y-4661575D02*
X9920904Y-4693844D01*
X9942466Y-5132745D02*
X9967087Y-5162746D01*
X9959031Y-13624178D02*
X9987134Y-13596075D01*
X9959031Y-14168141D02*
X9933817Y-14137418D01*
X9960031Y-4625178D02*
X9988134Y-4597075D01*
X9960031Y-5169141D02*
X9934817Y-5138418D01*
X9966087Y-13630574D02*
X9941466Y-13660575D01*
X9966087Y-14161745D02*
X9993530Y-14189188D01*
X9967087Y-4631574D02*
X9942466Y-4661575D01*
X9967087Y-5162746D02*
X9994530Y-5190189D01*
X9987134Y-13596075D02*
X10017858Y-13570861D01*
X9987134Y-14196245D02*
X9959031Y-14168141D01*
X9988134Y-4597075D02*
X10018858Y-4571861D01*
X9988134Y-5197245D02*
X9960031Y-5169141D01*
X9993530Y-13603131D02*
X9966087Y-13630574D01*
X9993530Y-14189188D02*
X10023531Y-14213809D01*
X9994530Y-4604131D02*
X9967087Y-4631574D01*
X9994530Y-5190189D02*
X10024531Y-5214809D01*
X10017858Y-13570861D02*
X10050904Y-13548780D01*
X10017858Y-14221459D02*
X9987134Y-14196245D01*
X10018858Y-4571861D02*
X10051904Y-4549780D01*
X10018858Y-5222459D02*
X9988134Y-5197245D01*
X10023531Y-13578510D02*
X9993530Y-13603131D01*
X10023531Y-14213809D02*
X10055800Y-14235371D01*
X10024531Y-4579510D02*
X9994530Y-4604131D01*
X10024531Y-5214809D02*
X10056800Y-5236371D01*
X10050904Y-13548780D02*
X10085956Y-13530044D01*
X10050904Y-14243540D02*
X10017858Y-14221459D01*
X10051904Y-4549780D02*
X10086956Y-4531044D01*
X10051904Y-5244540D02*
X10018858Y-5222459D01*
X10055800Y-13556948D02*
X10023531Y-13578510D01*
X10055800Y-14235371D02*
X10090028Y-14253666D01*
X10056800Y-4557948D02*
X10024531Y-4579510D01*
X10056800Y-5236371D02*
X10091028Y-5254666D01*
X10085956Y-13530044D02*
X10122675Y-13514834D01*
X10085956Y-14262275D02*
X10050904Y-14243540D01*
X10086956Y-4531044D02*
X10123675Y-4515835D01*
X10086956Y-5263276D02*
X10051904Y-5244540D01*
X10090028Y-13538653D02*
X10055800Y-13556948D01*
X10090028Y-14253666D02*
X10125884Y-14268518D01*
X10091028Y-4539653D02*
X10056800Y-4557948D01*
X10091028Y-5254666D02*
X10126884Y-5269518D01*
X10122675Y-13514834D02*
X10160709Y-13503297D01*
X10122675Y-14277485D02*
X10085956Y-14262275D01*
X10123675Y-4515835D02*
X10161709Y-4504297D01*
X10123675Y-5278485D02*
X10086956Y-5263276D01*
X10125884Y-13523801D02*
X10090028Y-13538653D01*
X10125884Y-14268518D02*
X10163023Y-14279784D01*
X10126884Y-4524801D02*
X10091028Y-4539653D01*
X10126884Y-5269518D02*
X10164023Y-5280784D01*
X10160709Y-13503297D02*
X10199690Y-13495543D01*
X10160709Y-14289022D02*
X10122675Y-14277485D01*
X10161709Y-4504297D02*
X10200690Y-4496543D01*
X10161709Y-5290023D02*
X10123675Y-5278485D01*
X10163023Y-13512535D02*
X10125884Y-13523801D01*
X10163023Y-14279784D02*
X10201087Y-14287356D01*
X10164023Y-4513535D02*
X10126884Y-4524801D01*
X10164023Y-5280784D02*
X10202087Y-5288356D01*
X10199690Y-13495543D02*
X10239243Y-13491648D01*
X10199690Y-14296776D02*
X10160709Y-14289022D01*
X10200690Y-4496543D02*
X10240243Y-4492648D01*
X10200690Y-5297776D02*
X10161709Y-5290023D01*
X10201087Y-13504964D02*
X10163023Y-13512535D01*
X10201087Y-14287356D02*
X10239711Y-14291160D01*
X10202087Y-4505964D02*
X10164023Y-4513535D01*
X10202087Y-5288356D02*
X10240711Y-5292160D01*
X10239243Y-13491648D02*
X10278988Y-13491648D01*
X10239243Y-14300672D02*
X10199690Y-14296776D01*
X10239711Y-13501160D02*
X10201087Y-13504964D01*
X10239711Y-14291160D02*
X10278521Y-14291160D01*
X10240243Y-4492648D02*
X10279988Y-4492648D01*
X10240243Y-5301672D02*
X10200690Y-5297776D01*
X10240711Y-4502160D02*
X10202087Y-4505964D01*
X10240711Y-5292160D02*
X10279521Y-5292160D01*
X10278521Y-13501160D02*
X10239711Y-13501160D01*
X10278521Y-14291160D02*
X10317144Y-14287356D01*
X10278988Y-13491648D02*
X10318542Y-13495543D01*
X10278988Y-14300672D02*
X10239243Y-14300672D01*
X10279521Y-4502160D02*
X10240711Y-4502160D01*
X10279521Y-5292160D02*
X10318144Y-5288356D01*
X10279988Y-4492648D02*
X10319542Y-4496543D01*
X10279988Y-5301672D02*
X10240243Y-5301672D01*
X10317144Y-13504964D02*
X10278521Y-13501160D01*
X10317144Y-14287356D02*
X10355209Y-14279784D01*
X10318144Y-4505964D02*
X10279521Y-4502160D01*
X10318144Y-5288356D02*
X10356209Y-5280784D01*
X10318542Y-13495543D02*
X10357523Y-13503297D01*
X10318542Y-14296776D02*
X10278988Y-14300672D01*
X10319542Y-4496543D02*
X10358523Y-4504297D01*
X10319542Y-5297776D02*
X10279988Y-5301672D01*
X10355209Y-13512535D02*
X10317144Y-13504964D01*
X10355209Y-14279784D02*
X10392348Y-14268518D01*
X10356209Y-4513535D02*
X10318144Y-4505964D01*
X10356209Y-5280784D02*
X10393348Y-5269518D01*
X10357523Y-13503297D02*
X10395556Y-13514834D01*
X10357523Y-14289022D02*
X10318542Y-14296776D01*
X10358523Y-4504297D02*
X10396556Y-4515835D01*
X10358523Y-5290023D02*
X10319542Y-5297776D01*
X10392348Y-13523801D02*
X10355209Y-13512535D01*
X10392348Y-14268518D02*
X10428204Y-14253666D01*
X10393348Y-4524801D02*
X10356209Y-4513535D01*
X10393348Y-5269518D02*
X10429204Y-5254666D01*
X10395556Y-13514834D02*
X10432276Y-13530044D01*
X10395556Y-14277485D02*
X10357523Y-14289022D01*
X10396556Y-4515835D02*
X10433276Y-4531044D01*
X10396556Y-5278485D02*
X10358523Y-5290023D01*
X10428204Y-13538653D02*
X10392348Y-13523801D01*
X10428204Y-14253666D02*
X10462431Y-14235371D01*
X10429204Y-4539653D02*
X10393348Y-4524801D01*
X10429204Y-5254666D02*
X10463431Y-5236371D01*
X10432276Y-13530044D02*
X10467327Y-13548780D01*
X10432276Y-14262275D02*
X10395556Y-14277485D01*
X10433276Y-4531044D02*
X10468327Y-4549780D01*
X10433276Y-5263276D02*
X10396556Y-5278485D01*
X10462431Y-13556948D02*
X10428204Y-13538653D01*
X10462431Y-14235371D02*
X10494701Y-14213809D01*
X10463431Y-4557948D02*
X10429204Y-4539653D01*
X10463431Y-5236371D02*
X10495701Y-5214809D01*
X10467327Y-13548780D02*
X10500374Y-13570861D01*
X10467327Y-14243540D02*
X10432276Y-14262275D01*
X10468327Y-4549780D02*
X10501374Y-4571861D01*
X10468327Y-5244540D02*
X10433276Y-5263276D01*
X10494701Y-13578510D02*
X10462431Y-13556948D01*
X10494701Y-14213809D02*
X10524701Y-14189188D01*
X10495701Y-4579510D02*
X10463431Y-4557948D01*
X10495701Y-5214809D02*
X10525701Y-5190189D01*
X10500374Y-13570861D02*
X10531097Y-13596075D01*
X10500374Y-14221459D02*
X10467327Y-14243540D01*
X10501374Y-4571861D02*
X10532097Y-4597075D01*
X10501374Y-5222459D02*
X10468327Y-5244540D01*
X10524701Y-13603131D02*
X10494701Y-13578510D01*
X10524701Y-14189188D02*
X10552144Y-14161745D01*
X10525701Y-4604131D02*
X10495701Y-4579510D01*
X10525701Y-5190189D02*
X10553144Y-5162746D01*
X10531097Y-13596075D02*
X10559201Y-13624178D01*
X10531097Y-14196245D02*
X10500374Y-14221459D01*
X10532097Y-4597075D02*
X10560201Y-4625178D01*
X10532097Y-5197245D02*
X10501374Y-5222459D01*
X10552144Y-13630574D02*
X10524701Y-13603131D01*
X10552144Y-14161745D02*
X10576765Y-14131745D01*
X10553144Y-4631574D02*
X10525701Y-4604131D01*
X10553144Y-5162746D02*
X10577765Y-5132745D01*
X10559201Y-13624178D02*
X10584415Y-13654902D01*
X10559201Y-14168141D02*
X10531097Y-14196245D01*
X10560201Y-4625178D02*
X10585415Y-4655902D01*
X10560201Y-5169141D02*
X10532097Y-5197245D01*
X10576765Y-13660575D02*
X10552144Y-13630574D01*
X10576765Y-14131745D02*
X10598327Y-14099475D01*
X10577765Y-4661575D02*
X10553144Y-4631574D01*
X10577765Y-5132745D02*
X10599327Y-5100475D01*
X10584415Y-13654902D02*
X10606496Y-13687948D01*
X10584415Y-14137418D02*
X10559201Y-14168141D01*
X10585415Y-4655902D02*
X10607496Y-4688948D01*
X10585415Y-5138418D02*
X10560201Y-5169141D01*
X10598327Y-13692844D02*
X10576765Y-13660575D01*
X10598327Y-14099475D02*
X10616622Y-14065248D01*
X10599327Y-4693844D02*
X10577765Y-4661575D01*
X10599327Y-5100475D02*
X10617622Y-5066248D01*
X10606496Y-13687948D02*
X10625231Y-13723000D01*
X10606496Y-14104371D02*
X10584415Y-14137418D01*
X10607496Y-4688948D02*
X10626231Y-4724000D01*
X10607496Y-5105371D02*
X10585415Y-5138418D01*
X10616622Y-13727072D02*
X10598327Y-13692844D01*
X10616622Y-14065248D02*
X10631474Y-14029392D01*
X10617622Y-4728072D02*
X10599327Y-4693844D01*
X10617622Y-5066248D02*
X10632474Y-5030392D01*
X10625231Y-13723000D02*
X10640441Y-13759719D01*
X10625231Y-14069320D02*
X10606496Y-14104371D01*
X10626231Y-4724000D02*
X10641441Y-4760719D01*
X10626231Y-5070320D02*
X10607496Y-5105371D01*
X10631474Y-13762928D02*
X10616622Y-13727072D01*
X10631474Y-14029392D02*
X10642740Y-13992253D01*
X10632474Y-4763928D02*
X10617622Y-4728072D01*
X10632474Y-5030392D02*
X10643740Y-4993253D01*
X10640441Y-13759719D02*
X10651978Y-13797753D01*
X10640441Y-14032600D02*
X10625231Y-14069320D01*
X10641441Y-4760719D02*
X10652978Y-4798753D01*
X10641441Y-5033600D02*
X10626231Y-5070320D01*
X10642740Y-13800067D02*
X10631474Y-13762928D01*
X10642740Y-13992253D02*
X10650312Y-13954188D01*
X10643740Y-4801067D02*
X10632474Y-4763928D01*
X10643740Y-4993253D02*
X10651312Y-4955188D01*
X10650312Y-13838131D02*
X10642740Y-13800067D01*
X10650312Y-13954188D02*
X10654116Y-13915565D01*
X10651312Y-4839131D02*
X10643740Y-4801067D01*
X10651312Y-4955188D02*
X10655116Y-4916565D01*
X10651978Y-13797753D02*
X10659732Y-13836734D01*
X10651978Y-13994567D02*
X10640441Y-14032600D01*
X10652978Y-4798753D02*
X10660732Y-4837734D01*
X10652978Y-4995567D02*
X10641441Y-5033600D01*
X10654116Y-13876755D02*
X10650312Y-13838131D01*
X10654116Y-13915565D02*
X10654116Y-13876755D01*
X10655116Y-4877755D02*
X10651312Y-4839131D01*
X10655116Y-4916565D02*
X10655116Y-4877755D01*
X10659732Y-13836734D02*
X10663628Y-13876287D01*
X10659732Y-13955586D02*
X10651978Y-13994567D01*
X10660732Y-4837734D02*
X10664628Y-4877287D01*
X10660732Y-4956586D02*
X10652978Y-4995567D01*
X10663628Y-13876287D02*
X10663628Y-13916032D01*
X10663628Y-13916032D02*
X10659732Y-13955586D01*
X10664628Y-4877287D02*
X10664628Y-4917032D01*
X10664628Y-4917032D02*
X10660732Y-4956586D01*
D10*
X12187000Y-14897000D02*
X9807000Y-14897000D01*
X14737000Y-14898000D02*
X12187000Y-14897000D01*
D11*
X14854603Y-4878287D02*
X14858499Y-4838734D01*
X14854603Y-4878755D02*
X14854603Y-4878287D01*
X14854603Y-4918032D02*
X14854603Y-4878755D01*
X14858499Y-4838734D02*
X14866253Y-4799753D01*
X14858499Y-4957586D02*
X14854603Y-4918032D01*
X14858603Y-13876287D02*
X14862499Y-13836734D01*
X14858603Y-13876755D02*
X14858603Y-13876287D01*
X14858603Y-13916032D02*
X14858603Y-13876755D01*
X14862499Y-13836734D02*
X14870253Y-13797753D01*
X14862499Y-13955586D02*
X14858603Y-13916032D01*
X14864116Y-4878755D02*
X14864116Y-4917565D01*
X14864116Y-4917565D02*
X14867920Y-4956188D01*
X14866253Y-4799753D02*
X14877790Y-4761719D01*
X14866253Y-4996567D02*
X14858499Y-4957586D01*
X14867920Y-4840131D02*
X14864116Y-4878755D01*
X14867920Y-4956188D02*
X14875491Y-4994253D01*
X14868116Y-13876755D02*
X14868116Y-13915565D01*
X14868116Y-13915565D02*
X14871920Y-13954188D01*
X14870253Y-13797753D02*
X14881790Y-13759719D01*
X14870253Y-13994567D02*
X14862499Y-13955586D01*
X14871920Y-13838131D02*
X14868116Y-13876755D01*
X14871920Y-13954188D02*
X14879491Y-13992253D01*
X14875491Y-4802067D02*
X14867920Y-4840131D01*
X14875491Y-4994253D02*
X14886757Y-5031392D01*
X14877790Y-4761719D02*
X14893000Y-4725000D01*
X14877790Y-5034600D02*
X14866253Y-4996567D01*
X14879491Y-13800067D02*
X14871920Y-13838131D01*
X14879491Y-13992253D02*
X14890757Y-14029392D01*
X14881790Y-13759719D02*
X14897000Y-13723000D01*
X14881790Y-14032600D02*
X14870253Y-13994567D01*
X14886757Y-4764928D02*
X14875491Y-4802067D01*
X14886757Y-5031392D02*
X14901609Y-5067248D01*
X14890757Y-13762928D02*
X14879491Y-13800067D01*
X14890757Y-14029392D02*
X14905609Y-14065248D01*
X14893000Y-4725000D02*
X14911736Y-4689948D01*
X14893000Y-5071320D02*
X14877790Y-5034600D01*
X14897000Y-13723000D02*
X14915736Y-13687948D01*
X14897000Y-14069320D02*
X14881790Y-14032600D01*
X14901609Y-4729072D02*
X14886757Y-4764928D01*
X14901609Y-5067248D02*
X14919904Y-5101475D01*
X14905609Y-13727072D02*
X14890757Y-13762928D01*
X14905609Y-14065248D02*
X14923904Y-14099475D01*
X14911736Y-4689948D02*
X14933817Y-4656902D01*
X14911736Y-5106371D02*
X14893000Y-5071320D01*
X14915736Y-13687948D02*
X14937817Y-13654902D01*
X14915736Y-14104371D02*
X14897000Y-14069320D01*
X14919904Y-4694844D02*
X14901609Y-4729072D01*
X14919904Y-5101475D02*
X14941466Y-5133745D01*
X14923904Y-13692844D02*
X14905609Y-13727072D01*
X14923904Y-14099475D02*
X14945466Y-14131745D01*
X14933817Y-4656902D02*
X14959030Y-4626178D01*
X14933817Y-5139418D02*
X14911736Y-5106371D01*
X14937817Y-13654902D02*
X14963030Y-13624178D01*
X14937817Y-14137418D02*
X14915736Y-14104371D01*
X14941466Y-4662575D02*
X14919904Y-4694844D01*
X14941466Y-5133745D02*
X14966087Y-5163746D01*
X14945466Y-13660575D02*
X14923904Y-13692844D01*
X14945466Y-14131745D02*
X14970087Y-14161745D01*
X14959030Y-4626178D02*
X14987134Y-4598075D01*
X14959030Y-5170141D02*
X14933817Y-5139418D01*
X14963030Y-13624178D02*
X14991134Y-13596075D01*
X14963030Y-14168141D02*
X14937817Y-14137418D01*
X14966087Y-4632574D02*
X14941466Y-4662575D01*
X14966087Y-5163746D02*
X14993530Y-5191189D01*
X14970087Y-13630574D02*
X14945466Y-13660575D01*
X14970087Y-14161745D02*
X14997530Y-14189188D01*
X14987134Y-4598075D02*
X15017857Y-4572861D01*
X14987134Y-5198245D02*
X14959030Y-5170141D01*
X14991134Y-13596075D02*
X15021857Y-13570861D01*
X14991134Y-14196245D02*
X14963030Y-14168141D01*
X14993530Y-4605131D02*
X14966087Y-4632574D01*
X14993530Y-5191189D02*
X15023531Y-5215809D01*
X14997530Y-13603131D02*
X14970087Y-13630574D01*
X14997530Y-14189188D02*
X15027531Y-14213809D01*
X15017857Y-4572861D02*
X15050904Y-4550780D01*
X15017857Y-5223459D02*
X14987134Y-5198245D01*
X15021857Y-13570861D02*
X15054904Y-13548780D01*
X15021857Y-14221459D02*
X14991134Y-14196245D01*
X15023531Y-4580510D02*
X14993530Y-4605131D01*
X15023531Y-5215809D02*
X15055800Y-5237371D01*
X15027531Y-13578510D02*
X14997530Y-13603131D01*
X15027531Y-14213809D02*
X15059800Y-14235371D01*
X15050904Y-4550780D02*
X15085956Y-4532044D01*
X15050904Y-5245540D02*
X15017857Y-5223459D01*
X15054904Y-13548780D02*
X15089956Y-13530044D01*
X15054904Y-14243540D02*
X15021857Y-14221459D01*
X15055800Y-4558948D02*
X15023531Y-4580510D01*
X15055800Y-5237371D02*
X15090028Y-5255666D01*
X15059800Y-13556948D02*
X15027531Y-13578510D01*
X15059800Y-14235371D02*
X15094028Y-14253666D01*
X15085956Y-4532044D02*
X15122675Y-4516835D01*
X15085956Y-5264276D02*
X15050904Y-5245540D01*
X15089956Y-13530044D02*
X15126675Y-13514834D01*
X15089956Y-14262275D02*
X15054904Y-14243540D01*
X15090028Y-4540653D02*
X15055800Y-4558948D01*
X15090028Y-5255666D02*
X15125884Y-5270518D01*
X15094028Y-13538653D02*
X15059800Y-13556948D01*
X15094028Y-14253666D02*
X15129884Y-14268518D01*
X15122675Y-4516835D02*
X15160709Y-4505297D01*
X15122675Y-5279485D02*
X15085956Y-5264276D01*
X15125884Y-4525801D02*
X15090028Y-4540653D01*
X15125884Y-5270518D02*
X15163023Y-5281784D01*
X15126675Y-13514834D02*
X15164709Y-13503297D01*
X15126675Y-14277485D02*
X15089956Y-14262275D01*
X15129884Y-13523801D02*
X15094028Y-13538653D01*
X15129884Y-14268518D02*
X15167023Y-14279784D01*
X15160709Y-4505297D02*
X15199690Y-4497543D01*
X15160709Y-5291023D02*
X15122675Y-5279485D01*
X15163023Y-4514535D02*
X15125884Y-4525801D01*
X15163023Y-5281784D02*
X15201087Y-5289356D01*
X15164709Y-13503297D02*
X15203690Y-13495543D01*
X15164709Y-14289022D02*
X15126675Y-14277485D01*
X15167023Y-13512535D02*
X15129884Y-13523801D01*
X15167023Y-14279784D02*
X15205087Y-14287356D01*
X15199690Y-4497543D02*
X15239243Y-4493648D01*
X15199690Y-5298776D02*
X15160709Y-5291023D01*
X15201087Y-4506964D02*
X15163023Y-4514535D01*
X15201087Y-5289356D02*
X15239711Y-5293160D01*
X15203690Y-13495543D02*
X15243243Y-13491648D01*
X15203690Y-14296776D02*
X15164709Y-14289022D01*
X15205087Y-13504964D02*
X15167023Y-13512535D01*
X15205087Y-14287356D02*
X15243711Y-14291160D01*
X15239243Y-4493648D02*
X15278988Y-4493648D01*
X15239243Y-5302672D02*
X15199690Y-5298776D01*
X15239711Y-4503160D02*
X15201087Y-4506964D01*
X15239711Y-5293160D02*
X15278521Y-5293160D01*
X15243243Y-13491648D02*
X15282988Y-13491648D01*
X15243243Y-14300672D02*
X15203690Y-14296776D01*
X15243711Y-13501160D02*
X15205087Y-13504964D01*
X15243711Y-14291160D02*
X15282521Y-14291160D01*
X15278521Y-4503160D02*
X15239711Y-4503160D01*
X15278521Y-5293160D02*
X15317144Y-5289356D01*
X15278988Y-4493648D02*
X15318541Y-4497543D01*
X15278988Y-5302672D02*
X15239243Y-5302672D01*
X15282521Y-13501160D02*
X15243711Y-13501160D01*
X15282521Y-14291160D02*
X15321144Y-14287356D01*
X15282988Y-13491648D02*
X15322541Y-13495543D01*
X15282988Y-14300672D02*
X15243243Y-14300672D01*
X15317144Y-4506964D02*
X15278521Y-4503160D01*
X15317144Y-5289356D02*
X15355209Y-5281784D01*
X15318541Y-4497543D02*
X15357523Y-4505297D01*
X15318541Y-5298776D02*
X15278988Y-5302672D01*
X15321144Y-13504964D02*
X15282521Y-13501160D01*
X15321144Y-14287356D02*
X15359209Y-14279784D01*
X15322541Y-13495543D02*
X15361523Y-13503297D01*
X15322541Y-14296776D02*
X15282988Y-14300672D01*
X15355209Y-4514535D02*
X15317144Y-4506964D01*
X15355209Y-5281784D02*
X15392348Y-5270518D01*
X15357523Y-4505297D02*
X15395556Y-4516835D01*
X15357523Y-5291023D02*
X15318541Y-5298776D01*
X15359209Y-13512535D02*
X15321144Y-13504964D01*
X15359209Y-14279784D02*
X15396348Y-14268518D01*
X15361523Y-13503297D02*
X15399556Y-13514834D01*
X15361523Y-14289022D02*
X15322541Y-14296776D01*
X15392348Y-4525801D02*
X15355209Y-4514535D01*
X15392348Y-5270518D02*
X15428204Y-5255666D01*
X15395556Y-4516835D02*
X15432275Y-4532044D01*
X15395556Y-5279485D02*
X15357523Y-5291023D01*
X15396348Y-13523801D02*
X15359209Y-13512535D01*
X15396348Y-14268518D02*
X15432204Y-14253666D01*
X15399556Y-13514834D02*
X15436275Y-13530044D01*
X15399556Y-14277485D02*
X15361523Y-14289022D01*
X15428204Y-4540653D02*
X15392348Y-4525801D01*
X15428204Y-5255666D02*
X15462431Y-5237371D01*
X15432204Y-13538653D02*
X15396348Y-13523801D01*
X15432204Y-14253666D02*
X15466431Y-14235371D01*
X15432275Y-4532044D02*
X15467327Y-4550780D01*
X15432275Y-5264276D02*
X15395556Y-5279485D01*
X15436275Y-13530044D02*
X15471327Y-13548780D01*
X15436275Y-14262275D02*
X15399556Y-14277485D01*
X15462431Y-4558948D02*
X15428204Y-4540653D01*
X15462431Y-5237371D02*
X15494701Y-5215809D01*
X15466431Y-13556948D02*
X15432204Y-13538653D01*
X15466431Y-14235371D02*
X15498701Y-14213809D01*
X15467327Y-4550780D02*
X15500374Y-4572861D01*
X15467327Y-5245540D02*
X15432275Y-5264276D01*
X15471327Y-13548780D02*
X15504374Y-13570861D01*
X15471327Y-14243540D02*
X15436275Y-14262275D01*
X15494701Y-4580510D02*
X15462431Y-4558948D01*
X15494701Y-5215809D02*
X15524701Y-5191189D01*
X15498701Y-13578510D02*
X15466431Y-13556948D01*
X15498701Y-14213809D02*
X15528701Y-14189188D01*
X15500374Y-4572861D02*
X15531097Y-4598075D01*
X15500374Y-5223459D02*
X15467327Y-5245540D01*
X15504374Y-13570861D02*
X15535097Y-13596075D01*
X15504374Y-14221459D02*
X15471327Y-14243540D01*
X15524701Y-4605131D02*
X15494701Y-4580510D01*
X15524701Y-5191189D02*
X15552144Y-5163746D01*
X15528701Y-13603131D02*
X15498701Y-13578510D01*
X15528701Y-14189188D02*
X15556144Y-14161745D01*
X15531097Y-4598075D02*
X15559201Y-4626178D01*
X15531097Y-5198245D02*
X15500374Y-5223459D01*
X15535097Y-13596075D02*
X15563201Y-13624178D01*
X15535097Y-14196245D02*
X15504374Y-14221459D01*
X15552144Y-4632574D02*
X15524701Y-4605131D01*
X15552144Y-5163746D02*
X15576765Y-5133745D01*
X15556144Y-13630574D02*
X15528701Y-13603131D01*
X15556144Y-14161745D02*
X15580765Y-14131745D01*
X15559201Y-4626178D02*
X15584415Y-4656902D01*
X15559201Y-5170141D02*
X15531097Y-5198245D01*
X15563201Y-13624178D02*
X15588415Y-13654902D01*
X15563201Y-14168141D02*
X15535097Y-14196245D01*
X15576765Y-4662575D02*
X15552144Y-4632574D01*
X15576765Y-5133745D02*
X15598327Y-5101475D01*
X15580765Y-13660575D02*
X15556144Y-13630574D01*
X15580765Y-14131745D02*
X15602327Y-14099475D01*
X15584415Y-4656902D02*
X15606496Y-4689948D01*
X15584415Y-5139418D02*
X15559201Y-5170141D01*
X15588415Y-13654902D02*
X15610496Y-13687948D01*
X15588415Y-14137418D02*
X15563201Y-14168141D01*
X15598327Y-4694844D02*
X15576765Y-4662575D01*
X15598327Y-5101475D02*
X15616622Y-5067248D01*
X15602327Y-13692844D02*
X15580765Y-13660575D01*
X15602327Y-14099475D02*
X15620622Y-14065248D01*
X15606496Y-4689948D02*
X15625231Y-4725000D01*
X15606496Y-5106371D02*
X15584415Y-5139418D01*
X15610496Y-13687948D02*
X15629231Y-13723000D01*
X15610496Y-14104371D02*
X15588415Y-14137418D01*
X15616622Y-4729072D02*
X15598327Y-4694844D01*
X15616622Y-5067248D02*
X15631474Y-5031392D01*
X15620622Y-13727072D02*
X15602327Y-13692844D01*
X15620622Y-14065248D02*
X15635474Y-14029392D01*
X15625231Y-4725000D02*
X15640441Y-4761719D01*
X15625231Y-5071320D02*
X15606496Y-5106371D01*
X15629231Y-13723000D02*
X15644441Y-13759719D01*
X15629231Y-14069320D02*
X15610496Y-14104371D01*
X15631474Y-4764928D02*
X15616622Y-4729072D01*
X15631474Y-5031392D02*
X15642740Y-4994253D01*
X15635474Y-13762928D02*
X15620622Y-13727072D01*
X15635474Y-14029392D02*
X15646740Y-13992253D01*
X15640441Y-4761719D02*
X15651978Y-4799753D01*
X15640441Y-5034600D02*
X15625231Y-5071320D01*
X15642740Y-4802067D02*
X15631474Y-4764928D01*
X15642740Y-4994253D02*
X15650312Y-4956188D01*
X15644441Y-13759719D02*
X15655978Y-13797753D01*
X15644441Y-14032600D02*
X15629231Y-14069320D01*
X15646740Y-13800067D02*
X15635474Y-13762928D01*
X15646740Y-13992253D02*
X15654312Y-13954188D01*
X15650312Y-4840131D02*
X15642740Y-4802067D01*
X15650312Y-4956188D02*
X15654116Y-4917565D01*
X15651978Y-4799753D02*
X15659732Y-4838734D01*
X15651978Y-4996567D02*
X15640441Y-5034600D01*
X15654116Y-4878755D02*
X15650312Y-4840131D01*
X15654116Y-4917565D02*
X15654116Y-4878755D01*
X15654312Y-13838131D02*
X15646740Y-13800067D01*
X15654312Y-13954188D02*
X15658116Y-13915565D01*
X15655978Y-13797753D02*
X15663732Y-13836734D01*
X15655978Y-13994567D02*
X15644441Y-14032600D01*
X15658116Y-13876755D02*
X15654312Y-13838131D01*
X15658116Y-13915565D02*
X15658116Y-13876755D01*
X15659732Y-4838734D02*
X15663628Y-4878287D01*
X15659732Y-4957586D02*
X15651978Y-4996567D01*
X15663628Y-4878287D02*
X15663628Y-4918032D01*
X15663628Y-4918032D02*
X15659732Y-4957586D01*
X15663732Y-13836734D02*
X15667628Y-13876287D01*
X15663732Y-13955586D02*
X15655978Y-13994567D01*
X15667628Y-13876287D02*
X15667628Y-13916032D01*
X15667628Y-13916032D02*
X15663732Y-13955586D01*
D10*
X15710000Y-14898000D02*
X14737000Y-14898000D01*
X15711000Y-3899000D02*
X15796000Y-3976000D01*
X15795000Y-14823000D02*
X15710000Y-14898000D01*
X15796000Y-3976000D02*
X15987000Y-5153000D01*
X15987000Y-5153000D02*
X15987000Y-13654000D01*
X15987000Y-13654000D02*
X15795000Y-14823000D01*
D11*
X10226000Y-11167000D02*
X10256000Y-11197000D01*
X10256000Y-11167000D02*
X10226000Y-11197000D01*
X10449000Y-9838000D02*
X10479000Y-9868000D01*
X10479000Y-9838000D02*
X10449000Y-9868000D01*
X10466000Y-6116000D02*
X10496000Y-6146000D01*
X10496000Y-6116000D02*
X10466000Y-6146000D01*
X10919000Y-8640000D02*
X10949000Y-8670000D01*
X10949000Y-8640000D02*
X10919000Y-8670000D01*
X11231000Y-9831000D02*
X11261000Y-9861000D01*
X11261000Y-9831000D02*
X11231000Y-9861000D01*
X11603000Y-9831000D02*
X11633000Y-9861000D01*
X11633000Y-9831000D02*
X11603000Y-9861000D01*
X11615000Y-9508000D02*
X11645000Y-9538000D01*
X11645000Y-9508000D02*
X11615000Y-9538000D01*
X11895000Y-9399000D02*
X11925000Y-9429000D01*
X11925000Y-9399000D02*
X11895000Y-9429000D01*
X11949000Y-9316000D02*
X11979000Y-9346000D01*
X11979000Y-9316000D02*
X11949000Y-9346000D01*
X12119000Y-9592000D02*
X12149000Y-9622000D01*
X12149000Y-9592000D02*
X12119000Y-9622000D01*
X12247000Y-9831000D02*
X12277000Y-9861000D01*
X12277000Y-9831000D02*
X12247000Y-9861000D01*
X13093000Y-10891000D02*
X13123000Y-10921000D01*
X13123000Y-10891000D02*
X13093000Y-10921000D01*
X13240000Y-9649000D02*
X13270000Y-9679000D01*
X13270000Y-9649000D02*
X13240000Y-9679000D01*
X13468000Y-9459000D02*
X13498000Y-9489000D01*
X13498000Y-9459000D02*
X13468000Y-9489000D01*
X13550000Y-10891000D02*
X13580000Y-10921000D01*
X13580000Y-10891000D02*
X13550000Y-10921000D01*
X13818000Y-9387000D02*
X13848000Y-9417000D01*
X13848000Y-9387000D02*
X13818000Y-9417000D01*
X13944000Y-6305000D02*
X13974000Y-6335000D01*
X13974000Y-6305000D02*
X13944000Y-6335000D01*
X14086000Y-9618000D02*
X14116000Y-9648000D01*
X14116000Y-9618000D02*
X14086000Y-9648000D01*
X14421000Y-10799000D02*
X14451000Y-10829000D01*
X14451000Y-10799000D02*
X14421000Y-10829000D01*
X14909000Y-9715000D02*
X14939000Y-9745000D01*
X14939000Y-9715000D02*
X14909000Y-9745000D01*
X15607000Y-10839000D02*
X15637000Y-10869000D01*
X15637000Y-10839000D02*
X15607000Y-10869000D01*
X10198300Y-9471000D02*
G75*
G02*
X10160200Y-9471000I-19050J0D01*
G01*
X10160200Y-9471000D02*
G75*
G02*
X10198300Y-9471000I19050J0D01*
G01*
X10198300Y-9731000D02*
G75*
G02*
X10160200Y-9731000I-19050J0D01*
G01*
X10160200Y-9731000D02*
G75*
G02*
X10198300Y-9731000I19050J0D01*
G01*
X10912050Y-9814000D02*
G75*
G02*
X10873950Y-9814000I-19050J0D01*
G01*
X10873950Y-9814000D02*
G75*
G02*
X10912050Y-9814000I19050J0D01*
G01*
X10956050Y-9685000D02*
G75*
G02*
X10917950Y-9685000I-19050J0D01*
G01*
X10917950Y-9685000D02*
G75*
G02*
X10956050Y-9685000I19050J0D01*
G01*
X13786050Y-10054000D02*
G75*
G02*
X13747950Y-10054000I-19050J0D01*
G01*
X13747950Y-10054000D02*
G75*
G02*
X13786050Y-10054000I19050J0D01*
G01*
X14250050Y-10134000D02*
G75*
G02*
X14211950Y-10134000I-19050J0D01*
G01*
X14211950Y-10134000D02*
G75*
G02*
X14250050Y-10134000I19050J0D01*
G01*
X14644050Y-10757000D02*
G75*
G02*
X14605950Y-10757000I-19050J0D01*
G01*
X14605950Y-10757000D02*
G75*
G02*
X14644050Y-10757000I19050J0D01*
G01*
X15369050Y-10817000D02*
G75*
G02*
X15330950Y-10817000I-19050J0D01*
G01*
X15330950Y-10817000D02*
G75*
G02*
X15369050Y-10817000I19050J0D01*
G01*
X9904500Y-10601000D02*
X9904500Y-10676000D01*
X9867000Y-10638500D02*
X9942000Y-10638500D01*
X9904500Y-10801000D02*
X9904500Y-10876000D01*
X9867000Y-10838500D02*
X9942000Y-10838500D01*
X9904500Y-11001000D02*
X9904500Y-11076000D01*
X9867000Y-11038500D02*
X9942000Y-11038500D01*
X9904500Y-11201000D02*
X9904500Y-11276000D01*
X9867000Y-11238500D02*
X9942000Y-11238500D01*
X10518500Y-10602000D02*
X10518500Y-10677000D01*
X10481000Y-10639500D02*
X10556000Y-10639500D01*
X10518500Y-10802000D02*
X10518500Y-10877000D01*
X10481000Y-10839500D02*
X10556000Y-10839500D01*
X10518500Y-11002000D02*
X10518500Y-11077000D01*
X10481000Y-11039500D02*
X10556000Y-11039500D01*
X10518500Y-11202000D02*
X10518500Y-11277000D01*
X10481000Y-11239500D02*
X10556000Y-11239500D01*
X11157500Y-10613000D02*
X11157500Y-10688000D01*
X11120000Y-10650500D02*
X11195000Y-10650500D01*
X11157500Y-10813000D02*
X11157500Y-10888000D01*
X11120000Y-10850500D02*
X11195000Y-10850500D01*
X11157500Y-11013000D02*
X11157500Y-11088000D01*
X11120000Y-11050500D02*
X11195000Y-11050500D01*
X11157500Y-11213000D02*
X11157500Y-11288000D01*
X11120000Y-11250500D02*
X11195000Y-11250500D01*
X11785500Y-10613000D02*
X11785500Y-10688000D01*
X11748000Y-10650500D02*
X11823000Y-10650500D01*
X11785500Y-10813000D02*
X11785500Y-10888000D01*
X11748000Y-10850500D02*
X11823000Y-10850500D01*
X11785500Y-11013000D02*
X11785500Y-11088000D01*
X11748000Y-11050500D02*
X11823000Y-11050500D01*
X11785500Y-11213000D02*
X11785500Y-11288000D01*
X11748000Y-11250500D02*
X11823000Y-11250500D01*
X12386000Y-10615500D02*
X12386000Y-10690500D01*
X12348500Y-10653000D02*
X12423500Y-10653000D01*
X12386000Y-10815500D02*
X12386000Y-10890500D01*
X12348500Y-10853000D02*
X12423500Y-10853000D01*
X12386000Y-11015500D02*
X12386000Y-11090500D01*
X12348500Y-11053000D02*
X12423500Y-11053000D01*
X12386000Y-11215500D02*
X12386000Y-11290500D01*
X12348500Y-11253000D02*
X12423500Y-11253000D01*
X14229000Y-10428500D02*
X14229000Y-10503500D01*
X14191500Y-10466000D02*
X14266500Y-10466000D01*
X14429000Y-10428500D02*
X14429000Y-10503500D01*
X14391500Y-10466000D02*
X14466500Y-10466000D01*
X15610000Y-9289500D02*
X15610000Y-9364500D01*
X15572500Y-9327000D02*
X15647500Y-9327000D01*
X15610000Y-9489500D02*
X15610000Y-9564500D01*
X15572500Y-9527000D02*
X15647500Y-9527000D01*
X9823285Y-10010285D02*
X9823285Y-9953716D01*
X9766716Y-9953716D01*
X9766716Y-10010285D01*
X9823285Y-10010285D01*
X10077285Y-9756285D02*
X10077285Y-9699716D01*
X10020716Y-9699716D01*
X10020716Y-9756285D01*
X10077285Y-9756285D01*
X10077285Y-10264285D02*
X10077285Y-10207716D01*
X10020716Y-10207716D01*
X10020716Y-10264285D01*
X10077285Y-10264285D01*
X15149000Y-10162640D02*
X15189640Y-10122000D01*
X15149000Y-10081360D01*
X15108360Y-10122000D01*
X15149000Y-10162640D01*
X15349000Y-10162640D02*
X15389640Y-10122000D01*
X15349000Y-10081360D01*
X15308360Y-10122000D01*
X15349000Y-10162640D01*
X15549000Y-10162640D02*
X15589640Y-10122000D01*
X15549000Y-10081360D01*
X15508360Y-10122000D01*
X15549000Y-10162640D01*
D12*
X14307500Y-11076500D02*
X14432500Y-11201500D01*
X14432500Y-11076500D02*
X14307500Y-11201500D01*
X14432500Y-11139000D02*
G75*
G02*
X14307500Y-11139000I-62500J0D01*
G01*
X14307500Y-11139000D02*
G75*
G02*
X14432500Y-11139000I62500J0D01*
G01*
X14574500Y-11076500D02*
X14699500Y-11201500D01*
X14699500Y-11076500D02*
X14574500Y-11201500D01*
X14699500Y-11139000D02*
G75*
G02*
X14574500Y-11139000I-62500J0D01*
G01*
X14574500Y-11139000D02*
G75*
G02*
X14699500Y-11139000I62500J0D01*
G01*
X14844500Y-11076500D02*
X14969500Y-11201500D01*
X14969500Y-11076500D02*
X14844500Y-11201500D01*
X14969500Y-11139000D02*
G75*
G02*
X14844500Y-11139000I-62500J0D01*
G01*
X14844500Y-11139000D02*
G75*
G02*
X14969500Y-11139000I62500J0D01*
G01*
X15112500Y-11076500D02*
X15237500Y-11201500D01*
X15237500Y-11076500D02*
X15112500Y-11201500D01*
X15237500Y-11139000D02*
G75*
G02*
X15112500Y-11139000I-62500J0D01*
G01*
X15112500Y-11139000D02*
G75*
G02*
X15237500Y-11139000I62500J0D01*
G01*
X15380500Y-11075500D02*
X15505500Y-11200500D01*
X15505500Y-11075500D02*
X15380500Y-11200500D01*
X15505500Y-11138000D02*
G75*
G02*
X15380500Y-11138000I-62500J0D01*
G01*
X15380500Y-11138000D02*
G75*
G02*
X15505500Y-11138000I62500J0D01*
G01*
X15644500Y-11074500D02*
X15769500Y-11199500D01*
X15769500Y-11074500D02*
X15644500Y-11199500D01*
X15769500Y-11137000D02*
G75*
G02*
X15644500Y-11137000I-62500J0D01*
G01*
X15644500Y-11137000D02*
G75*
G02*
X15769500Y-11137000I62500J0D01*
G01*
D13*
X14864070Y-10047070D02*
X15013930Y-10196930D01*
X15013930Y-10047070D02*
X14864070Y-10196930D01*
X14939000Y-10047070D02*
X14939000Y-10196930D01*
X14864070Y-10122000D02*
X15013930Y-10122000D01*
X15684070Y-10047070D02*
X15833930Y-10196930D01*
X15833930Y-10047070D02*
X15684070Y-10196930D01*
X15759000Y-10047070D02*
X15759000Y-10196930D01*
X15684070Y-10122000D02*
X15833930Y-10122000D01*
D14*
X10124865Y-12021868D02*
X10349865Y-12246868D01*
X10349865Y-12021868D02*
X10124865Y-12246868D01*
X10316915Y-12213918D02*
X10316915Y-12054818D01*
X10157814Y-12054818D01*
X10157814Y-12213918D01*
X10316915Y-12213918D01*
X10124865Y-12808458D02*
X10349865Y-13033458D01*
X10349865Y-12808458D02*
X10124865Y-13033458D01*
X10316915Y-13000508D02*
X10316915Y-12841408D01*
X10157814Y-12841408D01*
X10157814Y-13000508D01*
X10316915Y-13000508D01*
X13317365Y-12020958D02*
X13542365Y-12245958D01*
X13542365Y-12020958D02*
X13317365Y-12245958D01*
X13509415Y-12213008D02*
X13509415Y-12053908D01*
X13350314Y-12053908D01*
X13350314Y-12213008D01*
X13509415Y-12213008D01*
X13317365Y-12808458D02*
X13542365Y-13033458D01*
X13542365Y-12808458D02*
X13317365Y-13033458D01*
X13509415Y-13000508D02*
X13509415Y-12841408D01*
X13350314Y-12841408D01*
X13350314Y-13000508D01*
X13509415Y-13000508D01*
D10*
X9782777Y-15219484D02*
X9782777Y-15019484D01*
X9782777Y-15019484D02*
X9830396Y-15019484D01*
X9830396Y-15019484D02*
X9858967Y-15029008D01*
X9858967Y-15029008D02*
X9878015Y-15048055D01*
X9878015Y-15048055D02*
X9887539Y-15067103D01*
X9887539Y-15067103D02*
X9897063Y-15105198D01*
X9897063Y-15105198D02*
X9897063Y-15133769D01*
X9897063Y-15133769D02*
X9887539Y-15171865D01*
X9887539Y-15171865D02*
X9878015Y-15190912D01*
X9878015Y-15190912D02*
X9858967Y-15209960D01*
X9858967Y-15209960D02*
X9830396Y-15219484D01*
X9830396Y-15219484D02*
X9782777Y-15219484D01*
X9982777Y-15219484D02*
X9982777Y-15086150D01*
X9982777Y-15124246D02*
X9992301Y-15105198D01*
X9992301Y-15105198D02*
X10001824Y-15095674D01*
X10001824Y-15095674D02*
X10020872Y-15086150D01*
X10020872Y-15086150D02*
X10039920Y-15086150D01*
X10106586Y-15219484D02*
X10106586Y-15086150D01*
X10106586Y-15019484D02*
X10097063Y-15029008D01*
X10097063Y-15029008D02*
X10106586Y-15038531D01*
X10106586Y-15038531D02*
X10116110Y-15029008D01*
X10116110Y-15029008D02*
X10106586Y-15019484D01*
X10106586Y-15019484D02*
X10106586Y-15038531D01*
X10230396Y-15219484D02*
X10211348Y-15209960D01*
X10211348Y-15209960D02*
X10201824Y-15190912D01*
X10201824Y-15190912D02*
X10201824Y-15019484D01*
X10335158Y-15219484D02*
X10316110Y-15209960D01*
X10316110Y-15209960D02*
X10306586Y-15190912D01*
X10306586Y-15190912D02*
X10306586Y-15019484D01*
X10563729Y-15219484D02*
X10563729Y-15019484D01*
X10563729Y-15019484D02*
X10630396Y-15162341D01*
X10630396Y-15162341D02*
X10697063Y-15019484D01*
X10697063Y-15019484D02*
X10697063Y-15219484D01*
X10878015Y-15219484D02*
X10878015Y-15114722D01*
X10878015Y-15114722D02*
X10868491Y-15095674D01*
X10868491Y-15095674D02*
X10849444Y-15086150D01*
X10849444Y-15086150D02*
X10811348Y-15086150D01*
X10811348Y-15086150D02*
X10792301Y-15095674D01*
X10878015Y-15209960D02*
X10858967Y-15219484D01*
X10858967Y-15219484D02*
X10811348Y-15219484D01*
X10811348Y-15219484D02*
X10792301Y-15209960D01*
X10792301Y-15209960D02*
X10782777Y-15190912D01*
X10782777Y-15190912D02*
X10782777Y-15171865D01*
X10782777Y-15171865D02*
X10792301Y-15152817D01*
X10792301Y-15152817D02*
X10811348Y-15143293D01*
X10811348Y-15143293D02*
X10858967Y-15143293D01*
X10858967Y-15143293D02*
X10878015Y-15133769D01*
X10973253Y-15086150D02*
X10973253Y-15286150D01*
X10973253Y-15095674D02*
X10992301Y-15086150D01*
X10992301Y-15086150D02*
X11030396Y-15086150D01*
X11030396Y-15086150D02*
X11049444Y-15095674D01*
X11049444Y-15095674D02*
X11058967Y-15105198D01*
X11058967Y-15105198D02*
X11068491Y-15124246D01*
X11068491Y-15124246D02*
X11068491Y-15181388D01*
X11068491Y-15181388D02*
X11058967Y-15200436D01*
X11058967Y-15200436D02*
X11049444Y-15209960D01*
X11049444Y-15209960D02*
X11030396Y-15219484D01*
X11030396Y-15219484D02*
X10992301Y-15219484D01*
X10992301Y-15219484D02*
X10973253Y-15209960D01*
X11154205Y-15200436D02*
X11163729Y-15209960D01*
X11163729Y-15209960D02*
X11154205Y-15219484D01*
X11154205Y-15219484D02*
X11144682Y-15209960D01*
X11144682Y-15209960D02*
X11154205Y-15200436D01*
X11154205Y-15200436D02*
X11154205Y-15219484D01*
X11154205Y-15095674D02*
X11163729Y-15105198D01*
X11163729Y-15105198D02*
X11154205Y-15114722D01*
X11154205Y-15114722D02*
X11144682Y-15105198D01*
X11144682Y-15105198D02*
X11154205Y-15095674D01*
X11154205Y-15095674D02*
X11154205Y-15114722D01*
D11*
X9492000Y-15533000D02*
X9522000Y-15563000D01*
X9522000Y-15533000D02*
X9492000Y-15563000D01*
D10*
X9820872Y-15439484D02*
X9839920Y-15439484D01*
X9839920Y-15439484D02*
X9858967Y-15449008D01*
X9858967Y-15449008D02*
X9868491Y-15458531D01*
X9868491Y-15458531D02*
X9878015Y-15477579D01*
X9878015Y-15477579D02*
X9887539Y-15515674D01*
X9887539Y-15515674D02*
X9887539Y-15563293D01*
X9887539Y-15563293D02*
X9878015Y-15601388D01*
X9878015Y-15601388D02*
X9868491Y-15620436D01*
X9868491Y-15620436D02*
X9858967Y-15629960D01*
X9858967Y-15629960D02*
X9839920Y-15639484D01*
X9839920Y-15639484D02*
X9820872Y-15639484D01*
X9820872Y-15639484D02*
X9801824Y-15629960D01*
X9801824Y-15629960D02*
X9792301Y-15620436D01*
X9792301Y-15620436D02*
X9782777Y-15601388D01*
X9782777Y-15601388D02*
X9773253Y-15563293D01*
X9773253Y-15563293D02*
X9773253Y-15515674D01*
X9773253Y-15515674D02*
X9782777Y-15477579D01*
X9782777Y-15477579D02*
X9792301Y-15458531D01*
X9792301Y-15458531D02*
X9801824Y-15449008D01*
X9801824Y-15449008D02*
X9820872Y-15439484D01*
X9973253Y-15620436D02*
X9982777Y-15629960D01*
X9982777Y-15629960D02*
X9973253Y-15639484D01*
X9973253Y-15639484D02*
X9963729Y-15629960D01*
X9963729Y-15629960D02*
X9973253Y-15620436D01*
X9973253Y-15620436D02*
X9973253Y-15639484D01*
X10049444Y-15439484D02*
X10173253Y-15439484D01*
X10173253Y-15439484D02*
X10106586Y-15515674D01*
X10106586Y-15515674D02*
X10135158Y-15515674D01*
X10135158Y-15515674D02*
X10154205Y-15525198D01*
X10154205Y-15525198D02*
X10163729Y-15534722D01*
X10163729Y-15534722D02*
X10173253Y-15553769D01*
X10173253Y-15553769D02*
X10173253Y-15601388D01*
X10173253Y-15601388D02*
X10163729Y-15620436D01*
X10163729Y-15620436D02*
X10154205Y-15629960D01*
X10154205Y-15629960D02*
X10135158Y-15639484D01*
X10135158Y-15639484D02*
X10078015Y-15639484D01*
X10078015Y-15639484D02*
X10058967Y-15629960D01*
X10058967Y-15629960D02*
X10049444Y-15620436D01*
X10297063Y-15439484D02*
X10316110Y-15439484D01*
X10316110Y-15439484D02*
X10335158Y-15449008D01*
X10335158Y-15449008D02*
X10344682Y-15458531D01*
X10344682Y-15458531D02*
X10354205Y-15477579D01*
X10354205Y-15477579D02*
X10363729Y-15515674D01*
X10363729Y-15515674D02*
X10363729Y-15563293D01*
X10363729Y-15563293D02*
X10354205Y-15601388D01*
X10354205Y-15601388D02*
X10344682Y-15620436D01*
X10344682Y-15620436D02*
X10335158Y-15629960D01*
X10335158Y-15629960D02*
X10316110Y-15639484D01*
X10316110Y-15639484D02*
X10297063Y-15639484D01*
X10297063Y-15639484D02*
X10278015Y-15629960D01*
X10278015Y-15629960D02*
X10268491Y-15620436D01*
X10268491Y-15620436D02*
X10258967Y-15601388D01*
X10258967Y-15601388D02*
X10249444Y-15563293D01*
X10249444Y-15563293D02*
X10249444Y-15515674D01*
X10249444Y-15515674D02*
X10258967Y-15477579D01*
X10258967Y-15477579D02*
X10268491Y-15458531D01*
X10268491Y-15458531D02*
X10278015Y-15449008D01*
X10278015Y-15449008D02*
X10297063Y-15439484D01*
X10487539Y-15439484D02*
X10506586Y-15439484D01*
X10506586Y-15439484D02*
X10525634Y-15449008D01*
X10525634Y-15449008D02*
X10535158Y-15458531D01*
X10535158Y-15458531D02*
X10544682Y-15477579D01*
X10544682Y-15477579D02*
X10554205Y-15515674D01*
X10554205Y-15515674D02*
X10554205Y-15563293D01*
X10554205Y-15563293D02*
X10544682Y-15601388D01*
X10544682Y-15601388D02*
X10535158Y-15620436D01*
X10535158Y-15620436D02*
X10525634Y-15629960D01*
X10525634Y-15629960D02*
X10506586Y-15639484D01*
X10506586Y-15639484D02*
X10487539Y-15639484D01*
X10487539Y-15639484D02*
X10468491Y-15629960D01*
X10468491Y-15629960D02*
X10458967Y-15620436D01*
X10458967Y-15620436D02*
X10449444Y-15601388D01*
X10449444Y-15601388D02*
X10439920Y-15563293D01*
X10439920Y-15563293D02*
X10439920Y-15515674D01*
X10439920Y-15515674D02*
X10449444Y-15477579D01*
X10449444Y-15477579D02*
X10458967Y-15458531D01*
X10458967Y-15458531D02*
X10468491Y-15449008D01*
X10468491Y-15449008D02*
X10487539Y-15439484D01*
X10639920Y-15639484D02*
X10639920Y-15506150D01*
X10639920Y-15525198D02*
X10649444Y-15515674D01*
X10649444Y-15515674D02*
X10668491Y-15506150D01*
X10668491Y-15506150D02*
X10697063Y-15506150D01*
X10697063Y-15506150D02*
X10716110Y-15515674D01*
X10716110Y-15515674D02*
X10725634Y-15534722D01*
X10725634Y-15534722D02*
X10725634Y-15639484D01*
X10725634Y-15534722D02*
X10735158Y-15515674D01*
X10735158Y-15515674D02*
X10754205Y-15506150D01*
X10754205Y-15506150D02*
X10782777Y-15506150D01*
X10782777Y-15506150D02*
X10801825Y-15515674D01*
X10801825Y-15515674D02*
X10811348Y-15534722D01*
X10811348Y-15534722D02*
X10811348Y-15639484D01*
X10906586Y-15639484D02*
X10906586Y-15506150D01*
X10906586Y-15525198D02*
X10916110Y-15515674D01*
X10916110Y-15515674D02*
X10935158Y-15506150D01*
X10935158Y-15506150D02*
X10963729Y-15506150D01*
X10963729Y-15506150D02*
X10982777Y-15515674D01*
X10982777Y-15515674D02*
X10992301Y-15534722D01*
X10992301Y-15534722D02*
X10992301Y-15639484D01*
X10992301Y-15534722D02*
X11001825Y-15515674D01*
X11001825Y-15515674D02*
X11020872Y-15506150D01*
X11020872Y-15506150D02*
X11049444Y-15506150D01*
X11049444Y-15506150D02*
X11068491Y-15515674D01*
X11068491Y-15515674D02*
X11078015Y-15534722D01*
X11078015Y-15534722D02*
X11078015Y-15639484D01*
X11468491Y-15429960D02*
X11297063Y-15687103D01*
X11725634Y-15439484D02*
X11744682Y-15439484D01*
X11744682Y-15439484D02*
X11763729Y-15449008D01*
X11763729Y-15449008D02*
X11773253Y-15458531D01*
X11773253Y-15458531D02*
X11782777Y-15477579D01*
X11782777Y-15477579D02*
X11792301Y-15515674D01*
X11792301Y-15515674D02*
X11792301Y-15563293D01*
X11792301Y-15563293D02*
X11782777Y-15601388D01*
X11782777Y-15601388D02*
X11773253Y-15620436D01*
X11773253Y-15620436D02*
X11763729Y-15629960D01*
X11763729Y-15629960D02*
X11744682Y-15639484D01*
X11744682Y-15639484D02*
X11725634Y-15639484D01*
X11725634Y-15639484D02*
X11706586Y-15629960D01*
X11706586Y-15629960D02*
X11697063Y-15620436D01*
X11697063Y-15620436D02*
X11687539Y-15601388D01*
X11687539Y-15601388D02*
X11678015Y-15563293D01*
X11678015Y-15563293D02*
X11678015Y-15515674D01*
X11678015Y-15515674D02*
X11687539Y-15477579D01*
X11687539Y-15477579D02*
X11697063Y-15458531D01*
X11697063Y-15458531D02*
X11706586Y-15449008D01*
X11706586Y-15449008D02*
X11725634Y-15439484D01*
X11878015Y-15620436D02*
X11887539Y-15629960D01*
X11887539Y-15629960D02*
X11878015Y-15639484D01*
X11878015Y-15639484D02*
X11868491Y-15629960D01*
X11868491Y-15629960D02*
X11878015Y-15620436D01*
X11878015Y-15620436D02*
X11878015Y-15639484D01*
X12011348Y-15439484D02*
X12030396Y-15439484D01*
X12030396Y-15439484D02*
X12049444Y-15449008D01*
X12049444Y-15449008D02*
X12058967Y-15458531D01*
X12058967Y-15458531D02*
X12068491Y-15477579D01*
X12068491Y-15477579D02*
X12078015Y-15515674D01*
X12078015Y-15515674D02*
X12078015Y-15563293D01*
X12078015Y-15563293D02*
X12068491Y-15601388D01*
X12068491Y-15601388D02*
X12058967Y-15620436D01*
X12058967Y-15620436D02*
X12049444Y-15629960D01*
X12049444Y-15629960D02*
X12030396Y-15639484D01*
X12030396Y-15639484D02*
X12011348Y-15639484D01*
X12011348Y-15639484D02*
X11992301Y-15629960D01*
X11992301Y-15629960D02*
X11982777Y-15620436D01*
X11982777Y-15620436D02*
X11973253Y-15601388D01*
X11973253Y-15601388D02*
X11963729Y-15563293D01*
X11963729Y-15563293D02*
X11963729Y-15515674D01*
X11963729Y-15515674D02*
X11973253Y-15477579D01*
X11973253Y-15477579D02*
X11982777Y-15458531D01*
X11982777Y-15458531D02*
X11992301Y-15449008D01*
X11992301Y-15449008D02*
X12011348Y-15439484D01*
X12268491Y-15639484D02*
X12154206Y-15639484D01*
X12211348Y-15639484D02*
X12211348Y-15439484D01*
X12211348Y-15439484D02*
X12192301Y-15468055D01*
X12192301Y-15468055D02*
X12173253Y-15487103D01*
X12173253Y-15487103D02*
X12154206Y-15496627D01*
X12458967Y-15639484D02*
X12344682Y-15639484D01*
X12401825Y-15639484D02*
X12401825Y-15439484D01*
X12401825Y-15439484D02*
X12382777Y-15468055D01*
X12382777Y-15468055D02*
X12363729Y-15487103D01*
X12363729Y-15487103D02*
X12344682Y-15496627D01*
X12573253Y-15525198D02*
X12554206Y-15515674D01*
X12554206Y-15515674D02*
X12544682Y-15506150D01*
X12544682Y-15506150D02*
X12535158Y-15487103D01*
X12535158Y-15487103D02*
X12535158Y-15477579D01*
X12535158Y-15477579D02*
X12544682Y-15458531D01*
X12544682Y-15458531D02*
X12554206Y-15449008D01*
X12554206Y-15449008D02*
X12573253Y-15439484D01*
X12573253Y-15439484D02*
X12611348Y-15439484D01*
X12611348Y-15439484D02*
X12630396Y-15449008D01*
X12630396Y-15449008D02*
X12639920Y-15458531D01*
X12639920Y-15458531D02*
X12649444Y-15477579D01*
X12649444Y-15477579D02*
X12649444Y-15487103D01*
X12649444Y-15487103D02*
X12639920Y-15506150D01*
X12639920Y-15506150D02*
X12630396Y-15515674D01*
X12630396Y-15515674D02*
X12611348Y-15525198D01*
X12611348Y-15525198D02*
X12573253Y-15525198D01*
X12573253Y-15525198D02*
X12554206Y-15534722D01*
X12554206Y-15534722D02*
X12544682Y-15544246D01*
X12544682Y-15544246D02*
X12535158Y-15563293D01*
X12535158Y-15563293D02*
X12535158Y-15601388D01*
X12535158Y-15601388D02*
X12544682Y-15620436D01*
X12544682Y-15620436D02*
X12554206Y-15629960D01*
X12554206Y-15629960D02*
X12573253Y-15639484D01*
X12573253Y-15639484D02*
X12611348Y-15639484D01*
X12611348Y-15639484D02*
X12630396Y-15629960D01*
X12630396Y-15629960D02*
X12639920Y-15620436D01*
X12639920Y-15620436D02*
X12649444Y-15601388D01*
X12649444Y-15601388D02*
X12649444Y-15563293D01*
X12649444Y-15563293D02*
X12639920Y-15544246D01*
X12639920Y-15544246D02*
X12630396Y-15534722D01*
X12630396Y-15534722D02*
X12611348Y-15525198D01*
X12725634Y-15439484D02*
X12725634Y-15477579D01*
X12801825Y-15439484D02*
X12801825Y-15477579D01*
X13097063Y-15715674D02*
X13087539Y-15706150D01*
X13087539Y-15706150D02*
X13068491Y-15677579D01*
X13068491Y-15677579D02*
X13058968Y-15658531D01*
X13058968Y-15658531D02*
X13049444Y-15629960D01*
X13049444Y-15629960D02*
X13039920Y-15582341D01*
X13039920Y-15582341D02*
X13039920Y-15544246D01*
X13039920Y-15544246D02*
X13049444Y-15496627D01*
X13049444Y-15496627D02*
X13058968Y-15468055D01*
X13058968Y-15468055D02*
X13068491Y-15449008D01*
X13068491Y-15449008D02*
X13087539Y-15420436D01*
X13087539Y-15420436D02*
X13097063Y-15410912D01*
X13163729Y-15458531D02*
X13173253Y-15449008D01*
X13173253Y-15449008D02*
X13192301Y-15439484D01*
X13192301Y-15439484D02*
X13239920Y-15439484D01*
X13239920Y-15439484D02*
X13258968Y-15449008D01*
X13258968Y-15449008D02*
X13268491Y-15458531D01*
X13268491Y-15458531D02*
X13278015Y-15477579D01*
X13278015Y-15477579D02*
X13278015Y-15496627D01*
X13278015Y-15496627D02*
X13268491Y-15525198D01*
X13268491Y-15525198D02*
X13154206Y-15639484D01*
X13154206Y-15639484D02*
X13278015Y-15639484D01*
X13468491Y-15639484D02*
X13354206Y-15639484D01*
X13411348Y-15639484D02*
X13411348Y-15439484D01*
X13411348Y-15439484D02*
X13392301Y-15468055D01*
X13392301Y-15468055D02*
X13373253Y-15487103D01*
X13373253Y-15487103D02*
X13354206Y-15496627D01*
X13706587Y-15639484D02*
X13706587Y-15439484D01*
X13792301Y-15639484D02*
X13792301Y-15534722D01*
X13792301Y-15534722D02*
X13782777Y-15515674D01*
X13782777Y-15515674D02*
X13763730Y-15506150D01*
X13763730Y-15506150D02*
X13735158Y-15506150D01*
X13735158Y-15506150D02*
X13716110Y-15515674D01*
X13716110Y-15515674D02*
X13706587Y-15525198D01*
X13916110Y-15639484D02*
X13897063Y-15629960D01*
X13897063Y-15629960D02*
X13887539Y-15620436D01*
X13887539Y-15620436D02*
X13878015Y-15601388D01*
X13878015Y-15601388D02*
X13878015Y-15544246D01*
X13878015Y-15544246D02*
X13887539Y-15525198D01*
X13887539Y-15525198D02*
X13897063Y-15515674D01*
X13897063Y-15515674D02*
X13916110Y-15506150D01*
X13916110Y-15506150D02*
X13944682Y-15506150D01*
X13944682Y-15506150D02*
X13963730Y-15515674D01*
X13963730Y-15515674D02*
X13973253Y-15525198D01*
X13973253Y-15525198D02*
X13982777Y-15544246D01*
X13982777Y-15544246D02*
X13982777Y-15601388D01*
X13982777Y-15601388D02*
X13973253Y-15620436D01*
X13973253Y-15620436D02*
X13963730Y-15629960D01*
X13963730Y-15629960D02*
X13944682Y-15639484D01*
X13944682Y-15639484D02*
X13916110Y-15639484D01*
X14097063Y-15639484D02*
X14078015Y-15629960D01*
X14078015Y-15629960D02*
X14068491Y-15610912D01*
X14068491Y-15610912D02*
X14068491Y-15439484D01*
X14249444Y-15629960D02*
X14230396Y-15639484D01*
X14230396Y-15639484D02*
X14192301Y-15639484D01*
X14192301Y-15639484D02*
X14173253Y-15629960D01*
X14173253Y-15629960D02*
X14163730Y-15610912D01*
X14163730Y-15610912D02*
X14163730Y-15534722D01*
X14163730Y-15534722D02*
X14173253Y-15515674D01*
X14173253Y-15515674D02*
X14192301Y-15506150D01*
X14192301Y-15506150D02*
X14230396Y-15506150D01*
X14230396Y-15506150D02*
X14249444Y-15515674D01*
X14249444Y-15515674D02*
X14258968Y-15534722D01*
X14258968Y-15534722D02*
X14258968Y-15553769D01*
X14258968Y-15553769D02*
X14163730Y-15572817D01*
X14335158Y-15629960D02*
X14354206Y-15639484D01*
X14354206Y-15639484D02*
X14392301Y-15639484D01*
X14392301Y-15639484D02*
X14411349Y-15629960D01*
X14411349Y-15629960D02*
X14420872Y-15610912D01*
X14420872Y-15610912D02*
X14420872Y-15601388D01*
X14420872Y-15601388D02*
X14411349Y-15582341D01*
X14411349Y-15582341D02*
X14392301Y-15572817D01*
X14392301Y-15572817D02*
X14363730Y-15572817D01*
X14363730Y-15572817D02*
X14344682Y-15563293D01*
X14344682Y-15563293D02*
X14335158Y-15544246D01*
X14335158Y-15544246D02*
X14335158Y-15534722D01*
X14335158Y-15534722D02*
X14344682Y-15515674D01*
X14344682Y-15515674D02*
X14363730Y-15506150D01*
X14363730Y-15506150D02*
X14392301Y-15506150D01*
X14392301Y-15506150D02*
X14411349Y-15515674D01*
X14487539Y-15715674D02*
X14497063Y-15706150D01*
X14497063Y-15706150D02*
X14516111Y-15677579D01*
X14516111Y-15677579D02*
X14525634Y-15658531D01*
X14525634Y-15658531D02*
X14535158Y-15629960D01*
X14535158Y-15629960D02*
X14544682Y-15582341D01*
X14544682Y-15582341D02*
X14544682Y-15544246D01*
X14544682Y-15544246D02*
X14535158Y-15496627D01*
X14535158Y-15496627D02*
X14525634Y-15468055D01*
X14525634Y-15468055D02*
X14516111Y-15449008D01*
X14516111Y-15449008D02*
X14497063Y-15420436D01*
X14497063Y-15420436D02*
X14487539Y-15410912D01*
D11*
X9522000Y-15812000D02*
G75*
G02*
X9483900Y-15812000I-19050J0D01*
G01*
X9483900Y-15812000D02*
G75*
G02*
X9522000Y-15812000I19050J0D01*
G01*
D10*
X9820872Y-15703484D02*
X9839920Y-15703484D01*
X9839920Y-15703484D02*
X9858967Y-15713008D01*
X9858967Y-15713008D02*
X9868491Y-15722531D01*
X9868491Y-15722531D02*
X9878015Y-15741579D01*
X9878015Y-15741579D02*
X9887539Y-15779674D01*
X9887539Y-15779674D02*
X9887539Y-15827293D01*
X9887539Y-15827293D02*
X9878015Y-15865388D01*
X9878015Y-15865388D02*
X9868491Y-15884436D01*
X9868491Y-15884436D02*
X9858967Y-15893960D01*
X9858967Y-15893960D02*
X9839920Y-15903484D01*
X9839920Y-15903484D02*
X9820872Y-15903484D01*
X9820872Y-15903484D02*
X9801824Y-15893960D01*
X9801824Y-15893960D02*
X9792301Y-15884436D01*
X9792301Y-15884436D02*
X9782777Y-15865388D01*
X9782777Y-15865388D02*
X9773253Y-15827293D01*
X9773253Y-15827293D02*
X9773253Y-15779674D01*
X9773253Y-15779674D02*
X9782777Y-15741579D01*
X9782777Y-15741579D02*
X9792301Y-15722531D01*
X9792301Y-15722531D02*
X9801824Y-15713008D01*
X9801824Y-15713008D02*
X9820872Y-15703484D01*
X9973253Y-15884436D02*
X9982777Y-15893960D01*
X9982777Y-15893960D02*
X9973253Y-15903484D01*
X9973253Y-15903484D02*
X9963729Y-15893960D01*
X9963729Y-15893960D02*
X9973253Y-15884436D01*
X9973253Y-15884436D02*
X9973253Y-15903484D01*
X10049444Y-15703484D02*
X10173253Y-15703484D01*
X10173253Y-15703484D02*
X10106586Y-15779674D01*
X10106586Y-15779674D02*
X10135158Y-15779674D01*
X10135158Y-15779674D02*
X10154205Y-15789198D01*
X10154205Y-15789198D02*
X10163729Y-15798722D01*
X10163729Y-15798722D02*
X10173253Y-15817769D01*
X10173253Y-15817769D02*
X10173253Y-15865388D01*
X10173253Y-15865388D02*
X10163729Y-15884436D01*
X10163729Y-15884436D02*
X10154205Y-15893960D01*
X10154205Y-15893960D02*
X10135158Y-15903484D01*
X10135158Y-15903484D02*
X10078015Y-15903484D01*
X10078015Y-15903484D02*
X10058967Y-15893960D01*
X10058967Y-15893960D02*
X10049444Y-15884436D01*
X10287539Y-15789198D02*
X10268491Y-15779674D01*
X10268491Y-15779674D02*
X10258967Y-15770150D01*
X10258967Y-15770150D02*
X10249444Y-15751103D01*
X10249444Y-15751103D02*
X10249444Y-15741579D01*
X10249444Y-15741579D02*
X10258967Y-15722531D01*
X10258967Y-15722531D02*
X10268491Y-15713008D01*
X10268491Y-15713008D02*
X10287539Y-15703484D01*
X10287539Y-15703484D02*
X10325634Y-15703484D01*
X10325634Y-15703484D02*
X10344682Y-15713008D01*
X10344682Y-15713008D02*
X10354205Y-15722531D01*
X10354205Y-15722531D02*
X10363729Y-15741579D01*
X10363729Y-15741579D02*
X10363729Y-15751103D01*
X10363729Y-15751103D02*
X10354205Y-15770150D01*
X10354205Y-15770150D02*
X10344682Y-15779674D01*
X10344682Y-15779674D02*
X10325634Y-15789198D01*
X10325634Y-15789198D02*
X10287539Y-15789198D01*
X10287539Y-15789198D02*
X10268491Y-15798722D01*
X10268491Y-15798722D02*
X10258967Y-15808246D01*
X10258967Y-15808246D02*
X10249444Y-15827293D01*
X10249444Y-15827293D02*
X10249444Y-15865388D01*
X10249444Y-15865388D02*
X10258967Y-15884436D01*
X10258967Y-15884436D02*
X10268491Y-15893960D01*
X10268491Y-15893960D02*
X10287539Y-15903484D01*
X10287539Y-15903484D02*
X10325634Y-15903484D01*
X10325634Y-15903484D02*
X10344682Y-15893960D01*
X10344682Y-15893960D02*
X10354205Y-15884436D01*
X10354205Y-15884436D02*
X10363729Y-15865388D01*
X10363729Y-15865388D02*
X10363729Y-15827293D01*
X10363729Y-15827293D02*
X10354205Y-15808246D01*
X10354205Y-15808246D02*
X10344682Y-15798722D01*
X10344682Y-15798722D02*
X10325634Y-15789198D01*
X10554205Y-15903484D02*
X10439920Y-15903484D01*
X10497063Y-15903484D02*
X10497063Y-15703484D01*
X10497063Y-15703484D02*
X10478015Y-15732055D01*
X10478015Y-15732055D02*
X10458967Y-15751103D01*
X10458967Y-15751103D02*
X10439920Y-15760627D01*
X10639920Y-15903484D02*
X10639920Y-15770150D01*
X10639920Y-15789198D02*
X10649444Y-15779674D01*
X10649444Y-15779674D02*
X10668491Y-15770150D01*
X10668491Y-15770150D02*
X10697063Y-15770150D01*
X10697063Y-15770150D02*
X10716110Y-15779674D01*
X10716110Y-15779674D02*
X10725634Y-15798722D01*
X10725634Y-15798722D02*
X10725634Y-15903484D01*
X10725634Y-15798722D02*
X10735158Y-15779674D01*
X10735158Y-15779674D02*
X10754205Y-15770150D01*
X10754205Y-15770150D02*
X10782777Y-15770150D01*
X10782777Y-15770150D02*
X10801825Y-15779674D01*
X10801825Y-15779674D02*
X10811348Y-15798722D01*
X10811348Y-15798722D02*
X10811348Y-15903484D01*
X10906586Y-15903484D02*
X10906586Y-15770150D01*
X10906586Y-15789198D02*
X10916110Y-15779674D01*
X10916110Y-15779674D02*
X10935158Y-15770150D01*
X10935158Y-15770150D02*
X10963729Y-15770150D01*
X10963729Y-15770150D02*
X10982777Y-15779674D01*
X10982777Y-15779674D02*
X10992301Y-15798722D01*
X10992301Y-15798722D02*
X10992301Y-15903484D01*
X10992301Y-15798722D02*
X11001825Y-15779674D01*
X11001825Y-15779674D02*
X11020872Y-15770150D01*
X11020872Y-15770150D02*
X11049444Y-15770150D01*
X11049444Y-15770150D02*
X11068491Y-15779674D01*
X11068491Y-15779674D02*
X11078015Y-15798722D01*
X11078015Y-15798722D02*
X11078015Y-15903484D01*
X11468491Y-15693960D02*
X11297063Y-15951103D01*
X11725634Y-15703484D02*
X11744682Y-15703484D01*
X11744682Y-15703484D02*
X11763729Y-15713008D01*
X11763729Y-15713008D02*
X11773253Y-15722531D01*
X11773253Y-15722531D02*
X11782777Y-15741579D01*
X11782777Y-15741579D02*
X11792301Y-15779674D01*
X11792301Y-15779674D02*
X11792301Y-15827293D01*
X11792301Y-15827293D02*
X11782777Y-15865388D01*
X11782777Y-15865388D02*
X11773253Y-15884436D01*
X11773253Y-15884436D02*
X11763729Y-15893960D01*
X11763729Y-15893960D02*
X11744682Y-15903484D01*
X11744682Y-15903484D02*
X11725634Y-15903484D01*
X11725634Y-15903484D02*
X11706586Y-15893960D01*
X11706586Y-15893960D02*
X11697063Y-15884436D01*
X11697063Y-15884436D02*
X11687539Y-15865388D01*
X11687539Y-15865388D02*
X11678015Y-15827293D01*
X11678015Y-15827293D02*
X11678015Y-15779674D01*
X11678015Y-15779674D02*
X11687539Y-15741579D01*
X11687539Y-15741579D02*
X11697063Y-15722531D01*
X11697063Y-15722531D02*
X11706586Y-15713008D01*
X11706586Y-15713008D02*
X11725634Y-15703484D01*
X11878015Y-15884436D02*
X11887539Y-15893960D01*
X11887539Y-15893960D02*
X11878015Y-15903484D01*
X11878015Y-15903484D02*
X11868491Y-15893960D01*
X11868491Y-15893960D02*
X11878015Y-15884436D01*
X11878015Y-15884436D02*
X11878015Y-15903484D01*
X12011348Y-15703484D02*
X12030396Y-15703484D01*
X12030396Y-15703484D02*
X12049444Y-15713008D01*
X12049444Y-15713008D02*
X12058967Y-15722531D01*
X12058967Y-15722531D02*
X12068491Y-15741579D01*
X12068491Y-15741579D02*
X12078015Y-15779674D01*
X12078015Y-15779674D02*
X12078015Y-15827293D01*
X12078015Y-15827293D02*
X12068491Y-15865388D01*
X12068491Y-15865388D02*
X12058967Y-15884436D01*
X12058967Y-15884436D02*
X12049444Y-15893960D01*
X12049444Y-15893960D02*
X12030396Y-15903484D01*
X12030396Y-15903484D02*
X12011348Y-15903484D01*
X12011348Y-15903484D02*
X11992301Y-15893960D01*
X11992301Y-15893960D02*
X11982777Y-15884436D01*
X11982777Y-15884436D02*
X11973253Y-15865388D01*
X11973253Y-15865388D02*
X11963729Y-15827293D01*
X11963729Y-15827293D02*
X11963729Y-15779674D01*
X11963729Y-15779674D02*
X11973253Y-15741579D01*
X11973253Y-15741579D02*
X11982777Y-15722531D01*
X11982777Y-15722531D02*
X11992301Y-15713008D01*
X11992301Y-15713008D02*
X12011348Y-15703484D01*
X12268491Y-15903484D02*
X12154206Y-15903484D01*
X12211348Y-15903484D02*
X12211348Y-15703484D01*
X12211348Y-15703484D02*
X12192301Y-15732055D01*
X12192301Y-15732055D02*
X12173253Y-15751103D01*
X12173253Y-15751103D02*
X12154206Y-15760627D01*
X12449444Y-15703484D02*
X12354206Y-15703484D01*
X12354206Y-15703484D02*
X12344682Y-15798722D01*
X12344682Y-15798722D02*
X12354206Y-15789198D01*
X12354206Y-15789198D02*
X12373253Y-15779674D01*
X12373253Y-15779674D02*
X12420872Y-15779674D01*
X12420872Y-15779674D02*
X12439920Y-15789198D01*
X12439920Y-15789198D02*
X12449444Y-15798722D01*
X12449444Y-15798722D02*
X12458967Y-15817769D01*
X12458967Y-15817769D02*
X12458967Y-15865388D01*
X12458967Y-15865388D02*
X12449444Y-15884436D01*
X12449444Y-15884436D02*
X12439920Y-15893960D01*
X12439920Y-15893960D02*
X12420872Y-15903484D01*
X12420872Y-15903484D02*
X12373253Y-15903484D01*
X12373253Y-15903484D02*
X12354206Y-15893960D01*
X12354206Y-15893960D02*
X12344682Y-15884436D01*
X12582777Y-15703484D02*
X12601825Y-15703484D01*
X12601825Y-15703484D02*
X12620872Y-15713008D01*
X12620872Y-15713008D02*
X12630396Y-15722531D01*
X12630396Y-15722531D02*
X12639920Y-15741579D01*
X12639920Y-15741579D02*
X12649444Y-15779674D01*
X12649444Y-15779674D02*
X12649444Y-15827293D01*
X12649444Y-15827293D02*
X12639920Y-15865388D01*
X12639920Y-15865388D02*
X12630396Y-15884436D01*
X12630396Y-15884436D02*
X12620872Y-15893960D01*
X12620872Y-15893960D02*
X12601825Y-15903484D01*
X12601825Y-15903484D02*
X12582777Y-15903484D01*
X12582777Y-15903484D02*
X12563729Y-15893960D01*
X12563729Y-15893960D02*
X12554206Y-15884436D01*
X12554206Y-15884436D02*
X12544682Y-15865388D01*
X12544682Y-15865388D02*
X12535158Y-15827293D01*
X12535158Y-15827293D02*
X12535158Y-15779674D01*
X12535158Y-15779674D02*
X12544682Y-15741579D01*
X12544682Y-15741579D02*
X12554206Y-15722531D01*
X12554206Y-15722531D02*
X12563729Y-15713008D01*
X12563729Y-15713008D02*
X12582777Y-15703484D01*
X12725634Y-15703484D02*
X12725634Y-15741579D01*
X12801825Y-15703484D02*
X12801825Y-15741579D01*
X13097063Y-15979674D02*
X13087539Y-15970150D01*
X13087539Y-15970150D02*
X13068491Y-15941579D01*
X13068491Y-15941579D02*
X13058968Y-15922531D01*
X13058968Y-15922531D02*
X13049444Y-15893960D01*
X13049444Y-15893960D02*
X13039920Y-15846341D01*
X13039920Y-15846341D02*
X13039920Y-15808246D01*
X13039920Y-15808246D02*
X13049444Y-15760627D01*
X13049444Y-15760627D02*
X13058968Y-15732055D01*
X13058968Y-15732055D02*
X13068491Y-15713008D01*
X13068491Y-15713008D02*
X13087539Y-15684436D01*
X13087539Y-15684436D02*
X13097063Y-15674912D01*
X13201825Y-15789198D02*
X13182777Y-15779674D01*
X13182777Y-15779674D02*
X13173253Y-15770150D01*
X13173253Y-15770150D02*
X13163729Y-15751103D01*
X13163729Y-15751103D02*
X13163729Y-15741579D01*
X13163729Y-15741579D02*
X13173253Y-15722531D01*
X13173253Y-15722531D02*
X13182777Y-15713008D01*
X13182777Y-15713008D02*
X13201825Y-15703484D01*
X13201825Y-15703484D02*
X13239920Y-15703484D01*
X13239920Y-15703484D02*
X13258968Y-15713008D01*
X13258968Y-15713008D02*
X13268491Y-15722531D01*
X13268491Y-15722531D02*
X13278015Y-15741579D01*
X13278015Y-15741579D02*
X13278015Y-15751103D01*
X13278015Y-15751103D02*
X13268491Y-15770150D01*
X13268491Y-15770150D02*
X13258968Y-15779674D01*
X13258968Y-15779674D02*
X13239920Y-15789198D01*
X13239920Y-15789198D02*
X13201825Y-15789198D01*
X13201825Y-15789198D02*
X13182777Y-15798722D01*
X13182777Y-15798722D02*
X13173253Y-15808246D01*
X13173253Y-15808246D02*
X13163729Y-15827293D01*
X13163729Y-15827293D02*
X13163729Y-15865388D01*
X13163729Y-15865388D02*
X13173253Y-15884436D01*
X13173253Y-15884436D02*
X13182777Y-15893960D01*
X13182777Y-15893960D02*
X13201825Y-15903484D01*
X13201825Y-15903484D02*
X13239920Y-15903484D01*
X13239920Y-15903484D02*
X13258968Y-15893960D01*
X13258968Y-15893960D02*
X13268491Y-15884436D01*
X13268491Y-15884436D02*
X13278015Y-15865388D01*
X13278015Y-15865388D02*
X13278015Y-15827293D01*
X13278015Y-15827293D02*
X13268491Y-15808246D01*
X13268491Y-15808246D02*
X13258968Y-15798722D01*
X13258968Y-15798722D02*
X13239920Y-15789198D01*
X13516110Y-15903484D02*
X13516110Y-15703484D01*
X13601825Y-15903484D02*
X13601825Y-15798722D01*
X13601825Y-15798722D02*
X13592301Y-15779674D01*
X13592301Y-15779674D02*
X13573253Y-15770150D01*
X13573253Y-15770150D02*
X13544682Y-15770150D01*
X13544682Y-15770150D02*
X13525634Y-15779674D01*
X13525634Y-15779674D02*
X13516110Y-15789198D01*
X13725634Y-15903484D02*
X13706587Y-15893960D01*
X13706587Y-15893960D02*
X13697063Y-15884436D01*
X13697063Y-15884436D02*
X13687539Y-15865388D01*
X13687539Y-15865388D02*
X13687539Y-15808246D01*
X13687539Y-15808246D02*
X13697063Y-15789198D01*
X13697063Y-15789198D02*
X13706587Y-15779674D01*
X13706587Y-15779674D02*
X13725634Y-15770150D01*
X13725634Y-15770150D02*
X13754206Y-15770150D01*
X13754206Y-15770150D02*
X13773253Y-15779674D01*
X13773253Y-15779674D02*
X13782777Y-15789198D01*
X13782777Y-15789198D02*
X13792301Y-15808246D01*
X13792301Y-15808246D02*
X13792301Y-15865388D01*
X13792301Y-15865388D02*
X13782777Y-15884436D01*
X13782777Y-15884436D02*
X13773253Y-15893960D01*
X13773253Y-15893960D02*
X13754206Y-15903484D01*
X13754206Y-15903484D02*
X13725634Y-15903484D01*
X13906587Y-15903484D02*
X13887539Y-15893960D01*
X13887539Y-15893960D02*
X13878015Y-15874912D01*
X13878015Y-15874912D02*
X13878015Y-15703484D01*
X14058968Y-15893960D02*
X14039920Y-15903484D01*
X14039920Y-15903484D02*
X14001825Y-15903484D01*
X14001825Y-15903484D02*
X13982777Y-15893960D01*
X13982777Y-15893960D02*
X13973253Y-15874912D01*
X13973253Y-15874912D02*
X13973253Y-15798722D01*
X13973253Y-15798722D02*
X13982777Y-15779674D01*
X13982777Y-15779674D02*
X14001825Y-15770150D01*
X14001825Y-15770150D02*
X14039920Y-15770150D01*
X14039920Y-15770150D02*
X14058968Y-15779674D01*
X14058968Y-15779674D02*
X14068491Y-15798722D01*
X14068491Y-15798722D02*
X14068491Y-15817769D01*
X14068491Y-15817769D02*
X13973253Y-15836817D01*
X14144682Y-15893960D02*
X14163730Y-15903484D01*
X14163730Y-15903484D02*
X14201825Y-15903484D01*
X14201825Y-15903484D02*
X14220872Y-15893960D01*
X14220872Y-15893960D02*
X14230396Y-15874912D01*
X14230396Y-15874912D02*
X14230396Y-15865388D01*
X14230396Y-15865388D02*
X14220872Y-15846341D01*
X14220872Y-15846341D02*
X14201825Y-15836817D01*
X14201825Y-15836817D02*
X14173253Y-15836817D01*
X14173253Y-15836817D02*
X14154206Y-15827293D01*
X14154206Y-15827293D02*
X14144682Y-15808246D01*
X14144682Y-15808246D02*
X14144682Y-15798722D01*
X14144682Y-15798722D02*
X14154206Y-15779674D01*
X14154206Y-15779674D02*
X14173253Y-15770150D01*
X14173253Y-15770150D02*
X14201825Y-15770150D01*
X14201825Y-15770150D02*
X14220872Y-15779674D01*
X14297063Y-15979674D02*
X14306587Y-15970150D01*
X14306587Y-15970150D02*
X14325634Y-15941579D01*
X14325634Y-15941579D02*
X14335158Y-15922531D01*
X14335158Y-15922531D02*
X14344682Y-15893960D01*
X14344682Y-15893960D02*
X14354206Y-15846341D01*
X14354206Y-15846341D02*
X14354206Y-15808246D01*
X14354206Y-15808246D02*
X14344682Y-15760627D01*
X14344682Y-15760627D02*
X14335158Y-15732055D01*
X14335158Y-15732055D02*
X14325634Y-15713008D01*
X14325634Y-15713008D02*
X14306587Y-15684436D01*
X14306587Y-15684436D02*
X14297063Y-15674912D01*
D11*
X9484500Y-16038500D02*
X9484500Y-16113500D01*
X9447000Y-16076000D02*
X9522000Y-16076000D01*
D10*
X9820872Y-15967484D02*
X9839920Y-15967484D01*
X9839920Y-15967484D02*
X9858967Y-15977008D01*
X9858967Y-15977008D02*
X9868491Y-15986531D01*
X9868491Y-15986531D02*
X9878015Y-16005579D01*
X9878015Y-16005579D02*
X9887539Y-16043674D01*
X9887539Y-16043674D02*
X9887539Y-16091293D01*
X9887539Y-16091293D02*
X9878015Y-16129388D01*
X9878015Y-16129388D02*
X9868491Y-16148436D01*
X9868491Y-16148436D02*
X9858967Y-16157960D01*
X9858967Y-16157960D02*
X9839920Y-16167484D01*
X9839920Y-16167484D02*
X9820872Y-16167484D01*
X9820872Y-16167484D02*
X9801824Y-16157960D01*
X9801824Y-16157960D02*
X9792301Y-16148436D01*
X9792301Y-16148436D02*
X9782777Y-16129388D01*
X9782777Y-16129388D02*
X9773253Y-16091293D01*
X9773253Y-16091293D02*
X9773253Y-16043674D01*
X9773253Y-16043674D02*
X9782777Y-16005579D01*
X9782777Y-16005579D02*
X9792301Y-15986531D01*
X9792301Y-15986531D02*
X9801824Y-15977008D01*
X9801824Y-15977008D02*
X9820872Y-15967484D01*
X9973253Y-16148436D02*
X9982777Y-16157960D01*
X9982777Y-16157960D02*
X9973253Y-16167484D01*
X9973253Y-16167484D02*
X9963729Y-16157960D01*
X9963729Y-16157960D02*
X9973253Y-16148436D01*
X9973253Y-16148436D02*
X9973253Y-16167484D01*
X10049444Y-15967484D02*
X10182777Y-15967484D01*
X10182777Y-15967484D02*
X10097063Y-16167484D01*
X10354205Y-15967484D02*
X10258967Y-15967484D01*
X10258967Y-15967484D02*
X10249444Y-16062722D01*
X10249444Y-16062722D02*
X10258967Y-16053198D01*
X10258967Y-16053198D02*
X10278015Y-16043674D01*
X10278015Y-16043674D02*
X10325634Y-16043674D01*
X10325634Y-16043674D02*
X10344682Y-16053198D01*
X10344682Y-16053198D02*
X10354205Y-16062722D01*
X10354205Y-16062722D02*
X10363729Y-16081769D01*
X10363729Y-16081769D02*
X10363729Y-16129388D01*
X10363729Y-16129388D02*
X10354205Y-16148436D01*
X10354205Y-16148436D02*
X10344682Y-16157960D01*
X10344682Y-16157960D02*
X10325634Y-16167484D01*
X10325634Y-16167484D02*
X10278015Y-16167484D01*
X10278015Y-16167484D02*
X10258967Y-16157960D01*
X10258967Y-16157960D02*
X10249444Y-16148436D01*
X10487539Y-15967484D02*
X10506586Y-15967484D01*
X10506586Y-15967484D02*
X10525634Y-15977008D01*
X10525634Y-15977008D02*
X10535158Y-15986531D01*
X10535158Y-15986531D02*
X10544682Y-16005579D01*
X10544682Y-16005579D02*
X10554205Y-16043674D01*
X10554205Y-16043674D02*
X10554205Y-16091293D01*
X10554205Y-16091293D02*
X10544682Y-16129388D01*
X10544682Y-16129388D02*
X10535158Y-16148436D01*
X10535158Y-16148436D02*
X10525634Y-16157960D01*
X10525634Y-16157960D02*
X10506586Y-16167484D01*
X10506586Y-16167484D02*
X10487539Y-16167484D01*
X10487539Y-16167484D02*
X10468491Y-16157960D01*
X10468491Y-16157960D02*
X10458967Y-16148436D01*
X10458967Y-16148436D02*
X10449444Y-16129388D01*
X10449444Y-16129388D02*
X10439920Y-16091293D01*
X10439920Y-16091293D02*
X10439920Y-16043674D01*
X10439920Y-16043674D02*
X10449444Y-16005579D01*
X10449444Y-16005579D02*
X10458967Y-15986531D01*
X10458967Y-15986531D02*
X10468491Y-15977008D01*
X10468491Y-15977008D02*
X10487539Y-15967484D01*
X10639920Y-16167484D02*
X10639920Y-16034150D01*
X10639920Y-16053198D02*
X10649444Y-16043674D01*
X10649444Y-16043674D02*
X10668491Y-16034150D01*
X10668491Y-16034150D02*
X10697063Y-16034150D01*
X10697063Y-16034150D02*
X10716110Y-16043674D01*
X10716110Y-16043674D02*
X10725634Y-16062722D01*
X10725634Y-16062722D02*
X10725634Y-16167484D01*
X10725634Y-16062722D02*
X10735158Y-16043674D01*
X10735158Y-16043674D02*
X10754205Y-16034150D01*
X10754205Y-16034150D02*
X10782777Y-16034150D01*
X10782777Y-16034150D02*
X10801825Y-16043674D01*
X10801825Y-16043674D02*
X10811348Y-16062722D01*
X10811348Y-16062722D02*
X10811348Y-16167484D01*
X10906586Y-16167484D02*
X10906586Y-16034150D01*
X10906586Y-16053198D02*
X10916110Y-16043674D01*
X10916110Y-16043674D02*
X10935158Y-16034150D01*
X10935158Y-16034150D02*
X10963729Y-16034150D01*
X10963729Y-16034150D02*
X10982777Y-16043674D01*
X10982777Y-16043674D02*
X10992301Y-16062722D01*
X10992301Y-16062722D02*
X10992301Y-16167484D01*
X10992301Y-16062722D02*
X11001825Y-16043674D01*
X11001825Y-16043674D02*
X11020872Y-16034150D01*
X11020872Y-16034150D02*
X11049444Y-16034150D01*
X11049444Y-16034150D02*
X11068491Y-16043674D01*
X11068491Y-16043674D02*
X11078015Y-16062722D01*
X11078015Y-16062722D02*
X11078015Y-16167484D01*
X11468491Y-15957960D02*
X11297063Y-16215103D01*
X11725634Y-15967484D02*
X11744682Y-15967484D01*
X11744682Y-15967484D02*
X11763729Y-15977008D01*
X11763729Y-15977008D02*
X11773253Y-15986531D01*
X11773253Y-15986531D02*
X11782777Y-16005579D01*
X11782777Y-16005579D02*
X11792301Y-16043674D01*
X11792301Y-16043674D02*
X11792301Y-16091293D01*
X11792301Y-16091293D02*
X11782777Y-16129388D01*
X11782777Y-16129388D02*
X11773253Y-16148436D01*
X11773253Y-16148436D02*
X11763729Y-16157960D01*
X11763729Y-16157960D02*
X11744682Y-16167484D01*
X11744682Y-16167484D02*
X11725634Y-16167484D01*
X11725634Y-16167484D02*
X11706586Y-16157960D01*
X11706586Y-16157960D02*
X11697063Y-16148436D01*
X11697063Y-16148436D02*
X11687539Y-16129388D01*
X11687539Y-16129388D02*
X11678015Y-16091293D01*
X11678015Y-16091293D02*
X11678015Y-16043674D01*
X11678015Y-16043674D02*
X11687539Y-16005579D01*
X11687539Y-16005579D02*
X11697063Y-15986531D01*
X11697063Y-15986531D02*
X11706586Y-15977008D01*
X11706586Y-15977008D02*
X11725634Y-15967484D01*
X11878015Y-16148436D02*
X11887539Y-16157960D01*
X11887539Y-16157960D02*
X11878015Y-16167484D01*
X11878015Y-16167484D02*
X11868491Y-16157960D01*
X11868491Y-16157960D02*
X11878015Y-16148436D01*
X11878015Y-16148436D02*
X11878015Y-16167484D01*
X12011348Y-15967484D02*
X12030396Y-15967484D01*
X12030396Y-15967484D02*
X12049444Y-15977008D01*
X12049444Y-15977008D02*
X12058967Y-15986531D01*
X12058967Y-15986531D02*
X12068491Y-16005579D01*
X12068491Y-16005579D02*
X12078015Y-16043674D01*
X12078015Y-16043674D02*
X12078015Y-16091293D01*
X12078015Y-16091293D02*
X12068491Y-16129388D01*
X12068491Y-16129388D02*
X12058967Y-16148436D01*
X12058967Y-16148436D02*
X12049444Y-16157960D01*
X12049444Y-16157960D02*
X12030396Y-16167484D01*
X12030396Y-16167484D02*
X12011348Y-16167484D01*
X12011348Y-16167484D02*
X11992301Y-16157960D01*
X11992301Y-16157960D02*
X11982777Y-16148436D01*
X11982777Y-16148436D02*
X11973253Y-16129388D01*
X11973253Y-16129388D02*
X11963729Y-16091293D01*
X11963729Y-16091293D02*
X11963729Y-16043674D01*
X11963729Y-16043674D02*
X11973253Y-16005579D01*
X11973253Y-16005579D02*
X11982777Y-15986531D01*
X11982777Y-15986531D02*
X11992301Y-15977008D01*
X11992301Y-15977008D02*
X12011348Y-15967484D01*
X12154206Y-15986531D02*
X12163729Y-15977008D01*
X12163729Y-15977008D02*
X12182777Y-15967484D01*
X12182777Y-15967484D02*
X12230396Y-15967484D01*
X12230396Y-15967484D02*
X12249444Y-15977008D01*
X12249444Y-15977008D02*
X12258967Y-15986531D01*
X12258967Y-15986531D02*
X12268491Y-16005579D01*
X12268491Y-16005579D02*
X12268491Y-16024627D01*
X12268491Y-16024627D02*
X12258967Y-16053198D01*
X12258967Y-16053198D02*
X12144682Y-16167484D01*
X12144682Y-16167484D02*
X12268491Y-16167484D01*
X12363729Y-16167484D02*
X12401825Y-16167484D01*
X12401825Y-16167484D02*
X12420872Y-16157960D01*
X12420872Y-16157960D02*
X12430396Y-16148436D01*
X12430396Y-16148436D02*
X12449444Y-16119865D01*
X12449444Y-16119865D02*
X12458967Y-16081769D01*
X12458967Y-16081769D02*
X12458967Y-16005579D01*
X12458967Y-16005579D02*
X12449444Y-15986531D01*
X12449444Y-15986531D02*
X12439920Y-15977008D01*
X12439920Y-15977008D02*
X12420872Y-15967484D01*
X12420872Y-15967484D02*
X12382777Y-15967484D01*
X12382777Y-15967484D02*
X12363729Y-15977008D01*
X12363729Y-15977008D02*
X12354206Y-15986531D01*
X12354206Y-15986531D02*
X12344682Y-16005579D01*
X12344682Y-16005579D02*
X12344682Y-16053198D01*
X12344682Y-16053198D02*
X12354206Y-16072246D01*
X12354206Y-16072246D02*
X12363729Y-16081769D01*
X12363729Y-16081769D02*
X12382777Y-16091293D01*
X12382777Y-16091293D02*
X12420872Y-16091293D01*
X12420872Y-16091293D02*
X12439920Y-16081769D01*
X12439920Y-16081769D02*
X12449444Y-16072246D01*
X12449444Y-16072246D02*
X12458967Y-16053198D01*
X12639920Y-15967484D02*
X12544682Y-15967484D01*
X12544682Y-15967484D02*
X12535158Y-16062722D01*
X12535158Y-16062722D02*
X12544682Y-16053198D01*
X12544682Y-16053198D02*
X12563729Y-16043674D01*
X12563729Y-16043674D02*
X12611348Y-16043674D01*
X12611348Y-16043674D02*
X12630396Y-16053198D01*
X12630396Y-16053198D02*
X12639920Y-16062722D01*
X12639920Y-16062722D02*
X12649444Y-16081769D01*
X12649444Y-16081769D02*
X12649444Y-16129388D01*
X12649444Y-16129388D02*
X12639920Y-16148436D01*
X12639920Y-16148436D02*
X12630396Y-16157960D01*
X12630396Y-16157960D02*
X12611348Y-16167484D01*
X12611348Y-16167484D02*
X12563729Y-16167484D01*
X12563729Y-16167484D02*
X12544682Y-16157960D01*
X12544682Y-16157960D02*
X12535158Y-16148436D01*
X12725634Y-15967484D02*
X12725634Y-16005579D01*
X12801825Y-15967484D02*
X12801825Y-16005579D01*
X13097063Y-16243674D02*
X13087539Y-16234150D01*
X13087539Y-16234150D02*
X13068491Y-16205579D01*
X13068491Y-16205579D02*
X13058968Y-16186531D01*
X13058968Y-16186531D02*
X13049444Y-16157960D01*
X13049444Y-16157960D02*
X13039920Y-16110341D01*
X13039920Y-16110341D02*
X13039920Y-16072246D01*
X13039920Y-16072246D02*
X13049444Y-16024627D01*
X13049444Y-16024627D02*
X13058968Y-15996055D01*
X13058968Y-15996055D02*
X13068491Y-15977008D01*
X13068491Y-15977008D02*
X13087539Y-15948436D01*
X13087539Y-15948436D02*
X13097063Y-15938912D01*
X13163729Y-15986531D02*
X13173253Y-15977008D01*
X13173253Y-15977008D02*
X13192301Y-15967484D01*
X13192301Y-15967484D02*
X13239920Y-15967484D01*
X13239920Y-15967484D02*
X13258968Y-15977008D01*
X13258968Y-15977008D02*
X13268491Y-15986531D01*
X13268491Y-15986531D02*
X13278015Y-16005579D01*
X13278015Y-16005579D02*
X13278015Y-16024627D01*
X13278015Y-16024627D02*
X13268491Y-16053198D01*
X13268491Y-16053198D02*
X13154206Y-16167484D01*
X13154206Y-16167484D02*
X13278015Y-16167484D01*
X13449444Y-16034150D02*
X13449444Y-16167484D01*
X13401825Y-15957960D02*
X13354206Y-16100817D01*
X13354206Y-16100817D02*
X13478015Y-16100817D01*
X13706587Y-16167484D02*
X13706587Y-15967484D01*
X13792301Y-16167484D02*
X13792301Y-16062722D01*
X13792301Y-16062722D02*
X13782777Y-16043674D01*
X13782777Y-16043674D02*
X13763730Y-16034150D01*
X13763730Y-16034150D02*
X13735158Y-16034150D01*
X13735158Y-16034150D02*
X13716110Y-16043674D01*
X13716110Y-16043674D02*
X13706587Y-16053198D01*
X13916110Y-16167484D02*
X13897063Y-16157960D01*
X13897063Y-16157960D02*
X13887539Y-16148436D01*
X13887539Y-16148436D02*
X13878015Y-16129388D01*
X13878015Y-16129388D02*
X13878015Y-16072246D01*
X13878015Y-16072246D02*
X13887539Y-16053198D01*
X13887539Y-16053198D02*
X13897063Y-16043674D01*
X13897063Y-16043674D02*
X13916110Y-16034150D01*
X13916110Y-16034150D02*
X13944682Y-16034150D01*
X13944682Y-16034150D02*
X13963730Y-16043674D01*
X13963730Y-16043674D02*
X13973253Y-16053198D01*
X13973253Y-16053198D02*
X13982777Y-16072246D01*
X13982777Y-16072246D02*
X13982777Y-16129388D01*
X13982777Y-16129388D02*
X13973253Y-16148436D01*
X13973253Y-16148436D02*
X13963730Y-16157960D01*
X13963730Y-16157960D02*
X13944682Y-16167484D01*
X13944682Y-16167484D02*
X13916110Y-16167484D01*
X14097063Y-16167484D02*
X14078015Y-16157960D01*
X14078015Y-16157960D02*
X14068491Y-16138912D01*
X14068491Y-16138912D02*
X14068491Y-15967484D01*
X14249444Y-16157960D02*
X14230396Y-16167484D01*
X14230396Y-16167484D02*
X14192301Y-16167484D01*
X14192301Y-16167484D02*
X14173253Y-16157960D01*
X14173253Y-16157960D02*
X14163730Y-16138912D01*
X14163730Y-16138912D02*
X14163730Y-16062722D01*
X14163730Y-16062722D02*
X14173253Y-16043674D01*
X14173253Y-16043674D02*
X14192301Y-16034150D01*
X14192301Y-16034150D02*
X14230396Y-16034150D01*
X14230396Y-16034150D02*
X14249444Y-16043674D01*
X14249444Y-16043674D02*
X14258968Y-16062722D01*
X14258968Y-16062722D02*
X14258968Y-16081769D01*
X14258968Y-16081769D02*
X14163730Y-16100817D01*
X14335158Y-16157960D02*
X14354206Y-16167484D01*
X14354206Y-16167484D02*
X14392301Y-16167484D01*
X14392301Y-16167484D02*
X14411349Y-16157960D01*
X14411349Y-16157960D02*
X14420872Y-16138912D01*
X14420872Y-16138912D02*
X14420872Y-16129388D01*
X14420872Y-16129388D02*
X14411349Y-16110341D01*
X14411349Y-16110341D02*
X14392301Y-16100817D01*
X14392301Y-16100817D02*
X14363730Y-16100817D01*
X14363730Y-16100817D02*
X14344682Y-16091293D01*
X14344682Y-16091293D02*
X14335158Y-16072246D01*
X14335158Y-16072246D02*
X14335158Y-16062722D01*
X14335158Y-16062722D02*
X14344682Y-16043674D01*
X14344682Y-16043674D02*
X14363730Y-16034150D01*
X14363730Y-16034150D02*
X14392301Y-16034150D01*
X14392301Y-16034150D02*
X14411349Y-16043674D01*
X14487539Y-16243674D02*
X14497063Y-16234150D01*
X14497063Y-16234150D02*
X14516111Y-16205579D01*
X14516111Y-16205579D02*
X14525634Y-16186531D01*
X14525634Y-16186531D02*
X14535158Y-16157960D01*
X14535158Y-16157960D02*
X14544682Y-16110341D01*
X14544682Y-16110341D02*
X14544682Y-16072246D01*
X14544682Y-16072246D02*
X14535158Y-16024627D01*
X14535158Y-16024627D02*
X14525634Y-15996055D01*
X14525634Y-15996055D02*
X14516111Y-15977008D01*
X14516111Y-15977008D02*
X14497063Y-15948436D01*
X14497063Y-15948436D02*
X14487539Y-15938912D01*
D11*
X9510285Y-16368284D02*
X9510285Y-16311715D01*
X9453716Y-16311715D01*
X9453716Y-16368284D01*
X9510285Y-16368284D01*
D10*
X9820872Y-16231484D02*
X9839920Y-16231484D01*
X9839920Y-16231484D02*
X9858967Y-16241008D01*
X9858967Y-16241008D02*
X9868491Y-16250531D01*
X9868491Y-16250531D02*
X9878015Y-16269579D01*
X9878015Y-16269579D02*
X9887539Y-16307674D01*
X9887539Y-16307674D02*
X9887539Y-16355293D01*
X9887539Y-16355293D02*
X9878015Y-16393388D01*
X9878015Y-16393388D02*
X9868491Y-16412436D01*
X9868491Y-16412436D02*
X9858967Y-16421960D01*
X9858967Y-16421960D02*
X9839920Y-16431484D01*
X9839920Y-16431484D02*
X9820872Y-16431484D01*
X9820872Y-16431484D02*
X9801824Y-16421960D01*
X9801824Y-16421960D02*
X9792301Y-16412436D01*
X9792301Y-16412436D02*
X9782777Y-16393388D01*
X9782777Y-16393388D02*
X9773253Y-16355293D01*
X9773253Y-16355293D02*
X9773253Y-16307674D01*
X9773253Y-16307674D02*
X9782777Y-16269579D01*
X9782777Y-16269579D02*
X9792301Y-16250531D01*
X9792301Y-16250531D02*
X9801824Y-16241008D01*
X9801824Y-16241008D02*
X9820872Y-16231484D01*
X9973253Y-16412436D02*
X9982777Y-16421960D01*
X9982777Y-16421960D02*
X9973253Y-16431484D01*
X9973253Y-16431484D02*
X9963729Y-16421960D01*
X9963729Y-16421960D02*
X9973253Y-16412436D01*
X9973253Y-16412436D02*
X9973253Y-16431484D01*
X10097063Y-16317198D02*
X10078015Y-16307674D01*
X10078015Y-16307674D02*
X10068491Y-16298150D01*
X10068491Y-16298150D02*
X10058967Y-16279103D01*
X10058967Y-16279103D02*
X10058967Y-16269579D01*
X10058967Y-16269579D02*
X10068491Y-16250531D01*
X10068491Y-16250531D02*
X10078015Y-16241008D01*
X10078015Y-16241008D02*
X10097063Y-16231484D01*
X10097063Y-16231484D02*
X10135158Y-16231484D01*
X10135158Y-16231484D02*
X10154205Y-16241008D01*
X10154205Y-16241008D02*
X10163729Y-16250531D01*
X10163729Y-16250531D02*
X10173253Y-16269579D01*
X10173253Y-16269579D02*
X10173253Y-16279103D01*
X10173253Y-16279103D02*
X10163729Y-16298150D01*
X10163729Y-16298150D02*
X10154205Y-16307674D01*
X10154205Y-16307674D02*
X10135158Y-16317198D01*
X10135158Y-16317198D02*
X10097063Y-16317198D01*
X10097063Y-16317198D02*
X10078015Y-16326722D01*
X10078015Y-16326722D02*
X10068491Y-16336246D01*
X10068491Y-16336246D02*
X10058967Y-16355293D01*
X10058967Y-16355293D02*
X10058967Y-16393388D01*
X10058967Y-16393388D02*
X10068491Y-16412436D01*
X10068491Y-16412436D02*
X10078015Y-16421960D01*
X10078015Y-16421960D02*
X10097063Y-16431484D01*
X10097063Y-16431484D02*
X10135158Y-16431484D01*
X10135158Y-16431484D02*
X10154205Y-16421960D01*
X10154205Y-16421960D02*
X10163729Y-16412436D01*
X10163729Y-16412436D02*
X10173253Y-16393388D01*
X10173253Y-16393388D02*
X10173253Y-16355293D01*
X10173253Y-16355293D02*
X10163729Y-16336246D01*
X10163729Y-16336246D02*
X10154205Y-16326722D01*
X10154205Y-16326722D02*
X10135158Y-16317198D01*
X10297063Y-16231484D02*
X10316110Y-16231484D01*
X10316110Y-16231484D02*
X10335158Y-16241008D01*
X10335158Y-16241008D02*
X10344682Y-16250531D01*
X10344682Y-16250531D02*
X10354205Y-16269579D01*
X10354205Y-16269579D02*
X10363729Y-16307674D01*
X10363729Y-16307674D02*
X10363729Y-16355293D01*
X10363729Y-16355293D02*
X10354205Y-16393388D01*
X10354205Y-16393388D02*
X10344682Y-16412436D01*
X10344682Y-16412436D02*
X10335158Y-16421960D01*
X10335158Y-16421960D02*
X10316110Y-16431484D01*
X10316110Y-16431484D02*
X10297063Y-16431484D01*
X10297063Y-16431484D02*
X10278015Y-16421960D01*
X10278015Y-16421960D02*
X10268491Y-16412436D01*
X10268491Y-16412436D02*
X10258967Y-16393388D01*
X10258967Y-16393388D02*
X10249444Y-16355293D01*
X10249444Y-16355293D02*
X10249444Y-16307674D01*
X10249444Y-16307674D02*
X10258967Y-16269579D01*
X10258967Y-16269579D02*
X10268491Y-16250531D01*
X10268491Y-16250531D02*
X10278015Y-16241008D01*
X10278015Y-16241008D02*
X10297063Y-16231484D01*
X10487539Y-16231484D02*
X10506586Y-16231484D01*
X10506586Y-16231484D02*
X10525634Y-16241008D01*
X10525634Y-16241008D02*
X10535158Y-16250531D01*
X10535158Y-16250531D02*
X10544682Y-16269579D01*
X10544682Y-16269579D02*
X10554205Y-16307674D01*
X10554205Y-16307674D02*
X10554205Y-16355293D01*
X10554205Y-16355293D02*
X10544682Y-16393388D01*
X10544682Y-16393388D02*
X10535158Y-16412436D01*
X10535158Y-16412436D02*
X10525634Y-16421960D01*
X10525634Y-16421960D02*
X10506586Y-16431484D01*
X10506586Y-16431484D02*
X10487539Y-16431484D01*
X10487539Y-16431484D02*
X10468491Y-16421960D01*
X10468491Y-16421960D02*
X10458967Y-16412436D01*
X10458967Y-16412436D02*
X10449444Y-16393388D01*
X10449444Y-16393388D02*
X10439920Y-16355293D01*
X10439920Y-16355293D02*
X10439920Y-16307674D01*
X10439920Y-16307674D02*
X10449444Y-16269579D01*
X10449444Y-16269579D02*
X10458967Y-16250531D01*
X10458967Y-16250531D02*
X10468491Y-16241008D01*
X10468491Y-16241008D02*
X10487539Y-16231484D01*
X10639920Y-16431484D02*
X10639920Y-16298150D01*
X10639920Y-16317198D02*
X10649444Y-16307674D01*
X10649444Y-16307674D02*
X10668491Y-16298150D01*
X10668491Y-16298150D02*
X10697063Y-16298150D01*
X10697063Y-16298150D02*
X10716110Y-16307674D01*
X10716110Y-16307674D02*
X10725634Y-16326722D01*
X10725634Y-16326722D02*
X10725634Y-16431484D01*
X10725634Y-16326722D02*
X10735158Y-16307674D01*
X10735158Y-16307674D02*
X10754205Y-16298150D01*
X10754205Y-16298150D02*
X10782777Y-16298150D01*
X10782777Y-16298150D02*
X10801825Y-16307674D01*
X10801825Y-16307674D02*
X10811348Y-16326722D01*
X10811348Y-16326722D02*
X10811348Y-16431484D01*
X10906586Y-16431484D02*
X10906586Y-16298150D01*
X10906586Y-16317198D02*
X10916110Y-16307674D01*
X10916110Y-16307674D02*
X10935158Y-16298150D01*
X10935158Y-16298150D02*
X10963729Y-16298150D01*
X10963729Y-16298150D02*
X10982777Y-16307674D01*
X10982777Y-16307674D02*
X10992301Y-16326722D01*
X10992301Y-16326722D02*
X10992301Y-16431484D01*
X10992301Y-16326722D02*
X11001825Y-16307674D01*
X11001825Y-16307674D02*
X11020872Y-16298150D01*
X11020872Y-16298150D02*
X11049444Y-16298150D01*
X11049444Y-16298150D02*
X11068491Y-16307674D01*
X11068491Y-16307674D02*
X11078015Y-16326722D01*
X11078015Y-16326722D02*
X11078015Y-16431484D01*
X11468491Y-16221960D02*
X11297063Y-16479103D01*
X11725634Y-16231484D02*
X11744682Y-16231484D01*
X11744682Y-16231484D02*
X11763729Y-16241008D01*
X11763729Y-16241008D02*
X11773253Y-16250531D01*
X11773253Y-16250531D02*
X11782777Y-16269579D01*
X11782777Y-16269579D02*
X11792301Y-16307674D01*
X11792301Y-16307674D02*
X11792301Y-16355293D01*
X11792301Y-16355293D02*
X11782777Y-16393388D01*
X11782777Y-16393388D02*
X11773253Y-16412436D01*
X11773253Y-16412436D02*
X11763729Y-16421960D01*
X11763729Y-16421960D02*
X11744682Y-16431484D01*
X11744682Y-16431484D02*
X11725634Y-16431484D01*
X11725634Y-16431484D02*
X11706586Y-16421960D01*
X11706586Y-16421960D02*
X11697063Y-16412436D01*
X11697063Y-16412436D02*
X11687539Y-16393388D01*
X11687539Y-16393388D02*
X11678015Y-16355293D01*
X11678015Y-16355293D02*
X11678015Y-16307674D01*
X11678015Y-16307674D02*
X11687539Y-16269579D01*
X11687539Y-16269579D02*
X11697063Y-16250531D01*
X11697063Y-16250531D02*
X11706586Y-16241008D01*
X11706586Y-16241008D02*
X11725634Y-16231484D01*
X11878015Y-16412436D02*
X11887539Y-16421960D01*
X11887539Y-16421960D02*
X11878015Y-16431484D01*
X11878015Y-16431484D02*
X11868491Y-16421960D01*
X11868491Y-16421960D02*
X11878015Y-16412436D01*
X11878015Y-16412436D02*
X11878015Y-16431484D01*
X12011348Y-16231484D02*
X12030396Y-16231484D01*
X12030396Y-16231484D02*
X12049444Y-16241008D01*
X12049444Y-16241008D02*
X12058967Y-16250531D01*
X12058967Y-16250531D02*
X12068491Y-16269579D01*
X12068491Y-16269579D02*
X12078015Y-16307674D01*
X12078015Y-16307674D02*
X12078015Y-16355293D01*
X12078015Y-16355293D02*
X12068491Y-16393388D01*
X12068491Y-16393388D02*
X12058967Y-16412436D01*
X12058967Y-16412436D02*
X12049444Y-16421960D01*
X12049444Y-16421960D02*
X12030396Y-16431484D01*
X12030396Y-16431484D02*
X12011348Y-16431484D01*
X12011348Y-16431484D02*
X11992301Y-16421960D01*
X11992301Y-16421960D02*
X11982777Y-16412436D01*
X11982777Y-16412436D02*
X11973253Y-16393388D01*
X11973253Y-16393388D02*
X11963729Y-16355293D01*
X11963729Y-16355293D02*
X11963729Y-16307674D01*
X11963729Y-16307674D02*
X11973253Y-16269579D01*
X11973253Y-16269579D02*
X11982777Y-16250531D01*
X11982777Y-16250531D02*
X11992301Y-16241008D01*
X11992301Y-16241008D02*
X12011348Y-16231484D01*
X12144682Y-16231484D02*
X12268491Y-16231484D01*
X12268491Y-16231484D02*
X12201825Y-16307674D01*
X12201825Y-16307674D02*
X12230396Y-16307674D01*
X12230396Y-16307674D02*
X12249444Y-16317198D01*
X12249444Y-16317198D02*
X12258967Y-16326722D01*
X12258967Y-16326722D02*
X12268491Y-16345769D01*
X12268491Y-16345769D02*
X12268491Y-16393388D01*
X12268491Y-16393388D02*
X12258967Y-16412436D01*
X12258967Y-16412436D02*
X12249444Y-16421960D01*
X12249444Y-16421960D02*
X12230396Y-16431484D01*
X12230396Y-16431484D02*
X12173253Y-16431484D01*
X12173253Y-16431484D02*
X12154206Y-16421960D01*
X12154206Y-16421960D02*
X12144682Y-16412436D01*
X12458967Y-16431484D02*
X12344682Y-16431484D01*
X12401825Y-16431484D02*
X12401825Y-16231484D01*
X12401825Y-16231484D02*
X12382777Y-16260055D01*
X12382777Y-16260055D02*
X12363729Y-16279103D01*
X12363729Y-16279103D02*
X12344682Y-16288627D01*
X12639920Y-16231484D02*
X12544682Y-16231484D01*
X12544682Y-16231484D02*
X12535158Y-16326722D01*
X12535158Y-16326722D02*
X12544682Y-16317198D01*
X12544682Y-16317198D02*
X12563729Y-16307674D01*
X12563729Y-16307674D02*
X12611348Y-16307674D01*
X12611348Y-16307674D02*
X12630396Y-16317198D01*
X12630396Y-16317198D02*
X12639920Y-16326722D01*
X12639920Y-16326722D02*
X12649444Y-16345769D01*
X12649444Y-16345769D02*
X12649444Y-16393388D01*
X12649444Y-16393388D02*
X12639920Y-16412436D01*
X12639920Y-16412436D02*
X12630396Y-16421960D01*
X12630396Y-16421960D02*
X12611348Y-16431484D01*
X12611348Y-16431484D02*
X12563729Y-16431484D01*
X12563729Y-16431484D02*
X12544682Y-16421960D01*
X12544682Y-16421960D02*
X12535158Y-16412436D01*
X12725634Y-16231484D02*
X12725634Y-16269579D01*
X12801825Y-16231484D02*
X12801825Y-16269579D01*
X13097063Y-16507674D02*
X13087539Y-16498150D01*
X13087539Y-16498150D02*
X13068491Y-16469579D01*
X13068491Y-16469579D02*
X13058968Y-16450531D01*
X13058968Y-16450531D02*
X13049444Y-16421960D01*
X13049444Y-16421960D02*
X13039920Y-16374341D01*
X13039920Y-16374341D02*
X13039920Y-16336246D01*
X13039920Y-16336246D02*
X13049444Y-16288627D01*
X13049444Y-16288627D02*
X13058968Y-16260055D01*
X13058968Y-16260055D02*
X13068491Y-16241008D01*
X13068491Y-16241008D02*
X13087539Y-16212436D01*
X13087539Y-16212436D02*
X13097063Y-16202912D01*
X13154206Y-16231484D02*
X13278015Y-16231484D01*
X13278015Y-16231484D02*
X13211348Y-16307674D01*
X13211348Y-16307674D02*
X13239920Y-16307674D01*
X13239920Y-16307674D02*
X13258968Y-16317198D01*
X13258968Y-16317198D02*
X13268491Y-16326722D01*
X13268491Y-16326722D02*
X13278015Y-16345769D01*
X13278015Y-16345769D02*
X13278015Y-16393388D01*
X13278015Y-16393388D02*
X13268491Y-16412436D01*
X13268491Y-16412436D02*
X13258968Y-16421960D01*
X13258968Y-16421960D02*
X13239920Y-16431484D01*
X13239920Y-16431484D02*
X13182777Y-16431484D01*
X13182777Y-16431484D02*
X13163729Y-16421960D01*
X13163729Y-16421960D02*
X13154206Y-16412436D01*
X13516110Y-16431484D02*
X13516110Y-16231484D01*
X13601825Y-16431484D02*
X13601825Y-16326722D01*
X13601825Y-16326722D02*
X13592301Y-16307674D01*
X13592301Y-16307674D02*
X13573253Y-16298150D01*
X13573253Y-16298150D02*
X13544682Y-16298150D01*
X13544682Y-16298150D02*
X13525634Y-16307674D01*
X13525634Y-16307674D02*
X13516110Y-16317198D01*
X13725634Y-16431484D02*
X13706587Y-16421960D01*
X13706587Y-16421960D02*
X13697063Y-16412436D01*
X13697063Y-16412436D02*
X13687539Y-16393388D01*
X13687539Y-16393388D02*
X13687539Y-16336246D01*
X13687539Y-16336246D02*
X13697063Y-16317198D01*
X13697063Y-16317198D02*
X13706587Y-16307674D01*
X13706587Y-16307674D02*
X13725634Y-16298150D01*
X13725634Y-16298150D02*
X13754206Y-16298150D01*
X13754206Y-16298150D02*
X13773253Y-16307674D01*
X13773253Y-16307674D02*
X13782777Y-16317198D01*
X13782777Y-16317198D02*
X13792301Y-16336246D01*
X13792301Y-16336246D02*
X13792301Y-16393388D01*
X13792301Y-16393388D02*
X13782777Y-16412436D01*
X13782777Y-16412436D02*
X13773253Y-16421960D01*
X13773253Y-16421960D02*
X13754206Y-16431484D01*
X13754206Y-16431484D02*
X13725634Y-16431484D01*
X13906587Y-16431484D02*
X13887539Y-16421960D01*
X13887539Y-16421960D02*
X13878015Y-16402912D01*
X13878015Y-16402912D02*
X13878015Y-16231484D01*
X14058968Y-16421960D02*
X14039920Y-16431484D01*
X14039920Y-16431484D02*
X14001825Y-16431484D01*
X14001825Y-16431484D02*
X13982777Y-16421960D01*
X13982777Y-16421960D02*
X13973253Y-16402912D01*
X13973253Y-16402912D02*
X13973253Y-16326722D01*
X13973253Y-16326722D02*
X13982777Y-16307674D01*
X13982777Y-16307674D02*
X14001825Y-16298150D01*
X14001825Y-16298150D02*
X14039920Y-16298150D01*
X14039920Y-16298150D02*
X14058968Y-16307674D01*
X14058968Y-16307674D02*
X14068491Y-16326722D01*
X14068491Y-16326722D02*
X14068491Y-16345769D01*
X14068491Y-16345769D02*
X13973253Y-16364817D01*
X14144682Y-16421960D02*
X14163730Y-16431484D01*
X14163730Y-16431484D02*
X14201825Y-16431484D01*
X14201825Y-16431484D02*
X14220872Y-16421960D01*
X14220872Y-16421960D02*
X14230396Y-16402912D01*
X14230396Y-16402912D02*
X14230396Y-16393388D01*
X14230396Y-16393388D02*
X14220872Y-16374341D01*
X14220872Y-16374341D02*
X14201825Y-16364817D01*
X14201825Y-16364817D02*
X14173253Y-16364817D01*
X14173253Y-16364817D02*
X14154206Y-16355293D01*
X14154206Y-16355293D02*
X14144682Y-16336246D01*
X14144682Y-16336246D02*
X14144682Y-16326722D01*
X14144682Y-16326722D02*
X14154206Y-16307674D01*
X14154206Y-16307674D02*
X14173253Y-16298150D01*
X14173253Y-16298150D02*
X14201825Y-16298150D01*
X14201825Y-16298150D02*
X14220872Y-16307674D01*
X14297063Y-16507674D02*
X14306587Y-16498150D01*
X14306587Y-16498150D02*
X14325634Y-16469579D01*
X14325634Y-16469579D02*
X14335158Y-16450531D01*
X14335158Y-16450531D02*
X14344682Y-16421960D01*
X14344682Y-16421960D02*
X14354206Y-16374341D01*
X14354206Y-16374341D02*
X14354206Y-16336246D01*
X14354206Y-16336246D02*
X14344682Y-16288627D01*
X14344682Y-16288627D02*
X14335158Y-16260055D01*
X14335158Y-16260055D02*
X14325634Y-16241008D01*
X14325634Y-16241008D02*
X14306587Y-16212436D01*
X14306587Y-16212436D02*
X14297063Y-16202912D01*
D11*
X9481360Y-16644640D02*
X9522000Y-16604000D01*
X9481360Y-16563360D01*
X9440720Y-16604000D01*
X9481360Y-16644640D01*
D10*
X9820872Y-16495484D02*
X9839920Y-16495484D01*
X9839920Y-16495484D02*
X9858967Y-16505008D01*
X9858967Y-16505008D02*
X9868491Y-16514531D01*
X9868491Y-16514531D02*
X9878015Y-16533579D01*
X9878015Y-16533579D02*
X9887539Y-16571674D01*
X9887539Y-16571674D02*
X9887539Y-16619293D01*
X9887539Y-16619293D02*
X9878015Y-16657388D01*
X9878015Y-16657388D02*
X9868491Y-16676436D01*
X9868491Y-16676436D02*
X9858967Y-16685960D01*
X9858967Y-16685960D02*
X9839920Y-16695484D01*
X9839920Y-16695484D02*
X9820872Y-16695484D01*
X9820872Y-16695484D02*
X9801824Y-16685960D01*
X9801824Y-16685960D02*
X9792301Y-16676436D01*
X9792301Y-16676436D02*
X9782777Y-16657388D01*
X9782777Y-16657388D02*
X9773253Y-16619293D01*
X9773253Y-16619293D02*
X9773253Y-16571674D01*
X9773253Y-16571674D02*
X9782777Y-16533579D01*
X9782777Y-16533579D02*
X9792301Y-16514531D01*
X9792301Y-16514531D02*
X9801824Y-16505008D01*
X9801824Y-16505008D02*
X9820872Y-16495484D01*
X9973253Y-16676436D02*
X9982777Y-16685960D01*
X9982777Y-16685960D02*
X9973253Y-16695484D01*
X9973253Y-16695484D02*
X9963729Y-16685960D01*
X9963729Y-16685960D02*
X9973253Y-16676436D01*
X9973253Y-16676436D02*
X9973253Y-16695484D01*
X10097063Y-16581198D02*
X10078015Y-16571674D01*
X10078015Y-16571674D02*
X10068491Y-16562150D01*
X10068491Y-16562150D02*
X10058967Y-16543103D01*
X10058967Y-16543103D02*
X10058967Y-16533579D01*
X10058967Y-16533579D02*
X10068491Y-16514531D01*
X10068491Y-16514531D02*
X10078015Y-16505008D01*
X10078015Y-16505008D02*
X10097063Y-16495484D01*
X10097063Y-16495484D02*
X10135158Y-16495484D01*
X10135158Y-16495484D02*
X10154205Y-16505008D01*
X10154205Y-16505008D02*
X10163729Y-16514531D01*
X10163729Y-16514531D02*
X10173253Y-16533579D01*
X10173253Y-16533579D02*
X10173253Y-16543103D01*
X10173253Y-16543103D02*
X10163729Y-16562150D01*
X10163729Y-16562150D02*
X10154205Y-16571674D01*
X10154205Y-16571674D02*
X10135158Y-16581198D01*
X10135158Y-16581198D02*
X10097063Y-16581198D01*
X10097063Y-16581198D02*
X10078015Y-16590722D01*
X10078015Y-16590722D02*
X10068491Y-16600246D01*
X10068491Y-16600246D02*
X10058967Y-16619293D01*
X10058967Y-16619293D02*
X10058967Y-16657388D01*
X10058967Y-16657388D02*
X10068491Y-16676436D01*
X10068491Y-16676436D02*
X10078015Y-16685960D01*
X10078015Y-16685960D02*
X10097063Y-16695484D01*
X10097063Y-16695484D02*
X10135158Y-16695484D01*
X10135158Y-16695484D02*
X10154205Y-16685960D01*
X10154205Y-16685960D02*
X10163729Y-16676436D01*
X10163729Y-16676436D02*
X10173253Y-16657388D01*
X10173253Y-16657388D02*
X10173253Y-16619293D01*
X10173253Y-16619293D02*
X10163729Y-16600246D01*
X10163729Y-16600246D02*
X10154205Y-16590722D01*
X10154205Y-16590722D02*
X10135158Y-16581198D01*
X10363729Y-16695484D02*
X10249444Y-16695484D01*
X10306586Y-16695484D02*
X10306586Y-16495484D01*
X10306586Y-16495484D02*
X10287539Y-16524055D01*
X10287539Y-16524055D02*
X10268491Y-16543103D01*
X10268491Y-16543103D02*
X10249444Y-16552627D01*
X10430396Y-16495484D02*
X10554205Y-16495484D01*
X10554205Y-16495484D02*
X10487539Y-16571674D01*
X10487539Y-16571674D02*
X10516110Y-16571674D01*
X10516110Y-16571674D02*
X10535158Y-16581198D01*
X10535158Y-16581198D02*
X10544682Y-16590722D01*
X10544682Y-16590722D02*
X10554205Y-16609769D01*
X10554205Y-16609769D02*
X10554205Y-16657388D01*
X10554205Y-16657388D02*
X10544682Y-16676436D01*
X10544682Y-16676436D02*
X10535158Y-16685960D01*
X10535158Y-16685960D02*
X10516110Y-16695484D01*
X10516110Y-16695484D02*
X10458967Y-16695484D01*
X10458967Y-16695484D02*
X10439920Y-16685960D01*
X10439920Y-16685960D02*
X10430396Y-16676436D01*
X10639920Y-16695484D02*
X10639920Y-16562150D01*
X10639920Y-16581198D02*
X10649444Y-16571674D01*
X10649444Y-16571674D02*
X10668491Y-16562150D01*
X10668491Y-16562150D02*
X10697063Y-16562150D01*
X10697063Y-16562150D02*
X10716110Y-16571674D01*
X10716110Y-16571674D02*
X10725634Y-16590722D01*
X10725634Y-16590722D02*
X10725634Y-16695484D01*
X10725634Y-16590722D02*
X10735158Y-16571674D01*
X10735158Y-16571674D02*
X10754205Y-16562150D01*
X10754205Y-16562150D02*
X10782777Y-16562150D01*
X10782777Y-16562150D02*
X10801825Y-16571674D01*
X10801825Y-16571674D02*
X10811348Y-16590722D01*
X10811348Y-16590722D02*
X10811348Y-16695484D01*
X10906586Y-16695484D02*
X10906586Y-16562150D01*
X10906586Y-16581198D02*
X10916110Y-16571674D01*
X10916110Y-16571674D02*
X10935158Y-16562150D01*
X10935158Y-16562150D02*
X10963729Y-16562150D01*
X10963729Y-16562150D02*
X10982777Y-16571674D01*
X10982777Y-16571674D02*
X10992301Y-16590722D01*
X10992301Y-16590722D02*
X10992301Y-16695484D01*
X10992301Y-16590722D02*
X11001825Y-16571674D01*
X11001825Y-16571674D02*
X11020872Y-16562150D01*
X11020872Y-16562150D02*
X11049444Y-16562150D01*
X11049444Y-16562150D02*
X11068491Y-16571674D01*
X11068491Y-16571674D02*
X11078015Y-16590722D01*
X11078015Y-16590722D02*
X11078015Y-16695484D01*
X11468491Y-16485960D02*
X11297063Y-16743103D01*
X11725634Y-16495484D02*
X11744682Y-16495484D01*
X11744682Y-16495484D02*
X11763729Y-16505008D01*
X11763729Y-16505008D02*
X11773253Y-16514531D01*
X11773253Y-16514531D02*
X11782777Y-16533579D01*
X11782777Y-16533579D02*
X11792301Y-16571674D01*
X11792301Y-16571674D02*
X11792301Y-16619293D01*
X11792301Y-16619293D02*
X11782777Y-16657388D01*
X11782777Y-16657388D02*
X11773253Y-16676436D01*
X11773253Y-16676436D02*
X11763729Y-16685960D01*
X11763729Y-16685960D02*
X11744682Y-16695484D01*
X11744682Y-16695484D02*
X11725634Y-16695484D01*
X11725634Y-16695484D02*
X11706586Y-16685960D01*
X11706586Y-16685960D02*
X11697063Y-16676436D01*
X11697063Y-16676436D02*
X11687539Y-16657388D01*
X11687539Y-16657388D02*
X11678015Y-16619293D01*
X11678015Y-16619293D02*
X11678015Y-16571674D01*
X11678015Y-16571674D02*
X11687539Y-16533579D01*
X11687539Y-16533579D02*
X11697063Y-16514531D01*
X11697063Y-16514531D02*
X11706586Y-16505008D01*
X11706586Y-16505008D02*
X11725634Y-16495484D01*
X11878015Y-16676436D02*
X11887539Y-16685960D01*
X11887539Y-16685960D02*
X11878015Y-16695484D01*
X11878015Y-16695484D02*
X11868491Y-16685960D01*
X11868491Y-16685960D02*
X11878015Y-16676436D01*
X11878015Y-16676436D02*
X11878015Y-16695484D01*
X12011348Y-16495484D02*
X12030396Y-16495484D01*
X12030396Y-16495484D02*
X12049444Y-16505008D01*
X12049444Y-16505008D02*
X12058967Y-16514531D01*
X12058967Y-16514531D02*
X12068491Y-16533579D01*
X12068491Y-16533579D02*
X12078015Y-16571674D01*
X12078015Y-16571674D02*
X12078015Y-16619293D01*
X12078015Y-16619293D02*
X12068491Y-16657388D01*
X12068491Y-16657388D02*
X12058967Y-16676436D01*
X12058967Y-16676436D02*
X12049444Y-16685960D01*
X12049444Y-16685960D02*
X12030396Y-16695484D01*
X12030396Y-16695484D02*
X12011348Y-16695484D01*
X12011348Y-16695484D02*
X11992301Y-16685960D01*
X11992301Y-16685960D02*
X11982777Y-16676436D01*
X11982777Y-16676436D02*
X11973253Y-16657388D01*
X11973253Y-16657388D02*
X11963729Y-16619293D01*
X11963729Y-16619293D02*
X11963729Y-16571674D01*
X11963729Y-16571674D02*
X11973253Y-16533579D01*
X11973253Y-16533579D02*
X11982777Y-16514531D01*
X11982777Y-16514531D02*
X11992301Y-16505008D01*
X11992301Y-16505008D02*
X12011348Y-16495484D01*
X12144682Y-16495484D02*
X12268491Y-16495484D01*
X12268491Y-16495484D02*
X12201825Y-16571674D01*
X12201825Y-16571674D02*
X12230396Y-16571674D01*
X12230396Y-16571674D02*
X12249444Y-16581198D01*
X12249444Y-16581198D02*
X12258967Y-16590722D01*
X12258967Y-16590722D02*
X12268491Y-16609769D01*
X12268491Y-16609769D02*
X12268491Y-16657388D01*
X12268491Y-16657388D02*
X12258967Y-16676436D01*
X12258967Y-16676436D02*
X12249444Y-16685960D01*
X12249444Y-16685960D02*
X12230396Y-16695484D01*
X12230396Y-16695484D02*
X12173253Y-16695484D01*
X12173253Y-16695484D02*
X12154206Y-16685960D01*
X12154206Y-16685960D02*
X12144682Y-16676436D01*
X12344682Y-16514531D02*
X12354206Y-16505008D01*
X12354206Y-16505008D02*
X12373253Y-16495484D01*
X12373253Y-16495484D02*
X12420872Y-16495484D01*
X12420872Y-16495484D02*
X12439920Y-16505008D01*
X12439920Y-16505008D02*
X12449444Y-16514531D01*
X12449444Y-16514531D02*
X12458967Y-16533579D01*
X12458967Y-16533579D02*
X12458967Y-16552627D01*
X12458967Y-16552627D02*
X12449444Y-16581198D01*
X12449444Y-16581198D02*
X12335158Y-16695484D01*
X12335158Y-16695484D02*
X12458967Y-16695484D01*
X12582777Y-16495484D02*
X12601825Y-16495484D01*
X12601825Y-16495484D02*
X12620872Y-16505008D01*
X12620872Y-16505008D02*
X12630396Y-16514531D01*
X12630396Y-16514531D02*
X12639920Y-16533579D01*
X12639920Y-16533579D02*
X12649444Y-16571674D01*
X12649444Y-16571674D02*
X12649444Y-16619293D01*
X12649444Y-16619293D02*
X12639920Y-16657388D01*
X12639920Y-16657388D02*
X12630396Y-16676436D01*
X12630396Y-16676436D02*
X12620872Y-16685960D01*
X12620872Y-16685960D02*
X12601825Y-16695484D01*
X12601825Y-16695484D02*
X12582777Y-16695484D01*
X12582777Y-16695484D02*
X12563729Y-16685960D01*
X12563729Y-16685960D02*
X12554206Y-16676436D01*
X12554206Y-16676436D02*
X12544682Y-16657388D01*
X12544682Y-16657388D02*
X12535158Y-16619293D01*
X12535158Y-16619293D02*
X12535158Y-16571674D01*
X12535158Y-16571674D02*
X12544682Y-16533579D01*
X12544682Y-16533579D02*
X12554206Y-16514531D01*
X12554206Y-16514531D02*
X12563729Y-16505008D01*
X12563729Y-16505008D02*
X12582777Y-16495484D01*
X12725634Y-16495484D02*
X12725634Y-16533579D01*
X12801825Y-16495484D02*
X12801825Y-16533579D01*
X13097063Y-16771674D02*
X13087539Y-16762150D01*
X13087539Y-16762150D02*
X13068491Y-16733579D01*
X13068491Y-16733579D02*
X13058968Y-16714531D01*
X13058968Y-16714531D02*
X13049444Y-16685960D01*
X13049444Y-16685960D02*
X13039920Y-16638341D01*
X13039920Y-16638341D02*
X13039920Y-16600246D01*
X13039920Y-16600246D02*
X13049444Y-16552627D01*
X13049444Y-16552627D02*
X13058968Y-16524055D01*
X13058968Y-16524055D02*
X13068491Y-16505008D01*
X13068491Y-16505008D02*
X13087539Y-16476436D01*
X13087539Y-16476436D02*
X13097063Y-16466912D01*
X13154206Y-16495484D02*
X13278015Y-16495484D01*
X13278015Y-16495484D02*
X13211348Y-16571674D01*
X13211348Y-16571674D02*
X13239920Y-16571674D01*
X13239920Y-16571674D02*
X13258968Y-16581198D01*
X13258968Y-16581198D02*
X13268491Y-16590722D01*
X13268491Y-16590722D02*
X13278015Y-16609769D01*
X13278015Y-16609769D02*
X13278015Y-16657388D01*
X13278015Y-16657388D02*
X13268491Y-16676436D01*
X13268491Y-16676436D02*
X13258968Y-16685960D01*
X13258968Y-16685960D02*
X13239920Y-16695484D01*
X13239920Y-16695484D02*
X13182777Y-16695484D01*
X13182777Y-16695484D02*
X13163729Y-16685960D01*
X13163729Y-16685960D02*
X13154206Y-16676436D01*
X13516110Y-16695484D02*
X13516110Y-16495484D01*
X13601825Y-16695484D02*
X13601825Y-16590722D01*
X13601825Y-16590722D02*
X13592301Y-16571674D01*
X13592301Y-16571674D02*
X13573253Y-16562150D01*
X13573253Y-16562150D02*
X13544682Y-16562150D01*
X13544682Y-16562150D02*
X13525634Y-16571674D01*
X13525634Y-16571674D02*
X13516110Y-16581198D01*
X13725634Y-16695484D02*
X13706587Y-16685960D01*
X13706587Y-16685960D02*
X13697063Y-16676436D01*
X13697063Y-16676436D02*
X13687539Y-16657388D01*
X13687539Y-16657388D02*
X13687539Y-16600246D01*
X13687539Y-16600246D02*
X13697063Y-16581198D01*
X13697063Y-16581198D02*
X13706587Y-16571674D01*
X13706587Y-16571674D02*
X13725634Y-16562150D01*
X13725634Y-16562150D02*
X13754206Y-16562150D01*
X13754206Y-16562150D02*
X13773253Y-16571674D01*
X13773253Y-16571674D02*
X13782777Y-16581198D01*
X13782777Y-16581198D02*
X13792301Y-16600246D01*
X13792301Y-16600246D02*
X13792301Y-16657388D01*
X13792301Y-16657388D02*
X13782777Y-16676436D01*
X13782777Y-16676436D02*
X13773253Y-16685960D01*
X13773253Y-16685960D02*
X13754206Y-16695484D01*
X13754206Y-16695484D02*
X13725634Y-16695484D01*
X13906587Y-16695484D02*
X13887539Y-16685960D01*
X13887539Y-16685960D02*
X13878015Y-16666912D01*
X13878015Y-16666912D02*
X13878015Y-16495484D01*
X14058968Y-16685960D02*
X14039920Y-16695484D01*
X14039920Y-16695484D02*
X14001825Y-16695484D01*
X14001825Y-16695484D02*
X13982777Y-16685960D01*
X13982777Y-16685960D02*
X13973253Y-16666912D01*
X13973253Y-16666912D02*
X13973253Y-16590722D01*
X13973253Y-16590722D02*
X13982777Y-16571674D01*
X13982777Y-16571674D02*
X14001825Y-16562150D01*
X14001825Y-16562150D02*
X14039920Y-16562150D01*
X14039920Y-16562150D02*
X14058968Y-16571674D01*
X14058968Y-16571674D02*
X14068491Y-16590722D01*
X14068491Y-16590722D02*
X14068491Y-16609769D01*
X14068491Y-16609769D02*
X13973253Y-16628817D01*
X14144682Y-16685960D02*
X14163730Y-16695484D01*
X14163730Y-16695484D02*
X14201825Y-16695484D01*
X14201825Y-16695484D02*
X14220872Y-16685960D01*
X14220872Y-16685960D02*
X14230396Y-16666912D01*
X14230396Y-16666912D02*
X14230396Y-16657388D01*
X14230396Y-16657388D02*
X14220872Y-16638341D01*
X14220872Y-16638341D02*
X14201825Y-16628817D01*
X14201825Y-16628817D02*
X14173253Y-16628817D01*
X14173253Y-16628817D02*
X14154206Y-16619293D01*
X14154206Y-16619293D02*
X14144682Y-16600246D01*
X14144682Y-16600246D02*
X14144682Y-16590722D01*
X14144682Y-16590722D02*
X14154206Y-16571674D01*
X14154206Y-16571674D02*
X14173253Y-16562150D01*
X14173253Y-16562150D02*
X14201825Y-16562150D01*
X14201825Y-16562150D02*
X14220872Y-16571674D01*
X14297063Y-16771674D02*
X14306587Y-16762150D01*
X14306587Y-16762150D02*
X14325634Y-16733579D01*
X14325634Y-16733579D02*
X14335158Y-16714531D01*
X14335158Y-16714531D02*
X14344682Y-16685960D01*
X14344682Y-16685960D02*
X14354206Y-16638341D01*
X14354206Y-16638341D02*
X14354206Y-16600246D01*
X14354206Y-16600246D02*
X14344682Y-16552627D01*
X14344682Y-16552627D02*
X14335158Y-16524055D01*
X14335158Y-16524055D02*
X14325634Y-16505008D01*
X14325634Y-16505008D02*
X14306587Y-16476436D01*
X14306587Y-16476436D02*
X14297063Y-16466912D01*
D12*
X9397000Y-16805500D02*
X9522000Y-16930500D01*
X9522000Y-16805500D02*
X9397000Y-16930500D01*
X9522000Y-16868000D02*
G75*
G02*
X9397000Y-16868000I-62500J0D01*
G01*
X9397000Y-16868000D02*
G75*
G02*
X9522000Y-16868000I62500J0D01*
G01*
D10*
X9887539Y-16959484D02*
X9773253Y-16959484D01*
X9830396Y-16959484D02*
X9830396Y-16759484D01*
X9830396Y-16759484D02*
X9811348Y-16788055D01*
X9811348Y-16788055D02*
X9792301Y-16807103D01*
X9792301Y-16807103D02*
X9773253Y-16816627D01*
X9973253Y-16940436D02*
X9982777Y-16949960D01*
X9982777Y-16949960D02*
X9973253Y-16959484D01*
X9973253Y-16959484D02*
X9963729Y-16949960D01*
X9963729Y-16949960D02*
X9973253Y-16940436D01*
X9973253Y-16940436D02*
X9973253Y-16959484D01*
X10058967Y-16778531D02*
X10068491Y-16769008D01*
X10068491Y-16769008D02*
X10087539Y-16759484D01*
X10087539Y-16759484D02*
X10135158Y-16759484D01*
X10135158Y-16759484D02*
X10154205Y-16769008D01*
X10154205Y-16769008D02*
X10163729Y-16778531D01*
X10163729Y-16778531D02*
X10173253Y-16797579D01*
X10173253Y-16797579D02*
X10173253Y-16816627D01*
X10173253Y-16816627D02*
X10163729Y-16845198D01*
X10163729Y-16845198D02*
X10049444Y-16959484D01*
X10049444Y-16959484D02*
X10173253Y-16959484D01*
X10354205Y-16759484D02*
X10258967Y-16759484D01*
X10258967Y-16759484D02*
X10249444Y-16854722D01*
X10249444Y-16854722D02*
X10258967Y-16845198D01*
X10258967Y-16845198D02*
X10278015Y-16835674D01*
X10278015Y-16835674D02*
X10325634Y-16835674D01*
X10325634Y-16835674D02*
X10344682Y-16845198D01*
X10344682Y-16845198D02*
X10354205Y-16854722D01*
X10354205Y-16854722D02*
X10363729Y-16873770D01*
X10363729Y-16873770D02*
X10363729Y-16921389D01*
X10363729Y-16921389D02*
X10354205Y-16940436D01*
X10354205Y-16940436D02*
X10344682Y-16949960D01*
X10344682Y-16949960D02*
X10325634Y-16959484D01*
X10325634Y-16959484D02*
X10278015Y-16959484D01*
X10278015Y-16959484D02*
X10258967Y-16949960D01*
X10258967Y-16949960D02*
X10249444Y-16940436D01*
X10487539Y-16759484D02*
X10506586Y-16759484D01*
X10506586Y-16759484D02*
X10525634Y-16769008D01*
X10525634Y-16769008D02*
X10535158Y-16778531D01*
X10535158Y-16778531D02*
X10544682Y-16797579D01*
X10544682Y-16797579D02*
X10554205Y-16835674D01*
X10554205Y-16835674D02*
X10554205Y-16883293D01*
X10554205Y-16883293D02*
X10544682Y-16921389D01*
X10544682Y-16921389D02*
X10535158Y-16940436D01*
X10535158Y-16940436D02*
X10525634Y-16949960D01*
X10525634Y-16949960D02*
X10506586Y-16959484D01*
X10506586Y-16959484D02*
X10487539Y-16959484D01*
X10487539Y-16959484D02*
X10468491Y-16949960D01*
X10468491Y-16949960D02*
X10458967Y-16940436D01*
X10458967Y-16940436D02*
X10449444Y-16921389D01*
X10449444Y-16921389D02*
X10439920Y-16883293D01*
X10439920Y-16883293D02*
X10439920Y-16835674D01*
X10439920Y-16835674D02*
X10449444Y-16797579D01*
X10449444Y-16797579D02*
X10458967Y-16778531D01*
X10458967Y-16778531D02*
X10468491Y-16769008D01*
X10468491Y-16769008D02*
X10487539Y-16759484D01*
X10639920Y-16959484D02*
X10639920Y-16826150D01*
X10639920Y-16845198D02*
X10649444Y-16835674D01*
X10649444Y-16835674D02*
X10668491Y-16826150D01*
X10668491Y-16826150D02*
X10697063Y-16826150D01*
X10697063Y-16826150D02*
X10716110Y-16835674D01*
X10716110Y-16835674D02*
X10725634Y-16854722D01*
X10725634Y-16854722D02*
X10725634Y-16959484D01*
X10725634Y-16854722D02*
X10735158Y-16835674D01*
X10735158Y-16835674D02*
X10754205Y-16826150D01*
X10754205Y-16826150D02*
X10782777Y-16826150D01*
X10782777Y-16826150D02*
X10801825Y-16835674D01*
X10801825Y-16835674D02*
X10811348Y-16854722D01*
X10811348Y-16854722D02*
X10811348Y-16959484D01*
X10906586Y-16959484D02*
X10906586Y-16826150D01*
X10906586Y-16845198D02*
X10916110Y-16835674D01*
X10916110Y-16835674D02*
X10935158Y-16826150D01*
X10935158Y-16826150D02*
X10963729Y-16826150D01*
X10963729Y-16826150D02*
X10982777Y-16835674D01*
X10982777Y-16835674D02*
X10992301Y-16854722D01*
X10992301Y-16854722D02*
X10992301Y-16959484D01*
X10992301Y-16854722D02*
X11001825Y-16835674D01*
X11001825Y-16835674D02*
X11020872Y-16826150D01*
X11020872Y-16826150D02*
X11049444Y-16826150D01*
X11049444Y-16826150D02*
X11068491Y-16835674D01*
X11068491Y-16835674D02*
X11078015Y-16854722D01*
X11078015Y-16854722D02*
X11078015Y-16959484D01*
X11468491Y-16749960D02*
X11297063Y-17007103D01*
X11725634Y-16759484D02*
X11744682Y-16759484D01*
X11744682Y-16759484D02*
X11763729Y-16769008D01*
X11763729Y-16769008D02*
X11773253Y-16778531D01*
X11773253Y-16778531D02*
X11782777Y-16797579D01*
X11782777Y-16797579D02*
X11792301Y-16835674D01*
X11792301Y-16835674D02*
X11792301Y-16883293D01*
X11792301Y-16883293D02*
X11782777Y-16921389D01*
X11782777Y-16921389D02*
X11773253Y-16940436D01*
X11773253Y-16940436D02*
X11763729Y-16949960D01*
X11763729Y-16949960D02*
X11744682Y-16959484D01*
X11744682Y-16959484D02*
X11725634Y-16959484D01*
X11725634Y-16959484D02*
X11706586Y-16949960D01*
X11706586Y-16949960D02*
X11697063Y-16940436D01*
X11697063Y-16940436D02*
X11687539Y-16921389D01*
X11687539Y-16921389D02*
X11678015Y-16883293D01*
X11678015Y-16883293D02*
X11678015Y-16835674D01*
X11678015Y-16835674D02*
X11687539Y-16797579D01*
X11687539Y-16797579D02*
X11697063Y-16778531D01*
X11697063Y-16778531D02*
X11706586Y-16769008D01*
X11706586Y-16769008D02*
X11725634Y-16759484D01*
X11878015Y-16940436D02*
X11887539Y-16949960D01*
X11887539Y-16949960D02*
X11878015Y-16959484D01*
X11878015Y-16959484D02*
X11868491Y-16949960D01*
X11868491Y-16949960D02*
X11878015Y-16940436D01*
X11878015Y-16940436D02*
X11878015Y-16959484D01*
X12011348Y-16759484D02*
X12030396Y-16759484D01*
X12030396Y-16759484D02*
X12049444Y-16769008D01*
X12049444Y-16769008D02*
X12058967Y-16778531D01*
X12058967Y-16778531D02*
X12068491Y-16797579D01*
X12068491Y-16797579D02*
X12078015Y-16835674D01*
X12078015Y-16835674D02*
X12078015Y-16883293D01*
X12078015Y-16883293D02*
X12068491Y-16921389D01*
X12068491Y-16921389D02*
X12058967Y-16940436D01*
X12058967Y-16940436D02*
X12049444Y-16949960D01*
X12049444Y-16949960D02*
X12030396Y-16959484D01*
X12030396Y-16959484D02*
X12011348Y-16959484D01*
X12011348Y-16959484D02*
X11992301Y-16949960D01*
X11992301Y-16949960D02*
X11982777Y-16940436D01*
X11982777Y-16940436D02*
X11973253Y-16921389D01*
X11973253Y-16921389D02*
X11963729Y-16883293D01*
X11963729Y-16883293D02*
X11963729Y-16835674D01*
X11963729Y-16835674D02*
X11973253Y-16797579D01*
X11973253Y-16797579D02*
X11982777Y-16778531D01*
X11982777Y-16778531D02*
X11992301Y-16769008D01*
X11992301Y-16769008D02*
X12011348Y-16759484D01*
X12249444Y-16826150D02*
X12249444Y-16959484D01*
X12201825Y-16749960D02*
X12154206Y-16892817D01*
X12154206Y-16892817D02*
X12278015Y-16892817D01*
X12363729Y-16959484D02*
X12401825Y-16959484D01*
X12401825Y-16959484D02*
X12420872Y-16949960D01*
X12420872Y-16949960D02*
X12430396Y-16940436D01*
X12430396Y-16940436D02*
X12449444Y-16911865D01*
X12449444Y-16911865D02*
X12458967Y-16873770D01*
X12458967Y-16873770D02*
X12458967Y-16797579D01*
X12458967Y-16797579D02*
X12449444Y-16778531D01*
X12449444Y-16778531D02*
X12439920Y-16769008D01*
X12439920Y-16769008D02*
X12420872Y-16759484D01*
X12420872Y-16759484D02*
X12382777Y-16759484D01*
X12382777Y-16759484D02*
X12363729Y-16769008D01*
X12363729Y-16769008D02*
X12354206Y-16778531D01*
X12354206Y-16778531D02*
X12344682Y-16797579D01*
X12344682Y-16797579D02*
X12344682Y-16845198D01*
X12344682Y-16845198D02*
X12354206Y-16864246D01*
X12354206Y-16864246D02*
X12363729Y-16873770D01*
X12363729Y-16873770D02*
X12382777Y-16883293D01*
X12382777Y-16883293D02*
X12420872Y-16883293D01*
X12420872Y-16883293D02*
X12439920Y-16873770D01*
X12439920Y-16873770D02*
X12449444Y-16864246D01*
X12449444Y-16864246D02*
X12458967Y-16845198D01*
X12535158Y-16778531D02*
X12544682Y-16769008D01*
X12544682Y-16769008D02*
X12563729Y-16759484D01*
X12563729Y-16759484D02*
X12611348Y-16759484D01*
X12611348Y-16759484D02*
X12630396Y-16769008D01*
X12630396Y-16769008D02*
X12639920Y-16778531D01*
X12639920Y-16778531D02*
X12649444Y-16797579D01*
X12649444Y-16797579D02*
X12649444Y-16816627D01*
X12649444Y-16816627D02*
X12639920Y-16845198D01*
X12639920Y-16845198D02*
X12525634Y-16959484D01*
X12525634Y-16959484D02*
X12649444Y-16959484D01*
X12725634Y-16759484D02*
X12725634Y-16797579D01*
X12801825Y-16759484D02*
X12801825Y-16797579D01*
X13097063Y-17035674D02*
X13087539Y-17026150D01*
X13087539Y-17026150D02*
X13068491Y-16997579D01*
X13068491Y-16997579D02*
X13058968Y-16978531D01*
X13058968Y-16978531D02*
X13049444Y-16949960D01*
X13049444Y-16949960D02*
X13039920Y-16902341D01*
X13039920Y-16902341D02*
X13039920Y-16864246D01*
X13039920Y-16864246D02*
X13049444Y-16816627D01*
X13049444Y-16816627D02*
X13058968Y-16788055D01*
X13058968Y-16788055D02*
X13068491Y-16769008D01*
X13068491Y-16769008D02*
X13087539Y-16740436D01*
X13087539Y-16740436D02*
X13097063Y-16730912D01*
X13258968Y-16759484D02*
X13220872Y-16759484D01*
X13220872Y-16759484D02*
X13201825Y-16769008D01*
X13201825Y-16769008D02*
X13192301Y-16778531D01*
X13192301Y-16778531D02*
X13173253Y-16807103D01*
X13173253Y-16807103D02*
X13163729Y-16845198D01*
X13163729Y-16845198D02*
X13163729Y-16921389D01*
X13163729Y-16921389D02*
X13173253Y-16940436D01*
X13173253Y-16940436D02*
X13182777Y-16949960D01*
X13182777Y-16949960D02*
X13201825Y-16959484D01*
X13201825Y-16959484D02*
X13239920Y-16959484D01*
X13239920Y-16959484D02*
X13258968Y-16949960D01*
X13258968Y-16949960D02*
X13268491Y-16940436D01*
X13268491Y-16940436D02*
X13278015Y-16921389D01*
X13278015Y-16921389D02*
X13278015Y-16873770D01*
X13278015Y-16873770D02*
X13268491Y-16854722D01*
X13268491Y-16854722D02*
X13258968Y-16845198D01*
X13258968Y-16845198D02*
X13239920Y-16835674D01*
X13239920Y-16835674D02*
X13201825Y-16835674D01*
X13201825Y-16835674D02*
X13182777Y-16845198D01*
X13182777Y-16845198D02*
X13173253Y-16854722D01*
X13173253Y-16854722D02*
X13163729Y-16873770D01*
X13516110Y-16959484D02*
X13516110Y-16759484D01*
X13601825Y-16959484D02*
X13601825Y-16854722D01*
X13601825Y-16854722D02*
X13592301Y-16835674D01*
X13592301Y-16835674D02*
X13573253Y-16826150D01*
X13573253Y-16826150D02*
X13544682Y-16826150D01*
X13544682Y-16826150D02*
X13525634Y-16835674D01*
X13525634Y-16835674D02*
X13516110Y-16845198D01*
X13725634Y-16959484D02*
X13706587Y-16949960D01*
X13706587Y-16949960D02*
X13697063Y-16940436D01*
X13697063Y-16940436D02*
X13687539Y-16921389D01*
X13687539Y-16921389D02*
X13687539Y-16864246D01*
X13687539Y-16864246D02*
X13697063Y-16845198D01*
X13697063Y-16845198D02*
X13706587Y-16835674D01*
X13706587Y-16835674D02*
X13725634Y-16826150D01*
X13725634Y-16826150D02*
X13754206Y-16826150D01*
X13754206Y-16826150D02*
X13773253Y-16835674D01*
X13773253Y-16835674D02*
X13782777Y-16845198D01*
X13782777Y-16845198D02*
X13792301Y-16864246D01*
X13792301Y-16864246D02*
X13792301Y-16921389D01*
X13792301Y-16921389D02*
X13782777Y-16940436D01*
X13782777Y-16940436D02*
X13773253Y-16949960D01*
X13773253Y-16949960D02*
X13754206Y-16959484D01*
X13754206Y-16959484D02*
X13725634Y-16959484D01*
X13906587Y-16959484D02*
X13887539Y-16949960D01*
X13887539Y-16949960D02*
X13878015Y-16930912D01*
X13878015Y-16930912D02*
X13878015Y-16759484D01*
X14058968Y-16949960D02*
X14039920Y-16959484D01*
X14039920Y-16959484D02*
X14001825Y-16959484D01*
X14001825Y-16959484D02*
X13982777Y-16949960D01*
X13982777Y-16949960D02*
X13973253Y-16930912D01*
X13973253Y-16930912D02*
X13973253Y-16854722D01*
X13973253Y-16854722D02*
X13982777Y-16835674D01*
X13982777Y-16835674D02*
X14001825Y-16826150D01*
X14001825Y-16826150D02*
X14039920Y-16826150D01*
X14039920Y-16826150D02*
X14058968Y-16835674D01*
X14058968Y-16835674D02*
X14068491Y-16854722D01*
X14068491Y-16854722D02*
X14068491Y-16873770D01*
X14068491Y-16873770D02*
X13973253Y-16892817D01*
X14144682Y-16949960D02*
X14163730Y-16959484D01*
X14163730Y-16959484D02*
X14201825Y-16959484D01*
X14201825Y-16959484D02*
X14220872Y-16949960D01*
X14220872Y-16949960D02*
X14230396Y-16930912D01*
X14230396Y-16930912D02*
X14230396Y-16921389D01*
X14230396Y-16921389D02*
X14220872Y-16902341D01*
X14220872Y-16902341D02*
X14201825Y-16892817D01*
X14201825Y-16892817D02*
X14173253Y-16892817D01*
X14173253Y-16892817D02*
X14154206Y-16883293D01*
X14154206Y-16883293D02*
X14144682Y-16864246D01*
X14144682Y-16864246D02*
X14144682Y-16854722D01*
X14144682Y-16854722D02*
X14154206Y-16835674D01*
X14154206Y-16835674D02*
X14173253Y-16826150D01*
X14173253Y-16826150D02*
X14201825Y-16826150D01*
X14201825Y-16826150D02*
X14220872Y-16835674D01*
X14297063Y-17035674D02*
X14306587Y-17026150D01*
X14306587Y-17026150D02*
X14325634Y-16997579D01*
X14325634Y-16997579D02*
X14335158Y-16978531D01*
X14335158Y-16978531D02*
X14344682Y-16949960D01*
X14344682Y-16949960D02*
X14354206Y-16902341D01*
X14354206Y-16902341D02*
X14354206Y-16864246D01*
X14354206Y-16864246D02*
X14344682Y-16816627D01*
X14344682Y-16816627D02*
X14335158Y-16788055D01*
X14335158Y-16788055D02*
X14325634Y-16769008D01*
X14325634Y-16769008D02*
X14306587Y-16740436D01*
X14306587Y-16740436D02*
X14297063Y-16730912D01*
D13*
X9372140Y-17057070D02*
X9522000Y-17206930D01*
X9522000Y-17057070D02*
X9372140Y-17206930D01*
X9447070Y-17057070D02*
X9447070Y-17206930D01*
X9372140Y-17132000D02*
X9522000Y-17132000D01*
D10*
X9887539Y-17223484D02*
X9773253Y-17223484D01*
X9830396Y-17223484D02*
X9830396Y-17023484D01*
X9830396Y-17023484D02*
X9811348Y-17052055D01*
X9811348Y-17052055D02*
X9792301Y-17071103D01*
X9792301Y-17071103D02*
X9773253Y-17080627D01*
X9973253Y-17204436D02*
X9982777Y-17213960D01*
X9982777Y-17213960D02*
X9973253Y-17223484D01*
X9973253Y-17223484D02*
X9963729Y-17213960D01*
X9963729Y-17213960D02*
X9973253Y-17204436D01*
X9973253Y-17204436D02*
X9973253Y-17223484D01*
X10154205Y-17090150D02*
X10154205Y-17223484D01*
X10106586Y-17013960D02*
X10058967Y-17156817D01*
X10058967Y-17156817D02*
X10182777Y-17156817D01*
X10268491Y-17223484D02*
X10306586Y-17223484D01*
X10306586Y-17223484D02*
X10325634Y-17213960D01*
X10325634Y-17213960D02*
X10335158Y-17204436D01*
X10335158Y-17204436D02*
X10354205Y-17175865D01*
X10354205Y-17175865D02*
X10363729Y-17137770D01*
X10363729Y-17137770D02*
X10363729Y-17061579D01*
X10363729Y-17061579D02*
X10354205Y-17042531D01*
X10354205Y-17042531D02*
X10344682Y-17033008D01*
X10344682Y-17033008D02*
X10325634Y-17023484D01*
X10325634Y-17023484D02*
X10287539Y-17023484D01*
X10287539Y-17023484D02*
X10268491Y-17033008D01*
X10268491Y-17033008D02*
X10258967Y-17042531D01*
X10258967Y-17042531D02*
X10249444Y-17061579D01*
X10249444Y-17061579D02*
X10249444Y-17109198D01*
X10249444Y-17109198D02*
X10258967Y-17128246D01*
X10258967Y-17128246D02*
X10268491Y-17137770D01*
X10268491Y-17137770D02*
X10287539Y-17147293D01*
X10287539Y-17147293D02*
X10325634Y-17147293D01*
X10325634Y-17147293D02*
X10344682Y-17137770D01*
X10344682Y-17137770D02*
X10354205Y-17128246D01*
X10354205Y-17128246D02*
X10363729Y-17109198D01*
X10458967Y-17223484D02*
X10497063Y-17223484D01*
X10497063Y-17223484D02*
X10516110Y-17213960D01*
X10516110Y-17213960D02*
X10525634Y-17204436D01*
X10525634Y-17204436D02*
X10544682Y-17175865D01*
X10544682Y-17175865D02*
X10554205Y-17137770D01*
X10554205Y-17137770D02*
X10554205Y-17061579D01*
X10554205Y-17061579D02*
X10544682Y-17042531D01*
X10544682Y-17042531D02*
X10535158Y-17033008D01*
X10535158Y-17033008D02*
X10516110Y-17023484D01*
X10516110Y-17023484D02*
X10478015Y-17023484D01*
X10478015Y-17023484D02*
X10458967Y-17033008D01*
X10458967Y-17033008D02*
X10449444Y-17042531D01*
X10449444Y-17042531D02*
X10439920Y-17061579D01*
X10439920Y-17061579D02*
X10439920Y-17109198D01*
X10439920Y-17109198D02*
X10449444Y-17128246D01*
X10449444Y-17128246D02*
X10458967Y-17137770D01*
X10458967Y-17137770D02*
X10478015Y-17147293D01*
X10478015Y-17147293D02*
X10516110Y-17147293D01*
X10516110Y-17147293D02*
X10535158Y-17137770D01*
X10535158Y-17137770D02*
X10544682Y-17128246D01*
X10544682Y-17128246D02*
X10554205Y-17109198D01*
X10639920Y-17223484D02*
X10639920Y-17090150D01*
X10639920Y-17109198D02*
X10649444Y-17099674D01*
X10649444Y-17099674D02*
X10668491Y-17090150D01*
X10668491Y-17090150D02*
X10697063Y-17090150D01*
X10697063Y-17090150D02*
X10716110Y-17099674D01*
X10716110Y-17099674D02*
X10725634Y-17118722D01*
X10725634Y-17118722D02*
X10725634Y-17223484D01*
X10725634Y-17118722D02*
X10735158Y-17099674D01*
X10735158Y-17099674D02*
X10754205Y-17090150D01*
X10754205Y-17090150D02*
X10782777Y-17090150D01*
X10782777Y-17090150D02*
X10801825Y-17099674D01*
X10801825Y-17099674D02*
X10811348Y-17118722D01*
X10811348Y-17118722D02*
X10811348Y-17223484D01*
X10906586Y-17223484D02*
X10906586Y-17090150D01*
X10906586Y-17109198D02*
X10916110Y-17099674D01*
X10916110Y-17099674D02*
X10935158Y-17090150D01*
X10935158Y-17090150D02*
X10963729Y-17090150D01*
X10963729Y-17090150D02*
X10982777Y-17099674D01*
X10982777Y-17099674D02*
X10992301Y-17118722D01*
X10992301Y-17118722D02*
X10992301Y-17223484D01*
X10992301Y-17118722D02*
X11001825Y-17099674D01*
X11001825Y-17099674D02*
X11020872Y-17090150D01*
X11020872Y-17090150D02*
X11049444Y-17090150D01*
X11049444Y-17090150D02*
X11068491Y-17099674D01*
X11068491Y-17099674D02*
X11078015Y-17118722D01*
X11078015Y-17118722D02*
X11078015Y-17223484D01*
X11468491Y-17013960D02*
X11297063Y-17271103D01*
X11725634Y-17023484D02*
X11744682Y-17023484D01*
X11744682Y-17023484D02*
X11763729Y-17033008D01*
X11763729Y-17033008D02*
X11773253Y-17042531D01*
X11773253Y-17042531D02*
X11782777Y-17061579D01*
X11782777Y-17061579D02*
X11792301Y-17099674D01*
X11792301Y-17099674D02*
X11792301Y-17147293D01*
X11792301Y-17147293D02*
X11782777Y-17185389D01*
X11782777Y-17185389D02*
X11773253Y-17204436D01*
X11773253Y-17204436D02*
X11763729Y-17213960D01*
X11763729Y-17213960D02*
X11744682Y-17223484D01*
X11744682Y-17223484D02*
X11725634Y-17223484D01*
X11725634Y-17223484D02*
X11706586Y-17213960D01*
X11706586Y-17213960D02*
X11697063Y-17204436D01*
X11697063Y-17204436D02*
X11687539Y-17185389D01*
X11687539Y-17185389D02*
X11678015Y-17147293D01*
X11678015Y-17147293D02*
X11678015Y-17099674D01*
X11678015Y-17099674D02*
X11687539Y-17061579D01*
X11687539Y-17061579D02*
X11697063Y-17042531D01*
X11697063Y-17042531D02*
X11706586Y-17033008D01*
X11706586Y-17033008D02*
X11725634Y-17023484D01*
X11878015Y-17204436D02*
X11887539Y-17213960D01*
X11887539Y-17213960D02*
X11878015Y-17223484D01*
X11878015Y-17223484D02*
X11868491Y-17213960D01*
X11868491Y-17213960D02*
X11878015Y-17204436D01*
X11878015Y-17204436D02*
X11878015Y-17223484D01*
X12011348Y-17023484D02*
X12030396Y-17023484D01*
X12030396Y-17023484D02*
X12049444Y-17033008D01*
X12049444Y-17033008D02*
X12058967Y-17042531D01*
X12058967Y-17042531D02*
X12068491Y-17061579D01*
X12068491Y-17061579D02*
X12078015Y-17099674D01*
X12078015Y-17099674D02*
X12078015Y-17147293D01*
X12078015Y-17147293D02*
X12068491Y-17185389D01*
X12068491Y-17185389D02*
X12058967Y-17204436D01*
X12058967Y-17204436D02*
X12049444Y-17213960D01*
X12049444Y-17213960D02*
X12030396Y-17223484D01*
X12030396Y-17223484D02*
X12011348Y-17223484D01*
X12011348Y-17223484D02*
X11992301Y-17213960D01*
X11992301Y-17213960D02*
X11982777Y-17204436D01*
X11982777Y-17204436D02*
X11973253Y-17185389D01*
X11973253Y-17185389D02*
X11963729Y-17147293D01*
X11963729Y-17147293D02*
X11963729Y-17099674D01*
X11963729Y-17099674D02*
X11973253Y-17061579D01*
X11973253Y-17061579D02*
X11982777Y-17042531D01*
X11982777Y-17042531D02*
X11992301Y-17033008D01*
X11992301Y-17033008D02*
X12011348Y-17023484D01*
X12258967Y-17023484D02*
X12163729Y-17023484D01*
X12163729Y-17023484D02*
X12154206Y-17118722D01*
X12154206Y-17118722D02*
X12163729Y-17109198D01*
X12163729Y-17109198D02*
X12182777Y-17099674D01*
X12182777Y-17099674D02*
X12230396Y-17099674D01*
X12230396Y-17099674D02*
X12249444Y-17109198D01*
X12249444Y-17109198D02*
X12258967Y-17118722D01*
X12258967Y-17118722D02*
X12268491Y-17137770D01*
X12268491Y-17137770D02*
X12268491Y-17185389D01*
X12268491Y-17185389D02*
X12258967Y-17204436D01*
X12258967Y-17204436D02*
X12249444Y-17213960D01*
X12249444Y-17213960D02*
X12230396Y-17223484D01*
X12230396Y-17223484D02*
X12182777Y-17223484D01*
X12182777Y-17223484D02*
X12163729Y-17213960D01*
X12163729Y-17213960D02*
X12154206Y-17204436D01*
X12363729Y-17223484D02*
X12401825Y-17223484D01*
X12401825Y-17223484D02*
X12420872Y-17213960D01*
X12420872Y-17213960D02*
X12430396Y-17204436D01*
X12430396Y-17204436D02*
X12449444Y-17175865D01*
X12449444Y-17175865D02*
X12458967Y-17137770D01*
X12458967Y-17137770D02*
X12458967Y-17061579D01*
X12458967Y-17061579D02*
X12449444Y-17042531D01*
X12449444Y-17042531D02*
X12439920Y-17033008D01*
X12439920Y-17033008D02*
X12420872Y-17023484D01*
X12420872Y-17023484D02*
X12382777Y-17023484D01*
X12382777Y-17023484D02*
X12363729Y-17033008D01*
X12363729Y-17033008D02*
X12354206Y-17042531D01*
X12354206Y-17042531D02*
X12344682Y-17061579D01*
X12344682Y-17061579D02*
X12344682Y-17109198D01*
X12344682Y-17109198D02*
X12354206Y-17128246D01*
X12354206Y-17128246D02*
X12363729Y-17137770D01*
X12363729Y-17137770D02*
X12382777Y-17147293D01*
X12382777Y-17147293D02*
X12420872Y-17147293D01*
X12420872Y-17147293D02*
X12439920Y-17137770D01*
X12439920Y-17137770D02*
X12449444Y-17128246D01*
X12449444Y-17128246D02*
X12458967Y-17109198D01*
X12582777Y-17023484D02*
X12601825Y-17023484D01*
X12601825Y-17023484D02*
X12620872Y-17033008D01*
X12620872Y-17033008D02*
X12630396Y-17042531D01*
X12630396Y-17042531D02*
X12639920Y-17061579D01*
X12639920Y-17061579D02*
X12649444Y-17099674D01*
X12649444Y-17099674D02*
X12649444Y-17147293D01*
X12649444Y-17147293D02*
X12639920Y-17185389D01*
X12639920Y-17185389D02*
X12630396Y-17204436D01*
X12630396Y-17204436D02*
X12620872Y-17213960D01*
X12620872Y-17213960D02*
X12601825Y-17223484D01*
X12601825Y-17223484D02*
X12582777Y-17223484D01*
X12582777Y-17223484D02*
X12563729Y-17213960D01*
X12563729Y-17213960D02*
X12554206Y-17204436D01*
X12554206Y-17204436D02*
X12544682Y-17185389D01*
X12544682Y-17185389D02*
X12535158Y-17147293D01*
X12535158Y-17147293D02*
X12535158Y-17099674D01*
X12535158Y-17099674D02*
X12544682Y-17061579D01*
X12544682Y-17061579D02*
X12554206Y-17042531D01*
X12554206Y-17042531D02*
X12563729Y-17033008D01*
X12563729Y-17033008D02*
X12582777Y-17023484D01*
X12725634Y-17023484D02*
X12725634Y-17061579D01*
X12801825Y-17023484D02*
X12801825Y-17061579D01*
X13097063Y-17299674D02*
X13087539Y-17290150D01*
X13087539Y-17290150D02*
X13068491Y-17261579D01*
X13068491Y-17261579D02*
X13058968Y-17242531D01*
X13058968Y-17242531D02*
X13049444Y-17213960D01*
X13049444Y-17213960D02*
X13039920Y-17166341D01*
X13039920Y-17166341D02*
X13039920Y-17128246D01*
X13039920Y-17128246D02*
X13049444Y-17080627D01*
X13049444Y-17080627D02*
X13058968Y-17052055D01*
X13058968Y-17052055D02*
X13068491Y-17033008D01*
X13068491Y-17033008D02*
X13087539Y-17004436D01*
X13087539Y-17004436D02*
X13097063Y-16994912D01*
X13163729Y-17042531D02*
X13173253Y-17033008D01*
X13173253Y-17033008D02*
X13192301Y-17023484D01*
X13192301Y-17023484D02*
X13239920Y-17023484D01*
X13239920Y-17023484D02*
X13258968Y-17033008D01*
X13258968Y-17033008D02*
X13268491Y-17042531D01*
X13268491Y-17042531D02*
X13278015Y-17061579D01*
X13278015Y-17061579D02*
X13278015Y-17080627D01*
X13278015Y-17080627D02*
X13268491Y-17109198D01*
X13268491Y-17109198D02*
X13154206Y-17223484D01*
X13154206Y-17223484D02*
X13278015Y-17223484D01*
X13516110Y-17223484D02*
X13516110Y-17023484D01*
X13601825Y-17223484D02*
X13601825Y-17118722D01*
X13601825Y-17118722D02*
X13592301Y-17099674D01*
X13592301Y-17099674D02*
X13573253Y-17090150D01*
X13573253Y-17090150D02*
X13544682Y-17090150D01*
X13544682Y-17090150D02*
X13525634Y-17099674D01*
X13525634Y-17099674D02*
X13516110Y-17109198D01*
X13725634Y-17223484D02*
X13706587Y-17213960D01*
X13706587Y-17213960D02*
X13697063Y-17204436D01*
X13697063Y-17204436D02*
X13687539Y-17185389D01*
X13687539Y-17185389D02*
X13687539Y-17128246D01*
X13687539Y-17128246D02*
X13697063Y-17109198D01*
X13697063Y-17109198D02*
X13706587Y-17099674D01*
X13706587Y-17099674D02*
X13725634Y-17090150D01*
X13725634Y-17090150D02*
X13754206Y-17090150D01*
X13754206Y-17090150D02*
X13773253Y-17099674D01*
X13773253Y-17099674D02*
X13782777Y-17109198D01*
X13782777Y-17109198D02*
X13792301Y-17128246D01*
X13792301Y-17128246D02*
X13792301Y-17185389D01*
X13792301Y-17185389D02*
X13782777Y-17204436D01*
X13782777Y-17204436D02*
X13773253Y-17213960D01*
X13773253Y-17213960D02*
X13754206Y-17223484D01*
X13754206Y-17223484D02*
X13725634Y-17223484D01*
X13906587Y-17223484D02*
X13887539Y-17213960D01*
X13887539Y-17213960D02*
X13878015Y-17194912D01*
X13878015Y-17194912D02*
X13878015Y-17023484D01*
X14058968Y-17213960D02*
X14039920Y-17223484D01*
X14039920Y-17223484D02*
X14001825Y-17223484D01*
X14001825Y-17223484D02*
X13982777Y-17213960D01*
X13982777Y-17213960D02*
X13973253Y-17194912D01*
X13973253Y-17194912D02*
X13973253Y-17118722D01*
X13973253Y-17118722D02*
X13982777Y-17099674D01*
X13982777Y-17099674D02*
X14001825Y-17090150D01*
X14001825Y-17090150D02*
X14039920Y-17090150D01*
X14039920Y-17090150D02*
X14058968Y-17099674D01*
X14058968Y-17099674D02*
X14068491Y-17118722D01*
X14068491Y-17118722D02*
X14068491Y-17137770D01*
X14068491Y-17137770D02*
X13973253Y-17156817D01*
X14144682Y-17213960D02*
X14163730Y-17223484D01*
X14163730Y-17223484D02*
X14201825Y-17223484D01*
X14201825Y-17223484D02*
X14220872Y-17213960D01*
X14220872Y-17213960D02*
X14230396Y-17194912D01*
X14230396Y-17194912D02*
X14230396Y-17185389D01*
X14230396Y-17185389D02*
X14220872Y-17166341D01*
X14220872Y-17166341D02*
X14201825Y-17156817D01*
X14201825Y-17156817D02*
X14173253Y-17156817D01*
X14173253Y-17156817D02*
X14154206Y-17147293D01*
X14154206Y-17147293D02*
X14144682Y-17128246D01*
X14144682Y-17128246D02*
X14144682Y-17118722D01*
X14144682Y-17118722D02*
X14154206Y-17099674D01*
X14154206Y-17099674D02*
X14173253Y-17090150D01*
X14173253Y-17090150D02*
X14201825Y-17090150D01*
X14201825Y-17090150D02*
X14220872Y-17099674D01*
X14297063Y-17299674D02*
X14306587Y-17290150D01*
X14306587Y-17290150D02*
X14325634Y-17261579D01*
X14325634Y-17261579D02*
X14335158Y-17242531D01*
X14335158Y-17242531D02*
X14344682Y-17213960D01*
X14344682Y-17213960D02*
X14354206Y-17166341D01*
X14354206Y-17166341D02*
X14354206Y-17128246D01*
X14354206Y-17128246D02*
X14344682Y-17080627D01*
X14344682Y-17080627D02*
X14335158Y-17052055D01*
X14335158Y-17052055D02*
X14325634Y-17033008D01*
X14325634Y-17033008D02*
X14306587Y-17004436D01*
X14306587Y-17004436D02*
X14297063Y-16994912D01*
X9322000Y-17301860D02*
X9522000Y-17501860D01*
X9522000Y-17301860D02*
X9322000Y-17501860D01*
X9492711Y-17472571D02*
X9492711Y-17331149D01*
X9351289Y-17331149D01*
X9351289Y-17472571D01*
X9492711Y-17472571D01*
X9773253Y-17312391D02*
X9782777Y-17302868D01*
X9782777Y-17302868D02*
X9801824Y-17293344D01*
X9801824Y-17293344D02*
X9849444Y-17293344D01*
X9849444Y-17293344D02*
X9868491Y-17302868D01*
X9868491Y-17302868D02*
X9878015Y-17312391D01*
X9878015Y-17312391D02*
X9887539Y-17331439D01*
X9887539Y-17331439D02*
X9887539Y-17350487D01*
X9887539Y-17350487D02*
X9878015Y-17379058D01*
X9878015Y-17379058D02*
X9763729Y-17493344D01*
X9763729Y-17493344D02*
X9887539Y-17493344D01*
X9973253Y-17474296D02*
X9982777Y-17483820D01*
X9982777Y-17483820D02*
X9973253Y-17493344D01*
X9973253Y-17493344D02*
X9963729Y-17483820D01*
X9963729Y-17483820D02*
X9973253Y-17474296D01*
X9973253Y-17474296D02*
X9973253Y-17493344D01*
X10058967Y-17312391D02*
X10068491Y-17302868D01*
X10068491Y-17302868D02*
X10087539Y-17293344D01*
X10087539Y-17293344D02*
X10135158Y-17293344D01*
X10135158Y-17293344D02*
X10154205Y-17302868D01*
X10154205Y-17302868D02*
X10163729Y-17312391D01*
X10163729Y-17312391D02*
X10173253Y-17331439D01*
X10173253Y-17331439D02*
X10173253Y-17350487D01*
X10173253Y-17350487D02*
X10163729Y-17379058D01*
X10163729Y-17379058D02*
X10049444Y-17493344D01*
X10049444Y-17493344D02*
X10173253Y-17493344D01*
X10354205Y-17293344D02*
X10258967Y-17293344D01*
X10258967Y-17293344D02*
X10249444Y-17388582D01*
X10249444Y-17388582D02*
X10258967Y-17379058D01*
X10258967Y-17379058D02*
X10278015Y-17369534D01*
X10278015Y-17369534D02*
X10325634Y-17369534D01*
X10325634Y-17369534D02*
X10344682Y-17379058D01*
X10344682Y-17379058D02*
X10354205Y-17388582D01*
X10354205Y-17388582D02*
X10363729Y-17407630D01*
X10363729Y-17407630D02*
X10363729Y-17455249D01*
X10363729Y-17455249D02*
X10354205Y-17474296D01*
X10354205Y-17474296D02*
X10344682Y-17483820D01*
X10344682Y-17483820D02*
X10325634Y-17493344D01*
X10325634Y-17493344D02*
X10278015Y-17493344D01*
X10278015Y-17493344D02*
X10258967Y-17483820D01*
X10258967Y-17483820D02*
X10249444Y-17474296D01*
X10487539Y-17293344D02*
X10506586Y-17293344D01*
X10506586Y-17293344D02*
X10525634Y-17302868D01*
X10525634Y-17302868D02*
X10535158Y-17312391D01*
X10535158Y-17312391D02*
X10544682Y-17331439D01*
X10544682Y-17331439D02*
X10554205Y-17369534D01*
X10554205Y-17369534D02*
X10554205Y-17417153D01*
X10554205Y-17417153D02*
X10544682Y-17455249D01*
X10544682Y-17455249D02*
X10535158Y-17474296D01*
X10535158Y-17474296D02*
X10525634Y-17483820D01*
X10525634Y-17483820D02*
X10506586Y-17493344D01*
X10506586Y-17493344D02*
X10487539Y-17493344D01*
X10487539Y-17493344D02*
X10468491Y-17483820D01*
X10468491Y-17483820D02*
X10458967Y-17474296D01*
X10458967Y-17474296D02*
X10449444Y-17455249D01*
X10449444Y-17455249D02*
X10439920Y-17417153D01*
X10439920Y-17417153D02*
X10439920Y-17369534D01*
X10439920Y-17369534D02*
X10449444Y-17331439D01*
X10449444Y-17331439D02*
X10458967Y-17312391D01*
X10458967Y-17312391D02*
X10468491Y-17302868D01*
X10468491Y-17302868D02*
X10487539Y-17293344D01*
X10639920Y-17493344D02*
X10639920Y-17360010D01*
X10639920Y-17379058D02*
X10649444Y-17369534D01*
X10649444Y-17369534D02*
X10668491Y-17360010D01*
X10668491Y-17360010D02*
X10697063Y-17360010D01*
X10697063Y-17360010D02*
X10716110Y-17369534D01*
X10716110Y-17369534D02*
X10725634Y-17388582D01*
X10725634Y-17388582D02*
X10725634Y-17493344D01*
X10725634Y-17388582D02*
X10735158Y-17369534D01*
X10735158Y-17369534D02*
X10754205Y-17360010D01*
X10754205Y-17360010D02*
X10782777Y-17360010D01*
X10782777Y-17360010D02*
X10801825Y-17369534D01*
X10801825Y-17369534D02*
X10811348Y-17388582D01*
X10811348Y-17388582D02*
X10811348Y-17493344D01*
X10906586Y-17493344D02*
X10906586Y-17360010D01*
X10906586Y-17379058D02*
X10916110Y-17369534D01*
X10916110Y-17369534D02*
X10935158Y-17360010D01*
X10935158Y-17360010D02*
X10963729Y-17360010D01*
X10963729Y-17360010D02*
X10982777Y-17369534D01*
X10982777Y-17369534D02*
X10992301Y-17388582D01*
X10992301Y-17388582D02*
X10992301Y-17493344D01*
X10992301Y-17388582D02*
X11001825Y-17369534D01*
X11001825Y-17369534D02*
X11020872Y-17360010D01*
X11020872Y-17360010D02*
X11049444Y-17360010D01*
X11049444Y-17360010D02*
X11068491Y-17369534D01*
X11068491Y-17369534D02*
X11078015Y-17388582D01*
X11078015Y-17388582D02*
X11078015Y-17493344D01*
X11468491Y-17283820D02*
X11297063Y-17540963D01*
X11725634Y-17293344D02*
X11744682Y-17293344D01*
X11744682Y-17293344D02*
X11763729Y-17302868D01*
X11763729Y-17302868D02*
X11773253Y-17312391D01*
X11773253Y-17312391D02*
X11782777Y-17331439D01*
X11782777Y-17331439D02*
X11792301Y-17369534D01*
X11792301Y-17369534D02*
X11792301Y-17417153D01*
X11792301Y-17417153D02*
X11782777Y-17455249D01*
X11782777Y-17455249D02*
X11773253Y-17474296D01*
X11773253Y-17474296D02*
X11763729Y-17483820D01*
X11763729Y-17483820D02*
X11744682Y-17493344D01*
X11744682Y-17493344D02*
X11725634Y-17493344D01*
X11725634Y-17493344D02*
X11706586Y-17483820D01*
X11706586Y-17483820D02*
X11697063Y-17474296D01*
X11697063Y-17474296D02*
X11687539Y-17455249D01*
X11687539Y-17455249D02*
X11678015Y-17417153D01*
X11678015Y-17417153D02*
X11678015Y-17369534D01*
X11678015Y-17369534D02*
X11687539Y-17331439D01*
X11687539Y-17331439D02*
X11697063Y-17312391D01*
X11697063Y-17312391D02*
X11706586Y-17302868D01*
X11706586Y-17302868D02*
X11725634Y-17293344D01*
X11878015Y-17474296D02*
X11887539Y-17483820D01*
X11887539Y-17483820D02*
X11878015Y-17493344D01*
X11878015Y-17493344D02*
X11868491Y-17483820D01*
X11868491Y-17483820D02*
X11878015Y-17474296D01*
X11878015Y-17474296D02*
X11878015Y-17493344D01*
X12011348Y-17293344D02*
X12030396Y-17293344D01*
X12030396Y-17293344D02*
X12049444Y-17302868D01*
X12049444Y-17302868D02*
X12058967Y-17312391D01*
X12058967Y-17312391D02*
X12068491Y-17331439D01*
X12068491Y-17331439D02*
X12078015Y-17369534D01*
X12078015Y-17369534D02*
X12078015Y-17417153D01*
X12078015Y-17417153D02*
X12068491Y-17455249D01*
X12068491Y-17455249D02*
X12058967Y-17474296D01*
X12058967Y-17474296D02*
X12049444Y-17483820D01*
X12049444Y-17483820D02*
X12030396Y-17493344D01*
X12030396Y-17493344D02*
X12011348Y-17493344D01*
X12011348Y-17493344D02*
X11992301Y-17483820D01*
X11992301Y-17483820D02*
X11982777Y-17474296D01*
X11982777Y-17474296D02*
X11973253Y-17455249D01*
X11973253Y-17455249D02*
X11963729Y-17417153D01*
X11963729Y-17417153D02*
X11963729Y-17369534D01*
X11963729Y-17369534D02*
X11973253Y-17331439D01*
X11973253Y-17331439D02*
X11982777Y-17312391D01*
X11982777Y-17312391D02*
X11992301Y-17302868D01*
X11992301Y-17302868D02*
X12011348Y-17293344D01*
X12192301Y-17379058D02*
X12173253Y-17369534D01*
X12173253Y-17369534D02*
X12163729Y-17360010D01*
X12163729Y-17360010D02*
X12154206Y-17340963D01*
X12154206Y-17340963D02*
X12154206Y-17331439D01*
X12154206Y-17331439D02*
X12163729Y-17312391D01*
X12163729Y-17312391D02*
X12173253Y-17302868D01*
X12173253Y-17302868D02*
X12192301Y-17293344D01*
X12192301Y-17293344D02*
X12230396Y-17293344D01*
X12230396Y-17293344D02*
X12249444Y-17302868D01*
X12249444Y-17302868D02*
X12258967Y-17312391D01*
X12258967Y-17312391D02*
X12268491Y-17331439D01*
X12268491Y-17331439D02*
X12268491Y-17340963D01*
X12268491Y-17340963D02*
X12258967Y-17360010D01*
X12258967Y-17360010D02*
X12249444Y-17369534D01*
X12249444Y-17369534D02*
X12230396Y-17379058D01*
X12230396Y-17379058D02*
X12192301Y-17379058D01*
X12192301Y-17379058D02*
X12173253Y-17388582D01*
X12173253Y-17388582D02*
X12163729Y-17398106D01*
X12163729Y-17398106D02*
X12154206Y-17417153D01*
X12154206Y-17417153D02*
X12154206Y-17455249D01*
X12154206Y-17455249D02*
X12163729Y-17474296D01*
X12163729Y-17474296D02*
X12173253Y-17483820D01*
X12173253Y-17483820D02*
X12192301Y-17493344D01*
X12192301Y-17493344D02*
X12230396Y-17493344D01*
X12230396Y-17493344D02*
X12249444Y-17483820D01*
X12249444Y-17483820D02*
X12258967Y-17474296D01*
X12258967Y-17474296D02*
X12268491Y-17455249D01*
X12268491Y-17455249D02*
X12268491Y-17417153D01*
X12268491Y-17417153D02*
X12258967Y-17398106D01*
X12258967Y-17398106D02*
X12249444Y-17388582D01*
X12249444Y-17388582D02*
X12230396Y-17379058D01*
X12382777Y-17379058D02*
X12363729Y-17369534D01*
X12363729Y-17369534D02*
X12354206Y-17360010D01*
X12354206Y-17360010D02*
X12344682Y-17340963D01*
X12344682Y-17340963D02*
X12344682Y-17331439D01*
X12344682Y-17331439D02*
X12354206Y-17312391D01*
X12354206Y-17312391D02*
X12363729Y-17302868D01*
X12363729Y-17302868D02*
X12382777Y-17293344D01*
X12382777Y-17293344D02*
X12420872Y-17293344D01*
X12420872Y-17293344D02*
X12439920Y-17302868D01*
X12439920Y-17302868D02*
X12449444Y-17312391D01*
X12449444Y-17312391D02*
X12458967Y-17331439D01*
X12458967Y-17331439D02*
X12458967Y-17340963D01*
X12458967Y-17340963D02*
X12449444Y-17360010D01*
X12449444Y-17360010D02*
X12439920Y-17369534D01*
X12439920Y-17369534D02*
X12420872Y-17379058D01*
X12420872Y-17379058D02*
X12382777Y-17379058D01*
X12382777Y-17379058D02*
X12363729Y-17388582D01*
X12363729Y-17388582D02*
X12354206Y-17398106D01*
X12354206Y-17398106D02*
X12344682Y-17417153D01*
X12344682Y-17417153D02*
X12344682Y-17455249D01*
X12344682Y-17455249D02*
X12354206Y-17474296D01*
X12354206Y-17474296D02*
X12363729Y-17483820D01*
X12363729Y-17483820D02*
X12382777Y-17493344D01*
X12382777Y-17493344D02*
X12420872Y-17493344D01*
X12420872Y-17493344D02*
X12439920Y-17483820D01*
X12439920Y-17483820D02*
X12449444Y-17474296D01*
X12449444Y-17474296D02*
X12458967Y-17455249D01*
X12458967Y-17455249D02*
X12458967Y-17417153D01*
X12458967Y-17417153D02*
X12449444Y-17398106D01*
X12449444Y-17398106D02*
X12439920Y-17388582D01*
X12439920Y-17388582D02*
X12420872Y-17379058D01*
X12630396Y-17293344D02*
X12592301Y-17293344D01*
X12592301Y-17293344D02*
X12573253Y-17302868D01*
X12573253Y-17302868D02*
X12563729Y-17312391D01*
X12563729Y-17312391D02*
X12544682Y-17340963D01*
X12544682Y-17340963D02*
X12535158Y-17379058D01*
X12535158Y-17379058D02*
X12535158Y-17455249D01*
X12535158Y-17455249D02*
X12544682Y-17474296D01*
X12544682Y-17474296D02*
X12554206Y-17483820D01*
X12554206Y-17483820D02*
X12573253Y-17493344D01*
X12573253Y-17493344D02*
X12611348Y-17493344D01*
X12611348Y-17493344D02*
X12630396Y-17483820D01*
X12630396Y-17483820D02*
X12639920Y-17474296D01*
X12639920Y-17474296D02*
X12649444Y-17455249D01*
X12649444Y-17455249D02*
X12649444Y-17407630D01*
X12649444Y-17407630D02*
X12639920Y-17388582D01*
X12639920Y-17388582D02*
X12630396Y-17379058D01*
X12630396Y-17379058D02*
X12611348Y-17369534D01*
X12611348Y-17369534D02*
X12573253Y-17369534D01*
X12573253Y-17369534D02*
X12554206Y-17379058D01*
X12554206Y-17379058D02*
X12544682Y-17388582D01*
X12544682Y-17388582D02*
X12535158Y-17407630D01*
X12725634Y-17293344D02*
X12725634Y-17331439D01*
X12801825Y-17293344D02*
X12801825Y-17331439D01*
X13097063Y-17569534D02*
X13087539Y-17560010D01*
X13087539Y-17560010D02*
X13068491Y-17531439D01*
X13068491Y-17531439D02*
X13058968Y-17512391D01*
X13058968Y-17512391D02*
X13049444Y-17483820D01*
X13049444Y-17483820D02*
X13039920Y-17436201D01*
X13039920Y-17436201D02*
X13039920Y-17398106D01*
X13039920Y-17398106D02*
X13049444Y-17350487D01*
X13049444Y-17350487D02*
X13058968Y-17321915D01*
X13058968Y-17321915D02*
X13068491Y-17302868D01*
X13068491Y-17302868D02*
X13087539Y-17274296D01*
X13087539Y-17274296D02*
X13097063Y-17264772D01*
X13258968Y-17360010D02*
X13258968Y-17493344D01*
X13211348Y-17283820D02*
X13163729Y-17426677D01*
X13163729Y-17426677D02*
X13287539Y-17426677D01*
X13516110Y-17493344D02*
X13516110Y-17293344D01*
X13601825Y-17493344D02*
X13601825Y-17388582D01*
X13601825Y-17388582D02*
X13592301Y-17369534D01*
X13592301Y-17369534D02*
X13573253Y-17360010D01*
X13573253Y-17360010D02*
X13544682Y-17360010D01*
X13544682Y-17360010D02*
X13525634Y-17369534D01*
X13525634Y-17369534D02*
X13516110Y-17379058D01*
X13725634Y-17493344D02*
X13706587Y-17483820D01*
X13706587Y-17483820D02*
X13697063Y-17474296D01*
X13697063Y-17474296D02*
X13687539Y-17455249D01*
X13687539Y-17455249D02*
X13687539Y-17398106D01*
X13687539Y-17398106D02*
X13697063Y-17379058D01*
X13697063Y-17379058D02*
X13706587Y-17369534D01*
X13706587Y-17369534D02*
X13725634Y-17360010D01*
X13725634Y-17360010D02*
X13754206Y-17360010D01*
X13754206Y-17360010D02*
X13773253Y-17369534D01*
X13773253Y-17369534D02*
X13782777Y-17379058D01*
X13782777Y-17379058D02*
X13792301Y-17398106D01*
X13792301Y-17398106D02*
X13792301Y-17455249D01*
X13792301Y-17455249D02*
X13782777Y-17474296D01*
X13782777Y-17474296D02*
X13773253Y-17483820D01*
X13773253Y-17483820D02*
X13754206Y-17493344D01*
X13754206Y-17493344D02*
X13725634Y-17493344D01*
X13906587Y-17493344D02*
X13887539Y-17483820D01*
X13887539Y-17483820D02*
X13878015Y-17464772D01*
X13878015Y-17464772D02*
X13878015Y-17293344D01*
X14058968Y-17483820D02*
X14039920Y-17493344D01*
X14039920Y-17493344D02*
X14001825Y-17493344D01*
X14001825Y-17493344D02*
X13982777Y-17483820D01*
X13982777Y-17483820D02*
X13973253Y-17464772D01*
X13973253Y-17464772D02*
X13973253Y-17388582D01*
X13973253Y-17388582D02*
X13982777Y-17369534D01*
X13982777Y-17369534D02*
X14001825Y-17360010D01*
X14001825Y-17360010D02*
X14039920Y-17360010D01*
X14039920Y-17360010D02*
X14058968Y-17369534D01*
X14058968Y-17369534D02*
X14068491Y-17388582D01*
X14068491Y-17388582D02*
X14068491Y-17407630D01*
X14068491Y-17407630D02*
X13973253Y-17426677D01*
X14144682Y-17483820D02*
X14163730Y-17493344D01*
X14163730Y-17493344D02*
X14201825Y-17493344D01*
X14201825Y-17493344D02*
X14220872Y-17483820D01*
X14220872Y-17483820D02*
X14230396Y-17464772D01*
X14230396Y-17464772D02*
X14230396Y-17455249D01*
X14230396Y-17455249D02*
X14220872Y-17436201D01*
X14220872Y-17436201D02*
X14201825Y-17426677D01*
X14201825Y-17426677D02*
X14173253Y-17426677D01*
X14173253Y-17426677D02*
X14154206Y-17417153D01*
X14154206Y-17417153D02*
X14144682Y-17398106D01*
X14144682Y-17398106D02*
X14144682Y-17388582D01*
X14144682Y-17388582D02*
X14154206Y-17369534D01*
X14154206Y-17369534D02*
X14173253Y-17360010D01*
X14173253Y-17360010D02*
X14201825Y-17360010D01*
X14201825Y-17360010D02*
X14220872Y-17369534D01*
X14297063Y-17569534D02*
X14306587Y-17560010D01*
X14306587Y-17560010D02*
X14325634Y-17531439D01*
X14325634Y-17531439D02*
X14335158Y-17512391D01*
X14335158Y-17512391D02*
X14344682Y-17483820D01*
X14344682Y-17483820D02*
X14354206Y-17436201D01*
X14354206Y-17436201D02*
X14354206Y-17398106D01*
X14354206Y-17398106D02*
X14344682Y-17350487D01*
X14344682Y-17350487D02*
X14335158Y-17321915D01*
X14335158Y-17321915D02*
X14325634Y-17302868D01*
X14325634Y-17302868D02*
X14306587Y-17274296D01*
X14306587Y-17274296D02*
X14297063Y-17264772D01*
M02*
