%TF.GenerationSoftware,KiCad,Pcbnew,10.0.1*%
%TF.CreationDate,2026-06-22T15:36:05+02:00*%
%TF.ProjectId,sensegate_pcb,73656e73-6567-4617-9465-5f7063622e6b,rev?*%
%TF.SameCoordinates,Original*%
%TF.FileFunction,Profile,NP*%
%FSLAX46Y46*%
G04 Gerber Fmt 4.6, Leading zero omitted, Abs format (unit mm)*
G04 Created by KiCad (PCBNEW 10.0.1) date 2026-06-22 15:36:05*
%MOMM*%
%LPD*%
G01*
G04 APERTURE LIST*
%TA.AperFunction,Profile*%
%ADD10C,0.200000*%
%TD*%
G04 APERTURE END LIST*
D10*
X95320000Y-51530000D02*
X97270000Y-39660000D01*
X95320000Y-136420000D02*
X95320000Y-51540000D01*
X97270000Y-39660000D02*
X98110000Y-38990000D01*
X97280000Y-148340000D02*
X95320000Y-136420000D01*
X98070000Y-148970000D02*
X97280000Y-148340000D01*
X98110000Y-38990000D02*
X157110000Y-38990000D01*
X106632091Y-48980000D02*
G75*
G02*
X98547909Y-48980000I-4042091J0D01*
G01*
X98547909Y-48980000D02*
G75*
G02*
X106632091Y-48980000I4042091J0D01*
G01*
X106650000Y-138970000D02*
G75*
G02*
X98565818Y-138970000I-4042091J0D01*
G01*
X98565818Y-138970000D02*
G75*
G02*
X106650000Y-138970000I4042091J0D01*
G01*
X121870000Y-148970000D02*
X98070000Y-148970000D01*
X147370000Y-148980000D02*
X121870000Y-148970000D01*
X156662091Y-49000000D02*
G75*
G02*
X148577909Y-49000000I-4042091J0D01*
G01*
X148577909Y-49000000D02*
G75*
G02*
X156662091Y-49000000I4042091J0D01*
G01*
X156672091Y-138957909D02*
G75*
G02*
X148587909Y-138957909I-4042091J0D01*
G01*
X148587909Y-138957909D02*
G75*
G02*
X156672091Y-138957909I4042091J0D01*
G01*
X157100000Y-148980000D02*
X147370000Y-148980000D01*
X157110000Y-38990000D02*
X157960000Y-39760000D01*
X157950000Y-148230000D02*
X157100000Y-148980000D01*
X157960000Y-39760000D02*
X159870000Y-51530000D01*
X159870000Y-51530000D02*
X159870000Y-136540000D01*
X159870000Y-136540000D02*
X157950000Y-148230000D01*
M02*
