%TF.GenerationSoftware,KiCad,Pcbnew,10.0.1*%
%TF.CreationDate,2026-06-20T20:25:09+02:00*%
%TF.ProjectId,sensegate_pcb,73656e73-6567-4617-9465-5f7063622e6b,rev?*%
%TF.SameCoordinates,Original*%
%TF.FileFunction,Drillmap*%
%TF.FilePolarity,Positive*%
%FSLAX45Y45*%
G04 Gerber Fmt 4.5, Leading zero omitted, Abs format (unit mm)*
G04 Created by KiCad (PCBNEW 10.0.1) date 2026-06-20 20:25:09*
%MOMM*%
%LPD*%
G01*
G04 APERTURE LIST*
%ADD10C,0.200000*%
%ADD11C,0.220000*%
%ADD12C,0.780000*%
G04 APERTURE END LIST*
D10*
X9532000Y-5153000D02*
X9727000Y-3966000D01*
X9532000Y-13642000D02*
X9532000Y-5154000D01*
X9727000Y-3966000D02*
X9811000Y-3899000D01*
X9728000Y-14834000D02*
X9532000Y-13642000D01*
X9807000Y-14897000D02*
X9728000Y-14834000D01*
X9811000Y-3899000D02*
X15711000Y-3899000D01*
X10663209Y-4898000D02*
G75*
G02*
X9854791Y-4898000I-404209J0D01*
G01*
X9854791Y-4898000D02*
G75*
G02*
X10663209Y-4898000I404209J0D01*
G01*
X10665000Y-13897000D02*
G75*
G02*
X9856582Y-13897000I-404209J0D01*
G01*
X9856582Y-13897000D02*
G75*
G02*
X10665000Y-13897000I404209J0D01*
G01*
X12187000Y-14897000D02*
X9807000Y-14897000D01*
X14737000Y-14898000D02*
X12187000Y-14897000D01*
X15666209Y-4900000D02*
G75*
G02*
X14857791Y-4900000I-404209J0D01*
G01*
X14857791Y-4900000D02*
G75*
G02*
X15666209Y-4900000I404209J0D01*
G01*
X15667209Y-13895791D02*
G75*
G02*
X14858791Y-13895791I-404209J0D01*
G01*
X14858791Y-13895791D02*
G75*
G02*
X15667209Y-13895791I404209J0D01*
G01*
X15710000Y-14898000D02*
X14737000Y-14898000D01*
X15711000Y-3899000D02*
X15796000Y-3976000D01*
X15795000Y-14823000D02*
X15710000Y-14898000D01*
X15796000Y-3976000D02*
X15987000Y-5153000D01*
X15987000Y-5153000D02*
X15987000Y-13654000D01*
X15987000Y-13654000D02*
X15795000Y-14823000D01*
D11*
X11358000Y-13578000D02*
X11578000Y-13798000D01*
X11578000Y-13578000D02*
X11358000Y-13798000D01*
X11358000Y-14447000D02*
X11578000Y-14667000D01*
X11578000Y-14447000D02*
X11358000Y-14667000D01*
X13975000Y-13577000D02*
X14195000Y-13797000D01*
X14195000Y-13577000D02*
X13975000Y-13797000D01*
X13975000Y-14447000D02*
X14195000Y-14667000D01*
X14195000Y-14447000D02*
X13975000Y-14667000D01*
D12*
X10649000Y-13896000D02*
G75*
G02*
X9869000Y-13896000I-390000J0D01*
G01*
X9869000Y-13896000D02*
G75*
G02*
X10649000Y-13896000I390000J0D01*
G01*
X10650000Y-4898000D02*
G75*
G02*
X9870000Y-4898000I-390000J0D01*
G01*
X9870000Y-4898000D02*
G75*
G02*
X10650000Y-4898000I390000J0D01*
G01*
X15649000Y-4898000D02*
G75*
G02*
X14869000Y-4898000I-390000J0D01*
G01*
X14869000Y-4898000D02*
G75*
G02*
X15649000Y-4898000I390000J0D01*
G01*
X15654000Y-13896000D02*
G75*
G02*
X14874000Y-13896000I-390000J0D01*
G01*
X14874000Y-13896000D02*
G75*
G02*
X15654000Y-13896000I390000J0D01*
G01*
D10*
X9782777Y-15219484D02*
X9782777Y-15019484D01*
X9782777Y-15019484D02*
X9830396Y-15019484D01*
X9830396Y-15019484D02*
X9858967Y-15029008D01*
X9858967Y-15029008D02*
X9878015Y-15048055D01*
X9878015Y-15048055D02*
X9887539Y-15067103D01*
X9887539Y-15067103D02*
X9897063Y-15105198D01*
X9897063Y-15105198D02*
X9897063Y-15133769D01*
X9897063Y-15133769D02*
X9887539Y-15171865D01*
X9887539Y-15171865D02*
X9878015Y-15190912D01*
X9878015Y-15190912D02*
X9858967Y-15209960D01*
X9858967Y-15209960D02*
X9830396Y-15219484D01*
X9830396Y-15219484D02*
X9782777Y-15219484D01*
X9982777Y-15219484D02*
X9982777Y-15086150D01*
X9982777Y-15124246D02*
X9992301Y-15105198D01*
X9992301Y-15105198D02*
X10001824Y-15095674D01*
X10001824Y-15095674D02*
X10020872Y-15086150D01*
X10020872Y-15086150D02*
X10039920Y-15086150D01*
X10106586Y-15219484D02*
X10106586Y-15086150D01*
X10106586Y-15019484D02*
X10097063Y-15029008D01*
X10097063Y-15029008D02*
X10106586Y-15038531D01*
X10106586Y-15038531D02*
X10116110Y-15029008D01*
X10116110Y-15029008D02*
X10106586Y-15019484D01*
X10106586Y-15019484D02*
X10106586Y-15038531D01*
X10230396Y-15219484D02*
X10211348Y-15209960D01*
X10211348Y-15209960D02*
X10201824Y-15190912D01*
X10201824Y-15190912D02*
X10201824Y-15019484D01*
X10335158Y-15219484D02*
X10316110Y-15209960D01*
X10316110Y-15209960D02*
X10306586Y-15190912D01*
X10306586Y-15190912D02*
X10306586Y-15019484D01*
X10563729Y-15219484D02*
X10563729Y-15019484D01*
X10563729Y-15019484D02*
X10630396Y-15162341D01*
X10630396Y-15162341D02*
X10697063Y-15019484D01*
X10697063Y-15019484D02*
X10697063Y-15219484D01*
X10878015Y-15219484D02*
X10878015Y-15114722D01*
X10878015Y-15114722D02*
X10868491Y-15095674D01*
X10868491Y-15095674D02*
X10849444Y-15086150D01*
X10849444Y-15086150D02*
X10811348Y-15086150D01*
X10811348Y-15086150D02*
X10792301Y-15095674D01*
X10878015Y-15209960D02*
X10858967Y-15219484D01*
X10858967Y-15219484D02*
X10811348Y-15219484D01*
X10811348Y-15219484D02*
X10792301Y-15209960D01*
X10792301Y-15209960D02*
X10782777Y-15190912D01*
X10782777Y-15190912D02*
X10782777Y-15171865D01*
X10782777Y-15171865D02*
X10792301Y-15152817D01*
X10792301Y-15152817D02*
X10811348Y-15143293D01*
X10811348Y-15143293D02*
X10858967Y-15143293D01*
X10858967Y-15143293D02*
X10878015Y-15133769D01*
X10973253Y-15086150D02*
X10973253Y-15286150D01*
X10973253Y-15095674D02*
X10992301Y-15086150D01*
X10992301Y-15086150D02*
X11030396Y-15086150D01*
X11030396Y-15086150D02*
X11049444Y-15095674D01*
X11049444Y-15095674D02*
X11058967Y-15105198D01*
X11058967Y-15105198D02*
X11068491Y-15124246D01*
X11068491Y-15124246D02*
X11068491Y-15181388D01*
X11068491Y-15181388D02*
X11058967Y-15200436D01*
X11058967Y-15200436D02*
X11049444Y-15209960D01*
X11049444Y-15209960D02*
X11030396Y-15219484D01*
X11030396Y-15219484D02*
X10992301Y-15219484D01*
X10992301Y-15219484D02*
X10973253Y-15209960D01*
X11154205Y-15200436D02*
X11163729Y-15209960D01*
X11163729Y-15209960D02*
X11154205Y-15219484D01*
X11154205Y-15219484D02*
X11144682Y-15209960D01*
X11144682Y-15209960D02*
X11154205Y-15200436D01*
X11154205Y-15200436D02*
X11154205Y-15219484D01*
X11154205Y-15095674D02*
X11163729Y-15105198D01*
X11163729Y-15105198D02*
X11154205Y-15114722D01*
X11154205Y-15114722D02*
X11144682Y-15105198D01*
X11144682Y-15105198D02*
X11154205Y-15095674D01*
X11154205Y-15095674D02*
X11154205Y-15114722D01*
X9322000Y-15448000D02*
X9522000Y-15648000D01*
X9522000Y-15448000D02*
X9322000Y-15648000D01*
X9773253Y-15458531D02*
X9782777Y-15449008D01*
X9782777Y-15449008D02*
X9801824Y-15439484D01*
X9801824Y-15439484D02*
X9849444Y-15439484D01*
X9849444Y-15439484D02*
X9868491Y-15449008D01*
X9868491Y-15449008D02*
X9878015Y-15458531D01*
X9878015Y-15458531D02*
X9887539Y-15477579D01*
X9887539Y-15477579D02*
X9887539Y-15496627D01*
X9887539Y-15496627D02*
X9878015Y-15525198D01*
X9878015Y-15525198D02*
X9763729Y-15639484D01*
X9763729Y-15639484D02*
X9887539Y-15639484D01*
X9973253Y-15620436D02*
X9982777Y-15629960D01*
X9982777Y-15629960D02*
X9973253Y-15639484D01*
X9973253Y-15639484D02*
X9963729Y-15629960D01*
X9963729Y-15629960D02*
X9973253Y-15620436D01*
X9973253Y-15620436D02*
X9973253Y-15639484D01*
X10058967Y-15458531D02*
X10068491Y-15449008D01*
X10068491Y-15449008D02*
X10087539Y-15439484D01*
X10087539Y-15439484D02*
X10135158Y-15439484D01*
X10135158Y-15439484D02*
X10154205Y-15449008D01*
X10154205Y-15449008D02*
X10163729Y-15458531D01*
X10163729Y-15458531D02*
X10173253Y-15477579D01*
X10173253Y-15477579D02*
X10173253Y-15496627D01*
X10173253Y-15496627D02*
X10163729Y-15525198D01*
X10163729Y-15525198D02*
X10049444Y-15639484D01*
X10049444Y-15639484D02*
X10173253Y-15639484D01*
X10297063Y-15439484D02*
X10316110Y-15439484D01*
X10316110Y-15439484D02*
X10335158Y-15449008D01*
X10335158Y-15449008D02*
X10344682Y-15458531D01*
X10344682Y-15458531D02*
X10354205Y-15477579D01*
X10354205Y-15477579D02*
X10363729Y-15515674D01*
X10363729Y-15515674D02*
X10363729Y-15563293D01*
X10363729Y-15563293D02*
X10354205Y-15601388D01*
X10354205Y-15601388D02*
X10344682Y-15620436D01*
X10344682Y-15620436D02*
X10335158Y-15629960D01*
X10335158Y-15629960D02*
X10316110Y-15639484D01*
X10316110Y-15639484D02*
X10297063Y-15639484D01*
X10297063Y-15639484D02*
X10278015Y-15629960D01*
X10278015Y-15629960D02*
X10268491Y-15620436D01*
X10268491Y-15620436D02*
X10258967Y-15601388D01*
X10258967Y-15601388D02*
X10249444Y-15563293D01*
X10249444Y-15563293D02*
X10249444Y-15515674D01*
X10249444Y-15515674D02*
X10258967Y-15477579D01*
X10258967Y-15477579D02*
X10268491Y-15458531D01*
X10268491Y-15458531D02*
X10278015Y-15449008D01*
X10278015Y-15449008D02*
X10297063Y-15439484D01*
X10487539Y-15439484D02*
X10506586Y-15439484D01*
X10506586Y-15439484D02*
X10525634Y-15449008D01*
X10525634Y-15449008D02*
X10535158Y-15458531D01*
X10535158Y-15458531D02*
X10544682Y-15477579D01*
X10544682Y-15477579D02*
X10554205Y-15515674D01*
X10554205Y-15515674D02*
X10554205Y-15563293D01*
X10554205Y-15563293D02*
X10544682Y-15601388D01*
X10544682Y-15601388D02*
X10535158Y-15620436D01*
X10535158Y-15620436D02*
X10525634Y-15629960D01*
X10525634Y-15629960D02*
X10506586Y-15639484D01*
X10506586Y-15639484D02*
X10487539Y-15639484D01*
X10487539Y-15639484D02*
X10468491Y-15629960D01*
X10468491Y-15629960D02*
X10458967Y-15620436D01*
X10458967Y-15620436D02*
X10449444Y-15601388D01*
X10449444Y-15601388D02*
X10439920Y-15563293D01*
X10439920Y-15563293D02*
X10439920Y-15515674D01*
X10439920Y-15515674D02*
X10449444Y-15477579D01*
X10449444Y-15477579D02*
X10458967Y-15458531D01*
X10458967Y-15458531D02*
X10468491Y-15449008D01*
X10468491Y-15449008D02*
X10487539Y-15439484D01*
X10639920Y-15639484D02*
X10639920Y-15506150D01*
X10639920Y-15525198D02*
X10649444Y-15515674D01*
X10649444Y-15515674D02*
X10668491Y-15506150D01*
X10668491Y-15506150D02*
X10697063Y-15506150D01*
X10697063Y-15506150D02*
X10716110Y-15515674D01*
X10716110Y-15515674D02*
X10725634Y-15534722D01*
X10725634Y-15534722D02*
X10725634Y-15639484D01*
X10725634Y-15534722D02*
X10735158Y-15515674D01*
X10735158Y-15515674D02*
X10754205Y-15506150D01*
X10754205Y-15506150D02*
X10782777Y-15506150D01*
X10782777Y-15506150D02*
X10801825Y-15515674D01*
X10801825Y-15515674D02*
X10811348Y-15534722D01*
X10811348Y-15534722D02*
X10811348Y-15639484D01*
X10906586Y-15639484D02*
X10906586Y-15506150D01*
X10906586Y-15525198D02*
X10916110Y-15515674D01*
X10916110Y-15515674D02*
X10935158Y-15506150D01*
X10935158Y-15506150D02*
X10963729Y-15506150D01*
X10963729Y-15506150D02*
X10982777Y-15515674D01*
X10982777Y-15515674D02*
X10992301Y-15534722D01*
X10992301Y-15534722D02*
X10992301Y-15639484D01*
X10992301Y-15534722D02*
X11001825Y-15515674D01*
X11001825Y-15515674D02*
X11020872Y-15506150D01*
X11020872Y-15506150D02*
X11049444Y-15506150D01*
X11049444Y-15506150D02*
X11068491Y-15515674D01*
X11068491Y-15515674D02*
X11078015Y-15534722D01*
X11078015Y-15534722D02*
X11078015Y-15639484D01*
X11468491Y-15429960D02*
X11297063Y-15687103D01*
X11725634Y-15439484D02*
X11744682Y-15439484D01*
X11744682Y-15439484D02*
X11763729Y-15449008D01*
X11763729Y-15449008D02*
X11773253Y-15458531D01*
X11773253Y-15458531D02*
X11782777Y-15477579D01*
X11782777Y-15477579D02*
X11792301Y-15515674D01*
X11792301Y-15515674D02*
X11792301Y-15563293D01*
X11792301Y-15563293D02*
X11782777Y-15601388D01*
X11782777Y-15601388D02*
X11773253Y-15620436D01*
X11773253Y-15620436D02*
X11763729Y-15629960D01*
X11763729Y-15629960D02*
X11744682Y-15639484D01*
X11744682Y-15639484D02*
X11725634Y-15639484D01*
X11725634Y-15639484D02*
X11706586Y-15629960D01*
X11706586Y-15629960D02*
X11697063Y-15620436D01*
X11697063Y-15620436D02*
X11687539Y-15601388D01*
X11687539Y-15601388D02*
X11678015Y-15563293D01*
X11678015Y-15563293D02*
X11678015Y-15515674D01*
X11678015Y-15515674D02*
X11687539Y-15477579D01*
X11687539Y-15477579D02*
X11697063Y-15458531D01*
X11697063Y-15458531D02*
X11706586Y-15449008D01*
X11706586Y-15449008D02*
X11725634Y-15439484D01*
X11878015Y-15620436D02*
X11887539Y-15629960D01*
X11887539Y-15629960D02*
X11878015Y-15639484D01*
X11878015Y-15639484D02*
X11868491Y-15629960D01*
X11868491Y-15629960D02*
X11878015Y-15620436D01*
X11878015Y-15620436D02*
X11878015Y-15639484D01*
X12011348Y-15439484D02*
X12030396Y-15439484D01*
X12030396Y-15439484D02*
X12049444Y-15449008D01*
X12049444Y-15449008D02*
X12058967Y-15458531D01*
X12058967Y-15458531D02*
X12068491Y-15477579D01*
X12068491Y-15477579D02*
X12078015Y-15515674D01*
X12078015Y-15515674D02*
X12078015Y-15563293D01*
X12078015Y-15563293D02*
X12068491Y-15601388D01*
X12068491Y-15601388D02*
X12058967Y-15620436D01*
X12058967Y-15620436D02*
X12049444Y-15629960D01*
X12049444Y-15629960D02*
X12030396Y-15639484D01*
X12030396Y-15639484D02*
X12011348Y-15639484D01*
X12011348Y-15639484D02*
X11992301Y-15629960D01*
X11992301Y-15629960D02*
X11982777Y-15620436D01*
X11982777Y-15620436D02*
X11973253Y-15601388D01*
X11973253Y-15601388D02*
X11963729Y-15563293D01*
X11963729Y-15563293D02*
X11963729Y-15515674D01*
X11963729Y-15515674D02*
X11973253Y-15477579D01*
X11973253Y-15477579D02*
X11982777Y-15458531D01*
X11982777Y-15458531D02*
X11992301Y-15449008D01*
X11992301Y-15449008D02*
X12011348Y-15439484D01*
X12192301Y-15525198D02*
X12173253Y-15515674D01*
X12173253Y-15515674D02*
X12163729Y-15506150D01*
X12163729Y-15506150D02*
X12154206Y-15487103D01*
X12154206Y-15487103D02*
X12154206Y-15477579D01*
X12154206Y-15477579D02*
X12163729Y-15458531D01*
X12163729Y-15458531D02*
X12173253Y-15449008D01*
X12173253Y-15449008D02*
X12192301Y-15439484D01*
X12192301Y-15439484D02*
X12230396Y-15439484D01*
X12230396Y-15439484D02*
X12249444Y-15449008D01*
X12249444Y-15449008D02*
X12258967Y-15458531D01*
X12258967Y-15458531D02*
X12268491Y-15477579D01*
X12268491Y-15477579D02*
X12268491Y-15487103D01*
X12268491Y-15487103D02*
X12258967Y-15506150D01*
X12258967Y-15506150D02*
X12249444Y-15515674D01*
X12249444Y-15515674D02*
X12230396Y-15525198D01*
X12230396Y-15525198D02*
X12192301Y-15525198D01*
X12192301Y-15525198D02*
X12173253Y-15534722D01*
X12173253Y-15534722D02*
X12163729Y-15544246D01*
X12163729Y-15544246D02*
X12154206Y-15563293D01*
X12154206Y-15563293D02*
X12154206Y-15601388D01*
X12154206Y-15601388D02*
X12163729Y-15620436D01*
X12163729Y-15620436D02*
X12173253Y-15629960D01*
X12173253Y-15629960D02*
X12192301Y-15639484D01*
X12192301Y-15639484D02*
X12230396Y-15639484D01*
X12230396Y-15639484D02*
X12249444Y-15629960D01*
X12249444Y-15629960D02*
X12258967Y-15620436D01*
X12258967Y-15620436D02*
X12268491Y-15601388D01*
X12268491Y-15601388D02*
X12268491Y-15563293D01*
X12268491Y-15563293D02*
X12258967Y-15544246D01*
X12258967Y-15544246D02*
X12249444Y-15534722D01*
X12249444Y-15534722D02*
X12230396Y-15525198D01*
X12439920Y-15439484D02*
X12401825Y-15439484D01*
X12401825Y-15439484D02*
X12382777Y-15449008D01*
X12382777Y-15449008D02*
X12373253Y-15458531D01*
X12373253Y-15458531D02*
X12354206Y-15487103D01*
X12354206Y-15487103D02*
X12344682Y-15525198D01*
X12344682Y-15525198D02*
X12344682Y-15601388D01*
X12344682Y-15601388D02*
X12354206Y-15620436D01*
X12354206Y-15620436D02*
X12363729Y-15629960D01*
X12363729Y-15629960D02*
X12382777Y-15639484D01*
X12382777Y-15639484D02*
X12420872Y-15639484D01*
X12420872Y-15639484D02*
X12439920Y-15629960D01*
X12439920Y-15629960D02*
X12449444Y-15620436D01*
X12449444Y-15620436D02*
X12458967Y-15601388D01*
X12458967Y-15601388D02*
X12458967Y-15553769D01*
X12458967Y-15553769D02*
X12449444Y-15534722D01*
X12449444Y-15534722D02*
X12439920Y-15525198D01*
X12439920Y-15525198D02*
X12420872Y-15515674D01*
X12420872Y-15515674D02*
X12382777Y-15515674D01*
X12382777Y-15515674D02*
X12363729Y-15525198D01*
X12363729Y-15525198D02*
X12354206Y-15534722D01*
X12354206Y-15534722D02*
X12344682Y-15553769D01*
X12630396Y-15439484D02*
X12592301Y-15439484D01*
X12592301Y-15439484D02*
X12573253Y-15449008D01*
X12573253Y-15449008D02*
X12563729Y-15458531D01*
X12563729Y-15458531D02*
X12544682Y-15487103D01*
X12544682Y-15487103D02*
X12535158Y-15525198D01*
X12535158Y-15525198D02*
X12535158Y-15601388D01*
X12535158Y-15601388D02*
X12544682Y-15620436D01*
X12544682Y-15620436D02*
X12554206Y-15629960D01*
X12554206Y-15629960D02*
X12573253Y-15639484D01*
X12573253Y-15639484D02*
X12611348Y-15639484D01*
X12611348Y-15639484D02*
X12630396Y-15629960D01*
X12630396Y-15629960D02*
X12639920Y-15620436D01*
X12639920Y-15620436D02*
X12649444Y-15601388D01*
X12649444Y-15601388D02*
X12649444Y-15553769D01*
X12649444Y-15553769D02*
X12639920Y-15534722D01*
X12639920Y-15534722D02*
X12630396Y-15525198D01*
X12630396Y-15525198D02*
X12611348Y-15515674D01*
X12611348Y-15515674D02*
X12573253Y-15515674D01*
X12573253Y-15515674D02*
X12554206Y-15525198D01*
X12554206Y-15525198D02*
X12544682Y-15534722D01*
X12544682Y-15534722D02*
X12535158Y-15553769D01*
X12725634Y-15439484D02*
X12725634Y-15477579D01*
X12801825Y-15439484D02*
X12801825Y-15477579D01*
X13097063Y-15715674D02*
X13087539Y-15706150D01*
X13087539Y-15706150D02*
X13068491Y-15677579D01*
X13068491Y-15677579D02*
X13058968Y-15658531D01*
X13058968Y-15658531D02*
X13049444Y-15629960D01*
X13049444Y-15629960D02*
X13039920Y-15582341D01*
X13039920Y-15582341D02*
X13039920Y-15544246D01*
X13039920Y-15544246D02*
X13049444Y-15496627D01*
X13049444Y-15496627D02*
X13058968Y-15468055D01*
X13058968Y-15468055D02*
X13068491Y-15449008D01*
X13068491Y-15449008D02*
X13087539Y-15420436D01*
X13087539Y-15420436D02*
X13097063Y-15410912D01*
X13258968Y-15506150D02*
X13258968Y-15639484D01*
X13211348Y-15429960D02*
X13163729Y-15572817D01*
X13163729Y-15572817D02*
X13287539Y-15572817D01*
X13516110Y-15639484D02*
X13516110Y-15439484D01*
X13601825Y-15639484D02*
X13601825Y-15534722D01*
X13601825Y-15534722D02*
X13592301Y-15515674D01*
X13592301Y-15515674D02*
X13573253Y-15506150D01*
X13573253Y-15506150D02*
X13544682Y-15506150D01*
X13544682Y-15506150D02*
X13525634Y-15515674D01*
X13525634Y-15515674D02*
X13516110Y-15525198D01*
X13725634Y-15639484D02*
X13706587Y-15629960D01*
X13706587Y-15629960D02*
X13697063Y-15620436D01*
X13697063Y-15620436D02*
X13687539Y-15601388D01*
X13687539Y-15601388D02*
X13687539Y-15544246D01*
X13687539Y-15544246D02*
X13697063Y-15525198D01*
X13697063Y-15525198D02*
X13706587Y-15515674D01*
X13706587Y-15515674D02*
X13725634Y-15506150D01*
X13725634Y-15506150D02*
X13754206Y-15506150D01*
X13754206Y-15506150D02*
X13773253Y-15515674D01*
X13773253Y-15515674D02*
X13782777Y-15525198D01*
X13782777Y-15525198D02*
X13792301Y-15544246D01*
X13792301Y-15544246D02*
X13792301Y-15601388D01*
X13792301Y-15601388D02*
X13782777Y-15620436D01*
X13782777Y-15620436D02*
X13773253Y-15629960D01*
X13773253Y-15629960D02*
X13754206Y-15639484D01*
X13754206Y-15639484D02*
X13725634Y-15639484D01*
X13906587Y-15639484D02*
X13887539Y-15629960D01*
X13887539Y-15629960D02*
X13878015Y-15610912D01*
X13878015Y-15610912D02*
X13878015Y-15439484D01*
X14058968Y-15629960D02*
X14039920Y-15639484D01*
X14039920Y-15639484D02*
X14001825Y-15639484D01*
X14001825Y-15639484D02*
X13982777Y-15629960D01*
X13982777Y-15629960D02*
X13973253Y-15610912D01*
X13973253Y-15610912D02*
X13973253Y-15534722D01*
X13973253Y-15534722D02*
X13982777Y-15515674D01*
X13982777Y-15515674D02*
X14001825Y-15506150D01*
X14001825Y-15506150D02*
X14039920Y-15506150D01*
X14039920Y-15506150D02*
X14058968Y-15515674D01*
X14058968Y-15515674D02*
X14068491Y-15534722D01*
X14068491Y-15534722D02*
X14068491Y-15553769D01*
X14068491Y-15553769D02*
X13973253Y-15572817D01*
X14144682Y-15629960D02*
X14163730Y-15639484D01*
X14163730Y-15639484D02*
X14201825Y-15639484D01*
X14201825Y-15639484D02*
X14220872Y-15629960D01*
X14220872Y-15629960D02*
X14230396Y-15610912D01*
X14230396Y-15610912D02*
X14230396Y-15601388D01*
X14230396Y-15601388D02*
X14220872Y-15582341D01*
X14220872Y-15582341D02*
X14201825Y-15572817D01*
X14201825Y-15572817D02*
X14173253Y-15572817D01*
X14173253Y-15572817D02*
X14154206Y-15563293D01*
X14154206Y-15563293D02*
X14144682Y-15544246D01*
X14144682Y-15544246D02*
X14144682Y-15534722D01*
X14144682Y-15534722D02*
X14154206Y-15515674D01*
X14154206Y-15515674D02*
X14173253Y-15506150D01*
X14173253Y-15506150D02*
X14201825Y-15506150D01*
X14201825Y-15506150D02*
X14220872Y-15515674D01*
X14297063Y-15715674D02*
X14306587Y-15706150D01*
X14306587Y-15706150D02*
X14325634Y-15677579D01*
X14325634Y-15677579D02*
X14335158Y-15658531D01*
X14335158Y-15658531D02*
X14344682Y-15629960D01*
X14344682Y-15629960D02*
X14354206Y-15582341D01*
X14354206Y-15582341D02*
X14354206Y-15544246D01*
X14354206Y-15544246D02*
X14344682Y-15496627D01*
X14344682Y-15496627D02*
X14335158Y-15468055D01*
X14335158Y-15468055D02*
X14325634Y-15449008D01*
X14325634Y-15449008D02*
X14306587Y-15420436D01*
X14306587Y-15420436D02*
X14297063Y-15410912D01*
X14658968Y-15715674D02*
X14649444Y-15706150D01*
X14649444Y-15706150D02*
X14630396Y-15677579D01*
X14630396Y-15677579D02*
X14620872Y-15658531D01*
X14620872Y-15658531D02*
X14611349Y-15629960D01*
X14611349Y-15629960D02*
X14601825Y-15582341D01*
X14601825Y-15582341D02*
X14601825Y-15544246D01*
X14601825Y-15544246D02*
X14611349Y-15496627D01*
X14611349Y-15496627D02*
X14620872Y-15468055D01*
X14620872Y-15468055D02*
X14630396Y-15449008D01*
X14630396Y-15449008D02*
X14649444Y-15420436D01*
X14649444Y-15420436D02*
X14658968Y-15410912D01*
X14735158Y-15506150D02*
X14735158Y-15639484D01*
X14735158Y-15525198D02*
X14744682Y-15515674D01*
X14744682Y-15515674D02*
X14763730Y-15506150D01*
X14763730Y-15506150D02*
X14792301Y-15506150D01*
X14792301Y-15506150D02*
X14811349Y-15515674D01*
X14811349Y-15515674D02*
X14820872Y-15534722D01*
X14820872Y-15534722D02*
X14820872Y-15639484D01*
X14944682Y-15639484D02*
X14925634Y-15629960D01*
X14925634Y-15629960D02*
X14916111Y-15620436D01*
X14916111Y-15620436D02*
X14906587Y-15601388D01*
X14906587Y-15601388D02*
X14906587Y-15544246D01*
X14906587Y-15544246D02*
X14916111Y-15525198D01*
X14916111Y-15525198D02*
X14925634Y-15515674D01*
X14925634Y-15515674D02*
X14944682Y-15506150D01*
X14944682Y-15506150D02*
X14973253Y-15506150D01*
X14973253Y-15506150D02*
X14992301Y-15515674D01*
X14992301Y-15515674D02*
X15001825Y-15525198D01*
X15001825Y-15525198D02*
X15011349Y-15544246D01*
X15011349Y-15544246D02*
X15011349Y-15601388D01*
X15011349Y-15601388D02*
X15001825Y-15620436D01*
X15001825Y-15620436D02*
X14992301Y-15629960D01*
X14992301Y-15629960D02*
X14973253Y-15639484D01*
X14973253Y-15639484D02*
X14944682Y-15639484D01*
X15068492Y-15506150D02*
X15144682Y-15506150D01*
X15097063Y-15439484D02*
X15097063Y-15610912D01*
X15097063Y-15610912D02*
X15106587Y-15629960D01*
X15106587Y-15629960D02*
X15125634Y-15639484D01*
X15125634Y-15639484D02*
X15144682Y-15639484D01*
X15363730Y-15506150D02*
X15363730Y-15706150D01*
X15363730Y-15515674D02*
X15382777Y-15506150D01*
X15382777Y-15506150D02*
X15420873Y-15506150D01*
X15420873Y-15506150D02*
X15439920Y-15515674D01*
X15439920Y-15515674D02*
X15449444Y-15525198D01*
X15449444Y-15525198D02*
X15458968Y-15544246D01*
X15458968Y-15544246D02*
X15458968Y-15601388D01*
X15458968Y-15601388D02*
X15449444Y-15620436D01*
X15449444Y-15620436D02*
X15439920Y-15629960D01*
X15439920Y-15629960D02*
X15420873Y-15639484D01*
X15420873Y-15639484D02*
X15382777Y-15639484D01*
X15382777Y-15639484D02*
X15363730Y-15629960D01*
X15573253Y-15639484D02*
X15554206Y-15629960D01*
X15554206Y-15629960D02*
X15544682Y-15610912D01*
X15544682Y-15610912D02*
X15544682Y-15439484D01*
X15735158Y-15639484D02*
X15735158Y-15534722D01*
X15735158Y-15534722D02*
X15725634Y-15515674D01*
X15725634Y-15515674D02*
X15706587Y-15506150D01*
X15706587Y-15506150D02*
X15668492Y-15506150D01*
X15668492Y-15506150D02*
X15649444Y-15515674D01*
X15735158Y-15629960D02*
X15716111Y-15639484D01*
X15716111Y-15639484D02*
X15668492Y-15639484D01*
X15668492Y-15639484D02*
X15649444Y-15629960D01*
X15649444Y-15629960D02*
X15639920Y-15610912D01*
X15639920Y-15610912D02*
X15639920Y-15591865D01*
X15639920Y-15591865D02*
X15649444Y-15572817D01*
X15649444Y-15572817D02*
X15668492Y-15563293D01*
X15668492Y-15563293D02*
X15716111Y-15563293D01*
X15716111Y-15563293D02*
X15735158Y-15553769D01*
X15801825Y-15506150D02*
X15878015Y-15506150D01*
X15830396Y-15439484D02*
X15830396Y-15610912D01*
X15830396Y-15610912D02*
X15839920Y-15629960D01*
X15839920Y-15629960D02*
X15858968Y-15639484D01*
X15858968Y-15639484D02*
X15878015Y-15639484D01*
X16020873Y-15629960D02*
X16001825Y-15639484D01*
X16001825Y-15639484D02*
X15963730Y-15639484D01*
X15963730Y-15639484D02*
X15944682Y-15629960D01*
X15944682Y-15629960D02*
X15935158Y-15610912D01*
X15935158Y-15610912D02*
X15935158Y-15534722D01*
X15935158Y-15534722D02*
X15944682Y-15515674D01*
X15944682Y-15515674D02*
X15963730Y-15506150D01*
X15963730Y-15506150D02*
X16001825Y-15506150D01*
X16001825Y-15506150D02*
X16020873Y-15515674D01*
X16020873Y-15515674D02*
X16030396Y-15534722D01*
X16030396Y-15534722D02*
X16030396Y-15553769D01*
X16030396Y-15553769D02*
X15935158Y-15572817D01*
X16201825Y-15639484D02*
X16201825Y-15439484D01*
X16201825Y-15629960D02*
X16182777Y-15639484D01*
X16182777Y-15639484D02*
X16144682Y-15639484D01*
X16144682Y-15639484D02*
X16125634Y-15629960D01*
X16125634Y-15629960D02*
X16116111Y-15620436D01*
X16116111Y-15620436D02*
X16106587Y-15601388D01*
X16106587Y-15601388D02*
X16106587Y-15544246D01*
X16106587Y-15544246D02*
X16116111Y-15525198D01*
X16116111Y-15525198D02*
X16125634Y-15515674D01*
X16125634Y-15515674D02*
X16144682Y-15506150D01*
X16144682Y-15506150D02*
X16182777Y-15506150D01*
X16182777Y-15506150D02*
X16201825Y-15515674D01*
X16278015Y-15715674D02*
X16287539Y-15706150D01*
X16287539Y-15706150D02*
X16306587Y-15677579D01*
X16306587Y-15677579D02*
X16316111Y-15658531D01*
X16316111Y-15658531D02*
X16325634Y-15629960D01*
X16325634Y-15629960D02*
X16335158Y-15582341D01*
X16335158Y-15582341D02*
X16335158Y-15544246D01*
X16335158Y-15544246D02*
X16325634Y-15496627D01*
X16325634Y-15496627D02*
X16316111Y-15468055D01*
X16316111Y-15468055D02*
X16306587Y-15449008D01*
X16306587Y-15449008D02*
X16287539Y-15420436D01*
X16287539Y-15420436D02*
X16278015Y-15410912D01*
X9522000Y-15868000D02*
G75*
G02*
X9322000Y-15868000I-100000J0D01*
G01*
X9322000Y-15868000D02*
G75*
G02*
X9522000Y-15868000I100000J0D01*
G01*
X9763729Y-15759484D02*
X9897063Y-15759484D01*
X9897063Y-15759484D02*
X9811348Y-15959484D01*
X9973253Y-15940436D02*
X9982777Y-15949960D01*
X9982777Y-15949960D02*
X9973253Y-15959484D01*
X9973253Y-15959484D02*
X9963729Y-15949960D01*
X9963729Y-15949960D02*
X9973253Y-15940436D01*
X9973253Y-15940436D02*
X9973253Y-15959484D01*
X10097063Y-15845198D02*
X10078015Y-15835674D01*
X10078015Y-15835674D02*
X10068491Y-15826150D01*
X10068491Y-15826150D02*
X10058967Y-15807103D01*
X10058967Y-15807103D02*
X10058967Y-15797579D01*
X10058967Y-15797579D02*
X10068491Y-15778531D01*
X10068491Y-15778531D02*
X10078015Y-15769008D01*
X10078015Y-15769008D02*
X10097063Y-15759484D01*
X10097063Y-15759484D02*
X10135158Y-15759484D01*
X10135158Y-15759484D02*
X10154205Y-15769008D01*
X10154205Y-15769008D02*
X10163729Y-15778531D01*
X10163729Y-15778531D02*
X10173253Y-15797579D01*
X10173253Y-15797579D02*
X10173253Y-15807103D01*
X10173253Y-15807103D02*
X10163729Y-15826150D01*
X10163729Y-15826150D02*
X10154205Y-15835674D01*
X10154205Y-15835674D02*
X10135158Y-15845198D01*
X10135158Y-15845198D02*
X10097063Y-15845198D01*
X10097063Y-15845198D02*
X10078015Y-15854722D01*
X10078015Y-15854722D02*
X10068491Y-15864246D01*
X10068491Y-15864246D02*
X10058967Y-15883293D01*
X10058967Y-15883293D02*
X10058967Y-15921388D01*
X10058967Y-15921388D02*
X10068491Y-15940436D01*
X10068491Y-15940436D02*
X10078015Y-15949960D01*
X10078015Y-15949960D02*
X10097063Y-15959484D01*
X10097063Y-15959484D02*
X10135158Y-15959484D01*
X10135158Y-15959484D02*
X10154205Y-15949960D01*
X10154205Y-15949960D02*
X10163729Y-15940436D01*
X10163729Y-15940436D02*
X10173253Y-15921388D01*
X10173253Y-15921388D02*
X10173253Y-15883293D01*
X10173253Y-15883293D02*
X10163729Y-15864246D01*
X10163729Y-15864246D02*
X10154205Y-15854722D01*
X10154205Y-15854722D02*
X10135158Y-15845198D01*
X10297063Y-15759484D02*
X10316110Y-15759484D01*
X10316110Y-15759484D02*
X10335158Y-15769008D01*
X10335158Y-15769008D02*
X10344682Y-15778531D01*
X10344682Y-15778531D02*
X10354205Y-15797579D01*
X10354205Y-15797579D02*
X10363729Y-15835674D01*
X10363729Y-15835674D02*
X10363729Y-15883293D01*
X10363729Y-15883293D02*
X10354205Y-15921388D01*
X10354205Y-15921388D02*
X10344682Y-15940436D01*
X10344682Y-15940436D02*
X10335158Y-15949960D01*
X10335158Y-15949960D02*
X10316110Y-15959484D01*
X10316110Y-15959484D02*
X10297063Y-15959484D01*
X10297063Y-15959484D02*
X10278015Y-15949960D01*
X10278015Y-15949960D02*
X10268491Y-15940436D01*
X10268491Y-15940436D02*
X10258967Y-15921388D01*
X10258967Y-15921388D02*
X10249444Y-15883293D01*
X10249444Y-15883293D02*
X10249444Y-15835674D01*
X10249444Y-15835674D02*
X10258967Y-15797579D01*
X10258967Y-15797579D02*
X10268491Y-15778531D01*
X10268491Y-15778531D02*
X10278015Y-15769008D01*
X10278015Y-15769008D02*
X10297063Y-15759484D01*
X10487539Y-15759484D02*
X10506586Y-15759484D01*
X10506586Y-15759484D02*
X10525634Y-15769008D01*
X10525634Y-15769008D02*
X10535158Y-15778531D01*
X10535158Y-15778531D02*
X10544682Y-15797579D01*
X10544682Y-15797579D02*
X10554205Y-15835674D01*
X10554205Y-15835674D02*
X10554205Y-15883293D01*
X10554205Y-15883293D02*
X10544682Y-15921388D01*
X10544682Y-15921388D02*
X10535158Y-15940436D01*
X10535158Y-15940436D02*
X10525634Y-15949960D01*
X10525634Y-15949960D02*
X10506586Y-15959484D01*
X10506586Y-15959484D02*
X10487539Y-15959484D01*
X10487539Y-15959484D02*
X10468491Y-15949960D01*
X10468491Y-15949960D02*
X10458967Y-15940436D01*
X10458967Y-15940436D02*
X10449444Y-15921388D01*
X10449444Y-15921388D02*
X10439920Y-15883293D01*
X10439920Y-15883293D02*
X10439920Y-15835674D01*
X10439920Y-15835674D02*
X10449444Y-15797579D01*
X10449444Y-15797579D02*
X10458967Y-15778531D01*
X10458967Y-15778531D02*
X10468491Y-15769008D01*
X10468491Y-15769008D02*
X10487539Y-15759484D01*
X10639920Y-15959484D02*
X10639920Y-15826150D01*
X10639920Y-15845198D02*
X10649444Y-15835674D01*
X10649444Y-15835674D02*
X10668491Y-15826150D01*
X10668491Y-15826150D02*
X10697063Y-15826150D01*
X10697063Y-15826150D02*
X10716110Y-15835674D01*
X10716110Y-15835674D02*
X10725634Y-15854722D01*
X10725634Y-15854722D02*
X10725634Y-15959484D01*
X10725634Y-15854722D02*
X10735158Y-15835674D01*
X10735158Y-15835674D02*
X10754205Y-15826150D01*
X10754205Y-15826150D02*
X10782777Y-15826150D01*
X10782777Y-15826150D02*
X10801825Y-15835674D01*
X10801825Y-15835674D02*
X10811348Y-15854722D01*
X10811348Y-15854722D02*
X10811348Y-15959484D01*
X10906586Y-15959484D02*
X10906586Y-15826150D01*
X10906586Y-15845198D02*
X10916110Y-15835674D01*
X10916110Y-15835674D02*
X10935158Y-15826150D01*
X10935158Y-15826150D02*
X10963729Y-15826150D01*
X10963729Y-15826150D02*
X10982777Y-15835674D01*
X10982777Y-15835674D02*
X10992301Y-15854722D01*
X10992301Y-15854722D02*
X10992301Y-15959484D01*
X10992301Y-15854722D02*
X11001825Y-15835674D01*
X11001825Y-15835674D02*
X11020872Y-15826150D01*
X11020872Y-15826150D02*
X11049444Y-15826150D01*
X11049444Y-15826150D02*
X11068491Y-15835674D01*
X11068491Y-15835674D02*
X11078015Y-15854722D01*
X11078015Y-15854722D02*
X11078015Y-15959484D01*
X11468491Y-15749960D02*
X11297063Y-16007103D01*
X11725634Y-15759484D02*
X11744682Y-15759484D01*
X11744682Y-15759484D02*
X11763729Y-15769008D01*
X11763729Y-15769008D02*
X11773253Y-15778531D01*
X11773253Y-15778531D02*
X11782777Y-15797579D01*
X11782777Y-15797579D02*
X11792301Y-15835674D01*
X11792301Y-15835674D02*
X11792301Y-15883293D01*
X11792301Y-15883293D02*
X11782777Y-15921388D01*
X11782777Y-15921388D02*
X11773253Y-15940436D01*
X11773253Y-15940436D02*
X11763729Y-15949960D01*
X11763729Y-15949960D02*
X11744682Y-15959484D01*
X11744682Y-15959484D02*
X11725634Y-15959484D01*
X11725634Y-15959484D02*
X11706586Y-15949960D01*
X11706586Y-15949960D02*
X11697063Y-15940436D01*
X11697063Y-15940436D02*
X11687539Y-15921388D01*
X11687539Y-15921388D02*
X11678015Y-15883293D01*
X11678015Y-15883293D02*
X11678015Y-15835674D01*
X11678015Y-15835674D02*
X11687539Y-15797579D01*
X11687539Y-15797579D02*
X11697063Y-15778531D01*
X11697063Y-15778531D02*
X11706586Y-15769008D01*
X11706586Y-15769008D02*
X11725634Y-15759484D01*
X11878015Y-15940436D02*
X11887539Y-15949960D01*
X11887539Y-15949960D02*
X11878015Y-15959484D01*
X11878015Y-15959484D02*
X11868491Y-15949960D01*
X11868491Y-15949960D02*
X11878015Y-15940436D01*
X11878015Y-15940436D02*
X11878015Y-15959484D01*
X11954206Y-15759484D02*
X12078015Y-15759484D01*
X12078015Y-15759484D02*
X12011348Y-15835674D01*
X12011348Y-15835674D02*
X12039920Y-15835674D01*
X12039920Y-15835674D02*
X12058967Y-15845198D01*
X12058967Y-15845198D02*
X12068491Y-15854722D01*
X12068491Y-15854722D02*
X12078015Y-15873769D01*
X12078015Y-15873769D02*
X12078015Y-15921388D01*
X12078015Y-15921388D02*
X12068491Y-15940436D01*
X12068491Y-15940436D02*
X12058967Y-15949960D01*
X12058967Y-15949960D02*
X12039920Y-15959484D01*
X12039920Y-15959484D02*
X11982777Y-15959484D01*
X11982777Y-15959484D02*
X11963729Y-15949960D01*
X11963729Y-15949960D02*
X11954206Y-15940436D01*
X12201825Y-15759484D02*
X12220872Y-15759484D01*
X12220872Y-15759484D02*
X12239920Y-15769008D01*
X12239920Y-15769008D02*
X12249444Y-15778531D01*
X12249444Y-15778531D02*
X12258967Y-15797579D01*
X12258967Y-15797579D02*
X12268491Y-15835674D01*
X12268491Y-15835674D02*
X12268491Y-15883293D01*
X12268491Y-15883293D02*
X12258967Y-15921388D01*
X12258967Y-15921388D02*
X12249444Y-15940436D01*
X12249444Y-15940436D02*
X12239920Y-15949960D01*
X12239920Y-15949960D02*
X12220872Y-15959484D01*
X12220872Y-15959484D02*
X12201825Y-15959484D01*
X12201825Y-15959484D02*
X12182777Y-15949960D01*
X12182777Y-15949960D02*
X12173253Y-15940436D01*
X12173253Y-15940436D02*
X12163729Y-15921388D01*
X12163729Y-15921388D02*
X12154206Y-15883293D01*
X12154206Y-15883293D02*
X12154206Y-15835674D01*
X12154206Y-15835674D02*
X12163729Y-15797579D01*
X12163729Y-15797579D02*
X12173253Y-15778531D01*
X12173253Y-15778531D02*
X12182777Y-15769008D01*
X12182777Y-15769008D02*
X12201825Y-15759484D01*
X12335158Y-15759484D02*
X12468491Y-15759484D01*
X12468491Y-15759484D02*
X12382777Y-15959484D01*
X12649444Y-15959484D02*
X12535158Y-15959484D01*
X12592301Y-15959484D02*
X12592301Y-15759484D01*
X12592301Y-15759484D02*
X12573253Y-15788055D01*
X12573253Y-15788055D02*
X12554206Y-15807103D01*
X12554206Y-15807103D02*
X12535158Y-15816627D01*
X12725634Y-15759484D02*
X12725634Y-15797579D01*
X12801825Y-15759484D02*
X12801825Y-15797579D01*
X13097063Y-16035674D02*
X13087539Y-16026150D01*
X13087539Y-16026150D02*
X13068491Y-15997579D01*
X13068491Y-15997579D02*
X13058968Y-15978531D01*
X13058968Y-15978531D02*
X13049444Y-15949960D01*
X13049444Y-15949960D02*
X13039920Y-15902341D01*
X13039920Y-15902341D02*
X13039920Y-15864246D01*
X13039920Y-15864246D02*
X13049444Y-15816627D01*
X13049444Y-15816627D02*
X13058968Y-15788055D01*
X13058968Y-15788055D02*
X13068491Y-15769008D01*
X13068491Y-15769008D02*
X13087539Y-15740436D01*
X13087539Y-15740436D02*
X13097063Y-15730912D01*
X13258968Y-15826150D02*
X13258968Y-15959484D01*
X13211348Y-15749960D02*
X13163729Y-15892817D01*
X13163729Y-15892817D02*
X13287539Y-15892817D01*
X13516110Y-15959484D02*
X13516110Y-15759484D01*
X13601825Y-15959484D02*
X13601825Y-15854722D01*
X13601825Y-15854722D02*
X13592301Y-15835674D01*
X13592301Y-15835674D02*
X13573253Y-15826150D01*
X13573253Y-15826150D02*
X13544682Y-15826150D01*
X13544682Y-15826150D02*
X13525634Y-15835674D01*
X13525634Y-15835674D02*
X13516110Y-15845198D01*
X13725634Y-15959484D02*
X13706587Y-15949960D01*
X13706587Y-15949960D02*
X13697063Y-15940436D01*
X13697063Y-15940436D02*
X13687539Y-15921388D01*
X13687539Y-15921388D02*
X13687539Y-15864246D01*
X13687539Y-15864246D02*
X13697063Y-15845198D01*
X13697063Y-15845198D02*
X13706587Y-15835674D01*
X13706587Y-15835674D02*
X13725634Y-15826150D01*
X13725634Y-15826150D02*
X13754206Y-15826150D01*
X13754206Y-15826150D02*
X13773253Y-15835674D01*
X13773253Y-15835674D02*
X13782777Y-15845198D01*
X13782777Y-15845198D02*
X13792301Y-15864246D01*
X13792301Y-15864246D02*
X13792301Y-15921388D01*
X13792301Y-15921388D02*
X13782777Y-15940436D01*
X13782777Y-15940436D02*
X13773253Y-15949960D01*
X13773253Y-15949960D02*
X13754206Y-15959484D01*
X13754206Y-15959484D02*
X13725634Y-15959484D01*
X13906587Y-15959484D02*
X13887539Y-15949960D01*
X13887539Y-15949960D02*
X13878015Y-15930912D01*
X13878015Y-15930912D02*
X13878015Y-15759484D01*
X14058968Y-15949960D02*
X14039920Y-15959484D01*
X14039920Y-15959484D02*
X14001825Y-15959484D01*
X14001825Y-15959484D02*
X13982777Y-15949960D01*
X13982777Y-15949960D02*
X13973253Y-15930912D01*
X13973253Y-15930912D02*
X13973253Y-15854722D01*
X13973253Y-15854722D02*
X13982777Y-15835674D01*
X13982777Y-15835674D02*
X14001825Y-15826150D01*
X14001825Y-15826150D02*
X14039920Y-15826150D01*
X14039920Y-15826150D02*
X14058968Y-15835674D01*
X14058968Y-15835674D02*
X14068491Y-15854722D01*
X14068491Y-15854722D02*
X14068491Y-15873769D01*
X14068491Y-15873769D02*
X13973253Y-15892817D01*
X14144682Y-15949960D02*
X14163730Y-15959484D01*
X14163730Y-15959484D02*
X14201825Y-15959484D01*
X14201825Y-15959484D02*
X14220872Y-15949960D01*
X14220872Y-15949960D02*
X14230396Y-15930912D01*
X14230396Y-15930912D02*
X14230396Y-15921388D01*
X14230396Y-15921388D02*
X14220872Y-15902341D01*
X14220872Y-15902341D02*
X14201825Y-15892817D01*
X14201825Y-15892817D02*
X14173253Y-15892817D01*
X14173253Y-15892817D02*
X14154206Y-15883293D01*
X14154206Y-15883293D02*
X14144682Y-15864246D01*
X14144682Y-15864246D02*
X14144682Y-15854722D01*
X14144682Y-15854722D02*
X14154206Y-15835674D01*
X14154206Y-15835674D02*
X14173253Y-15826150D01*
X14173253Y-15826150D02*
X14201825Y-15826150D01*
X14201825Y-15826150D02*
X14220872Y-15835674D01*
X14297063Y-16035674D02*
X14306587Y-16026150D01*
X14306587Y-16026150D02*
X14325634Y-15997579D01*
X14325634Y-15997579D02*
X14335158Y-15978531D01*
X14335158Y-15978531D02*
X14344682Y-15949960D01*
X14344682Y-15949960D02*
X14354206Y-15902341D01*
X14354206Y-15902341D02*
X14354206Y-15864246D01*
X14354206Y-15864246D02*
X14344682Y-15816627D01*
X14344682Y-15816627D02*
X14335158Y-15788055D01*
X14335158Y-15788055D02*
X14325634Y-15769008D01*
X14325634Y-15769008D02*
X14306587Y-15740436D01*
X14306587Y-15740436D02*
X14297063Y-15730912D01*
X14658968Y-16035674D02*
X14649444Y-16026150D01*
X14649444Y-16026150D02*
X14630396Y-15997579D01*
X14630396Y-15997579D02*
X14620872Y-15978531D01*
X14620872Y-15978531D02*
X14611349Y-15949960D01*
X14611349Y-15949960D02*
X14601825Y-15902341D01*
X14601825Y-15902341D02*
X14601825Y-15864246D01*
X14601825Y-15864246D02*
X14611349Y-15816627D01*
X14611349Y-15816627D02*
X14620872Y-15788055D01*
X14620872Y-15788055D02*
X14630396Y-15769008D01*
X14630396Y-15769008D02*
X14649444Y-15740436D01*
X14649444Y-15740436D02*
X14658968Y-15730912D01*
X14735158Y-15826150D02*
X14735158Y-15959484D01*
X14735158Y-15845198D02*
X14744682Y-15835674D01*
X14744682Y-15835674D02*
X14763730Y-15826150D01*
X14763730Y-15826150D02*
X14792301Y-15826150D01*
X14792301Y-15826150D02*
X14811349Y-15835674D01*
X14811349Y-15835674D02*
X14820872Y-15854722D01*
X14820872Y-15854722D02*
X14820872Y-15959484D01*
X14944682Y-15959484D02*
X14925634Y-15949960D01*
X14925634Y-15949960D02*
X14916111Y-15940436D01*
X14916111Y-15940436D02*
X14906587Y-15921388D01*
X14906587Y-15921388D02*
X14906587Y-15864246D01*
X14906587Y-15864246D02*
X14916111Y-15845198D01*
X14916111Y-15845198D02*
X14925634Y-15835674D01*
X14925634Y-15835674D02*
X14944682Y-15826150D01*
X14944682Y-15826150D02*
X14973253Y-15826150D01*
X14973253Y-15826150D02*
X14992301Y-15835674D01*
X14992301Y-15835674D02*
X15001825Y-15845198D01*
X15001825Y-15845198D02*
X15011349Y-15864246D01*
X15011349Y-15864246D02*
X15011349Y-15921388D01*
X15011349Y-15921388D02*
X15001825Y-15940436D01*
X15001825Y-15940436D02*
X14992301Y-15949960D01*
X14992301Y-15949960D02*
X14973253Y-15959484D01*
X14973253Y-15959484D02*
X14944682Y-15959484D01*
X15068492Y-15826150D02*
X15144682Y-15826150D01*
X15097063Y-15759484D02*
X15097063Y-15930912D01*
X15097063Y-15930912D02*
X15106587Y-15949960D01*
X15106587Y-15949960D02*
X15125634Y-15959484D01*
X15125634Y-15959484D02*
X15144682Y-15959484D01*
X15363730Y-15826150D02*
X15363730Y-16026150D01*
X15363730Y-15835674D02*
X15382777Y-15826150D01*
X15382777Y-15826150D02*
X15420873Y-15826150D01*
X15420873Y-15826150D02*
X15439920Y-15835674D01*
X15439920Y-15835674D02*
X15449444Y-15845198D01*
X15449444Y-15845198D02*
X15458968Y-15864246D01*
X15458968Y-15864246D02*
X15458968Y-15921388D01*
X15458968Y-15921388D02*
X15449444Y-15940436D01*
X15449444Y-15940436D02*
X15439920Y-15949960D01*
X15439920Y-15949960D02*
X15420873Y-15959484D01*
X15420873Y-15959484D02*
X15382777Y-15959484D01*
X15382777Y-15959484D02*
X15363730Y-15949960D01*
X15573253Y-15959484D02*
X15554206Y-15949960D01*
X15554206Y-15949960D02*
X15544682Y-15930912D01*
X15544682Y-15930912D02*
X15544682Y-15759484D01*
X15735158Y-15959484D02*
X15735158Y-15854722D01*
X15735158Y-15854722D02*
X15725634Y-15835674D01*
X15725634Y-15835674D02*
X15706587Y-15826150D01*
X15706587Y-15826150D02*
X15668492Y-15826150D01*
X15668492Y-15826150D02*
X15649444Y-15835674D01*
X15735158Y-15949960D02*
X15716111Y-15959484D01*
X15716111Y-15959484D02*
X15668492Y-15959484D01*
X15668492Y-15959484D02*
X15649444Y-15949960D01*
X15649444Y-15949960D02*
X15639920Y-15930912D01*
X15639920Y-15930912D02*
X15639920Y-15911865D01*
X15639920Y-15911865D02*
X15649444Y-15892817D01*
X15649444Y-15892817D02*
X15668492Y-15883293D01*
X15668492Y-15883293D02*
X15716111Y-15883293D01*
X15716111Y-15883293D02*
X15735158Y-15873769D01*
X15801825Y-15826150D02*
X15878015Y-15826150D01*
X15830396Y-15759484D02*
X15830396Y-15930912D01*
X15830396Y-15930912D02*
X15839920Y-15949960D01*
X15839920Y-15949960D02*
X15858968Y-15959484D01*
X15858968Y-15959484D02*
X15878015Y-15959484D01*
X16020873Y-15949960D02*
X16001825Y-15959484D01*
X16001825Y-15959484D02*
X15963730Y-15959484D01*
X15963730Y-15959484D02*
X15944682Y-15949960D01*
X15944682Y-15949960D02*
X15935158Y-15930912D01*
X15935158Y-15930912D02*
X15935158Y-15854722D01*
X15935158Y-15854722D02*
X15944682Y-15835674D01*
X15944682Y-15835674D02*
X15963730Y-15826150D01*
X15963730Y-15826150D02*
X16001825Y-15826150D01*
X16001825Y-15826150D02*
X16020873Y-15835674D01*
X16020873Y-15835674D02*
X16030396Y-15854722D01*
X16030396Y-15854722D02*
X16030396Y-15873769D01*
X16030396Y-15873769D02*
X15935158Y-15892817D01*
X16201825Y-15959484D02*
X16201825Y-15759484D01*
X16201825Y-15949960D02*
X16182777Y-15959484D01*
X16182777Y-15959484D02*
X16144682Y-15959484D01*
X16144682Y-15959484D02*
X16125634Y-15949960D01*
X16125634Y-15949960D02*
X16116111Y-15940436D01*
X16116111Y-15940436D02*
X16106587Y-15921388D01*
X16106587Y-15921388D02*
X16106587Y-15864246D01*
X16106587Y-15864246D02*
X16116111Y-15845198D01*
X16116111Y-15845198D02*
X16125634Y-15835674D01*
X16125634Y-15835674D02*
X16144682Y-15826150D01*
X16144682Y-15826150D02*
X16182777Y-15826150D01*
X16182777Y-15826150D02*
X16201825Y-15835674D01*
X16278015Y-16035674D02*
X16287539Y-16026150D01*
X16287539Y-16026150D02*
X16306587Y-15997579D01*
X16306587Y-15997579D02*
X16316111Y-15978531D01*
X16316111Y-15978531D02*
X16325634Y-15949960D01*
X16325634Y-15949960D02*
X16335158Y-15902341D01*
X16335158Y-15902341D02*
X16335158Y-15864246D01*
X16335158Y-15864246D02*
X16325634Y-15816627D01*
X16325634Y-15816627D02*
X16316111Y-15788055D01*
X16316111Y-15788055D02*
X16306587Y-15769008D01*
X16306587Y-15769008D02*
X16287539Y-15740436D01*
X16287539Y-15740436D02*
X16278015Y-15730912D01*
M02*
