%TF.GenerationSoftware,KiCad,Pcbnew,10.0.1*%
%TF.CreationDate,2026-06-16T19:36:09+02:00*%
%TF.ProjectId,sensegate_pcb,73656e73-6567-4617-9465-5f7063622e6b,rev?*%
%TF.SameCoordinates,Original*%
%TF.FileFunction,Profile,NP*%
%FSLAX46Y46*%
G04 Gerber Fmt 4.6, Leading zero omitted, Abs format (unit mm)*
G04 Created by KiCad (PCBNEW 10.0.1) date 2026-06-16 19:36:09*
%MOMM*%
%LPD*%
G01*
G04 APERTURE LIST*
%TA.AperFunction,Profile*%
%ADD10C,0.200000*%
%TD*%
%TA.AperFunction,Profile*%
%ADD11C,0.100000*%
%TD*%
G04 APERTURE END LIST*
D10*
X95320000Y-51530000D02*
X97270000Y-39660000D01*
X95320000Y-136420000D02*
X95320000Y-51530000D01*
X97270000Y-39660000D02*
X98110000Y-38990000D01*
X97280000Y-148340000D02*
X95320000Y-136420000D01*
X98070000Y-148970000D02*
X97280000Y-148340000D01*
X98110000Y-38990000D02*
X157110000Y-38990000D01*
D11*
X98546035Y-138762874D02*
X98584992Y-138367340D01*
X98546035Y-138767547D02*
X98546035Y-138762874D01*
X98546035Y-139160322D02*
X98546035Y-138767547D01*
X98556035Y-48772874D02*
X98594992Y-48377340D01*
X98556035Y-48777547D02*
X98556035Y-48772874D01*
X98556035Y-49170322D02*
X98556035Y-48777547D01*
X98584992Y-138367340D02*
X98662530Y-137977528D01*
X98584992Y-139555856D02*
X98546035Y-139160322D01*
X98594992Y-48377340D02*
X98672530Y-47987528D01*
X98594992Y-49565856D02*
X98556035Y-49170322D01*
X98641157Y-138767547D02*
X98641157Y-139155649D01*
X98641157Y-139155649D02*
X98679197Y-139541882D01*
X98651157Y-48777547D02*
X98651157Y-49165649D01*
X98651157Y-49165649D02*
X98689197Y-49551882D01*
X98662530Y-137977528D02*
X98777904Y-137597194D01*
X98662530Y-139945668D02*
X98584992Y-139555856D01*
X98672530Y-47987528D02*
X98787904Y-47607194D01*
X98672530Y-49955668D02*
X98594992Y-49565856D01*
X98679197Y-138381314D02*
X98641157Y-138767547D01*
X98679197Y-139541882D02*
X98754912Y-139922527D01*
X98689197Y-48391314D02*
X98651157Y-48777547D01*
X98689197Y-49551882D02*
X98764912Y-49932527D01*
X98754912Y-138000669D02*
X98679197Y-138381314D01*
X98754912Y-139922527D02*
X98867572Y-140293918D01*
X98764912Y-48010669D02*
X98689197Y-48391314D01*
X98764912Y-49932527D02*
X98877572Y-50303918D01*
X98777904Y-137597194D02*
X98930000Y-137230000D01*
X98777904Y-140326002D02*
X98662530Y-139945668D01*
X98787904Y-47607194D02*
X98940000Y-47240000D01*
X98787904Y-50336002D02*
X98672530Y-49955668D01*
X98867572Y-137629278D02*
X98754912Y-138000669D01*
X98867572Y-140293918D02*
X99016093Y-140652477D01*
X98877572Y-47639278D02*
X98764912Y-48010669D01*
X98877572Y-50303918D02*
X99026093Y-50662477D01*
X98930000Y-137230000D02*
X99117356Y-136879482D01*
X98930000Y-140693196D02*
X98777904Y-140326002D01*
X98940000Y-47240000D02*
X99127356Y-46889482D01*
X98940000Y-50703196D02*
X98787904Y-50336002D01*
X99016093Y-137270719D02*
X98867572Y-137629278D01*
X99016093Y-140652477D02*
X99199043Y-140994753D01*
X99026093Y-47280719D02*
X98877572Y-47639278D01*
X99026093Y-50662477D02*
X99209043Y-51004753D01*
X99117356Y-136879482D02*
X99338166Y-136549016D01*
X99117356Y-141043714D02*
X98930000Y-140693196D01*
X99127356Y-46889482D02*
X99348166Y-46559016D01*
X99127356Y-51053714D02*
X98940000Y-50703196D01*
X99199043Y-136928443D02*
X99016093Y-137270719D01*
X99199043Y-140994753D02*
X99414661Y-141317448D01*
X99209043Y-46938443D02*
X99026093Y-47280719D01*
X99209043Y-51004753D02*
X99424661Y-51327448D01*
X99338166Y-136549016D02*
X99590305Y-136241784D01*
X99338166Y-141374180D02*
X99117356Y-141043714D01*
X99348166Y-46559016D02*
X99600305Y-46251784D01*
X99348166Y-51384180D02*
X99127356Y-51053714D01*
X99414661Y-136605748D02*
X99199043Y-136928443D01*
X99414661Y-141317448D02*
X99660870Y-141617455D01*
X99424661Y-46615748D02*
X99209043Y-46938443D01*
X99424661Y-51327448D02*
X99670870Y-51627455D01*
X99590305Y-136241784D02*
X99871343Y-135960746D01*
X99590305Y-141681412D02*
X99338166Y-141374180D01*
X99600305Y-46251784D02*
X99881343Y-45970746D01*
X99600305Y-51691412D02*
X99348166Y-51384180D01*
X99660870Y-136305741D02*
X99414661Y-136605748D01*
X99660870Y-141617455D02*
X99935300Y-141891885D01*
X99670870Y-46315741D02*
X99424661Y-46615748D01*
X99670870Y-51627455D02*
X99945300Y-51901885D01*
X99871343Y-135960746D02*
X100178575Y-135708607D01*
X99871343Y-141962450D02*
X99590305Y-141681412D01*
X99881343Y-45970746D02*
X100188575Y-45718607D01*
X99881343Y-51972450D02*
X99600305Y-51691412D01*
X99935300Y-136031311D02*
X99660870Y-136305741D01*
X99935300Y-141891885D02*
X100235307Y-142138094D01*
X99945300Y-46041311D02*
X99670870Y-46315741D01*
X99945300Y-51901885D02*
X100245307Y-52148094D01*
X100178575Y-135708607D02*
X100509041Y-135487797D01*
X100178575Y-142214589D02*
X99871343Y-141962450D01*
X100188575Y-45718607D02*
X100519041Y-45497797D01*
X100188575Y-52224589D02*
X99881343Y-51972450D01*
X100235307Y-135785102D02*
X99935300Y-136031311D01*
X100235307Y-142138094D02*
X100558002Y-142353712D01*
X100245307Y-45795102D02*
X99945300Y-46041311D01*
X100245307Y-52148094D02*
X100568002Y-52363712D01*
X100509041Y-135487797D02*
X100859559Y-135300441D01*
X100509041Y-142435399D02*
X100178575Y-142214589D01*
X100519041Y-45497797D02*
X100869559Y-45310441D01*
X100519041Y-52445399D02*
X100188575Y-52224589D01*
X100558002Y-135569484D02*
X100235307Y-135785102D01*
X100558002Y-142353712D02*
X100900278Y-142536662D01*
X100568002Y-45579484D02*
X100245307Y-45795102D01*
X100568002Y-52363712D02*
X100910278Y-52546662D01*
X100859559Y-135300441D02*
X101226753Y-135148345D01*
X100859559Y-142622755D02*
X100509041Y-142435399D01*
X100869559Y-45310441D02*
X101236753Y-45158345D01*
X100869559Y-52632755D02*
X100519041Y-52445399D01*
X100900278Y-135386534D02*
X100558002Y-135569484D01*
X100900278Y-142536662D02*
X101258837Y-142685183D01*
X100910278Y-45396534D02*
X100568002Y-45579484D01*
X100910278Y-52546662D02*
X101268837Y-52695183D01*
X101226753Y-135148345D02*
X101607087Y-135032971D01*
X101226753Y-142774851D02*
X100859559Y-142622755D01*
X101236753Y-45158345D02*
X101617087Y-45042971D01*
X101236753Y-52784851D02*
X100869559Y-52632755D01*
X101258837Y-135238013D02*
X100900278Y-135386534D01*
X101258837Y-142685183D02*
X101630228Y-142797843D01*
X101268837Y-45248013D02*
X100910278Y-45396534D01*
X101268837Y-52695183D02*
X101640228Y-52807843D01*
X101607087Y-135032971D02*
X101996899Y-134955433D01*
X101607087Y-142890225D02*
X101226753Y-142774851D01*
X101617087Y-45042971D02*
X102006899Y-44965433D01*
X101617087Y-52900225D02*
X101236753Y-52784851D01*
X101630228Y-135125353D02*
X101258837Y-135238013D01*
X101630228Y-142797843D02*
X102010873Y-142873558D01*
X101640228Y-45135353D02*
X101268837Y-45248013D01*
X101640228Y-52807843D02*
X102020873Y-52883558D01*
X101996899Y-134955433D02*
X102392433Y-134916476D01*
X101996899Y-142967763D02*
X101607087Y-142890225D01*
X102006899Y-44965433D02*
X102402433Y-44926476D01*
X102006899Y-52977763D02*
X101617087Y-52900225D01*
X102010873Y-135049638D02*
X101630228Y-135125353D01*
X102010873Y-142873558D02*
X102397106Y-142911598D01*
X102020873Y-45059638D02*
X101640228Y-45135353D01*
X102020873Y-52883558D02*
X102407106Y-52921598D01*
X102392433Y-134916476D02*
X102789881Y-134916476D01*
X102392433Y-143006720D02*
X101996899Y-142967763D01*
X102397106Y-135011598D02*
X102010873Y-135049638D01*
X102397106Y-142911598D02*
X102785208Y-142911598D01*
X102402433Y-44926476D02*
X102799881Y-44926476D01*
X102402433Y-53016720D02*
X102006899Y-52977763D01*
X102407106Y-45021598D02*
X102020873Y-45059638D01*
X102407106Y-52921598D02*
X102795208Y-52921598D01*
X102785208Y-135011598D02*
X102397106Y-135011598D01*
X102785208Y-142911598D02*
X103171441Y-142873558D01*
X102789881Y-134916476D02*
X103185415Y-134955433D01*
X102789881Y-143006720D02*
X102392433Y-143006720D01*
X102795208Y-45021598D02*
X102407106Y-45021598D01*
X102795208Y-52921598D02*
X103181441Y-52883558D01*
X102799881Y-44926476D02*
X103195415Y-44965433D01*
X102799881Y-53016720D02*
X102402433Y-53016720D01*
X103171441Y-135049638D02*
X102785208Y-135011598D01*
X103171441Y-142873558D02*
X103552086Y-142797843D01*
X103181441Y-45059638D02*
X102795208Y-45021598D01*
X103181441Y-52883558D02*
X103562086Y-52807843D01*
X103185415Y-134955433D02*
X103575227Y-135032971D01*
X103185415Y-142967763D02*
X102789881Y-143006720D01*
X103195415Y-44965433D02*
X103585227Y-45042971D01*
X103195415Y-52977763D02*
X102799881Y-53016720D01*
X103552086Y-135125353D02*
X103171441Y-135049638D01*
X103552086Y-142797843D02*
X103923477Y-142685183D01*
X103562086Y-45135353D02*
X103181441Y-45059638D01*
X103562086Y-52807843D02*
X103933477Y-52695183D01*
X103575227Y-135032971D02*
X103955561Y-135148345D01*
X103575227Y-142890225D02*
X103185415Y-142967763D01*
X103585227Y-45042971D02*
X103965561Y-45158345D01*
X103585227Y-52900225D02*
X103195415Y-52977763D01*
X103923477Y-135238013D02*
X103552086Y-135125353D01*
X103923477Y-142685183D02*
X104282036Y-142536662D01*
X103933477Y-45248013D02*
X103562086Y-45135353D01*
X103933477Y-52695183D02*
X104292036Y-52546662D01*
X103955561Y-135148345D02*
X104322755Y-135300441D01*
X103955561Y-142774851D02*
X103575227Y-142890225D01*
X103965561Y-45158345D02*
X104332755Y-45310441D01*
X103965561Y-52784851D02*
X103585227Y-52900225D01*
X104282036Y-135386534D02*
X103923477Y-135238013D01*
X104282036Y-142536662D02*
X104624312Y-142353712D01*
X104292036Y-45396534D02*
X103933477Y-45248013D01*
X104292036Y-52546662D02*
X104634312Y-52363712D01*
X104322755Y-135300441D02*
X104673273Y-135487797D01*
X104322755Y-142622755D02*
X103955561Y-142774851D01*
X104332755Y-45310441D02*
X104683273Y-45497797D01*
X104332755Y-52632755D02*
X103965561Y-52784851D01*
X104624312Y-135569484D02*
X104282036Y-135386534D01*
X104624312Y-142353712D02*
X104947007Y-142138094D01*
X104634312Y-45579484D02*
X104292036Y-45396534D01*
X104634312Y-52363712D02*
X104957007Y-52148094D01*
X104673273Y-135487797D02*
X105003739Y-135708607D01*
X104673273Y-142435399D02*
X104322755Y-142622755D01*
X104683273Y-45497797D02*
X105013739Y-45718607D01*
X104683273Y-52445399D02*
X104332755Y-52632755D01*
X104947007Y-135785102D02*
X104624312Y-135569484D01*
X104947007Y-142138094D02*
X105247014Y-141891885D01*
X104957007Y-45795102D02*
X104634312Y-45579484D01*
X104957007Y-52148094D02*
X105257014Y-51901885D01*
X105003739Y-135708607D02*
X105310971Y-135960746D01*
X105003739Y-142214589D02*
X104673273Y-142435399D01*
X105013739Y-45718607D02*
X105320971Y-45970746D01*
X105013739Y-52224589D02*
X104683273Y-52445399D01*
X105247014Y-136031311D02*
X104947007Y-135785102D01*
X105247014Y-141891885D02*
X105521444Y-141617455D01*
X105257014Y-46041311D02*
X104957007Y-45795102D01*
X105257014Y-51901885D02*
X105531444Y-51627455D01*
X105310971Y-135960746D02*
X105592009Y-136241784D01*
X105310971Y-141962450D02*
X105003739Y-142214589D01*
X105320971Y-45970746D02*
X105602009Y-46251784D01*
X105320971Y-51972450D02*
X105013739Y-52224589D01*
X105521444Y-136305741D02*
X105247014Y-136031311D01*
X105521444Y-141617455D02*
X105767653Y-141317448D01*
X105531444Y-46315741D02*
X105257014Y-46041311D01*
X105531444Y-51627455D02*
X105777653Y-51327448D01*
X105592009Y-136241784D02*
X105844148Y-136549016D01*
X105592009Y-141681412D02*
X105310971Y-141962450D01*
X105602009Y-46251784D02*
X105854148Y-46559016D01*
X105602009Y-51691412D02*
X105320971Y-51972450D01*
X105767653Y-136605748D02*
X105521444Y-136305741D01*
X105767653Y-141317448D02*
X105983271Y-140994753D01*
X105777653Y-46615748D02*
X105531444Y-46315741D01*
X105777653Y-51327448D02*
X105993271Y-51004753D01*
X105844148Y-136549016D02*
X106064958Y-136879482D01*
X105844148Y-141374180D02*
X105592009Y-141681412D01*
X105854148Y-46559016D02*
X106074958Y-46889482D01*
X105854148Y-51384180D02*
X105602009Y-51691412D01*
X105983271Y-136928443D02*
X105767653Y-136605748D01*
X105983271Y-140994753D02*
X106166221Y-140652477D01*
X105993271Y-46938443D02*
X105777653Y-46615748D01*
X105993271Y-51004753D02*
X106176221Y-50662477D01*
X106064958Y-136879482D02*
X106252314Y-137230000D01*
X106064958Y-141043714D02*
X105844148Y-141374180D01*
X106074958Y-46889482D02*
X106262314Y-47240000D01*
X106074958Y-51053714D02*
X105854148Y-51384180D01*
X106166221Y-137270719D02*
X105983271Y-136928443D01*
X106166221Y-140652477D02*
X106314742Y-140293918D01*
X106176221Y-47280719D02*
X105993271Y-46938443D01*
X106176221Y-50662477D02*
X106324742Y-50303918D01*
X106252314Y-137230000D02*
X106404410Y-137597194D01*
X106252314Y-140693196D02*
X106064958Y-141043714D01*
X106262314Y-47240000D02*
X106414410Y-47607194D01*
X106262314Y-50703196D02*
X106074958Y-51053714D01*
X106314742Y-137629278D02*
X106166221Y-137270719D01*
X106314742Y-140293918D02*
X106427402Y-139922527D01*
X106324742Y-47639278D02*
X106176221Y-47280719D01*
X106324742Y-50303918D02*
X106437402Y-49932527D01*
X106404410Y-137597194D02*
X106519784Y-137977528D01*
X106404410Y-140326002D02*
X106252314Y-140693196D01*
X106414410Y-47607194D02*
X106529784Y-47987528D01*
X106414410Y-50336002D02*
X106262314Y-50703196D01*
X106427402Y-138000669D02*
X106314742Y-137629278D01*
X106427402Y-139922527D02*
X106503117Y-139541882D01*
X106437402Y-48010669D02*
X106324742Y-47639278D01*
X106437402Y-49932527D02*
X106513117Y-49551882D01*
X106503117Y-138381314D02*
X106427402Y-138000669D01*
X106503117Y-139541882D02*
X106541157Y-139155649D01*
X106513117Y-48391314D02*
X106437402Y-48010669D01*
X106513117Y-49551882D02*
X106551157Y-49165649D01*
X106519784Y-137977528D02*
X106597322Y-138367340D01*
X106519784Y-139945668D02*
X106404410Y-140326002D01*
X106529784Y-47987528D02*
X106607322Y-48377340D01*
X106529784Y-49955668D02*
X106414410Y-50336002D01*
X106541157Y-138767547D02*
X106503117Y-138381314D01*
X106541157Y-139155649D02*
X106541157Y-138767547D01*
X106551157Y-48777547D02*
X106513117Y-48391314D01*
X106551157Y-49165649D02*
X106551157Y-48777547D01*
X106597322Y-138367340D02*
X106636279Y-138762874D01*
X106597322Y-139555856D02*
X106519784Y-139945668D01*
X106607322Y-48377340D02*
X106646279Y-48772874D01*
X106607322Y-49565856D02*
X106529784Y-49955668D01*
X106636279Y-138762874D02*
X106636279Y-139160322D01*
X106636279Y-139160322D02*
X106597322Y-139555856D01*
X106646279Y-48772874D02*
X106646279Y-49170322D01*
X106646279Y-49170322D02*
X106607322Y-49565856D01*
D10*
X121870000Y-148970000D02*
X98070000Y-148970000D01*
X147370000Y-148980000D02*
X121870000Y-148970000D01*
D11*
X148546035Y-48782874D02*
X148584992Y-48387340D01*
X148546035Y-48787547D02*
X148546035Y-48782874D01*
X148546035Y-49180322D02*
X148546035Y-48787547D01*
X148584992Y-48387340D02*
X148662530Y-47997528D01*
X148584992Y-49575856D02*
X148546035Y-49180322D01*
X148586035Y-138762874D02*
X148624992Y-138367340D01*
X148586035Y-138767547D02*
X148586035Y-138762874D01*
X148586035Y-139160322D02*
X148586035Y-138767547D01*
X148624992Y-138367340D02*
X148702530Y-137977528D01*
X148624992Y-139555856D02*
X148586035Y-139160322D01*
X148641157Y-48787547D02*
X148641157Y-49175649D01*
X148641157Y-49175649D02*
X148679197Y-49561882D01*
X148662530Y-47997528D02*
X148777904Y-47617194D01*
X148662530Y-49965668D02*
X148584992Y-49575856D01*
X148679197Y-48401314D02*
X148641157Y-48787547D01*
X148679197Y-49561882D02*
X148754912Y-49942527D01*
X148681157Y-138767547D02*
X148681157Y-139155649D01*
X148681157Y-139155649D02*
X148719197Y-139541882D01*
X148702530Y-137977528D02*
X148817904Y-137597194D01*
X148702530Y-139945668D02*
X148624992Y-139555856D01*
X148719197Y-138381314D02*
X148681157Y-138767547D01*
X148719197Y-139541882D02*
X148794912Y-139922527D01*
X148754912Y-48020669D02*
X148679197Y-48401314D01*
X148754912Y-49942527D02*
X148867572Y-50313918D01*
X148777904Y-47617194D02*
X148930000Y-47250000D01*
X148777904Y-50346002D02*
X148662530Y-49965668D01*
X148794912Y-138000669D02*
X148719197Y-138381314D01*
X148794912Y-139922527D02*
X148907572Y-140293918D01*
X148817904Y-137597194D02*
X148970000Y-137230000D01*
X148817904Y-140326002D02*
X148702530Y-139945668D01*
X148867572Y-47649278D02*
X148754912Y-48020669D01*
X148867572Y-50313918D02*
X149016093Y-50672477D01*
X148907572Y-137629278D02*
X148794912Y-138000669D01*
X148907572Y-140293918D02*
X149056093Y-140652477D01*
X148930000Y-47250000D02*
X149117356Y-46899482D01*
X148930000Y-50713196D02*
X148777904Y-50346002D01*
X148970000Y-137230000D02*
X149157356Y-136879482D01*
X148970000Y-140693196D02*
X148817904Y-140326002D01*
X149016093Y-47290719D02*
X148867572Y-47649278D01*
X149016093Y-50672477D02*
X149199043Y-51014753D01*
X149056093Y-137270719D02*
X148907572Y-137629278D01*
X149056093Y-140652477D02*
X149239043Y-140994753D01*
X149117356Y-46899482D02*
X149338166Y-46569016D01*
X149117356Y-51063714D02*
X148930000Y-50713196D01*
X149157356Y-136879482D02*
X149378166Y-136549016D01*
X149157356Y-141043714D02*
X148970000Y-140693196D01*
X149199043Y-46948443D02*
X149016093Y-47290719D01*
X149199043Y-51014753D02*
X149414661Y-51337448D01*
X149239043Y-136928443D02*
X149056093Y-137270719D01*
X149239043Y-140994753D02*
X149454661Y-141317448D01*
X149338166Y-46569016D02*
X149590305Y-46261784D01*
X149338166Y-51394180D02*
X149117356Y-51063714D01*
X149378166Y-136549016D02*
X149630305Y-136241784D01*
X149378166Y-141374180D02*
X149157356Y-141043714D01*
X149414661Y-46625748D02*
X149199043Y-46948443D01*
X149414661Y-51337448D02*
X149660870Y-51637455D01*
X149454661Y-136605748D02*
X149239043Y-136928443D01*
X149454661Y-141317448D02*
X149700870Y-141617455D01*
X149590305Y-46261784D02*
X149871343Y-45980746D01*
X149590305Y-51701412D02*
X149338166Y-51394180D01*
X149630305Y-136241784D02*
X149911343Y-135960746D01*
X149630305Y-141681412D02*
X149378166Y-141374180D01*
X149660870Y-46325741D02*
X149414661Y-46625748D01*
X149660870Y-51637455D02*
X149935300Y-51911885D01*
X149700870Y-136305741D02*
X149454661Y-136605748D01*
X149700870Y-141617455D02*
X149975300Y-141891885D01*
X149871343Y-45980746D02*
X150178575Y-45728607D01*
X149871343Y-51982450D02*
X149590305Y-51701412D01*
X149911343Y-135960746D02*
X150218575Y-135708607D01*
X149911343Y-141962450D02*
X149630305Y-141681412D01*
X149935300Y-46051311D02*
X149660870Y-46325741D01*
X149935300Y-51911885D02*
X150235307Y-52158094D01*
X149975300Y-136031311D02*
X149700870Y-136305741D01*
X149975300Y-141891885D02*
X150275307Y-142138094D01*
X150178575Y-45728607D02*
X150509041Y-45507797D01*
X150178575Y-52234589D02*
X149871343Y-51982450D01*
X150218575Y-135708607D02*
X150549041Y-135487797D01*
X150218575Y-142214589D02*
X149911343Y-141962450D01*
X150235307Y-45805102D02*
X149935300Y-46051311D01*
X150235307Y-52158094D02*
X150558002Y-52373712D01*
X150275307Y-135785102D02*
X149975300Y-136031311D01*
X150275307Y-142138094D02*
X150598002Y-142353712D01*
X150509041Y-45507797D02*
X150859559Y-45320441D01*
X150509041Y-52455399D02*
X150178575Y-52234589D01*
X150549041Y-135487797D02*
X150899559Y-135300441D01*
X150549041Y-142435399D02*
X150218575Y-142214589D01*
X150558002Y-45589484D02*
X150235307Y-45805102D01*
X150558002Y-52373712D02*
X150900278Y-52556662D01*
X150598002Y-135569484D02*
X150275307Y-135785102D01*
X150598002Y-142353712D02*
X150940278Y-142536662D01*
X150859559Y-45320441D02*
X151226753Y-45168345D01*
X150859559Y-52642755D02*
X150509041Y-52455399D01*
X150899559Y-135300441D02*
X151266753Y-135148345D01*
X150899559Y-142622755D02*
X150549041Y-142435399D01*
X150900278Y-45406534D02*
X150558002Y-45589484D01*
X150900278Y-52556662D02*
X151258837Y-52705183D01*
X150940278Y-135386534D02*
X150598002Y-135569484D01*
X150940278Y-142536662D02*
X151298837Y-142685183D01*
X151226753Y-45168345D02*
X151607087Y-45052971D01*
X151226753Y-52794851D02*
X150859559Y-52642755D01*
X151258837Y-45258013D02*
X150900278Y-45406534D01*
X151258837Y-52705183D02*
X151630228Y-52817843D01*
X151266753Y-135148345D02*
X151647087Y-135032971D01*
X151266753Y-142774851D02*
X150899559Y-142622755D01*
X151298837Y-135238013D02*
X150940278Y-135386534D01*
X151298837Y-142685183D02*
X151670228Y-142797843D01*
X151607087Y-45052971D02*
X151996899Y-44975433D01*
X151607087Y-52910225D02*
X151226753Y-52794851D01*
X151630228Y-45145353D02*
X151258837Y-45258013D01*
X151630228Y-52817843D02*
X152010873Y-52893558D01*
X151647087Y-135032971D02*
X152036899Y-134955433D01*
X151647087Y-142890225D02*
X151266753Y-142774851D01*
X151670228Y-135125353D02*
X151298837Y-135238013D01*
X151670228Y-142797843D02*
X152050873Y-142873558D01*
X151996899Y-44975433D02*
X152392433Y-44936476D01*
X151996899Y-52987763D02*
X151607087Y-52910225D01*
X152010873Y-45069638D02*
X151630228Y-45145353D01*
X152010873Y-52893558D02*
X152397106Y-52931598D01*
X152036899Y-134955433D02*
X152432433Y-134916476D01*
X152036899Y-142967763D02*
X151647087Y-142890225D01*
X152050873Y-135049638D02*
X151670228Y-135125353D01*
X152050873Y-142873558D02*
X152437106Y-142911598D01*
X152392433Y-44936476D02*
X152789881Y-44936476D01*
X152392433Y-53026720D02*
X151996899Y-52987763D01*
X152397106Y-45031598D02*
X152010873Y-45069638D01*
X152397106Y-52931598D02*
X152785208Y-52931598D01*
X152432433Y-134916476D02*
X152829881Y-134916476D01*
X152432433Y-143006720D02*
X152036899Y-142967763D01*
X152437106Y-135011598D02*
X152050873Y-135049638D01*
X152437106Y-142911598D02*
X152825208Y-142911598D01*
X152785208Y-45031598D02*
X152397106Y-45031598D01*
X152785208Y-52931598D02*
X153171441Y-52893558D01*
X152789881Y-44936476D02*
X153185415Y-44975433D01*
X152789881Y-53026720D02*
X152392433Y-53026720D01*
X152825208Y-135011598D02*
X152437106Y-135011598D01*
X152825208Y-142911598D02*
X153211441Y-142873558D01*
X152829881Y-134916476D02*
X153225415Y-134955433D01*
X152829881Y-143006720D02*
X152432433Y-143006720D01*
X153171441Y-45069638D02*
X152785208Y-45031598D01*
X153171441Y-52893558D02*
X153552086Y-52817843D01*
X153185415Y-44975433D02*
X153575227Y-45052971D01*
X153185415Y-52987763D02*
X152789881Y-53026720D01*
X153211441Y-135049638D02*
X152825208Y-135011598D01*
X153211441Y-142873558D02*
X153592086Y-142797843D01*
X153225415Y-134955433D02*
X153615227Y-135032971D01*
X153225415Y-142967763D02*
X152829881Y-143006720D01*
X153552086Y-45145353D02*
X153171441Y-45069638D01*
X153552086Y-52817843D02*
X153923477Y-52705183D01*
X153575227Y-45052971D02*
X153955561Y-45168345D01*
X153575227Y-52910225D02*
X153185415Y-52987763D01*
X153592086Y-135125353D02*
X153211441Y-135049638D01*
X153592086Y-142797843D02*
X153963477Y-142685183D01*
X153615227Y-135032971D02*
X153995561Y-135148345D01*
X153615227Y-142890225D02*
X153225415Y-142967763D01*
X153923477Y-45258013D02*
X153552086Y-45145353D01*
X153923477Y-52705183D02*
X154282036Y-52556662D01*
X153955561Y-45168345D02*
X154322755Y-45320441D01*
X153955561Y-52794851D02*
X153575227Y-52910225D01*
X153963477Y-135238013D02*
X153592086Y-135125353D01*
X153963477Y-142685183D02*
X154322036Y-142536662D01*
X153995561Y-135148345D02*
X154362755Y-135300441D01*
X153995561Y-142774851D02*
X153615227Y-142890225D01*
X154282036Y-45406534D02*
X153923477Y-45258013D01*
X154282036Y-52556662D02*
X154624312Y-52373712D01*
X154322036Y-135386534D02*
X153963477Y-135238013D01*
X154322036Y-142536662D02*
X154664312Y-142353712D01*
X154322755Y-45320441D02*
X154673273Y-45507797D01*
X154322755Y-52642755D02*
X153955561Y-52794851D01*
X154362755Y-135300441D02*
X154713273Y-135487797D01*
X154362755Y-142622755D02*
X153995561Y-142774851D01*
X154624312Y-45589484D02*
X154282036Y-45406534D01*
X154624312Y-52373712D02*
X154947007Y-52158094D01*
X154664312Y-135569484D02*
X154322036Y-135386534D01*
X154664312Y-142353712D02*
X154987007Y-142138094D01*
X154673273Y-45507797D02*
X155003739Y-45728607D01*
X154673273Y-52455399D02*
X154322755Y-52642755D01*
X154713273Y-135487797D02*
X155043739Y-135708607D01*
X154713273Y-142435399D02*
X154362755Y-142622755D01*
X154947007Y-45805102D02*
X154624312Y-45589484D01*
X154947007Y-52158094D02*
X155247014Y-51911885D01*
X154987007Y-135785102D02*
X154664312Y-135569484D01*
X154987007Y-142138094D02*
X155287014Y-141891885D01*
X155003739Y-45728607D02*
X155310971Y-45980746D01*
X155003739Y-52234589D02*
X154673273Y-52455399D01*
X155043739Y-135708607D02*
X155350971Y-135960746D01*
X155043739Y-142214589D02*
X154713273Y-142435399D01*
X155247014Y-46051311D02*
X154947007Y-45805102D01*
X155247014Y-51911885D02*
X155521444Y-51637455D01*
X155287014Y-136031311D02*
X154987007Y-135785102D01*
X155287014Y-141891885D02*
X155561444Y-141617455D01*
X155310971Y-45980746D02*
X155592009Y-46261784D01*
X155310971Y-51982450D02*
X155003739Y-52234589D01*
X155350971Y-135960746D02*
X155632009Y-136241784D01*
X155350971Y-141962450D02*
X155043739Y-142214589D01*
X155521444Y-46325741D02*
X155247014Y-46051311D01*
X155521444Y-51637455D02*
X155767653Y-51337448D01*
X155561444Y-136305741D02*
X155287014Y-136031311D01*
X155561444Y-141617455D02*
X155807653Y-141317448D01*
X155592009Y-46261784D02*
X155844148Y-46569016D01*
X155592009Y-51701412D02*
X155310971Y-51982450D01*
X155632009Y-136241784D02*
X155884148Y-136549016D01*
X155632009Y-141681412D02*
X155350971Y-141962450D01*
X155767653Y-46625748D02*
X155521444Y-46325741D01*
X155767653Y-51337448D02*
X155983271Y-51014753D01*
X155807653Y-136605748D02*
X155561444Y-136305741D01*
X155807653Y-141317448D02*
X156023271Y-140994753D01*
X155844148Y-46569016D02*
X156064958Y-46899482D01*
X155844148Y-51394180D02*
X155592009Y-51701412D01*
X155884148Y-136549016D02*
X156104958Y-136879482D01*
X155884148Y-141374180D02*
X155632009Y-141681412D01*
X155983271Y-46948443D02*
X155767653Y-46625748D01*
X155983271Y-51014753D02*
X156166221Y-50672477D01*
X156023271Y-136928443D02*
X155807653Y-136605748D01*
X156023271Y-140994753D02*
X156206221Y-140652477D01*
X156064958Y-46899482D02*
X156252314Y-47250000D01*
X156064958Y-51063714D02*
X155844148Y-51394180D01*
X156104958Y-136879482D02*
X156292314Y-137230000D01*
X156104958Y-141043714D02*
X155884148Y-141374180D01*
X156166221Y-47290719D02*
X155983271Y-46948443D01*
X156166221Y-50672477D02*
X156314742Y-50313918D01*
X156206221Y-137270719D02*
X156023271Y-136928443D01*
X156206221Y-140652477D02*
X156354742Y-140293918D01*
X156252314Y-47250000D02*
X156404410Y-47617194D01*
X156252314Y-50713196D02*
X156064958Y-51063714D01*
X156292314Y-137230000D02*
X156444410Y-137597194D01*
X156292314Y-140693196D02*
X156104958Y-141043714D01*
X156314742Y-47649278D02*
X156166221Y-47290719D01*
X156314742Y-50313918D02*
X156427402Y-49942527D01*
X156354742Y-137629278D02*
X156206221Y-137270719D01*
X156354742Y-140293918D02*
X156467402Y-139922527D01*
X156404410Y-47617194D02*
X156519784Y-47997528D01*
X156404410Y-50346002D02*
X156252314Y-50713196D01*
X156427402Y-48020669D02*
X156314742Y-47649278D01*
X156427402Y-49942527D02*
X156503117Y-49561882D01*
X156444410Y-137597194D02*
X156559784Y-137977528D01*
X156444410Y-140326002D02*
X156292314Y-140693196D01*
X156467402Y-138000669D02*
X156354742Y-137629278D01*
X156467402Y-139922527D02*
X156543117Y-139541882D01*
X156503117Y-48401314D02*
X156427402Y-48020669D01*
X156503117Y-49561882D02*
X156541157Y-49175649D01*
X156519784Y-47997528D02*
X156597322Y-48387340D01*
X156519784Y-49965668D02*
X156404410Y-50346002D01*
X156541157Y-48787547D02*
X156503117Y-48401314D01*
X156541157Y-49175649D02*
X156541157Y-48787547D01*
X156543117Y-138381314D02*
X156467402Y-138000669D01*
X156543117Y-139541882D02*
X156581157Y-139155649D01*
X156559784Y-137977528D02*
X156637322Y-138367340D01*
X156559784Y-139945668D02*
X156444410Y-140326002D01*
X156581157Y-138767547D02*
X156543117Y-138381314D01*
X156581157Y-139155649D02*
X156581157Y-138767547D01*
X156597322Y-48387340D02*
X156636279Y-48782874D01*
X156597322Y-49575856D02*
X156519784Y-49965668D01*
X156636279Y-48782874D02*
X156636279Y-49180322D01*
X156636279Y-49180322D02*
X156597322Y-49575856D01*
X156637322Y-138367340D02*
X156676279Y-138762874D01*
X156637322Y-139555856D02*
X156559784Y-139945668D01*
X156676279Y-138762874D02*
X156676279Y-139160322D01*
X156676279Y-139160322D02*
X156637322Y-139555856D01*
D10*
X157100000Y-148980000D02*
X147370000Y-148980000D01*
X157110000Y-38990000D02*
X157960000Y-39760000D01*
X157950000Y-148230000D02*
X157100000Y-148980000D01*
X157960000Y-39760000D02*
X159870000Y-51530000D01*
X159870000Y-51530000D02*
X159870000Y-136540000D01*
X159870000Y-136540000D02*
X157950000Y-148230000D01*
M02*
