%TF.GenerationSoftware,KiCad,Pcbnew,10.0.1*%
%TF.CreationDate,2026-06-20T20:25:09+02:00*%
%TF.ProjectId,sensegate_pcb,73656e73-6567-4617-9465-5f7063622e6b,rev?*%
%TF.SameCoordinates,Original*%
%TF.FileFunction,Drillmap*%
%TF.FilePolarity,Positive*%
%FSLAX45Y45*%
G04 Gerber Fmt 4.5, Leading zero omitted, Abs format (unit mm)*
G04 Created by KiCad (PCBNEW 10.0.1) date 2026-06-20 20:25:09*
%MOMM*%
%LPD*%
G01*
G04 APERTURE LIST*
%ADD10C,0.200000*%
%ADD11C,0.100000*%
%ADD12C,0.125000*%
%ADD13C,0.149860*%
%ADD14C,0.225000*%
G04 APERTURE END LIST*
D10*
X9532000Y-5153000D02*
X9727000Y-3966000D01*
X9532000Y-13642000D02*
X9532000Y-5154000D01*
X9727000Y-3966000D02*
X9811000Y-3899000D01*
X9728000Y-14834000D02*
X9532000Y-13642000D01*
X9807000Y-14897000D02*
X9728000Y-14834000D01*
X9811000Y-3899000D02*
X15711000Y-3899000D01*
X10663209Y-4898000D02*
G75*
G02*
X9854791Y-4898000I-404209J0D01*
G01*
X9854791Y-4898000D02*
G75*
G02*
X10663209Y-4898000I404209J0D01*
G01*
X10665000Y-13897000D02*
G75*
G02*
X9856582Y-13897000I-404209J0D01*
G01*
X9856582Y-13897000D02*
G75*
G02*
X10665000Y-13897000I404209J0D01*
G01*
X12187000Y-14897000D02*
X9807000Y-14897000D01*
X14737000Y-14898000D02*
X12187000Y-14897000D01*
X15666209Y-4900000D02*
G75*
G02*
X14857791Y-4900000I-404209J0D01*
G01*
X14857791Y-4900000D02*
G75*
G02*
X15666209Y-4900000I404209J0D01*
G01*
X15667209Y-13895791D02*
G75*
G02*
X14858791Y-13895791I-404209J0D01*
G01*
X14858791Y-13895791D02*
G75*
G02*
X15667209Y-13895791I404209J0D01*
G01*
X15710000Y-14898000D02*
X14737000Y-14898000D01*
X15711000Y-3899000D02*
X15796000Y-3976000D01*
X15795000Y-14823000D02*
X15710000Y-14898000D01*
X15796000Y-3976000D02*
X15987000Y-5153000D01*
X15987000Y-5153000D02*
X15987000Y-13654000D01*
X15987000Y-13654000D02*
X15795000Y-14823000D01*
D11*
X10226000Y-11167000D02*
X10256000Y-11197000D01*
X10256000Y-11167000D02*
X10226000Y-11197000D01*
X10466000Y-6116000D02*
X10496000Y-6146000D01*
X10496000Y-6116000D02*
X10466000Y-6146000D01*
X10569000Y-9807000D02*
X10599000Y-9837000D01*
X10599000Y-9807000D02*
X10569000Y-9837000D01*
X10919000Y-8640000D02*
X10949000Y-8670000D01*
X10949000Y-8640000D02*
X10919000Y-8670000D01*
X11231000Y-9831000D02*
X11261000Y-9861000D01*
X11261000Y-9831000D02*
X11231000Y-9861000D01*
X11603000Y-9831000D02*
X11633000Y-9861000D01*
X11633000Y-9831000D02*
X11603000Y-9861000D01*
X11615000Y-9508000D02*
X11645000Y-9538000D01*
X11645000Y-9508000D02*
X11615000Y-9538000D01*
X11895000Y-9399000D02*
X11925000Y-9429000D01*
X11925000Y-9399000D02*
X11895000Y-9429000D01*
X11949000Y-9316000D02*
X11979000Y-9346000D01*
X11979000Y-9316000D02*
X11949000Y-9346000D01*
X12119000Y-9592000D02*
X12149000Y-9622000D01*
X12149000Y-9592000D02*
X12119000Y-9622000D01*
X12247000Y-9831000D02*
X12277000Y-9861000D01*
X12277000Y-9831000D02*
X12247000Y-9861000D01*
X13240000Y-9649000D02*
X13270000Y-9679000D01*
X13270000Y-9649000D02*
X13240000Y-9679000D01*
X13468000Y-9459000D02*
X13498000Y-9489000D01*
X13498000Y-9459000D02*
X13468000Y-9489000D01*
X13818000Y-9387000D02*
X13848000Y-9417000D01*
X13848000Y-9387000D02*
X13818000Y-9417000D01*
X13944000Y-6305000D02*
X13974000Y-6335000D01*
X13974000Y-6305000D02*
X13944000Y-6335000D01*
X14086000Y-9618000D02*
X14116000Y-9648000D01*
X14116000Y-9618000D02*
X14086000Y-9648000D01*
X14260000Y-10638000D02*
X14290000Y-10668000D01*
X14290000Y-10638000D02*
X14260000Y-10668000D01*
X14822000Y-9715000D02*
X14852000Y-9745000D01*
X14852000Y-9715000D02*
X14822000Y-9745000D01*
X15607000Y-10839000D02*
X15637000Y-10869000D01*
X15637000Y-10839000D02*
X15607000Y-10869000D01*
X10198300Y-9471000D02*
G75*
G02*
X10160200Y-9471000I-19050J0D01*
G01*
X10160200Y-9471000D02*
G75*
G02*
X10198300Y-9471000I19050J0D01*
G01*
X10198300Y-9731000D02*
G75*
G02*
X10160200Y-9731000I-19050J0D01*
G01*
X10160200Y-9731000D02*
G75*
G02*
X10198300Y-9731000I19050J0D01*
G01*
X10408050Y-6537000D02*
G75*
G02*
X10369950Y-6537000I-19050J0D01*
G01*
X10369950Y-6537000D02*
G75*
G02*
X10408050Y-6537000I19050J0D01*
G01*
X10491050Y-6607000D02*
G75*
G02*
X10452950Y-6607000I-19050J0D01*
G01*
X10452950Y-6607000D02*
G75*
G02*
X10491050Y-6607000I19050J0D01*
G01*
X10565050Y-6689000D02*
G75*
G02*
X10526950Y-6689000I-19050J0D01*
G01*
X10526950Y-6689000D02*
G75*
G02*
X10565050Y-6689000I19050J0D01*
G01*
X10630050Y-6771000D02*
G75*
G02*
X10591950Y-6771000I-19050J0D01*
G01*
X10591950Y-6771000D02*
G75*
G02*
X10630050Y-6771000I19050J0D01*
G01*
X10852050Y-6952000D02*
G75*
G02*
X10813950Y-6952000I-19050J0D01*
G01*
X10813950Y-6952000D02*
G75*
G02*
X10852050Y-6952000I19050J0D01*
G01*
X10912050Y-9814000D02*
G75*
G02*
X10873950Y-9814000I-19050J0D01*
G01*
X10873950Y-9814000D02*
G75*
G02*
X10912050Y-9814000I19050J0D01*
G01*
X10956050Y-9685000D02*
G75*
G02*
X10917950Y-9685000I-19050J0D01*
G01*
X10917950Y-9685000D02*
G75*
G02*
X10956050Y-9685000I19050J0D01*
G01*
X11078050Y-6489000D02*
G75*
G02*
X11039950Y-6489000I-19050J0D01*
G01*
X11039950Y-6489000D02*
G75*
G02*
X11078050Y-6489000I19050J0D01*
G01*
X11131050Y-6551000D02*
G75*
G02*
X11092950Y-6551000I-19050J0D01*
G01*
X11092950Y-6551000D02*
G75*
G02*
X11131050Y-6551000I19050J0D01*
G01*
X11200050Y-6644000D02*
G75*
G02*
X11161950Y-6644000I-19050J0D01*
G01*
X11161950Y-6644000D02*
G75*
G02*
X11200050Y-6644000I19050J0D01*
G01*
X11273050Y-6721000D02*
G75*
G02*
X11234950Y-6721000I-19050J0D01*
G01*
X11234950Y-6721000D02*
G75*
G02*
X11273050Y-6721000I19050J0D01*
G01*
X11362050Y-6877000D02*
G75*
G02*
X11323950Y-6877000I-19050J0D01*
G01*
X11323950Y-6877000D02*
G75*
G02*
X11362050Y-6877000I19050J0D01*
G01*
X11857050Y-7421000D02*
G75*
G02*
X11818950Y-7421000I-19050J0D01*
G01*
X11818950Y-7421000D02*
G75*
G02*
X11857050Y-7421000I19050J0D01*
G01*
X12068050Y-7559000D02*
G75*
G02*
X12029950Y-7559000I-19050J0D01*
G01*
X12029950Y-7559000D02*
G75*
G02*
X12068050Y-7559000I19050J0D01*
G01*
X12248050Y-7722000D02*
G75*
G02*
X12209950Y-7722000I-19050J0D01*
G01*
X12209950Y-7722000D02*
G75*
G02*
X12248050Y-7722000I19050J0D01*
G01*
X12534550Y-6639500D02*
G75*
G02*
X12496450Y-6639500I-19050J0D01*
G01*
X12496450Y-6639500D02*
G75*
G02*
X12534550Y-6639500I19050J0D01*
G01*
X12621050Y-5765000D02*
G75*
G02*
X12582950Y-5765000I-19050J0D01*
G01*
X12582950Y-5765000D02*
G75*
G02*
X12621050Y-5765000I19050J0D01*
G01*
X12725050Y-6734000D02*
G75*
G02*
X12686950Y-6734000I-19050J0D01*
G01*
X12686950Y-6734000D02*
G75*
G02*
X12725050Y-6734000I19050J0D01*
G01*
X12936050Y-6831000D02*
G75*
G02*
X12897950Y-6831000I-19050J0D01*
G01*
X12897950Y-6831000D02*
G75*
G02*
X12936050Y-6831000I19050J0D01*
G01*
X13028050Y-5514000D02*
G75*
G02*
X12989950Y-5514000I-19050J0D01*
G01*
X12989950Y-5514000D02*
G75*
G02*
X13028050Y-5514000I19050J0D01*
G01*
X13183050Y-11252000D02*
G75*
G02*
X13144950Y-11252000I-19050J0D01*
G01*
X13144950Y-11252000D02*
G75*
G02*
X13183050Y-11252000I19050J0D01*
G01*
X13343050Y-6918000D02*
G75*
G02*
X13304950Y-6918000I-19050J0D01*
G01*
X13304950Y-6918000D02*
G75*
G02*
X13343050Y-6918000I19050J0D01*
G01*
X13535050Y-7029000D02*
G75*
G02*
X13496950Y-7029000I-19050J0D01*
G01*
X13496950Y-7029000D02*
G75*
G02*
X13535050Y-7029000I19050J0D01*
G01*
X13580050Y-7293000D02*
G75*
G02*
X13541950Y-7293000I-19050J0D01*
G01*
X13541950Y-7293000D02*
G75*
G02*
X13580050Y-7293000I19050J0D01*
G01*
X13584050Y-11252000D02*
G75*
G02*
X13545950Y-11252000I-19050J0D01*
G01*
X13545950Y-11252000D02*
G75*
G02*
X13584050Y-11252000I19050J0D01*
G01*
X13648050Y-7389000D02*
G75*
G02*
X13609950Y-7389000I-19050J0D01*
G01*
X13609950Y-7389000D02*
G75*
G02*
X13648050Y-7389000I19050J0D01*
G01*
X13712050Y-7503000D02*
G75*
G02*
X13673950Y-7503000I-19050J0D01*
G01*
X13673950Y-7503000D02*
G75*
G02*
X13712050Y-7503000I19050J0D01*
G01*
X13786050Y-10054000D02*
G75*
G02*
X13747950Y-10054000I-19050J0D01*
G01*
X13747950Y-10054000D02*
G75*
G02*
X13786050Y-10054000I19050J0D01*
G01*
X14197050Y-10192000D02*
G75*
G02*
X14158950Y-10192000I-19050J0D01*
G01*
X14158950Y-10192000D02*
G75*
G02*
X14197050Y-10192000I19050J0D01*
G01*
X14296050Y-6551000D02*
G75*
G02*
X14257950Y-6551000I-19050J0D01*
G01*
X14257950Y-6551000D02*
G75*
G02*
X14296050Y-6551000I19050J0D01*
G01*
X14359050Y-6630000D02*
G75*
G02*
X14320950Y-6630000I-19050J0D01*
G01*
X14320950Y-6630000D02*
G75*
G02*
X14359050Y-6630000I19050J0D01*
G01*
X14405050Y-6721000D02*
G75*
G02*
X14366950Y-6721000I-19050J0D01*
G01*
X14366950Y-6721000D02*
G75*
G02*
X14405050Y-6721000I19050J0D01*
G01*
X14458050Y-6807000D02*
G75*
G02*
X14419950Y-6807000I-19050J0D01*
G01*
X14419950Y-6807000D02*
G75*
G02*
X14458050Y-6807000I19050J0D01*
G01*
X14508550Y-6898500D02*
G75*
G02*
X14470450Y-6898500I-19050J0D01*
G01*
X14470450Y-6898500D02*
G75*
G02*
X14508550Y-6898500I19050J0D01*
G01*
X14644050Y-10757000D02*
G75*
G02*
X14605950Y-10757000I-19050J0D01*
G01*
X14605950Y-10757000D02*
G75*
G02*
X14644050Y-10757000I19050J0D01*
G01*
X15369050Y-10817000D02*
G75*
G02*
X15330950Y-10817000I-19050J0D01*
G01*
X15330950Y-10817000D02*
G75*
G02*
X15369050Y-10817000I19050J0D01*
G01*
X9904500Y-10601000D02*
X9904500Y-10676000D01*
X9867000Y-10638500D02*
X9942000Y-10638500D01*
X9904500Y-10801000D02*
X9904500Y-10876000D01*
X9867000Y-10838500D02*
X9942000Y-10838500D01*
X9904500Y-11001000D02*
X9904500Y-11076000D01*
X9867000Y-11038500D02*
X9942000Y-11038500D01*
X9904500Y-11201000D02*
X9904500Y-11276000D01*
X9867000Y-11238500D02*
X9942000Y-11238500D01*
X10518500Y-10602000D02*
X10518500Y-10677000D01*
X10481000Y-10639500D02*
X10556000Y-10639500D01*
X10518500Y-10802000D02*
X10518500Y-10877000D01*
X10481000Y-10839500D02*
X10556000Y-10839500D01*
X10518500Y-11002000D02*
X10518500Y-11077000D01*
X10481000Y-11039500D02*
X10556000Y-11039500D01*
X10518500Y-11202000D02*
X10518500Y-11277000D01*
X10481000Y-11239500D02*
X10556000Y-11239500D01*
X11157500Y-10613000D02*
X11157500Y-10688000D01*
X11120000Y-10650500D02*
X11195000Y-10650500D01*
X11157500Y-10813000D02*
X11157500Y-10888000D01*
X11120000Y-10850500D02*
X11195000Y-10850500D01*
X11157500Y-11013000D02*
X11157500Y-11088000D01*
X11120000Y-11050500D02*
X11195000Y-11050500D01*
X11157500Y-11213000D02*
X11157500Y-11288000D01*
X11120000Y-11250500D02*
X11195000Y-11250500D01*
X11785500Y-10613000D02*
X11785500Y-10688000D01*
X11748000Y-10650500D02*
X11823000Y-10650500D01*
X11785500Y-10813000D02*
X11785500Y-10888000D01*
X11748000Y-10850500D02*
X11823000Y-10850500D01*
X11785500Y-11013000D02*
X11785500Y-11088000D01*
X11748000Y-11050500D02*
X11823000Y-11050500D01*
X11785500Y-11213000D02*
X11785500Y-11288000D01*
X11748000Y-11250500D02*
X11823000Y-11250500D01*
X12386000Y-10615500D02*
X12386000Y-10690500D01*
X12348500Y-10653000D02*
X12423500Y-10653000D01*
X12386000Y-10815500D02*
X12386000Y-10890500D01*
X12348500Y-10853000D02*
X12423500Y-10853000D01*
X12386000Y-11015500D02*
X12386000Y-11090500D01*
X12348500Y-11053000D02*
X12423500Y-11053000D01*
X12386000Y-11215500D02*
X12386000Y-11290500D01*
X12348500Y-11253000D02*
X12423500Y-11253000D01*
X14229000Y-10428500D02*
X14229000Y-10503500D01*
X14191500Y-10466000D02*
X14266500Y-10466000D01*
X14429000Y-10428500D02*
X14429000Y-10503500D01*
X14391500Y-10466000D02*
X14466500Y-10466000D01*
X15610000Y-9289500D02*
X15610000Y-9364500D01*
X15572500Y-9327000D02*
X15647500Y-9327000D01*
X15610000Y-9489500D02*
X15610000Y-9564500D01*
X15572500Y-9527000D02*
X15647500Y-9527000D01*
X9823285Y-10010285D02*
X9823285Y-9953716D01*
X9766716Y-9953716D01*
X9766716Y-10010285D01*
X9823285Y-10010285D01*
X10077285Y-9756285D02*
X10077285Y-9699716D01*
X10020716Y-9699716D01*
X10020716Y-9756285D01*
X10077285Y-9756285D01*
X10077285Y-10264285D02*
X10077285Y-10207716D01*
X10020716Y-10207716D01*
X10020716Y-10264285D01*
X10077285Y-10264285D01*
X15149000Y-10162640D02*
X15189640Y-10122000D01*
X15149000Y-10081360D01*
X15108360Y-10122000D01*
X15149000Y-10162640D01*
X15349000Y-10162640D02*
X15389640Y-10122000D01*
X15349000Y-10081360D01*
X15308360Y-10122000D01*
X15349000Y-10162640D01*
X15549000Y-10162640D02*
X15589640Y-10122000D01*
X15549000Y-10081360D01*
X15508360Y-10122000D01*
X15549000Y-10162640D01*
X10956000Y-4857000D02*
X11056000Y-4957000D01*
X11056000Y-4857000D02*
X10956000Y-4957000D01*
X11056000Y-4907000D02*
G75*
G02*
X10956000Y-4907000I-50000J0D01*
G01*
X10956000Y-4907000D02*
G75*
G02*
X11056000Y-4907000I50000J0D01*
G01*
X11210000Y-4857000D02*
X11310000Y-4957000D01*
X11310000Y-4857000D02*
X11210000Y-4957000D01*
X11310000Y-4907000D02*
G75*
G02*
X11210000Y-4907000I-50000J0D01*
G01*
X11210000Y-4907000D02*
G75*
G02*
X11310000Y-4907000I50000J0D01*
G01*
X11272000Y-5261000D02*
X11372000Y-5361000D01*
X11372000Y-5261000D02*
X11272000Y-5361000D01*
X11372000Y-5311000D02*
G75*
G02*
X11272000Y-5311000I-50000J0D01*
G01*
X11272000Y-5311000D02*
G75*
G02*
X11372000Y-5311000I50000J0D01*
G01*
X11464000Y-4857000D02*
X11564000Y-4957000D01*
X11564000Y-4857000D02*
X11464000Y-4957000D01*
X11564000Y-4907000D02*
G75*
G02*
X11464000Y-4907000I-50000J0D01*
G01*
X11464000Y-4907000D02*
G75*
G02*
X11564000Y-4907000I50000J0D01*
G01*
X11526000Y-5261000D02*
X11626000Y-5361000D01*
X11626000Y-5261000D02*
X11526000Y-5361000D01*
X11626000Y-5311000D02*
G75*
G02*
X11526000Y-5311000I-50000J0D01*
G01*
X11526000Y-5311000D02*
G75*
G02*
X11626000Y-5311000I50000J0D01*
G01*
X11718000Y-4857000D02*
X11818000Y-4957000D01*
X11818000Y-4857000D02*
X11718000Y-4957000D01*
X11818000Y-4907000D02*
G75*
G02*
X11718000Y-4907000I-50000J0D01*
G01*
X11718000Y-4907000D02*
G75*
G02*
X11818000Y-4907000I50000J0D01*
G01*
X11780000Y-5261000D02*
X11880000Y-5361000D01*
X11880000Y-5261000D02*
X11780000Y-5361000D01*
X11880000Y-5311000D02*
G75*
G02*
X11780000Y-5311000I-50000J0D01*
G01*
X11780000Y-5311000D02*
G75*
G02*
X11880000Y-5311000I50000J0D01*
G01*
X11972000Y-4857000D02*
X12072000Y-4957000D01*
X12072000Y-4857000D02*
X11972000Y-4957000D01*
X12072000Y-4907000D02*
G75*
G02*
X11972000Y-4907000I-50000J0D01*
G01*
X11972000Y-4907000D02*
G75*
G02*
X12072000Y-4907000I50000J0D01*
G01*
X12034000Y-5261000D02*
X12134000Y-5361000D01*
X12134000Y-5261000D02*
X12034000Y-5361000D01*
X12134000Y-5311000D02*
G75*
G02*
X12034000Y-5311000I-50000J0D01*
G01*
X12034000Y-5311000D02*
G75*
G02*
X12134000Y-5311000I50000J0D01*
G01*
X12226000Y-4857000D02*
X12326000Y-4957000D01*
X12326000Y-4857000D02*
X12226000Y-4957000D01*
X12326000Y-4907000D02*
G75*
G02*
X12226000Y-4907000I-50000J0D01*
G01*
X12226000Y-4907000D02*
G75*
G02*
X12326000Y-4907000I50000J0D01*
G01*
X12288000Y-5261000D02*
X12388000Y-5361000D01*
X12388000Y-5261000D02*
X12288000Y-5361000D01*
X12388000Y-5311000D02*
G75*
G02*
X12288000Y-5311000I-50000J0D01*
G01*
X12288000Y-5311000D02*
G75*
G02*
X12388000Y-5311000I50000J0D01*
G01*
X12480000Y-4857000D02*
X12580000Y-4957000D01*
X12580000Y-4857000D02*
X12480000Y-4957000D01*
X12580000Y-4907000D02*
G75*
G02*
X12480000Y-4907000I-50000J0D01*
G01*
X12480000Y-4907000D02*
G75*
G02*
X12580000Y-4907000I50000J0D01*
G01*
X12542000Y-5261000D02*
X12642000Y-5361000D01*
X12642000Y-5261000D02*
X12542000Y-5361000D01*
X12642000Y-5311000D02*
G75*
G02*
X12542000Y-5311000I-50000J0D01*
G01*
X12542000Y-5311000D02*
G75*
G02*
X12642000Y-5311000I50000J0D01*
G01*
X12734000Y-4857000D02*
X12834000Y-4957000D01*
X12834000Y-4857000D02*
X12734000Y-4957000D01*
X12834000Y-4907000D02*
G75*
G02*
X12734000Y-4907000I-50000J0D01*
G01*
X12734000Y-4907000D02*
G75*
G02*
X12834000Y-4907000I50000J0D01*
G01*
X12796000Y-5261000D02*
X12896000Y-5361000D01*
X12896000Y-5261000D02*
X12796000Y-5361000D01*
X12896000Y-5311000D02*
G75*
G02*
X12796000Y-5311000I-50000J0D01*
G01*
X12796000Y-5311000D02*
G75*
G02*
X12896000Y-5311000I50000J0D01*
G01*
X12988000Y-4857000D02*
X13088000Y-4957000D01*
X13088000Y-4857000D02*
X12988000Y-4957000D01*
X13088000Y-4907000D02*
G75*
G02*
X12988000Y-4907000I-50000J0D01*
G01*
X12988000Y-4907000D02*
G75*
G02*
X13088000Y-4907000I50000J0D01*
G01*
X13050000Y-5261000D02*
X13150000Y-5361000D01*
X13150000Y-5261000D02*
X13050000Y-5361000D01*
X13150000Y-5311000D02*
G75*
G02*
X13050000Y-5311000I-50000J0D01*
G01*
X13050000Y-5311000D02*
G75*
G02*
X13150000Y-5311000I50000J0D01*
G01*
X13242000Y-4857000D02*
X13342000Y-4957000D01*
X13342000Y-4857000D02*
X13242000Y-4957000D01*
X13342000Y-4907000D02*
G75*
G02*
X13242000Y-4907000I-50000J0D01*
G01*
X13242000Y-4907000D02*
G75*
G02*
X13342000Y-4907000I50000J0D01*
G01*
X13304000Y-5261000D02*
X13404000Y-5361000D01*
X13404000Y-5261000D02*
X13304000Y-5361000D01*
X13404000Y-5311000D02*
G75*
G02*
X13304000Y-5311000I-50000J0D01*
G01*
X13304000Y-5311000D02*
G75*
G02*
X13404000Y-5311000I50000J0D01*
G01*
X13496000Y-4857000D02*
X13596000Y-4957000D01*
X13596000Y-4857000D02*
X13496000Y-4957000D01*
X13596000Y-4907000D02*
G75*
G02*
X13496000Y-4907000I-50000J0D01*
G01*
X13496000Y-4907000D02*
G75*
G02*
X13596000Y-4907000I50000J0D01*
G01*
X13558000Y-5261000D02*
X13658000Y-5361000D01*
X13658000Y-5261000D02*
X13558000Y-5361000D01*
X13658000Y-5311000D02*
G75*
G02*
X13558000Y-5311000I-50000J0D01*
G01*
X13558000Y-5311000D02*
G75*
G02*
X13658000Y-5311000I50000J0D01*
G01*
X13750000Y-4857000D02*
X13850000Y-4957000D01*
X13850000Y-4857000D02*
X13750000Y-4957000D01*
X13850000Y-4907000D02*
G75*
G02*
X13750000Y-4907000I-50000J0D01*
G01*
X13750000Y-4907000D02*
G75*
G02*
X13850000Y-4907000I50000J0D01*
G01*
X13812000Y-5261000D02*
X13912000Y-5361000D01*
X13912000Y-5261000D02*
X13812000Y-5361000D01*
X13912000Y-5311000D02*
G75*
G02*
X13812000Y-5311000I-50000J0D01*
G01*
X13812000Y-5311000D02*
G75*
G02*
X13912000Y-5311000I50000J0D01*
G01*
X14066000Y-5261000D02*
X14166000Y-5361000D01*
X14166000Y-5261000D02*
X14066000Y-5361000D01*
X14166000Y-5311000D02*
G75*
G02*
X14066000Y-5311000I-50000J0D01*
G01*
X14066000Y-5311000D02*
G75*
G02*
X14166000Y-5311000I50000J0D01*
G01*
D12*
X14307500Y-11076500D02*
X14432500Y-11201500D01*
X14432500Y-11076500D02*
X14307500Y-11201500D01*
X14370000Y-11076500D02*
X14370000Y-11201500D01*
X14307500Y-11139000D02*
X14432500Y-11139000D01*
X14574500Y-11076500D02*
X14699500Y-11201500D01*
X14699500Y-11076500D02*
X14574500Y-11201500D01*
X14637000Y-11076500D02*
X14637000Y-11201500D01*
X14574500Y-11139000D02*
X14699500Y-11139000D01*
X14844500Y-11076500D02*
X14969500Y-11201500D01*
X14969500Y-11076500D02*
X14844500Y-11201500D01*
X14907000Y-11076500D02*
X14907000Y-11201500D01*
X14844500Y-11139000D02*
X14969500Y-11139000D01*
X15112500Y-11076500D02*
X15237500Y-11201500D01*
X15237500Y-11076500D02*
X15112500Y-11201500D01*
X15175000Y-11076500D02*
X15175000Y-11201500D01*
X15112500Y-11139000D02*
X15237500Y-11139000D01*
X15380500Y-11075500D02*
X15505500Y-11200500D01*
X15505500Y-11075500D02*
X15380500Y-11200500D01*
X15443000Y-11075500D02*
X15443000Y-11200500D01*
X15380500Y-11138000D02*
X15505500Y-11138000D01*
X15644500Y-11074500D02*
X15769500Y-11199500D01*
X15769500Y-11074500D02*
X15644500Y-11199500D01*
X15707000Y-11074500D02*
X15707000Y-11199500D01*
X15644500Y-11137000D02*
X15769500Y-11137000D01*
D13*
X14864070Y-10047070D02*
X15013930Y-10196930D01*
X15013930Y-10047070D02*
X14864070Y-10196930D01*
X14991984Y-10174984D02*
X14991984Y-10069016D01*
X14886016Y-10069016D01*
X14886016Y-10174984D01*
X14991984Y-10174984D01*
X15684070Y-10047070D02*
X15833930Y-10196930D01*
X15833930Y-10047070D02*
X15684070Y-10196930D01*
X15811984Y-10174984D02*
X15811984Y-10069016D01*
X15706016Y-10069016D01*
X15706016Y-10174984D01*
X15811984Y-10174984D01*
D14*
X10124865Y-12021868D02*
X10349865Y-12246868D01*
X10349865Y-12021868D02*
X10124865Y-12246868D01*
X10237365Y-12246868D02*
X10349865Y-12134368D01*
X10237365Y-12021868D01*
X10124865Y-12134368D01*
X10237365Y-12246868D01*
X10124865Y-12808458D02*
X10349865Y-13033458D01*
X10349865Y-12808458D02*
X10124865Y-13033458D01*
X10237365Y-13033458D02*
X10349865Y-12920958D01*
X10237365Y-12808458D01*
X10124865Y-12920958D01*
X10237365Y-13033458D01*
X13317365Y-12020958D02*
X13542365Y-12245958D01*
X13542365Y-12020958D02*
X13317365Y-12245958D01*
X13429865Y-12245958D02*
X13542365Y-12133458D01*
X13429865Y-12020958D01*
X13317365Y-12133458D01*
X13429865Y-12245958D01*
X13317365Y-12808458D02*
X13542365Y-13033458D01*
X13542365Y-12808458D02*
X13317365Y-13033458D01*
X13429865Y-13033458D02*
X13542365Y-12920958D01*
X13429865Y-12808458D01*
X13317365Y-12920958D01*
X13429865Y-13033458D01*
D10*
X9782777Y-15219484D02*
X9782777Y-15019484D01*
X9782777Y-15019484D02*
X9830396Y-15019484D01*
X9830396Y-15019484D02*
X9858967Y-15029008D01*
X9858967Y-15029008D02*
X9878015Y-15048055D01*
X9878015Y-15048055D02*
X9887539Y-15067103D01*
X9887539Y-15067103D02*
X9897063Y-15105198D01*
X9897063Y-15105198D02*
X9897063Y-15133769D01*
X9897063Y-15133769D02*
X9887539Y-15171865D01*
X9887539Y-15171865D02*
X9878015Y-15190912D01*
X9878015Y-15190912D02*
X9858967Y-15209960D01*
X9858967Y-15209960D02*
X9830396Y-15219484D01*
X9830396Y-15219484D02*
X9782777Y-15219484D01*
X9982777Y-15219484D02*
X9982777Y-15086150D01*
X9982777Y-15124246D02*
X9992301Y-15105198D01*
X9992301Y-15105198D02*
X10001824Y-15095674D01*
X10001824Y-15095674D02*
X10020872Y-15086150D01*
X10020872Y-15086150D02*
X10039920Y-15086150D01*
X10106586Y-15219484D02*
X10106586Y-15086150D01*
X10106586Y-15019484D02*
X10097063Y-15029008D01*
X10097063Y-15029008D02*
X10106586Y-15038531D01*
X10106586Y-15038531D02*
X10116110Y-15029008D01*
X10116110Y-15029008D02*
X10106586Y-15019484D01*
X10106586Y-15019484D02*
X10106586Y-15038531D01*
X10230396Y-15219484D02*
X10211348Y-15209960D01*
X10211348Y-15209960D02*
X10201824Y-15190912D01*
X10201824Y-15190912D02*
X10201824Y-15019484D01*
X10335158Y-15219484D02*
X10316110Y-15209960D01*
X10316110Y-15209960D02*
X10306586Y-15190912D01*
X10306586Y-15190912D02*
X10306586Y-15019484D01*
X10563729Y-15219484D02*
X10563729Y-15019484D01*
X10563729Y-15019484D02*
X10630396Y-15162341D01*
X10630396Y-15162341D02*
X10697063Y-15019484D01*
X10697063Y-15019484D02*
X10697063Y-15219484D01*
X10878015Y-15219484D02*
X10878015Y-15114722D01*
X10878015Y-15114722D02*
X10868491Y-15095674D01*
X10868491Y-15095674D02*
X10849444Y-15086150D01*
X10849444Y-15086150D02*
X10811348Y-15086150D01*
X10811348Y-15086150D02*
X10792301Y-15095674D01*
X10878015Y-15209960D02*
X10858967Y-15219484D01*
X10858967Y-15219484D02*
X10811348Y-15219484D01*
X10811348Y-15219484D02*
X10792301Y-15209960D01*
X10792301Y-15209960D02*
X10782777Y-15190912D01*
X10782777Y-15190912D02*
X10782777Y-15171865D01*
X10782777Y-15171865D02*
X10792301Y-15152817D01*
X10792301Y-15152817D02*
X10811348Y-15143293D01*
X10811348Y-15143293D02*
X10858967Y-15143293D01*
X10858967Y-15143293D02*
X10878015Y-15133769D01*
X10973253Y-15086150D02*
X10973253Y-15286150D01*
X10973253Y-15095674D02*
X10992301Y-15086150D01*
X10992301Y-15086150D02*
X11030396Y-15086150D01*
X11030396Y-15086150D02*
X11049444Y-15095674D01*
X11049444Y-15095674D02*
X11058967Y-15105198D01*
X11058967Y-15105198D02*
X11068491Y-15124246D01*
X11068491Y-15124246D02*
X11068491Y-15181388D01*
X11068491Y-15181388D02*
X11058967Y-15200436D01*
X11058967Y-15200436D02*
X11049444Y-15209960D01*
X11049444Y-15209960D02*
X11030396Y-15219484D01*
X11030396Y-15219484D02*
X10992301Y-15219484D01*
X10992301Y-15219484D02*
X10973253Y-15209960D01*
X11154205Y-15200436D02*
X11163729Y-15209960D01*
X11163729Y-15209960D02*
X11154205Y-15219484D01*
X11154205Y-15219484D02*
X11144682Y-15209960D01*
X11144682Y-15209960D02*
X11154205Y-15200436D01*
X11154205Y-15200436D02*
X11154205Y-15219484D01*
X11154205Y-15095674D02*
X11163729Y-15105198D01*
X11163729Y-15105198D02*
X11154205Y-15114722D01*
X11154205Y-15114722D02*
X11144682Y-15105198D01*
X11144682Y-15105198D02*
X11154205Y-15095674D01*
X11154205Y-15095674D02*
X11154205Y-15114722D01*
D11*
X9492000Y-15533000D02*
X9522000Y-15563000D01*
X9522000Y-15533000D02*
X9492000Y-15563000D01*
D10*
X9820872Y-15439484D02*
X9839920Y-15439484D01*
X9839920Y-15439484D02*
X9858967Y-15449008D01*
X9858967Y-15449008D02*
X9868491Y-15458531D01*
X9868491Y-15458531D02*
X9878015Y-15477579D01*
X9878015Y-15477579D02*
X9887539Y-15515674D01*
X9887539Y-15515674D02*
X9887539Y-15563293D01*
X9887539Y-15563293D02*
X9878015Y-15601388D01*
X9878015Y-15601388D02*
X9868491Y-15620436D01*
X9868491Y-15620436D02*
X9858967Y-15629960D01*
X9858967Y-15629960D02*
X9839920Y-15639484D01*
X9839920Y-15639484D02*
X9820872Y-15639484D01*
X9820872Y-15639484D02*
X9801824Y-15629960D01*
X9801824Y-15629960D02*
X9792301Y-15620436D01*
X9792301Y-15620436D02*
X9782777Y-15601388D01*
X9782777Y-15601388D02*
X9773253Y-15563293D01*
X9773253Y-15563293D02*
X9773253Y-15515674D01*
X9773253Y-15515674D02*
X9782777Y-15477579D01*
X9782777Y-15477579D02*
X9792301Y-15458531D01*
X9792301Y-15458531D02*
X9801824Y-15449008D01*
X9801824Y-15449008D02*
X9820872Y-15439484D01*
X9973253Y-15620436D02*
X9982777Y-15629960D01*
X9982777Y-15629960D02*
X9973253Y-15639484D01*
X9973253Y-15639484D02*
X9963729Y-15629960D01*
X9963729Y-15629960D02*
X9973253Y-15620436D01*
X9973253Y-15620436D02*
X9973253Y-15639484D01*
X10049444Y-15439484D02*
X10173253Y-15439484D01*
X10173253Y-15439484D02*
X10106586Y-15515674D01*
X10106586Y-15515674D02*
X10135158Y-15515674D01*
X10135158Y-15515674D02*
X10154205Y-15525198D01*
X10154205Y-15525198D02*
X10163729Y-15534722D01*
X10163729Y-15534722D02*
X10173253Y-15553769D01*
X10173253Y-15553769D02*
X10173253Y-15601388D01*
X10173253Y-15601388D02*
X10163729Y-15620436D01*
X10163729Y-15620436D02*
X10154205Y-15629960D01*
X10154205Y-15629960D02*
X10135158Y-15639484D01*
X10135158Y-15639484D02*
X10078015Y-15639484D01*
X10078015Y-15639484D02*
X10058967Y-15629960D01*
X10058967Y-15629960D02*
X10049444Y-15620436D01*
X10297063Y-15439484D02*
X10316110Y-15439484D01*
X10316110Y-15439484D02*
X10335158Y-15449008D01*
X10335158Y-15449008D02*
X10344682Y-15458531D01*
X10344682Y-15458531D02*
X10354205Y-15477579D01*
X10354205Y-15477579D02*
X10363729Y-15515674D01*
X10363729Y-15515674D02*
X10363729Y-15563293D01*
X10363729Y-15563293D02*
X10354205Y-15601388D01*
X10354205Y-15601388D02*
X10344682Y-15620436D01*
X10344682Y-15620436D02*
X10335158Y-15629960D01*
X10335158Y-15629960D02*
X10316110Y-15639484D01*
X10316110Y-15639484D02*
X10297063Y-15639484D01*
X10297063Y-15639484D02*
X10278015Y-15629960D01*
X10278015Y-15629960D02*
X10268491Y-15620436D01*
X10268491Y-15620436D02*
X10258967Y-15601388D01*
X10258967Y-15601388D02*
X10249444Y-15563293D01*
X10249444Y-15563293D02*
X10249444Y-15515674D01*
X10249444Y-15515674D02*
X10258967Y-15477579D01*
X10258967Y-15477579D02*
X10268491Y-15458531D01*
X10268491Y-15458531D02*
X10278015Y-15449008D01*
X10278015Y-15449008D02*
X10297063Y-15439484D01*
X10487539Y-15439484D02*
X10506586Y-15439484D01*
X10506586Y-15439484D02*
X10525634Y-15449008D01*
X10525634Y-15449008D02*
X10535158Y-15458531D01*
X10535158Y-15458531D02*
X10544682Y-15477579D01*
X10544682Y-15477579D02*
X10554205Y-15515674D01*
X10554205Y-15515674D02*
X10554205Y-15563293D01*
X10554205Y-15563293D02*
X10544682Y-15601388D01*
X10544682Y-15601388D02*
X10535158Y-15620436D01*
X10535158Y-15620436D02*
X10525634Y-15629960D01*
X10525634Y-15629960D02*
X10506586Y-15639484D01*
X10506586Y-15639484D02*
X10487539Y-15639484D01*
X10487539Y-15639484D02*
X10468491Y-15629960D01*
X10468491Y-15629960D02*
X10458967Y-15620436D01*
X10458967Y-15620436D02*
X10449444Y-15601388D01*
X10449444Y-15601388D02*
X10439920Y-15563293D01*
X10439920Y-15563293D02*
X10439920Y-15515674D01*
X10439920Y-15515674D02*
X10449444Y-15477579D01*
X10449444Y-15477579D02*
X10458967Y-15458531D01*
X10458967Y-15458531D02*
X10468491Y-15449008D01*
X10468491Y-15449008D02*
X10487539Y-15439484D01*
X10639920Y-15639484D02*
X10639920Y-15506150D01*
X10639920Y-15525198D02*
X10649444Y-15515674D01*
X10649444Y-15515674D02*
X10668491Y-15506150D01*
X10668491Y-15506150D02*
X10697063Y-15506150D01*
X10697063Y-15506150D02*
X10716110Y-15515674D01*
X10716110Y-15515674D02*
X10725634Y-15534722D01*
X10725634Y-15534722D02*
X10725634Y-15639484D01*
X10725634Y-15534722D02*
X10735158Y-15515674D01*
X10735158Y-15515674D02*
X10754205Y-15506150D01*
X10754205Y-15506150D02*
X10782777Y-15506150D01*
X10782777Y-15506150D02*
X10801825Y-15515674D01*
X10801825Y-15515674D02*
X10811348Y-15534722D01*
X10811348Y-15534722D02*
X10811348Y-15639484D01*
X10906586Y-15639484D02*
X10906586Y-15506150D01*
X10906586Y-15525198D02*
X10916110Y-15515674D01*
X10916110Y-15515674D02*
X10935158Y-15506150D01*
X10935158Y-15506150D02*
X10963729Y-15506150D01*
X10963729Y-15506150D02*
X10982777Y-15515674D01*
X10982777Y-15515674D02*
X10992301Y-15534722D01*
X10992301Y-15534722D02*
X10992301Y-15639484D01*
X10992301Y-15534722D02*
X11001825Y-15515674D01*
X11001825Y-15515674D02*
X11020872Y-15506150D01*
X11020872Y-15506150D02*
X11049444Y-15506150D01*
X11049444Y-15506150D02*
X11068491Y-15515674D01*
X11068491Y-15515674D02*
X11078015Y-15534722D01*
X11078015Y-15534722D02*
X11078015Y-15639484D01*
X11468491Y-15429960D02*
X11297063Y-15687103D01*
X11725634Y-15439484D02*
X11744682Y-15439484D01*
X11744682Y-15439484D02*
X11763729Y-15449008D01*
X11763729Y-15449008D02*
X11773253Y-15458531D01*
X11773253Y-15458531D02*
X11782777Y-15477579D01*
X11782777Y-15477579D02*
X11792301Y-15515674D01*
X11792301Y-15515674D02*
X11792301Y-15563293D01*
X11792301Y-15563293D02*
X11782777Y-15601388D01*
X11782777Y-15601388D02*
X11773253Y-15620436D01*
X11773253Y-15620436D02*
X11763729Y-15629960D01*
X11763729Y-15629960D02*
X11744682Y-15639484D01*
X11744682Y-15639484D02*
X11725634Y-15639484D01*
X11725634Y-15639484D02*
X11706586Y-15629960D01*
X11706586Y-15629960D02*
X11697063Y-15620436D01*
X11697063Y-15620436D02*
X11687539Y-15601388D01*
X11687539Y-15601388D02*
X11678015Y-15563293D01*
X11678015Y-15563293D02*
X11678015Y-15515674D01*
X11678015Y-15515674D02*
X11687539Y-15477579D01*
X11687539Y-15477579D02*
X11697063Y-15458531D01*
X11697063Y-15458531D02*
X11706586Y-15449008D01*
X11706586Y-15449008D02*
X11725634Y-15439484D01*
X11878015Y-15620436D02*
X11887539Y-15629960D01*
X11887539Y-15629960D02*
X11878015Y-15639484D01*
X11878015Y-15639484D02*
X11868491Y-15629960D01*
X11868491Y-15629960D02*
X11878015Y-15620436D01*
X11878015Y-15620436D02*
X11878015Y-15639484D01*
X12011348Y-15439484D02*
X12030396Y-15439484D01*
X12030396Y-15439484D02*
X12049444Y-15449008D01*
X12049444Y-15449008D02*
X12058967Y-15458531D01*
X12058967Y-15458531D02*
X12068491Y-15477579D01*
X12068491Y-15477579D02*
X12078015Y-15515674D01*
X12078015Y-15515674D02*
X12078015Y-15563293D01*
X12078015Y-15563293D02*
X12068491Y-15601388D01*
X12068491Y-15601388D02*
X12058967Y-15620436D01*
X12058967Y-15620436D02*
X12049444Y-15629960D01*
X12049444Y-15629960D02*
X12030396Y-15639484D01*
X12030396Y-15639484D02*
X12011348Y-15639484D01*
X12011348Y-15639484D02*
X11992301Y-15629960D01*
X11992301Y-15629960D02*
X11982777Y-15620436D01*
X11982777Y-15620436D02*
X11973253Y-15601388D01*
X11973253Y-15601388D02*
X11963729Y-15563293D01*
X11963729Y-15563293D02*
X11963729Y-15515674D01*
X11963729Y-15515674D02*
X11973253Y-15477579D01*
X11973253Y-15477579D02*
X11982777Y-15458531D01*
X11982777Y-15458531D02*
X11992301Y-15449008D01*
X11992301Y-15449008D02*
X12011348Y-15439484D01*
X12268491Y-15639484D02*
X12154206Y-15639484D01*
X12211348Y-15639484D02*
X12211348Y-15439484D01*
X12211348Y-15439484D02*
X12192301Y-15468055D01*
X12192301Y-15468055D02*
X12173253Y-15487103D01*
X12173253Y-15487103D02*
X12154206Y-15496627D01*
X12458967Y-15639484D02*
X12344682Y-15639484D01*
X12401825Y-15639484D02*
X12401825Y-15439484D01*
X12401825Y-15439484D02*
X12382777Y-15468055D01*
X12382777Y-15468055D02*
X12363729Y-15487103D01*
X12363729Y-15487103D02*
X12344682Y-15496627D01*
X12573253Y-15525198D02*
X12554206Y-15515674D01*
X12554206Y-15515674D02*
X12544682Y-15506150D01*
X12544682Y-15506150D02*
X12535158Y-15487103D01*
X12535158Y-15487103D02*
X12535158Y-15477579D01*
X12535158Y-15477579D02*
X12544682Y-15458531D01*
X12544682Y-15458531D02*
X12554206Y-15449008D01*
X12554206Y-15449008D02*
X12573253Y-15439484D01*
X12573253Y-15439484D02*
X12611348Y-15439484D01*
X12611348Y-15439484D02*
X12630396Y-15449008D01*
X12630396Y-15449008D02*
X12639920Y-15458531D01*
X12639920Y-15458531D02*
X12649444Y-15477579D01*
X12649444Y-15477579D02*
X12649444Y-15487103D01*
X12649444Y-15487103D02*
X12639920Y-15506150D01*
X12639920Y-15506150D02*
X12630396Y-15515674D01*
X12630396Y-15515674D02*
X12611348Y-15525198D01*
X12611348Y-15525198D02*
X12573253Y-15525198D01*
X12573253Y-15525198D02*
X12554206Y-15534722D01*
X12554206Y-15534722D02*
X12544682Y-15544246D01*
X12544682Y-15544246D02*
X12535158Y-15563293D01*
X12535158Y-15563293D02*
X12535158Y-15601388D01*
X12535158Y-15601388D02*
X12544682Y-15620436D01*
X12544682Y-15620436D02*
X12554206Y-15629960D01*
X12554206Y-15629960D02*
X12573253Y-15639484D01*
X12573253Y-15639484D02*
X12611348Y-15639484D01*
X12611348Y-15639484D02*
X12630396Y-15629960D01*
X12630396Y-15629960D02*
X12639920Y-15620436D01*
X12639920Y-15620436D02*
X12649444Y-15601388D01*
X12649444Y-15601388D02*
X12649444Y-15563293D01*
X12649444Y-15563293D02*
X12639920Y-15544246D01*
X12639920Y-15544246D02*
X12630396Y-15534722D01*
X12630396Y-15534722D02*
X12611348Y-15525198D01*
X12725634Y-15439484D02*
X12725634Y-15477579D01*
X12801825Y-15439484D02*
X12801825Y-15477579D01*
X13097063Y-15715674D02*
X13087539Y-15706150D01*
X13087539Y-15706150D02*
X13068491Y-15677579D01*
X13068491Y-15677579D02*
X13058968Y-15658531D01*
X13058968Y-15658531D02*
X13049444Y-15629960D01*
X13049444Y-15629960D02*
X13039920Y-15582341D01*
X13039920Y-15582341D02*
X13039920Y-15544246D01*
X13039920Y-15544246D02*
X13049444Y-15496627D01*
X13049444Y-15496627D02*
X13058968Y-15468055D01*
X13058968Y-15468055D02*
X13068491Y-15449008D01*
X13068491Y-15449008D02*
X13087539Y-15420436D01*
X13087539Y-15420436D02*
X13097063Y-15410912D01*
X13278015Y-15639484D02*
X13163729Y-15639484D01*
X13220872Y-15639484D02*
X13220872Y-15439484D01*
X13220872Y-15439484D02*
X13201825Y-15468055D01*
X13201825Y-15468055D02*
X13182777Y-15487103D01*
X13182777Y-15487103D02*
X13163729Y-15496627D01*
X13373253Y-15639484D02*
X13411348Y-15639484D01*
X13411348Y-15639484D02*
X13430396Y-15629960D01*
X13430396Y-15629960D02*
X13439920Y-15620436D01*
X13439920Y-15620436D02*
X13458968Y-15591865D01*
X13458968Y-15591865D02*
X13468491Y-15553769D01*
X13468491Y-15553769D02*
X13468491Y-15477579D01*
X13468491Y-15477579D02*
X13458968Y-15458531D01*
X13458968Y-15458531D02*
X13449444Y-15449008D01*
X13449444Y-15449008D02*
X13430396Y-15439484D01*
X13430396Y-15439484D02*
X13392301Y-15439484D01*
X13392301Y-15439484D02*
X13373253Y-15449008D01*
X13373253Y-15449008D02*
X13363729Y-15458531D01*
X13363729Y-15458531D02*
X13354206Y-15477579D01*
X13354206Y-15477579D02*
X13354206Y-15525198D01*
X13354206Y-15525198D02*
X13363729Y-15544246D01*
X13363729Y-15544246D02*
X13373253Y-15553769D01*
X13373253Y-15553769D02*
X13392301Y-15563293D01*
X13392301Y-15563293D02*
X13430396Y-15563293D01*
X13430396Y-15563293D02*
X13449444Y-15553769D01*
X13449444Y-15553769D02*
X13458968Y-15544246D01*
X13458968Y-15544246D02*
X13468491Y-15525198D01*
X13706587Y-15639484D02*
X13706587Y-15439484D01*
X13792301Y-15639484D02*
X13792301Y-15534722D01*
X13792301Y-15534722D02*
X13782777Y-15515674D01*
X13782777Y-15515674D02*
X13763730Y-15506150D01*
X13763730Y-15506150D02*
X13735158Y-15506150D01*
X13735158Y-15506150D02*
X13716110Y-15515674D01*
X13716110Y-15515674D02*
X13706587Y-15525198D01*
X13916110Y-15639484D02*
X13897063Y-15629960D01*
X13897063Y-15629960D02*
X13887539Y-15620436D01*
X13887539Y-15620436D02*
X13878015Y-15601388D01*
X13878015Y-15601388D02*
X13878015Y-15544246D01*
X13878015Y-15544246D02*
X13887539Y-15525198D01*
X13887539Y-15525198D02*
X13897063Y-15515674D01*
X13897063Y-15515674D02*
X13916110Y-15506150D01*
X13916110Y-15506150D02*
X13944682Y-15506150D01*
X13944682Y-15506150D02*
X13963730Y-15515674D01*
X13963730Y-15515674D02*
X13973253Y-15525198D01*
X13973253Y-15525198D02*
X13982777Y-15544246D01*
X13982777Y-15544246D02*
X13982777Y-15601388D01*
X13982777Y-15601388D02*
X13973253Y-15620436D01*
X13973253Y-15620436D02*
X13963730Y-15629960D01*
X13963730Y-15629960D02*
X13944682Y-15639484D01*
X13944682Y-15639484D02*
X13916110Y-15639484D01*
X14097063Y-15639484D02*
X14078015Y-15629960D01*
X14078015Y-15629960D02*
X14068491Y-15610912D01*
X14068491Y-15610912D02*
X14068491Y-15439484D01*
X14249444Y-15629960D02*
X14230396Y-15639484D01*
X14230396Y-15639484D02*
X14192301Y-15639484D01*
X14192301Y-15639484D02*
X14173253Y-15629960D01*
X14173253Y-15629960D02*
X14163730Y-15610912D01*
X14163730Y-15610912D02*
X14163730Y-15534722D01*
X14163730Y-15534722D02*
X14173253Y-15515674D01*
X14173253Y-15515674D02*
X14192301Y-15506150D01*
X14192301Y-15506150D02*
X14230396Y-15506150D01*
X14230396Y-15506150D02*
X14249444Y-15515674D01*
X14249444Y-15515674D02*
X14258968Y-15534722D01*
X14258968Y-15534722D02*
X14258968Y-15553769D01*
X14258968Y-15553769D02*
X14163730Y-15572817D01*
X14335158Y-15629960D02*
X14354206Y-15639484D01*
X14354206Y-15639484D02*
X14392301Y-15639484D01*
X14392301Y-15639484D02*
X14411349Y-15629960D01*
X14411349Y-15629960D02*
X14420872Y-15610912D01*
X14420872Y-15610912D02*
X14420872Y-15601388D01*
X14420872Y-15601388D02*
X14411349Y-15582341D01*
X14411349Y-15582341D02*
X14392301Y-15572817D01*
X14392301Y-15572817D02*
X14363730Y-15572817D01*
X14363730Y-15572817D02*
X14344682Y-15563293D01*
X14344682Y-15563293D02*
X14335158Y-15544246D01*
X14335158Y-15544246D02*
X14335158Y-15534722D01*
X14335158Y-15534722D02*
X14344682Y-15515674D01*
X14344682Y-15515674D02*
X14363730Y-15506150D01*
X14363730Y-15506150D02*
X14392301Y-15506150D01*
X14392301Y-15506150D02*
X14411349Y-15515674D01*
X14487539Y-15715674D02*
X14497063Y-15706150D01*
X14497063Y-15706150D02*
X14516111Y-15677579D01*
X14516111Y-15677579D02*
X14525634Y-15658531D01*
X14525634Y-15658531D02*
X14535158Y-15629960D01*
X14535158Y-15629960D02*
X14544682Y-15582341D01*
X14544682Y-15582341D02*
X14544682Y-15544246D01*
X14544682Y-15544246D02*
X14535158Y-15496627D01*
X14535158Y-15496627D02*
X14525634Y-15468055D01*
X14525634Y-15468055D02*
X14516111Y-15449008D01*
X14516111Y-15449008D02*
X14497063Y-15420436D01*
X14497063Y-15420436D02*
X14487539Y-15410912D01*
D11*
X9522000Y-15812000D02*
G75*
G02*
X9483900Y-15812000I-19050J0D01*
G01*
X9483900Y-15812000D02*
G75*
G02*
X9522000Y-15812000I19050J0D01*
G01*
D10*
X9820872Y-15703484D02*
X9839920Y-15703484D01*
X9839920Y-15703484D02*
X9858967Y-15713008D01*
X9858967Y-15713008D02*
X9868491Y-15722531D01*
X9868491Y-15722531D02*
X9878015Y-15741579D01*
X9878015Y-15741579D02*
X9887539Y-15779674D01*
X9887539Y-15779674D02*
X9887539Y-15827293D01*
X9887539Y-15827293D02*
X9878015Y-15865388D01*
X9878015Y-15865388D02*
X9868491Y-15884436D01*
X9868491Y-15884436D02*
X9858967Y-15893960D01*
X9858967Y-15893960D02*
X9839920Y-15903484D01*
X9839920Y-15903484D02*
X9820872Y-15903484D01*
X9820872Y-15903484D02*
X9801824Y-15893960D01*
X9801824Y-15893960D02*
X9792301Y-15884436D01*
X9792301Y-15884436D02*
X9782777Y-15865388D01*
X9782777Y-15865388D02*
X9773253Y-15827293D01*
X9773253Y-15827293D02*
X9773253Y-15779674D01*
X9773253Y-15779674D02*
X9782777Y-15741579D01*
X9782777Y-15741579D02*
X9792301Y-15722531D01*
X9792301Y-15722531D02*
X9801824Y-15713008D01*
X9801824Y-15713008D02*
X9820872Y-15703484D01*
X9973253Y-15884436D02*
X9982777Y-15893960D01*
X9982777Y-15893960D02*
X9973253Y-15903484D01*
X9973253Y-15903484D02*
X9963729Y-15893960D01*
X9963729Y-15893960D02*
X9973253Y-15884436D01*
X9973253Y-15884436D02*
X9973253Y-15903484D01*
X10049444Y-15703484D02*
X10173253Y-15703484D01*
X10173253Y-15703484D02*
X10106586Y-15779674D01*
X10106586Y-15779674D02*
X10135158Y-15779674D01*
X10135158Y-15779674D02*
X10154205Y-15789198D01*
X10154205Y-15789198D02*
X10163729Y-15798722D01*
X10163729Y-15798722D02*
X10173253Y-15817769D01*
X10173253Y-15817769D02*
X10173253Y-15865388D01*
X10173253Y-15865388D02*
X10163729Y-15884436D01*
X10163729Y-15884436D02*
X10154205Y-15893960D01*
X10154205Y-15893960D02*
X10135158Y-15903484D01*
X10135158Y-15903484D02*
X10078015Y-15903484D01*
X10078015Y-15903484D02*
X10058967Y-15893960D01*
X10058967Y-15893960D02*
X10049444Y-15884436D01*
X10287539Y-15789198D02*
X10268491Y-15779674D01*
X10268491Y-15779674D02*
X10258967Y-15770150D01*
X10258967Y-15770150D02*
X10249444Y-15751103D01*
X10249444Y-15751103D02*
X10249444Y-15741579D01*
X10249444Y-15741579D02*
X10258967Y-15722531D01*
X10258967Y-15722531D02*
X10268491Y-15713008D01*
X10268491Y-15713008D02*
X10287539Y-15703484D01*
X10287539Y-15703484D02*
X10325634Y-15703484D01*
X10325634Y-15703484D02*
X10344682Y-15713008D01*
X10344682Y-15713008D02*
X10354205Y-15722531D01*
X10354205Y-15722531D02*
X10363729Y-15741579D01*
X10363729Y-15741579D02*
X10363729Y-15751103D01*
X10363729Y-15751103D02*
X10354205Y-15770150D01*
X10354205Y-15770150D02*
X10344682Y-15779674D01*
X10344682Y-15779674D02*
X10325634Y-15789198D01*
X10325634Y-15789198D02*
X10287539Y-15789198D01*
X10287539Y-15789198D02*
X10268491Y-15798722D01*
X10268491Y-15798722D02*
X10258967Y-15808246D01*
X10258967Y-15808246D02*
X10249444Y-15827293D01*
X10249444Y-15827293D02*
X10249444Y-15865388D01*
X10249444Y-15865388D02*
X10258967Y-15884436D01*
X10258967Y-15884436D02*
X10268491Y-15893960D01*
X10268491Y-15893960D02*
X10287539Y-15903484D01*
X10287539Y-15903484D02*
X10325634Y-15903484D01*
X10325634Y-15903484D02*
X10344682Y-15893960D01*
X10344682Y-15893960D02*
X10354205Y-15884436D01*
X10354205Y-15884436D02*
X10363729Y-15865388D01*
X10363729Y-15865388D02*
X10363729Y-15827293D01*
X10363729Y-15827293D02*
X10354205Y-15808246D01*
X10354205Y-15808246D02*
X10344682Y-15798722D01*
X10344682Y-15798722D02*
X10325634Y-15789198D01*
X10554205Y-15903484D02*
X10439920Y-15903484D01*
X10497063Y-15903484D02*
X10497063Y-15703484D01*
X10497063Y-15703484D02*
X10478015Y-15732055D01*
X10478015Y-15732055D02*
X10458967Y-15751103D01*
X10458967Y-15751103D02*
X10439920Y-15760627D01*
X10639920Y-15903484D02*
X10639920Y-15770150D01*
X10639920Y-15789198D02*
X10649444Y-15779674D01*
X10649444Y-15779674D02*
X10668491Y-15770150D01*
X10668491Y-15770150D02*
X10697063Y-15770150D01*
X10697063Y-15770150D02*
X10716110Y-15779674D01*
X10716110Y-15779674D02*
X10725634Y-15798722D01*
X10725634Y-15798722D02*
X10725634Y-15903484D01*
X10725634Y-15798722D02*
X10735158Y-15779674D01*
X10735158Y-15779674D02*
X10754205Y-15770150D01*
X10754205Y-15770150D02*
X10782777Y-15770150D01*
X10782777Y-15770150D02*
X10801825Y-15779674D01*
X10801825Y-15779674D02*
X10811348Y-15798722D01*
X10811348Y-15798722D02*
X10811348Y-15903484D01*
X10906586Y-15903484D02*
X10906586Y-15770150D01*
X10906586Y-15789198D02*
X10916110Y-15779674D01*
X10916110Y-15779674D02*
X10935158Y-15770150D01*
X10935158Y-15770150D02*
X10963729Y-15770150D01*
X10963729Y-15770150D02*
X10982777Y-15779674D01*
X10982777Y-15779674D02*
X10992301Y-15798722D01*
X10992301Y-15798722D02*
X10992301Y-15903484D01*
X10992301Y-15798722D02*
X11001825Y-15779674D01*
X11001825Y-15779674D02*
X11020872Y-15770150D01*
X11020872Y-15770150D02*
X11049444Y-15770150D01*
X11049444Y-15770150D02*
X11068491Y-15779674D01*
X11068491Y-15779674D02*
X11078015Y-15798722D01*
X11078015Y-15798722D02*
X11078015Y-15903484D01*
X11468491Y-15693960D02*
X11297063Y-15951103D01*
X11725634Y-15703484D02*
X11744682Y-15703484D01*
X11744682Y-15703484D02*
X11763729Y-15713008D01*
X11763729Y-15713008D02*
X11773253Y-15722531D01*
X11773253Y-15722531D02*
X11782777Y-15741579D01*
X11782777Y-15741579D02*
X11792301Y-15779674D01*
X11792301Y-15779674D02*
X11792301Y-15827293D01*
X11792301Y-15827293D02*
X11782777Y-15865388D01*
X11782777Y-15865388D02*
X11773253Y-15884436D01*
X11773253Y-15884436D02*
X11763729Y-15893960D01*
X11763729Y-15893960D02*
X11744682Y-15903484D01*
X11744682Y-15903484D02*
X11725634Y-15903484D01*
X11725634Y-15903484D02*
X11706586Y-15893960D01*
X11706586Y-15893960D02*
X11697063Y-15884436D01*
X11697063Y-15884436D02*
X11687539Y-15865388D01*
X11687539Y-15865388D02*
X11678015Y-15827293D01*
X11678015Y-15827293D02*
X11678015Y-15779674D01*
X11678015Y-15779674D02*
X11687539Y-15741579D01*
X11687539Y-15741579D02*
X11697063Y-15722531D01*
X11697063Y-15722531D02*
X11706586Y-15713008D01*
X11706586Y-15713008D02*
X11725634Y-15703484D01*
X11878015Y-15884436D02*
X11887539Y-15893960D01*
X11887539Y-15893960D02*
X11878015Y-15903484D01*
X11878015Y-15903484D02*
X11868491Y-15893960D01*
X11868491Y-15893960D02*
X11878015Y-15884436D01*
X11878015Y-15884436D02*
X11878015Y-15903484D01*
X12011348Y-15703484D02*
X12030396Y-15703484D01*
X12030396Y-15703484D02*
X12049444Y-15713008D01*
X12049444Y-15713008D02*
X12058967Y-15722531D01*
X12058967Y-15722531D02*
X12068491Y-15741579D01*
X12068491Y-15741579D02*
X12078015Y-15779674D01*
X12078015Y-15779674D02*
X12078015Y-15827293D01*
X12078015Y-15827293D02*
X12068491Y-15865388D01*
X12068491Y-15865388D02*
X12058967Y-15884436D01*
X12058967Y-15884436D02*
X12049444Y-15893960D01*
X12049444Y-15893960D02*
X12030396Y-15903484D01*
X12030396Y-15903484D02*
X12011348Y-15903484D01*
X12011348Y-15903484D02*
X11992301Y-15893960D01*
X11992301Y-15893960D02*
X11982777Y-15884436D01*
X11982777Y-15884436D02*
X11973253Y-15865388D01*
X11973253Y-15865388D02*
X11963729Y-15827293D01*
X11963729Y-15827293D02*
X11963729Y-15779674D01*
X11963729Y-15779674D02*
X11973253Y-15741579D01*
X11973253Y-15741579D02*
X11982777Y-15722531D01*
X11982777Y-15722531D02*
X11992301Y-15713008D01*
X11992301Y-15713008D02*
X12011348Y-15703484D01*
X12268491Y-15903484D02*
X12154206Y-15903484D01*
X12211348Y-15903484D02*
X12211348Y-15703484D01*
X12211348Y-15703484D02*
X12192301Y-15732055D01*
X12192301Y-15732055D02*
X12173253Y-15751103D01*
X12173253Y-15751103D02*
X12154206Y-15760627D01*
X12449444Y-15703484D02*
X12354206Y-15703484D01*
X12354206Y-15703484D02*
X12344682Y-15798722D01*
X12344682Y-15798722D02*
X12354206Y-15789198D01*
X12354206Y-15789198D02*
X12373253Y-15779674D01*
X12373253Y-15779674D02*
X12420872Y-15779674D01*
X12420872Y-15779674D02*
X12439920Y-15789198D01*
X12439920Y-15789198D02*
X12449444Y-15798722D01*
X12449444Y-15798722D02*
X12458967Y-15817769D01*
X12458967Y-15817769D02*
X12458967Y-15865388D01*
X12458967Y-15865388D02*
X12449444Y-15884436D01*
X12449444Y-15884436D02*
X12439920Y-15893960D01*
X12439920Y-15893960D02*
X12420872Y-15903484D01*
X12420872Y-15903484D02*
X12373253Y-15903484D01*
X12373253Y-15903484D02*
X12354206Y-15893960D01*
X12354206Y-15893960D02*
X12344682Y-15884436D01*
X12582777Y-15703484D02*
X12601825Y-15703484D01*
X12601825Y-15703484D02*
X12620872Y-15713008D01*
X12620872Y-15713008D02*
X12630396Y-15722531D01*
X12630396Y-15722531D02*
X12639920Y-15741579D01*
X12639920Y-15741579D02*
X12649444Y-15779674D01*
X12649444Y-15779674D02*
X12649444Y-15827293D01*
X12649444Y-15827293D02*
X12639920Y-15865388D01*
X12639920Y-15865388D02*
X12630396Y-15884436D01*
X12630396Y-15884436D02*
X12620872Y-15893960D01*
X12620872Y-15893960D02*
X12601825Y-15903484D01*
X12601825Y-15903484D02*
X12582777Y-15903484D01*
X12582777Y-15903484D02*
X12563729Y-15893960D01*
X12563729Y-15893960D02*
X12554206Y-15884436D01*
X12554206Y-15884436D02*
X12544682Y-15865388D01*
X12544682Y-15865388D02*
X12535158Y-15827293D01*
X12535158Y-15827293D02*
X12535158Y-15779674D01*
X12535158Y-15779674D02*
X12544682Y-15741579D01*
X12544682Y-15741579D02*
X12554206Y-15722531D01*
X12554206Y-15722531D02*
X12563729Y-15713008D01*
X12563729Y-15713008D02*
X12582777Y-15703484D01*
X12725634Y-15703484D02*
X12725634Y-15741579D01*
X12801825Y-15703484D02*
X12801825Y-15741579D01*
X13097063Y-15979674D02*
X13087539Y-15970150D01*
X13087539Y-15970150D02*
X13068491Y-15941579D01*
X13068491Y-15941579D02*
X13058968Y-15922531D01*
X13058968Y-15922531D02*
X13049444Y-15893960D01*
X13049444Y-15893960D02*
X13039920Y-15846341D01*
X13039920Y-15846341D02*
X13039920Y-15808246D01*
X13039920Y-15808246D02*
X13049444Y-15760627D01*
X13049444Y-15760627D02*
X13058968Y-15732055D01*
X13058968Y-15732055D02*
X13068491Y-15713008D01*
X13068491Y-15713008D02*
X13087539Y-15684436D01*
X13087539Y-15684436D02*
X13097063Y-15674912D01*
X13154206Y-15703484D02*
X13278015Y-15703484D01*
X13278015Y-15703484D02*
X13211348Y-15779674D01*
X13211348Y-15779674D02*
X13239920Y-15779674D01*
X13239920Y-15779674D02*
X13258968Y-15789198D01*
X13258968Y-15789198D02*
X13268491Y-15798722D01*
X13268491Y-15798722D02*
X13278015Y-15817769D01*
X13278015Y-15817769D02*
X13278015Y-15865388D01*
X13278015Y-15865388D02*
X13268491Y-15884436D01*
X13268491Y-15884436D02*
X13258968Y-15893960D01*
X13258968Y-15893960D02*
X13239920Y-15903484D01*
X13239920Y-15903484D02*
X13182777Y-15903484D01*
X13182777Y-15903484D02*
X13163729Y-15893960D01*
X13163729Y-15893960D02*
X13154206Y-15884436D01*
X13392301Y-15789198D02*
X13373253Y-15779674D01*
X13373253Y-15779674D02*
X13363729Y-15770150D01*
X13363729Y-15770150D02*
X13354206Y-15751103D01*
X13354206Y-15751103D02*
X13354206Y-15741579D01*
X13354206Y-15741579D02*
X13363729Y-15722531D01*
X13363729Y-15722531D02*
X13373253Y-15713008D01*
X13373253Y-15713008D02*
X13392301Y-15703484D01*
X13392301Y-15703484D02*
X13430396Y-15703484D01*
X13430396Y-15703484D02*
X13449444Y-15713008D01*
X13449444Y-15713008D02*
X13458968Y-15722531D01*
X13458968Y-15722531D02*
X13468491Y-15741579D01*
X13468491Y-15741579D02*
X13468491Y-15751103D01*
X13468491Y-15751103D02*
X13458968Y-15770150D01*
X13458968Y-15770150D02*
X13449444Y-15779674D01*
X13449444Y-15779674D02*
X13430396Y-15789198D01*
X13430396Y-15789198D02*
X13392301Y-15789198D01*
X13392301Y-15789198D02*
X13373253Y-15798722D01*
X13373253Y-15798722D02*
X13363729Y-15808246D01*
X13363729Y-15808246D02*
X13354206Y-15827293D01*
X13354206Y-15827293D02*
X13354206Y-15865388D01*
X13354206Y-15865388D02*
X13363729Y-15884436D01*
X13363729Y-15884436D02*
X13373253Y-15893960D01*
X13373253Y-15893960D02*
X13392301Y-15903484D01*
X13392301Y-15903484D02*
X13430396Y-15903484D01*
X13430396Y-15903484D02*
X13449444Y-15893960D01*
X13449444Y-15893960D02*
X13458968Y-15884436D01*
X13458968Y-15884436D02*
X13468491Y-15865388D01*
X13468491Y-15865388D02*
X13468491Y-15827293D01*
X13468491Y-15827293D02*
X13458968Y-15808246D01*
X13458968Y-15808246D02*
X13449444Y-15798722D01*
X13449444Y-15798722D02*
X13430396Y-15789198D01*
X13706587Y-15903484D02*
X13706587Y-15703484D01*
X13792301Y-15903484D02*
X13792301Y-15798722D01*
X13792301Y-15798722D02*
X13782777Y-15779674D01*
X13782777Y-15779674D02*
X13763730Y-15770150D01*
X13763730Y-15770150D02*
X13735158Y-15770150D01*
X13735158Y-15770150D02*
X13716110Y-15779674D01*
X13716110Y-15779674D02*
X13706587Y-15789198D01*
X13916110Y-15903484D02*
X13897063Y-15893960D01*
X13897063Y-15893960D02*
X13887539Y-15884436D01*
X13887539Y-15884436D02*
X13878015Y-15865388D01*
X13878015Y-15865388D02*
X13878015Y-15808246D01*
X13878015Y-15808246D02*
X13887539Y-15789198D01*
X13887539Y-15789198D02*
X13897063Y-15779674D01*
X13897063Y-15779674D02*
X13916110Y-15770150D01*
X13916110Y-15770150D02*
X13944682Y-15770150D01*
X13944682Y-15770150D02*
X13963730Y-15779674D01*
X13963730Y-15779674D02*
X13973253Y-15789198D01*
X13973253Y-15789198D02*
X13982777Y-15808246D01*
X13982777Y-15808246D02*
X13982777Y-15865388D01*
X13982777Y-15865388D02*
X13973253Y-15884436D01*
X13973253Y-15884436D02*
X13963730Y-15893960D01*
X13963730Y-15893960D02*
X13944682Y-15903484D01*
X13944682Y-15903484D02*
X13916110Y-15903484D01*
X14097063Y-15903484D02*
X14078015Y-15893960D01*
X14078015Y-15893960D02*
X14068491Y-15874912D01*
X14068491Y-15874912D02*
X14068491Y-15703484D01*
X14249444Y-15893960D02*
X14230396Y-15903484D01*
X14230396Y-15903484D02*
X14192301Y-15903484D01*
X14192301Y-15903484D02*
X14173253Y-15893960D01*
X14173253Y-15893960D02*
X14163730Y-15874912D01*
X14163730Y-15874912D02*
X14163730Y-15798722D01*
X14163730Y-15798722D02*
X14173253Y-15779674D01*
X14173253Y-15779674D02*
X14192301Y-15770150D01*
X14192301Y-15770150D02*
X14230396Y-15770150D01*
X14230396Y-15770150D02*
X14249444Y-15779674D01*
X14249444Y-15779674D02*
X14258968Y-15798722D01*
X14258968Y-15798722D02*
X14258968Y-15817769D01*
X14258968Y-15817769D02*
X14163730Y-15836817D01*
X14335158Y-15893960D02*
X14354206Y-15903484D01*
X14354206Y-15903484D02*
X14392301Y-15903484D01*
X14392301Y-15903484D02*
X14411349Y-15893960D01*
X14411349Y-15893960D02*
X14420872Y-15874912D01*
X14420872Y-15874912D02*
X14420872Y-15865388D01*
X14420872Y-15865388D02*
X14411349Y-15846341D01*
X14411349Y-15846341D02*
X14392301Y-15836817D01*
X14392301Y-15836817D02*
X14363730Y-15836817D01*
X14363730Y-15836817D02*
X14344682Y-15827293D01*
X14344682Y-15827293D02*
X14335158Y-15808246D01*
X14335158Y-15808246D02*
X14335158Y-15798722D01*
X14335158Y-15798722D02*
X14344682Y-15779674D01*
X14344682Y-15779674D02*
X14363730Y-15770150D01*
X14363730Y-15770150D02*
X14392301Y-15770150D01*
X14392301Y-15770150D02*
X14411349Y-15779674D01*
X14487539Y-15979674D02*
X14497063Y-15970150D01*
X14497063Y-15970150D02*
X14516111Y-15941579D01*
X14516111Y-15941579D02*
X14525634Y-15922531D01*
X14525634Y-15922531D02*
X14535158Y-15893960D01*
X14535158Y-15893960D02*
X14544682Y-15846341D01*
X14544682Y-15846341D02*
X14544682Y-15808246D01*
X14544682Y-15808246D02*
X14535158Y-15760627D01*
X14535158Y-15760627D02*
X14525634Y-15732055D01*
X14525634Y-15732055D02*
X14516111Y-15713008D01*
X14516111Y-15713008D02*
X14497063Y-15684436D01*
X14497063Y-15684436D02*
X14487539Y-15674912D01*
D11*
X9484500Y-16038500D02*
X9484500Y-16113500D01*
X9447000Y-16076000D02*
X9522000Y-16076000D01*
D10*
X9820872Y-15967484D02*
X9839920Y-15967484D01*
X9839920Y-15967484D02*
X9858967Y-15977008D01*
X9858967Y-15977008D02*
X9868491Y-15986531D01*
X9868491Y-15986531D02*
X9878015Y-16005579D01*
X9878015Y-16005579D02*
X9887539Y-16043674D01*
X9887539Y-16043674D02*
X9887539Y-16091293D01*
X9887539Y-16091293D02*
X9878015Y-16129388D01*
X9878015Y-16129388D02*
X9868491Y-16148436D01*
X9868491Y-16148436D02*
X9858967Y-16157960D01*
X9858967Y-16157960D02*
X9839920Y-16167484D01*
X9839920Y-16167484D02*
X9820872Y-16167484D01*
X9820872Y-16167484D02*
X9801824Y-16157960D01*
X9801824Y-16157960D02*
X9792301Y-16148436D01*
X9792301Y-16148436D02*
X9782777Y-16129388D01*
X9782777Y-16129388D02*
X9773253Y-16091293D01*
X9773253Y-16091293D02*
X9773253Y-16043674D01*
X9773253Y-16043674D02*
X9782777Y-16005579D01*
X9782777Y-16005579D02*
X9792301Y-15986531D01*
X9792301Y-15986531D02*
X9801824Y-15977008D01*
X9801824Y-15977008D02*
X9820872Y-15967484D01*
X9973253Y-16148436D02*
X9982777Y-16157960D01*
X9982777Y-16157960D02*
X9973253Y-16167484D01*
X9973253Y-16167484D02*
X9963729Y-16157960D01*
X9963729Y-16157960D02*
X9973253Y-16148436D01*
X9973253Y-16148436D02*
X9973253Y-16167484D01*
X10049444Y-15967484D02*
X10182777Y-15967484D01*
X10182777Y-15967484D02*
X10097063Y-16167484D01*
X10354205Y-15967484D02*
X10258967Y-15967484D01*
X10258967Y-15967484D02*
X10249444Y-16062722D01*
X10249444Y-16062722D02*
X10258967Y-16053198D01*
X10258967Y-16053198D02*
X10278015Y-16043674D01*
X10278015Y-16043674D02*
X10325634Y-16043674D01*
X10325634Y-16043674D02*
X10344682Y-16053198D01*
X10344682Y-16053198D02*
X10354205Y-16062722D01*
X10354205Y-16062722D02*
X10363729Y-16081769D01*
X10363729Y-16081769D02*
X10363729Y-16129388D01*
X10363729Y-16129388D02*
X10354205Y-16148436D01*
X10354205Y-16148436D02*
X10344682Y-16157960D01*
X10344682Y-16157960D02*
X10325634Y-16167484D01*
X10325634Y-16167484D02*
X10278015Y-16167484D01*
X10278015Y-16167484D02*
X10258967Y-16157960D01*
X10258967Y-16157960D02*
X10249444Y-16148436D01*
X10487539Y-15967484D02*
X10506586Y-15967484D01*
X10506586Y-15967484D02*
X10525634Y-15977008D01*
X10525634Y-15977008D02*
X10535158Y-15986531D01*
X10535158Y-15986531D02*
X10544682Y-16005579D01*
X10544682Y-16005579D02*
X10554205Y-16043674D01*
X10554205Y-16043674D02*
X10554205Y-16091293D01*
X10554205Y-16091293D02*
X10544682Y-16129388D01*
X10544682Y-16129388D02*
X10535158Y-16148436D01*
X10535158Y-16148436D02*
X10525634Y-16157960D01*
X10525634Y-16157960D02*
X10506586Y-16167484D01*
X10506586Y-16167484D02*
X10487539Y-16167484D01*
X10487539Y-16167484D02*
X10468491Y-16157960D01*
X10468491Y-16157960D02*
X10458967Y-16148436D01*
X10458967Y-16148436D02*
X10449444Y-16129388D01*
X10449444Y-16129388D02*
X10439920Y-16091293D01*
X10439920Y-16091293D02*
X10439920Y-16043674D01*
X10439920Y-16043674D02*
X10449444Y-16005579D01*
X10449444Y-16005579D02*
X10458967Y-15986531D01*
X10458967Y-15986531D02*
X10468491Y-15977008D01*
X10468491Y-15977008D02*
X10487539Y-15967484D01*
X10639920Y-16167484D02*
X10639920Y-16034150D01*
X10639920Y-16053198D02*
X10649444Y-16043674D01*
X10649444Y-16043674D02*
X10668491Y-16034150D01*
X10668491Y-16034150D02*
X10697063Y-16034150D01*
X10697063Y-16034150D02*
X10716110Y-16043674D01*
X10716110Y-16043674D02*
X10725634Y-16062722D01*
X10725634Y-16062722D02*
X10725634Y-16167484D01*
X10725634Y-16062722D02*
X10735158Y-16043674D01*
X10735158Y-16043674D02*
X10754205Y-16034150D01*
X10754205Y-16034150D02*
X10782777Y-16034150D01*
X10782777Y-16034150D02*
X10801825Y-16043674D01*
X10801825Y-16043674D02*
X10811348Y-16062722D01*
X10811348Y-16062722D02*
X10811348Y-16167484D01*
X10906586Y-16167484D02*
X10906586Y-16034150D01*
X10906586Y-16053198D02*
X10916110Y-16043674D01*
X10916110Y-16043674D02*
X10935158Y-16034150D01*
X10935158Y-16034150D02*
X10963729Y-16034150D01*
X10963729Y-16034150D02*
X10982777Y-16043674D01*
X10982777Y-16043674D02*
X10992301Y-16062722D01*
X10992301Y-16062722D02*
X10992301Y-16167484D01*
X10992301Y-16062722D02*
X11001825Y-16043674D01*
X11001825Y-16043674D02*
X11020872Y-16034150D01*
X11020872Y-16034150D02*
X11049444Y-16034150D01*
X11049444Y-16034150D02*
X11068491Y-16043674D01*
X11068491Y-16043674D02*
X11078015Y-16062722D01*
X11078015Y-16062722D02*
X11078015Y-16167484D01*
X11468491Y-15957960D02*
X11297063Y-16215103D01*
X11725634Y-15967484D02*
X11744682Y-15967484D01*
X11744682Y-15967484D02*
X11763729Y-15977008D01*
X11763729Y-15977008D02*
X11773253Y-15986531D01*
X11773253Y-15986531D02*
X11782777Y-16005579D01*
X11782777Y-16005579D02*
X11792301Y-16043674D01*
X11792301Y-16043674D02*
X11792301Y-16091293D01*
X11792301Y-16091293D02*
X11782777Y-16129388D01*
X11782777Y-16129388D02*
X11773253Y-16148436D01*
X11773253Y-16148436D02*
X11763729Y-16157960D01*
X11763729Y-16157960D02*
X11744682Y-16167484D01*
X11744682Y-16167484D02*
X11725634Y-16167484D01*
X11725634Y-16167484D02*
X11706586Y-16157960D01*
X11706586Y-16157960D02*
X11697063Y-16148436D01*
X11697063Y-16148436D02*
X11687539Y-16129388D01*
X11687539Y-16129388D02*
X11678015Y-16091293D01*
X11678015Y-16091293D02*
X11678015Y-16043674D01*
X11678015Y-16043674D02*
X11687539Y-16005579D01*
X11687539Y-16005579D02*
X11697063Y-15986531D01*
X11697063Y-15986531D02*
X11706586Y-15977008D01*
X11706586Y-15977008D02*
X11725634Y-15967484D01*
X11878015Y-16148436D02*
X11887539Y-16157960D01*
X11887539Y-16157960D02*
X11878015Y-16167484D01*
X11878015Y-16167484D02*
X11868491Y-16157960D01*
X11868491Y-16157960D02*
X11878015Y-16148436D01*
X11878015Y-16148436D02*
X11878015Y-16167484D01*
X12011348Y-15967484D02*
X12030396Y-15967484D01*
X12030396Y-15967484D02*
X12049444Y-15977008D01*
X12049444Y-15977008D02*
X12058967Y-15986531D01*
X12058967Y-15986531D02*
X12068491Y-16005579D01*
X12068491Y-16005579D02*
X12078015Y-16043674D01*
X12078015Y-16043674D02*
X12078015Y-16091293D01*
X12078015Y-16091293D02*
X12068491Y-16129388D01*
X12068491Y-16129388D02*
X12058967Y-16148436D01*
X12058967Y-16148436D02*
X12049444Y-16157960D01*
X12049444Y-16157960D02*
X12030396Y-16167484D01*
X12030396Y-16167484D02*
X12011348Y-16167484D01*
X12011348Y-16167484D02*
X11992301Y-16157960D01*
X11992301Y-16157960D02*
X11982777Y-16148436D01*
X11982777Y-16148436D02*
X11973253Y-16129388D01*
X11973253Y-16129388D02*
X11963729Y-16091293D01*
X11963729Y-16091293D02*
X11963729Y-16043674D01*
X11963729Y-16043674D02*
X11973253Y-16005579D01*
X11973253Y-16005579D02*
X11982777Y-15986531D01*
X11982777Y-15986531D02*
X11992301Y-15977008D01*
X11992301Y-15977008D02*
X12011348Y-15967484D01*
X12154206Y-15986531D02*
X12163729Y-15977008D01*
X12163729Y-15977008D02*
X12182777Y-15967484D01*
X12182777Y-15967484D02*
X12230396Y-15967484D01*
X12230396Y-15967484D02*
X12249444Y-15977008D01*
X12249444Y-15977008D02*
X12258967Y-15986531D01*
X12258967Y-15986531D02*
X12268491Y-16005579D01*
X12268491Y-16005579D02*
X12268491Y-16024627D01*
X12268491Y-16024627D02*
X12258967Y-16053198D01*
X12258967Y-16053198D02*
X12144682Y-16167484D01*
X12144682Y-16167484D02*
X12268491Y-16167484D01*
X12363729Y-16167484D02*
X12401825Y-16167484D01*
X12401825Y-16167484D02*
X12420872Y-16157960D01*
X12420872Y-16157960D02*
X12430396Y-16148436D01*
X12430396Y-16148436D02*
X12449444Y-16119865D01*
X12449444Y-16119865D02*
X12458967Y-16081769D01*
X12458967Y-16081769D02*
X12458967Y-16005579D01*
X12458967Y-16005579D02*
X12449444Y-15986531D01*
X12449444Y-15986531D02*
X12439920Y-15977008D01*
X12439920Y-15977008D02*
X12420872Y-15967484D01*
X12420872Y-15967484D02*
X12382777Y-15967484D01*
X12382777Y-15967484D02*
X12363729Y-15977008D01*
X12363729Y-15977008D02*
X12354206Y-15986531D01*
X12354206Y-15986531D02*
X12344682Y-16005579D01*
X12344682Y-16005579D02*
X12344682Y-16053198D01*
X12344682Y-16053198D02*
X12354206Y-16072246D01*
X12354206Y-16072246D02*
X12363729Y-16081769D01*
X12363729Y-16081769D02*
X12382777Y-16091293D01*
X12382777Y-16091293D02*
X12420872Y-16091293D01*
X12420872Y-16091293D02*
X12439920Y-16081769D01*
X12439920Y-16081769D02*
X12449444Y-16072246D01*
X12449444Y-16072246D02*
X12458967Y-16053198D01*
X12639920Y-15967484D02*
X12544682Y-15967484D01*
X12544682Y-15967484D02*
X12535158Y-16062722D01*
X12535158Y-16062722D02*
X12544682Y-16053198D01*
X12544682Y-16053198D02*
X12563729Y-16043674D01*
X12563729Y-16043674D02*
X12611348Y-16043674D01*
X12611348Y-16043674D02*
X12630396Y-16053198D01*
X12630396Y-16053198D02*
X12639920Y-16062722D01*
X12639920Y-16062722D02*
X12649444Y-16081769D01*
X12649444Y-16081769D02*
X12649444Y-16129388D01*
X12649444Y-16129388D02*
X12639920Y-16148436D01*
X12639920Y-16148436D02*
X12630396Y-16157960D01*
X12630396Y-16157960D02*
X12611348Y-16167484D01*
X12611348Y-16167484D02*
X12563729Y-16167484D01*
X12563729Y-16167484D02*
X12544682Y-16157960D01*
X12544682Y-16157960D02*
X12535158Y-16148436D01*
X12725634Y-15967484D02*
X12725634Y-16005579D01*
X12801825Y-15967484D02*
X12801825Y-16005579D01*
X13097063Y-16243674D02*
X13087539Y-16234150D01*
X13087539Y-16234150D02*
X13068491Y-16205579D01*
X13068491Y-16205579D02*
X13058968Y-16186531D01*
X13058968Y-16186531D02*
X13049444Y-16157960D01*
X13049444Y-16157960D02*
X13039920Y-16110341D01*
X13039920Y-16110341D02*
X13039920Y-16072246D01*
X13039920Y-16072246D02*
X13049444Y-16024627D01*
X13049444Y-16024627D02*
X13058968Y-15996055D01*
X13058968Y-15996055D02*
X13068491Y-15977008D01*
X13068491Y-15977008D02*
X13087539Y-15948436D01*
X13087539Y-15948436D02*
X13097063Y-15938912D01*
X13163729Y-15986531D02*
X13173253Y-15977008D01*
X13173253Y-15977008D02*
X13192301Y-15967484D01*
X13192301Y-15967484D02*
X13239920Y-15967484D01*
X13239920Y-15967484D02*
X13258968Y-15977008D01*
X13258968Y-15977008D02*
X13268491Y-15986531D01*
X13268491Y-15986531D02*
X13278015Y-16005579D01*
X13278015Y-16005579D02*
X13278015Y-16024627D01*
X13278015Y-16024627D02*
X13268491Y-16053198D01*
X13268491Y-16053198D02*
X13154206Y-16167484D01*
X13154206Y-16167484D02*
X13278015Y-16167484D01*
X13449444Y-16034150D02*
X13449444Y-16167484D01*
X13401825Y-15957960D02*
X13354206Y-16100817D01*
X13354206Y-16100817D02*
X13478015Y-16100817D01*
X13706587Y-16167484D02*
X13706587Y-15967484D01*
X13792301Y-16167484D02*
X13792301Y-16062722D01*
X13792301Y-16062722D02*
X13782777Y-16043674D01*
X13782777Y-16043674D02*
X13763730Y-16034150D01*
X13763730Y-16034150D02*
X13735158Y-16034150D01*
X13735158Y-16034150D02*
X13716110Y-16043674D01*
X13716110Y-16043674D02*
X13706587Y-16053198D01*
X13916110Y-16167484D02*
X13897063Y-16157960D01*
X13897063Y-16157960D02*
X13887539Y-16148436D01*
X13887539Y-16148436D02*
X13878015Y-16129388D01*
X13878015Y-16129388D02*
X13878015Y-16072246D01*
X13878015Y-16072246D02*
X13887539Y-16053198D01*
X13887539Y-16053198D02*
X13897063Y-16043674D01*
X13897063Y-16043674D02*
X13916110Y-16034150D01*
X13916110Y-16034150D02*
X13944682Y-16034150D01*
X13944682Y-16034150D02*
X13963730Y-16043674D01*
X13963730Y-16043674D02*
X13973253Y-16053198D01*
X13973253Y-16053198D02*
X13982777Y-16072246D01*
X13982777Y-16072246D02*
X13982777Y-16129388D01*
X13982777Y-16129388D02*
X13973253Y-16148436D01*
X13973253Y-16148436D02*
X13963730Y-16157960D01*
X13963730Y-16157960D02*
X13944682Y-16167484D01*
X13944682Y-16167484D02*
X13916110Y-16167484D01*
X14097063Y-16167484D02*
X14078015Y-16157960D01*
X14078015Y-16157960D02*
X14068491Y-16138912D01*
X14068491Y-16138912D02*
X14068491Y-15967484D01*
X14249444Y-16157960D02*
X14230396Y-16167484D01*
X14230396Y-16167484D02*
X14192301Y-16167484D01*
X14192301Y-16167484D02*
X14173253Y-16157960D01*
X14173253Y-16157960D02*
X14163730Y-16138912D01*
X14163730Y-16138912D02*
X14163730Y-16062722D01*
X14163730Y-16062722D02*
X14173253Y-16043674D01*
X14173253Y-16043674D02*
X14192301Y-16034150D01*
X14192301Y-16034150D02*
X14230396Y-16034150D01*
X14230396Y-16034150D02*
X14249444Y-16043674D01*
X14249444Y-16043674D02*
X14258968Y-16062722D01*
X14258968Y-16062722D02*
X14258968Y-16081769D01*
X14258968Y-16081769D02*
X14163730Y-16100817D01*
X14335158Y-16157960D02*
X14354206Y-16167484D01*
X14354206Y-16167484D02*
X14392301Y-16167484D01*
X14392301Y-16167484D02*
X14411349Y-16157960D01*
X14411349Y-16157960D02*
X14420872Y-16138912D01*
X14420872Y-16138912D02*
X14420872Y-16129388D01*
X14420872Y-16129388D02*
X14411349Y-16110341D01*
X14411349Y-16110341D02*
X14392301Y-16100817D01*
X14392301Y-16100817D02*
X14363730Y-16100817D01*
X14363730Y-16100817D02*
X14344682Y-16091293D01*
X14344682Y-16091293D02*
X14335158Y-16072246D01*
X14335158Y-16072246D02*
X14335158Y-16062722D01*
X14335158Y-16062722D02*
X14344682Y-16043674D01*
X14344682Y-16043674D02*
X14363730Y-16034150D01*
X14363730Y-16034150D02*
X14392301Y-16034150D01*
X14392301Y-16034150D02*
X14411349Y-16043674D01*
X14487539Y-16243674D02*
X14497063Y-16234150D01*
X14497063Y-16234150D02*
X14516111Y-16205579D01*
X14516111Y-16205579D02*
X14525634Y-16186531D01*
X14525634Y-16186531D02*
X14535158Y-16157960D01*
X14535158Y-16157960D02*
X14544682Y-16110341D01*
X14544682Y-16110341D02*
X14544682Y-16072246D01*
X14544682Y-16072246D02*
X14535158Y-16024627D01*
X14535158Y-16024627D02*
X14525634Y-15996055D01*
X14525634Y-15996055D02*
X14516111Y-15977008D01*
X14516111Y-15977008D02*
X14497063Y-15948436D01*
X14497063Y-15948436D02*
X14487539Y-15938912D01*
D11*
X9510285Y-16368284D02*
X9510285Y-16311715D01*
X9453716Y-16311715D01*
X9453716Y-16368284D01*
X9510285Y-16368284D01*
D10*
X9820872Y-16231484D02*
X9839920Y-16231484D01*
X9839920Y-16231484D02*
X9858967Y-16241008D01*
X9858967Y-16241008D02*
X9868491Y-16250531D01*
X9868491Y-16250531D02*
X9878015Y-16269579D01*
X9878015Y-16269579D02*
X9887539Y-16307674D01*
X9887539Y-16307674D02*
X9887539Y-16355293D01*
X9887539Y-16355293D02*
X9878015Y-16393388D01*
X9878015Y-16393388D02*
X9868491Y-16412436D01*
X9868491Y-16412436D02*
X9858967Y-16421960D01*
X9858967Y-16421960D02*
X9839920Y-16431484D01*
X9839920Y-16431484D02*
X9820872Y-16431484D01*
X9820872Y-16431484D02*
X9801824Y-16421960D01*
X9801824Y-16421960D02*
X9792301Y-16412436D01*
X9792301Y-16412436D02*
X9782777Y-16393388D01*
X9782777Y-16393388D02*
X9773253Y-16355293D01*
X9773253Y-16355293D02*
X9773253Y-16307674D01*
X9773253Y-16307674D02*
X9782777Y-16269579D01*
X9782777Y-16269579D02*
X9792301Y-16250531D01*
X9792301Y-16250531D02*
X9801824Y-16241008D01*
X9801824Y-16241008D02*
X9820872Y-16231484D01*
X9973253Y-16412436D02*
X9982777Y-16421960D01*
X9982777Y-16421960D02*
X9973253Y-16431484D01*
X9973253Y-16431484D02*
X9963729Y-16421960D01*
X9963729Y-16421960D02*
X9973253Y-16412436D01*
X9973253Y-16412436D02*
X9973253Y-16431484D01*
X10097063Y-16317198D02*
X10078015Y-16307674D01*
X10078015Y-16307674D02*
X10068491Y-16298150D01*
X10068491Y-16298150D02*
X10058967Y-16279103D01*
X10058967Y-16279103D02*
X10058967Y-16269579D01*
X10058967Y-16269579D02*
X10068491Y-16250531D01*
X10068491Y-16250531D02*
X10078015Y-16241008D01*
X10078015Y-16241008D02*
X10097063Y-16231484D01*
X10097063Y-16231484D02*
X10135158Y-16231484D01*
X10135158Y-16231484D02*
X10154205Y-16241008D01*
X10154205Y-16241008D02*
X10163729Y-16250531D01*
X10163729Y-16250531D02*
X10173253Y-16269579D01*
X10173253Y-16269579D02*
X10173253Y-16279103D01*
X10173253Y-16279103D02*
X10163729Y-16298150D01*
X10163729Y-16298150D02*
X10154205Y-16307674D01*
X10154205Y-16307674D02*
X10135158Y-16317198D01*
X10135158Y-16317198D02*
X10097063Y-16317198D01*
X10097063Y-16317198D02*
X10078015Y-16326722D01*
X10078015Y-16326722D02*
X10068491Y-16336246D01*
X10068491Y-16336246D02*
X10058967Y-16355293D01*
X10058967Y-16355293D02*
X10058967Y-16393388D01*
X10058967Y-16393388D02*
X10068491Y-16412436D01*
X10068491Y-16412436D02*
X10078015Y-16421960D01*
X10078015Y-16421960D02*
X10097063Y-16431484D01*
X10097063Y-16431484D02*
X10135158Y-16431484D01*
X10135158Y-16431484D02*
X10154205Y-16421960D01*
X10154205Y-16421960D02*
X10163729Y-16412436D01*
X10163729Y-16412436D02*
X10173253Y-16393388D01*
X10173253Y-16393388D02*
X10173253Y-16355293D01*
X10173253Y-16355293D02*
X10163729Y-16336246D01*
X10163729Y-16336246D02*
X10154205Y-16326722D01*
X10154205Y-16326722D02*
X10135158Y-16317198D01*
X10297063Y-16231484D02*
X10316110Y-16231484D01*
X10316110Y-16231484D02*
X10335158Y-16241008D01*
X10335158Y-16241008D02*
X10344682Y-16250531D01*
X10344682Y-16250531D02*
X10354205Y-16269579D01*
X10354205Y-16269579D02*
X10363729Y-16307674D01*
X10363729Y-16307674D02*
X10363729Y-16355293D01*
X10363729Y-16355293D02*
X10354205Y-16393388D01*
X10354205Y-16393388D02*
X10344682Y-16412436D01*
X10344682Y-16412436D02*
X10335158Y-16421960D01*
X10335158Y-16421960D02*
X10316110Y-16431484D01*
X10316110Y-16431484D02*
X10297063Y-16431484D01*
X10297063Y-16431484D02*
X10278015Y-16421960D01*
X10278015Y-16421960D02*
X10268491Y-16412436D01*
X10268491Y-16412436D02*
X10258967Y-16393388D01*
X10258967Y-16393388D02*
X10249444Y-16355293D01*
X10249444Y-16355293D02*
X10249444Y-16307674D01*
X10249444Y-16307674D02*
X10258967Y-16269579D01*
X10258967Y-16269579D02*
X10268491Y-16250531D01*
X10268491Y-16250531D02*
X10278015Y-16241008D01*
X10278015Y-16241008D02*
X10297063Y-16231484D01*
X10487539Y-16231484D02*
X10506586Y-16231484D01*
X10506586Y-16231484D02*
X10525634Y-16241008D01*
X10525634Y-16241008D02*
X10535158Y-16250531D01*
X10535158Y-16250531D02*
X10544682Y-16269579D01*
X10544682Y-16269579D02*
X10554205Y-16307674D01*
X10554205Y-16307674D02*
X10554205Y-16355293D01*
X10554205Y-16355293D02*
X10544682Y-16393388D01*
X10544682Y-16393388D02*
X10535158Y-16412436D01*
X10535158Y-16412436D02*
X10525634Y-16421960D01*
X10525634Y-16421960D02*
X10506586Y-16431484D01*
X10506586Y-16431484D02*
X10487539Y-16431484D01*
X10487539Y-16431484D02*
X10468491Y-16421960D01*
X10468491Y-16421960D02*
X10458967Y-16412436D01*
X10458967Y-16412436D02*
X10449444Y-16393388D01*
X10449444Y-16393388D02*
X10439920Y-16355293D01*
X10439920Y-16355293D02*
X10439920Y-16307674D01*
X10439920Y-16307674D02*
X10449444Y-16269579D01*
X10449444Y-16269579D02*
X10458967Y-16250531D01*
X10458967Y-16250531D02*
X10468491Y-16241008D01*
X10468491Y-16241008D02*
X10487539Y-16231484D01*
X10639920Y-16431484D02*
X10639920Y-16298150D01*
X10639920Y-16317198D02*
X10649444Y-16307674D01*
X10649444Y-16307674D02*
X10668491Y-16298150D01*
X10668491Y-16298150D02*
X10697063Y-16298150D01*
X10697063Y-16298150D02*
X10716110Y-16307674D01*
X10716110Y-16307674D02*
X10725634Y-16326722D01*
X10725634Y-16326722D02*
X10725634Y-16431484D01*
X10725634Y-16326722D02*
X10735158Y-16307674D01*
X10735158Y-16307674D02*
X10754205Y-16298150D01*
X10754205Y-16298150D02*
X10782777Y-16298150D01*
X10782777Y-16298150D02*
X10801825Y-16307674D01*
X10801825Y-16307674D02*
X10811348Y-16326722D01*
X10811348Y-16326722D02*
X10811348Y-16431484D01*
X10906586Y-16431484D02*
X10906586Y-16298150D01*
X10906586Y-16317198D02*
X10916110Y-16307674D01*
X10916110Y-16307674D02*
X10935158Y-16298150D01*
X10935158Y-16298150D02*
X10963729Y-16298150D01*
X10963729Y-16298150D02*
X10982777Y-16307674D01*
X10982777Y-16307674D02*
X10992301Y-16326722D01*
X10992301Y-16326722D02*
X10992301Y-16431484D01*
X10992301Y-16326722D02*
X11001825Y-16307674D01*
X11001825Y-16307674D02*
X11020872Y-16298150D01*
X11020872Y-16298150D02*
X11049444Y-16298150D01*
X11049444Y-16298150D02*
X11068491Y-16307674D01*
X11068491Y-16307674D02*
X11078015Y-16326722D01*
X11078015Y-16326722D02*
X11078015Y-16431484D01*
X11468491Y-16221960D02*
X11297063Y-16479103D01*
X11725634Y-16231484D02*
X11744682Y-16231484D01*
X11744682Y-16231484D02*
X11763729Y-16241008D01*
X11763729Y-16241008D02*
X11773253Y-16250531D01*
X11773253Y-16250531D02*
X11782777Y-16269579D01*
X11782777Y-16269579D02*
X11792301Y-16307674D01*
X11792301Y-16307674D02*
X11792301Y-16355293D01*
X11792301Y-16355293D02*
X11782777Y-16393388D01*
X11782777Y-16393388D02*
X11773253Y-16412436D01*
X11773253Y-16412436D02*
X11763729Y-16421960D01*
X11763729Y-16421960D02*
X11744682Y-16431484D01*
X11744682Y-16431484D02*
X11725634Y-16431484D01*
X11725634Y-16431484D02*
X11706586Y-16421960D01*
X11706586Y-16421960D02*
X11697063Y-16412436D01*
X11697063Y-16412436D02*
X11687539Y-16393388D01*
X11687539Y-16393388D02*
X11678015Y-16355293D01*
X11678015Y-16355293D02*
X11678015Y-16307674D01*
X11678015Y-16307674D02*
X11687539Y-16269579D01*
X11687539Y-16269579D02*
X11697063Y-16250531D01*
X11697063Y-16250531D02*
X11706586Y-16241008D01*
X11706586Y-16241008D02*
X11725634Y-16231484D01*
X11878015Y-16412436D02*
X11887539Y-16421960D01*
X11887539Y-16421960D02*
X11878015Y-16431484D01*
X11878015Y-16431484D02*
X11868491Y-16421960D01*
X11868491Y-16421960D02*
X11878015Y-16412436D01*
X11878015Y-16412436D02*
X11878015Y-16431484D01*
X12011348Y-16231484D02*
X12030396Y-16231484D01*
X12030396Y-16231484D02*
X12049444Y-16241008D01*
X12049444Y-16241008D02*
X12058967Y-16250531D01*
X12058967Y-16250531D02*
X12068491Y-16269579D01*
X12068491Y-16269579D02*
X12078015Y-16307674D01*
X12078015Y-16307674D02*
X12078015Y-16355293D01*
X12078015Y-16355293D02*
X12068491Y-16393388D01*
X12068491Y-16393388D02*
X12058967Y-16412436D01*
X12058967Y-16412436D02*
X12049444Y-16421960D01*
X12049444Y-16421960D02*
X12030396Y-16431484D01*
X12030396Y-16431484D02*
X12011348Y-16431484D01*
X12011348Y-16431484D02*
X11992301Y-16421960D01*
X11992301Y-16421960D02*
X11982777Y-16412436D01*
X11982777Y-16412436D02*
X11973253Y-16393388D01*
X11973253Y-16393388D02*
X11963729Y-16355293D01*
X11963729Y-16355293D02*
X11963729Y-16307674D01*
X11963729Y-16307674D02*
X11973253Y-16269579D01*
X11973253Y-16269579D02*
X11982777Y-16250531D01*
X11982777Y-16250531D02*
X11992301Y-16241008D01*
X11992301Y-16241008D02*
X12011348Y-16231484D01*
X12144682Y-16231484D02*
X12268491Y-16231484D01*
X12268491Y-16231484D02*
X12201825Y-16307674D01*
X12201825Y-16307674D02*
X12230396Y-16307674D01*
X12230396Y-16307674D02*
X12249444Y-16317198D01*
X12249444Y-16317198D02*
X12258967Y-16326722D01*
X12258967Y-16326722D02*
X12268491Y-16345769D01*
X12268491Y-16345769D02*
X12268491Y-16393388D01*
X12268491Y-16393388D02*
X12258967Y-16412436D01*
X12258967Y-16412436D02*
X12249444Y-16421960D01*
X12249444Y-16421960D02*
X12230396Y-16431484D01*
X12230396Y-16431484D02*
X12173253Y-16431484D01*
X12173253Y-16431484D02*
X12154206Y-16421960D01*
X12154206Y-16421960D02*
X12144682Y-16412436D01*
X12458967Y-16431484D02*
X12344682Y-16431484D01*
X12401825Y-16431484D02*
X12401825Y-16231484D01*
X12401825Y-16231484D02*
X12382777Y-16260055D01*
X12382777Y-16260055D02*
X12363729Y-16279103D01*
X12363729Y-16279103D02*
X12344682Y-16288627D01*
X12639920Y-16231484D02*
X12544682Y-16231484D01*
X12544682Y-16231484D02*
X12535158Y-16326722D01*
X12535158Y-16326722D02*
X12544682Y-16317198D01*
X12544682Y-16317198D02*
X12563729Y-16307674D01*
X12563729Y-16307674D02*
X12611348Y-16307674D01*
X12611348Y-16307674D02*
X12630396Y-16317198D01*
X12630396Y-16317198D02*
X12639920Y-16326722D01*
X12639920Y-16326722D02*
X12649444Y-16345769D01*
X12649444Y-16345769D02*
X12649444Y-16393388D01*
X12649444Y-16393388D02*
X12639920Y-16412436D01*
X12639920Y-16412436D02*
X12630396Y-16421960D01*
X12630396Y-16421960D02*
X12611348Y-16431484D01*
X12611348Y-16431484D02*
X12563729Y-16431484D01*
X12563729Y-16431484D02*
X12544682Y-16421960D01*
X12544682Y-16421960D02*
X12535158Y-16412436D01*
X12725634Y-16231484D02*
X12725634Y-16269579D01*
X12801825Y-16231484D02*
X12801825Y-16269579D01*
X13097063Y-16507674D02*
X13087539Y-16498150D01*
X13087539Y-16498150D02*
X13068491Y-16469579D01*
X13068491Y-16469579D02*
X13058968Y-16450531D01*
X13058968Y-16450531D02*
X13049444Y-16421960D01*
X13049444Y-16421960D02*
X13039920Y-16374341D01*
X13039920Y-16374341D02*
X13039920Y-16336246D01*
X13039920Y-16336246D02*
X13049444Y-16288627D01*
X13049444Y-16288627D02*
X13058968Y-16260055D01*
X13058968Y-16260055D02*
X13068491Y-16241008D01*
X13068491Y-16241008D02*
X13087539Y-16212436D01*
X13087539Y-16212436D02*
X13097063Y-16202912D01*
X13154206Y-16231484D02*
X13278015Y-16231484D01*
X13278015Y-16231484D02*
X13211348Y-16307674D01*
X13211348Y-16307674D02*
X13239920Y-16307674D01*
X13239920Y-16307674D02*
X13258968Y-16317198D01*
X13258968Y-16317198D02*
X13268491Y-16326722D01*
X13268491Y-16326722D02*
X13278015Y-16345769D01*
X13278015Y-16345769D02*
X13278015Y-16393388D01*
X13278015Y-16393388D02*
X13268491Y-16412436D01*
X13268491Y-16412436D02*
X13258968Y-16421960D01*
X13258968Y-16421960D02*
X13239920Y-16431484D01*
X13239920Y-16431484D02*
X13182777Y-16431484D01*
X13182777Y-16431484D02*
X13163729Y-16421960D01*
X13163729Y-16421960D02*
X13154206Y-16412436D01*
X13516110Y-16431484D02*
X13516110Y-16231484D01*
X13601825Y-16431484D02*
X13601825Y-16326722D01*
X13601825Y-16326722D02*
X13592301Y-16307674D01*
X13592301Y-16307674D02*
X13573253Y-16298150D01*
X13573253Y-16298150D02*
X13544682Y-16298150D01*
X13544682Y-16298150D02*
X13525634Y-16307674D01*
X13525634Y-16307674D02*
X13516110Y-16317198D01*
X13725634Y-16431484D02*
X13706587Y-16421960D01*
X13706587Y-16421960D02*
X13697063Y-16412436D01*
X13697063Y-16412436D02*
X13687539Y-16393388D01*
X13687539Y-16393388D02*
X13687539Y-16336246D01*
X13687539Y-16336246D02*
X13697063Y-16317198D01*
X13697063Y-16317198D02*
X13706587Y-16307674D01*
X13706587Y-16307674D02*
X13725634Y-16298150D01*
X13725634Y-16298150D02*
X13754206Y-16298150D01*
X13754206Y-16298150D02*
X13773253Y-16307674D01*
X13773253Y-16307674D02*
X13782777Y-16317198D01*
X13782777Y-16317198D02*
X13792301Y-16336246D01*
X13792301Y-16336246D02*
X13792301Y-16393388D01*
X13792301Y-16393388D02*
X13782777Y-16412436D01*
X13782777Y-16412436D02*
X13773253Y-16421960D01*
X13773253Y-16421960D02*
X13754206Y-16431484D01*
X13754206Y-16431484D02*
X13725634Y-16431484D01*
X13906587Y-16431484D02*
X13887539Y-16421960D01*
X13887539Y-16421960D02*
X13878015Y-16402912D01*
X13878015Y-16402912D02*
X13878015Y-16231484D01*
X14058968Y-16421960D02*
X14039920Y-16431484D01*
X14039920Y-16431484D02*
X14001825Y-16431484D01*
X14001825Y-16431484D02*
X13982777Y-16421960D01*
X13982777Y-16421960D02*
X13973253Y-16402912D01*
X13973253Y-16402912D02*
X13973253Y-16326722D01*
X13973253Y-16326722D02*
X13982777Y-16307674D01*
X13982777Y-16307674D02*
X14001825Y-16298150D01*
X14001825Y-16298150D02*
X14039920Y-16298150D01*
X14039920Y-16298150D02*
X14058968Y-16307674D01*
X14058968Y-16307674D02*
X14068491Y-16326722D01*
X14068491Y-16326722D02*
X14068491Y-16345769D01*
X14068491Y-16345769D02*
X13973253Y-16364817D01*
X14144682Y-16421960D02*
X14163730Y-16431484D01*
X14163730Y-16431484D02*
X14201825Y-16431484D01*
X14201825Y-16431484D02*
X14220872Y-16421960D01*
X14220872Y-16421960D02*
X14230396Y-16402912D01*
X14230396Y-16402912D02*
X14230396Y-16393388D01*
X14230396Y-16393388D02*
X14220872Y-16374341D01*
X14220872Y-16374341D02*
X14201825Y-16364817D01*
X14201825Y-16364817D02*
X14173253Y-16364817D01*
X14173253Y-16364817D02*
X14154206Y-16355293D01*
X14154206Y-16355293D02*
X14144682Y-16336246D01*
X14144682Y-16336246D02*
X14144682Y-16326722D01*
X14144682Y-16326722D02*
X14154206Y-16307674D01*
X14154206Y-16307674D02*
X14173253Y-16298150D01*
X14173253Y-16298150D02*
X14201825Y-16298150D01*
X14201825Y-16298150D02*
X14220872Y-16307674D01*
X14297063Y-16507674D02*
X14306587Y-16498150D01*
X14306587Y-16498150D02*
X14325634Y-16469579D01*
X14325634Y-16469579D02*
X14335158Y-16450531D01*
X14335158Y-16450531D02*
X14344682Y-16421960D01*
X14344682Y-16421960D02*
X14354206Y-16374341D01*
X14354206Y-16374341D02*
X14354206Y-16336246D01*
X14354206Y-16336246D02*
X14344682Y-16288627D01*
X14344682Y-16288627D02*
X14335158Y-16260055D01*
X14335158Y-16260055D02*
X14325634Y-16241008D01*
X14325634Y-16241008D02*
X14306587Y-16212436D01*
X14306587Y-16212436D02*
X14297063Y-16202912D01*
D11*
X9481360Y-16644640D02*
X9522000Y-16604000D01*
X9481360Y-16563360D01*
X9440720Y-16604000D01*
X9481360Y-16644640D01*
D10*
X9820872Y-16495484D02*
X9839920Y-16495484D01*
X9839920Y-16495484D02*
X9858967Y-16505008D01*
X9858967Y-16505008D02*
X9868491Y-16514531D01*
X9868491Y-16514531D02*
X9878015Y-16533579D01*
X9878015Y-16533579D02*
X9887539Y-16571674D01*
X9887539Y-16571674D02*
X9887539Y-16619293D01*
X9887539Y-16619293D02*
X9878015Y-16657388D01*
X9878015Y-16657388D02*
X9868491Y-16676436D01*
X9868491Y-16676436D02*
X9858967Y-16685960D01*
X9858967Y-16685960D02*
X9839920Y-16695484D01*
X9839920Y-16695484D02*
X9820872Y-16695484D01*
X9820872Y-16695484D02*
X9801824Y-16685960D01*
X9801824Y-16685960D02*
X9792301Y-16676436D01*
X9792301Y-16676436D02*
X9782777Y-16657388D01*
X9782777Y-16657388D02*
X9773253Y-16619293D01*
X9773253Y-16619293D02*
X9773253Y-16571674D01*
X9773253Y-16571674D02*
X9782777Y-16533579D01*
X9782777Y-16533579D02*
X9792301Y-16514531D01*
X9792301Y-16514531D02*
X9801824Y-16505008D01*
X9801824Y-16505008D02*
X9820872Y-16495484D01*
X9973253Y-16676436D02*
X9982777Y-16685960D01*
X9982777Y-16685960D02*
X9973253Y-16695484D01*
X9973253Y-16695484D02*
X9963729Y-16685960D01*
X9963729Y-16685960D02*
X9973253Y-16676436D01*
X9973253Y-16676436D02*
X9973253Y-16695484D01*
X10097063Y-16581198D02*
X10078015Y-16571674D01*
X10078015Y-16571674D02*
X10068491Y-16562150D01*
X10068491Y-16562150D02*
X10058967Y-16543103D01*
X10058967Y-16543103D02*
X10058967Y-16533579D01*
X10058967Y-16533579D02*
X10068491Y-16514531D01*
X10068491Y-16514531D02*
X10078015Y-16505008D01*
X10078015Y-16505008D02*
X10097063Y-16495484D01*
X10097063Y-16495484D02*
X10135158Y-16495484D01*
X10135158Y-16495484D02*
X10154205Y-16505008D01*
X10154205Y-16505008D02*
X10163729Y-16514531D01*
X10163729Y-16514531D02*
X10173253Y-16533579D01*
X10173253Y-16533579D02*
X10173253Y-16543103D01*
X10173253Y-16543103D02*
X10163729Y-16562150D01*
X10163729Y-16562150D02*
X10154205Y-16571674D01*
X10154205Y-16571674D02*
X10135158Y-16581198D01*
X10135158Y-16581198D02*
X10097063Y-16581198D01*
X10097063Y-16581198D02*
X10078015Y-16590722D01*
X10078015Y-16590722D02*
X10068491Y-16600246D01*
X10068491Y-16600246D02*
X10058967Y-16619293D01*
X10058967Y-16619293D02*
X10058967Y-16657388D01*
X10058967Y-16657388D02*
X10068491Y-16676436D01*
X10068491Y-16676436D02*
X10078015Y-16685960D01*
X10078015Y-16685960D02*
X10097063Y-16695484D01*
X10097063Y-16695484D02*
X10135158Y-16695484D01*
X10135158Y-16695484D02*
X10154205Y-16685960D01*
X10154205Y-16685960D02*
X10163729Y-16676436D01*
X10163729Y-16676436D02*
X10173253Y-16657388D01*
X10173253Y-16657388D02*
X10173253Y-16619293D01*
X10173253Y-16619293D02*
X10163729Y-16600246D01*
X10163729Y-16600246D02*
X10154205Y-16590722D01*
X10154205Y-16590722D02*
X10135158Y-16581198D01*
X10363729Y-16695484D02*
X10249444Y-16695484D01*
X10306586Y-16695484D02*
X10306586Y-16495484D01*
X10306586Y-16495484D02*
X10287539Y-16524055D01*
X10287539Y-16524055D02*
X10268491Y-16543103D01*
X10268491Y-16543103D02*
X10249444Y-16552627D01*
X10430396Y-16495484D02*
X10554205Y-16495484D01*
X10554205Y-16495484D02*
X10487539Y-16571674D01*
X10487539Y-16571674D02*
X10516110Y-16571674D01*
X10516110Y-16571674D02*
X10535158Y-16581198D01*
X10535158Y-16581198D02*
X10544682Y-16590722D01*
X10544682Y-16590722D02*
X10554205Y-16609769D01*
X10554205Y-16609769D02*
X10554205Y-16657388D01*
X10554205Y-16657388D02*
X10544682Y-16676436D01*
X10544682Y-16676436D02*
X10535158Y-16685960D01*
X10535158Y-16685960D02*
X10516110Y-16695484D01*
X10516110Y-16695484D02*
X10458967Y-16695484D01*
X10458967Y-16695484D02*
X10439920Y-16685960D01*
X10439920Y-16685960D02*
X10430396Y-16676436D01*
X10639920Y-16695484D02*
X10639920Y-16562150D01*
X10639920Y-16581198D02*
X10649444Y-16571674D01*
X10649444Y-16571674D02*
X10668491Y-16562150D01*
X10668491Y-16562150D02*
X10697063Y-16562150D01*
X10697063Y-16562150D02*
X10716110Y-16571674D01*
X10716110Y-16571674D02*
X10725634Y-16590722D01*
X10725634Y-16590722D02*
X10725634Y-16695484D01*
X10725634Y-16590722D02*
X10735158Y-16571674D01*
X10735158Y-16571674D02*
X10754205Y-16562150D01*
X10754205Y-16562150D02*
X10782777Y-16562150D01*
X10782777Y-16562150D02*
X10801825Y-16571674D01*
X10801825Y-16571674D02*
X10811348Y-16590722D01*
X10811348Y-16590722D02*
X10811348Y-16695484D01*
X10906586Y-16695484D02*
X10906586Y-16562150D01*
X10906586Y-16581198D02*
X10916110Y-16571674D01*
X10916110Y-16571674D02*
X10935158Y-16562150D01*
X10935158Y-16562150D02*
X10963729Y-16562150D01*
X10963729Y-16562150D02*
X10982777Y-16571674D01*
X10982777Y-16571674D02*
X10992301Y-16590722D01*
X10992301Y-16590722D02*
X10992301Y-16695484D01*
X10992301Y-16590722D02*
X11001825Y-16571674D01*
X11001825Y-16571674D02*
X11020872Y-16562150D01*
X11020872Y-16562150D02*
X11049444Y-16562150D01*
X11049444Y-16562150D02*
X11068491Y-16571674D01*
X11068491Y-16571674D02*
X11078015Y-16590722D01*
X11078015Y-16590722D02*
X11078015Y-16695484D01*
X11468491Y-16485960D02*
X11297063Y-16743103D01*
X11725634Y-16495484D02*
X11744682Y-16495484D01*
X11744682Y-16495484D02*
X11763729Y-16505008D01*
X11763729Y-16505008D02*
X11773253Y-16514531D01*
X11773253Y-16514531D02*
X11782777Y-16533579D01*
X11782777Y-16533579D02*
X11792301Y-16571674D01*
X11792301Y-16571674D02*
X11792301Y-16619293D01*
X11792301Y-16619293D02*
X11782777Y-16657388D01*
X11782777Y-16657388D02*
X11773253Y-16676436D01*
X11773253Y-16676436D02*
X11763729Y-16685960D01*
X11763729Y-16685960D02*
X11744682Y-16695484D01*
X11744682Y-16695484D02*
X11725634Y-16695484D01*
X11725634Y-16695484D02*
X11706586Y-16685960D01*
X11706586Y-16685960D02*
X11697063Y-16676436D01*
X11697063Y-16676436D02*
X11687539Y-16657388D01*
X11687539Y-16657388D02*
X11678015Y-16619293D01*
X11678015Y-16619293D02*
X11678015Y-16571674D01*
X11678015Y-16571674D02*
X11687539Y-16533579D01*
X11687539Y-16533579D02*
X11697063Y-16514531D01*
X11697063Y-16514531D02*
X11706586Y-16505008D01*
X11706586Y-16505008D02*
X11725634Y-16495484D01*
X11878015Y-16676436D02*
X11887539Y-16685960D01*
X11887539Y-16685960D02*
X11878015Y-16695484D01*
X11878015Y-16695484D02*
X11868491Y-16685960D01*
X11868491Y-16685960D02*
X11878015Y-16676436D01*
X11878015Y-16676436D02*
X11878015Y-16695484D01*
X12011348Y-16495484D02*
X12030396Y-16495484D01*
X12030396Y-16495484D02*
X12049444Y-16505008D01*
X12049444Y-16505008D02*
X12058967Y-16514531D01*
X12058967Y-16514531D02*
X12068491Y-16533579D01*
X12068491Y-16533579D02*
X12078015Y-16571674D01*
X12078015Y-16571674D02*
X12078015Y-16619293D01*
X12078015Y-16619293D02*
X12068491Y-16657388D01*
X12068491Y-16657388D02*
X12058967Y-16676436D01*
X12058967Y-16676436D02*
X12049444Y-16685960D01*
X12049444Y-16685960D02*
X12030396Y-16695484D01*
X12030396Y-16695484D02*
X12011348Y-16695484D01*
X12011348Y-16695484D02*
X11992301Y-16685960D01*
X11992301Y-16685960D02*
X11982777Y-16676436D01*
X11982777Y-16676436D02*
X11973253Y-16657388D01*
X11973253Y-16657388D02*
X11963729Y-16619293D01*
X11963729Y-16619293D02*
X11963729Y-16571674D01*
X11963729Y-16571674D02*
X11973253Y-16533579D01*
X11973253Y-16533579D02*
X11982777Y-16514531D01*
X11982777Y-16514531D02*
X11992301Y-16505008D01*
X11992301Y-16505008D02*
X12011348Y-16495484D01*
X12144682Y-16495484D02*
X12268491Y-16495484D01*
X12268491Y-16495484D02*
X12201825Y-16571674D01*
X12201825Y-16571674D02*
X12230396Y-16571674D01*
X12230396Y-16571674D02*
X12249444Y-16581198D01*
X12249444Y-16581198D02*
X12258967Y-16590722D01*
X12258967Y-16590722D02*
X12268491Y-16609769D01*
X12268491Y-16609769D02*
X12268491Y-16657388D01*
X12268491Y-16657388D02*
X12258967Y-16676436D01*
X12258967Y-16676436D02*
X12249444Y-16685960D01*
X12249444Y-16685960D02*
X12230396Y-16695484D01*
X12230396Y-16695484D02*
X12173253Y-16695484D01*
X12173253Y-16695484D02*
X12154206Y-16685960D01*
X12154206Y-16685960D02*
X12144682Y-16676436D01*
X12344682Y-16514531D02*
X12354206Y-16505008D01*
X12354206Y-16505008D02*
X12373253Y-16495484D01*
X12373253Y-16495484D02*
X12420872Y-16495484D01*
X12420872Y-16495484D02*
X12439920Y-16505008D01*
X12439920Y-16505008D02*
X12449444Y-16514531D01*
X12449444Y-16514531D02*
X12458967Y-16533579D01*
X12458967Y-16533579D02*
X12458967Y-16552627D01*
X12458967Y-16552627D02*
X12449444Y-16581198D01*
X12449444Y-16581198D02*
X12335158Y-16695484D01*
X12335158Y-16695484D02*
X12458967Y-16695484D01*
X12582777Y-16495484D02*
X12601825Y-16495484D01*
X12601825Y-16495484D02*
X12620872Y-16505008D01*
X12620872Y-16505008D02*
X12630396Y-16514531D01*
X12630396Y-16514531D02*
X12639920Y-16533579D01*
X12639920Y-16533579D02*
X12649444Y-16571674D01*
X12649444Y-16571674D02*
X12649444Y-16619293D01*
X12649444Y-16619293D02*
X12639920Y-16657388D01*
X12639920Y-16657388D02*
X12630396Y-16676436D01*
X12630396Y-16676436D02*
X12620872Y-16685960D01*
X12620872Y-16685960D02*
X12601825Y-16695484D01*
X12601825Y-16695484D02*
X12582777Y-16695484D01*
X12582777Y-16695484D02*
X12563729Y-16685960D01*
X12563729Y-16685960D02*
X12554206Y-16676436D01*
X12554206Y-16676436D02*
X12544682Y-16657388D01*
X12544682Y-16657388D02*
X12535158Y-16619293D01*
X12535158Y-16619293D02*
X12535158Y-16571674D01*
X12535158Y-16571674D02*
X12544682Y-16533579D01*
X12544682Y-16533579D02*
X12554206Y-16514531D01*
X12554206Y-16514531D02*
X12563729Y-16505008D01*
X12563729Y-16505008D02*
X12582777Y-16495484D01*
X12725634Y-16495484D02*
X12725634Y-16533579D01*
X12801825Y-16495484D02*
X12801825Y-16533579D01*
X13097063Y-16771674D02*
X13087539Y-16762150D01*
X13087539Y-16762150D02*
X13068491Y-16733579D01*
X13068491Y-16733579D02*
X13058968Y-16714531D01*
X13058968Y-16714531D02*
X13049444Y-16685960D01*
X13049444Y-16685960D02*
X13039920Y-16638341D01*
X13039920Y-16638341D02*
X13039920Y-16600246D01*
X13039920Y-16600246D02*
X13049444Y-16552627D01*
X13049444Y-16552627D02*
X13058968Y-16524055D01*
X13058968Y-16524055D02*
X13068491Y-16505008D01*
X13068491Y-16505008D02*
X13087539Y-16476436D01*
X13087539Y-16476436D02*
X13097063Y-16466912D01*
X13154206Y-16495484D02*
X13278015Y-16495484D01*
X13278015Y-16495484D02*
X13211348Y-16571674D01*
X13211348Y-16571674D02*
X13239920Y-16571674D01*
X13239920Y-16571674D02*
X13258968Y-16581198D01*
X13258968Y-16581198D02*
X13268491Y-16590722D01*
X13268491Y-16590722D02*
X13278015Y-16609769D01*
X13278015Y-16609769D02*
X13278015Y-16657388D01*
X13278015Y-16657388D02*
X13268491Y-16676436D01*
X13268491Y-16676436D02*
X13258968Y-16685960D01*
X13258968Y-16685960D02*
X13239920Y-16695484D01*
X13239920Y-16695484D02*
X13182777Y-16695484D01*
X13182777Y-16695484D02*
X13163729Y-16685960D01*
X13163729Y-16685960D02*
X13154206Y-16676436D01*
X13516110Y-16695484D02*
X13516110Y-16495484D01*
X13601825Y-16695484D02*
X13601825Y-16590722D01*
X13601825Y-16590722D02*
X13592301Y-16571674D01*
X13592301Y-16571674D02*
X13573253Y-16562150D01*
X13573253Y-16562150D02*
X13544682Y-16562150D01*
X13544682Y-16562150D02*
X13525634Y-16571674D01*
X13525634Y-16571674D02*
X13516110Y-16581198D01*
X13725634Y-16695484D02*
X13706587Y-16685960D01*
X13706587Y-16685960D02*
X13697063Y-16676436D01*
X13697063Y-16676436D02*
X13687539Y-16657388D01*
X13687539Y-16657388D02*
X13687539Y-16600246D01*
X13687539Y-16600246D02*
X13697063Y-16581198D01*
X13697063Y-16581198D02*
X13706587Y-16571674D01*
X13706587Y-16571674D02*
X13725634Y-16562150D01*
X13725634Y-16562150D02*
X13754206Y-16562150D01*
X13754206Y-16562150D02*
X13773253Y-16571674D01*
X13773253Y-16571674D02*
X13782777Y-16581198D01*
X13782777Y-16581198D02*
X13792301Y-16600246D01*
X13792301Y-16600246D02*
X13792301Y-16657388D01*
X13792301Y-16657388D02*
X13782777Y-16676436D01*
X13782777Y-16676436D02*
X13773253Y-16685960D01*
X13773253Y-16685960D02*
X13754206Y-16695484D01*
X13754206Y-16695484D02*
X13725634Y-16695484D01*
X13906587Y-16695484D02*
X13887539Y-16685960D01*
X13887539Y-16685960D02*
X13878015Y-16666912D01*
X13878015Y-16666912D02*
X13878015Y-16495484D01*
X14058968Y-16685960D02*
X14039920Y-16695484D01*
X14039920Y-16695484D02*
X14001825Y-16695484D01*
X14001825Y-16695484D02*
X13982777Y-16685960D01*
X13982777Y-16685960D02*
X13973253Y-16666912D01*
X13973253Y-16666912D02*
X13973253Y-16590722D01*
X13973253Y-16590722D02*
X13982777Y-16571674D01*
X13982777Y-16571674D02*
X14001825Y-16562150D01*
X14001825Y-16562150D02*
X14039920Y-16562150D01*
X14039920Y-16562150D02*
X14058968Y-16571674D01*
X14058968Y-16571674D02*
X14068491Y-16590722D01*
X14068491Y-16590722D02*
X14068491Y-16609769D01*
X14068491Y-16609769D02*
X13973253Y-16628817D01*
X14144682Y-16685960D02*
X14163730Y-16695484D01*
X14163730Y-16695484D02*
X14201825Y-16695484D01*
X14201825Y-16695484D02*
X14220872Y-16685960D01*
X14220872Y-16685960D02*
X14230396Y-16666912D01*
X14230396Y-16666912D02*
X14230396Y-16657388D01*
X14230396Y-16657388D02*
X14220872Y-16638341D01*
X14220872Y-16638341D02*
X14201825Y-16628817D01*
X14201825Y-16628817D02*
X14173253Y-16628817D01*
X14173253Y-16628817D02*
X14154206Y-16619293D01*
X14154206Y-16619293D02*
X14144682Y-16600246D01*
X14144682Y-16600246D02*
X14144682Y-16590722D01*
X14144682Y-16590722D02*
X14154206Y-16571674D01*
X14154206Y-16571674D02*
X14173253Y-16562150D01*
X14173253Y-16562150D02*
X14201825Y-16562150D01*
X14201825Y-16562150D02*
X14220872Y-16571674D01*
X14297063Y-16771674D02*
X14306587Y-16762150D01*
X14306587Y-16762150D02*
X14325634Y-16733579D01*
X14325634Y-16733579D02*
X14335158Y-16714531D01*
X14335158Y-16714531D02*
X14344682Y-16685960D01*
X14344682Y-16685960D02*
X14354206Y-16638341D01*
X14354206Y-16638341D02*
X14354206Y-16600246D01*
X14354206Y-16600246D02*
X14344682Y-16552627D01*
X14344682Y-16552627D02*
X14335158Y-16524055D01*
X14335158Y-16524055D02*
X14325634Y-16505008D01*
X14325634Y-16505008D02*
X14306587Y-16476436D01*
X14306587Y-16476436D02*
X14297063Y-16466912D01*
D11*
X9422000Y-16818000D02*
X9522000Y-16918000D01*
X9522000Y-16818000D02*
X9422000Y-16918000D01*
X9522000Y-16868000D02*
G75*
G02*
X9422000Y-16868000I-50000J0D01*
G01*
X9422000Y-16868000D02*
G75*
G02*
X9522000Y-16868000I50000J0D01*
G01*
D10*
X9887539Y-16959484D02*
X9773253Y-16959484D01*
X9830396Y-16959484D02*
X9830396Y-16759484D01*
X9830396Y-16759484D02*
X9811348Y-16788055D01*
X9811348Y-16788055D02*
X9792301Y-16807103D01*
X9792301Y-16807103D02*
X9773253Y-16816627D01*
X9973253Y-16940436D02*
X9982777Y-16949960D01*
X9982777Y-16949960D02*
X9973253Y-16959484D01*
X9973253Y-16959484D02*
X9963729Y-16949960D01*
X9963729Y-16949960D02*
X9973253Y-16940436D01*
X9973253Y-16940436D02*
X9973253Y-16959484D01*
X10106586Y-16759484D02*
X10125634Y-16759484D01*
X10125634Y-16759484D02*
X10144682Y-16769008D01*
X10144682Y-16769008D02*
X10154205Y-16778531D01*
X10154205Y-16778531D02*
X10163729Y-16797579D01*
X10163729Y-16797579D02*
X10173253Y-16835674D01*
X10173253Y-16835674D02*
X10173253Y-16883293D01*
X10173253Y-16883293D02*
X10163729Y-16921389D01*
X10163729Y-16921389D02*
X10154205Y-16940436D01*
X10154205Y-16940436D02*
X10144682Y-16949960D01*
X10144682Y-16949960D02*
X10125634Y-16959484D01*
X10125634Y-16959484D02*
X10106586Y-16959484D01*
X10106586Y-16959484D02*
X10087539Y-16949960D01*
X10087539Y-16949960D02*
X10078015Y-16940436D01*
X10078015Y-16940436D02*
X10068491Y-16921389D01*
X10068491Y-16921389D02*
X10058967Y-16883293D01*
X10058967Y-16883293D02*
X10058967Y-16835674D01*
X10058967Y-16835674D02*
X10068491Y-16797579D01*
X10068491Y-16797579D02*
X10078015Y-16778531D01*
X10078015Y-16778531D02*
X10087539Y-16769008D01*
X10087539Y-16769008D02*
X10106586Y-16759484D01*
X10297063Y-16759484D02*
X10316110Y-16759484D01*
X10316110Y-16759484D02*
X10335158Y-16769008D01*
X10335158Y-16769008D02*
X10344682Y-16778531D01*
X10344682Y-16778531D02*
X10354205Y-16797579D01*
X10354205Y-16797579D02*
X10363729Y-16835674D01*
X10363729Y-16835674D02*
X10363729Y-16883293D01*
X10363729Y-16883293D02*
X10354205Y-16921389D01*
X10354205Y-16921389D02*
X10344682Y-16940436D01*
X10344682Y-16940436D02*
X10335158Y-16949960D01*
X10335158Y-16949960D02*
X10316110Y-16959484D01*
X10316110Y-16959484D02*
X10297063Y-16959484D01*
X10297063Y-16959484D02*
X10278015Y-16949960D01*
X10278015Y-16949960D02*
X10268491Y-16940436D01*
X10268491Y-16940436D02*
X10258967Y-16921389D01*
X10258967Y-16921389D02*
X10249444Y-16883293D01*
X10249444Y-16883293D02*
X10249444Y-16835674D01*
X10249444Y-16835674D02*
X10258967Y-16797579D01*
X10258967Y-16797579D02*
X10268491Y-16778531D01*
X10268491Y-16778531D02*
X10278015Y-16769008D01*
X10278015Y-16769008D02*
X10297063Y-16759484D01*
X10487539Y-16759484D02*
X10506586Y-16759484D01*
X10506586Y-16759484D02*
X10525634Y-16769008D01*
X10525634Y-16769008D02*
X10535158Y-16778531D01*
X10535158Y-16778531D02*
X10544682Y-16797579D01*
X10544682Y-16797579D02*
X10554205Y-16835674D01*
X10554205Y-16835674D02*
X10554205Y-16883293D01*
X10554205Y-16883293D02*
X10544682Y-16921389D01*
X10544682Y-16921389D02*
X10535158Y-16940436D01*
X10535158Y-16940436D02*
X10525634Y-16949960D01*
X10525634Y-16949960D02*
X10506586Y-16959484D01*
X10506586Y-16959484D02*
X10487539Y-16959484D01*
X10487539Y-16959484D02*
X10468491Y-16949960D01*
X10468491Y-16949960D02*
X10458967Y-16940436D01*
X10458967Y-16940436D02*
X10449444Y-16921389D01*
X10449444Y-16921389D02*
X10439920Y-16883293D01*
X10439920Y-16883293D02*
X10439920Y-16835674D01*
X10439920Y-16835674D02*
X10449444Y-16797579D01*
X10449444Y-16797579D02*
X10458967Y-16778531D01*
X10458967Y-16778531D02*
X10468491Y-16769008D01*
X10468491Y-16769008D02*
X10487539Y-16759484D01*
X10639920Y-16959484D02*
X10639920Y-16826150D01*
X10639920Y-16845198D02*
X10649444Y-16835674D01*
X10649444Y-16835674D02*
X10668491Y-16826150D01*
X10668491Y-16826150D02*
X10697063Y-16826150D01*
X10697063Y-16826150D02*
X10716110Y-16835674D01*
X10716110Y-16835674D02*
X10725634Y-16854722D01*
X10725634Y-16854722D02*
X10725634Y-16959484D01*
X10725634Y-16854722D02*
X10735158Y-16835674D01*
X10735158Y-16835674D02*
X10754205Y-16826150D01*
X10754205Y-16826150D02*
X10782777Y-16826150D01*
X10782777Y-16826150D02*
X10801825Y-16835674D01*
X10801825Y-16835674D02*
X10811348Y-16854722D01*
X10811348Y-16854722D02*
X10811348Y-16959484D01*
X10906586Y-16959484D02*
X10906586Y-16826150D01*
X10906586Y-16845198D02*
X10916110Y-16835674D01*
X10916110Y-16835674D02*
X10935158Y-16826150D01*
X10935158Y-16826150D02*
X10963729Y-16826150D01*
X10963729Y-16826150D02*
X10982777Y-16835674D01*
X10982777Y-16835674D02*
X10992301Y-16854722D01*
X10992301Y-16854722D02*
X10992301Y-16959484D01*
X10992301Y-16854722D02*
X11001825Y-16835674D01*
X11001825Y-16835674D02*
X11020872Y-16826150D01*
X11020872Y-16826150D02*
X11049444Y-16826150D01*
X11049444Y-16826150D02*
X11068491Y-16835674D01*
X11068491Y-16835674D02*
X11078015Y-16854722D01*
X11078015Y-16854722D02*
X11078015Y-16959484D01*
X11468491Y-16749960D02*
X11297063Y-17007103D01*
X11725634Y-16759484D02*
X11744682Y-16759484D01*
X11744682Y-16759484D02*
X11763729Y-16769008D01*
X11763729Y-16769008D02*
X11773253Y-16778531D01*
X11773253Y-16778531D02*
X11782777Y-16797579D01*
X11782777Y-16797579D02*
X11792301Y-16835674D01*
X11792301Y-16835674D02*
X11792301Y-16883293D01*
X11792301Y-16883293D02*
X11782777Y-16921389D01*
X11782777Y-16921389D02*
X11773253Y-16940436D01*
X11773253Y-16940436D02*
X11763729Y-16949960D01*
X11763729Y-16949960D02*
X11744682Y-16959484D01*
X11744682Y-16959484D02*
X11725634Y-16959484D01*
X11725634Y-16959484D02*
X11706586Y-16949960D01*
X11706586Y-16949960D02*
X11697063Y-16940436D01*
X11697063Y-16940436D02*
X11687539Y-16921389D01*
X11687539Y-16921389D02*
X11678015Y-16883293D01*
X11678015Y-16883293D02*
X11678015Y-16835674D01*
X11678015Y-16835674D02*
X11687539Y-16797579D01*
X11687539Y-16797579D02*
X11697063Y-16778531D01*
X11697063Y-16778531D02*
X11706586Y-16769008D01*
X11706586Y-16769008D02*
X11725634Y-16759484D01*
X11878015Y-16940436D02*
X11887539Y-16949960D01*
X11887539Y-16949960D02*
X11878015Y-16959484D01*
X11878015Y-16959484D02*
X11868491Y-16949960D01*
X11868491Y-16949960D02*
X11878015Y-16940436D01*
X11878015Y-16940436D02*
X11878015Y-16959484D01*
X12011348Y-16759484D02*
X12030396Y-16759484D01*
X12030396Y-16759484D02*
X12049444Y-16769008D01*
X12049444Y-16769008D02*
X12058967Y-16778531D01*
X12058967Y-16778531D02*
X12068491Y-16797579D01*
X12068491Y-16797579D02*
X12078015Y-16835674D01*
X12078015Y-16835674D02*
X12078015Y-16883293D01*
X12078015Y-16883293D02*
X12068491Y-16921389D01*
X12068491Y-16921389D02*
X12058967Y-16940436D01*
X12058967Y-16940436D02*
X12049444Y-16949960D01*
X12049444Y-16949960D02*
X12030396Y-16959484D01*
X12030396Y-16959484D02*
X12011348Y-16959484D01*
X12011348Y-16959484D02*
X11992301Y-16949960D01*
X11992301Y-16949960D02*
X11982777Y-16940436D01*
X11982777Y-16940436D02*
X11973253Y-16921389D01*
X11973253Y-16921389D02*
X11963729Y-16883293D01*
X11963729Y-16883293D02*
X11963729Y-16835674D01*
X11963729Y-16835674D02*
X11973253Y-16797579D01*
X11973253Y-16797579D02*
X11982777Y-16778531D01*
X11982777Y-16778531D02*
X11992301Y-16769008D01*
X11992301Y-16769008D02*
X12011348Y-16759484D01*
X12144682Y-16759484D02*
X12268491Y-16759484D01*
X12268491Y-16759484D02*
X12201825Y-16835674D01*
X12201825Y-16835674D02*
X12230396Y-16835674D01*
X12230396Y-16835674D02*
X12249444Y-16845198D01*
X12249444Y-16845198D02*
X12258967Y-16854722D01*
X12258967Y-16854722D02*
X12268491Y-16873770D01*
X12268491Y-16873770D02*
X12268491Y-16921389D01*
X12268491Y-16921389D02*
X12258967Y-16940436D01*
X12258967Y-16940436D02*
X12249444Y-16949960D01*
X12249444Y-16949960D02*
X12230396Y-16959484D01*
X12230396Y-16959484D02*
X12173253Y-16959484D01*
X12173253Y-16959484D02*
X12154206Y-16949960D01*
X12154206Y-16949960D02*
X12144682Y-16940436D01*
X12363729Y-16959484D02*
X12401825Y-16959484D01*
X12401825Y-16959484D02*
X12420872Y-16949960D01*
X12420872Y-16949960D02*
X12430396Y-16940436D01*
X12430396Y-16940436D02*
X12449444Y-16911865D01*
X12449444Y-16911865D02*
X12458967Y-16873770D01*
X12458967Y-16873770D02*
X12458967Y-16797579D01*
X12458967Y-16797579D02*
X12449444Y-16778531D01*
X12449444Y-16778531D02*
X12439920Y-16769008D01*
X12439920Y-16769008D02*
X12420872Y-16759484D01*
X12420872Y-16759484D02*
X12382777Y-16759484D01*
X12382777Y-16759484D02*
X12363729Y-16769008D01*
X12363729Y-16769008D02*
X12354206Y-16778531D01*
X12354206Y-16778531D02*
X12344682Y-16797579D01*
X12344682Y-16797579D02*
X12344682Y-16845198D01*
X12344682Y-16845198D02*
X12354206Y-16864246D01*
X12354206Y-16864246D02*
X12363729Y-16873770D01*
X12363729Y-16873770D02*
X12382777Y-16883293D01*
X12382777Y-16883293D02*
X12420872Y-16883293D01*
X12420872Y-16883293D02*
X12439920Y-16873770D01*
X12439920Y-16873770D02*
X12449444Y-16864246D01*
X12449444Y-16864246D02*
X12458967Y-16845198D01*
X12630396Y-16826150D02*
X12630396Y-16959484D01*
X12582777Y-16749960D02*
X12535158Y-16892817D01*
X12535158Y-16892817D02*
X12658967Y-16892817D01*
X12725634Y-16759484D02*
X12725634Y-16797579D01*
X12801825Y-16759484D02*
X12801825Y-16797579D01*
X13097063Y-17035674D02*
X13087539Y-17026150D01*
X13087539Y-17026150D02*
X13068491Y-16997579D01*
X13068491Y-16997579D02*
X13058968Y-16978531D01*
X13058968Y-16978531D02*
X13049444Y-16949960D01*
X13049444Y-16949960D02*
X13039920Y-16902341D01*
X13039920Y-16902341D02*
X13039920Y-16864246D01*
X13039920Y-16864246D02*
X13049444Y-16816627D01*
X13049444Y-16816627D02*
X13058968Y-16788055D01*
X13058968Y-16788055D02*
X13068491Y-16769008D01*
X13068491Y-16769008D02*
X13087539Y-16740436D01*
X13087539Y-16740436D02*
X13097063Y-16730912D01*
X13163729Y-16778531D02*
X13173253Y-16769008D01*
X13173253Y-16769008D02*
X13192301Y-16759484D01*
X13192301Y-16759484D02*
X13239920Y-16759484D01*
X13239920Y-16759484D02*
X13258968Y-16769008D01*
X13258968Y-16769008D02*
X13268491Y-16778531D01*
X13268491Y-16778531D02*
X13278015Y-16797579D01*
X13278015Y-16797579D02*
X13278015Y-16816627D01*
X13278015Y-16816627D02*
X13268491Y-16845198D01*
X13268491Y-16845198D02*
X13154206Y-16959484D01*
X13154206Y-16959484D02*
X13278015Y-16959484D01*
X13449444Y-16826150D02*
X13449444Y-16959484D01*
X13401825Y-16749960D02*
X13354206Y-16892817D01*
X13354206Y-16892817D02*
X13478015Y-16892817D01*
X13706587Y-16959484D02*
X13706587Y-16759484D01*
X13792301Y-16959484D02*
X13792301Y-16854722D01*
X13792301Y-16854722D02*
X13782777Y-16835674D01*
X13782777Y-16835674D02*
X13763730Y-16826150D01*
X13763730Y-16826150D02*
X13735158Y-16826150D01*
X13735158Y-16826150D02*
X13716110Y-16835674D01*
X13716110Y-16835674D02*
X13706587Y-16845198D01*
X13916110Y-16959484D02*
X13897063Y-16949960D01*
X13897063Y-16949960D02*
X13887539Y-16940436D01*
X13887539Y-16940436D02*
X13878015Y-16921389D01*
X13878015Y-16921389D02*
X13878015Y-16864246D01*
X13878015Y-16864246D02*
X13887539Y-16845198D01*
X13887539Y-16845198D02*
X13897063Y-16835674D01*
X13897063Y-16835674D02*
X13916110Y-16826150D01*
X13916110Y-16826150D02*
X13944682Y-16826150D01*
X13944682Y-16826150D02*
X13963730Y-16835674D01*
X13963730Y-16835674D02*
X13973253Y-16845198D01*
X13973253Y-16845198D02*
X13982777Y-16864246D01*
X13982777Y-16864246D02*
X13982777Y-16921389D01*
X13982777Y-16921389D02*
X13973253Y-16940436D01*
X13973253Y-16940436D02*
X13963730Y-16949960D01*
X13963730Y-16949960D02*
X13944682Y-16959484D01*
X13944682Y-16959484D02*
X13916110Y-16959484D01*
X14097063Y-16959484D02*
X14078015Y-16949960D01*
X14078015Y-16949960D02*
X14068491Y-16930912D01*
X14068491Y-16930912D02*
X14068491Y-16759484D01*
X14249444Y-16949960D02*
X14230396Y-16959484D01*
X14230396Y-16959484D02*
X14192301Y-16959484D01*
X14192301Y-16959484D02*
X14173253Y-16949960D01*
X14173253Y-16949960D02*
X14163730Y-16930912D01*
X14163730Y-16930912D02*
X14163730Y-16854722D01*
X14163730Y-16854722D02*
X14173253Y-16835674D01*
X14173253Y-16835674D02*
X14192301Y-16826150D01*
X14192301Y-16826150D02*
X14230396Y-16826150D01*
X14230396Y-16826150D02*
X14249444Y-16835674D01*
X14249444Y-16835674D02*
X14258968Y-16854722D01*
X14258968Y-16854722D02*
X14258968Y-16873770D01*
X14258968Y-16873770D02*
X14163730Y-16892817D01*
X14335158Y-16949960D02*
X14354206Y-16959484D01*
X14354206Y-16959484D02*
X14392301Y-16959484D01*
X14392301Y-16959484D02*
X14411349Y-16949960D01*
X14411349Y-16949960D02*
X14420872Y-16930912D01*
X14420872Y-16930912D02*
X14420872Y-16921389D01*
X14420872Y-16921389D02*
X14411349Y-16902341D01*
X14411349Y-16902341D02*
X14392301Y-16892817D01*
X14392301Y-16892817D02*
X14363730Y-16892817D01*
X14363730Y-16892817D02*
X14344682Y-16883293D01*
X14344682Y-16883293D02*
X14335158Y-16864246D01*
X14335158Y-16864246D02*
X14335158Y-16854722D01*
X14335158Y-16854722D02*
X14344682Y-16835674D01*
X14344682Y-16835674D02*
X14363730Y-16826150D01*
X14363730Y-16826150D02*
X14392301Y-16826150D01*
X14392301Y-16826150D02*
X14411349Y-16835674D01*
X14487539Y-17035674D02*
X14497063Y-17026150D01*
X14497063Y-17026150D02*
X14516111Y-16997579D01*
X14516111Y-16997579D02*
X14525634Y-16978531D01*
X14525634Y-16978531D02*
X14535158Y-16949960D01*
X14535158Y-16949960D02*
X14544682Y-16902341D01*
X14544682Y-16902341D02*
X14544682Y-16864246D01*
X14544682Y-16864246D02*
X14535158Y-16816627D01*
X14535158Y-16816627D02*
X14525634Y-16788055D01*
X14525634Y-16788055D02*
X14516111Y-16769008D01*
X14516111Y-16769008D02*
X14497063Y-16740436D01*
X14497063Y-16740436D02*
X14487539Y-16730912D01*
D12*
X9397000Y-17069500D02*
X9522000Y-17194500D01*
X9522000Y-17069500D02*
X9397000Y-17194500D01*
X9459500Y-17069500D02*
X9459500Y-17194500D01*
X9397000Y-17132000D02*
X9522000Y-17132000D01*
D10*
X9887539Y-17223484D02*
X9773253Y-17223484D01*
X9830396Y-17223484D02*
X9830396Y-17023484D01*
X9830396Y-17023484D02*
X9811348Y-17052055D01*
X9811348Y-17052055D02*
X9792301Y-17071103D01*
X9792301Y-17071103D02*
X9773253Y-17080627D01*
X9973253Y-17204436D02*
X9982777Y-17213960D01*
X9982777Y-17213960D02*
X9973253Y-17223484D01*
X9973253Y-17223484D02*
X9963729Y-17213960D01*
X9963729Y-17213960D02*
X9973253Y-17204436D01*
X9973253Y-17204436D02*
X9973253Y-17223484D01*
X10058967Y-17042531D02*
X10068491Y-17033008D01*
X10068491Y-17033008D02*
X10087539Y-17023484D01*
X10087539Y-17023484D02*
X10135158Y-17023484D01*
X10135158Y-17023484D02*
X10154205Y-17033008D01*
X10154205Y-17033008D02*
X10163729Y-17042531D01*
X10163729Y-17042531D02*
X10173253Y-17061579D01*
X10173253Y-17061579D02*
X10173253Y-17080627D01*
X10173253Y-17080627D02*
X10163729Y-17109198D01*
X10163729Y-17109198D02*
X10049444Y-17223484D01*
X10049444Y-17223484D02*
X10173253Y-17223484D01*
X10354205Y-17023484D02*
X10258967Y-17023484D01*
X10258967Y-17023484D02*
X10249444Y-17118722D01*
X10249444Y-17118722D02*
X10258967Y-17109198D01*
X10258967Y-17109198D02*
X10278015Y-17099674D01*
X10278015Y-17099674D02*
X10325634Y-17099674D01*
X10325634Y-17099674D02*
X10344682Y-17109198D01*
X10344682Y-17109198D02*
X10354205Y-17118722D01*
X10354205Y-17118722D02*
X10363729Y-17137770D01*
X10363729Y-17137770D02*
X10363729Y-17185389D01*
X10363729Y-17185389D02*
X10354205Y-17204436D01*
X10354205Y-17204436D02*
X10344682Y-17213960D01*
X10344682Y-17213960D02*
X10325634Y-17223484D01*
X10325634Y-17223484D02*
X10278015Y-17223484D01*
X10278015Y-17223484D02*
X10258967Y-17213960D01*
X10258967Y-17213960D02*
X10249444Y-17204436D01*
X10487539Y-17023484D02*
X10506586Y-17023484D01*
X10506586Y-17023484D02*
X10525634Y-17033008D01*
X10525634Y-17033008D02*
X10535158Y-17042531D01*
X10535158Y-17042531D02*
X10544682Y-17061579D01*
X10544682Y-17061579D02*
X10554205Y-17099674D01*
X10554205Y-17099674D02*
X10554205Y-17147293D01*
X10554205Y-17147293D02*
X10544682Y-17185389D01*
X10544682Y-17185389D02*
X10535158Y-17204436D01*
X10535158Y-17204436D02*
X10525634Y-17213960D01*
X10525634Y-17213960D02*
X10506586Y-17223484D01*
X10506586Y-17223484D02*
X10487539Y-17223484D01*
X10487539Y-17223484D02*
X10468491Y-17213960D01*
X10468491Y-17213960D02*
X10458967Y-17204436D01*
X10458967Y-17204436D02*
X10449444Y-17185389D01*
X10449444Y-17185389D02*
X10439920Y-17147293D01*
X10439920Y-17147293D02*
X10439920Y-17099674D01*
X10439920Y-17099674D02*
X10449444Y-17061579D01*
X10449444Y-17061579D02*
X10458967Y-17042531D01*
X10458967Y-17042531D02*
X10468491Y-17033008D01*
X10468491Y-17033008D02*
X10487539Y-17023484D01*
X10639920Y-17223484D02*
X10639920Y-17090150D01*
X10639920Y-17109198D02*
X10649444Y-17099674D01*
X10649444Y-17099674D02*
X10668491Y-17090150D01*
X10668491Y-17090150D02*
X10697063Y-17090150D01*
X10697063Y-17090150D02*
X10716110Y-17099674D01*
X10716110Y-17099674D02*
X10725634Y-17118722D01*
X10725634Y-17118722D02*
X10725634Y-17223484D01*
X10725634Y-17118722D02*
X10735158Y-17099674D01*
X10735158Y-17099674D02*
X10754205Y-17090150D01*
X10754205Y-17090150D02*
X10782777Y-17090150D01*
X10782777Y-17090150D02*
X10801825Y-17099674D01*
X10801825Y-17099674D02*
X10811348Y-17118722D01*
X10811348Y-17118722D02*
X10811348Y-17223484D01*
X10906586Y-17223484D02*
X10906586Y-17090150D01*
X10906586Y-17109198D02*
X10916110Y-17099674D01*
X10916110Y-17099674D02*
X10935158Y-17090150D01*
X10935158Y-17090150D02*
X10963729Y-17090150D01*
X10963729Y-17090150D02*
X10982777Y-17099674D01*
X10982777Y-17099674D02*
X10992301Y-17118722D01*
X10992301Y-17118722D02*
X10992301Y-17223484D01*
X10992301Y-17118722D02*
X11001825Y-17099674D01*
X11001825Y-17099674D02*
X11020872Y-17090150D01*
X11020872Y-17090150D02*
X11049444Y-17090150D01*
X11049444Y-17090150D02*
X11068491Y-17099674D01*
X11068491Y-17099674D02*
X11078015Y-17118722D01*
X11078015Y-17118722D02*
X11078015Y-17223484D01*
X11468491Y-17013960D02*
X11297063Y-17271103D01*
X11725634Y-17023484D02*
X11744682Y-17023484D01*
X11744682Y-17023484D02*
X11763729Y-17033008D01*
X11763729Y-17033008D02*
X11773253Y-17042531D01*
X11773253Y-17042531D02*
X11782777Y-17061579D01*
X11782777Y-17061579D02*
X11792301Y-17099674D01*
X11792301Y-17099674D02*
X11792301Y-17147293D01*
X11792301Y-17147293D02*
X11782777Y-17185389D01*
X11782777Y-17185389D02*
X11773253Y-17204436D01*
X11773253Y-17204436D02*
X11763729Y-17213960D01*
X11763729Y-17213960D02*
X11744682Y-17223484D01*
X11744682Y-17223484D02*
X11725634Y-17223484D01*
X11725634Y-17223484D02*
X11706586Y-17213960D01*
X11706586Y-17213960D02*
X11697063Y-17204436D01*
X11697063Y-17204436D02*
X11687539Y-17185389D01*
X11687539Y-17185389D02*
X11678015Y-17147293D01*
X11678015Y-17147293D02*
X11678015Y-17099674D01*
X11678015Y-17099674D02*
X11687539Y-17061579D01*
X11687539Y-17061579D02*
X11697063Y-17042531D01*
X11697063Y-17042531D02*
X11706586Y-17033008D01*
X11706586Y-17033008D02*
X11725634Y-17023484D01*
X11878015Y-17204436D02*
X11887539Y-17213960D01*
X11887539Y-17213960D02*
X11878015Y-17223484D01*
X11878015Y-17223484D02*
X11868491Y-17213960D01*
X11868491Y-17213960D02*
X11878015Y-17204436D01*
X11878015Y-17204436D02*
X11878015Y-17223484D01*
X12011348Y-17023484D02*
X12030396Y-17023484D01*
X12030396Y-17023484D02*
X12049444Y-17033008D01*
X12049444Y-17033008D02*
X12058967Y-17042531D01*
X12058967Y-17042531D02*
X12068491Y-17061579D01*
X12068491Y-17061579D02*
X12078015Y-17099674D01*
X12078015Y-17099674D02*
X12078015Y-17147293D01*
X12078015Y-17147293D02*
X12068491Y-17185389D01*
X12068491Y-17185389D02*
X12058967Y-17204436D01*
X12058967Y-17204436D02*
X12049444Y-17213960D01*
X12049444Y-17213960D02*
X12030396Y-17223484D01*
X12030396Y-17223484D02*
X12011348Y-17223484D01*
X12011348Y-17223484D02*
X11992301Y-17213960D01*
X11992301Y-17213960D02*
X11982777Y-17204436D01*
X11982777Y-17204436D02*
X11973253Y-17185389D01*
X11973253Y-17185389D02*
X11963729Y-17147293D01*
X11963729Y-17147293D02*
X11963729Y-17099674D01*
X11963729Y-17099674D02*
X11973253Y-17061579D01*
X11973253Y-17061579D02*
X11982777Y-17042531D01*
X11982777Y-17042531D02*
X11992301Y-17033008D01*
X11992301Y-17033008D02*
X12011348Y-17023484D01*
X12249444Y-17090150D02*
X12249444Y-17223484D01*
X12201825Y-17013960D02*
X12154206Y-17156817D01*
X12154206Y-17156817D02*
X12278015Y-17156817D01*
X12363729Y-17223484D02*
X12401825Y-17223484D01*
X12401825Y-17223484D02*
X12420872Y-17213960D01*
X12420872Y-17213960D02*
X12430396Y-17204436D01*
X12430396Y-17204436D02*
X12449444Y-17175865D01*
X12449444Y-17175865D02*
X12458967Y-17137770D01*
X12458967Y-17137770D02*
X12458967Y-17061579D01*
X12458967Y-17061579D02*
X12449444Y-17042531D01*
X12449444Y-17042531D02*
X12439920Y-17033008D01*
X12439920Y-17033008D02*
X12420872Y-17023484D01*
X12420872Y-17023484D02*
X12382777Y-17023484D01*
X12382777Y-17023484D02*
X12363729Y-17033008D01*
X12363729Y-17033008D02*
X12354206Y-17042531D01*
X12354206Y-17042531D02*
X12344682Y-17061579D01*
X12344682Y-17061579D02*
X12344682Y-17109198D01*
X12344682Y-17109198D02*
X12354206Y-17128246D01*
X12354206Y-17128246D02*
X12363729Y-17137770D01*
X12363729Y-17137770D02*
X12382777Y-17147293D01*
X12382777Y-17147293D02*
X12420872Y-17147293D01*
X12420872Y-17147293D02*
X12439920Y-17137770D01*
X12439920Y-17137770D02*
X12449444Y-17128246D01*
X12449444Y-17128246D02*
X12458967Y-17109198D01*
X12535158Y-17042531D02*
X12544682Y-17033008D01*
X12544682Y-17033008D02*
X12563729Y-17023484D01*
X12563729Y-17023484D02*
X12611348Y-17023484D01*
X12611348Y-17023484D02*
X12630396Y-17033008D01*
X12630396Y-17033008D02*
X12639920Y-17042531D01*
X12639920Y-17042531D02*
X12649444Y-17061579D01*
X12649444Y-17061579D02*
X12649444Y-17080627D01*
X12649444Y-17080627D02*
X12639920Y-17109198D01*
X12639920Y-17109198D02*
X12525634Y-17223484D01*
X12525634Y-17223484D02*
X12649444Y-17223484D01*
X12725634Y-17023484D02*
X12725634Y-17061579D01*
X12801825Y-17023484D02*
X12801825Y-17061579D01*
X13097063Y-17299674D02*
X13087539Y-17290150D01*
X13087539Y-17290150D02*
X13068491Y-17261579D01*
X13068491Y-17261579D02*
X13058968Y-17242531D01*
X13058968Y-17242531D02*
X13049444Y-17213960D01*
X13049444Y-17213960D02*
X13039920Y-17166341D01*
X13039920Y-17166341D02*
X13039920Y-17128246D01*
X13039920Y-17128246D02*
X13049444Y-17080627D01*
X13049444Y-17080627D02*
X13058968Y-17052055D01*
X13058968Y-17052055D02*
X13068491Y-17033008D01*
X13068491Y-17033008D02*
X13087539Y-17004436D01*
X13087539Y-17004436D02*
X13097063Y-16994912D01*
X13258968Y-17023484D02*
X13220872Y-17023484D01*
X13220872Y-17023484D02*
X13201825Y-17033008D01*
X13201825Y-17033008D02*
X13192301Y-17042531D01*
X13192301Y-17042531D02*
X13173253Y-17071103D01*
X13173253Y-17071103D02*
X13163729Y-17109198D01*
X13163729Y-17109198D02*
X13163729Y-17185389D01*
X13163729Y-17185389D02*
X13173253Y-17204436D01*
X13173253Y-17204436D02*
X13182777Y-17213960D01*
X13182777Y-17213960D02*
X13201825Y-17223484D01*
X13201825Y-17223484D02*
X13239920Y-17223484D01*
X13239920Y-17223484D02*
X13258968Y-17213960D01*
X13258968Y-17213960D02*
X13268491Y-17204436D01*
X13268491Y-17204436D02*
X13278015Y-17185389D01*
X13278015Y-17185389D02*
X13278015Y-17137770D01*
X13278015Y-17137770D02*
X13268491Y-17118722D01*
X13268491Y-17118722D02*
X13258968Y-17109198D01*
X13258968Y-17109198D02*
X13239920Y-17099674D01*
X13239920Y-17099674D02*
X13201825Y-17099674D01*
X13201825Y-17099674D02*
X13182777Y-17109198D01*
X13182777Y-17109198D02*
X13173253Y-17118722D01*
X13173253Y-17118722D02*
X13163729Y-17137770D01*
X13516110Y-17223484D02*
X13516110Y-17023484D01*
X13601825Y-17223484D02*
X13601825Y-17118722D01*
X13601825Y-17118722D02*
X13592301Y-17099674D01*
X13592301Y-17099674D02*
X13573253Y-17090150D01*
X13573253Y-17090150D02*
X13544682Y-17090150D01*
X13544682Y-17090150D02*
X13525634Y-17099674D01*
X13525634Y-17099674D02*
X13516110Y-17109198D01*
X13725634Y-17223484D02*
X13706587Y-17213960D01*
X13706587Y-17213960D02*
X13697063Y-17204436D01*
X13697063Y-17204436D02*
X13687539Y-17185389D01*
X13687539Y-17185389D02*
X13687539Y-17128246D01*
X13687539Y-17128246D02*
X13697063Y-17109198D01*
X13697063Y-17109198D02*
X13706587Y-17099674D01*
X13706587Y-17099674D02*
X13725634Y-17090150D01*
X13725634Y-17090150D02*
X13754206Y-17090150D01*
X13754206Y-17090150D02*
X13773253Y-17099674D01*
X13773253Y-17099674D02*
X13782777Y-17109198D01*
X13782777Y-17109198D02*
X13792301Y-17128246D01*
X13792301Y-17128246D02*
X13792301Y-17185389D01*
X13792301Y-17185389D02*
X13782777Y-17204436D01*
X13782777Y-17204436D02*
X13773253Y-17213960D01*
X13773253Y-17213960D02*
X13754206Y-17223484D01*
X13754206Y-17223484D02*
X13725634Y-17223484D01*
X13906587Y-17223484D02*
X13887539Y-17213960D01*
X13887539Y-17213960D02*
X13878015Y-17194912D01*
X13878015Y-17194912D02*
X13878015Y-17023484D01*
X14058968Y-17213960D02*
X14039920Y-17223484D01*
X14039920Y-17223484D02*
X14001825Y-17223484D01*
X14001825Y-17223484D02*
X13982777Y-17213960D01*
X13982777Y-17213960D02*
X13973253Y-17194912D01*
X13973253Y-17194912D02*
X13973253Y-17118722D01*
X13973253Y-17118722D02*
X13982777Y-17099674D01*
X13982777Y-17099674D02*
X14001825Y-17090150D01*
X14001825Y-17090150D02*
X14039920Y-17090150D01*
X14039920Y-17090150D02*
X14058968Y-17099674D01*
X14058968Y-17099674D02*
X14068491Y-17118722D01*
X14068491Y-17118722D02*
X14068491Y-17137770D01*
X14068491Y-17137770D02*
X13973253Y-17156817D01*
X14144682Y-17213960D02*
X14163730Y-17223484D01*
X14163730Y-17223484D02*
X14201825Y-17223484D01*
X14201825Y-17223484D02*
X14220872Y-17213960D01*
X14220872Y-17213960D02*
X14230396Y-17194912D01*
X14230396Y-17194912D02*
X14230396Y-17185389D01*
X14230396Y-17185389D02*
X14220872Y-17166341D01*
X14220872Y-17166341D02*
X14201825Y-17156817D01*
X14201825Y-17156817D02*
X14173253Y-17156817D01*
X14173253Y-17156817D02*
X14154206Y-17147293D01*
X14154206Y-17147293D02*
X14144682Y-17128246D01*
X14144682Y-17128246D02*
X14144682Y-17118722D01*
X14144682Y-17118722D02*
X14154206Y-17099674D01*
X14154206Y-17099674D02*
X14173253Y-17090150D01*
X14173253Y-17090150D02*
X14201825Y-17090150D01*
X14201825Y-17090150D02*
X14220872Y-17099674D01*
X14297063Y-17299674D02*
X14306587Y-17290150D01*
X14306587Y-17290150D02*
X14325634Y-17261579D01*
X14325634Y-17261579D02*
X14335158Y-17242531D01*
X14335158Y-17242531D02*
X14344682Y-17213960D01*
X14344682Y-17213960D02*
X14354206Y-17166341D01*
X14354206Y-17166341D02*
X14354206Y-17128246D01*
X14354206Y-17128246D02*
X14344682Y-17080627D01*
X14344682Y-17080627D02*
X14335158Y-17052055D01*
X14335158Y-17052055D02*
X14325634Y-17033008D01*
X14325634Y-17033008D02*
X14306587Y-17004436D01*
X14306587Y-17004436D02*
X14297063Y-16994912D01*
D13*
X9372140Y-17321070D02*
X9522000Y-17470930D01*
X9522000Y-17321070D02*
X9372140Y-17470930D01*
X9500054Y-17448984D02*
X9500054Y-17343016D01*
X9394086Y-17343016D01*
X9394086Y-17448984D01*
X9500054Y-17448984D01*
D10*
X9887539Y-17487484D02*
X9773253Y-17487484D01*
X9830396Y-17487484D02*
X9830396Y-17287484D01*
X9830396Y-17287484D02*
X9811348Y-17316055D01*
X9811348Y-17316055D02*
X9792301Y-17335103D01*
X9792301Y-17335103D02*
X9773253Y-17344627D01*
X9973253Y-17468436D02*
X9982777Y-17477960D01*
X9982777Y-17477960D02*
X9973253Y-17487484D01*
X9973253Y-17487484D02*
X9963729Y-17477960D01*
X9963729Y-17477960D02*
X9973253Y-17468436D01*
X9973253Y-17468436D02*
X9973253Y-17487484D01*
X10154205Y-17354150D02*
X10154205Y-17487484D01*
X10106586Y-17277960D02*
X10058967Y-17420817D01*
X10058967Y-17420817D02*
X10182777Y-17420817D01*
X10268491Y-17487484D02*
X10306586Y-17487484D01*
X10306586Y-17487484D02*
X10325634Y-17477960D01*
X10325634Y-17477960D02*
X10335158Y-17468436D01*
X10335158Y-17468436D02*
X10354205Y-17439865D01*
X10354205Y-17439865D02*
X10363729Y-17401770D01*
X10363729Y-17401770D02*
X10363729Y-17325579D01*
X10363729Y-17325579D02*
X10354205Y-17306531D01*
X10354205Y-17306531D02*
X10344682Y-17297008D01*
X10344682Y-17297008D02*
X10325634Y-17287484D01*
X10325634Y-17287484D02*
X10287539Y-17287484D01*
X10287539Y-17287484D02*
X10268491Y-17297008D01*
X10268491Y-17297008D02*
X10258967Y-17306531D01*
X10258967Y-17306531D02*
X10249444Y-17325579D01*
X10249444Y-17325579D02*
X10249444Y-17373198D01*
X10249444Y-17373198D02*
X10258967Y-17392246D01*
X10258967Y-17392246D02*
X10268491Y-17401770D01*
X10268491Y-17401770D02*
X10287539Y-17411293D01*
X10287539Y-17411293D02*
X10325634Y-17411293D01*
X10325634Y-17411293D02*
X10344682Y-17401770D01*
X10344682Y-17401770D02*
X10354205Y-17392246D01*
X10354205Y-17392246D02*
X10363729Y-17373198D01*
X10458967Y-17487484D02*
X10497063Y-17487484D01*
X10497063Y-17487484D02*
X10516110Y-17477960D01*
X10516110Y-17477960D02*
X10525634Y-17468436D01*
X10525634Y-17468436D02*
X10544682Y-17439865D01*
X10544682Y-17439865D02*
X10554205Y-17401770D01*
X10554205Y-17401770D02*
X10554205Y-17325579D01*
X10554205Y-17325579D02*
X10544682Y-17306531D01*
X10544682Y-17306531D02*
X10535158Y-17297008D01*
X10535158Y-17297008D02*
X10516110Y-17287484D01*
X10516110Y-17287484D02*
X10478015Y-17287484D01*
X10478015Y-17287484D02*
X10458967Y-17297008D01*
X10458967Y-17297008D02*
X10449444Y-17306531D01*
X10449444Y-17306531D02*
X10439920Y-17325579D01*
X10439920Y-17325579D02*
X10439920Y-17373198D01*
X10439920Y-17373198D02*
X10449444Y-17392246D01*
X10449444Y-17392246D02*
X10458967Y-17401770D01*
X10458967Y-17401770D02*
X10478015Y-17411293D01*
X10478015Y-17411293D02*
X10516110Y-17411293D01*
X10516110Y-17411293D02*
X10535158Y-17401770D01*
X10535158Y-17401770D02*
X10544682Y-17392246D01*
X10544682Y-17392246D02*
X10554205Y-17373198D01*
X10639920Y-17487484D02*
X10639920Y-17354150D01*
X10639920Y-17373198D02*
X10649444Y-17363674D01*
X10649444Y-17363674D02*
X10668491Y-17354150D01*
X10668491Y-17354150D02*
X10697063Y-17354150D01*
X10697063Y-17354150D02*
X10716110Y-17363674D01*
X10716110Y-17363674D02*
X10725634Y-17382722D01*
X10725634Y-17382722D02*
X10725634Y-17487484D01*
X10725634Y-17382722D02*
X10735158Y-17363674D01*
X10735158Y-17363674D02*
X10754205Y-17354150D01*
X10754205Y-17354150D02*
X10782777Y-17354150D01*
X10782777Y-17354150D02*
X10801825Y-17363674D01*
X10801825Y-17363674D02*
X10811348Y-17382722D01*
X10811348Y-17382722D02*
X10811348Y-17487484D01*
X10906586Y-17487484D02*
X10906586Y-17354150D01*
X10906586Y-17373198D02*
X10916110Y-17363674D01*
X10916110Y-17363674D02*
X10935158Y-17354150D01*
X10935158Y-17354150D02*
X10963729Y-17354150D01*
X10963729Y-17354150D02*
X10982777Y-17363674D01*
X10982777Y-17363674D02*
X10992301Y-17382722D01*
X10992301Y-17382722D02*
X10992301Y-17487484D01*
X10992301Y-17382722D02*
X11001825Y-17363674D01*
X11001825Y-17363674D02*
X11020872Y-17354150D01*
X11020872Y-17354150D02*
X11049444Y-17354150D01*
X11049444Y-17354150D02*
X11068491Y-17363674D01*
X11068491Y-17363674D02*
X11078015Y-17382722D01*
X11078015Y-17382722D02*
X11078015Y-17487484D01*
X11468491Y-17277960D02*
X11297063Y-17535103D01*
X11725634Y-17287484D02*
X11744682Y-17287484D01*
X11744682Y-17287484D02*
X11763729Y-17297008D01*
X11763729Y-17297008D02*
X11773253Y-17306531D01*
X11773253Y-17306531D02*
X11782777Y-17325579D01*
X11782777Y-17325579D02*
X11792301Y-17363674D01*
X11792301Y-17363674D02*
X11792301Y-17411293D01*
X11792301Y-17411293D02*
X11782777Y-17449389D01*
X11782777Y-17449389D02*
X11773253Y-17468436D01*
X11773253Y-17468436D02*
X11763729Y-17477960D01*
X11763729Y-17477960D02*
X11744682Y-17487484D01*
X11744682Y-17487484D02*
X11725634Y-17487484D01*
X11725634Y-17487484D02*
X11706586Y-17477960D01*
X11706586Y-17477960D02*
X11697063Y-17468436D01*
X11697063Y-17468436D02*
X11687539Y-17449389D01*
X11687539Y-17449389D02*
X11678015Y-17411293D01*
X11678015Y-17411293D02*
X11678015Y-17363674D01*
X11678015Y-17363674D02*
X11687539Y-17325579D01*
X11687539Y-17325579D02*
X11697063Y-17306531D01*
X11697063Y-17306531D02*
X11706586Y-17297008D01*
X11706586Y-17297008D02*
X11725634Y-17287484D01*
X11878015Y-17468436D02*
X11887539Y-17477960D01*
X11887539Y-17477960D02*
X11878015Y-17487484D01*
X11878015Y-17487484D02*
X11868491Y-17477960D01*
X11868491Y-17477960D02*
X11878015Y-17468436D01*
X11878015Y-17468436D02*
X11878015Y-17487484D01*
X12011348Y-17287484D02*
X12030396Y-17287484D01*
X12030396Y-17287484D02*
X12049444Y-17297008D01*
X12049444Y-17297008D02*
X12058967Y-17306531D01*
X12058967Y-17306531D02*
X12068491Y-17325579D01*
X12068491Y-17325579D02*
X12078015Y-17363674D01*
X12078015Y-17363674D02*
X12078015Y-17411293D01*
X12078015Y-17411293D02*
X12068491Y-17449389D01*
X12068491Y-17449389D02*
X12058967Y-17468436D01*
X12058967Y-17468436D02*
X12049444Y-17477960D01*
X12049444Y-17477960D02*
X12030396Y-17487484D01*
X12030396Y-17487484D02*
X12011348Y-17487484D01*
X12011348Y-17487484D02*
X11992301Y-17477960D01*
X11992301Y-17477960D02*
X11982777Y-17468436D01*
X11982777Y-17468436D02*
X11973253Y-17449389D01*
X11973253Y-17449389D02*
X11963729Y-17411293D01*
X11963729Y-17411293D02*
X11963729Y-17363674D01*
X11963729Y-17363674D02*
X11973253Y-17325579D01*
X11973253Y-17325579D02*
X11982777Y-17306531D01*
X11982777Y-17306531D02*
X11992301Y-17297008D01*
X11992301Y-17297008D02*
X12011348Y-17287484D01*
X12258967Y-17287484D02*
X12163729Y-17287484D01*
X12163729Y-17287484D02*
X12154206Y-17382722D01*
X12154206Y-17382722D02*
X12163729Y-17373198D01*
X12163729Y-17373198D02*
X12182777Y-17363674D01*
X12182777Y-17363674D02*
X12230396Y-17363674D01*
X12230396Y-17363674D02*
X12249444Y-17373198D01*
X12249444Y-17373198D02*
X12258967Y-17382722D01*
X12258967Y-17382722D02*
X12268491Y-17401770D01*
X12268491Y-17401770D02*
X12268491Y-17449389D01*
X12268491Y-17449389D02*
X12258967Y-17468436D01*
X12258967Y-17468436D02*
X12249444Y-17477960D01*
X12249444Y-17477960D02*
X12230396Y-17487484D01*
X12230396Y-17487484D02*
X12182777Y-17487484D01*
X12182777Y-17487484D02*
X12163729Y-17477960D01*
X12163729Y-17477960D02*
X12154206Y-17468436D01*
X12363729Y-17487484D02*
X12401825Y-17487484D01*
X12401825Y-17487484D02*
X12420872Y-17477960D01*
X12420872Y-17477960D02*
X12430396Y-17468436D01*
X12430396Y-17468436D02*
X12449444Y-17439865D01*
X12449444Y-17439865D02*
X12458967Y-17401770D01*
X12458967Y-17401770D02*
X12458967Y-17325579D01*
X12458967Y-17325579D02*
X12449444Y-17306531D01*
X12449444Y-17306531D02*
X12439920Y-17297008D01*
X12439920Y-17297008D02*
X12420872Y-17287484D01*
X12420872Y-17287484D02*
X12382777Y-17287484D01*
X12382777Y-17287484D02*
X12363729Y-17297008D01*
X12363729Y-17297008D02*
X12354206Y-17306531D01*
X12354206Y-17306531D02*
X12344682Y-17325579D01*
X12344682Y-17325579D02*
X12344682Y-17373198D01*
X12344682Y-17373198D02*
X12354206Y-17392246D01*
X12354206Y-17392246D02*
X12363729Y-17401770D01*
X12363729Y-17401770D02*
X12382777Y-17411293D01*
X12382777Y-17411293D02*
X12420872Y-17411293D01*
X12420872Y-17411293D02*
X12439920Y-17401770D01*
X12439920Y-17401770D02*
X12449444Y-17392246D01*
X12449444Y-17392246D02*
X12458967Y-17373198D01*
X12582777Y-17287484D02*
X12601825Y-17287484D01*
X12601825Y-17287484D02*
X12620872Y-17297008D01*
X12620872Y-17297008D02*
X12630396Y-17306531D01*
X12630396Y-17306531D02*
X12639920Y-17325579D01*
X12639920Y-17325579D02*
X12649444Y-17363674D01*
X12649444Y-17363674D02*
X12649444Y-17411293D01*
X12649444Y-17411293D02*
X12639920Y-17449389D01*
X12639920Y-17449389D02*
X12630396Y-17468436D01*
X12630396Y-17468436D02*
X12620872Y-17477960D01*
X12620872Y-17477960D02*
X12601825Y-17487484D01*
X12601825Y-17487484D02*
X12582777Y-17487484D01*
X12582777Y-17487484D02*
X12563729Y-17477960D01*
X12563729Y-17477960D02*
X12554206Y-17468436D01*
X12554206Y-17468436D02*
X12544682Y-17449389D01*
X12544682Y-17449389D02*
X12535158Y-17411293D01*
X12535158Y-17411293D02*
X12535158Y-17363674D01*
X12535158Y-17363674D02*
X12544682Y-17325579D01*
X12544682Y-17325579D02*
X12554206Y-17306531D01*
X12554206Y-17306531D02*
X12563729Y-17297008D01*
X12563729Y-17297008D02*
X12582777Y-17287484D01*
X12725634Y-17287484D02*
X12725634Y-17325579D01*
X12801825Y-17287484D02*
X12801825Y-17325579D01*
X13097063Y-17563674D02*
X13087539Y-17554150D01*
X13087539Y-17554150D02*
X13068491Y-17525579D01*
X13068491Y-17525579D02*
X13058968Y-17506531D01*
X13058968Y-17506531D02*
X13049444Y-17477960D01*
X13049444Y-17477960D02*
X13039920Y-17430341D01*
X13039920Y-17430341D02*
X13039920Y-17392246D01*
X13039920Y-17392246D02*
X13049444Y-17344627D01*
X13049444Y-17344627D02*
X13058968Y-17316055D01*
X13058968Y-17316055D02*
X13068491Y-17297008D01*
X13068491Y-17297008D02*
X13087539Y-17268436D01*
X13087539Y-17268436D02*
X13097063Y-17258912D01*
X13163729Y-17306531D02*
X13173253Y-17297008D01*
X13173253Y-17297008D02*
X13192301Y-17287484D01*
X13192301Y-17287484D02*
X13239920Y-17287484D01*
X13239920Y-17287484D02*
X13258968Y-17297008D01*
X13258968Y-17297008D02*
X13268491Y-17306531D01*
X13268491Y-17306531D02*
X13278015Y-17325579D01*
X13278015Y-17325579D02*
X13278015Y-17344627D01*
X13278015Y-17344627D02*
X13268491Y-17373198D01*
X13268491Y-17373198D02*
X13154206Y-17487484D01*
X13154206Y-17487484D02*
X13278015Y-17487484D01*
X13516110Y-17487484D02*
X13516110Y-17287484D01*
X13601825Y-17487484D02*
X13601825Y-17382722D01*
X13601825Y-17382722D02*
X13592301Y-17363674D01*
X13592301Y-17363674D02*
X13573253Y-17354150D01*
X13573253Y-17354150D02*
X13544682Y-17354150D01*
X13544682Y-17354150D02*
X13525634Y-17363674D01*
X13525634Y-17363674D02*
X13516110Y-17373198D01*
X13725634Y-17487484D02*
X13706587Y-17477960D01*
X13706587Y-17477960D02*
X13697063Y-17468436D01*
X13697063Y-17468436D02*
X13687539Y-17449389D01*
X13687539Y-17449389D02*
X13687539Y-17392246D01*
X13687539Y-17392246D02*
X13697063Y-17373198D01*
X13697063Y-17373198D02*
X13706587Y-17363674D01*
X13706587Y-17363674D02*
X13725634Y-17354150D01*
X13725634Y-17354150D02*
X13754206Y-17354150D01*
X13754206Y-17354150D02*
X13773253Y-17363674D01*
X13773253Y-17363674D02*
X13782777Y-17373198D01*
X13782777Y-17373198D02*
X13792301Y-17392246D01*
X13792301Y-17392246D02*
X13792301Y-17449389D01*
X13792301Y-17449389D02*
X13782777Y-17468436D01*
X13782777Y-17468436D02*
X13773253Y-17477960D01*
X13773253Y-17477960D02*
X13754206Y-17487484D01*
X13754206Y-17487484D02*
X13725634Y-17487484D01*
X13906587Y-17487484D02*
X13887539Y-17477960D01*
X13887539Y-17477960D02*
X13878015Y-17458912D01*
X13878015Y-17458912D02*
X13878015Y-17287484D01*
X14058968Y-17477960D02*
X14039920Y-17487484D01*
X14039920Y-17487484D02*
X14001825Y-17487484D01*
X14001825Y-17487484D02*
X13982777Y-17477960D01*
X13982777Y-17477960D02*
X13973253Y-17458912D01*
X13973253Y-17458912D02*
X13973253Y-17382722D01*
X13973253Y-17382722D02*
X13982777Y-17363674D01*
X13982777Y-17363674D02*
X14001825Y-17354150D01*
X14001825Y-17354150D02*
X14039920Y-17354150D01*
X14039920Y-17354150D02*
X14058968Y-17363674D01*
X14058968Y-17363674D02*
X14068491Y-17382722D01*
X14068491Y-17382722D02*
X14068491Y-17401770D01*
X14068491Y-17401770D02*
X13973253Y-17420817D01*
X14144682Y-17477960D02*
X14163730Y-17487484D01*
X14163730Y-17487484D02*
X14201825Y-17487484D01*
X14201825Y-17487484D02*
X14220872Y-17477960D01*
X14220872Y-17477960D02*
X14230396Y-17458912D01*
X14230396Y-17458912D02*
X14230396Y-17449389D01*
X14230396Y-17449389D02*
X14220872Y-17430341D01*
X14220872Y-17430341D02*
X14201825Y-17420817D01*
X14201825Y-17420817D02*
X14173253Y-17420817D01*
X14173253Y-17420817D02*
X14154206Y-17411293D01*
X14154206Y-17411293D02*
X14144682Y-17392246D01*
X14144682Y-17392246D02*
X14144682Y-17382722D01*
X14144682Y-17382722D02*
X14154206Y-17363674D01*
X14154206Y-17363674D02*
X14173253Y-17354150D01*
X14173253Y-17354150D02*
X14201825Y-17354150D01*
X14201825Y-17354150D02*
X14220872Y-17363674D01*
X14297063Y-17563674D02*
X14306587Y-17554150D01*
X14306587Y-17554150D02*
X14325634Y-17525579D01*
X14325634Y-17525579D02*
X14335158Y-17506531D01*
X14335158Y-17506531D02*
X14344682Y-17477960D01*
X14344682Y-17477960D02*
X14354206Y-17430341D01*
X14354206Y-17430341D02*
X14354206Y-17392246D01*
X14354206Y-17392246D02*
X14344682Y-17344627D01*
X14344682Y-17344627D02*
X14335158Y-17316055D01*
X14335158Y-17316055D02*
X14325634Y-17297008D01*
X14325634Y-17297008D02*
X14306587Y-17268436D01*
X14306587Y-17268436D02*
X14297063Y-17258912D01*
X9322000Y-17565860D02*
X9522000Y-17765860D01*
X9522000Y-17565860D02*
X9322000Y-17765860D01*
X9422000Y-17765860D02*
X9522000Y-17665860D01*
X9422000Y-17565860D01*
X9322000Y-17665860D01*
X9422000Y-17765860D01*
X9773253Y-17576391D02*
X9782777Y-17566868D01*
X9782777Y-17566868D02*
X9801824Y-17557344D01*
X9801824Y-17557344D02*
X9849444Y-17557344D01*
X9849444Y-17557344D02*
X9868491Y-17566868D01*
X9868491Y-17566868D02*
X9878015Y-17576391D01*
X9878015Y-17576391D02*
X9887539Y-17595439D01*
X9887539Y-17595439D02*
X9887539Y-17614487D01*
X9887539Y-17614487D02*
X9878015Y-17643058D01*
X9878015Y-17643058D02*
X9763729Y-17757344D01*
X9763729Y-17757344D02*
X9887539Y-17757344D01*
X9973253Y-17738296D02*
X9982777Y-17747820D01*
X9982777Y-17747820D02*
X9973253Y-17757344D01*
X9973253Y-17757344D02*
X9963729Y-17747820D01*
X9963729Y-17747820D02*
X9973253Y-17738296D01*
X9973253Y-17738296D02*
X9973253Y-17757344D01*
X10058967Y-17576391D02*
X10068491Y-17566868D01*
X10068491Y-17566868D02*
X10087539Y-17557344D01*
X10087539Y-17557344D02*
X10135158Y-17557344D01*
X10135158Y-17557344D02*
X10154205Y-17566868D01*
X10154205Y-17566868D02*
X10163729Y-17576391D01*
X10163729Y-17576391D02*
X10173253Y-17595439D01*
X10173253Y-17595439D02*
X10173253Y-17614487D01*
X10173253Y-17614487D02*
X10163729Y-17643058D01*
X10163729Y-17643058D02*
X10049444Y-17757344D01*
X10049444Y-17757344D02*
X10173253Y-17757344D01*
X10354205Y-17557344D02*
X10258967Y-17557344D01*
X10258967Y-17557344D02*
X10249444Y-17652582D01*
X10249444Y-17652582D02*
X10258967Y-17643058D01*
X10258967Y-17643058D02*
X10278015Y-17633534D01*
X10278015Y-17633534D02*
X10325634Y-17633534D01*
X10325634Y-17633534D02*
X10344682Y-17643058D01*
X10344682Y-17643058D02*
X10354205Y-17652582D01*
X10354205Y-17652582D02*
X10363729Y-17671630D01*
X10363729Y-17671630D02*
X10363729Y-17719249D01*
X10363729Y-17719249D02*
X10354205Y-17738296D01*
X10354205Y-17738296D02*
X10344682Y-17747820D01*
X10344682Y-17747820D02*
X10325634Y-17757344D01*
X10325634Y-17757344D02*
X10278015Y-17757344D01*
X10278015Y-17757344D02*
X10258967Y-17747820D01*
X10258967Y-17747820D02*
X10249444Y-17738296D01*
X10487539Y-17557344D02*
X10506586Y-17557344D01*
X10506586Y-17557344D02*
X10525634Y-17566868D01*
X10525634Y-17566868D02*
X10535158Y-17576391D01*
X10535158Y-17576391D02*
X10544682Y-17595439D01*
X10544682Y-17595439D02*
X10554205Y-17633534D01*
X10554205Y-17633534D02*
X10554205Y-17681153D01*
X10554205Y-17681153D02*
X10544682Y-17719249D01*
X10544682Y-17719249D02*
X10535158Y-17738296D01*
X10535158Y-17738296D02*
X10525634Y-17747820D01*
X10525634Y-17747820D02*
X10506586Y-17757344D01*
X10506586Y-17757344D02*
X10487539Y-17757344D01*
X10487539Y-17757344D02*
X10468491Y-17747820D01*
X10468491Y-17747820D02*
X10458967Y-17738296D01*
X10458967Y-17738296D02*
X10449444Y-17719249D01*
X10449444Y-17719249D02*
X10439920Y-17681153D01*
X10439920Y-17681153D02*
X10439920Y-17633534D01*
X10439920Y-17633534D02*
X10449444Y-17595439D01*
X10449444Y-17595439D02*
X10458967Y-17576391D01*
X10458967Y-17576391D02*
X10468491Y-17566868D01*
X10468491Y-17566868D02*
X10487539Y-17557344D01*
X10639920Y-17757344D02*
X10639920Y-17624010D01*
X10639920Y-17643058D02*
X10649444Y-17633534D01*
X10649444Y-17633534D02*
X10668491Y-17624010D01*
X10668491Y-17624010D02*
X10697063Y-17624010D01*
X10697063Y-17624010D02*
X10716110Y-17633534D01*
X10716110Y-17633534D02*
X10725634Y-17652582D01*
X10725634Y-17652582D02*
X10725634Y-17757344D01*
X10725634Y-17652582D02*
X10735158Y-17633534D01*
X10735158Y-17633534D02*
X10754205Y-17624010D01*
X10754205Y-17624010D02*
X10782777Y-17624010D01*
X10782777Y-17624010D02*
X10801825Y-17633534D01*
X10801825Y-17633534D02*
X10811348Y-17652582D01*
X10811348Y-17652582D02*
X10811348Y-17757344D01*
X10906586Y-17757344D02*
X10906586Y-17624010D01*
X10906586Y-17643058D02*
X10916110Y-17633534D01*
X10916110Y-17633534D02*
X10935158Y-17624010D01*
X10935158Y-17624010D02*
X10963729Y-17624010D01*
X10963729Y-17624010D02*
X10982777Y-17633534D01*
X10982777Y-17633534D02*
X10992301Y-17652582D01*
X10992301Y-17652582D02*
X10992301Y-17757344D01*
X10992301Y-17652582D02*
X11001825Y-17633534D01*
X11001825Y-17633534D02*
X11020872Y-17624010D01*
X11020872Y-17624010D02*
X11049444Y-17624010D01*
X11049444Y-17624010D02*
X11068491Y-17633534D01*
X11068491Y-17633534D02*
X11078015Y-17652582D01*
X11078015Y-17652582D02*
X11078015Y-17757344D01*
X11468491Y-17547820D02*
X11297063Y-17804963D01*
X11725634Y-17557344D02*
X11744682Y-17557344D01*
X11744682Y-17557344D02*
X11763729Y-17566868D01*
X11763729Y-17566868D02*
X11773253Y-17576391D01*
X11773253Y-17576391D02*
X11782777Y-17595439D01*
X11782777Y-17595439D02*
X11792301Y-17633534D01*
X11792301Y-17633534D02*
X11792301Y-17681153D01*
X11792301Y-17681153D02*
X11782777Y-17719249D01*
X11782777Y-17719249D02*
X11773253Y-17738296D01*
X11773253Y-17738296D02*
X11763729Y-17747820D01*
X11763729Y-17747820D02*
X11744682Y-17757344D01*
X11744682Y-17757344D02*
X11725634Y-17757344D01*
X11725634Y-17757344D02*
X11706586Y-17747820D01*
X11706586Y-17747820D02*
X11697063Y-17738296D01*
X11697063Y-17738296D02*
X11687539Y-17719249D01*
X11687539Y-17719249D02*
X11678015Y-17681153D01*
X11678015Y-17681153D02*
X11678015Y-17633534D01*
X11678015Y-17633534D02*
X11687539Y-17595439D01*
X11687539Y-17595439D02*
X11697063Y-17576391D01*
X11697063Y-17576391D02*
X11706586Y-17566868D01*
X11706586Y-17566868D02*
X11725634Y-17557344D01*
X11878015Y-17738296D02*
X11887539Y-17747820D01*
X11887539Y-17747820D02*
X11878015Y-17757344D01*
X11878015Y-17757344D02*
X11868491Y-17747820D01*
X11868491Y-17747820D02*
X11878015Y-17738296D01*
X11878015Y-17738296D02*
X11878015Y-17757344D01*
X12011348Y-17557344D02*
X12030396Y-17557344D01*
X12030396Y-17557344D02*
X12049444Y-17566868D01*
X12049444Y-17566868D02*
X12058967Y-17576391D01*
X12058967Y-17576391D02*
X12068491Y-17595439D01*
X12068491Y-17595439D02*
X12078015Y-17633534D01*
X12078015Y-17633534D02*
X12078015Y-17681153D01*
X12078015Y-17681153D02*
X12068491Y-17719249D01*
X12068491Y-17719249D02*
X12058967Y-17738296D01*
X12058967Y-17738296D02*
X12049444Y-17747820D01*
X12049444Y-17747820D02*
X12030396Y-17757344D01*
X12030396Y-17757344D02*
X12011348Y-17757344D01*
X12011348Y-17757344D02*
X11992301Y-17747820D01*
X11992301Y-17747820D02*
X11982777Y-17738296D01*
X11982777Y-17738296D02*
X11973253Y-17719249D01*
X11973253Y-17719249D02*
X11963729Y-17681153D01*
X11963729Y-17681153D02*
X11963729Y-17633534D01*
X11963729Y-17633534D02*
X11973253Y-17595439D01*
X11973253Y-17595439D02*
X11982777Y-17576391D01*
X11982777Y-17576391D02*
X11992301Y-17566868D01*
X11992301Y-17566868D02*
X12011348Y-17557344D01*
X12192301Y-17643058D02*
X12173253Y-17633534D01*
X12173253Y-17633534D02*
X12163729Y-17624010D01*
X12163729Y-17624010D02*
X12154206Y-17604963D01*
X12154206Y-17604963D02*
X12154206Y-17595439D01*
X12154206Y-17595439D02*
X12163729Y-17576391D01*
X12163729Y-17576391D02*
X12173253Y-17566868D01*
X12173253Y-17566868D02*
X12192301Y-17557344D01*
X12192301Y-17557344D02*
X12230396Y-17557344D01*
X12230396Y-17557344D02*
X12249444Y-17566868D01*
X12249444Y-17566868D02*
X12258967Y-17576391D01*
X12258967Y-17576391D02*
X12268491Y-17595439D01*
X12268491Y-17595439D02*
X12268491Y-17604963D01*
X12268491Y-17604963D02*
X12258967Y-17624010D01*
X12258967Y-17624010D02*
X12249444Y-17633534D01*
X12249444Y-17633534D02*
X12230396Y-17643058D01*
X12230396Y-17643058D02*
X12192301Y-17643058D01*
X12192301Y-17643058D02*
X12173253Y-17652582D01*
X12173253Y-17652582D02*
X12163729Y-17662106D01*
X12163729Y-17662106D02*
X12154206Y-17681153D01*
X12154206Y-17681153D02*
X12154206Y-17719249D01*
X12154206Y-17719249D02*
X12163729Y-17738296D01*
X12163729Y-17738296D02*
X12173253Y-17747820D01*
X12173253Y-17747820D02*
X12192301Y-17757344D01*
X12192301Y-17757344D02*
X12230396Y-17757344D01*
X12230396Y-17757344D02*
X12249444Y-17747820D01*
X12249444Y-17747820D02*
X12258967Y-17738296D01*
X12258967Y-17738296D02*
X12268491Y-17719249D01*
X12268491Y-17719249D02*
X12268491Y-17681153D01*
X12268491Y-17681153D02*
X12258967Y-17662106D01*
X12258967Y-17662106D02*
X12249444Y-17652582D01*
X12249444Y-17652582D02*
X12230396Y-17643058D01*
X12382777Y-17643058D02*
X12363729Y-17633534D01*
X12363729Y-17633534D02*
X12354206Y-17624010D01*
X12354206Y-17624010D02*
X12344682Y-17604963D01*
X12344682Y-17604963D02*
X12344682Y-17595439D01*
X12344682Y-17595439D02*
X12354206Y-17576391D01*
X12354206Y-17576391D02*
X12363729Y-17566868D01*
X12363729Y-17566868D02*
X12382777Y-17557344D01*
X12382777Y-17557344D02*
X12420872Y-17557344D01*
X12420872Y-17557344D02*
X12439920Y-17566868D01*
X12439920Y-17566868D02*
X12449444Y-17576391D01*
X12449444Y-17576391D02*
X12458967Y-17595439D01*
X12458967Y-17595439D02*
X12458967Y-17604963D01*
X12458967Y-17604963D02*
X12449444Y-17624010D01*
X12449444Y-17624010D02*
X12439920Y-17633534D01*
X12439920Y-17633534D02*
X12420872Y-17643058D01*
X12420872Y-17643058D02*
X12382777Y-17643058D01*
X12382777Y-17643058D02*
X12363729Y-17652582D01*
X12363729Y-17652582D02*
X12354206Y-17662106D01*
X12354206Y-17662106D02*
X12344682Y-17681153D01*
X12344682Y-17681153D02*
X12344682Y-17719249D01*
X12344682Y-17719249D02*
X12354206Y-17738296D01*
X12354206Y-17738296D02*
X12363729Y-17747820D01*
X12363729Y-17747820D02*
X12382777Y-17757344D01*
X12382777Y-17757344D02*
X12420872Y-17757344D01*
X12420872Y-17757344D02*
X12439920Y-17747820D01*
X12439920Y-17747820D02*
X12449444Y-17738296D01*
X12449444Y-17738296D02*
X12458967Y-17719249D01*
X12458967Y-17719249D02*
X12458967Y-17681153D01*
X12458967Y-17681153D02*
X12449444Y-17662106D01*
X12449444Y-17662106D02*
X12439920Y-17652582D01*
X12439920Y-17652582D02*
X12420872Y-17643058D01*
X12630396Y-17557344D02*
X12592301Y-17557344D01*
X12592301Y-17557344D02*
X12573253Y-17566868D01*
X12573253Y-17566868D02*
X12563729Y-17576391D01*
X12563729Y-17576391D02*
X12544682Y-17604963D01*
X12544682Y-17604963D02*
X12535158Y-17643058D01*
X12535158Y-17643058D02*
X12535158Y-17719249D01*
X12535158Y-17719249D02*
X12544682Y-17738296D01*
X12544682Y-17738296D02*
X12554206Y-17747820D01*
X12554206Y-17747820D02*
X12573253Y-17757344D01*
X12573253Y-17757344D02*
X12611348Y-17757344D01*
X12611348Y-17757344D02*
X12630396Y-17747820D01*
X12630396Y-17747820D02*
X12639920Y-17738296D01*
X12639920Y-17738296D02*
X12649444Y-17719249D01*
X12649444Y-17719249D02*
X12649444Y-17671630D01*
X12649444Y-17671630D02*
X12639920Y-17652582D01*
X12639920Y-17652582D02*
X12630396Y-17643058D01*
X12630396Y-17643058D02*
X12611348Y-17633534D01*
X12611348Y-17633534D02*
X12573253Y-17633534D01*
X12573253Y-17633534D02*
X12554206Y-17643058D01*
X12554206Y-17643058D02*
X12544682Y-17652582D01*
X12544682Y-17652582D02*
X12535158Y-17671630D01*
X12725634Y-17557344D02*
X12725634Y-17595439D01*
X12801825Y-17557344D02*
X12801825Y-17595439D01*
X13097063Y-17833534D02*
X13087539Y-17824010D01*
X13087539Y-17824010D02*
X13068491Y-17795439D01*
X13068491Y-17795439D02*
X13058968Y-17776391D01*
X13058968Y-17776391D02*
X13049444Y-17747820D01*
X13049444Y-17747820D02*
X13039920Y-17700201D01*
X13039920Y-17700201D02*
X13039920Y-17662106D01*
X13039920Y-17662106D02*
X13049444Y-17614487D01*
X13049444Y-17614487D02*
X13058968Y-17585915D01*
X13058968Y-17585915D02*
X13068491Y-17566868D01*
X13068491Y-17566868D02*
X13087539Y-17538296D01*
X13087539Y-17538296D02*
X13097063Y-17528772D01*
X13258968Y-17624010D02*
X13258968Y-17757344D01*
X13211348Y-17547820D02*
X13163729Y-17690677D01*
X13163729Y-17690677D02*
X13287539Y-17690677D01*
X13516110Y-17757344D02*
X13516110Y-17557344D01*
X13601825Y-17757344D02*
X13601825Y-17652582D01*
X13601825Y-17652582D02*
X13592301Y-17633534D01*
X13592301Y-17633534D02*
X13573253Y-17624010D01*
X13573253Y-17624010D02*
X13544682Y-17624010D01*
X13544682Y-17624010D02*
X13525634Y-17633534D01*
X13525634Y-17633534D02*
X13516110Y-17643058D01*
X13725634Y-17757344D02*
X13706587Y-17747820D01*
X13706587Y-17747820D02*
X13697063Y-17738296D01*
X13697063Y-17738296D02*
X13687539Y-17719249D01*
X13687539Y-17719249D02*
X13687539Y-17662106D01*
X13687539Y-17662106D02*
X13697063Y-17643058D01*
X13697063Y-17643058D02*
X13706587Y-17633534D01*
X13706587Y-17633534D02*
X13725634Y-17624010D01*
X13725634Y-17624010D02*
X13754206Y-17624010D01*
X13754206Y-17624010D02*
X13773253Y-17633534D01*
X13773253Y-17633534D02*
X13782777Y-17643058D01*
X13782777Y-17643058D02*
X13792301Y-17662106D01*
X13792301Y-17662106D02*
X13792301Y-17719249D01*
X13792301Y-17719249D02*
X13782777Y-17738296D01*
X13782777Y-17738296D02*
X13773253Y-17747820D01*
X13773253Y-17747820D02*
X13754206Y-17757344D01*
X13754206Y-17757344D02*
X13725634Y-17757344D01*
X13906587Y-17757344D02*
X13887539Y-17747820D01*
X13887539Y-17747820D02*
X13878015Y-17728772D01*
X13878015Y-17728772D02*
X13878015Y-17557344D01*
X14058968Y-17747820D02*
X14039920Y-17757344D01*
X14039920Y-17757344D02*
X14001825Y-17757344D01*
X14001825Y-17757344D02*
X13982777Y-17747820D01*
X13982777Y-17747820D02*
X13973253Y-17728772D01*
X13973253Y-17728772D02*
X13973253Y-17652582D01*
X13973253Y-17652582D02*
X13982777Y-17633534D01*
X13982777Y-17633534D02*
X14001825Y-17624010D01*
X14001825Y-17624010D02*
X14039920Y-17624010D01*
X14039920Y-17624010D02*
X14058968Y-17633534D01*
X14058968Y-17633534D02*
X14068491Y-17652582D01*
X14068491Y-17652582D02*
X14068491Y-17671630D01*
X14068491Y-17671630D02*
X13973253Y-17690677D01*
X14144682Y-17747820D02*
X14163730Y-17757344D01*
X14163730Y-17757344D02*
X14201825Y-17757344D01*
X14201825Y-17757344D02*
X14220872Y-17747820D01*
X14220872Y-17747820D02*
X14230396Y-17728772D01*
X14230396Y-17728772D02*
X14230396Y-17719249D01*
X14230396Y-17719249D02*
X14220872Y-17700201D01*
X14220872Y-17700201D02*
X14201825Y-17690677D01*
X14201825Y-17690677D02*
X14173253Y-17690677D01*
X14173253Y-17690677D02*
X14154206Y-17681153D01*
X14154206Y-17681153D02*
X14144682Y-17662106D01*
X14144682Y-17662106D02*
X14144682Y-17652582D01*
X14144682Y-17652582D02*
X14154206Y-17633534D01*
X14154206Y-17633534D02*
X14173253Y-17624010D01*
X14173253Y-17624010D02*
X14201825Y-17624010D01*
X14201825Y-17624010D02*
X14220872Y-17633534D01*
X14297063Y-17833534D02*
X14306587Y-17824010D01*
X14306587Y-17824010D02*
X14325634Y-17795439D01*
X14325634Y-17795439D02*
X14335158Y-17776391D01*
X14335158Y-17776391D02*
X14344682Y-17747820D01*
X14344682Y-17747820D02*
X14354206Y-17700201D01*
X14354206Y-17700201D02*
X14354206Y-17662106D01*
X14354206Y-17662106D02*
X14344682Y-17614487D01*
X14344682Y-17614487D02*
X14335158Y-17585915D01*
X14335158Y-17585915D02*
X14325634Y-17566868D01*
X14325634Y-17566868D02*
X14306587Y-17538296D01*
X14306587Y-17538296D02*
X14297063Y-17528772D01*
M02*
