%TF.GenerationSoftware,KiCad,Pcbnew,10.0.1*%
%TF.CreationDate,2026-06-20T20:49:17+02:00*%
%TF.ProjectId,sensegate_pcb,73656e73-6567-4617-9465-5f7063622e6b,rev?*%
%TF.SameCoordinates,Original*%
%TF.FileFunction,Soldermask,Top*%
%TF.FilePolarity,Negative*%
%FSLAX46Y46*%
G04 Gerber Fmt 4.6, Leading zero omitted, Abs format (unit mm)*
G04 Created by KiCad (PCBNEW 10.0.1) date 2026-06-20 20:49:17*
%MOMM*%
%LPD*%
G01*
G04 APERTURE LIST*
G04 Aperture macros list*
%AMRoundRect*
0 Rectangle with rounded corners*
0 $1 Rounding radius*
0 $2 $3 $4 $5 $6 $7 $8 $9 X,Y pos of 4 corners*
0 Add a 4 corners polygon primitive as box body*
4,1,4,$2,$3,$4,$5,$6,$7,$8,$9,$2,$3,0*
0 Add four circle primitives for the rounded corners*
1,1,$1+$1,$2,$3*
1,1,$1+$1,$4,$5*
1,1,$1+$1,$6,$7*
1,1,$1+$1,$8,$9*
0 Add four rect primitives between the rounded corners*
20,1,$1+$1,$2,$3,$4,$5,0*
20,1,$1+$1,$4,$5,$6,$7,0*
20,1,$1+$1,$6,$7,$8,$9,0*
20,1,$1+$1,$8,$9,$2,$3,0*%
G04 Aperture macros list end*
%ADD10RoundRect,0.250000X-0.450000X0.262500X-0.450000X-0.262500X0.450000X-0.262500X0.450000X0.262500X0*%
%ADD11RoundRect,0.250000X-0.625000X0.350000X-0.625000X-0.350000X0.625000X-0.350000X0.625000X0.350000X0*%
%ADD12O,1.750000X1.200000*%
%ADD13R,1.700000X1.700000*%
%ADD14C,1.700000*%
%ADD15O,1.300000X2.500000*%
%ADD16RoundRect,0.250000X0.450000X-0.262500X0.450000X0.262500X-0.450000X0.262500X-0.450000X-0.262500X0*%
%ADD17RoundRect,0.250000X-0.262500X-0.450000X0.262500X-0.450000X0.262500X0.450000X-0.262500X0.450000X0*%
%ADD18RoundRect,0.250000X0.625000X-0.350000X0.625000X0.350000X-0.625000X0.350000X-0.625000X-0.350000X0*%
%ADD19C,2.200000*%
%ADD20RoundRect,0.250000X0.475000X-0.337500X0.475000X0.337500X-0.475000X0.337500X-0.475000X-0.337500X0*%
%ADD21RoundRect,0.250000X-0.475000X0.337500X-0.475000X-0.337500X0.475000X-0.337500X0.475000X0.337500X0*%
%ADD22C,1.320800*%
%ADD23C,2.006600*%
%ADD24RoundRect,0.250000X-0.337500X-0.475000X0.337500X-0.475000X0.337500X0.475000X-0.337500X0.475000X0*%
%ADD25R,5.150000X3.170000*%
%ADD26RoundRect,0.250000X0.350000X0.625000X-0.350000X0.625000X-0.350000X-0.625000X0.350000X-0.625000X0*%
%ADD27O,1.200000X1.750000*%
%ADD28RoundRect,0.150000X0.587500X0.150000X-0.587500X0.150000X-0.587500X-0.150000X0.587500X-0.150000X0*%
%ADD29RoundRect,0.150000X0.150000X-0.587500X0.150000X0.587500X-0.150000X0.587500X-0.150000X-0.587500X0*%
%ADD30R,1.830000X2.200000*%
%ADD31RoundRect,0.250000X0.262500X0.450000X-0.262500X0.450000X-0.262500X-0.450000X0.262500X-0.450000X0*%
%ADD32C,1.440000*%
G04 APERTURE END LIST*
D10*
X106985000Y-100952500D03*
X106985000Y-102777500D03*
D11*
X156100000Y-93270000D03*
D12*
X156100000Y-95270000D03*
D13*
X113220000Y-53110000D03*
D14*
X115760000Y-53110000D03*
X118300000Y-53110000D03*
X120840000Y-53110000D03*
X123380000Y-53110000D03*
X125920000Y-53110000D03*
X128460000Y-53110000D03*
X131000000Y-53110000D03*
X133540000Y-53110000D03*
X136080000Y-53110000D03*
X138620000Y-53110000D03*
X141160000Y-53110000D03*
D15*
X109320000Y-57230000D03*
X105320000Y-57230000D03*
X130680000Y-89990000D03*
X107320000Y-57230000D03*
X99610000Y-89910000D03*
X103610000Y-89910000D03*
X115610000Y-89910000D03*
X119610000Y-89910000D03*
X113610000Y-89910000D03*
X117610000Y-89910000D03*
X101610000Y-89910000D03*
X105610000Y-89910000D03*
X107610000Y-89910000D03*
X111610000Y-89910000D03*
X121610000Y-89910000D03*
X109610000Y-89910000D03*
X129750000Y-57260000D03*
X127750000Y-57260000D03*
X128680000Y-89990000D03*
X126680000Y-89990000D03*
X134680000Y-89990000D03*
X132680000Y-89990000D03*
X103320000Y-57230000D03*
X124680000Y-89990000D03*
D16*
X135690000Y-104032500D03*
X135690000Y-102207500D03*
D17*
X99967500Y-93270000D03*
X101792500Y-93270000D03*
D10*
X113300000Y-100910000D03*
X113300000Y-102735000D03*
D18*
X123860000Y-112530000D03*
D12*
X123860000Y-110530000D03*
X123860000Y-108530000D03*
X123860000Y-106530000D03*
D16*
X110855000Y-102727500D03*
X110855000Y-100902500D03*
D19*
X114680000Y-136880000D03*
D16*
X97480000Y-95062500D03*
X97480000Y-93237500D03*
X129180000Y-109142500D03*
X129180000Y-107317500D03*
X119645000Y-102607500D03*
X119645000Y-100782500D03*
D10*
X104585000Y-100942500D03*
X104585000Y-102767500D03*
D17*
X137697500Y-98880000D03*
X139522500Y-98880000D03*
D20*
X129480000Y-104297500D03*
X129480000Y-102222500D03*
D16*
X125645000Y-102567500D03*
X125645000Y-100742500D03*
D21*
X98000000Y-119132500D03*
X98000000Y-121207500D03*
D19*
X140850000Y-145570000D03*
D18*
X99045000Y-112385000D03*
D12*
X99045000Y-110385000D03*
X99045000Y-108385000D03*
X99045000Y-106385000D03*
D22*
X151490000Y-101220000D03*
X153490000Y-101220000D03*
X155490001Y-101220000D03*
D23*
X149390001Y-101220000D03*
X157589999Y-101220000D03*
D24*
X142792500Y-95250000D03*
X144867500Y-95250000D03*
D18*
X105185000Y-112395000D03*
D12*
X105185000Y-110395000D03*
X105185000Y-108395000D03*
X105185000Y-106395000D03*
D13*
X138000000Y-49070000D03*
D14*
X135460000Y-49070000D03*
X132920000Y-49070000D03*
X130380000Y-49070000D03*
X127840000Y-49070000D03*
X125300000Y-49070000D03*
X122760000Y-49070000D03*
X120220000Y-49070000D03*
X117680000Y-49070000D03*
X115140000Y-49070000D03*
X112600000Y-49070000D03*
X110060000Y-49070000D03*
D25*
X102373647Y-121343682D03*
X102373647Y-129209580D03*
X134298647Y-121334580D03*
X134298647Y-129209580D03*
D18*
X117855000Y-112505000D03*
D12*
X117855000Y-110505000D03*
X117855000Y-108505000D03*
X117855000Y-106505000D03*
D10*
X122985000Y-100732500D03*
X122985000Y-102557500D03*
D26*
X144290000Y-104660000D03*
D27*
X142290000Y-104660000D03*
D10*
X116965000Y-100742500D03*
X116965000Y-102567500D03*
D19*
X114680000Y-145570000D03*
D28*
X137517500Y-110070000D03*
X137517500Y-108170000D03*
X135642500Y-109120000D03*
D18*
X111575000Y-112505000D03*
D12*
X111575000Y-110505000D03*
X111575000Y-108505000D03*
X111575000Y-106505000D03*
D29*
X131630000Y-109117500D03*
X133530000Y-109117500D03*
X132580000Y-107242500D03*
D30*
X157070000Y-111370000D03*
X154430000Y-111380000D03*
X151750000Y-111390000D03*
X149070000Y-111390000D03*
X146370000Y-111390000D03*
X143700000Y-111390000D03*
D19*
X140850000Y-136870000D03*
D31*
X144512500Y-98860000D03*
X142687500Y-98860000D03*
D32*
X100490000Y-102360000D03*
X97950000Y-99820000D03*
X100490000Y-97280000D03*
M02*
