%TF.GenerationSoftware,KiCad,Pcbnew,10.0.1*%
%TF.CreationDate,2026-06-16T19:36:09+02:00*%
%TF.ProjectId,sensegate_pcb,73656e73-6567-4617-9465-5f7063622e6b,rev?*%
%TF.SameCoordinates,Original*%
%TF.FileFunction,Legend,Top*%
%TF.FilePolarity,Positive*%
%FSLAX46Y46*%
G04 Gerber Fmt 4.6, Leading zero omitted, Abs format (unit mm)*
G04 Created by KiCad (PCBNEW 10.0.1) date 2026-06-16 19:36:09*
%MOMM*%
%LPD*%
G01*
G04 APERTURE LIST*
%ADD10C,0.187500*%
%ADD11C,0.150000*%
%ADD12C,0.100000*%
%ADD13C,0.120000*%
%ADD14C,0.152400*%
G04 APERTURE END LIST*
D10*
G36*
X119824028Y-74223653D02*
G01*
X119788530Y-74219013D01*
X119763131Y-74206436D01*
X119745168Y-74186284D01*
X119732541Y-74152629D01*
X119718515Y-74077107D01*
X119481844Y-74148731D01*
X119400283Y-74189134D01*
X119350826Y-74229204D01*
X119324493Y-74269085D01*
X119315881Y-74310481D01*
X119376331Y-74326784D01*
X119533037Y-74361834D01*
X119646819Y-74400911D01*
X119726758Y-74442281D01*
X119800516Y-74502657D01*
X119851710Y-74573041D01*
X119882847Y-74655314D01*
X119893729Y-74752866D01*
X119884401Y-74832219D01*
X119857677Y-74898852D01*
X119813501Y-74955683D01*
X119749289Y-75004192D01*
X119666549Y-75041346D01*
X119566650Y-75065102D01*
X119445940Y-75073618D01*
X119314319Y-75062355D01*
X119189851Y-75028921D01*
X119113090Y-74993093D01*
X119065922Y-74954977D01*
X119040345Y-74914667D01*
X119032040Y-74870377D01*
X119039913Y-74832736D01*
X119064280Y-74799303D01*
X119099151Y-74776268D01*
X119137553Y-74768803D01*
X119169593Y-74778529D01*
X119219527Y-74817621D01*
X119252846Y-74836514D01*
X119330260Y-74856272D01*
X119446031Y-74868454D01*
X119529197Y-74863022D01*
X119597706Y-74847937D01*
X119654825Y-74821445D01*
X119683786Y-74790454D01*
X119692961Y-74753782D01*
X119685881Y-74703967D01*
X119665199Y-74661497D01*
X119629755Y-74624402D01*
X119575954Y-74592101D01*
X119498238Y-74565471D01*
X119391718Y-74541840D01*
X119266516Y-74506320D01*
X119198003Y-74472048D01*
X119152493Y-74428016D01*
X119124877Y-74371517D01*
X119115021Y-74298483D01*
X119123437Y-74215989D01*
X119147428Y-74146309D01*
X119186488Y-74086755D01*
X119241962Y-74035658D01*
X119316888Y-73992568D01*
X119388082Y-73965094D01*
X119513534Y-73926348D01*
X119638701Y-73887670D01*
X119707249Y-73861135D01*
X119750695Y-73847337D01*
X119798474Y-73842634D01*
X119838978Y-73849974D01*
X119870648Y-73871302D01*
X119891555Y-73903665D01*
X119898858Y-73946040D01*
X119911680Y-74033143D01*
X119924503Y-74120246D01*
X119917201Y-74162622D01*
X119896293Y-74194985D01*
X119864611Y-74216309D01*
X119824028Y-74223653D01*
G37*
G36*
X120717153Y-73949421D02*
G01*
X120808484Y-73969111D01*
X120882454Y-73999438D01*
X120941488Y-74040517D01*
X120981814Y-74089218D01*
X121006127Y-74146791D01*
X121014620Y-74215959D01*
X121008132Y-74263279D01*
X120988259Y-74309230D01*
X120953028Y-74355142D01*
X120898849Y-74401797D01*
X120832381Y-74441868D01*
X120681595Y-74517019D01*
X120290135Y-74703315D01*
X120332098Y-74755960D01*
X120379569Y-74798335D01*
X120433017Y-74831359D01*
X120491550Y-74854713D01*
X120557567Y-74869246D01*
X120632411Y-74874316D01*
X120705580Y-74868231D01*
X120798374Y-74847663D01*
X120876875Y-74819397D01*
X120925982Y-74789640D01*
X120954078Y-74759094D01*
X120980335Y-74726303D01*
X121004879Y-74709478D01*
X121028908Y-74704323D01*
X121062504Y-74710993D01*
X121092930Y-74731617D01*
X121114241Y-74761455D01*
X121121140Y-74794998D01*
X121111800Y-74844994D01*
X121082413Y-74893370D01*
X121027474Y-74942160D01*
X120937684Y-74991827D01*
X120831491Y-75031541D01*
X120730081Y-75054450D01*
X120632319Y-75061894D01*
X120516722Y-75053888D01*
X120417337Y-75031184D01*
X120331574Y-74995083D01*
X120257345Y-74945940D01*
X120189520Y-74876382D01*
X120141110Y-74795074D01*
X120111105Y-74699674D01*
X120100541Y-74586720D01*
X120105322Y-74513996D01*
X120272732Y-74513996D01*
X120587348Y-74363787D01*
X120757595Y-74272250D01*
X120851680Y-74206342D01*
X120788228Y-74162167D01*
X120707552Y-74134151D01*
X120604750Y-74124002D01*
X120525841Y-74134877D01*
X120457448Y-74166760D01*
X120396747Y-74221271D01*
X120349617Y-74290451D01*
X120307759Y-74385820D01*
X120272732Y-74513996D01*
X120105322Y-74513996D01*
X120109286Y-74453697D01*
X120134350Y-74336258D01*
X120174583Y-74232092D01*
X120229685Y-74139297D01*
X120291217Y-74066798D01*
X120358459Y-74012305D01*
X120432138Y-73973793D01*
X120513609Y-73950358D01*
X120604750Y-73942285D01*
X120717153Y-73949421D01*
G37*
G36*
X122090174Y-75085341D02*
G01*
X122050371Y-75079125D01*
X122022030Y-75061975D01*
X122002167Y-75033293D01*
X121990798Y-74988988D01*
X121962130Y-74764590D01*
X121951208Y-74646325D01*
X121947750Y-74540100D01*
X121951322Y-74442739D01*
X121954894Y-74345377D01*
X121946629Y-74227113D01*
X121927424Y-74163260D01*
X121902803Y-74133110D01*
X121872920Y-74124002D01*
X121819968Y-74131409D01*
X121766736Y-74154442D01*
X121711649Y-74195873D01*
X121653651Y-74260289D01*
X121597443Y-74346570D01*
X121548034Y-74450266D01*
X121506098Y-74573989D01*
X121496847Y-74674464D01*
X121490710Y-74773840D01*
X121496847Y-74866164D01*
X121502984Y-74958396D01*
X121495681Y-75000771D01*
X121474774Y-75033135D01*
X121443096Y-75054534D01*
X121402600Y-75061894D01*
X121361290Y-75054499D01*
X121329785Y-75033226D01*
X121309298Y-75000921D01*
X121302124Y-74958579D01*
X121295438Y-74866439D01*
X121288844Y-74774390D01*
X121303681Y-74482214D01*
X121318611Y-74190130D01*
X121314947Y-74092861D01*
X121311375Y-73995683D01*
X121318837Y-73955224D01*
X121340593Y-73923509D01*
X121372990Y-73902528D01*
X121412858Y-73895390D01*
X121453226Y-73903043D01*
X121482930Y-73925005D01*
X121504452Y-73964108D01*
X121516264Y-74028014D01*
X121519378Y-74147449D01*
X121596733Y-74056753D01*
X121669757Y-73992670D01*
X121739285Y-73950463D01*
X121806503Y-73926575D01*
X121872920Y-73918838D01*
X121950749Y-73928399D01*
X122012617Y-73955277D01*
X122062296Y-73999202D01*
X122101440Y-74063094D01*
X122124270Y-74129056D01*
X122141179Y-74221487D01*
X122149617Y-74347575D01*
X122149617Y-74450890D01*
X122148609Y-74546053D01*
X122153463Y-74636880D01*
X122170591Y-74765597D01*
X122187806Y-74894172D01*
X122192664Y-74984042D01*
X122185158Y-75025369D01*
X122163447Y-75057223D01*
X122130910Y-75078161D01*
X122090174Y-75085341D01*
G37*
G36*
X123094928Y-74223653D02*
G01*
X123059430Y-74219013D01*
X123034031Y-74206436D01*
X123016068Y-74186284D01*
X123003441Y-74152629D01*
X122989415Y-74077107D01*
X122752744Y-74148731D01*
X122671183Y-74189134D01*
X122621726Y-74229204D01*
X122595394Y-74269085D01*
X122586781Y-74310481D01*
X122647231Y-74326784D01*
X122803938Y-74361834D01*
X122917719Y-74400911D01*
X122997658Y-74442281D01*
X123071416Y-74502657D01*
X123122610Y-74573041D01*
X123153748Y-74655314D01*
X123164629Y-74752866D01*
X123155301Y-74832219D01*
X123128578Y-74898852D01*
X123084401Y-74955683D01*
X123020190Y-75004192D01*
X122937450Y-75041346D01*
X122837550Y-75065102D01*
X122716840Y-75073618D01*
X122585219Y-75062355D01*
X122460751Y-75028921D01*
X122383991Y-74993093D01*
X122336823Y-74954977D01*
X122311246Y-74914667D01*
X122302940Y-74870377D01*
X122310813Y-74832736D01*
X122335180Y-74799303D01*
X122370051Y-74776268D01*
X122408453Y-74768803D01*
X122440493Y-74778529D01*
X122490427Y-74817621D01*
X122523747Y-74836514D01*
X122601161Y-74856272D01*
X122716932Y-74868454D01*
X122800097Y-74863022D01*
X122868606Y-74847937D01*
X122925725Y-74821445D01*
X122954686Y-74790454D01*
X122963861Y-74753782D01*
X122956782Y-74703967D01*
X122936099Y-74661497D01*
X122900655Y-74624402D01*
X122846855Y-74592101D01*
X122769139Y-74565471D01*
X122662618Y-74541840D01*
X122537416Y-74506320D01*
X122468903Y-74472048D01*
X122423393Y-74428016D01*
X122395777Y-74371517D01*
X122385922Y-74298483D01*
X122394337Y-74215989D01*
X122418328Y-74146309D01*
X122457388Y-74086755D01*
X122512862Y-74035658D01*
X122587788Y-73992568D01*
X122658982Y-73965094D01*
X122784434Y-73926348D01*
X122909601Y-73887670D01*
X122978149Y-73861135D01*
X123021595Y-73847337D01*
X123069374Y-73842634D01*
X123109878Y-73849974D01*
X123141548Y-73871302D01*
X123162455Y-73903665D01*
X123169758Y-73946040D01*
X123182581Y-74033143D01*
X123195403Y-74120246D01*
X123188101Y-74162622D01*
X123167193Y-74194985D01*
X123135511Y-74216309D01*
X123094928Y-74223653D01*
G37*
G36*
X123988054Y-73949421D02*
G01*
X124079385Y-73969111D01*
X124153354Y-73999438D01*
X124212388Y-74040517D01*
X124252715Y-74089218D01*
X124277028Y-74146791D01*
X124285520Y-74215959D01*
X124279032Y-74263279D01*
X124259159Y-74309230D01*
X124223928Y-74355142D01*
X124169749Y-74401797D01*
X124103281Y-74441868D01*
X123952495Y-74517019D01*
X123561035Y-74703315D01*
X123602998Y-74755960D01*
X123650469Y-74798335D01*
X123703917Y-74831359D01*
X123762451Y-74854713D01*
X123828467Y-74869246D01*
X123903311Y-74874316D01*
X123976481Y-74868231D01*
X124069274Y-74847663D01*
X124147775Y-74819397D01*
X124196882Y-74789640D01*
X124224979Y-74759094D01*
X124251235Y-74726303D01*
X124275780Y-74709478D01*
X124299808Y-74704323D01*
X124333405Y-74710993D01*
X124363831Y-74731617D01*
X124385141Y-74761455D01*
X124392041Y-74794998D01*
X124382701Y-74844994D01*
X124353314Y-74893370D01*
X124298374Y-74942160D01*
X124208584Y-74991827D01*
X124102392Y-75031541D01*
X124000981Y-75054450D01*
X123903219Y-75061894D01*
X123787622Y-75053888D01*
X123688237Y-75031184D01*
X123602474Y-74995083D01*
X123528245Y-74945940D01*
X123460420Y-74876382D01*
X123412010Y-74795074D01*
X123382006Y-74699674D01*
X123371441Y-74586720D01*
X123376222Y-74513996D01*
X123543633Y-74513996D01*
X123858248Y-74363787D01*
X124028495Y-74272250D01*
X124122580Y-74206342D01*
X124059128Y-74162167D01*
X123978453Y-74134151D01*
X123875650Y-74124002D01*
X123796741Y-74134877D01*
X123728348Y-74166760D01*
X123667647Y-74221271D01*
X123620517Y-74290451D01*
X123578659Y-74385820D01*
X123543633Y-74513996D01*
X123376222Y-74513996D01*
X123380187Y-74453697D01*
X123405250Y-74336258D01*
X123445483Y-74232092D01*
X123500585Y-74139297D01*
X123562117Y-74066798D01*
X123629360Y-74012305D01*
X123703038Y-73973793D01*
X123784509Y-73950358D01*
X123875650Y-73942285D01*
X123988054Y-73949421D01*
G37*
G36*
X125876457Y-75102927D02*
G01*
X125838186Y-75097139D01*
X125810429Y-75081126D01*
X125790466Y-75054469D01*
X125778088Y-75013717D01*
X125741177Y-74695896D01*
X125706372Y-74378075D01*
X125692536Y-74308189D01*
X125671476Y-74239681D01*
X125643072Y-74181281D01*
X125618310Y-74154768D01*
X125595730Y-74147449D01*
X125551679Y-74159019D01*
X125454314Y-74211563D01*
X125365772Y-74270046D01*
X125325170Y-74306268D01*
X125330300Y-74497693D01*
X125360983Y-74769535D01*
X125376132Y-74923583D01*
X125380491Y-75035241D01*
X125373254Y-75076571D01*
X125352281Y-75109064D01*
X125320581Y-75130676D01*
X125280108Y-75138098D01*
X125239625Y-75130659D01*
X125207842Y-75108972D01*
X125186945Y-75076386D01*
X125179724Y-75034875D01*
X125174438Y-74896534D01*
X125154628Y-74669610D01*
X125134818Y-74442685D01*
X125129532Y-74304344D01*
X125120848Y-74202797D01*
X125098757Y-74135725D01*
X125029181Y-74176937D01*
X124953311Y-74242520D01*
X124832411Y-74377984D01*
X124780112Y-74442647D01*
X124768846Y-74624364D01*
X124757581Y-74801867D01*
X124767289Y-74888146D01*
X124776998Y-74968196D01*
X124769210Y-75006871D01*
X124745765Y-75038996D01*
X124711785Y-75060584D01*
X124672493Y-75067756D01*
X124636385Y-75060101D01*
X124606797Y-75036888D01*
X124582138Y-74993358D01*
X124564031Y-74920089D01*
X124556721Y-74804340D01*
X124567987Y-74620883D01*
X124579253Y-74437426D01*
X124569453Y-74274486D01*
X124559744Y-74110446D01*
X124566291Y-74008561D01*
X124582534Y-73943899D01*
X124604723Y-73905327D01*
X124631470Y-73884651D01*
X124664249Y-73877805D01*
X124701688Y-73885934D01*
X124737522Y-73911877D01*
X124762852Y-73948406D01*
X124770861Y-73986890D01*
X124765732Y-74047431D01*
X124760603Y-74109897D01*
X124762618Y-74217424D01*
X124802956Y-74147816D01*
X124854860Y-74081867D01*
X124919422Y-74019221D01*
X124992260Y-73965471D01*
X125049653Y-73938407D01*
X125095643Y-73930561D01*
X125170534Y-73940854D01*
X125230360Y-73970096D01*
X125278819Y-74018921D01*
X125317019Y-74091853D01*
X125379399Y-74025829D01*
X125451200Y-73979654D01*
X125533096Y-73951978D01*
X125629528Y-73942285D01*
X125693884Y-73949739D01*
X125747606Y-73971027D01*
X125793122Y-74006090D01*
X125831681Y-74056901D01*
X125863176Y-74127207D01*
X125875495Y-74189203D01*
X125905217Y-74415811D01*
X125934283Y-74622001D01*
X125978948Y-75004283D01*
X125973628Y-75042219D01*
X125951287Y-75074167D01*
X125917407Y-75095654D01*
X125876457Y-75102927D01*
G37*
G36*
X126784667Y-73952934D02*
G01*
X126893759Y-73988355D01*
X126962661Y-74023517D01*
X127004239Y-74057928D01*
X127026165Y-74091810D01*
X127033069Y-74126658D01*
X127028055Y-74152562D01*
X127012644Y-74175842D01*
X126996707Y-74303978D01*
X126990113Y-74532406D01*
X126994520Y-74652796D01*
X127007515Y-74733174D01*
X127024557Y-74788822D01*
X127072087Y-74913517D01*
X127095626Y-74967830D01*
X127101762Y-74985232D01*
X127094511Y-75022799D01*
X127073094Y-75052827D01*
X127041978Y-75072871D01*
X127006508Y-75079480D01*
X126984620Y-75071759D01*
X126935799Y-75035424D01*
X126893515Y-74994390D01*
X126867106Y-74962243D01*
X126770826Y-75009828D01*
X126693907Y-75041103D01*
X126621532Y-75061878D01*
X126568977Y-75067756D01*
X126449307Y-75057952D01*
X126354280Y-75030966D01*
X126278910Y-74989055D01*
X126219557Y-74932476D01*
X126177643Y-74867275D01*
X126145274Y-74783585D01*
X126123903Y-74677163D01*
X126116530Y-74550999D01*
X126317926Y-74550999D01*
X126325777Y-74661701D01*
X126346573Y-74743242D01*
X126377369Y-74802325D01*
X126422682Y-74848181D01*
X126480745Y-74876076D01*
X126555696Y-74886039D01*
X126649172Y-74876554D01*
X126722667Y-74850319D01*
X126762169Y-74824779D01*
X126826165Y-74772650D01*
X126800227Y-74518794D01*
X126793375Y-74367084D01*
X126798962Y-74271646D01*
X126815907Y-74161829D01*
X126750785Y-74133252D01*
X126707280Y-74124002D01*
X126631006Y-74131988D01*
X126560893Y-74155582D01*
X126495300Y-74195340D01*
X126433148Y-74253237D01*
X126382161Y-74321241D01*
X126346533Y-74392807D01*
X126325172Y-74468944D01*
X126317926Y-74550999D01*
X126116530Y-74550999D01*
X126116059Y-74542939D01*
X126126962Y-74422100D01*
X126158816Y-74312538D01*
X126211535Y-74211928D01*
X126286602Y-74118598D01*
X126377643Y-74040341D01*
X126474709Y-73985957D01*
X126579395Y-73953376D01*
X126693999Y-73942285D01*
X126784667Y-73952934D01*
G37*
G36*
X127965833Y-74142045D02*
G01*
X127915091Y-74140030D01*
X127864441Y-74137923D01*
X127725040Y-74153311D01*
X127744549Y-74758178D01*
X127745556Y-74803149D01*
X127746564Y-74855356D01*
X127741578Y-74952071D01*
X127725848Y-75014102D01*
X127703199Y-75051771D01*
X127674837Y-75072472D01*
X127638944Y-75079480D01*
X127600610Y-75072789D01*
X127567778Y-75052827D01*
X127545096Y-75022801D01*
X127537553Y-74986148D01*
X127540575Y-74869187D01*
X127543689Y-74752316D01*
X127523265Y-74153311D01*
X127295752Y-74136000D01*
X127254311Y-74124360D01*
X127227082Y-74104304D01*
X127210564Y-74075524D01*
X127204528Y-74034883D01*
X127211626Y-73993337D01*
X127232188Y-73960420D01*
X127263423Y-73938278D01*
X127302896Y-73930744D01*
X127518135Y-73948147D01*
X127513464Y-73809203D01*
X127508885Y-73683449D01*
X127516397Y-73644163D01*
X127538560Y-73612740D01*
X127571407Y-73591813D01*
X127611375Y-73584713D01*
X127649890Y-73592738D01*
X127680039Y-73616624D01*
X127703684Y-73660797D01*
X127718903Y-73734740D01*
X127722017Y-73825598D01*
X127720002Y-73884857D01*
X127718903Y-73948147D01*
X127864441Y-73931752D01*
X127961875Y-73935081D01*
X128003751Y-73942010D01*
X128038182Y-73961544D01*
X128058737Y-73992331D01*
X128066308Y-74038456D01*
X128059068Y-74080070D01*
X128038098Y-74112827D01*
X128006370Y-74134579D01*
X127965833Y-74142045D01*
G37*
G36*
X128832855Y-73949421D02*
G01*
X128924186Y-73969111D01*
X128998155Y-73999438D01*
X129057190Y-74040517D01*
X129097516Y-74089218D01*
X129121829Y-74146791D01*
X129130321Y-74215959D01*
X129123833Y-74263279D01*
X129103961Y-74309230D01*
X129068729Y-74355142D01*
X129014550Y-74401797D01*
X128948082Y-74441868D01*
X128797296Y-74517019D01*
X128405836Y-74703315D01*
X128447799Y-74755960D01*
X128495271Y-74798335D01*
X128548718Y-74831359D01*
X128607252Y-74854713D01*
X128673268Y-74869246D01*
X128748112Y-74874316D01*
X128821282Y-74868231D01*
X128914075Y-74847663D01*
X128992576Y-74819397D01*
X129041683Y-74789640D01*
X129069780Y-74759094D01*
X129096036Y-74726303D01*
X129120581Y-74709478D01*
X129144610Y-74704323D01*
X129178206Y-74710993D01*
X129208632Y-74731617D01*
X129229942Y-74761455D01*
X129236842Y-74794998D01*
X129227502Y-74844994D01*
X129198115Y-74893370D01*
X129143175Y-74942160D01*
X129053385Y-74991827D01*
X128947193Y-75031541D01*
X128845782Y-75054450D01*
X128748020Y-75061894D01*
X128632423Y-75053888D01*
X128533038Y-75031184D01*
X128447275Y-74995083D01*
X128373046Y-74945940D01*
X128305221Y-74876382D01*
X128256811Y-74795074D01*
X128226807Y-74699674D01*
X128216243Y-74586720D01*
X128221024Y-74513996D01*
X128388434Y-74513996D01*
X128703049Y-74363787D01*
X128873296Y-74272250D01*
X128967381Y-74206342D01*
X128903929Y-74162167D01*
X128823254Y-74134151D01*
X128720451Y-74124002D01*
X128641543Y-74134877D01*
X128573149Y-74166760D01*
X128512448Y-74221271D01*
X128465318Y-74290451D01*
X128423460Y-74385820D01*
X128388434Y-74513996D01*
X128221024Y-74513996D01*
X128224988Y-74453697D01*
X128250051Y-74336258D01*
X128290284Y-74232092D01*
X128345386Y-74139297D01*
X128406918Y-74066798D01*
X128474161Y-74012305D01*
X128547839Y-73973793D01*
X128629310Y-73950358D01*
X128720451Y-73942285D01*
X128832855Y-73949421D01*
G37*
G36*
X130662707Y-73972420D02*
G01*
X130731608Y-73990370D01*
X130789385Y-74021847D01*
X130829977Y-74064284D01*
X130878947Y-74073446D01*
X130911466Y-74095509D01*
X130931864Y-74131272D01*
X130939611Y-74186375D01*
X130934933Y-74265004D01*
X130918087Y-74381372D01*
X130890427Y-74574263D01*
X130866888Y-74919104D01*
X130852130Y-75114737D01*
X130824848Y-75254602D01*
X130785615Y-75360691D01*
X130736201Y-75440836D01*
X130677295Y-75499883D01*
X130614340Y-75539037D01*
X130536290Y-75568866D01*
X130440004Y-75588282D01*
X130321738Y-75595321D01*
X130190933Y-75590257D01*
X130093310Y-75576911D01*
X130030071Y-75557859D01*
X129991802Y-75533593D01*
X129971050Y-75505072D01*
X129964166Y-75470757D01*
X129970316Y-75429250D01*
X129986595Y-75402393D01*
X130012933Y-75385967D01*
X130053285Y-75379807D01*
X130176291Y-75397667D01*
X130264875Y-75410448D01*
X130366892Y-75413604D01*
X130441520Y-75404183D01*
X130503955Y-75379818D01*
X130556827Y-75340731D01*
X130601598Y-75285153D01*
X130638368Y-75209539D01*
X130663376Y-75118082D01*
X130681958Y-74984936D01*
X130690667Y-74798112D01*
X130649138Y-74875222D01*
X130605183Y-74934333D01*
X130558959Y-74978363D01*
X130505535Y-75011794D01*
X130447799Y-75031687D01*
X130384295Y-75038447D01*
X130293717Y-75030141D01*
X130214596Y-75006233D01*
X130144706Y-74967204D01*
X130082502Y-74912143D01*
X130032571Y-74845883D01*
X129996470Y-74770424D01*
X129974036Y-74684032D01*
X129966181Y-74584430D01*
X129967613Y-74566295D01*
X130165026Y-74566295D01*
X130172308Y-74653445D01*
X130191818Y-74718406D01*
X130221354Y-74766330D01*
X130263305Y-74802399D01*
X130318287Y-74825048D01*
X130390431Y-74833283D01*
X130455335Y-74822801D01*
X130521461Y-74789695D01*
X130591199Y-74728686D01*
X130643928Y-74660959D01*
X130676267Y-74597849D01*
X130691674Y-74537902D01*
X130711885Y-74424372D01*
X130737745Y-74226858D01*
X130695629Y-74201933D01*
X130652748Y-74184726D01*
X130608031Y-74174372D01*
X130561523Y-74170896D01*
X130465488Y-74179162D01*
X130385103Y-74202476D01*
X130317408Y-74239675D01*
X130260280Y-74291064D01*
X130219318Y-74347645D01*
X130189743Y-74411420D01*
X130171418Y-74483725D01*
X130165026Y-74566295D01*
X129967613Y-74566295D01*
X129976977Y-74447740D01*
X130007709Y-74330108D01*
X130056999Y-74228223D01*
X130125000Y-74139572D01*
X130193732Y-74078182D01*
X130271296Y-74030250D01*
X130358944Y-73995229D01*
X130458401Y-73973375D01*
X130571782Y-73965732D01*
X130662707Y-73972420D01*
G37*
G36*
X131698955Y-73961688D02*
G01*
X131767793Y-73983816D01*
X131828543Y-74020098D01*
X131882580Y-74071660D01*
X131930443Y-74140946D01*
X131975583Y-74244902D01*
X132003099Y-74365045D01*
X132011410Y-74504654D01*
X132002311Y-74617208D01*
X131979099Y-74718164D01*
X131942494Y-74809232D01*
X131892525Y-74891810D01*
X131835115Y-74958772D01*
X131772613Y-75009078D01*
X131704358Y-75044599D01*
X131629123Y-75066189D01*
X131545211Y-75073618D01*
X131461778Y-75065631D01*
X131385637Y-75042185D01*
X131315130Y-75003100D01*
X131249098Y-74946947D01*
X131189545Y-74872642D01*
X131145294Y-74786284D01*
X131116247Y-74685682D01*
X131103559Y-74567943D01*
X131103572Y-74567669D01*
X131305426Y-74567669D01*
X131315323Y-74663716D01*
X131342774Y-74739546D01*
X131386393Y-74799669D01*
X131434858Y-74838353D01*
X131487224Y-74860867D01*
X131545211Y-74868454D01*
X131612998Y-74859764D01*
X131673434Y-74834139D01*
X131728577Y-74790418D01*
X131776502Y-74728051D01*
X131807477Y-74651634D01*
X131820809Y-74557411D01*
X131816682Y-74413132D01*
X131796224Y-74311486D01*
X131764144Y-74241894D01*
X131722718Y-74196085D01*
X131671346Y-74168905D01*
X131606669Y-74159173D01*
X131535725Y-74167684D01*
X131474379Y-74193514D01*
X131420179Y-74237460D01*
X131372013Y-74302879D01*
X131335472Y-74382549D01*
X131313126Y-74470244D01*
X131305426Y-74567669D01*
X131103572Y-74567669D01*
X131108789Y-74453751D01*
X131130188Y-74348954D01*
X131167259Y-74251934D01*
X131220338Y-74161371D01*
X131283309Y-74085665D01*
X131353523Y-74028424D01*
X131431856Y-73987674D01*
X131519922Y-73962680D01*
X131619950Y-73954009D01*
X131698955Y-73961688D01*
G37*
G36*
X132827691Y-73949421D02*
G01*
X132919022Y-73969111D01*
X132992991Y-73999438D01*
X133052026Y-74040517D01*
X133092352Y-74089218D01*
X133116665Y-74146791D01*
X133125157Y-74215959D01*
X133118669Y-74263279D01*
X133098797Y-74309230D01*
X133063565Y-74355142D01*
X133009386Y-74401797D01*
X132942918Y-74441868D01*
X132792132Y-74517019D01*
X132400672Y-74703315D01*
X132442635Y-74755960D01*
X132490107Y-74798335D01*
X132543554Y-74831359D01*
X132602088Y-74854713D01*
X132668104Y-74869246D01*
X132742948Y-74874316D01*
X132816118Y-74868231D01*
X132908911Y-74847663D01*
X132987412Y-74819397D01*
X133036519Y-74789640D01*
X133064616Y-74759094D01*
X133090872Y-74726303D01*
X133115417Y-74709478D01*
X133139446Y-74704323D01*
X133173042Y-74710993D01*
X133203468Y-74731617D01*
X133224778Y-74761455D01*
X133231678Y-74794998D01*
X133222338Y-74844994D01*
X133192951Y-74893370D01*
X133138011Y-74942160D01*
X133048221Y-74991827D01*
X132942029Y-75031541D01*
X132840618Y-75054450D01*
X132742856Y-75061894D01*
X132627259Y-75053888D01*
X132527874Y-75031184D01*
X132442111Y-74995083D01*
X132367882Y-74945940D01*
X132300057Y-74876382D01*
X132251647Y-74795074D01*
X132221643Y-74699674D01*
X132211079Y-74586720D01*
X132215860Y-74513996D01*
X132383270Y-74513996D01*
X132697885Y-74363787D01*
X132868132Y-74272250D01*
X132962217Y-74206342D01*
X132898765Y-74162167D01*
X132818090Y-74134151D01*
X132715287Y-74124002D01*
X132636379Y-74134877D01*
X132567985Y-74166760D01*
X132507284Y-74221271D01*
X132460154Y-74290451D01*
X132418296Y-74385820D01*
X132383270Y-74513996D01*
X132215860Y-74513996D01*
X132219824Y-74453697D01*
X132244887Y-74336258D01*
X132285120Y-74232092D01*
X132340222Y-74139297D01*
X132401754Y-74066798D01*
X132468997Y-74012305D01*
X132542675Y-73973793D01*
X132624146Y-73950358D01*
X132715287Y-73942285D01*
X132827691Y-73949421D01*
G37*
G36*
X134106372Y-74223653D02*
G01*
X134070874Y-74219013D01*
X134045476Y-74206436D01*
X134027513Y-74186284D01*
X134014886Y-74152629D01*
X134000860Y-74077107D01*
X133764188Y-74148731D01*
X133682627Y-74189134D01*
X133633171Y-74229204D01*
X133606838Y-74269085D01*
X133598225Y-74310481D01*
X133658675Y-74326784D01*
X133815382Y-74361834D01*
X133929164Y-74400911D01*
X134009103Y-74442281D01*
X134082861Y-74502657D01*
X134134055Y-74573041D01*
X134165192Y-74655314D01*
X134176073Y-74752866D01*
X134166746Y-74832219D01*
X134140022Y-74898852D01*
X134095846Y-74955683D01*
X134031634Y-75004192D01*
X133948894Y-75041346D01*
X133848995Y-75065102D01*
X133728285Y-75073618D01*
X133596664Y-75062355D01*
X133472196Y-75028921D01*
X133395435Y-74993093D01*
X133348267Y-74954977D01*
X133322690Y-74914667D01*
X133314385Y-74870377D01*
X133322258Y-74832736D01*
X133346625Y-74799303D01*
X133381496Y-74776268D01*
X133419897Y-74768803D01*
X133451938Y-74778529D01*
X133501871Y-74817621D01*
X133535191Y-74836514D01*
X133612605Y-74856272D01*
X133728376Y-74868454D01*
X133811542Y-74863022D01*
X133880051Y-74847937D01*
X133937170Y-74821445D01*
X133966130Y-74790454D01*
X133975306Y-74753782D01*
X133968226Y-74703967D01*
X133947544Y-74661497D01*
X133912100Y-74624402D01*
X133858299Y-74592101D01*
X133780583Y-74565471D01*
X133674063Y-74541840D01*
X133548861Y-74506320D01*
X133480348Y-74472048D01*
X133434838Y-74428016D01*
X133407222Y-74371517D01*
X133397366Y-74298483D01*
X133405782Y-74215989D01*
X133429773Y-74146309D01*
X133468833Y-74086755D01*
X133524307Y-74035658D01*
X133599233Y-73992568D01*
X133670427Y-73965094D01*
X133795879Y-73926348D01*
X133921046Y-73887670D01*
X133989594Y-73861135D01*
X134033039Y-73847337D01*
X134080819Y-73842634D01*
X134121322Y-73849974D01*
X134152992Y-73871302D01*
X134173900Y-73903665D01*
X134181202Y-73946040D01*
X134194025Y-74033143D01*
X134206848Y-74120246D01*
X134199545Y-74162622D01*
X134178638Y-74194985D01*
X134146955Y-74216309D01*
X134106372Y-74223653D01*
G37*
G36*
X135921066Y-75079480D02*
G01*
X135878314Y-75070900D01*
X135847421Y-75046192D01*
X135825812Y-75001627D01*
X135804798Y-74908575D01*
X135782764Y-74763032D01*
X135768379Y-74621016D01*
X135764262Y-74519309D01*
X135766827Y-74438525D01*
X135769392Y-74357559D01*
X135760628Y-74258945D01*
X135739600Y-74202979D01*
X135710802Y-74174371D01*
X135673038Y-74165034D01*
X135611175Y-74172006D01*
X135552613Y-74192914D01*
X135496011Y-74228796D01*
X135440488Y-74281996D01*
X135386216Y-74357082D01*
X135297056Y-74510882D01*
X135291286Y-74783332D01*
X135278506Y-74919366D01*
X135264267Y-74974699D01*
X135240560Y-75011248D01*
X135211447Y-75031562D01*
X135175149Y-75038447D01*
X135135757Y-75031313D01*
X135101326Y-75009779D01*
X135077395Y-74977765D01*
X135069544Y-74940078D01*
X135078795Y-74894924D01*
X135084624Y-74857454D01*
X135090061Y-74745264D01*
X135093175Y-74593589D01*
X135096197Y-73840069D01*
X135103341Y-73668886D01*
X135093633Y-73570059D01*
X135083924Y-73473155D01*
X135091440Y-73433586D01*
X135113599Y-73401898D01*
X135146460Y-73380828D01*
X135186414Y-73373688D01*
X135224585Y-73379524D01*
X135252336Y-73395705D01*
X135272352Y-73422732D01*
X135284783Y-73464180D01*
X135297326Y-73561792D01*
X135301178Y-73644156D01*
X135293942Y-73869378D01*
X135288905Y-74094143D01*
X135289912Y-74184360D01*
X135349677Y-74112904D01*
X135409523Y-74057385D01*
X135469706Y-74015741D01*
X135535383Y-73984517D01*
X135602863Y-73966048D01*
X135673129Y-73959870D01*
X135757026Y-73967891D01*
X135821211Y-73989762D01*
X135870174Y-74023764D01*
X135906778Y-74070421D01*
X135929760Y-74124857D01*
X135947841Y-74208776D01*
X135957978Y-74332371D01*
X135966129Y-74527827D01*
X135986646Y-74740776D01*
X136021450Y-74951527D01*
X136025572Y-74981202D01*
X136017865Y-75019722D01*
X135994797Y-75051270D01*
X135961175Y-75072369D01*
X135921066Y-75079480D01*
G37*
G36*
X136838647Y-73949421D02*
G01*
X136929978Y-73969111D01*
X137003948Y-73999438D01*
X137062982Y-74040517D01*
X137103308Y-74089218D01*
X137127621Y-74146791D01*
X137136113Y-74215959D01*
X137129625Y-74263279D01*
X137109753Y-74309230D01*
X137074521Y-74355142D01*
X137020342Y-74401797D01*
X136953874Y-74441868D01*
X136803088Y-74517019D01*
X136411628Y-74703315D01*
X136453591Y-74755960D01*
X136501063Y-74798335D01*
X136554510Y-74831359D01*
X136613044Y-74854713D01*
X136679060Y-74869246D01*
X136753904Y-74874316D01*
X136827074Y-74868231D01*
X136919867Y-74847663D01*
X136998368Y-74819397D01*
X137047475Y-74789640D01*
X137075572Y-74759094D01*
X137101828Y-74726303D01*
X137126373Y-74709478D01*
X137150402Y-74704323D01*
X137183998Y-74710993D01*
X137214424Y-74731617D01*
X137235734Y-74761455D01*
X137242634Y-74794998D01*
X137233294Y-74844994D01*
X137203907Y-74893370D01*
X137148967Y-74942160D01*
X137059177Y-74991827D01*
X136952985Y-75031541D01*
X136851574Y-75054450D01*
X136753812Y-75061894D01*
X136638215Y-75053888D01*
X136538830Y-75031184D01*
X136453067Y-74995083D01*
X136378838Y-74945940D01*
X136311014Y-74876382D01*
X136262603Y-74795074D01*
X136232599Y-74699674D01*
X136222035Y-74586720D01*
X136226816Y-74513996D01*
X136394226Y-74513996D01*
X136708841Y-74363787D01*
X136879088Y-74272250D01*
X136973173Y-74206342D01*
X136909721Y-74162167D01*
X136829046Y-74134151D01*
X136726243Y-74124002D01*
X136647335Y-74134877D01*
X136578941Y-74166760D01*
X136518240Y-74221271D01*
X136471110Y-74290451D01*
X136429252Y-74385820D01*
X136394226Y-74513996D01*
X136226816Y-74513996D01*
X136230780Y-74453697D01*
X136255843Y-74336258D01*
X136296076Y-74232092D01*
X136351178Y-74139297D01*
X136412710Y-74066798D01*
X136479953Y-74012305D01*
X136553631Y-73973793D01*
X136635102Y-73950358D01*
X136726243Y-73942285D01*
X136838647Y-73949421D01*
G37*
G36*
X138222933Y-74259556D02*
G01*
X138212156Y-74320908D01*
X138191239Y-74358718D01*
X138161580Y-74380209D01*
X138120443Y-74387784D01*
X138081450Y-74381304D01*
X138055353Y-74363663D01*
X138038734Y-74333929D01*
X138032332Y-74286851D01*
X138029310Y-74215501D01*
X138026195Y-74129863D01*
X137920376Y-74149956D01*
X137835162Y-74180740D01*
X137766993Y-74220905D01*
X137711891Y-74270232D01*
X137661289Y-74336045D01*
X137615318Y-74421398D01*
X137617333Y-74982027D01*
X137610338Y-75029154D01*
X137591813Y-75059664D01*
X137561822Y-75078335D01*
X137515850Y-75085341D01*
X137476000Y-75078699D01*
X137449304Y-75060599D01*
X137432285Y-75030059D01*
X137425724Y-74981660D01*
X137425724Y-74260930D01*
X137428289Y-74159356D01*
X137430853Y-74057690D01*
X137437414Y-74009291D01*
X137454433Y-73978751D01*
X137481129Y-73960651D01*
X137520979Y-73954009D01*
X137561737Y-73963098D01*
X137591872Y-73990054D01*
X137613311Y-74040770D01*
X137622462Y-74127757D01*
X137706139Y-74056461D01*
X137790840Y-74003123D01*
X137877234Y-73965950D01*
X137966240Y-73943839D01*
X138058985Y-73936423D01*
X138110931Y-73943772D01*
X138151282Y-73964485D01*
X138182908Y-73998980D01*
X138204039Y-74042827D01*
X138218463Y-74104021D01*
X138223941Y-74187749D01*
X138222933Y-74259556D01*
G37*
G36*
X138997265Y-73949421D02*
G01*
X139088596Y-73969111D01*
X139162566Y-73999438D01*
X139221600Y-74040517D01*
X139261926Y-74089218D01*
X139286239Y-74146791D01*
X139294732Y-74215959D01*
X139288244Y-74263279D01*
X139268371Y-74309230D01*
X139233139Y-74355142D01*
X139178961Y-74401797D01*
X139112492Y-74441868D01*
X138961707Y-74517019D01*
X138570246Y-74703315D01*
X138612209Y-74755960D01*
X138659681Y-74798335D01*
X138713128Y-74831359D01*
X138771662Y-74854713D01*
X138837679Y-74869246D01*
X138912522Y-74874316D01*
X138985692Y-74868231D01*
X139078485Y-74847663D01*
X139156986Y-74819397D01*
X139206093Y-74789640D01*
X139234190Y-74759094D01*
X139260446Y-74726303D01*
X139284991Y-74709478D01*
X139309020Y-74704323D01*
X139342616Y-74710993D01*
X139373042Y-74731617D01*
X139394353Y-74761455D01*
X139401252Y-74794998D01*
X139391912Y-74844994D01*
X139362525Y-74893370D01*
X139307586Y-74942160D01*
X139217795Y-74991827D01*
X139111603Y-75031541D01*
X139010192Y-75054450D01*
X138912431Y-75061894D01*
X138796834Y-75053888D01*
X138697448Y-75031184D01*
X138611685Y-74995083D01*
X138537457Y-74945940D01*
X138469632Y-74876382D01*
X138421222Y-74795074D01*
X138391217Y-74699674D01*
X138380653Y-74586720D01*
X138385434Y-74513996D01*
X138552844Y-74513996D01*
X138867459Y-74363787D01*
X139037707Y-74272250D01*
X139131791Y-74206342D01*
X139068339Y-74162167D01*
X138987664Y-74134151D01*
X138884862Y-74124002D01*
X138805953Y-74134877D01*
X138737559Y-74166760D01*
X138676858Y-74221271D01*
X138629728Y-74290451D01*
X138587870Y-74385820D01*
X138552844Y-74513996D01*
X138385434Y-74513996D01*
X138389398Y-74453697D01*
X138414462Y-74336258D01*
X138454694Y-74232092D01*
X138509796Y-74139297D01*
X138571328Y-74066798D01*
X138638571Y-74012305D01*
X138712250Y-73973793D01*
X138793720Y-73950358D01*
X138884862Y-73942285D01*
X138997265Y-73949421D01*
G37*
G36*
X115104905Y-44041192D02*
G01*
X115195031Y-43903989D01*
X115264640Y-43812092D01*
X115312512Y-43794568D01*
X115357452Y-43809100D01*
X115375282Y-43841798D01*
X115363225Y-43881869D01*
X115307383Y-43974727D01*
X114710942Y-44856719D01*
X115184040Y-44831287D01*
X115404511Y-44839752D01*
X115679853Y-44883860D01*
X115947552Y-44961962D01*
X116166140Y-45069363D01*
X116349709Y-45208072D01*
X116485854Y-45366210D01*
X116572813Y-45545071D01*
X116602114Y-45742771D01*
X116581220Y-45923619D01*
X116517238Y-46105731D01*
X116405865Y-46292265D01*
X116239902Y-46485849D01*
X116053784Y-46647928D01*
X115789443Y-46828644D01*
X115428853Y-47030301D01*
X114951765Y-47255001D01*
X114191437Y-47027824D01*
X113788231Y-47175543D01*
X113450194Y-47270316D01*
X113167840Y-47321505D01*
X112932365Y-47337066D01*
X112702079Y-47319824D01*
X112525175Y-47272973D01*
X112389902Y-47200931D01*
X112281115Y-47101318D01*
X112220159Y-46997648D01*
X112219706Y-46995126D01*
X112446078Y-46995126D01*
X112468291Y-47076039D01*
X112536203Y-47139596D01*
X112636231Y-47185574D01*
X112770584Y-47216207D01*
X112948974Y-47227645D01*
X113221073Y-47210240D01*
X113570537Y-47132688D01*
X114017536Y-46975892D01*
X113547889Y-46851909D01*
X113178419Y-46785008D01*
X112891332Y-46762607D01*
X112745083Y-46773529D01*
X112628759Y-46803653D01*
X112536203Y-46850656D01*
X112467786Y-46917493D01*
X112446078Y-46995126D01*
X112219706Y-46995126D01*
X112200125Y-46886133D01*
X112223422Y-46768001D01*
X112296112Y-46653281D01*
X112429713Y-46537568D01*
X112592916Y-46454975D01*
X112642489Y-46442679D01*
X113678527Y-46442679D01*
X114097404Y-46536713D01*
X114674549Y-46709393D01*
X115015939Y-46548160D01*
X115211156Y-46412760D01*
X115306540Y-46298185D01*
X115334249Y-46196696D01*
X115315837Y-46125847D01*
X115256824Y-46058638D01*
X115170767Y-46012674D01*
X115060453Y-45996661D01*
X114699951Y-46017819D01*
X113916420Y-46070820D01*
X113678527Y-46442679D01*
X112642489Y-46442679D01*
X112814015Y-46400134D01*
X113110174Y-46379634D01*
X113297528Y-46390087D01*
X113552742Y-46426437D01*
X113770607Y-46080223D01*
X113372491Y-46106082D01*
X113218817Y-46099796D01*
X112989762Y-46071674D01*
X112763329Y-46020989D01*
X112595066Y-45951782D01*
X112458149Y-45857278D01*
X112364012Y-45747473D01*
X112306494Y-45622699D01*
X112287564Y-45493155D01*
X112306554Y-45358005D01*
X112332426Y-45301241D01*
X112634633Y-45301241D01*
X112651278Y-45392523D01*
X112700773Y-45471977D01*
X112787773Y-45543163D01*
X112931219Y-45604967D01*
X113152176Y-45649100D01*
X113478981Y-45666476D01*
X113724990Y-45657988D01*
X114065896Y-45628435D01*
X114072182Y-45618818D01*
X114212198Y-45618818D01*
X114813536Y-45571749D01*
X115115652Y-45560260D01*
X115342068Y-45577721D01*
X115514701Y-45625073D01*
X115645659Y-45697891D01*
X115749399Y-45798136D01*
X115808907Y-45906437D01*
X115828841Y-46026795D01*
X115810647Y-46132644D01*
X115753616Y-46239971D01*
X115649811Y-46352279D01*
X115516676Y-46447280D01*
X115271340Y-46578090D01*
X114866036Y-46754913D01*
X115438053Y-46891048D01*
X115668127Y-46752179D01*
X115849931Y-46612976D01*
X115990041Y-46473240D01*
X116098860Y-46316854D01*
X116162781Y-46153347D01*
X116184214Y-45979137D01*
X116154613Y-45806779D01*
X116061849Y-45631854D01*
X115969083Y-45528527D01*
X115845897Y-45437860D01*
X115687180Y-45359584D01*
X115515193Y-45304402D01*
X115322267Y-45270042D01*
X115104905Y-45258071D01*
X114820350Y-45266316D01*
X114423956Y-45295043D01*
X114212198Y-45618818D01*
X114072182Y-45618818D01*
X114278632Y-45302951D01*
X113926201Y-45331007D01*
X113591088Y-45340137D01*
X113341302Y-45329443D01*
X113172596Y-45302398D01*
X113063768Y-45265123D01*
X112929320Y-45170600D01*
X112831493Y-45030895D01*
X112717606Y-45113803D01*
X112655105Y-45202621D01*
X112634633Y-45301241D01*
X112332426Y-45301241D01*
X112363028Y-45234100D01*
X112459755Y-45117876D01*
X112592678Y-45025049D01*
X112820502Y-44930236D01*
X112817815Y-44901599D01*
X112839200Y-44759013D01*
X112909838Y-44591990D01*
X112951944Y-44529311D01*
X113183935Y-44529311D01*
X113199641Y-44634733D01*
X113245182Y-44724479D01*
X113321933Y-44802436D01*
X113421282Y-44858528D01*
X113556486Y-44895493D01*
X113738611Y-44909292D01*
X114564884Y-44864626D01*
X114856022Y-44422883D01*
X114447620Y-44257072D01*
X114186552Y-44172625D01*
X113951731Y-44123729D01*
X113763035Y-44109153D01*
X113597356Y-44124120D01*
X113460065Y-44166478D01*
X113345136Y-44235029D01*
X113253671Y-44326180D01*
X113201369Y-44423148D01*
X113183935Y-44529311D01*
X112951944Y-44529311D01*
X113043251Y-44393390D01*
X113209214Y-44211975D01*
X113474022Y-43979636D01*
X113867083Y-43685147D01*
X115104905Y-44041192D01*
G37*
G36*
X118982260Y-45487812D02*
G01*
X117758115Y-46242858D01*
X117758115Y-46694219D01*
X118392170Y-46899383D01*
X118821060Y-46639509D01*
X118881144Y-46721574D01*
X117996008Y-47255001D01*
X117735437Y-47142667D01*
X117550509Y-47076551D01*
X117053230Y-46954093D01*
X117053230Y-46899383D01*
X117132598Y-46844155D01*
X117177550Y-46780986D01*
X117198797Y-46690210D01*
X117209057Y-46476018D01*
X117209057Y-45107617D01*
X117539079Y-44990289D01*
X117758115Y-44990289D01*
X117758115Y-46078727D01*
X118476922Y-45635915D01*
X117796461Y-44978108D01*
X117758115Y-44990289D01*
X117539079Y-44990289D01*
X117635261Y-44956095D01*
X118211919Y-44697289D01*
X118982260Y-45487812D01*
G37*
G36*
X120913977Y-44697289D02*
G01*
X121362163Y-45052907D01*
X121627166Y-44834065D01*
X121703614Y-44902453D01*
X121536224Y-45051961D01*
X121471339Y-45136041D01*
X121432054Y-45252965D01*
X121416629Y-45427545D01*
X121416629Y-46571762D01*
X121433155Y-46718769D01*
X121474026Y-46807700D01*
X121513944Y-46847189D01*
X121553161Y-46858350D01*
X121600887Y-46842820D01*
X121733656Y-46762607D01*
X121799357Y-46830995D01*
X121211709Y-47255001D01*
X121013217Y-47101595D01*
X120920816Y-46988715D01*
X120875737Y-46854237D01*
X120856580Y-46614718D01*
X120856580Y-45298676D01*
X120558848Y-45074065D01*
X120116036Y-45405960D01*
X120116036Y-46735252D01*
X120312896Y-46906222D01*
X119829050Y-47255001D01*
X119342763Y-46906222D01*
X119555987Y-46735252D01*
X119555987Y-45508969D01*
X119537160Y-45269660D01*
X119495903Y-45156344D01*
X119449125Y-45107602D01*
X119402847Y-45093940D01*
X119345888Y-45111620D01*
X119238960Y-45189683D01*
X119173258Y-45121295D01*
X119755289Y-44697289D01*
X119967805Y-44852359D01*
X120055952Y-44945837D01*
X120099254Y-45047666D01*
X120116036Y-45199300D01*
X120116036Y-45285426D01*
X120913977Y-44697289D01*
G37*
G36*
X124146399Y-44329171D02*
G01*
X124213454Y-44377148D01*
X124258708Y-44447773D01*
X124275003Y-44543630D01*
X124262777Y-44647946D01*
X124225666Y-44750718D01*
X124161228Y-44856305D01*
X124037110Y-45011874D01*
X123512477Y-45602789D01*
X124143845Y-45873563D01*
X124143845Y-46885705D01*
X123922428Y-46920720D01*
X123728387Y-46984654D01*
X123542384Y-47084367D01*
X123307557Y-47255001D01*
X123109066Y-47159595D01*
X122956336Y-47105402D01*
X122804356Y-47074149D01*
X122641018Y-47063514D01*
X122475313Y-47079222D01*
X122324434Y-47125516D01*
X122184528Y-47203496D01*
X122113756Y-47245485D01*
X122078039Y-47255001D01*
X122017955Y-47229996D01*
X121987913Y-47179987D01*
X121998904Y-47152714D01*
X122045310Y-47107325D01*
X122157173Y-47002820D01*
X122378486Y-46748929D01*
X122523538Y-46748929D01*
X122747508Y-46696997D01*
X122936064Y-46680541D01*
X123140581Y-46698986D01*
X123356852Y-46756670D01*
X123589169Y-46859205D01*
X123589169Y-46161861D01*
X123182016Y-45983625D01*
X122523538Y-46748929D01*
X122378486Y-46748929D01*
X122406057Y-46717300D01*
X122758499Y-46307186D01*
X122160104Y-46024017D01*
X122160104Y-45748114D01*
X122712093Y-45748114D01*
X123086273Y-45922076D01*
X123681981Y-45230075D01*
X123364954Y-45258071D01*
X123147726Y-45237193D01*
X122931531Y-45173377D01*
X122712093Y-45062097D01*
X122712093Y-45748114D01*
X122160104Y-45748114D01*
X122160104Y-45121295D01*
X122423469Y-45036686D01*
X122601207Y-44952890D01*
X122753906Y-44845955D01*
X122908709Y-44697289D01*
X123242770Y-44806627D01*
X123471688Y-44868687D01*
X123623465Y-44894268D01*
X123764047Y-44902453D01*
X123905321Y-44886557D01*
X124001695Y-44844324D01*
X124067431Y-44781536D01*
X124086448Y-44722294D01*
X124074223Y-44681885D01*
X124031737Y-44636809D01*
X123948619Y-44549989D01*
X123925247Y-44475670D01*
X123937481Y-44408006D01*
X123971653Y-44358341D01*
X124022006Y-44324821D01*
X124075457Y-44314317D01*
X124146399Y-44329171D01*
G37*
G36*
X126579190Y-45487812D02*
G01*
X125355045Y-46242858D01*
X125355045Y-46694219D01*
X125989099Y-46899383D01*
X126417990Y-46639509D01*
X126478073Y-46721574D01*
X125592937Y-47255001D01*
X125332366Y-47142667D01*
X125147438Y-47076551D01*
X124650160Y-46954093D01*
X124650160Y-46899383D01*
X124729528Y-46844155D01*
X124774480Y-46780986D01*
X124795727Y-46690210D01*
X124805987Y-46476018D01*
X124805987Y-45107617D01*
X125136009Y-44990289D01*
X125355045Y-44990289D01*
X125355045Y-46078727D01*
X126073852Y-45635915D01*
X125393391Y-44978108D01*
X125355045Y-44990289D01*
X125136009Y-44990289D01*
X125232191Y-44956095D01*
X125808848Y-44697289D01*
X126579190Y-45487812D01*
G37*
G36*
X129432020Y-43867718D02*
G01*
X129713070Y-43959340D01*
X129972988Y-44010454D01*
X130224270Y-44027087D01*
X130412365Y-44013666D01*
X130606755Y-43972377D01*
X130655847Y-44054442D01*
X129661290Y-44680620D01*
X129853158Y-44694286D01*
X130051322Y-44736323D01*
X130258220Y-44809275D01*
X130448390Y-44908295D01*
X130600307Y-45026978D01*
X130718618Y-45166388D01*
X130806083Y-45323248D01*
X130857397Y-45482032D01*
X130874445Y-45645104D01*
X130855544Y-45837996D01*
X130798438Y-46028331D01*
X130700945Y-46218583D01*
X130558883Y-46410836D01*
X130390931Y-46580850D01*
X130187810Y-46738473D01*
X129945687Y-46883965D01*
X129659825Y-47016925D01*
X129263674Y-47153286D01*
X128898967Y-47230389D01*
X128560000Y-47255001D01*
X128235914Y-47233039D01*
X127936373Y-47168624D01*
X127656789Y-47062232D01*
X127400568Y-46917615D01*
X127201902Y-46756695D01*
X127065006Y-46593133D01*
X127800404Y-46593133D01*
X128055772Y-46793575D01*
X128300369Y-46925670D01*
X128568258Y-47009148D01*
X128888018Y-47049837D01*
X128888018Y-46516410D01*
X129008185Y-46516410D01*
X129008185Y-47036159D01*
X129250095Y-47013300D01*
X129423642Y-46974823D01*
X129661592Y-46885888D01*
X129887948Y-46762821D01*
X130047056Y-46644544D01*
X130221339Y-46475377D01*
X129996768Y-46403639D01*
X129803534Y-46364392D01*
X129636622Y-46352279D01*
X129435418Y-46369508D01*
X129227120Y-46422818D01*
X129008185Y-46516410D01*
X128888018Y-46516410D01*
X128888018Y-45873563D01*
X129008185Y-45873563D01*
X129008185Y-46406989D01*
X129241406Y-46312677D01*
X129455866Y-46259718D01*
X129655673Y-46242858D01*
X129849872Y-46255685D01*
X130057545Y-46295687D01*
X130281423Y-46365957D01*
X130361144Y-46196400D01*
X130406382Y-46038701D01*
X130420886Y-45890446D01*
X130420886Y-45859885D01*
X130184356Y-45961214D01*
X130024480Y-46013117D01*
X129870008Y-46041505D01*
X129696706Y-46051372D01*
X129527954Y-46040262D01*
X129355254Y-46006278D01*
X129184865Y-45951497D01*
X129008185Y-45873563D01*
X128888018Y-45873563D01*
X128888018Y-45201223D01*
X128681400Y-45301239D01*
X128527271Y-45394847D01*
X128527271Y-45798336D01*
X128517752Y-45968060D01*
X128497229Y-46046884D01*
X128454092Y-46107693D01*
X128368757Y-46180027D01*
X128270327Y-46247346D01*
X127800404Y-46593133D01*
X127065006Y-46593133D01*
X127053021Y-46578814D01*
X126944781Y-46379190D01*
X126879717Y-46166792D01*
X126857627Y-45938104D01*
X126882125Y-45681121D01*
X126894892Y-45638479D01*
X127390565Y-45638479D01*
X127412490Y-45894317D01*
X127473852Y-46106937D01*
X127576057Y-46304351D01*
X127721270Y-46499099D01*
X127856873Y-46374904D01*
X127917885Y-46288806D01*
X127946087Y-46184058D01*
X127958918Y-45968238D01*
X127958918Y-44529098D01*
X127759153Y-44725397D01*
X127615109Y-44901417D01*
X127517571Y-45059960D01*
X127448749Y-45229100D01*
X127405650Y-45420708D01*
X127390565Y-45638479D01*
X126894892Y-45638479D01*
X126954735Y-45438604D01*
X127076224Y-45206994D01*
X127242722Y-44995913D01*
X127504640Y-44748898D01*
X127887843Y-44459214D01*
X128324009Y-44153391D01*
X128527271Y-44153391D01*
X128527271Y-45263414D01*
X128689290Y-45159336D01*
X129008185Y-45159336D01*
X129008185Y-45736787D01*
X129198616Y-45835743D01*
X129357941Y-45895362D01*
X129521726Y-45929912D01*
X129707697Y-45941951D01*
X129878277Y-45931973D01*
X130030097Y-45903269D01*
X130184728Y-45850768D01*
X130404521Y-45750465D01*
X130344296Y-45591017D01*
X130260421Y-45457821D01*
X130153196Y-45346975D01*
X129995746Y-45237067D01*
X129821814Y-45159005D01*
X129628073Y-45111288D01*
X129409965Y-45094795D01*
X129219786Y-45110208D01*
X129008185Y-45159336D01*
X128689290Y-45159336D01*
X129806127Y-44441903D01*
X129205784Y-44296136D01*
X128573677Y-44113427D01*
X128527271Y-44153391D01*
X128324009Y-44153391D01*
X128991821Y-43685147D01*
X129432020Y-43867718D01*
G37*
G36*
X132441778Y-44791466D02*
G01*
X132670362Y-44866122D01*
X132894768Y-44916552D01*
X133032575Y-44929809D01*
X133120013Y-44912070D01*
X133221130Y-44806710D01*
X133319560Y-44834065D01*
X133190251Y-45026057D01*
X133132226Y-45141811D01*
X133103866Y-45257938D01*
X133092658Y-45430323D01*
X133092658Y-46450373D01*
X133107692Y-46680187D01*
X133137599Y-46767522D01*
X133189520Y-46816431D01*
X133245799Y-46830995D01*
X133313942Y-46821164D01*
X133442414Y-46762607D01*
X133502498Y-46830995D01*
X132893356Y-47255001D01*
X132706886Y-47108850D01*
X132611744Y-46997691D01*
X132558972Y-46870977D01*
X132532609Y-46680541D01*
X131701939Y-47255001D01*
X131478480Y-47069283D01*
X131336644Y-46899894D01*
X131259162Y-46742870D01*
X131234703Y-46593133D01*
X131260185Y-46380736D01*
X131324361Y-46213152D01*
X131718304Y-46213152D01*
X131743047Y-46397114D01*
X131815784Y-46561867D01*
X131938750Y-46712474D01*
X132119839Y-46851725D01*
X132532609Y-46566205D01*
X132532609Y-45969306D01*
X131871200Y-45701311D01*
X131781724Y-45899917D01*
X131733184Y-46068842D01*
X131718304Y-46213152D01*
X131324361Y-46213152D01*
X131335819Y-46183232D01*
X131504202Y-45928381D01*
X131797438Y-45595737D01*
X131480440Y-45011019D01*
X131598136Y-45011019D01*
X131931528Y-45620314D01*
X132532609Y-45863946D01*
X132532609Y-45259140D01*
X131598136Y-45011019D01*
X131480440Y-45011019D01*
X131469665Y-44991144D01*
X131508011Y-44902453D01*
X131666280Y-44916131D01*
X131871164Y-44892222D01*
X132058621Y-44820823D01*
X132234633Y-44697289D01*
X132441778Y-44791466D01*
G37*
G36*
X133705219Y-44975116D02*
G01*
X134467745Y-44150185D01*
X134546880Y-44150185D01*
X134519525Y-44806710D01*
X135068827Y-44806710D01*
X135068827Y-45080262D01*
X134519525Y-45080262D01*
X134519525Y-46680541D01*
X134825561Y-46885705D01*
X135000439Y-46762607D01*
X135068827Y-46830995D01*
X134467501Y-47255001D01*
X134249839Y-47097274D01*
X134017560Y-46979648D01*
X133767990Y-46899383D01*
X133767990Y-46844673D01*
X133862901Y-46775051D01*
X133913070Y-46710461D01*
X133946141Y-46611147D01*
X133959476Y-46454006D01*
X133959476Y-45080262D01*
X133705219Y-45080262D01*
X133705219Y-44975116D01*
G37*
G36*
X137306336Y-45487812D02*
G01*
X136082191Y-46242858D01*
X136082191Y-46694219D01*
X136716245Y-46899383D01*
X137145136Y-46639509D01*
X137205219Y-46721574D01*
X136320083Y-47255001D01*
X136059512Y-47142667D01*
X135874584Y-47076551D01*
X135377306Y-46954093D01*
X135377306Y-46899383D01*
X135456674Y-46844155D01*
X135501625Y-46780986D01*
X135522873Y-46690210D01*
X135533133Y-46476018D01*
X135533133Y-45107617D01*
X135863155Y-44990289D01*
X136082191Y-44990289D01*
X136082191Y-46078727D01*
X136800997Y-45635915D01*
X136120537Y-44978108D01*
X136082191Y-44990289D01*
X135863155Y-44990289D01*
X135959337Y-44956095D01*
X136535994Y-44697289D01*
X137306336Y-45487812D01*
G37*
G36*
X139555080Y-44109153D02*
G01*
X139383465Y-44240203D01*
X139298395Y-44350847D01*
X139273468Y-44448314D01*
X139280636Y-44504611D01*
X139300823Y-44550255D01*
X139348597Y-44613055D01*
X139464710Y-44730415D01*
X139580874Y-44858675D01*
X139658883Y-44986656D01*
X139693597Y-45100937D01*
X139713593Y-45285426D01*
X140552323Y-44697289D01*
X140798186Y-44891995D01*
X140915757Y-45031536D01*
X140977390Y-45185320D01*
X141000509Y-45396984D01*
X141000509Y-46844673D01*
X140771843Y-46904299D01*
X140561849Y-46983372D01*
X140354961Y-47089264D01*
X140093391Y-47255001D01*
X139795038Y-47082094D01*
X139544089Y-46979311D01*
X139283324Y-46913608D01*
X138981109Y-46872028D01*
X138981109Y-46817317D01*
X139070963Y-46755522D01*
X139122037Y-46689517D01*
X139147345Y-46600043D01*
X139158918Y-46413187D01*
X139158918Y-45404037D01*
X139713593Y-45404037D01*
X139713593Y-46584798D01*
X140437529Y-46872028D01*
X140437529Y-45514740D01*
X140422770Y-45350102D01*
X140386971Y-45251873D01*
X140315903Y-45171379D01*
X140172526Y-45075988D01*
X139713593Y-45404037D01*
X139158918Y-45404037D01*
X139158918Y-45344197D01*
X139139623Y-45212550D01*
X139033133Y-45063165D01*
X138955930Y-44961903D01*
X138911500Y-44880227D01*
X138886222Y-44795419D01*
X138877306Y-44696007D01*
X138891913Y-44573920D01*
X138934884Y-44462847D01*
X139006999Y-44360051D01*
X139103797Y-44271068D01*
X139260877Y-44165638D01*
X139497683Y-44040765D01*
X139555080Y-44109153D01*
G37*
G36*
X141848032Y-44451093D02*
G01*
X142531179Y-43945021D01*
X142688744Y-44014118D01*
X142809177Y-44093761D01*
X142898520Y-44183738D01*
X142962358Y-44288829D01*
X143002923Y-44416754D01*
X143017466Y-44572909D01*
X143017466Y-46571121D01*
X143026863Y-46652471D01*
X143050195Y-46701913D01*
X143123671Y-46779417D01*
X143263419Y-46885705D01*
X143561395Y-46680541D01*
X143648834Y-46748929D01*
X142927341Y-47255001D01*
X142263244Y-46872028D01*
X142446427Y-46659811D01*
X142446427Y-44873388D01*
X142437925Y-44706128D01*
X142419071Y-44622917D01*
X142363010Y-44518504D01*
X142287913Y-44441689D01*
X142225144Y-44406067D01*
X142178736Y-44396382D01*
X142121582Y-44408930D01*
X142028527Y-44459000D01*
X141930097Y-44519481D01*
X141848032Y-44451093D01*
G37*
G36*
X114074689Y-50331093D02*
G01*
X114757836Y-49825021D01*
X114915401Y-49894118D01*
X115035835Y-49973761D01*
X115125177Y-50063738D01*
X115189015Y-50168829D01*
X115229580Y-50296754D01*
X115244124Y-50452909D01*
X115244124Y-52451121D01*
X115253520Y-52532471D01*
X115276852Y-52581913D01*
X115350328Y-52659417D01*
X115490076Y-52765705D01*
X115788053Y-52560541D01*
X115875491Y-52628929D01*
X115153998Y-53135001D01*
X114489902Y-52752028D01*
X114673084Y-52539811D01*
X114673084Y-50753388D01*
X114664582Y-50586128D01*
X114645729Y-50502917D01*
X114589667Y-50398504D01*
X114514570Y-50321689D01*
X114451802Y-50286067D01*
X114405394Y-50276382D01*
X114348239Y-50288930D01*
X114255184Y-50339000D01*
X114156755Y-50399481D01*
X114074689Y-50331093D01*
G37*
G36*
X118886517Y-50248386D02*
G01*
X118498660Y-50676879D01*
X117490425Y-50265483D01*
X117308516Y-50528125D01*
X117195136Y-50766639D01*
X117104305Y-51105321D01*
X117074968Y-51427865D01*
X117085959Y-51625977D01*
X118323782Y-50905979D01*
X118567320Y-51010383D01*
X118754624Y-51129388D01*
X118894822Y-51262452D01*
X118999495Y-51417406D01*
X119062073Y-51585058D01*
X119083377Y-51769378D01*
X119057569Y-51995733D01*
X118981463Y-52203868D01*
X118853789Y-52398334D01*
X118680372Y-52581822D01*
X118457297Y-52765560D01*
X118177277Y-52949978D01*
X117831877Y-53135001D01*
X117512080Y-53020418D01*
X117248880Y-52887186D01*
X117034595Y-52736509D01*
X116863210Y-52568235D01*
X116725867Y-52375492D01*
X116626907Y-52164087D01*
X116566006Y-51930716D01*
X116551271Y-51749075D01*
X117105010Y-51749075D01*
X117202136Y-51988602D01*
X117348694Y-52197009D01*
X117547578Y-52378886D01*
X117784229Y-52524191D01*
X118053706Y-52630374D01*
X118361884Y-52697317D01*
X118514577Y-52516795D01*
X118602985Y-52327243D01*
X118632505Y-52123286D01*
X118610828Y-51967663D01*
X118545013Y-51817140D01*
X118430272Y-51668078D01*
X118281044Y-51543695D01*
X118077473Y-51433885D01*
X117807208Y-51340243D01*
X117105010Y-51749075D01*
X116551271Y-51749075D01*
X116544961Y-51671284D01*
X116563083Y-51410967D01*
X116614930Y-51181239D01*
X116697857Y-50977787D01*
X116812863Y-50785506D01*
X116968996Y-50582782D01*
X117171933Y-50368065D01*
X117506754Y-50074928D01*
X117859232Y-49825021D01*
X118886517Y-50248386D01*
G37*
G36*
X119739169Y-53299132D02*
G01*
X119384040Y-53299132D01*
X121870432Y-49811344D01*
X122228492Y-49811344D01*
X119739169Y-53299132D01*
G37*
G36*
X124071853Y-49935726D02*
G01*
X124329737Y-50072011D01*
X124549801Y-50233621D01*
X124735645Y-50421707D01*
X124885010Y-50633575D01*
X124992045Y-50862790D01*
X125057525Y-51112554D01*
X125080027Y-51386832D01*
X125059508Y-51656099D01*
X124999063Y-51909284D01*
X124899196Y-52149152D01*
X124758848Y-52378031D01*
X124522631Y-52657218D01*
X124234228Y-52909080D01*
X123888611Y-53135001D01*
X123636431Y-53065003D01*
X123400880Y-52963449D01*
X123179574Y-52828964D01*
X122984364Y-52667110D01*
X122822815Y-52481390D01*
X122693286Y-52269251D01*
X122599666Y-52042256D01*
X122543899Y-51810933D01*
X122525247Y-51573190D01*
X122545980Y-51320363D01*
X122583604Y-51169700D01*
X122918722Y-51169700D01*
X122939235Y-51415499D01*
X123000105Y-51649774D01*
X123101660Y-51875165D01*
X123241570Y-52083505D01*
X123415281Y-52265080D01*
X123625073Y-52422269D01*
X123860084Y-52550239D01*
X124090954Y-52635997D01*
X124320432Y-52683640D01*
X124494155Y-52445283D01*
X124600579Y-52238690D01*
X124662341Y-52023748D01*
X124683866Y-51778995D01*
X124665994Y-51551737D01*
X124612796Y-51332955D01*
X124523886Y-51120547D01*
X124400063Y-50923065D01*
X124241126Y-50746979D01*
X124044438Y-50590326D01*
X123822691Y-50459142D01*
X123574111Y-50349830D01*
X123295589Y-50262705D01*
X123131112Y-50460093D01*
X123014319Y-50674534D01*
X122943177Y-50909529D01*
X122918722Y-51169700D01*
X122583604Y-51169700D01*
X122608454Y-51070191D01*
X122714296Y-50820342D01*
X122866699Y-50568741D01*
X123053379Y-50337112D01*
X123265374Y-50137445D01*
X123503884Y-49967244D01*
X123771130Y-49825021D01*
X124071853Y-49935726D01*
G37*
G36*
X127722247Y-50248386D02*
G01*
X127334389Y-50676879D01*
X126326154Y-50265483D01*
X126144246Y-50528125D01*
X126030865Y-50766639D01*
X125940034Y-51105321D01*
X125910697Y-51427865D01*
X125921688Y-51625977D01*
X127159511Y-50905979D01*
X127403049Y-51010383D01*
X127590353Y-51129388D01*
X127730551Y-51262452D01*
X127835224Y-51417406D01*
X127897802Y-51585058D01*
X127919106Y-51769378D01*
X127893298Y-51995733D01*
X127817193Y-52203868D01*
X127689518Y-52398334D01*
X127516101Y-52581822D01*
X127293026Y-52765560D01*
X127013006Y-52949978D01*
X126667606Y-53135001D01*
X126347809Y-53020418D01*
X126084609Y-52887186D01*
X125870325Y-52736509D01*
X125698939Y-52568235D01*
X125561597Y-52375492D01*
X125462636Y-52164087D01*
X125401735Y-51930716D01*
X125387000Y-51749075D01*
X125940739Y-51749075D01*
X126037865Y-51988602D01*
X126184423Y-52197009D01*
X126383307Y-52378886D01*
X126619958Y-52524191D01*
X126889435Y-52630374D01*
X127197613Y-52697317D01*
X127350306Y-52516795D01*
X127438715Y-52327243D01*
X127468234Y-52123286D01*
X127446557Y-51967663D01*
X127380742Y-51817140D01*
X127266001Y-51668078D01*
X127116773Y-51543695D01*
X126913202Y-51433885D01*
X126642937Y-51340243D01*
X125940739Y-51749075D01*
X125387000Y-51749075D01*
X125380690Y-51671284D01*
X125398812Y-51410967D01*
X125450660Y-51181239D01*
X125533586Y-50977787D01*
X125648592Y-50785506D01*
X125804726Y-50582782D01*
X126007662Y-50368065D01*
X126342483Y-50074928D01*
X126694961Y-49825021D01*
X127722247Y-50248386D01*
G37*
G36*
X128574898Y-53299132D02*
G01*
X128219769Y-53299132D01*
X130706161Y-49811344D01*
X131064221Y-49811344D01*
X128574898Y-53299132D01*
G37*
G36*
X131415443Y-50577289D02*
G01*
X132552149Y-49825021D01*
X133869106Y-50518305D01*
X133880097Y-50750183D01*
X133851523Y-51004065D01*
X133769194Y-51224919D01*
X133634145Y-51419530D01*
X133446573Y-51587785D01*
X133101289Y-51815641D01*
X132533098Y-52119866D01*
X132179516Y-52306636D01*
X131990635Y-52426757D01*
X131843269Y-52553126D01*
X131707801Y-52708858D01*
X132033301Y-52595726D01*
X132288367Y-52529553D01*
X132535700Y-52491076D01*
X132776364Y-52478476D01*
X133195729Y-52505617D01*
X133522281Y-52560114D01*
X133945799Y-52683640D01*
X133470258Y-53135001D01*
X133076183Y-53019800D01*
X132888471Y-52976212D01*
X132645209Y-52941020D01*
X132423921Y-52929837D01*
X132150110Y-52947151D01*
X131850125Y-53001704D01*
X131519490Y-53098456D01*
X131399078Y-53135001D01*
X131374654Y-53125383D01*
X131363663Y-53089480D01*
X131383501Y-52970540D01*
X131453789Y-52809303D01*
X131596913Y-52590642D01*
X131800858Y-52366063D01*
X131991497Y-52200073D01*
X132325491Y-51950178D01*
X132657336Y-51703907D01*
X132828143Y-51558230D01*
X133002255Y-51362198D01*
X133127341Y-51163716D01*
X133206107Y-50952321D01*
X133232609Y-50726247D01*
X133213354Y-50558243D01*
X133157942Y-50412800D01*
X133067052Y-50285228D01*
X132937564Y-50172518D01*
X131803545Y-50919657D01*
X131415443Y-50577289D01*
G37*
G36*
X135760338Y-49935726D02*
G01*
X136018222Y-50072011D01*
X136238287Y-50233621D01*
X136424131Y-50421707D01*
X136573496Y-50633575D01*
X136680530Y-50862790D01*
X136746010Y-51112554D01*
X136768513Y-51386832D01*
X136747993Y-51656099D01*
X136687549Y-51909284D01*
X136587682Y-52149152D01*
X136447334Y-52378031D01*
X136211117Y-52657218D01*
X135922714Y-52909080D01*
X135577096Y-53135001D01*
X135324917Y-53065003D01*
X135089366Y-52963449D01*
X134868060Y-52828964D01*
X134672849Y-52667110D01*
X134511301Y-52481390D01*
X134381772Y-52269251D01*
X134288151Y-52042256D01*
X134232385Y-51810933D01*
X134213733Y-51573190D01*
X134234466Y-51320363D01*
X134272090Y-51169700D01*
X134607208Y-51169700D01*
X134627721Y-51415499D01*
X134688591Y-51649774D01*
X134790146Y-51875165D01*
X134930056Y-52083505D01*
X135103767Y-52265080D01*
X135313558Y-52422269D01*
X135548570Y-52550239D01*
X135779439Y-52635997D01*
X136008918Y-52683640D01*
X136182641Y-52445283D01*
X136289064Y-52238690D01*
X136350826Y-52023748D01*
X136372351Y-51778995D01*
X136354479Y-51551737D01*
X136301281Y-51332955D01*
X136212372Y-51120547D01*
X136088548Y-50923065D01*
X135929612Y-50746979D01*
X135732923Y-50590326D01*
X135511177Y-50459142D01*
X135262597Y-50349830D01*
X134984075Y-50262705D01*
X134819597Y-50460093D01*
X134702805Y-50674534D01*
X134631662Y-50909529D01*
X134607208Y-51169700D01*
X134272090Y-51169700D01*
X134296939Y-51070191D01*
X134402782Y-50820342D01*
X134555184Y-50568741D01*
X134741865Y-50337112D01*
X134953860Y-50137445D01*
X135192370Y-49967244D01*
X135459616Y-49825021D01*
X135760338Y-49935726D01*
G37*
G36*
X137120956Y-50577289D02*
G01*
X138257662Y-49825021D01*
X139574619Y-50518305D01*
X139585610Y-50750183D01*
X139557036Y-51004065D01*
X139474706Y-51224919D01*
X139339658Y-51419530D01*
X139152086Y-51587785D01*
X138806802Y-51815641D01*
X138238611Y-52119866D01*
X137885029Y-52306636D01*
X137696147Y-52426757D01*
X137548782Y-52553126D01*
X137413314Y-52708858D01*
X137738814Y-52595726D01*
X137993879Y-52529553D01*
X138241213Y-52491076D01*
X138481877Y-52478476D01*
X138901242Y-52505617D01*
X139227794Y-52560114D01*
X139651311Y-52683640D01*
X139175771Y-53135001D01*
X138781696Y-53019800D01*
X138593984Y-52976212D01*
X138350722Y-52941020D01*
X138129434Y-52929837D01*
X137855623Y-52947151D01*
X137555638Y-53001704D01*
X137225003Y-53098456D01*
X137104591Y-53135001D01*
X137080167Y-53125383D01*
X137069176Y-53089480D01*
X137089014Y-52970540D01*
X137159302Y-52809303D01*
X137302426Y-52590642D01*
X137506371Y-52366063D01*
X137697010Y-52200073D01*
X138031004Y-51950178D01*
X138362849Y-51703907D01*
X138533656Y-51558230D01*
X138707768Y-51362198D01*
X138832854Y-51163716D01*
X138911620Y-50952321D01*
X138938122Y-50726247D01*
X138918867Y-50558243D01*
X138863455Y-50412800D01*
X138772565Y-50285228D01*
X138643077Y-50172518D01*
X137509057Y-50919657D01*
X137120956Y-50577289D01*
G37*
G36*
X142263489Y-50248386D02*
G01*
X141875631Y-50676879D01*
X140867397Y-50265483D01*
X140685488Y-50528125D01*
X140572107Y-50766639D01*
X140481276Y-51105321D01*
X140451939Y-51427865D01*
X140462930Y-51625977D01*
X141700753Y-50905979D01*
X141944291Y-51010383D01*
X142131595Y-51129388D01*
X142271793Y-51262452D01*
X142376466Y-51417406D01*
X142439044Y-51585058D01*
X142460348Y-51769378D01*
X142434540Y-51995733D01*
X142358435Y-52203868D01*
X142230760Y-52398334D01*
X142057343Y-52581822D01*
X141834268Y-52765560D01*
X141554248Y-52949978D01*
X141208848Y-53135001D01*
X140889051Y-53020418D01*
X140625851Y-52887186D01*
X140411567Y-52736509D01*
X140240181Y-52568235D01*
X140102839Y-52375492D01*
X140003878Y-52164087D01*
X139942977Y-51930716D01*
X139928243Y-51749075D01*
X140481981Y-51749075D01*
X140579107Y-51988602D01*
X140725665Y-52197009D01*
X140924549Y-52378886D01*
X141161200Y-52524191D01*
X141430677Y-52630374D01*
X141738855Y-52697317D01*
X141891549Y-52516795D01*
X141979957Y-52327243D01*
X142009476Y-52123286D01*
X141987799Y-51967663D01*
X141921984Y-51817140D01*
X141807243Y-51668078D01*
X141658015Y-51543695D01*
X141454444Y-51433885D01*
X141184180Y-51340243D01*
X140481981Y-51749075D01*
X139928243Y-51749075D01*
X139921933Y-51671284D01*
X139940054Y-51410967D01*
X139991902Y-51181239D01*
X140074829Y-50977787D01*
X140189834Y-50785506D01*
X140345968Y-50582782D01*
X140548904Y-50368065D01*
X140883725Y-50074928D01*
X141236203Y-49825021D01*
X142263489Y-50248386D01*
G37*
D11*
X158581009Y-95055714D02*
X158628628Y-94912857D01*
X158628628Y-94912857D02*
X158676247Y-94865238D01*
X158676247Y-94865238D02*
X158771485Y-94817619D01*
X158771485Y-94817619D02*
X158914342Y-94817619D01*
X158914342Y-94817619D02*
X159009580Y-94865238D01*
X159009580Y-94865238D02*
X159057200Y-94912857D01*
X159057200Y-94912857D02*
X159104819Y-95008095D01*
X159104819Y-95008095D02*
X159104819Y-95389047D01*
X159104819Y-95389047D02*
X158104819Y-95389047D01*
X158104819Y-95389047D02*
X158104819Y-95055714D01*
X158104819Y-95055714D02*
X158152438Y-94960476D01*
X158152438Y-94960476D02*
X158200057Y-94912857D01*
X158200057Y-94912857D02*
X158295295Y-94865238D01*
X158295295Y-94865238D02*
X158390533Y-94865238D01*
X158390533Y-94865238D02*
X158485771Y-94912857D01*
X158485771Y-94912857D02*
X158533390Y-94960476D01*
X158533390Y-94960476D02*
X158581009Y-95055714D01*
X158581009Y-95055714D02*
X158581009Y-95389047D01*
X158104819Y-94531904D02*
X158104819Y-93960476D01*
X159104819Y-94246190D02*
X158104819Y-94246190D01*
X158200057Y-93674761D02*
X158152438Y-93627142D01*
X158152438Y-93627142D02*
X158104819Y-93531904D01*
X158104819Y-93531904D02*
X158104819Y-93293809D01*
X158104819Y-93293809D02*
X158152438Y-93198571D01*
X158152438Y-93198571D02*
X158200057Y-93150952D01*
X158200057Y-93150952D02*
X158295295Y-93103333D01*
X158295295Y-93103333D02*
X158390533Y-93103333D01*
X158390533Y-93103333D02*
X158533390Y-93150952D01*
X158533390Y-93150952D02*
X159104819Y-93722380D01*
X159104819Y-93722380D02*
X159104819Y-93103333D01*
D12*
X101858095Y-144967419D02*
X101858095Y-143967419D01*
X101858095Y-144443609D02*
X102429523Y-144443609D01*
X102429523Y-144967419D02*
X102429523Y-143967419D01*
X103429523Y-144967419D02*
X102858095Y-144967419D01*
X103143809Y-144967419D02*
X103143809Y-143967419D01*
X103143809Y-143967419D02*
X103048571Y-144110276D01*
X103048571Y-144110276D02*
X102953333Y-144205514D01*
X102953333Y-144205514D02*
X102858095Y-144253133D01*
D11*
X103513333Y-93794819D02*
X103180000Y-93318628D01*
X102941905Y-93794819D02*
X102941905Y-92794819D01*
X102941905Y-92794819D02*
X103322857Y-92794819D01*
X103322857Y-92794819D02*
X103418095Y-92842438D01*
X103418095Y-92842438D02*
X103465714Y-92890057D01*
X103465714Y-92890057D02*
X103513333Y-92985295D01*
X103513333Y-92985295D02*
X103513333Y-93128152D01*
X103513333Y-93128152D02*
X103465714Y-93223390D01*
X103465714Y-93223390D02*
X103418095Y-93271009D01*
X103418095Y-93271009D02*
X103322857Y-93318628D01*
X103322857Y-93318628D02*
X102941905Y-93318628D01*
X104370476Y-92794819D02*
X104180000Y-92794819D01*
X104180000Y-92794819D02*
X104084762Y-92842438D01*
X104084762Y-92842438D02*
X104037143Y-92890057D01*
X104037143Y-92890057D02*
X103941905Y-93032914D01*
X103941905Y-93032914D02*
X103894286Y-93223390D01*
X103894286Y-93223390D02*
X103894286Y-93604342D01*
X103894286Y-93604342D02*
X103941905Y-93699580D01*
X103941905Y-93699580D02*
X103989524Y-93747200D01*
X103989524Y-93747200D02*
X104084762Y-93794819D01*
X104084762Y-93794819D02*
X104275238Y-93794819D01*
X104275238Y-93794819D02*
X104370476Y-93747200D01*
X104370476Y-93747200D02*
X104418095Y-93699580D01*
X104418095Y-93699580D02*
X104465714Y-93604342D01*
X104465714Y-93604342D02*
X104465714Y-93366247D01*
X104465714Y-93366247D02*
X104418095Y-93271009D01*
X104418095Y-93271009D02*
X104370476Y-93223390D01*
X104370476Y-93223390D02*
X104275238Y-93175771D01*
X104275238Y-93175771D02*
X104084762Y-93175771D01*
X104084762Y-93175771D02*
X103989524Y-93223390D01*
X103989524Y-93223390D02*
X103941905Y-93271009D01*
X103941905Y-93271009D02*
X103894286Y-93366247D01*
X124016666Y-115364819D02*
X124016666Y-116079104D01*
X124016666Y-116079104D02*
X123969047Y-116221961D01*
X123969047Y-116221961D02*
X123873809Y-116317200D01*
X123873809Y-116317200D02*
X123730952Y-116364819D01*
X123730952Y-116364819D02*
X123635714Y-116364819D01*
X124540476Y-116364819D02*
X124730952Y-116364819D01*
X124730952Y-116364819D02*
X124826190Y-116317200D01*
X124826190Y-116317200D02*
X124873809Y-116269580D01*
X124873809Y-116269580D02*
X124969047Y-116126723D01*
X124969047Y-116126723D02*
X125016666Y-115936247D01*
X125016666Y-115936247D02*
X125016666Y-115555295D01*
X125016666Y-115555295D02*
X124969047Y-115460057D01*
X124969047Y-115460057D02*
X124921428Y-115412438D01*
X124921428Y-115412438D02*
X124826190Y-115364819D01*
X124826190Y-115364819D02*
X124635714Y-115364819D01*
X124635714Y-115364819D02*
X124540476Y-115412438D01*
X124540476Y-115412438D02*
X124492857Y-115460057D01*
X124492857Y-115460057D02*
X124445238Y-115555295D01*
X124445238Y-115555295D02*
X124445238Y-115793390D01*
X124445238Y-115793390D02*
X124492857Y-115888628D01*
X124492857Y-115888628D02*
X124540476Y-115936247D01*
X124540476Y-115936247D02*
X124635714Y-115983866D01*
X124635714Y-115983866D02*
X124826190Y-115983866D01*
X124826190Y-115983866D02*
X124921428Y-115936247D01*
X124921428Y-115936247D02*
X124969047Y-115888628D01*
X124969047Y-115888628D02*
X125016666Y-115793390D01*
X128209580Y-103536666D02*
X128257200Y-103584285D01*
X128257200Y-103584285D02*
X128304819Y-103727142D01*
X128304819Y-103727142D02*
X128304819Y-103822380D01*
X128304819Y-103822380D02*
X128257200Y-103965237D01*
X128257200Y-103965237D02*
X128161961Y-104060475D01*
X128161961Y-104060475D02*
X128066723Y-104108094D01*
X128066723Y-104108094D02*
X127876247Y-104155713D01*
X127876247Y-104155713D02*
X127733390Y-104155713D01*
X127733390Y-104155713D02*
X127542914Y-104108094D01*
X127542914Y-104108094D02*
X127447676Y-104060475D01*
X127447676Y-104060475D02*
X127352438Y-103965237D01*
X127352438Y-103965237D02*
X127304819Y-103822380D01*
X127304819Y-103822380D02*
X127304819Y-103727142D01*
X127304819Y-103727142D02*
X127352438Y-103584285D01*
X127352438Y-103584285D02*
X127400057Y-103536666D01*
X127400057Y-103155713D02*
X127352438Y-103108094D01*
X127352438Y-103108094D02*
X127304819Y-103012856D01*
X127304819Y-103012856D02*
X127304819Y-102774761D01*
X127304819Y-102774761D02*
X127352438Y-102679523D01*
X127352438Y-102679523D02*
X127400057Y-102631904D01*
X127400057Y-102631904D02*
X127495295Y-102584285D01*
X127495295Y-102584285D02*
X127590533Y-102584285D01*
X127590533Y-102584285D02*
X127733390Y-102631904D01*
X127733390Y-102631904D02*
X128304819Y-103203332D01*
X128304819Y-103203332D02*
X128304819Y-102584285D01*
X111984819Y-137641904D02*
X110984819Y-137641904D01*
X111461009Y-137641904D02*
X111461009Y-137070476D01*
X111984819Y-137070476D02*
X110984819Y-137070476D01*
X110984819Y-136165714D02*
X110984819Y-136356190D01*
X110984819Y-136356190D02*
X111032438Y-136451428D01*
X111032438Y-136451428D02*
X111080057Y-136499047D01*
X111080057Y-136499047D02*
X111222914Y-136594285D01*
X111222914Y-136594285D02*
X111413390Y-136641904D01*
X111413390Y-136641904D02*
X111794342Y-136641904D01*
X111794342Y-136641904D02*
X111889580Y-136594285D01*
X111889580Y-136594285D02*
X111937200Y-136546666D01*
X111937200Y-136546666D02*
X111984819Y-136451428D01*
X111984819Y-136451428D02*
X111984819Y-136260952D01*
X111984819Y-136260952D02*
X111937200Y-136165714D01*
X111937200Y-136165714D02*
X111889580Y-136118095D01*
X111889580Y-136118095D02*
X111794342Y-136070476D01*
X111794342Y-136070476D02*
X111556247Y-136070476D01*
X111556247Y-136070476D02*
X111461009Y-136118095D01*
X111461009Y-136118095D02*
X111413390Y-136165714D01*
X111413390Y-136165714D02*
X111365771Y-136260952D01*
X111365771Y-136260952D02*
X111365771Y-136451428D01*
X111365771Y-136451428D02*
X111413390Y-136546666D01*
X111413390Y-136546666D02*
X111461009Y-136594285D01*
X111461009Y-136594285D02*
X111556247Y-136641904D01*
X97373333Y-92184819D02*
X97040000Y-91708628D01*
X96801905Y-92184819D02*
X96801905Y-91184819D01*
X96801905Y-91184819D02*
X97182857Y-91184819D01*
X97182857Y-91184819D02*
X97278095Y-91232438D01*
X97278095Y-91232438D02*
X97325714Y-91280057D01*
X97325714Y-91280057D02*
X97373333Y-91375295D01*
X97373333Y-91375295D02*
X97373333Y-91518152D01*
X97373333Y-91518152D02*
X97325714Y-91613390D01*
X97325714Y-91613390D02*
X97278095Y-91661009D01*
X97278095Y-91661009D02*
X97182857Y-91708628D01*
X97182857Y-91708628D02*
X96801905Y-91708628D01*
X97706667Y-91184819D02*
X98373333Y-91184819D01*
X98373333Y-91184819D02*
X97944762Y-92184819D01*
X138443333Y-97684819D02*
X138110000Y-97208628D01*
X137871905Y-97684819D02*
X137871905Y-96684819D01*
X137871905Y-96684819D02*
X138252857Y-96684819D01*
X138252857Y-96684819D02*
X138348095Y-96732438D01*
X138348095Y-96732438D02*
X138395714Y-96780057D01*
X138395714Y-96780057D02*
X138443333Y-96875295D01*
X138443333Y-96875295D02*
X138443333Y-97018152D01*
X138443333Y-97018152D02*
X138395714Y-97113390D01*
X138395714Y-97113390D02*
X138348095Y-97161009D01*
X138348095Y-97161009D02*
X138252857Y-97208628D01*
X138252857Y-97208628D02*
X137871905Y-97208628D01*
X139348095Y-96684819D02*
X138871905Y-96684819D01*
X138871905Y-96684819D02*
X138824286Y-97161009D01*
X138824286Y-97161009D02*
X138871905Y-97113390D01*
X138871905Y-97113390D02*
X138967143Y-97065771D01*
X138967143Y-97065771D02*
X139205238Y-97065771D01*
X139205238Y-97065771D02*
X139300476Y-97113390D01*
X139300476Y-97113390D02*
X139348095Y-97161009D01*
X139348095Y-97161009D02*
X139395714Y-97256247D01*
X139395714Y-97256247D02*
X139395714Y-97494342D01*
X139395714Y-97494342D02*
X139348095Y-97589580D01*
X139348095Y-97589580D02*
X139300476Y-97637200D01*
X139300476Y-97637200D02*
X139205238Y-97684819D01*
X139205238Y-97684819D02*
X138967143Y-97684819D01*
X138967143Y-97684819D02*
X138871905Y-97637200D01*
X138871905Y-97637200D02*
X138824286Y-97589580D01*
X138154819Y-146331904D02*
X137154819Y-146331904D01*
X137631009Y-146331904D02*
X137631009Y-145760476D01*
X138154819Y-145760476D02*
X137154819Y-145760476D01*
X137154819Y-145379523D02*
X137154819Y-144712857D01*
X137154819Y-144712857D02*
X138154819Y-145141428D01*
X99176666Y-114974819D02*
X99176666Y-115689104D01*
X99176666Y-115689104D02*
X99129047Y-115831961D01*
X99129047Y-115831961D02*
X99033809Y-115927200D01*
X99033809Y-115927200D02*
X98890952Y-115974819D01*
X98890952Y-115974819D02*
X98795714Y-115974819D01*
X100129047Y-114974819D02*
X99652857Y-114974819D01*
X99652857Y-114974819D02*
X99605238Y-115451009D01*
X99605238Y-115451009D02*
X99652857Y-115403390D01*
X99652857Y-115403390D02*
X99748095Y-115355771D01*
X99748095Y-115355771D02*
X99986190Y-115355771D01*
X99986190Y-115355771D02*
X100081428Y-115403390D01*
X100081428Y-115403390D02*
X100129047Y-115451009D01*
X100129047Y-115451009D02*
X100176666Y-115546247D01*
X100176666Y-115546247D02*
X100176666Y-115784342D01*
X100176666Y-115784342D02*
X100129047Y-115879580D01*
X100129047Y-115879580D02*
X100081428Y-115927200D01*
X100081428Y-115927200D02*
X99986190Y-115974819D01*
X99986190Y-115974819D02*
X99748095Y-115974819D01*
X99748095Y-115974819D02*
X99652857Y-115927200D01*
X99652857Y-115927200D02*
X99605238Y-115879580D01*
X156246667Y-105077200D02*
X156389524Y-105124819D01*
X156389524Y-105124819D02*
X156627619Y-105124819D01*
X156627619Y-105124819D02*
X156722857Y-105077200D01*
X156722857Y-105077200D02*
X156770476Y-105029580D01*
X156770476Y-105029580D02*
X156818095Y-104934342D01*
X156818095Y-104934342D02*
X156818095Y-104839104D01*
X156818095Y-104839104D02*
X156770476Y-104743866D01*
X156770476Y-104743866D02*
X156722857Y-104696247D01*
X156722857Y-104696247D02*
X156627619Y-104648628D01*
X156627619Y-104648628D02*
X156437143Y-104601009D01*
X156437143Y-104601009D02*
X156341905Y-104553390D01*
X156341905Y-104553390D02*
X156294286Y-104505771D01*
X156294286Y-104505771D02*
X156246667Y-104410533D01*
X156246667Y-104410533D02*
X156246667Y-104315295D01*
X156246667Y-104315295D02*
X156294286Y-104220057D01*
X156294286Y-104220057D02*
X156341905Y-104172438D01*
X156341905Y-104172438D02*
X156437143Y-104124819D01*
X156437143Y-104124819D02*
X156675238Y-104124819D01*
X156675238Y-104124819D02*
X156818095Y-104172438D01*
X157151429Y-104124819D02*
X157389524Y-105124819D01*
X157389524Y-105124819D02*
X157580000Y-104410533D01*
X157580000Y-104410533D02*
X157770476Y-105124819D01*
X157770476Y-105124819D02*
X158008572Y-104124819D01*
X158865714Y-104124819D02*
X158389524Y-104124819D01*
X158389524Y-104124819D02*
X158341905Y-104601009D01*
X158341905Y-104601009D02*
X158389524Y-104553390D01*
X158389524Y-104553390D02*
X158484762Y-104505771D01*
X158484762Y-104505771D02*
X158722857Y-104505771D01*
X158722857Y-104505771D02*
X158818095Y-104553390D01*
X158818095Y-104553390D02*
X158865714Y-104601009D01*
X158865714Y-104601009D02*
X158913333Y-104696247D01*
X158913333Y-104696247D02*
X158913333Y-104934342D01*
X158913333Y-104934342D02*
X158865714Y-105029580D01*
X158865714Y-105029580D02*
X158818095Y-105077200D01*
X158818095Y-105077200D02*
X158722857Y-105124819D01*
X158722857Y-105124819D02*
X158484762Y-105124819D01*
X158484762Y-105124819D02*
X158389524Y-105077200D01*
X158389524Y-105077200D02*
X158341905Y-105029580D01*
X105486666Y-115004819D02*
X105486666Y-115719104D01*
X105486666Y-115719104D02*
X105439047Y-115861961D01*
X105439047Y-115861961D02*
X105343809Y-115957200D01*
X105343809Y-115957200D02*
X105200952Y-116004819D01*
X105200952Y-116004819D02*
X105105714Y-116004819D01*
X106391428Y-115004819D02*
X106200952Y-115004819D01*
X106200952Y-115004819D02*
X106105714Y-115052438D01*
X106105714Y-115052438D02*
X106058095Y-115100057D01*
X106058095Y-115100057D02*
X105962857Y-115242914D01*
X105962857Y-115242914D02*
X105915238Y-115433390D01*
X105915238Y-115433390D02*
X105915238Y-115814342D01*
X105915238Y-115814342D02*
X105962857Y-115909580D01*
X105962857Y-115909580D02*
X106010476Y-115957200D01*
X106010476Y-115957200D02*
X106105714Y-116004819D01*
X106105714Y-116004819D02*
X106296190Y-116004819D01*
X106296190Y-116004819D02*
X106391428Y-115957200D01*
X106391428Y-115957200D02*
X106439047Y-115909580D01*
X106439047Y-115909580D02*
X106486666Y-115814342D01*
X106486666Y-115814342D02*
X106486666Y-115576247D01*
X106486666Y-115576247D02*
X106439047Y-115481009D01*
X106439047Y-115481009D02*
X106391428Y-115433390D01*
X106391428Y-115433390D02*
X106296190Y-115385771D01*
X106296190Y-115385771D02*
X106105714Y-115385771D01*
X106105714Y-115385771D02*
X106010476Y-115433390D01*
X106010476Y-115433390D02*
X105962857Y-115481009D01*
X105962857Y-115481009D02*
X105915238Y-115576247D01*
D12*
X117536742Y-124216999D02*
X117536742Y-125026522D01*
X117536742Y-125026522D02*
X117584361Y-125121760D01*
X117584361Y-125121760D02*
X117631980Y-125169380D01*
X117631980Y-125169380D02*
X117727218Y-125216999D01*
X117727218Y-125216999D02*
X117917694Y-125216999D01*
X117917694Y-125216999D02*
X118012932Y-125169380D01*
X118012932Y-125169380D02*
X118060551Y-125121760D01*
X118060551Y-125121760D02*
X118108170Y-125026522D01*
X118108170Y-125026522D02*
X118108170Y-124216999D01*
X118536742Y-124312237D02*
X118584361Y-124264618D01*
X118584361Y-124264618D02*
X118679599Y-124216999D01*
X118679599Y-124216999D02*
X118917694Y-124216999D01*
X118917694Y-124216999D02*
X119012932Y-124264618D01*
X119012932Y-124264618D02*
X119060551Y-124312237D01*
X119060551Y-124312237D02*
X119108170Y-124407475D01*
X119108170Y-124407475D02*
X119108170Y-124502713D01*
X119108170Y-124502713D02*
X119060551Y-124645570D01*
X119060551Y-124645570D02*
X118489123Y-125216999D01*
X118489123Y-125216999D02*
X119108170Y-125216999D01*
D11*
X118156666Y-115314819D02*
X118156666Y-116029104D01*
X118156666Y-116029104D02*
X118109047Y-116171961D01*
X118109047Y-116171961D02*
X118013809Y-116267200D01*
X118013809Y-116267200D02*
X117870952Y-116314819D01*
X117870952Y-116314819D02*
X117775714Y-116314819D01*
X118775714Y-115743390D02*
X118680476Y-115695771D01*
X118680476Y-115695771D02*
X118632857Y-115648152D01*
X118632857Y-115648152D02*
X118585238Y-115552914D01*
X118585238Y-115552914D02*
X118585238Y-115505295D01*
X118585238Y-115505295D02*
X118632857Y-115410057D01*
X118632857Y-115410057D02*
X118680476Y-115362438D01*
X118680476Y-115362438D02*
X118775714Y-115314819D01*
X118775714Y-115314819D02*
X118966190Y-115314819D01*
X118966190Y-115314819D02*
X119061428Y-115362438D01*
X119061428Y-115362438D02*
X119109047Y-115410057D01*
X119109047Y-115410057D02*
X119156666Y-115505295D01*
X119156666Y-115505295D02*
X119156666Y-115552914D01*
X119156666Y-115552914D02*
X119109047Y-115648152D01*
X119109047Y-115648152D02*
X119061428Y-115695771D01*
X119061428Y-115695771D02*
X118966190Y-115743390D01*
X118966190Y-115743390D02*
X118775714Y-115743390D01*
X118775714Y-115743390D02*
X118680476Y-115791009D01*
X118680476Y-115791009D02*
X118632857Y-115838628D01*
X118632857Y-115838628D02*
X118585238Y-115933866D01*
X118585238Y-115933866D02*
X118585238Y-116124342D01*
X118585238Y-116124342D02*
X118632857Y-116219580D01*
X118632857Y-116219580D02*
X118680476Y-116267200D01*
X118680476Y-116267200D02*
X118775714Y-116314819D01*
X118775714Y-116314819D02*
X118966190Y-116314819D01*
X118966190Y-116314819D02*
X119061428Y-116267200D01*
X119061428Y-116267200D02*
X119109047Y-116219580D01*
X119109047Y-116219580D02*
X119156666Y-116124342D01*
X119156666Y-116124342D02*
X119156666Y-115933866D01*
X119156666Y-115933866D02*
X119109047Y-115838628D01*
X119109047Y-115838628D02*
X119061428Y-115791009D01*
X119061428Y-115791009D02*
X118966190Y-115743390D01*
X142956666Y-107014819D02*
X142956666Y-107729104D01*
X142956666Y-107729104D02*
X142909047Y-107871961D01*
X142909047Y-107871961D02*
X142813809Y-107967200D01*
X142813809Y-107967200D02*
X142670952Y-108014819D01*
X142670952Y-108014819D02*
X142575714Y-108014819D01*
X143337619Y-107014819D02*
X143956666Y-107014819D01*
X143956666Y-107014819D02*
X143623333Y-107395771D01*
X143623333Y-107395771D02*
X143766190Y-107395771D01*
X143766190Y-107395771D02*
X143861428Y-107443390D01*
X143861428Y-107443390D02*
X143909047Y-107491009D01*
X143909047Y-107491009D02*
X143956666Y-107586247D01*
X143956666Y-107586247D02*
X143956666Y-107824342D01*
X143956666Y-107824342D02*
X143909047Y-107919580D01*
X143909047Y-107919580D02*
X143861428Y-107967200D01*
X143861428Y-107967200D02*
X143766190Y-108014819D01*
X143766190Y-108014819D02*
X143480476Y-108014819D01*
X143480476Y-108014819D02*
X143385238Y-107967200D01*
X143385238Y-107967200D02*
X143337619Y-107919580D01*
X111984819Y-146331904D02*
X110984819Y-146331904D01*
X111461009Y-146331904D02*
X111461009Y-145760476D01*
X111984819Y-145760476D02*
X110984819Y-145760476D01*
X110984819Y-144808095D02*
X110984819Y-145284285D01*
X110984819Y-145284285D02*
X111461009Y-145331904D01*
X111461009Y-145331904D02*
X111413390Y-145284285D01*
X111413390Y-145284285D02*
X111365771Y-145189047D01*
X111365771Y-145189047D02*
X111365771Y-144950952D01*
X111365771Y-144950952D02*
X111413390Y-144855714D01*
X111413390Y-144855714D02*
X111461009Y-144808095D01*
X111461009Y-144808095D02*
X111556247Y-144760476D01*
X111556247Y-144760476D02*
X111794342Y-144760476D01*
X111794342Y-144760476D02*
X111889580Y-144808095D01*
X111889580Y-144808095D02*
X111937200Y-144855714D01*
X111937200Y-144855714D02*
X111984819Y-144950952D01*
X111984819Y-144950952D02*
X111984819Y-145189047D01*
X111984819Y-145189047D02*
X111937200Y-145284285D01*
X111937200Y-145284285D02*
X111889580Y-145331904D01*
X111956666Y-115134819D02*
X111956666Y-115849104D01*
X111956666Y-115849104D02*
X111909047Y-115991961D01*
X111909047Y-115991961D02*
X111813809Y-116087200D01*
X111813809Y-116087200D02*
X111670952Y-116134819D01*
X111670952Y-116134819D02*
X111575714Y-116134819D01*
X112337619Y-115134819D02*
X113004285Y-115134819D01*
X113004285Y-115134819D02*
X112575714Y-116134819D01*
X130090057Y-106422738D02*
X130042438Y-106517976D01*
X130042438Y-106517976D02*
X129947200Y-106613214D01*
X129947200Y-106613214D02*
X129804342Y-106756071D01*
X129804342Y-106756071D02*
X129756723Y-106851309D01*
X129756723Y-106851309D02*
X129756723Y-106946547D01*
X129994819Y-106898928D02*
X129947200Y-106994166D01*
X129947200Y-106994166D02*
X129851961Y-107089404D01*
X129851961Y-107089404D02*
X129661485Y-107137023D01*
X129661485Y-107137023D02*
X129328152Y-107137023D01*
X129328152Y-107137023D02*
X129137676Y-107089404D01*
X129137676Y-107089404D02*
X129042438Y-106994166D01*
X129042438Y-106994166D02*
X128994819Y-106898928D01*
X128994819Y-106898928D02*
X128994819Y-106708452D01*
X128994819Y-106708452D02*
X129042438Y-106613214D01*
X129042438Y-106613214D02*
X129137676Y-106517976D01*
X129137676Y-106517976D02*
X129328152Y-106470357D01*
X129328152Y-106470357D02*
X129661485Y-106470357D01*
X129661485Y-106470357D02*
X129851961Y-106517976D01*
X129851961Y-106517976D02*
X129947200Y-106613214D01*
X129947200Y-106613214D02*
X129994819Y-106708452D01*
X129994819Y-106708452D02*
X129994819Y-106898928D01*
X129328152Y-105613214D02*
X129994819Y-105613214D01*
X128947200Y-105851309D02*
X129661485Y-106089404D01*
X129661485Y-106089404D02*
X129661485Y-105470357D01*
D12*
X101728095Y-43907419D02*
X101728095Y-42907419D01*
X101728095Y-43383609D02*
X102299523Y-43383609D01*
X102299523Y-43907419D02*
X102299523Y-42907419D01*
X102728095Y-43002657D02*
X102775714Y-42955038D01*
X102775714Y-42955038D02*
X102870952Y-42907419D01*
X102870952Y-42907419D02*
X103109047Y-42907419D01*
X103109047Y-42907419D02*
X103204285Y-42955038D01*
X103204285Y-42955038D02*
X103251904Y-43002657D01*
X103251904Y-43002657D02*
X103299523Y-43097895D01*
X103299523Y-43097895D02*
X103299523Y-43193133D01*
X103299523Y-43193133D02*
X103251904Y-43335990D01*
X103251904Y-43335990D02*
X102680476Y-43907419D01*
X102680476Y-43907419D02*
X103299523Y-43907419D01*
X151552580Y-120958095D02*
X150743057Y-120958095D01*
X150743057Y-120958095D02*
X150647819Y-121005714D01*
X150647819Y-121005714D02*
X150600200Y-121053333D01*
X150600200Y-121053333D02*
X150552580Y-121148571D01*
X150552580Y-121148571D02*
X150552580Y-121339047D01*
X150552580Y-121339047D02*
X150600200Y-121434285D01*
X150600200Y-121434285D02*
X150647819Y-121481904D01*
X150647819Y-121481904D02*
X150743057Y-121529523D01*
X150743057Y-121529523D02*
X151552580Y-121529523D01*
X150552580Y-122529523D02*
X150552580Y-121958095D01*
X150552580Y-122243809D02*
X151552580Y-122243809D01*
X151552580Y-122243809D02*
X151409723Y-122148571D01*
X151409723Y-122148571D02*
X151314485Y-122053333D01*
X151314485Y-122053333D02*
X151266866Y-121958095D01*
X151748095Y-144807419D02*
X151748095Y-143807419D01*
X151748095Y-144283609D02*
X152319523Y-144283609D01*
X152319523Y-144807419D02*
X152319523Y-143807419D01*
X153224285Y-144140752D02*
X153224285Y-144807419D01*
X152986190Y-143759800D02*
X152748095Y-144474085D01*
X152748095Y-144474085D02*
X153367142Y-144474085D01*
D11*
X143483333Y-94569580D02*
X143435714Y-94617200D01*
X143435714Y-94617200D02*
X143292857Y-94664819D01*
X143292857Y-94664819D02*
X143197619Y-94664819D01*
X143197619Y-94664819D02*
X143054762Y-94617200D01*
X143054762Y-94617200D02*
X142959524Y-94521961D01*
X142959524Y-94521961D02*
X142911905Y-94426723D01*
X142911905Y-94426723D02*
X142864286Y-94236247D01*
X142864286Y-94236247D02*
X142864286Y-94093390D01*
X142864286Y-94093390D02*
X142911905Y-93902914D01*
X142911905Y-93902914D02*
X142959524Y-93807676D01*
X142959524Y-93807676D02*
X143054762Y-93712438D01*
X143054762Y-93712438D02*
X143197619Y-93664819D01*
X143197619Y-93664819D02*
X143292857Y-93664819D01*
X143292857Y-93664819D02*
X143435714Y-93712438D01*
X143435714Y-93712438D02*
X143483333Y-93760057D01*
X144435714Y-94664819D02*
X143864286Y-94664819D01*
X144150000Y-94664819D02*
X144150000Y-93664819D01*
X144150000Y-93664819D02*
X144054762Y-93807676D01*
X144054762Y-93807676D02*
X143959524Y-93902914D01*
X143959524Y-93902914D02*
X143864286Y-93950533D01*
X138154819Y-137631904D02*
X137154819Y-137631904D01*
X137631009Y-137631904D02*
X137631009Y-137060476D01*
X138154819Y-137060476D02*
X137154819Y-137060476D01*
X137583390Y-136441428D02*
X137535771Y-136536666D01*
X137535771Y-136536666D02*
X137488152Y-136584285D01*
X137488152Y-136584285D02*
X137392914Y-136631904D01*
X137392914Y-136631904D02*
X137345295Y-136631904D01*
X137345295Y-136631904D02*
X137250057Y-136584285D01*
X137250057Y-136584285D02*
X137202438Y-136536666D01*
X137202438Y-136536666D02*
X137154819Y-136441428D01*
X137154819Y-136441428D02*
X137154819Y-136250952D01*
X137154819Y-136250952D02*
X137202438Y-136155714D01*
X137202438Y-136155714D02*
X137250057Y-136108095D01*
X137250057Y-136108095D02*
X137345295Y-136060476D01*
X137345295Y-136060476D02*
X137392914Y-136060476D01*
X137392914Y-136060476D02*
X137488152Y-136108095D01*
X137488152Y-136108095D02*
X137535771Y-136155714D01*
X137535771Y-136155714D02*
X137583390Y-136250952D01*
X137583390Y-136250952D02*
X137583390Y-136441428D01*
X137583390Y-136441428D02*
X137631009Y-136536666D01*
X137631009Y-136536666D02*
X137678628Y-136584285D01*
X137678628Y-136584285D02*
X137773866Y-136631904D01*
X137773866Y-136631904D02*
X137964342Y-136631904D01*
X137964342Y-136631904D02*
X138059580Y-136584285D01*
X138059580Y-136584285D02*
X138107200Y-136536666D01*
X138107200Y-136536666D02*
X138154819Y-136441428D01*
X138154819Y-136441428D02*
X138154819Y-136250952D01*
X138154819Y-136250952D02*
X138107200Y-136155714D01*
X138107200Y-136155714D02*
X138059580Y-136108095D01*
X138059580Y-136108095D02*
X137964342Y-136060476D01*
X137964342Y-136060476D02*
X137773866Y-136060476D01*
X137773866Y-136060476D02*
X137678628Y-136108095D01*
X137678628Y-136108095D02*
X137631009Y-136155714D01*
X137631009Y-136155714D02*
X137583390Y-136250952D01*
X143433333Y-100964819D02*
X143100000Y-100488628D01*
X142861905Y-100964819D02*
X142861905Y-99964819D01*
X142861905Y-99964819D02*
X143242857Y-99964819D01*
X143242857Y-99964819D02*
X143338095Y-100012438D01*
X143338095Y-100012438D02*
X143385714Y-100060057D01*
X143385714Y-100060057D02*
X143433333Y-100155295D01*
X143433333Y-100155295D02*
X143433333Y-100298152D01*
X143433333Y-100298152D02*
X143385714Y-100393390D01*
X143385714Y-100393390D02*
X143338095Y-100441009D01*
X143338095Y-100441009D02*
X143242857Y-100488628D01*
X143242857Y-100488628D02*
X142861905Y-100488628D01*
X144290476Y-100298152D02*
X144290476Y-100964819D01*
X144052381Y-99917200D02*
X143814286Y-100631485D01*
X143814286Y-100631485D02*
X144433333Y-100631485D01*
D12*
X151868095Y-44117419D02*
X151868095Y-43117419D01*
X151868095Y-43593609D02*
X152439523Y-43593609D01*
X152439523Y-44117419D02*
X152439523Y-43117419D01*
X152820476Y-43117419D02*
X153439523Y-43117419D01*
X153439523Y-43117419D02*
X153106190Y-43498371D01*
X153106190Y-43498371D02*
X153249047Y-43498371D01*
X153249047Y-43498371D02*
X153344285Y-43545990D01*
X153344285Y-43545990D02*
X153391904Y-43593609D01*
X153391904Y-43593609D02*
X153439523Y-43688847D01*
X153439523Y-43688847D02*
X153439523Y-43926942D01*
X153439523Y-43926942D02*
X153391904Y-44022180D01*
X153391904Y-44022180D02*
X153344285Y-44069800D01*
X153344285Y-44069800D02*
X153249047Y-44117419D01*
X153249047Y-44117419D02*
X152963333Y-44117419D01*
X152963333Y-44117419D02*
X152868095Y-44069800D01*
X152868095Y-44069800D02*
X152820476Y-44022180D01*
D11*
X103214819Y-100415238D02*
X102738628Y-100748571D01*
X103214819Y-100986666D02*
X102214819Y-100986666D01*
X102214819Y-100986666D02*
X102214819Y-100605714D01*
X102214819Y-100605714D02*
X102262438Y-100510476D01*
X102262438Y-100510476D02*
X102310057Y-100462857D01*
X102310057Y-100462857D02*
X102405295Y-100415238D01*
X102405295Y-100415238D02*
X102548152Y-100415238D01*
X102548152Y-100415238D02*
X102643390Y-100462857D01*
X102643390Y-100462857D02*
X102691009Y-100510476D01*
X102691009Y-100510476D02*
X102738628Y-100605714D01*
X102738628Y-100605714D02*
X102738628Y-100986666D01*
X102214819Y-100129523D02*
X103214819Y-99796190D01*
X103214819Y-99796190D02*
X102214819Y-99462857D01*
X103214819Y-98605714D02*
X103214819Y-99177142D01*
X103214819Y-98891428D02*
X102214819Y-98891428D01*
X102214819Y-98891428D02*
X102357676Y-98986666D01*
X102357676Y-98986666D02*
X102452914Y-99081904D01*
X102452914Y-99081904D02*
X102500533Y-99177142D01*
%TO.C,BT2*%
D13*
X149740000Y-91210000D02*
X149740000Y-97330000D01*
X149740000Y-93770000D02*
X154100000Y-93770000D01*
X149740000Y-97330000D02*
X157560000Y-97330000D01*
X152000000Y-92470000D02*
X149740000Y-92470000D01*
X152000000Y-92970000D02*
X149740000Y-92970000D01*
X154100000Y-93770000D02*
X154100000Y-94770000D01*
X154100000Y-94770000D02*
X149740000Y-94770000D01*
X155960000Y-91210000D02*
X155960000Y-92130000D01*
X155960000Y-92130000D02*
X157560000Y-92130000D01*
X155960000Y-92410000D02*
X155960000Y-92130000D01*
X155960000Y-92410000D02*
X157175000Y-92410000D01*
X155960000Y-96410000D02*
X155960000Y-96130000D01*
X155960000Y-97330000D02*
X155960000Y-96410000D01*
X157560000Y-91210000D02*
X149740000Y-91210000D01*
X157560000Y-92130000D02*
X157560000Y-91210000D01*
X157560000Y-96410000D02*
X155960000Y-96410000D01*
X157560000Y-97330000D02*
X157560000Y-96410000D01*
X152000000Y-91970000D02*
X153600000Y-91970000D01*
X153600000Y-92970000D01*
X152000000Y-92970000D01*
X152000000Y-91970000D01*
X152000000Y-95570000D02*
X153600000Y-95570000D01*
X153600000Y-96570000D01*
X152000000Y-96570000D01*
X152000000Y-95570000D01*
%TO.C,R15*%
X110175000Y-102029564D02*
X110175000Y-101575436D01*
X111645000Y-102029564D02*
X111645000Y-101575436D01*
%TO.C,R3*%
X134905000Y-106804564D02*
X134905000Y-106350436D01*
X136375000Y-106804564D02*
X136375000Y-106350436D01*
%TO.C,R6*%
X100652936Y-92535000D02*
X101107064Y-92535000D01*
X100652936Y-94005000D02*
X101107064Y-94005000D01*
%TO.C,J9*%
X121750000Y-113640000D02*
X121750000Y-114890000D01*
X121750000Y-114890000D02*
X123000000Y-114890000D01*
X121850000Y-112830000D02*
X121850000Y-113130000D01*
X121850000Y-113130000D02*
X122050000Y-113130000D01*
X121950000Y-112830000D02*
X121950000Y-113130000D01*
X122050000Y-112030000D02*
X122660000Y-112030000D01*
X122050000Y-112830000D02*
X121850000Y-112830000D01*
X122660000Y-105080000D02*
X122660000Y-107030000D01*
X122660000Y-107030000D02*
X122050000Y-107030000D01*
X122660000Y-112030000D02*
X122660000Y-113980000D01*
X122660000Y-113980000D02*
X126160000Y-113980000D01*
X123360000Y-104470000D02*
X123360000Y-105080000D01*
X123360000Y-114590000D02*
X123360000Y-113980000D01*
X124660000Y-104470000D02*
X124660000Y-105080000D01*
X124660000Y-114590000D02*
X124660000Y-113980000D01*
X125660000Y-107430000D02*
X126160000Y-107430000D01*
X125660000Y-107630000D02*
X125660000Y-107430000D01*
X125660000Y-109430000D02*
X126160000Y-109430000D01*
X125660000Y-109630000D02*
X125660000Y-109430000D01*
X125660000Y-111430000D02*
X126160000Y-111430000D01*
X125660000Y-111630000D02*
X125660000Y-111430000D01*
X126160000Y-105080000D02*
X122660000Y-105080000D01*
X126160000Y-107530000D02*
X125660000Y-107530000D01*
X126160000Y-107630000D02*
X125660000Y-107630000D01*
X126160000Y-109530000D02*
X125660000Y-109530000D01*
X126160000Y-109630000D02*
X125660000Y-109630000D01*
X126160000Y-111530000D02*
X125660000Y-111530000D01*
X126160000Y-111630000D02*
X125660000Y-111630000D01*
X126160000Y-113980000D02*
X126160000Y-105080000D01*
X122050000Y-104470000D02*
X126770000Y-104470000D01*
X126770000Y-114590000D01*
X122050000Y-114590000D01*
X122050000Y-104470000D01*
%TO.C,R12*%
X103855000Y-101492936D02*
X103855000Y-101947064D01*
X105325000Y-101492936D02*
X105325000Y-101947064D01*
%TO.C,C2*%
X128795000Y-103631252D02*
X128795000Y-103108748D01*
X130265000Y-103631252D02*
X130265000Y-103108748D01*
%TO.C,R7*%
X96745000Y-94377064D02*
X96745000Y-93922936D01*
X98215000Y-94377064D02*
X98215000Y-93922936D01*
%TO.C,R5*%
X138382936Y-98145000D02*
X138837064Y-98145000D01*
X138382936Y-99615000D02*
X138837064Y-99615000D01*
%TO.C,R14*%
X112570000Y-101560436D02*
X112570000Y-102014564D01*
X114040000Y-101560436D02*
X114040000Y-102014564D01*
%TO.C,J5*%
X96935000Y-113495000D02*
X96935000Y-114745000D01*
X96935000Y-114745000D02*
X98185000Y-114745000D01*
X97035000Y-112685000D02*
X97035000Y-112985000D01*
X97035000Y-112985000D02*
X97235000Y-112985000D01*
X97135000Y-112685000D02*
X97135000Y-112985000D01*
X97235000Y-111885000D02*
X97845000Y-111885000D01*
X97235000Y-112685000D02*
X97035000Y-112685000D01*
X97845000Y-104935000D02*
X97845000Y-106885000D01*
X97845000Y-106885000D02*
X97235000Y-106885000D01*
X97845000Y-111885000D02*
X97845000Y-113835000D01*
X97845000Y-113835000D02*
X101345000Y-113835000D01*
X98545000Y-104325000D02*
X98545000Y-104935000D01*
X98545000Y-114445000D02*
X98545000Y-113835000D01*
X99845000Y-104325000D02*
X99845000Y-104935000D01*
X99845000Y-114445000D02*
X99845000Y-113835000D01*
X100845000Y-107285000D02*
X101345000Y-107285000D01*
X100845000Y-107485000D02*
X100845000Y-107285000D01*
X100845000Y-109285000D02*
X101345000Y-109285000D01*
X100845000Y-109485000D02*
X100845000Y-109285000D01*
X100845000Y-111285000D02*
X101345000Y-111285000D01*
X100845000Y-111485000D02*
X100845000Y-111285000D01*
X101345000Y-104935000D02*
X97845000Y-104935000D01*
X101345000Y-107385000D02*
X100845000Y-107385000D01*
X101345000Y-107485000D02*
X100845000Y-107485000D01*
X101345000Y-109385000D02*
X100845000Y-109385000D01*
X101345000Y-109485000D02*
X100845000Y-109485000D01*
X101345000Y-111385000D02*
X100845000Y-111385000D01*
X101345000Y-111485000D02*
X100845000Y-111485000D01*
X101345000Y-113835000D02*
X101345000Y-104935000D01*
X97235000Y-104325000D02*
X101955000Y-104325000D01*
X101955000Y-114445000D01*
X97235000Y-114445000D01*
X97235000Y-104325000D01*
%TO.C,SW5*%
D14*
X149057700Y-98895900D02*
X149057700Y-99925945D01*
X157922300Y-98895900D02*
X149057700Y-98895900D01*
X157922300Y-99925945D02*
X157922300Y-98895900D01*
X147660700Y-101220000D02*
G75*
G02*
X146898700Y-101220000I-381000J0D01*
G01*
X146898700Y-101220000D02*
G75*
G02*
X147660700Y-101220000I381000J0D01*
G01*
%TO.C,R11*%
D13*
X118915000Y-101949564D02*
X118915000Y-101495436D01*
X120385000Y-101949564D02*
X120385000Y-101495436D01*
%TO.C,R13*%
X106255000Y-101650436D02*
X106255000Y-102104564D01*
X107725000Y-101650436D02*
X107725000Y-102104564D01*
%TO.C,J6*%
X103075000Y-113505000D02*
X103075000Y-114755000D01*
X103075000Y-114755000D02*
X104325000Y-114755000D01*
X103175000Y-112695000D02*
X103175000Y-112995000D01*
X103175000Y-112995000D02*
X103375000Y-112995000D01*
X103275000Y-112695000D02*
X103275000Y-112995000D01*
X103375000Y-111895000D02*
X103985000Y-111895000D01*
X103375000Y-112695000D02*
X103175000Y-112695000D01*
X103985000Y-104945000D02*
X103985000Y-106895000D01*
X103985000Y-106895000D02*
X103375000Y-106895000D01*
X103985000Y-111895000D02*
X103985000Y-113845000D01*
X103985000Y-113845000D02*
X107485000Y-113845000D01*
X104685000Y-104335000D02*
X104685000Y-104945000D01*
X104685000Y-114455000D02*
X104685000Y-113845000D01*
X105985000Y-104335000D02*
X105985000Y-104945000D01*
X105985000Y-114455000D02*
X105985000Y-113845000D01*
X106985000Y-107295000D02*
X107485000Y-107295000D01*
X106985000Y-107495000D02*
X106985000Y-107295000D01*
X106985000Y-109295000D02*
X107485000Y-109295000D01*
X106985000Y-109495000D02*
X106985000Y-109295000D01*
X106985000Y-111295000D02*
X107485000Y-111295000D01*
X106985000Y-111495000D02*
X106985000Y-111295000D01*
X107485000Y-104945000D02*
X103985000Y-104945000D01*
X107485000Y-107395000D02*
X106985000Y-107395000D01*
X107485000Y-107495000D02*
X106985000Y-107495000D01*
X107485000Y-109395000D02*
X106985000Y-109395000D01*
X107485000Y-109495000D02*
X106985000Y-109495000D01*
X107485000Y-111395000D02*
X106985000Y-111395000D01*
X107485000Y-111495000D02*
X106985000Y-111495000D01*
X107485000Y-113845000D02*
X107485000Y-104945000D01*
X103375000Y-104335000D02*
X108095000Y-104335000D01*
X108095000Y-114455000D01*
X103375000Y-114455000D01*
X103375000Y-104335000D01*
%TO.C,R10*%
X116190000Y-101510436D02*
X116190000Y-101964564D01*
X117660000Y-101510436D02*
X117660000Y-101964564D01*
%TO.C,U2*%
D12*
X99730000Y-116700000D02*
X136930000Y-116700000D01*
X136930000Y-133900000D01*
X99730000Y-133900000D01*
X99730000Y-116700000D01*
%TO.C,J8*%
D13*
X115745000Y-113615000D02*
X115745000Y-114865000D01*
X115745000Y-114865000D02*
X116995000Y-114865000D01*
X115845000Y-112805000D02*
X115845000Y-113105000D01*
X115845000Y-113105000D02*
X116045000Y-113105000D01*
X115945000Y-112805000D02*
X115945000Y-113105000D01*
X116045000Y-112005000D02*
X116655000Y-112005000D01*
X116045000Y-112805000D02*
X115845000Y-112805000D01*
X116655000Y-105055000D02*
X116655000Y-107005000D01*
X116655000Y-107005000D02*
X116045000Y-107005000D01*
X116655000Y-112005000D02*
X116655000Y-113955000D01*
X116655000Y-113955000D02*
X120155000Y-113955000D01*
X117355000Y-104445000D02*
X117355000Y-105055000D01*
X117355000Y-114565000D02*
X117355000Y-113955000D01*
X118655000Y-104445000D02*
X118655000Y-105055000D01*
X118655000Y-114565000D02*
X118655000Y-113955000D01*
X119655000Y-107405000D02*
X120155000Y-107405000D01*
X119655000Y-107605000D02*
X119655000Y-107405000D01*
X119655000Y-109405000D02*
X120155000Y-109405000D01*
X119655000Y-109605000D02*
X119655000Y-109405000D01*
X119655000Y-111405000D02*
X120155000Y-111405000D01*
X119655000Y-111605000D02*
X119655000Y-111405000D01*
X120155000Y-105055000D02*
X116655000Y-105055000D01*
X120155000Y-107505000D02*
X119655000Y-107505000D01*
X120155000Y-107605000D02*
X119655000Y-107605000D01*
X120155000Y-109505000D02*
X119655000Y-109505000D01*
X120155000Y-109605000D02*
X119655000Y-109605000D01*
X120155000Y-111505000D02*
X119655000Y-111505000D01*
X120155000Y-111605000D02*
X119655000Y-111605000D01*
X120155000Y-113955000D02*
X120155000Y-105055000D01*
X116045000Y-104445000D02*
X120765000Y-104445000D01*
X120765000Y-114565000D01*
X116045000Y-114565000D01*
X116045000Y-104445000D01*
%TO.C,J3*%
X140230000Y-103860000D02*
X140840000Y-103860000D01*
X140230000Y-105160000D02*
X140840000Y-105160000D01*
X140840000Y-102360000D02*
X140840000Y-105860000D01*
X140840000Y-105860000D02*
X142790000Y-105860000D01*
X142790000Y-105860000D02*
X142790000Y-106470000D01*
X143190000Y-102860000D02*
X143190000Y-102360000D01*
X143290000Y-102360000D02*
X143290000Y-102860000D01*
X143390000Y-102360000D02*
X143390000Y-102860000D01*
X143390000Y-102860000D02*
X143190000Y-102860000D01*
X143790000Y-105860000D02*
X145740000Y-105860000D01*
X143790000Y-106470000D02*
X143790000Y-105860000D01*
X144590000Y-106470000D02*
X144590000Y-106670000D01*
X144590000Y-106570000D02*
X144890000Y-106570000D01*
X144590000Y-106670000D02*
X144890000Y-106670000D01*
X144890000Y-106670000D02*
X144890000Y-106470000D01*
X145400000Y-106770000D02*
X146650000Y-106770000D01*
X145740000Y-102360000D02*
X140840000Y-102360000D01*
X145740000Y-105860000D02*
X145740000Y-102360000D01*
X146350000Y-103860000D02*
X145740000Y-103860000D01*
X146350000Y-105160000D02*
X145740000Y-105160000D01*
X146650000Y-106770000D02*
X146650000Y-105520000D01*
X140230000Y-101750000D02*
X146350000Y-101750000D01*
X146350000Y-106470000D01*
X140230000Y-106470000D01*
X140230000Y-101750000D01*
%TO.C,J7*%
X109465000Y-113615000D02*
X109465000Y-114865000D01*
X109465000Y-114865000D02*
X110715000Y-114865000D01*
X109565000Y-112805000D02*
X109565000Y-113105000D01*
X109565000Y-113105000D02*
X109765000Y-113105000D01*
X109665000Y-112805000D02*
X109665000Y-113105000D01*
X109765000Y-112005000D02*
X110375000Y-112005000D01*
X109765000Y-112805000D02*
X109565000Y-112805000D01*
X110375000Y-105055000D02*
X110375000Y-107005000D01*
X110375000Y-107005000D02*
X109765000Y-107005000D01*
X110375000Y-112005000D02*
X110375000Y-113955000D01*
X110375000Y-113955000D02*
X113875000Y-113955000D01*
X111075000Y-104445000D02*
X111075000Y-105055000D01*
X111075000Y-114565000D02*
X111075000Y-113955000D01*
X112375000Y-104445000D02*
X112375000Y-105055000D01*
X112375000Y-114565000D02*
X112375000Y-113955000D01*
X113375000Y-107405000D02*
X113875000Y-107405000D01*
X113375000Y-107605000D02*
X113375000Y-107405000D01*
X113375000Y-109405000D02*
X113875000Y-109405000D01*
X113375000Y-109605000D02*
X113375000Y-109405000D01*
X113375000Y-111405000D02*
X113875000Y-111405000D01*
X113375000Y-111605000D02*
X113375000Y-111405000D01*
X113875000Y-105055000D02*
X110375000Y-105055000D01*
X113875000Y-107505000D02*
X113375000Y-107505000D01*
X113875000Y-107605000D02*
X113375000Y-107605000D01*
X113875000Y-109505000D02*
X113375000Y-109505000D01*
X113875000Y-109605000D02*
X113375000Y-109605000D01*
X113875000Y-111505000D02*
X113375000Y-111505000D01*
X113875000Y-111605000D02*
X113375000Y-111605000D01*
X113875000Y-113955000D02*
X113875000Y-105055000D01*
X109765000Y-104445000D02*
X114485000Y-104445000D01*
X114485000Y-114565000D01*
X109765000Y-114565000D01*
X109765000Y-104445000D01*
%TO.C,R9*%
X124875000Y-101914564D02*
X124875000Y-101460436D01*
X126345000Y-101914564D02*
X126345000Y-101460436D01*
%TO.C,Q4*%
X130380000Y-105567500D02*
X131380000Y-105567500D01*
X130380000Y-107087500D02*
X130380000Y-105567500D01*
X130430000Y-107087500D02*
X130380000Y-107087500D01*
X132330000Y-107087500D02*
X131550000Y-107087500D01*
X132500000Y-105567500D02*
X133500000Y-105567500D01*
X133500000Y-105567500D02*
X133500000Y-107087500D01*
X133500000Y-107087500D02*
X133450000Y-107087500D01*
X131890000Y-107867500D02*
X131560000Y-107627500D01*
X131890000Y-107387500D01*
X131890000Y-107867500D01*
G36*
X131890000Y-107867500D02*
G01*
X131560000Y-107627500D01*
X131890000Y-107387500D01*
X131890000Y-107867500D01*
G37*
%TO.C,U1*%
D12*
X142660756Y-110170252D02*
X158060756Y-110170252D01*
X158060756Y-133170252D01*
X142660756Y-133170252D01*
X142660756Y-110170252D01*
%TO.C,C1*%
D13*
X143388748Y-95155000D02*
X143911252Y-95155000D01*
X143388748Y-96625000D02*
X143911252Y-96625000D01*
%TO.C,R4*%
X143827064Y-98125000D02*
X143372936Y-98125000D01*
X143827064Y-99595000D02*
X143372936Y-99595000D01*
%TO.C,R8*%
X122275000Y-101442936D02*
X122275000Y-101897064D01*
X123745000Y-101442936D02*
X123745000Y-101897064D01*
%TO.C,RV1*%
X96900000Y-96355000D02*
X100273000Y-96355000D01*
X96900000Y-103285000D02*
X96900000Y-96355000D01*
X100273000Y-103285000D02*
X96900000Y-103285000D01*
X100707000Y-96355000D02*
X101620000Y-96355000D01*
X101620000Y-96355000D02*
X101620000Y-103285000D01*
X101620000Y-103285000D02*
X100707000Y-103285000D01*
%TD*%
M02*
