%TF.GenerationSoftware,KiCad,Pcbnew,10.0.1*%
%TF.CreationDate,2026-06-20T20:49:17+02:00*%
%TF.ProjectId,sensegate_pcb,73656e73-6567-4617-9465-5f7063622e6b,rev?*%
%TF.SameCoordinates,Original*%
%TF.FileFunction,Legend,Top*%
%TF.FilePolarity,Positive*%
%FSLAX46Y46*%
G04 Gerber Fmt 4.6, Leading zero omitted, Abs format (unit mm)*
G04 Created by KiCad (PCBNEW 10.0.1) date 2026-06-20 20:49:17*
%MOMM*%
%LPD*%
G01*
G04 APERTURE LIST*
G04 Aperture macros list*
%AMRoundRect*
0 Rectangle with rounded corners*
0 $1 Rounding radius*
0 $2 $3 $4 $5 $6 $7 $8 $9 X,Y pos of 4 corners*
0 Add a 4 corners polygon primitive as box body*
4,1,4,$2,$3,$4,$5,$6,$7,$8,$9,$2,$3,0*
0 Add four circle primitives for the rounded corners*
1,1,$1+$1,$2,$3*
1,1,$1+$1,$4,$5*
1,1,$1+$1,$6,$7*
1,1,$1+$1,$8,$9*
0 Add four rect primitives between the rounded corners*
20,1,$1+$1,$2,$3,$4,$5,0*
20,1,$1+$1,$4,$5,$6,$7,0*
20,1,$1+$1,$6,$7,$8,$9,0*
20,1,$1+$1,$8,$9,$2,$3,0*%
G04 Aperture macros list end*
%ADD10C,0.100000*%
%ADD11C,0.150000*%
%ADD12C,0.200000*%
%ADD13C,0.300000*%
%ADD14C,0.187500*%
%ADD15C,0.120000*%
%ADD16C,0.000000*%
%ADD17C,0.152400*%
%ADD18RoundRect,0.250000X-0.450000X0.262500X-0.450000X-0.262500X0.450000X-0.262500X0.450000X0.262500X0*%
%ADD19RoundRect,0.250000X-0.625000X0.350000X-0.625000X-0.350000X0.625000X-0.350000X0.625000X0.350000X0*%
%ADD20O,1.750000X1.200000*%
%ADD21R,1.700000X1.700000*%
%ADD22C,1.700000*%
%ADD23O,1.300000X2.500000*%
%ADD24RoundRect,0.250000X0.450000X-0.262500X0.450000X0.262500X-0.450000X0.262500X-0.450000X-0.262500X0*%
%ADD25RoundRect,0.250000X-0.262500X-0.450000X0.262500X-0.450000X0.262500X0.450000X-0.262500X0.450000X0*%
%ADD26RoundRect,0.250000X0.625000X-0.350000X0.625000X0.350000X-0.625000X0.350000X-0.625000X-0.350000X0*%
%ADD27C,2.200000*%
%ADD28RoundRect,0.250000X0.475000X-0.337500X0.475000X0.337500X-0.475000X0.337500X-0.475000X-0.337500X0*%
%ADD29RoundRect,0.250000X-0.475000X0.337500X-0.475000X-0.337500X0.475000X-0.337500X0.475000X0.337500X0*%
%ADD30C,1.320800*%
%ADD31C,2.006600*%
%ADD32RoundRect,0.250000X-0.337500X-0.475000X0.337500X-0.475000X0.337500X0.475000X-0.337500X0.475000X0*%
%ADD33R,5.150000X3.170000*%
%ADD34RoundRect,0.250000X0.350000X0.625000X-0.350000X0.625000X-0.350000X-0.625000X0.350000X-0.625000X0*%
%ADD35O,1.200000X1.750000*%
%ADD36RoundRect,0.150000X0.587500X0.150000X-0.587500X0.150000X-0.587500X-0.150000X0.587500X-0.150000X0*%
%ADD37RoundRect,0.150000X0.150000X-0.587500X0.150000X0.587500X-0.150000X0.587500X-0.150000X-0.587500X0*%
%ADD38R,1.830000X2.200000*%
%ADD39RoundRect,0.250000X0.262500X0.450000X-0.262500X0.450000X-0.262500X-0.450000X0.262500X-0.450000X0*%
%ADD40C,1.440000*%
G04 APERTURE END LIST*
D10*
X112655847Y-47372856D02*
X112693942Y-47287142D01*
X112693942Y-47287142D02*
X112732038Y-47258571D01*
X112732038Y-47258571D02*
X112808228Y-47229999D01*
X112808228Y-47229999D02*
X112922514Y-47229999D01*
X112922514Y-47229999D02*
X112998704Y-47258571D01*
X112998704Y-47258571D02*
X113036800Y-47287142D01*
X113036800Y-47287142D02*
X113074895Y-47344285D01*
X113074895Y-47344285D02*
X113074895Y-47572856D01*
X113074895Y-47572856D02*
X112274895Y-47572856D01*
X112274895Y-47572856D02*
X112274895Y-47372856D01*
X112274895Y-47372856D02*
X112312990Y-47315714D01*
X112312990Y-47315714D02*
X112351085Y-47287142D01*
X112351085Y-47287142D02*
X112427276Y-47258571D01*
X112427276Y-47258571D02*
X112503466Y-47258571D01*
X112503466Y-47258571D02*
X112579657Y-47287142D01*
X112579657Y-47287142D02*
X112617752Y-47315714D01*
X112617752Y-47315714D02*
X112655847Y-47372856D01*
X112655847Y-47372856D02*
X112655847Y-47572856D01*
X113074895Y-46715714D02*
X112655847Y-46715714D01*
X112655847Y-46715714D02*
X112579657Y-46744285D01*
X112579657Y-46744285D02*
X112541561Y-46801428D01*
X112541561Y-46801428D02*
X112541561Y-46915714D01*
X112541561Y-46915714D02*
X112579657Y-46972856D01*
X113036800Y-46715714D02*
X113074895Y-46772856D01*
X113074895Y-46772856D02*
X113074895Y-46915714D01*
X113074895Y-46915714D02*
X113036800Y-46972856D01*
X113036800Y-46972856D02*
X112960609Y-47001428D01*
X112960609Y-47001428D02*
X112884419Y-47001428D01*
X112884419Y-47001428D02*
X112808228Y-46972856D01*
X112808228Y-46972856D02*
X112770133Y-46915714D01*
X112770133Y-46915714D02*
X112770133Y-46772856D01*
X112770133Y-46772856D02*
X112732038Y-46715714D01*
X112541561Y-46515714D02*
X112541561Y-46287142D01*
X112274895Y-46429999D02*
X112960609Y-46429999D01*
X112960609Y-46429999D02*
X113036800Y-46401428D01*
X113036800Y-46401428D02*
X113074895Y-46344285D01*
X113074895Y-46344285D02*
X113074895Y-46287142D01*
X112541561Y-46172857D02*
X112541561Y-45944285D01*
X112274895Y-46087142D02*
X112960609Y-46087142D01*
X112960609Y-46087142D02*
X113036800Y-46058571D01*
X113036800Y-46058571D02*
X113074895Y-46001428D01*
X113074895Y-46001428D02*
X113074895Y-45944285D01*
X113036800Y-45515714D02*
X113074895Y-45572857D01*
X113074895Y-45572857D02*
X113074895Y-45687143D01*
X113074895Y-45687143D02*
X113036800Y-45744285D01*
X113036800Y-45744285D02*
X112960609Y-45772857D01*
X112960609Y-45772857D02*
X112655847Y-45772857D01*
X112655847Y-45772857D02*
X112579657Y-45744285D01*
X112579657Y-45744285D02*
X112541561Y-45687143D01*
X112541561Y-45687143D02*
X112541561Y-45572857D01*
X112541561Y-45572857D02*
X112579657Y-45515714D01*
X112579657Y-45515714D02*
X112655847Y-45487143D01*
X112655847Y-45487143D02*
X112732038Y-45487143D01*
X112732038Y-45487143D02*
X112808228Y-45772857D01*
X113074895Y-45229999D02*
X112541561Y-45229999D01*
X112693942Y-45229999D02*
X112617752Y-45201428D01*
X112617752Y-45201428D02*
X112579657Y-45172857D01*
X112579657Y-45172857D02*
X112541561Y-45115714D01*
X112541561Y-45115714D02*
X112541561Y-45058571D01*
X112541561Y-44915713D02*
X113074895Y-44772856D01*
X112541561Y-44629999D02*
X113074895Y-44772856D01*
X113074895Y-44772856D02*
X113265371Y-44829999D01*
X113265371Y-44829999D02*
X113303466Y-44858570D01*
X113303466Y-44858570D02*
X113341561Y-44915713D01*
X131454895Y-57057142D02*
X130654895Y-57057142D01*
X130654895Y-57057142D02*
X130654895Y-56828571D01*
X130654895Y-56828571D02*
X130692990Y-56771428D01*
X130692990Y-56771428D02*
X130731085Y-56742857D01*
X130731085Y-56742857D02*
X130807276Y-56714285D01*
X130807276Y-56714285D02*
X130921561Y-56714285D01*
X130921561Y-56714285D02*
X130997752Y-56742857D01*
X130997752Y-56742857D02*
X131035847Y-56771428D01*
X131035847Y-56771428D02*
X131073942Y-56828571D01*
X131073942Y-56828571D02*
X131073942Y-57057142D01*
X130654895Y-56342857D02*
X130654895Y-56285714D01*
X130654895Y-56285714D02*
X130692990Y-56228571D01*
X130692990Y-56228571D02*
X130731085Y-56200000D01*
X130731085Y-56200000D02*
X130807276Y-56171428D01*
X130807276Y-56171428D02*
X130959657Y-56142857D01*
X130959657Y-56142857D02*
X131150133Y-56142857D01*
X131150133Y-56142857D02*
X131302514Y-56171428D01*
X131302514Y-56171428D02*
X131378704Y-56200000D01*
X131378704Y-56200000D02*
X131416800Y-56228571D01*
X131416800Y-56228571D02*
X131454895Y-56285714D01*
X131454895Y-56285714D02*
X131454895Y-56342857D01*
X131454895Y-56342857D02*
X131416800Y-56400000D01*
X131416800Y-56400000D02*
X131378704Y-56428571D01*
X131378704Y-56428571D02*
X131302514Y-56457142D01*
X131302514Y-56457142D02*
X131150133Y-56485714D01*
X131150133Y-56485714D02*
X130959657Y-56485714D01*
X130959657Y-56485714D02*
X130807276Y-56457142D01*
X130807276Y-56457142D02*
X130731085Y-56428571D01*
X130731085Y-56428571D02*
X130692990Y-56400000D01*
X130692990Y-56400000D02*
X130654895Y-56342857D01*
X131378704Y-55885713D02*
X131416800Y-55857142D01*
X131416800Y-55857142D02*
X131454895Y-55885713D01*
X131454895Y-55885713D02*
X131416800Y-55914285D01*
X131416800Y-55914285D02*
X131378704Y-55885713D01*
X131378704Y-55885713D02*
X131454895Y-55885713D01*
X130654895Y-55485714D02*
X130654895Y-55428571D01*
X130654895Y-55428571D02*
X130692990Y-55371428D01*
X130692990Y-55371428D02*
X130731085Y-55342857D01*
X130731085Y-55342857D02*
X130807276Y-55314285D01*
X130807276Y-55314285D02*
X130959657Y-55285714D01*
X130959657Y-55285714D02*
X131150133Y-55285714D01*
X131150133Y-55285714D02*
X131302514Y-55314285D01*
X131302514Y-55314285D02*
X131378704Y-55342857D01*
X131378704Y-55342857D02*
X131416800Y-55371428D01*
X131416800Y-55371428D02*
X131454895Y-55428571D01*
X131454895Y-55428571D02*
X131454895Y-55485714D01*
X131454895Y-55485714D02*
X131416800Y-55542857D01*
X131416800Y-55542857D02*
X131378704Y-55571428D01*
X131378704Y-55571428D02*
X131302514Y-55599999D01*
X131302514Y-55599999D02*
X131150133Y-55628571D01*
X131150133Y-55628571D02*
X130959657Y-55628571D01*
X130959657Y-55628571D02*
X130807276Y-55599999D01*
X130807276Y-55599999D02*
X130731085Y-55571428D01*
X130731085Y-55571428D02*
X130692990Y-55542857D01*
X130692990Y-55542857D02*
X130654895Y-55485714D01*
X131454895Y-54999999D02*
X131454895Y-54885713D01*
X131454895Y-54885713D02*
X131416800Y-54828570D01*
X131416800Y-54828570D02*
X131378704Y-54799999D01*
X131378704Y-54799999D02*
X131264419Y-54742856D01*
X131264419Y-54742856D02*
X131112038Y-54714285D01*
X131112038Y-54714285D02*
X130807276Y-54714285D01*
X130807276Y-54714285D02*
X130731085Y-54742856D01*
X130731085Y-54742856D02*
X130692990Y-54771428D01*
X130692990Y-54771428D02*
X130654895Y-54828570D01*
X130654895Y-54828570D02*
X130654895Y-54942856D01*
X130654895Y-54942856D02*
X130692990Y-54999999D01*
X130692990Y-54999999D02*
X130731085Y-55028570D01*
X130731085Y-55028570D02*
X130807276Y-55057142D01*
X130807276Y-55057142D02*
X130997752Y-55057142D01*
X130997752Y-55057142D02*
X131073942Y-55028570D01*
X131073942Y-55028570D02*
X131112038Y-54999999D01*
X131112038Y-54999999D02*
X131150133Y-54942856D01*
X131150133Y-54942856D02*
X131150133Y-54828570D01*
X131150133Y-54828570D02*
X131112038Y-54771428D01*
X131112038Y-54771428D02*
X131073942Y-54742856D01*
X131073942Y-54742856D02*
X130997752Y-54714285D01*
X125736800Y-47483333D02*
X125774895Y-47383333D01*
X125774895Y-47383333D02*
X125774895Y-47216667D01*
X125774895Y-47216667D02*
X125736800Y-47150000D01*
X125736800Y-47150000D02*
X125698704Y-47116667D01*
X125698704Y-47116667D02*
X125622514Y-47083333D01*
X125622514Y-47083333D02*
X125546323Y-47083333D01*
X125546323Y-47083333D02*
X125470133Y-47116667D01*
X125470133Y-47116667D02*
X125432038Y-47150000D01*
X125432038Y-47150000D02*
X125393942Y-47216667D01*
X125393942Y-47216667D02*
X125355847Y-47350000D01*
X125355847Y-47350000D02*
X125317752Y-47416667D01*
X125317752Y-47416667D02*
X125279657Y-47450000D01*
X125279657Y-47450000D02*
X125203466Y-47483333D01*
X125203466Y-47483333D02*
X125127276Y-47483333D01*
X125127276Y-47483333D02*
X125051085Y-47450000D01*
X125051085Y-47450000D02*
X125012990Y-47416667D01*
X125012990Y-47416667D02*
X124974895Y-47350000D01*
X124974895Y-47350000D02*
X124974895Y-47183333D01*
X124974895Y-47183333D02*
X125012990Y-47083333D01*
X124974895Y-46850000D02*
X125774895Y-46683333D01*
X125774895Y-46683333D02*
X125203466Y-46550000D01*
X125203466Y-46550000D02*
X125774895Y-46416666D01*
X125774895Y-46416666D02*
X124974895Y-46250000D01*
X125774895Y-45983333D02*
X124974895Y-45983333D01*
X124974895Y-45983333D02*
X124974895Y-45816666D01*
X124974895Y-45816666D02*
X125012990Y-45716666D01*
X125012990Y-45716666D02*
X125089180Y-45650000D01*
X125089180Y-45650000D02*
X125165371Y-45616666D01*
X125165371Y-45616666D02*
X125317752Y-45583333D01*
X125317752Y-45583333D02*
X125432038Y-45583333D01*
X125432038Y-45583333D02*
X125584419Y-45616666D01*
X125584419Y-45616666D02*
X125660609Y-45650000D01*
X125660609Y-45650000D02*
X125736800Y-45716666D01*
X125736800Y-45716666D02*
X125774895Y-45816666D01*
X125774895Y-45816666D02*
X125774895Y-45983333D01*
X125698704Y-44883333D02*
X125736800Y-44916666D01*
X125736800Y-44916666D02*
X125774895Y-45016666D01*
X125774895Y-45016666D02*
X125774895Y-45083333D01*
X125774895Y-45083333D02*
X125736800Y-45183333D01*
X125736800Y-45183333D02*
X125660609Y-45250000D01*
X125660609Y-45250000D02*
X125584419Y-45283333D01*
X125584419Y-45283333D02*
X125432038Y-45316666D01*
X125432038Y-45316666D02*
X125317752Y-45316666D01*
X125317752Y-45316666D02*
X125165371Y-45283333D01*
X125165371Y-45283333D02*
X125089180Y-45250000D01*
X125089180Y-45250000D02*
X125012990Y-45183333D01*
X125012990Y-45183333D02*
X124974895Y-45083333D01*
X124974895Y-45083333D02*
X124974895Y-45016666D01*
X124974895Y-45016666D02*
X125012990Y-44916666D01*
X125012990Y-44916666D02*
X125051085Y-44883333D01*
X125774895Y-44250000D02*
X125774895Y-44583333D01*
X125774895Y-44583333D02*
X124974895Y-44583333D01*
X125774895Y-44016666D02*
X124974895Y-44016666D01*
X125774895Y-43616666D02*
X125317752Y-43916666D01*
X124974895Y-43616666D02*
X125432038Y-44016666D01*
X128226800Y-47413332D02*
X128264895Y-47313332D01*
X128264895Y-47313332D02*
X128264895Y-47146666D01*
X128264895Y-47146666D02*
X128226800Y-47079999D01*
X128226800Y-47079999D02*
X128188704Y-47046666D01*
X128188704Y-47046666D02*
X128112514Y-47013332D01*
X128112514Y-47013332D02*
X128036323Y-47013332D01*
X128036323Y-47013332D02*
X127960133Y-47046666D01*
X127960133Y-47046666D02*
X127922038Y-47079999D01*
X127922038Y-47079999D02*
X127883942Y-47146666D01*
X127883942Y-47146666D02*
X127845847Y-47279999D01*
X127845847Y-47279999D02*
X127807752Y-47346666D01*
X127807752Y-47346666D02*
X127769657Y-47379999D01*
X127769657Y-47379999D02*
X127693466Y-47413332D01*
X127693466Y-47413332D02*
X127617276Y-47413332D01*
X127617276Y-47413332D02*
X127541085Y-47379999D01*
X127541085Y-47379999D02*
X127502990Y-47346666D01*
X127502990Y-47346666D02*
X127464895Y-47279999D01*
X127464895Y-47279999D02*
X127464895Y-47113332D01*
X127464895Y-47113332D02*
X127502990Y-47013332D01*
X127464895Y-46779999D02*
X128264895Y-46613332D01*
X128264895Y-46613332D02*
X127693466Y-46479999D01*
X127693466Y-46479999D02*
X128264895Y-46346665D01*
X128264895Y-46346665D02*
X127464895Y-46179999D01*
X128264895Y-45913332D02*
X127464895Y-45913332D01*
X127464895Y-45913332D02*
X127464895Y-45746665D01*
X127464895Y-45746665D02*
X127502990Y-45646665D01*
X127502990Y-45646665D02*
X127579180Y-45579999D01*
X127579180Y-45579999D02*
X127655371Y-45546665D01*
X127655371Y-45546665D02*
X127807752Y-45513332D01*
X127807752Y-45513332D02*
X127922038Y-45513332D01*
X127922038Y-45513332D02*
X128074419Y-45546665D01*
X128074419Y-45546665D02*
X128150609Y-45579999D01*
X128150609Y-45579999D02*
X128226800Y-45646665D01*
X128226800Y-45646665D02*
X128264895Y-45746665D01*
X128264895Y-45746665D02*
X128264895Y-45913332D01*
X128264895Y-45213332D02*
X127464895Y-45213332D01*
X127464895Y-44746666D02*
X127464895Y-44613332D01*
X127464895Y-44613332D02*
X127502990Y-44546666D01*
X127502990Y-44546666D02*
X127579180Y-44479999D01*
X127579180Y-44479999D02*
X127731561Y-44446666D01*
X127731561Y-44446666D02*
X127998228Y-44446666D01*
X127998228Y-44446666D02*
X128150609Y-44479999D01*
X128150609Y-44479999D02*
X128226800Y-44546666D01*
X128226800Y-44546666D02*
X128264895Y-44613332D01*
X128264895Y-44613332D02*
X128264895Y-44746666D01*
X128264895Y-44746666D02*
X128226800Y-44813332D01*
X128226800Y-44813332D02*
X128150609Y-44879999D01*
X128150609Y-44879999D02*
X127998228Y-44913332D01*
X127998228Y-44913332D02*
X127731561Y-44913332D01*
X127731561Y-44913332D02*
X127579180Y-44879999D01*
X127579180Y-44879999D02*
X127502990Y-44813332D01*
X127502990Y-44813332D02*
X127464895Y-44746666D01*
X111357143Y-55664895D02*
X111357143Y-54864895D01*
X111357143Y-54864895D02*
X111661905Y-54864895D01*
X111661905Y-54864895D02*
X111738095Y-54902990D01*
X111738095Y-54902990D02*
X111776190Y-54941085D01*
X111776190Y-54941085D02*
X111814286Y-55017276D01*
X111814286Y-55017276D02*
X111814286Y-55131561D01*
X111814286Y-55131561D02*
X111776190Y-55207752D01*
X111776190Y-55207752D02*
X111738095Y-55245847D01*
X111738095Y-55245847D02*
X111661905Y-55283942D01*
X111661905Y-55283942D02*
X111357143Y-55283942D01*
X112309524Y-54864895D02*
X112385714Y-54864895D01*
X112385714Y-54864895D02*
X112461905Y-54902990D01*
X112461905Y-54902990D02*
X112500000Y-54941085D01*
X112500000Y-54941085D02*
X112538095Y-55017276D01*
X112538095Y-55017276D02*
X112576190Y-55169657D01*
X112576190Y-55169657D02*
X112576190Y-55360133D01*
X112576190Y-55360133D02*
X112538095Y-55512514D01*
X112538095Y-55512514D02*
X112500000Y-55588704D01*
X112500000Y-55588704D02*
X112461905Y-55626800D01*
X112461905Y-55626800D02*
X112385714Y-55664895D01*
X112385714Y-55664895D02*
X112309524Y-55664895D01*
X112309524Y-55664895D02*
X112233333Y-55626800D01*
X112233333Y-55626800D02*
X112195238Y-55588704D01*
X112195238Y-55588704D02*
X112157143Y-55512514D01*
X112157143Y-55512514D02*
X112119047Y-55360133D01*
X112119047Y-55360133D02*
X112119047Y-55169657D01*
X112119047Y-55169657D02*
X112157143Y-55017276D01*
X112157143Y-55017276D02*
X112195238Y-54941085D01*
X112195238Y-54941085D02*
X112233333Y-54902990D01*
X112233333Y-54902990D02*
X112309524Y-54864895D01*
X112919048Y-55588704D02*
X112957143Y-55626800D01*
X112957143Y-55626800D02*
X112919048Y-55664895D01*
X112919048Y-55664895D02*
X112880952Y-55626800D01*
X112880952Y-55626800D02*
X112919048Y-55588704D01*
X112919048Y-55588704D02*
X112919048Y-55664895D01*
X113452381Y-54864895D02*
X113528571Y-54864895D01*
X113528571Y-54864895D02*
X113604762Y-54902990D01*
X113604762Y-54902990D02*
X113642857Y-54941085D01*
X113642857Y-54941085D02*
X113680952Y-55017276D01*
X113680952Y-55017276D02*
X113719047Y-55169657D01*
X113719047Y-55169657D02*
X113719047Y-55360133D01*
X113719047Y-55360133D02*
X113680952Y-55512514D01*
X113680952Y-55512514D02*
X113642857Y-55588704D01*
X113642857Y-55588704D02*
X113604762Y-55626800D01*
X113604762Y-55626800D02*
X113528571Y-55664895D01*
X113528571Y-55664895D02*
X113452381Y-55664895D01*
X113452381Y-55664895D02*
X113376190Y-55626800D01*
X113376190Y-55626800D02*
X113338095Y-55588704D01*
X113338095Y-55588704D02*
X113300000Y-55512514D01*
X113300000Y-55512514D02*
X113261904Y-55360133D01*
X113261904Y-55360133D02*
X113261904Y-55169657D01*
X113261904Y-55169657D02*
X113300000Y-55017276D01*
X113300000Y-55017276D02*
X113338095Y-54941085D01*
X113338095Y-54941085D02*
X113376190Y-54902990D01*
X113376190Y-54902990D02*
X113452381Y-54864895D01*
X114023809Y-54941085D02*
X114061905Y-54902990D01*
X114061905Y-54902990D02*
X114138095Y-54864895D01*
X114138095Y-54864895D02*
X114328571Y-54864895D01*
X114328571Y-54864895D02*
X114404762Y-54902990D01*
X114404762Y-54902990D02*
X114442857Y-54941085D01*
X114442857Y-54941085D02*
X114480952Y-55017276D01*
X114480952Y-55017276D02*
X114480952Y-55093466D01*
X114480952Y-55093466D02*
X114442857Y-55207752D01*
X114442857Y-55207752D02*
X113985714Y-55664895D01*
X113985714Y-55664895D02*
X114480952Y-55664895D01*
X114087143Y-56814895D02*
X114087143Y-56014895D01*
X114087143Y-56014895D02*
X114391905Y-56014895D01*
X114391905Y-56014895D02*
X114468095Y-56052990D01*
X114468095Y-56052990D02*
X114506190Y-56091085D01*
X114506190Y-56091085D02*
X114544286Y-56167276D01*
X114544286Y-56167276D02*
X114544286Y-56281561D01*
X114544286Y-56281561D02*
X114506190Y-56357752D01*
X114506190Y-56357752D02*
X114468095Y-56395847D01*
X114468095Y-56395847D02*
X114391905Y-56433942D01*
X114391905Y-56433942D02*
X114087143Y-56433942D01*
X115039524Y-56014895D02*
X115115714Y-56014895D01*
X115115714Y-56014895D02*
X115191905Y-56052990D01*
X115191905Y-56052990D02*
X115230000Y-56091085D01*
X115230000Y-56091085D02*
X115268095Y-56167276D01*
X115268095Y-56167276D02*
X115306190Y-56319657D01*
X115306190Y-56319657D02*
X115306190Y-56510133D01*
X115306190Y-56510133D02*
X115268095Y-56662514D01*
X115268095Y-56662514D02*
X115230000Y-56738704D01*
X115230000Y-56738704D02*
X115191905Y-56776800D01*
X115191905Y-56776800D02*
X115115714Y-56814895D01*
X115115714Y-56814895D02*
X115039524Y-56814895D01*
X115039524Y-56814895D02*
X114963333Y-56776800D01*
X114963333Y-56776800D02*
X114925238Y-56738704D01*
X114925238Y-56738704D02*
X114887143Y-56662514D01*
X114887143Y-56662514D02*
X114849047Y-56510133D01*
X114849047Y-56510133D02*
X114849047Y-56319657D01*
X114849047Y-56319657D02*
X114887143Y-56167276D01*
X114887143Y-56167276D02*
X114925238Y-56091085D01*
X114925238Y-56091085D02*
X114963333Y-56052990D01*
X114963333Y-56052990D02*
X115039524Y-56014895D01*
X115649048Y-56738704D02*
X115687143Y-56776800D01*
X115687143Y-56776800D02*
X115649048Y-56814895D01*
X115649048Y-56814895D02*
X115610952Y-56776800D01*
X115610952Y-56776800D02*
X115649048Y-56738704D01*
X115649048Y-56738704D02*
X115649048Y-56814895D01*
X116449047Y-56814895D02*
X115991904Y-56814895D01*
X116220476Y-56814895D02*
X116220476Y-56014895D01*
X116220476Y-56014895D02*
X116144285Y-56129180D01*
X116144285Y-56129180D02*
X116068095Y-56205371D01*
X116068095Y-56205371D02*
X115991904Y-56243466D01*
X117172857Y-56014895D02*
X116791905Y-56014895D01*
X116791905Y-56014895D02*
X116753809Y-56395847D01*
X116753809Y-56395847D02*
X116791905Y-56357752D01*
X116791905Y-56357752D02*
X116868095Y-56319657D01*
X116868095Y-56319657D02*
X117058571Y-56319657D01*
X117058571Y-56319657D02*
X117134762Y-56357752D01*
X117134762Y-56357752D02*
X117172857Y-56395847D01*
X117172857Y-56395847D02*
X117210952Y-56472038D01*
X117210952Y-56472038D02*
X117210952Y-56662514D01*
X117210952Y-56662514D02*
X117172857Y-56738704D01*
X117172857Y-56738704D02*
X117134762Y-56776800D01*
X117134762Y-56776800D02*
X117058571Y-56814895D01*
X117058571Y-56814895D02*
X116868095Y-56814895D01*
X116868095Y-56814895D02*
X116791905Y-56776800D01*
X116791905Y-56776800D02*
X116753809Y-56738704D01*
X116597143Y-55734895D02*
X116597143Y-54934895D01*
X116597143Y-54934895D02*
X116901905Y-54934895D01*
X116901905Y-54934895D02*
X116978095Y-54972990D01*
X116978095Y-54972990D02*
X117016190Y-55011085D01*
X117016190Y-55011085D02*
X117054286Y-55087276D01*
X117054286Y-55087276D02*
X117054286Y-55201561D01*
X117054286Y-55201561D02*
X117016190Y-55277752D01*
X117016190Y-55277752D02*
X116978095Y-55315847D01*
X116978095Y-55315847D02*
X116901905Y-55353942D01*
X116901905Y-55353942D02*
X116597143Y-55353942D01*
X117549524Y-54934895D02*
X117625714Y-54934895D01*
X117625714Y-54934895D02*
X117701905Y-54972990D01*
X117701905Y-54972990D02*
X117740000Y-55011085D01*
X117740000Y-55011085D02*
X117778095Y-55087276D01*
X117778095Y-55087276D02*
X117816190Y-55239657D01*
X117816190Y-55239657D02*
X117816190Y-55430133D01*
X117816190Y-55430133D02*
X117778095Y-55582514D01*
X117778095Y-55582514D02*
X117740000Y-55658704D01*
X117740000Y-55658704D02*
X117701905Y-55696800D01*
X117701905Y-55696800D02*
X117625714Y-55734895D01*
X117625714Y-55734895D02*
X117549524Y-55734895D01*
X117549524Y-55734895D02*
X117473333Y-55696800D01*
X117473333Y-55696800D02*
X117435238Y-55658704D01*
X117435238Y-55658704D02*
X117397143Y-55582514D01*
X117397143Y-55582514D02*
X117359047Y-55430133D01*
X117359047Y-55430133D02*
X117359047Y-55239657D01*
X117359047Y-55239657D02*
X117397143Y-55087276D01*
X117397143Y-55087276D02*
X117435238Y-55011085D01*
X117435238Y-55011085D02*
X117473333Y-54972990D01*
X117473333Y-54972990D02*
X117549524Y-54934895D01*
X118159048Y-55658704D02*
X118197143Y-55696800D01*
X118197143Y-55696800D02*
X118159048Y-55734895D01*
X118159048Y-55734895D02*
X118120952Y-55696800D01*
X118120952Y-55696800D02*
X118159048Y-55658704D01*
X118159048Y-55658704D02*
X118159048Y-55734895D01*
X118692381Y-54934895D02*
X118768571Y-54934895D01*
X118768571Y-54934895D02*
X118844762Y-54972990D01*
X118844762Y-54972990D02*
X118882857Y-55011085D01*
X118882857Y-55011085D02*
X118920952Y-55087276D01*
X118920952Y-55087276D02*
X118959047Y-55239657D01*
X118959047Y-55239657D02*
X118959047Y-55430133D01*
X118959047Y-55430133D02*
X118920952Y-55582514D01*
X118920952Y-55582514D02*
X118882857Y-55658704D01*
X118882857Y-55658704D02*
X118844762Y-55696800D01*
X118844762Y-55696800D02*
X118768571Y-55734895D01*
X118768571Y-55734895D02*
X118692381Y-55734895D01*
X118692381Y-55734895D02*
X118616190Y-55696800D01*
X118616190Y-55696800D02*
X118578095Y-55658704D01*
X118578095Y-55658704D02*
X118540000Y-55582514D01*
X118540000Y-55582514D02*
X118501904Y-55430133D01*
X118501904Y-55430133D02*
X118501904Y-55239657D01*
X118501904Y-55239657D02*
X118540000Y-55087276D01*
X118540000Y-55087276D02*
X118578095Y-55011085D01*
X118578095Y-55011085D02*
X118616190Y-54972990D01*
X118616190Y-54972990D02*
X118692381Y-54934895D01*
X119225714Y-54934895D02*
X119720952Y-54934895D01*
X119720952Y-54934895D02*
X119454286Y-55239657D01*
X119454286Y-55239657D02*
X119568571Y-55239657D01*
X119568571Y-55239657D02*
X119644762Y-55277752D01*
X119644762Y-55277752D02*
X119682857Y-55315847D01*
X119682857Y-55315847D02*
X119720952Y-55392038D01*
X119720952Y-55392038D02*
X119720952Y-55582514D01*
X119720952Y-55582514D02*
X119682857Y-55658704D01*
X119682857Y-55658704D02*
X119644762Y-55696800D01*
X119644762Y-55696800D02*
X119568571Y-55734895D01*
X119568571Y-55734895D02*
X119340000Y-55734895D01*
X119340000Y-55734895D02*
X119263809Y-55696800D01*
X119263809Y-55696800D02*
X119225714Y-55658704D01*
X119017143Y-56854895D02*
X119017143Y-56054895D01*
X119017143Y-56054895D02*
X119321905Y-56054895D01*
X119321905Y-56054895D02*
X119398095Y-56092990D01*
X119398095Y-56092990D02*
X119436190Y-56131085D01*
X119436190Y-56131085D02*
X119474286Y-56207276D01*
X119474286Y-56207276D02*
X119474286Y-56321561D01*
X119474286Y-56321561D02*
X119436190Y-56397752D01*
X119436190Y-56397752D02*
X119398095Y-56435847D01*
X119398095Y-56435847D02*
X119321905Y-56473942D01*
X119321905Y-56473942D02*
X119017143Y-56473942D01*
X119969524Y-56054895D02*
X120045714Y-56054895D01*
X120045714Y-56054895D02*
X120121905Y-56092990D01*
X120121905Y-56092990D02*
X120160000Y-56131085D01*
X120160000Y-56131085D02*
X120198095Y-56207276D01*
X120198095Y-56207276D02*
X120236190Y-56359657D01*
X120236190Y-56359657D02*
X120236190Y-56550133D01*
X120236190Y-56550133D02*
X120198095Y-56702514D01*
X120198095Y-56702514D02*
X120160000Y-56778704D01*
X120160000Y-56778704D02*
X120121905Y-56816800D01*
X120121905Y-56816800D02*
X120045714Y-56854895D01*
X120045714Y-56854895D02*
X119969524Y-56854895D01*
X119969524Y-56854895D02*
X119893333Y-56816800D01*
X119893333Y-56816800D02*
X119855238Y-56778704D01*
X119855238Y-56778704D02*
X119817143Y-56702514D01*
X119817143Y-56702514D02*
X119779047Y-56550133D01*
X119779047Y-56550133D02*
X119779047Y-56359657D01*
X119779047Y-56359657D02*
X119817143Y-56207276D01*
X119817143Y-56207276D02*
X119855238Y-56131085D01*
X119855238Y-56131085D02*
X119893333Y-56092990D01*
X119893333Y-56092990D02*
X119969524Y-56054895D01*
X120579048Y-56778704D02*
X120617143Y-56816800D01*
X120617143Y-56816800D02*
X120579048Y-56854895D01*
X120579048Y-56854895D02*
X120540952Y-56816800D01*
X120540952Y-56816800D02*
X120579048Y-56778704D01*
X120579048Y-56778704D02*
X120579048Y-56854895D01*
X121379047Y-56854895D02*
X120921904Y-56854895D01*
X121150476Y-56854895D02*
X121150476Y-56054895D01*
X121150476Y-56054895D02*
X121074285Y-56169180D01*
X121074285Y-56169180D02*
X120998095Y-56245371D01*
X120998095Y-56245371D02*
X120921904Y-56283466D01*
X121760000Y-56854895D02*
X121912381Y-56854895D01*
X121912381Y-56854895D02*
X121988571Y-56816800D01*
X121988571Y-56816800D02*
X122026667Y-56778704D01*
X122026667Y-56778704D02*
X122102857Y-56664419D01*
X122102857Y-56664419D02*
X122140952Y-56512038D01*
X122140952Y-56512038D02*
X122140952Y-56207276D01*
X122140952Y-56207276D02*
X122102857Y-56131085D01*
X122102857Y-56131085D02*
X122064762Y-56092990D01*
X122064762Y-56092990D02*
X121988571Y-56054895D01*
X121988571Y-56054895D02*
X121836190Y-56054895D01*
X121836190Y-56054895D02*
X121760000Y-56092990D01*
X121760000Y-56092990D02*
X121721905Y-56131085D01*
X121721905Y-56131085D02*
X121683809Y-56207276D01*
X121683809Y-56207276D02*
X121683809Y-56397752D01*
X121683809Y-56397752D02*
X121721905Y-56473942D01*
X121721905Y-56473942D02*
X121760000Y-56512038D01*
X121760000Y-56512038D02*
X121836190Y-56550133D01*
X121836190Y-56550133D02*
X121988571Y-56550133D01*
X121988571Y-56550133D02*
X122064762Y-56512038D01*
X122064762Y-56512038D02*
X122102857Y-56473942D01*
X122102857Y-56473942D02*
X122140952Y-56397752D01*
X121597143Y-55814895D02*
X121597143Y-55014895D01*
X121597143Y-55014895D02*
X121901905Y-55014895D01*
X121901905Y-55014895D02*
X121978095Y-55052990D01*
X121978095Y-55052990D02*
X122016190Y-55091085D01*
X122016190Y-55091085D02*
X122054286Y-55167276D01*
X122054286Y-55167276D02*
X122054286Y-55281561D01*
X122054286Y-55281561D02*
X122016190Y-55357752D01*
X122016190Y-55357752D02*
X121978095Y-55395847D01*
X121978095Y-55395847D02*
X121901905Y-55433942D01*
X121901905Y-55433942D02*
X121597143Y-55433942D01*
X122549524Y-55014895D02*
X122625714Y-55014895D01*
X122625714Y-55014895D02*
X122701905Y-55052990D01*
X122701905Y-55052990D02*
X122740000Y-55091085D01*
X122740000Y-55091085D02*
X122778095Y-55167276D01*
X122778095Y-55167276D02*
X122816190Y-55319657D01*
X122816190Y-55319657D02*
X122816190Y-55510133D01*
X122816190Y-55510133D02*
X122778095Y-55662514D01*
X122778095Y-55662514D02*
X122740000Y-55738704D01*
X122740000Y-55738704D02*
X122701905Y-55776800D01*
X122701905Y-55776800D02*
X122625714Y-55814895D01*
X122625714Y-55814895D02*
X122549524Y-55814895D01*
X122549524Y-55814895D02*
X122473333Y-55776800D01*
X122473333Y-55776800D02*
X122435238Y-55738704D01*
X122435238Y-55738704D02*
X122397143Y-55662514D01*
X122397143Y-55662514D02*
X122359047Y-55510133D01*
X122359047Y-55510133D02*
X122359047Y-55319657D01*
X122359047Y-55319657D02*
X122397143Y-55167276D01*
X122397143Y-55167276D02*
X122435238Y-55091085D01*
X122435238Y-55091085D02*
X122473333Y-55052990D01*
X122473333Y-55052990D02*
X122549524Y-55014895D01*
X123159048Y-55738704D02*
X123197143Y-55776800D01*
X123197143Y-55776800D02*
X123159048Y-55814895D01*
X123159048Y-55814895D02*
X123120952Y-55776800D01*
X123120952Y-55776800D02*
X123159048Y-55738704D01*
X123159048Y-55738704D02*
X123159048Y-55814895D01*
X123501904Y-55091085D02*
X123540000Y-55052990D01*
X123540000Y-55052990D02*
X123616190Y-55014895D01*
X123616190Y-55014895D02*
X123806666Y-55014895D01*
X123806666Y-55014895D02*
X123882857Y-55052990D01*
X123882857Y-55052990D02*
X123920952Y-55091085D01*
X123920952Y-55091085D02*
X123959047Y-55167276D01*
X123959047Y-55167276D02*
X123959047Y-55243466D01*
X123959047Y-55243466D02*
X123920952Y-55357752D01*
X123920952Y-55357752D02*
X123463809Y-55814895D01*
X123463809Y-55814895D02*
X123959047Y-55814895D01*
X124416190Y-55357752D02*
X124340000Y-55319657D01*
X124340000Y-55319657D02*
X124301905Y-55281561D01*
X124301905Y-55281561D02*
X124263809Y-55205371D01*
X124263809Y-55205371D02*
X124263809Y-55167276D01*
X124263809Y-55167276D02*
X124301905Y-55091085D01*
X124301905Y-55091085D02*
X124340000Y-55052990D01*
X124340000Y-55052990D02*
X124416190Y-55014895D01*
X124416190Y-55014895D02*
X124568571Y-55014895D01*
X124568571Y-55014895D02*
X124644762Y-55052990D01*
X124644762Y-55052990D02*
X124682857Y-55091085D01*
X124682857Y-55091085D02*
X124720952Y-55167276D01*
X124720952Y-55167276D02*
X124720952Y-55205371D01*
X124720952Y-55205371D02*
X124682857Y-55281561D01*
X124682857Y-55281561D02*
X124644762Y-55319657D01*
X124644762Y-55319657D02*
X124568571Y-55357752D01*
X124568571Y-55357752D02*
X124416190Y-55357752D01*
X124416190Y-55357752D02*
X124340000Y-55395847D01*
X124340000Y-55395847D02*
X124301905Y-55433942D01*
X124301905Y-55433942D02*
X124263809Y-55510133D01*
X124263809Y-55510133D02*
X124263809Y-55662514D01*
X124263809Y-55662514D02*
X124301905Y-55738704D01*
X124301905Y-55738704D02*
X124340000Y-55776800D01*
X124340000Y-55776800D02*
X124416190Y-55814895D01*
X124416190Y-55814895D02*
X124568571Y-55814895D01*
X124568571Y-55814895D02*
X124644762Y-55776800D01*
X124644762Y-55776800D02*
X124682857Y-55738704D01*
X124682857Y-55738704D02*
X124720952Y-55662514D01*
X124720952Y-55662514D02*
X124720952Y-55510133D01*
X124720952Y-55510133D02*
X124682857Y-55433942D01*
X124682857Y-55433942D02*
X124644762Y-55395847D01*
X124644762Y-55395847D02*
X124568571Y-55357752D01*
X123707143Y-56964895D02*
X123707143Y-56164895D01*
X123707143Y-56164895D02*
X124011905Y-56164895D01*
X124011905Y-56164895D02*
X124088095Y-56202990D01*
X124088095Y-56202990D02*
X124126190Y-56241085D01*
X124126190Y-56241085D02*
X124164286Y-56317276D01*
X124164286Y-56317276D02*
X124164286Y-56431561D01*
X124164286Y-56431561D02*
X124126190Y-56507752D01*
X124126190Y-56507752D02*
X124088095Y-56545847D01*
X124088095Y-56545847D02*
X124011905Y-56583942D01*
X124011905Y-56583942D02*
X123707143Y-56583942D01*
X124926190Y-56964895D02*
X124469047Y-56964895D01*
X124697619Y-56964895D02*
X124697619Y-56164895D01*
X124697619Y-56164895D02*
X124621428Y-56279180D01*
X124621428Y-56279180D02*
X124545238Y-56355371D01*
X124545238Y-56355371D02*
X124469047Y-56393466D01*
X125269048Y-56888704D02*
X125307143Y-56926800D01*
X125307143Y-56926800D02*
X125269048Y-56964895D01*
X125269048Y-56964895D02*
X125230952Y-56926800D01*
X125230952Y-56926800D02*
X125269048Y-56888704D01*
X125269048Y-56888704D02*
X125269048Y-56964895D01*
X125802381Y-56164895D02*
X125878571Y-56164895D01*
X125878571Y-56164895D02*
X125954762Y-56202990D01*
X125954762Y-56202990D02*
X125992857Y-56241085D01*
X125992857Y-56241085D02*
X126030952Y-56317276D01*
X126030952Y-56317276D02*
X126069047Y-56469657D01*
X126069047Y-56469657D02*
X126069047Y-56660133D01*
X126069047Y-56660133D02*
X126030952Y-56812514D01*
X126030952Y-56812514D02*
X125992857Y-56888704D01*
X125992857Y-56888704D02*
X125954762Y-56926800D01*
X125954762Y-56926800D02*
X125878571Y-56964895D01*
X125878571Y-56964895D02*
X125802381Y-56964895D01*
X125802381Y-56964895D02*
X125726190Y-56926800D01*
X125726190Y-56926800D02*
X125688095Y-56888704D01*
X125688095Y-56888704D02*
X125650000Y-56812514D01*
X125650000Y-56812514D02*
X125611904Y-56660133D01*
X125611904Y-56660133D02*
X125611904Y-56469657D01*
X125611904Y-56469657D02*
X125650000Y-56317276D01*
X125650000Y-56317276D02*
X125688095Y-56241085D01*
X125688095Y-56241085D02*
X125726190Y-56202990D01*
X125726190Y-56202990D02*
X125802381Y-56164895D01*
X126830952Y-56964895D02*
X126373809Y-56964895D01*
X126602381Y-56964895D02*
X126602381Y-56164895D01*
X126602381Y-56164895D02*
X126526190Y-56279180D01*
X126526190Y-56279180D02*
X126450000Y-56355371D01*
X126450000Y-56355371D02*
X126373809Y-56393466D01*
X126327143Y-55734895D02*
X126327143Y-54934895D01*
X126327143Y-54934895D02*
X126631905Y-54934895D01*
X126631905Y-54934895D02*
X126708095Y-54972990D01*
X126708095Y-54972990D02*
X126746190Y-55011085D01*
X126746190Y-55011085D02*
X126784286Y-55087276D01*
X126784286Y-55087276D02*
X126784286Y-55201561D01*
X126784286Y-55201561D02*
X126746190Y-55277752D01*
X126746190Y-55277752D02*
X126708095Y-55315847D01*
X126708095Y-55315847D02*
X126631905Y-55353942D01*
X126631905Y-55353942D02*
X126327143Y-55353942D01*
X127279524Y-54934895D02*
X127355714Y-54934895D01*
X127355714Y-54934895D02*
X127431905Y-54972990D01*
X127431905Y-54972990D02*
X127470000Y-55011085D01*
X127470000Y-55011085D02*
X127508095Y-55087276D01*
X127508095Y-55087276D02*
X127546190Y-55239657D01*
X127546190Y-55239657D02*
X127546190Y-55430133D01*
X127546190Y-55430133D02*
X127508095Y-55582514D01*
X127508095Y-55582514D02*
X127470000Y-55658704D01*
X127470000Y-55658704D02*
X127431905Y-55696800D01*
X127431905Y-55696800D02*
X127355714Y-55734895D01*
X127355714Y-55734895D02*
X127279524Y-55734895D01*
X127279524Y-55734895D02*
X127203333Y-55696800D01*
X127203333Y-55696800D02*
X127165238Y-55658704D01*
X127165238Y-55658704D02*
X127127143Y-55582514D01*
X127127143Y-55582514D02*
X127089047Y-55430133D01*
X127089047Y-55430133D02*
X127089047Y-55239657D01*
X127089047Y-55239657D02*
X127127143Y-55087276D01*
X127127143Y-55087276D02*
X127165238Y-55011085D01*
X127165238Y-55011085D02*
X127203333Y-54972990D01*
X127203333Y-54972990D02*
X127279524Y-54934895D01*
X127889048Y-55658704D02*
X127927143Y-55696800D01*
X127927143Y-55696800D02*
X127889048Y-55734895D01*
X127889048Y-55734895D02*
X127850952Y-55696800D01*
X127850952Y-55696800D02*
X127889048Y-55658704D01*
X127889048Y-55658704D02*
X127889048Y-55734895D01*
X128231904Y-55011085D02*
X128270000Y-54972990D01*
X128270000Y-54972990D02*
X128346190Y-54934895D01*
X128346190Y-54934895D02*
X128536666Y-54934895D01*
X128536666Y-54934895D02*
X128612857Y-54972990D01*
X128612857Y-54972990D02*
X128650952Y-55011085D01*
X128650952Y-55011085D02*
X128689047Y-55087276D01*
X128689047Y-55087276D02*
X128689047Y-55163466D01*
X128689047Y-55163466D02*
X128650952Y-55277752D01*
X128650952Y-55277752D02*
X128193809Y-55734895D01*
X128193809Y-55734895D02*
X128689047Y-55734895D01*
X129070000Y-55734895D02*
X129222381Y-55734895D01*
X129222381Y-55734895D02*
X129298571Y-55696800D01*
X129298571Y-55696800D02*
X129336667Y-55658704D01*
X129336667Y-55658704D02*
X129412857Y-55544419D01*
X129412857Y-55544419D02*
X129450952Y-55392038D01*
X129450952Y-55392038D02*
X129450952Y-55087276D01*
X129450952Y-55087276D02*
X129412857Y-55011085D01*
X129412857Y-55011085D02*
X129374762Y-54972990D01*
X129374762Y-54972990D02*
X129298571Y-54934895D01*
X129298571Y-54934895D02*
X129146190Y-54934895D01*
X129146190Y-54934895D02*
X129070000Y-54972990D01*
X129070000Y-54972990D02*
X129031905Y-55011085D01*
X129031905Y-55011085D02*
X128993809Y-55087276D01*
X128993809Y-55087276D02*
X128993809Y-55277752D01*
X128993809Y-55277752D02*
X129031905Y-55353942D01*
X129031905Y-55353942D02*
X129070000Y-55392038D01*
X129070000Y-55392038D02*
X129146190Y-55430133D01*
X129146190Y-55430133D02*
X129298571Y-55430133D01*
X129298571Y-55430133D02*
X129374762Y-55392038D01*
X129374762Y-55392038D02*
X129412857Y-55353942D01*
X129412857Y-55353942D02*
X129450952Y-55277752D01*
X131867143Y-55594895D02*
X131867143Y-54794895D01*
X131867143Y-54794895D02*
X132171905Y-54794895D01*
X132171905Y-54794895D02*
X132248095Y-54832990D01*
X132248095Y-54832990D02*
X132286190Y-54871085D01*
X132286190Y-54871085D02*
X132324286Y-54947276D01*
X132324286Y-54947276D02*
X132324286Y-55061561D01*
X132324286Y-55061561D02*
X132286190Y-55137752D01*
X132286190Y-55137752D02*
X132248095Y-55175847D01*
X132248095Y-55175847D02*
X132171905Y-55213942D01*
X132171905Y-55213942D02*
X131867143Y-55213942D01*
X132819524Y-54794895D02*
X132895714Y-54794895D01*
X132895714Y-54794895D02*
X132971905Y-54832990D01*
X132971905Y-54832990D02*
X133010000Y-54871085D01*
X133010000Y-54871085D02*
X133048095Y-54947276D01*
X133048095Y-54947276D02*
X133086190Y-55099657D01*
X133086190Y-55099657D02*
X133086190Y-55290133D01*
X133086190Y-55290133D02*
X133048095Y-55442514D01*
X133048095Y-55442514D02*
X133010000Y-55518704D01*
X133010000Y-55518704D02*
X132971905Y-55556800D01*
X132971905Y-55556800D02*
X132895714Y-55594895D01*
X132895714Y-55594895D02*
X132819524Y-55594895D01*
X132819524Y-55594895D02*
X132743333Y-55556800D01*
X132743333Y-55556800D02*
X132705238Y-55518704D01*
X132705238Y-55518704D02*
X132667143Y-55442514D01*
X132667143Y-55442514D02*
X132629047Y-55290133D01*
X132629047Y-55290133D02*
X132629047Y-55099657D01*
X132629047Y-55099657D02*
X132667143Y-54947276D01*
X132667143Y-54947276D02*
X132705238Y-54871085D01*
X132705238Y-54871085D02*
X132743333Y-54832990D01*
X132743333Y-54832990D02*
X132819524Y-54794895D01*
X133429048Y-55518704D02*
X133467143Y-55556800D01*
X133467143Y-55556800D02*
X133429048Y-55594895D01*
X133429048Y-55594895D02*
X133390952Y-55556800D01*
X133390952Y-55556800D02*
X133429048Y-55518704D01*
X133429048Y-55518704D02*
X133429048Y-55594895D01*
X133962381Y-54794895D02*
X134038571Y-54794895D01*
X134038571Y-54794895D02*
X134114762Y-54832990D01*
X134114762Y-54832990D02*
X134152857Y-54871085D01*
X134152857Y-54871085D02*
X134190952Y-54947276D01*
X134190952Y-54947276D02*
X134229047Y-55099657D01*
X134229047Y-55099657D02*
X134229047Y-55290133D01*
X134229047Y-55290133D02*
X134190952Y-55442514D01*
X134190952Y-55442514D02*
X134152857Y-55518704D01*
X134152857Y-55518704D02*
X134114762Y-55556800D01*
X134114762Y-55556800D02*
X134038571Y-55594895D01*
X134038571Y-55594895D02*
X133962381Y-55594895D01*
X133962381Y-55594895D02*
X133886190Y-55556800D01*
X133886190Y-55556800D02*
X133848095Y-55518704D01*
X133848095Y-55518704D02*
X133810000Y-55442514D01*
X133810000Y-55442514D02*
X133771904Y-55290133D01*
X133771904Y-55290133D02*
X133771904Y-55099657D01*
X133771904Y-55099657D02*
X133810000Y-54947276D01*
X133810000Y-54947276D02*
X133848095Y-54871085D01*
X133848095Y-54871085D02*
X133886190Y-54832990D01*
X133886190Y-54832990D02*
X133962381Y-54794895D01*
X134914762Y-55061561D02*
X134914762Y-55594895D01*
X134724286Y-54756800D02*
X134533809Y-55328228D01*
X134533809Y-55328228D02*
X135029048Y-55328228D01*
X134387143Y-56924895D02*
X134387143Y-56124895D01*
X134387143Y-56124895D02*
X134691905Y-56124895D01*
X134691905Y-56124895D02*
X134768095Y-56162990D01*
X134768095Y-56162990D02*
X134806190Y-56201085D01*
X134806190Y-56201085D02*
X134844286Y-56277276D01*
X134844286Y-56277276D02*
X134844286Y-56391561D01*
X134844286Y-56391561D02*
X134806190Y-56467752D01*
X134806190Y-56467752D02*
X134768095Y-56505847D01*
X134768095Y-56505847D02*
X134691905Y-56543942D01*
X134691905Y-56543942D02*
X134387143Y-56543942D01*
X135339524Y-56124895D02*
X135415714Y-56124895D01*
X135415714Y-56124895D02*
X135491905Y-56162990D01*
X135491905Y-56162990D02*
X135530000Y-56201085D01*
X135530000Y-56201085D02*
X135568095Y-56277276D01*
X135568095Y-56277276D02*
X135606190Y-56429657D01*
X135606190Y-56429657D02*
X135606190Y-56620133D01*
X135606190Y-56620133D02*
X135568095Y-56772514D01*
X135568095Y-56772514D02*
X135530000Y-56848704D01*
X135530000Y-56848704D02*
X135491905Y-56886800D01*
X135491905Y-56886800D02*
X135415714Y-56924895D01*
X135415714Y-56924895D02*
X135339524Y-56924895D01*
X135339524Y-56924895D02*
X135263333Y-56886800D01*
X135263333Y-56886800D02*
X135225238Y-56848704D01*
X135225238Y-56848704D02*
X135187143Y-56772514D01*
X135187143Y-56772514D02*
X135149047Y-56620133D01*
X135149047Y-56620133D02*
X135149047Y-56429657D01*
X135149047Y-56429657D02*
X135187143Y-56277276D01*
X135187143Y-56277276D02*
X135225238Y-56201085D01*
X135225238Y-56201085D02*
X135263333Y-56162990D01*
X135263333Y-56162990D02*
X135339524Y-56124895D01*
X135949048Y-56848704D02*
X135987143Y-56886800D01*
X135987143Y-56886800D02*
X135949048Y-56924895D01*
X135949048Y-56924895D02*
X135910952Y-56886800D01*
X135910952Y-56886800D02*
X135949048Y-56848704D01*
X135949048Y-56848704D02*
X135949048Y-56924895D01*
X136749047Y-56924895D02*
X136291904Y-56924895D01*
X136520476Y-56924895D02*
X136520476Y-56124895D01*
X136520476Y-56124895D02*
X136444285Y-56239180D01*
X136444285Y-56239180D02*
X136368095Y-56315371D01*
X136368095Y-56315371D02*
X136291904Y-56353466D01*
X137244286Y-56124895D02*
X137320476Y-56124895D01*
X137320476Y-56124895D02*
X137396667Y-56162990D01*
X137396667Y-56162990D02*
X137434762Y-56201085D01*
X137434762Y-56201085D02*
X137472857Y-56277276D01*
X137472857Y-56277276D02*
X137510952Y-56429657D01*
X137510952Y-56429657D02*
X137510952Y-56620133D01*
X137510952Y-56620133D02*
X137472857Y-56772514D01*
X137472857Y-56772514D02*
X137434762Y-56848704D01*
X137434762Y-56848704D02*
X137396667Y-56886800D01*
X137396667Y-56886800D02*
X137320476Y-56924895D01*
X137320476Y-56924895D02*
X137244286Y-56924895D01*
X137244286Y-56924895D02*
X137168095Y-56886800D01*
X137168095Y-56886800D02*
X137130000Y-56848704D01*
X137130000Y-56848704D02*
X137091905Y-56772514D01*
X137091905Y-56772514D02*
X137053809Y-56620133D01*
X137053809Y-56620133D02*
X137053809Y-56429657D01*
X137053809Y-56429657D02*
X137091905Y-56277276D01*
X137091905Y-56277276D02*
X137130000Y-56201085D01*
X137130000Y-56201085D02*
X137168095Y-56162990D01*
X137168095Y-56162990D02*
X137244286Y-56124895D01*
X136847143Y-55624895D02*
X136847143Y-54824895D01*
X136847143Y-54824895D02*
X137151905Y-54824895D01*
X137151905Y-54824895D02*
X137228095Y-54862990D01*
X137228095Y-54862990D02*
X137266190Y-54901085D01*
X137266190Y-54901085D02*
X137304286Y-54977276D01*
X137304286Y-54977276D02*
X137304286Y-55091561D01*
X137304286Y-55091561D02*
X137266190Y-55167752D01*
X137266190Y-55167752D02*
X137228095Y-55205847D01*
X137228095Y-55205847D02*
X137151905Y-55243942D01*
X137151905Y-55243942D02*
X136847143Y-55243942D01*
X137799524Y-54824895D02*
X137875714Y-54824895D01*
X137875714Y-54824895D02*
X137951905Y-54862990D01*
X137951905Y-54862990D02*
X137990000Y-54901085D01*
X137990000Y-54901085D02*
X138028095Y-54977276D01*
X138028095Y-54977276D02*
X138066190Y-55129657D01*
X138066190Y-55129657D02*
X138066190Y-55320133D01*
X138066190Y-55320133D02*
X138028095Y-55472514D01*
X138028095Y-55472514D02*
X137990000Y-55548704D01*
X137990000Y-55548704D02*
X137951905Y-55586800D01*
X137951905Y-55586800D02*
X137875714Y-55624895D01*
X137875714Y-55624895D02*
X137799524Y-55624895D01*
X137799524Y-55624895D02*
X137723333Y-55586800D01*
X137723333Y-55586800D02*
X137685238Y-55548704D01*
X137685238Y-55548704D02*
X137647143Y-55472514D01*
X137647143Y-55472514D02*
X137609047Y-55320133D01*
X137609047Y-55320133D02*
X137609047Y-55129657D01*
X137609047Y-55129657D02*
X137647143Y-54977276D01*
X137647143Y-54977276D02*
X137685238Y-54901085D01*
X137685238Y-54901085D02*
X137723333Y-54862990D01*
X137723333Y-54862990D02*
X137799524Y-54824895D01*
X138409048Y-55548704D02*
X138447143Y-55586800D01*
X138447143Y-55586800D02*
X138409048Y-55624895D01*
X138409048Y-55624895D02*
X138370952Y-55586800D01*
X138370952Y-55586800D02*
X138409048Y-55548704D01*
X138409048Y-55548704D02*
X138409048Y-55624895D01*
X138942381Y-54824895D02*
X139018571Y-54824895D01*
X139018571Y-54824895D02*
X139094762Y-54862990D01*
X139094762Y-54862990D02*
X139132857Y-54901085D01*
X139132857Y-54901085D02*
X139170952Y-54977276D01*
X139170952Y-54977276D02*
X139209047Y-55129657D01*
X139209047Y-55129657D02*
X139209047Y-55320133D01*
X139209047Y-55320133D02*
X139170952Y-55472514D01*
X139170952Y-55472514D02*
X139132857Y-55548704D01*
X139132857Y-55548704D02*
X139094762Y-55586800D01*
X139094762Y-55586800D02*
X139018571Y-55624895D01*
X139018571Y-55624895D02*
X138942381Y-55624895D01*
X138942381Y-55624895D02*
X138866190Y-55586800D01*
X138866190Y-55586800D02*
X138828095Y-55548704D01*
X138828095Y-55548704D02*
X138790000Y-55472514D01*
X138790000Y-55472514D02*
X138751904Y-55320133D01*
X138751904Y-55320133D02*
X138751904Y-55129657D01*
X138751904Y-55129657D02*
X138790000Y-54977276D01*
X138790000Y-54977276D02*
X138828095Y-54901085D01*
X138828095Y-54901085D02*
X138866190Y-54862990D01*
X138866190Y-54862990D02*
X138942381Y-54824895D01*
X139932857Y-54824895D02*
X139551905Y-54824895D01*
X139551905Y-54824895D02*
X139513809Y-55205847D01*
X139513809Y-55205847D02*
X139551905Y-55167752D01*
X139551905Y-55167752D02*
X139628095Y-55129657D01*
X139628095Y-55129657D02*
X139818571Y-55129657D01*
X139818571Y-55129657D02*
X139894762Y-55167752D01*
X139894762Y-55167752D02*
X139932857Y-55205847D01*
X139932857Y-55205847D02*
X139970952Y-55282038D01*
X139970952Y-55282038D02*
X139970952Y-55472514D01*
X139970952Y-55472514D02*
X139932857Y-55548704D01*
X139932857Y-55548704D02*
X139894762Y-55586800D01*
X139894762Y-55586800D02*
X139818571Y-55624895D01*
X139818571Y-55624895D02*
X139628095Y-55624895D01*
X139628095Y-55624895D02*
X139551905Y-55586800D01*
X139551905Y-55586800D02*
X139513809Y-55548704D01*
X139587143Y-56914895D02*
X139587143Y-56114895D01*
X139587143Y-56114895D02*
X139891905Y-56114895D01*
X139891905Y-56114895D02*
X139968095Y-56152990D01*
X139968095Y-56152990D02*
X140006190Y-56191085D01*
X140006190Y-56191085D02*
X140044286Y-56267276D01*
X140044286Y-56267276D02*
X140044286Y-56381561D01*
X140044286Y-56381561D02*
X140006190Y-56457752D01*
X140006190Y-56457752D02*
X139968095Y-56495847D01*
X139968095Y-56495847D02*
X139891905Y-56533942D01*
X139891905Y-56533942D02*
X139587143Y-56533942D01*
X140539524Y-56114895D02*
X140615714Y-56114895D01*
X140615714Y-56114895D02*
X140691905Y-56152990D01*
X140691905Y-56152990D02*
X140730000Y-56191085D01*
X140730000Y-56191085D02*
X140768095Y-56267276D01*
X140768095Y-56267276D02*
X140806190Y-56419657D01*
X140806190Y-56419657D02*
X140806190Y-56610133D01*
X140806190Y-56610133D02*
X140768095Y-56762514D01*
X140768095Y-56762514D02*
X140730000Y-56838704D01*
X140730000Y-56838704D02*
X140691905Y-56876800D01*
X140691905Y-56876800D02*
X140615714Y-56914895D01*
X140615714Y-56914895D02*
X140539524Y-56914895D01*
X140539524Y-56914895D02*
X140463333Y-56876800D01*
X140463333Y-56876800D02*
X140425238Y-56838704D01*
X140425238Y-56838704D02*
X140387143Y-56762514D01*
X140387143Y-56762514D02*
X140349047Y-56610133D01*
X140349047Y-56610133D02*
X140349047Y-56419657D01*
X140349047Y-56419657D02*
X140387143Y-56267276D01*
X140387143Y-56267276D02*
X140425238Y-56191085D01*
X140425238Y-56191085D02*
X140463333Y-56152990D01*
X140463333Y-56152990D02*
X140539524Y-56114895D01*
X141149048Y-56838704D02*
X141187143Y-56876800D01*
X141187143Y-56876800D02*
X141149048Y-56914895D01*
X141149048Y-56914895D02*
X141110952Y-56876800D01*
X141110952Y-56876800D02*
X141149048Y-56838704D01*
X141149048Y-56838704D02*
X141149048Y-56914895D01*
X141453809Y-56114895D02*
X141949047Y-56114895D01*
X141949047Y-56114895D02*
X141682381Y-56419657D01*
X141682381Y-56419657D02*
X141796666Y-56419657D01*
X141796666Y-56419657D02*
X141872857Y-56457752D01*
X141872857Y-56457752D02*
X141910952Y-56495847D01*
X141910952Y-56495847D02*
X141949047Y-56572038D01*
X141949047Y-56572038D02*
X141949047Y-56762514D01*
X141949047Y-56762514D02*
X141910952Y-56838704D01*
X141910952Y-56838704D02*
X141872857Y-56876800D01*
X141872857Y-56876800D02*
X141796666Y-56914895D01*
X141796666Y-56914895D02*
X141568095Y-56914895D01*
X141568095Y-56914895D02*
X141491904Y-56876800D01*
X141491904Y-56876800D02*
X141453809Y-56838704D01*
X142710952Y-56914895D02*
X142253809Y-56914895D01*
X142482381Y-56914895D02*
X142482381Y-56114895D01*
X142482381Y-56114895D02*
X142406190Y-56229180D01*
X142406190Y-56229180D02*
X142330000Y-56305371D01*
X142330000Y-56305371D02*
X142253809Y-56343466D01*
X109674895Y-47514285D02*
X110474895Y-47247618D01*
X110474895Y-47247618D02*
X109674895Y-46980952D01*
X110055847Y-46447619D02*
X110093942Y-46333333D01*
X110093942Y-46333333D02*
X110132038Y-46295238D01*
X110132038Y-46295238D02*
X110208228Y-46257142D01*
X110208228Y-46257142D02*
X110322514Y-46257142D01*
X110322514Y-46257142D02*
X110398704Y-46295238D01*
X110398704Y-46295238D02*
X110436800Y-46333333D01*
X110436800Y-46333333D02*
X110474895Y-46409523D01*
X110474895Y-46409523D02*
X110474895Y-46714285D01*
X110474895Y-46714285D02*
X109674895Y-46714285D01*
X109674895Y-46714285D02*
X109674895Y-46447619D01*
X109674895Y-46447619D02*
X109712990Y-46371428D01*
X109712990Y-46371428D02*
X109751085Y-46333333D01*
X109751085Y-46333333D02*
X109827276Y-46295238D01*
X109827276Y-46295238D02*
X109903466Y-46295238D01*
X109903466Y-46295238D02*
X109979657Y-46333333D01*
X109979657Y-46333333D02*
X110017752Y-46371428D01*
X110017752Y-46371428D02*
X110055847Y-46447619D01*
X110055847Y-46447619D02*
X110055847Y-46714285D01*
X110246323Y-45952381D02*
X110246323Y-45571428D01*
X110474895Y-46028571D02*
X109674895Y-45761904D01*
X109674895Y-45761904D02*
X110474895Y-45495238D01*
X109674895Y-45342857D02*
X109674895Y-44885714D01*
X110474895Y-45114286D02*
X109674895Y-45114286D01*
X114842990Y-46829523D02*
X114804895Y-46905713D01*
X114804895Y-46905713D02*
X114804895Y-47019999D01*
X114804895Y-47019999D02*
X114842990Y-47134285D01*
X114842990Y-47134285D02*
X114919180Y-47210475D01*
X114919180Y-47210475D02*
X114995371Y-47248570D01*
X114995371Y-47248570D02*
X115147752Y-47286666D01*
X115147752Y-47286666D02*
X115262038Y-47286666D01*
X115262038Y-47286666D02*
X115414419Y-47248570D01*
X115414419Y-47248570D02*
X115490609Y-47210475D01*
X115490609Y-47210475D02*
X115566800Y-47134285D01*
X115566800Y-47134285D02*
X115604895Y-47019999D01*
X115604895Y-47019999D02*
X115604895Y-46943808D01*
X115604895Y-46943808D02*
X115566800Y-46829523D01*
X115566800Y-46829523D02*
X115528704Y-46791427D01*
X115528704Y-46791427D02*
X115262038Y-46791427D01*
X115262038Y-46791427D02*
X115262038Y-46943808D01*
X115604895Y-46448570D02*
X114804895Y-46448570D01*
X114804895Y-46448570D02*
X115604895Y-45991427D01*
X115604895Y-45991427D02*
X114804895Y-45991427D01*
X115604895Y-45610475D02*
X114804895Y-45610475D01*
X114804895Y-45610475D02*
X114804895Y-45419999D01*
X114804895Y-45419999D02*
X114842990Y-45305713D01*
X114842990Y-45305713D02*
X114919180Y-45229523D01*
X114919180Y-45229523D02*
X114995371Y-45191428D01*
X114995371Y-45191428D02*
X115147752Y-45153332D01*
X115147752Y-45153332D02*
X115262038Y-45153332D01*
X115262038Y-45153332D02*
X115414419Y-45191428D01*
X115414419Y-45191428D02*
X115490609Y-45229523D01*
X115490609Y-45229523D02*
X115566800Y-45305713D01*
X115566800Y-45305713D02*
X115604895Y-45419999D01*
X115604895Y-45419999D02*
X115604895Y-45610475D01*
X117880133Y-47579523D02*
X117880133Y-46970000D01*
X118184895Y-47274761D02*
X117575371Y-47274761D01*
X117384895Y-46665238D02*
X117384895Y-46170000D01*
X117384895Y-46170000D02*
X117689657Y-46436666D01*
X117689657Y-46436666D02*
X117689657Y-46322381D01*
X117689657Y-46322381D02*
X117727752Y-46246190D01*
X117727752Y-46246190D02*
X117765847Y-46208095D01*
X117765847Y-46208095D02*
X117842038Y-46170000D01*
X117842038Y-46170000D02*
X118032514Y-46170000D01*
X118032514Y-46170000D02*
X118108704Y-46208095D01*
X118108704Y-46208095D02*
X118146800Y-46246190D01*
X118146800Y-46246190D02*
X118184895Y-46322381D01*
X118184895Y-46322381D02*
X118184895Y-46550952D01*
X118184895Y-46550952D02*
X118146800Y-46627143D01*
X118146800Y-46627143D02*
X118108704Y-46665238D01*
X117384895Y-45941428D02*
X118184895Y-45674761D01*
X118184895Y-45674761D02*
X117384895Y-45408095D01*
X117384895Y-45217619D02*
X117384895Y-44722381D01*
X117384895Y-44722381D02*
X117689657Y-44989047D01*
X117689657Y-44989047D02*
X117689657Y-44874762D01*
X117689657Y-44874762D02*
X117727752Y-44798571D01*
X117727752Y-44798571D02*
X117765847Y-44760476D01*
X117765847Y-44760476D02*
X117842038Y-44722381D01*
X117842038Y-44722381D02*
X118032514Y-44722381D01*
X118032514Y-44722381D02*
X118108704Y-44760476D01*
X118108704Y-44760476D02*
X118146800Y-44798571D01*
X118146800Y-44798571D02*
X118184895Y-44874762D01*
X118184895Y-44874762D02*
X118184895Y-45103333D01*
X118184895Y-45103333D02*
X118146800Y-45179524D01*
X118146800Y-45179524D02*
X118108704Y-45217619D01*
X120574895Y-47482856D02*
X119774895Y-47482856D01*
X119774895Y-47482856D02*
X119774895Y-47178094D01*
X119774895Y-47178094D02*
X119812990Y-47101904D01*
X119812990Y-47101904D02*
X119851085Y-47063809D01*
X119851085Y-47063809D02*
X119927276Y-47025713D01*
X119927276Y-47025713D02*
X120041561Y-47025713D01*
X120041561Y-47025713D02*
X120117752Y-47063809D01*
X120117752Y-47063809D02*
X120155847Y-47101904D01*
X120155847Y-47101904D02*
X120193942Y-47178094D01*
X120193942Y-47178094D02*
X120193942Y-47482856D01*
X120574895Y-46263809D02*
X120574895Y-46720952D01*
X120574895Y-46492380D02*
X119774895Y-46492380D01*
X119774895Y-46492380D02*
X119889180Y-46568571D01*
X119889180Y-46568571D02*
X119965371Y-46644761D01*
X119965371Y-46644761D02*
X120003466Y-46720952D01*
X120498704Y-45920951D02*
X120536800Y-45882856D01*
X120536800Y-45882856D02*
X120574895Y-45920951D01*
X120574895Y-45920951D02*
X120536800Y-45959047D01*
X120536800Y-45959047D02*
X120498704Y-45920951D01*
X120498704Y-45920951D02*
X120574895Y-45920951D01*
X119774895Y-45387618D02*
X119774895Y-45311428D01*
X119774895Y-45311428D02*
X119812990Y-45235237D01*
X119812990Y-45235237D02*
X119851085Y-45197142D01*
X119851085Y-45197142D02*
X119927276Y-45159047D01*
X119927276Y-45159047D02*
X120079657Y-45120952D01*
X120079657Y-45120952D02*
X120270133Y-45120952D01*
X120270133Y-45120952D02*
X120422514Y-45159047D01*
X120422514Y-45159047D02*
X120498704Y-45197142D01*
X120498704Y-45197142D02*
X120536800Y-45235237D01*
X120536800Y-45235237D02*
X120574895Y-45311428D01*
X120574895Y-45311428D02*
X120574895Y-45387618D01*
X120574895Y-45387618D02*
X120536800Y-45463809D01*
X120536800Y-45463809D02*
X120498704Y-45501904D01*
X120498704Y-45501904D02*
X120422514Y-45539999D01*
X120422514Y-45539999D02*
X120270133Y-45578095D01*
X120270133Y-45578095D02*
X120079657Y-45578095D01*
X120079657Y-45578095D02*
X119927276Y-45539999D01*
X119927276Y-45539999D02*
X119851085Y-45501904D01*
X119851085Y-45501904D02*
X119812990Y-45463809D01*
X119812990Y-45463809D02*
X119774895Y-45387618D01*
X119774895Y-44854285D02*
X119774895Y-44320951D01*
X119774895Y-44320951D02*
X120574895Y-44663809D01*
X123124895Y-47482856D02*
X122324895Y-47482856D01*
X122324895Y-47482856D02*
X122324895Y-47178094D01*
X122324895Y-47178094D02*
X122362990Y-47101904D01*
X122362990Y-47101904D02*
X122401085Y-47063809D01*
X122401085Y-47063809D02*
X122477276Y-47025713D01*
X122477276Y-47025713D02*
X122591561Y-47025713D01*
X122591561Y-47025713D02*
X122667752Y-47063809D01*
X122667752Y-47063809D02*
X122705847Y-47101904D01*
X122705847Y-47101904D02*
X122743942Y-47178094D01*
X122743942Y-47178094D02*
X122743942Y-47482856D01*
X123124895Y-46263809D02*
X123124895Y-46720952D01*
X123124895Y-46492380D02*
X122324895Y-46492380D01*
X122324895Y-46492380D02*
X122439180Y-46568571D01*
X122439180Y-46568571D02*
X122515371Y-46644761D01*
X122515371Y-46644761D02*
X122553466Y-46720952D01*
X123048704Y-45920951D02*
X123086800Y-45882856D01*
X123086800Y-45882856D02*
X123124895Y-45920951D01*
X123124895Y-45920951D02*
X123086800Y-45959047D01*
X123086800Y-45959047D02*
X123048704Y-45920951D01*
X123048704Y-45920951D02*
X123124895Y-45920951D01*
X122324895Y-45387618D02*
X122324895Y-45311428D01*
X122324895Y-45311428D02*
X122362990Y-45235237D01*
X122362990Y-45235237D02*
X122401085Y-45197142D01*
X122401085Y-45197142D02*
X122477276Y-45159047D01*
X122477276Y-45159047D02*
X122629657Y-45120952D01*
X122629657Y-45120952D02*
X122820133Y-45120952D01*
X122820133Y-45120952D02*
X122972514Y-45159047D01*
X122972514Y-45159047D02*
X123048704Y-45197142D01*
X123048704Y-45197142D02*
X123086800Y-45235237D01*
X123086800Y-45235237D02*
X123124895Y-45311428D01*
X123124895Y-45311428D02*
X123124895Y-45387618D01*
X123124895Y-45387618D02*
X123086800Y-45463809D01*
X123086800Y-45463809D02*
X123048704Y-45501904D01*
X123048704Y-45501904D02*
X122972514Y-45539999D01*
X122972514Y-45539999D02*
X122820133Y-45578095D01*
X122820133Y-45578095D02*
X122629657Y-45578095D01*
X122629657Y-45578095D02*
X122477276Y-45539999D01*
X122477276Y-45539999D02*
X122401085Y-45501904D01*
X122401085Y-45501904D02*
X122362990Y-45463809D01*
X122362990Y-45463809D02*
X122324895Y-45387618D01*
X122667752Y-44663809D02*
X122629657Y-44739999D01*
X122629657Y-44739999D02*
X122591561Y-44778094D01*
X122591561Y-44778094D02*
X122515371Y-44816190D01*
X122515371Y-44816190D02*
X122477276Y-44816190D01*
X122477276Y-44816190D02*
X122401085Y-44778094D01*
X122401085Y-44778094D02*
X122362990Y-44739999D01*
X122362990Y-44739999D02*
X122324895Y-44663809D01*
X122324895Y-44663809D02*
X122324895Y-44511428D01*
X122324895Y-44511428D02*
X122362990Y-44435237D01*
X122362990Y-44435237D02*
X122401085Y-44397142D01*
X122401085Y-44397142D02*
X122477276Y-44359047D01*
X122477276Y-44359047D02*
X122515371Y-44359047D01*
X122515371Y-44359047D02*
X122591561Y-44397142D01*
X122591561Y-44397142D02*
X122629657Y-44435237D01*
X122629657Y-44435237D02*
X122667752Y-44511428D01*
X122667752Y-44511428D02*
X122667752Y-44663809D01*
X122667752Y-44663809D02*
X122705847Y-44739999D01*
X122705847Y-44739999D02*
X122743942Y-44778094D01*
X122743942Y-44778094D02*
X122820133Y-44816190D01*
X122820133Y-44816190D02*
X122972514Y-44816190D01*
X122972514Y-44816190D02*
X123048704Y-44778094D01*
X123048704Y-44778094D02*
X123086800Y-44739999D01*
X123086800Y-44739999D02*
X123124895Y-44663809D01*
X123124895Y-44663809D02*
X123124895Y-44511428D01*
X123124895Y-44511428D02*
X123086800Y-44435237D01*
X123086800Y-44435237D02*
X123048704Y-44397142D01*
X123048704Y-44397142D02*
X122972514Y-44359047D01*
X122972514Y-44359047D02*
X122820133Y-44359047D01*
X122820133Y-44359047D02*
X122743942Y-44397142D01*
X122743942Y-44397142D02*
X122705847Y-44435237D01*
X122705847Y-44435237D02*
X122667752Y-44511428D01*
X130062990Y-46939523D02*
X130024895Y-47015713D01*
X130024895Y-47015713D02*
X130024895Y-47129999D01*
X130024895Y-47129999D02*
X130062990Y-47244285D01*
X130062990Y-47244285D02*
X130139180Y-47320475D01*
X130139180Y-47320475D02*
X130215371Y-47358570D01*
X130215371Y-47358570D02*
X130367752Y-47396666D01*
X130367752Y-47396666D02*
X130482038Y-47396666D01*
X130482038Y-47396666D02*
X130634419Y-47358570D01*
X130634419Y-47358570D02*
X130710609Y-47320475D01*
X130710609Y-47320475D02*
X130786800Y-47244285D01*
X130786800Y-47244285D02*
X130824895Y-47129999D01*
X130824895Y-47129999D02*
X130824895Y-47053808D01*
X130824895Y-47053808D02*
X130786800Y-46939523D01*
X130786800Y-46939523D02*
X130748704Y-46901427D01*
X130748704Y-46901427D02*
X130482038Y-46901427D01*
X130482038Y-46901427D02*
X130482038Y-47053808D01*
X130824895Y-46558570D02*
X130024895Y-46558570D01*
X130024895Y-46558570D02*
X130824895Y-46101427D01*
X130824895Y-46101427D02*
X130024895Y-46101427D01*
X130824895Y-45720475D02*
X130024895Y-45720475D01*
X130024895Y-45720475D02*
X130024895Y-45529999D01*
X130024895Y-45529999D02*
X130062990Y-45415713D01*
X130062990Y-45415713D02*
X130139180Y-45339523D01*
X130139180Y-45339523D02*
X130215371Y-45301428D01*
X130215371Y-45301428D02*
X130367752Y-45263332D01*
X130367752Y-45263332D02*
X130482038Y-45263332D01*
X130482038Y-45263332D02*
X130634419Y-45301428D01*
X130634419Y-45301428D02*
X130710609Y-45339523D01*
X130710609Y-45339523D02*
X130786800Y-45415713D01*
X130786800Y-45415713D02*
X130824895Y-45529999D01*
X130824895Y-45529999D02*
X130824895Y-45720475D01*
X133294895Y-47372856D02*
X132494895Y-47372856D01*
X132494895Y-47372856D02*
X132494895Y-47068094D01*
X132494895Y-47068094D02*
X132532990Y-46991904D01*
X132532990Y-46991904D02*
X132571085Y-46953809D01*
X132571085Y-46953809D02*
X132647276Y-46915713D01*
X132647276Y-46915713D02*
X132761561Y-46915713D01*
X132761561Y-46915713D02*
X132837752Y-46953809D01*
X132837752Y-46953809D02*
X132875847Y-46991904D01*
X132875847Y-46991904D02*
X132913942Y-47068094D01*
X132913942Y-47068094D02*
X132913942Y-47372856D01*
X133294895Y-46153809D02*
X133294895Y-46610952D01*
X133294895Y-46382380D02*
X132494895Y-46382380D01*
X132494895Y-46382380D02*
X132609180Y-46458571D01*
X132609180Y-46458571D02*
X132685371Y-46534761D01*
X132685371Y-46534761D02*
X132723466Y-46610952D01*
X133218704Y-45810951D02*
X133256800Y-45772856D01*
X133256800Y-45772856D02*
X133294895Y-45810951D01*
X133294895Y-45810951D02*
X133256800Y-45849047D01*
X133256800Y-45849047D02*
X133218704Y-45810951D01*
X133218704Y-45810951D02*
X133294895Y-45810951D01*
X133294895Y-45010952D02*
X133294895Y-45468095D01*
X133294895Y-45239523D02*
X132494895Y-45239523D01*
X132494895Y-45239523D02*
X132609180Y-45315714D01*
X132609180Y-45315714D02*
X132685371Y-45391904D01*
X132685371Y-45391904D02*
X132723466Y-45468095D01*
X133294895Y-44249047D02*
X133294895Y-44706190D01*
X133294895Y-44477618D02*
X132494895Y-44477618D01*
X132494895Y-44477618D02*
X132609180Y-44553809D01*
X132609180Y-44553809D02*
X132685371Y-44629999D01*
X132685371Y-44629999D02*
X132723466Y-44706190D01*
X135984895Y-47432856D02*
X135184895Y-47432856D01*
X135184895Y-47432856D02*
X135184895Y-47128094D01*
X135184895Y-47128094D02*
X135222990Y-47051904D01*
X135222990Y-47051904D02*
X135261085Y-47013809D01*
X135261085Y-47013809D02*
X135337276Y-46975713D01*
X135337276Y-46975713D02*
X135451561Y-46975713D01*
X135451561Y-46975713D02*
X135527752Y-47013809D01*
X135527752Y-47013809D02*
X135565847Y-47051904D01*
X135565847Y-47051904D02*
X135603942Y-47128094D01*
X135603942Y-47128094D02*
X135603942Y-47432856D01*
X135984895Y-46213809D02*
X135984895Y-46670952D01*
X135984895Y-46442380D02*
X135184895Y-46442380D01*
X135184895Y-46442380D02*
X135299180Y-46518571D01*
X135299180Y-46518571D02*
X135375371Y-46594761D01*
X135375371Y-46594761D02*
X135413466Y-46670952D01*
X135908704Y-45870951D02*
X135946800Y-45832856D01*
X135946800Y-45832856D02*
X135984895Y-45870951D01*
X135984895Y-45870951D02*
X135946800Y-45909047D01*
X135946800Y-45909047D02*
X135908704Y-45870951D01*
X135908704Y-45870951D02*
X135984895Y-45870951D01*
X135984895Y-45070952D02*
X135984895Y-45528095D01*
X135984895Y-45299523D02*
X135184895Y-45299523D01*
X135184895Y-45299523D02*
X135299180Y-45375714D01*
X135299180Y-45375714D02*
X135375371Y-45451904D01*
X135375371Y-45451904D02*
X135413466Y-45528095D01*
X135261085Y-44766190D02*
X135222990Y-44728094D01*
X135222990Y-44728094D02*
X135184895Y-44651904D01*
X135184895Y-44651904D02*
X135184895Y-44461428D01*
X135184895Y-44461428D02*
X135222990Y-44385237D01*
X135222990Y-44385237D02*
X135261085Y-44347142D01*
X135261085Y-44347142D02*
X135337276Y-44309047D01*
X135337276Y-44309047D02*
X135413466Y-44309047D01*
X135413466Y-44309047D02*
X135527752Y-44347142D01*
X135527752Y-44347142D02*
X135984895Y-44804285D01*
X135984895Y-44804285D02*
X135984895Y-44309047D01*
X137564895Y-47436666D02*
X138364895Y-47169999D01*
X138364895Y-47169999D02*
X137564895Y-46903333D01*
X137945847Y-46370000D02*
X137983942Y-46255714D01*
X137983942Y-46255714D02*
X138022038Y-46217619D01*
X138022038Y-46217619D02*
X138098228Y-46179523D01*
X138098228Y-46179523D02*
X138212514Y-46179523D01*
X138212514Y-46179523D02*
X138288704Y-46217619D01*
X138288704Y-46217619D02*
X138326800Y-46255714D01*
X138326800Y-46255714D02*
X138364895Y-46331904D01*
X138364895Y-46331904D02*
X138364895Y-46636666D01*
X138364895Y-46636666D02*
X137564895Y-46636666D01*
X137564895Y-46636666D02*
X137564895Y-46370000D01*
X137564895Y-46370000D02*
X137602990Y-46293809D01*
X137602990Y-46293809D02*
X137641085Y-46255714D01*
X137641085Y-46255714D02*
X137717276Y-46217619D01*
X137717276Y-46217619D02*
X137793466Y-46217619D01*
X137793466Y-46217619D02*
X137869657Y-46255714D01*
X137869657Y-46255714D02*
X137907752Y-46293809D01*
X137907752Y-46293809D02*
X137945847Y-46370000D01*
X137945847Y-46370000D02*
X137945847Y-46636666D01*
X137564895Y-45836666D02*
X138212514Y-45836666D01*
X138212514Y-45836666D02*
X138288704Y-45798571D01*
X138288704Y-45798571D02*
X138326800Y-45760476D01*
X138326800Y-45760476D02*
X138364895Y-45684285D01*
X138364895Y-45684285D02*
X138364895Y-45531904D01*
X138364895Y-45531904D02*
X138326800Y-45455714D01*
X138326800Y-45455714D02*
X138288704Y-45417619D01*
X138288704Y-45417619D02*
X138212514Y-45379523D01*
X138212514Y-45379523D02*
X137564895Y-45379523D01*
X138326800Y-45036667D02*
X138364895Y-44922381D01*
X138364895Y-44922381D02*
X138364895Y-44731905D01*
X138364895Y-44731905D02*
X138326800Y-44655714D01*
X138326800Y-44655714D02*
X138288704Y-44617619D01*
X138288704Y-44617619D02*
X138212514Y-44579524D01*
X138212514Y-44579524D02*
X138136323Y-44579524D01*
X138136323Y-44579524D02*
X138060133Y-44617619D01*
X138060133Y-44617619D02*
X138022038Y-44655714D01*
X138022038Y-44655714D02*
X137983942Y-44731905D01*
X137983942Y-44731905D02*
X137945847Y-44884286D01*
X137945847Y-44884286D02*
X137907752Y-44960476D01*
X137907752Y-44960476D02*
X137869657Y-44998571D01*
X137869657Y-44998571D02*
X137793466Y-45036667D01*
X137793466Y-45036667D02*
X137717276Y-45036667D01*
X137717276Y-45036667D02*
X137641085Y-44998571D01*
X137641085Y-44998571D02*
X137602990Y-44960476D01*
X137602990Y-44960476D02*
X137564895Y-44884286D01*
X137564895Y-44884286D02*
X137564895Y-44693809D01*
X137564895Y-44693809D02*
X137602990Y-44579524D01*
X115630000Y-55861561D02*
X115630000Y-54718704D01*
X120720000Y-55871561D02*
X120720000Y-54728704D01*
X125670000Y-55931561D02*
X125670000Y-54788704D01*
X135920000Y-55831561D02*
X135920000Y-54688704D01*
X141100000Y-55861561D02*
X141100000Y-54718704D01*
D11*
X135393333Y-101174819D02*
X135060000Y-100698628D01*
X134821905Y-101174819D02*
X134821905Y-100174819D01*
X134821905Y-100174819D02*
X135202857Y-100174819D01*
X135202857Y-100174819D02*
X135298095Y-100222438D01*
X135298095Y-100222438D02*
X135345714Y-100270057D01*
X135345714Y-100270057D02*
X135393333Y-100365295D01*
X135393333Y-100365295D02*
X135393333Y-100508152D01*
X135393333Y-100508152D02*
X135345714Y-100603390D01*
X135345714Y-100603390D02*
X135298095Y-100651009D01*
X135298095Y-100651009D02*
X135202857Y-100698628D01*
X135202857Y-100698628D02*
X134821905Y-100698628D01*
X135726667Y-100174819D02*
X136345714Y-100174819D01*
X136345714Y-100174819D02*
X136012381Y-100555771D01*
X136012381Y-100555771D02*
X136155238Y-100555771D01*
X136155238Y-100555771D02*
X136250476Y-100603390D01*
X136250476Y-100603390D02*
X136298095Y-100651009D01*
X136298095Y-100651009D02*
X136345714Y-100746247D01*
X136345714Y-100746247D02*
X136345714Y-100984342D01*
X136345714Y-100984342D02*
X136298095Y-101079580D01*
X136298095Y-101079580D02*
X136250476Y-101127200D01*
X136250476Y-101127200D02*
X136155238Y-101174819D01*
X136155238Y-101174819D02*
X135869524Y-101174819D01*
X135869524Y-101174819D02*
X135774286Y-101127200D01*
X135774286Y-101127200D02*
X135726667Y-101079580D01*
D12*
X149005161Y-94693482D02*
X149052780Y-94598244D01*
X149052780Y-94598244D02*
X149052780Y-94455387D01*
X149052780Y-94455387D02*
X149005161Y-94312530D01*
X149005161Y-94312530D02*
X148909923Y-94217292D01*
X148909923Y-94217292D02*
X148814685Y-94169673D01*
X148814685Y-94169673D02*
X148624209Y-94122054D01*
X148624209Y-94122054D02*
X148481352Y-94122054D01*
X148481352Y-94122054D02*
X148290876Y-94169673D01*
X148290876Y-94169673D02*
X148195638Y-94217292D01*
X148195638Y-94217292D02*
X148100400Y-94312530D01*
X148100400Y-94312530D02*
X148052780Y-94455387D01*
X148052780Y-94455387D02*
X148052780Y-94550625D01*
X148052780Y-94550625D02*
X148100400Y-94693482D01*
X148100400Y-94693482D02*
X148148019Y-94741101D01*
X148148019Y-94741101D02*
X148481352Y-94741101D01*
X148481352Y-94741101D02*
X148481352Y-94550625D01*
X148052780Y-95169673D02*
X149052780Y-95169673D01*
X149052780Y-95169673D02*
X148052780Y-95741101D01*
X148052780Y-95741101D02*
X149052780Y-95741101D01*
X148052780Y-96217292D02*
X149052780Y-96217292D01*
X149052780Y-96217292D02*
X149052780Y-96455387D01*
X149052780Y-96455387D02*
X149005161Y-96598244D01*
X149005161Y-96598244D02*
X148909923Y-96693482D01*
X148909923Y-96693482D02*
X148814685Y-96741101D01*
X148814685Y-96741101D02*
X148624209Y-96788720D01*
X148624209Y-96788720D02*
X148481352Y-96788720D01*
X148481352Y-96788720D02*
X148290876Y-96741101D01*
X148290876Y-96741101D02*
X148195638Y-96693482D01*
X148195638Y-96693482D02*
X148100400Y-96598244D01*
X148100400Y-96598244D02*
X148052780Y-96455387D01*
X148052780Y-96455387D02*
X148052780Y-96217292D01*
D13*
X147933558Y-92257733D02*
X149457368Y-92257733D01*
X148695463Y-93019638D02*
X148695463Y-91495828D01*
D14*
G36*
X118604028Y-79883653D02*
G01*
X118568530Y-79879013D01*
X118543131Y-79866436D01*
X118525168Y-79846284D01*
X118512541Y-79812629D01*
X118498515Y-79737107D01*
X118261844Y-79808731D01*
X118180283Y-79849134D01*
X118130826Y-79889204D01*
X118104493Y-79929085D01*
X118095881Y-79970481D01*
X118156331Y-79986784D01*
X118313037Y-80021834D01*
X118426819Y-80060911D01*
X118506758Y-80102281D01*
X118580516Y-80162657D01*
X118631710Y-80233041D01*
X118662847Y-80315314D01*
X118673729Y-80412866D01*
X118664401Y-80492219D01*
X118637677Y-80558852D01*
X118593501Y-80615683D01*
X118529289Y-80664192D01*
X118446549Y-80701346D01*
X118346650Y-80725102D01*
X118225940Y-80733618D01*
X118094319Y-80722355D01*
X117969851Y-80688921D01*
X117893090Y-80653093D01*
X117845922Y-80614977D01*
X117820345Y-80574667D01*
X117812040Y-80530377D01*
X117819913Y-80492736D01*
X117844280Y-80459303D01*
X117879151Y-80436268D01*
X117917553Y-80428803D01*
X117949593Y-80438529D01*
X117999527Y-80477621D01*
X118032846Y-80496514D01*
X118110260Y-80516272D01*
X118226031Y-80528454D01*
X118309197Y-80523022D01*
X118377706Y-80507937D01*
X118434825Y-80481445D01*
X118463786Y-80450454D01*
X118472961Y-80413782D01*
X118465881Y-80363967D01*
X118445199Y-80321497D01*
X118409755Y-80284402D01*
X118355954Y-80252101D01*
X118278238Y-80225471D01*
X118171718Y-80201840D01*
X118046516Y-80166320D01*
X117978003Y-80132048D01*
X117932493Y-80088016D01*
X117904877Y-80031517D01*
X117895021Y-79958483D01*
X117903437Y-79875989D01*
X117927428Y-79806309D01*
X117966488Y-79746755D01*
X118021962Y-79695658D01*
X118096888Y-79652568D01*
X118168082Y-79625094D01*
X118293534Y-79586348D01*
X118418701Y-79547670D01*
X118487249Y-79521135D01*
X118530695Y-79507337D01*
X118578474Y-79502634D01*
X118618978Y-79509974D01*
X118650648Y-79531302D01*
X118671555Y-79563665D01*
X118678858Y-79606040D01*
X118691680Y-79693143D01*
X118704503Y-79780246D01*
X118697201Y-79822622D01*
X118676293Y-79854985D01*
X118644611Y-79876309D01*
X118604028Y-79883653D01*
G37*
G36*
X119497153Y-79609421D02*
G01*
X119588484Y-79629111D01*
X119662454Y-79659438D01*
X119721488Y-79700517D01*
X119761814Y-79749218D01*
X119786127Y-79806791D01*
X119794620Y-79875959D01*
X119788132Y-79923279D01*
X119768259Y-79969230D01*
X119733028Y-80015142D01*
X119678849Y-80061797D01*
X119612381Y-80101868D01*
X119461595Y-80177019D01*
X119070135Y-80363315D01*
X119112098Y-80415960D01*
X119159569Y-80458335D01*
X119213017Y-80491359D01*
X119271550Y-80514713D01*
X119337567Y-80529246D01*
X119412411Y-80534316D01*
X119485580Y-80528231D01*
X119578374Y-80507663D01*
X119656875Y-80479397D01*
X119705982Y-80449640D01*
X119734078Y-80419094D01*
X119760335Y-80386303D01*
X119784879Y-80369478D01*
X119808908Y-80364323D01*
X119842504Y-80370993D01*
X119872930Y-80391617D01*
X119894241Y-80421455D01*
X119901140Y-80454998D01*
X119891800Y-80504994D01*
X119862413Y-80553370D01*
X119807474Y-80602160D01*
X119717684Y-80651827D01*
X119611491Y-80691541D01*
X119510081Y-80714450D01*
X119412319Y-80721894D01*
X119296722Y-80713888D01*
X119197337Y-80691184D01*
X119111574Y-80655083D01*
X119037345Y-80605940D01*
X118969520Y-80536382D01*
X118921110Y-80455074D01*
X118891105Y-80359674D01*
X118880541Y-80246720D01*
X118885322Y-80173996D01*
X119052732Y-80173996D01*
X119367348Y-80023787D01*
X119537595Y-79932250D01*
X119631680Y-79866342D01*
X119568228Y-79822167D01*
X119487552Y-79794151D01*
X119384750Y-79784002D01*
X119305841Y-79794877D01*
X119237448Y-79826760D01*
X119176747Y-79881271D01*
X119129617Y-79950451D01*
X119087759Y-80045820D01*
X119052732Y-80173996D01*
X118885322Y-80173996D01*
X118889286Y-80113697D01*
X118914350Y-79996258D01*
X118954583Y-79892092D01*
X119009685Y-79799297D01*
X119071217Y-79726798D01*
X119138459Y-79672305D01*
X119212138Y-79633793D01*
X119293609Y-79610358D01*
X119384750Y-79602285D01*
X119497153Y-79609421D01*
G37*
G36*
X120870174Y-80745341D02*
G01*
X120830371Y-80739125D01*
X120802030Y-80721975D01*
X120782167Y-80693293D01*
X120770798Y-80648988D01*
X120742130Y-80424590D01*
X120731208Y-80306325D01*
X120727750Y-80200100D01*
X120731322Y-80102739D01*
X120734894Y-80005377D01*
X120726629Y-79887113D01*
X120707424Y-79823260D01*
X120682803Y-79793110D01*
X120652920Y-79784002D01*
X120599968Y-79791409D01*
X120546736Y-79814442D01*
X120491649Y-79855873D01*
X120433651Y-79920289D01*
X120377443Y-80006570D01*
X120328034Y-80110266D01*
X120286098Y-80233989D01*
X120276847Y-80334464D01*
X120270710Y-80433840D01*
X120276847Y-80526164D01*
X120282984Y-80618396D01*
X120275681Y-80660771D01*
X120254774Y-80693135D01*
X120223096Y-80714534D01*
X120182600Y-80721894D01*
X120141290Y-80714499D01*
X120109785Y-80693226D01*
X120089298Y-80660921D01*
X120082124Y-80618579D01*
X120075438Y-80526439D01*
X120068844Y-80434390D01*
X120083681Y-80142214D01*
X120098611Y-79850130D01*
X120094947Y-79752861D01*
X120091375Y-79655683D01*
X120098837Y-79615224D01*
X120120593Y-79583509D01*
X120152990Y-79562528D01*
X120192858Y-79555390D01*
X120233226Y-79563043D01*
X120262930Y-79585005D01*
X120284452Y-79624108D01*
X120296264Y-79688014D01*
X120299378Y-79807449D01*
X120376733Y-79716753D01*
X120449757Y-79652670D01*
X120519285Y-79610463D01*
X120586503Y-79586575D01*
X120652920Y-79578838D01*
X120730749Y-79588399D01*
X120792617Y-79615277D01*
X120842296Y-79659202D01*
X120881440Y-79723094D01*
X120904270Y-79789056D01*
X120921179Y-79881487D01*
X120929617Y-80007575D01*
X120929617Y-80110890D01*
X120928609Y-80206053D01*
X120933463Y-80296880D01*
X120950591Y-80425597D01*
X120967806Y-80554172D01*
X120972664Y-80644042D01*
X120965158Y-80685369D01*
X120943447Y-80717223D01*
X120910910Y-80738161D01*
X120870174Y-80745341D01*
G37*
G36*
X121874928Y-79883653D02*
G01*
X121839430Y-79879013D01*
X121814031Y-79866436D01*
X121796068Y-79846284D01*
X121783441Y-79812629D01*
X121769415Y-79737107D01*
X121532744Y-79808731D01*
X121451183Y-79849134D01*
X121401726Y-79889204D01*
X121375394Y-79929085D01*
X121366781Y-79970481D01*
X121427231Y-79986784D01*
X121583938Y-80021834D01*
X121697719Y-80060911D01*
X121777658Y-80102281D01*
X121851416Y-80162657D01*
X121902610Y-80233041D01*
X121933748Y-80315314D01*
X121944629Y-80412866D01*
X121935301Y-80492219D01*
X121908578Y-80558852D01*
X121864401Y-80615683D01*
X121800190Y-80664192D01*
X121717450Y-80701346D01*
X121617550Y-80725102D01*
X121496840Y-80733618D01*
X121365219Y-80722355D01*
X121240751Y-80688921D01*
X121163991Y-80653093D01*
X121116823Y-80614977D01*
X121091246Y-80574667D01*
X121082940Y-80530377D01*
X121090813Y-80492736D01*
X121115180Y-80459303D01*
X121150051Y-80436268D01*
X121188453Y-80428803D01*
X121220493Y-80438529D01*
X121270427Y-80477621D01*
X121303747Y-80496514D01*
X121381161Y-80516272D01*
X121496932Y-80528454D01*
X121580097Y-80523022D01*
X121648606Y-80507937D01*
X121705725Y-80481445D01*
X121734686Y-80450454D01*
X121743861Y-80413782D01*
X121736782Y-80363967D01*
X121716099Y-80321497D01*
X121680655Y-80284402D01*
X121626855Y-80252101D01*
X121549139Y-80225471D01*
X121442618Y-80201840D01*
X121317416Y-80166320D01*
X121248903Y-80132048D01*
X121203393Y-80088016D01*
X121175777Y-80031517D01*
X121165922Y-79958483D01*
X121174337Y-79875989D01*
X121198328Y-79806309D01*
X121237388Y-79746755D01*
X121292862Y-79695658D01*
X121367788Y-79652568D01*
X121438982Y-79625094D01*
X121564434Y-79586348D01*
X121689601Y-79547670D01*
X121758149Y-79521135D01*
X121801595Y-79507337D01*
X121849374Y-79502634D01*
X121889878Y-79509974D01*
X121921548Y-79531302D01*
X121942455Y-79563665D01*
X121949758Y-79606040D01*
X121962581Y-79693143D01*
X121975403Y-79780246D01*
X121968101Y-79822622D01*
X121947193Y-79854985D01*
X121915511Y-79876309D01*
X121874928Y-79883653D01*
G37*
G36*
X122768054Y-79609421D02*
G01*
X122859385Y-79629111D01*
X122933354Y-79659438D01*
X122992388Y-79700517D01*
X123032715Y-79749218D01*
X123057028Y-79806791D01*
X123065520Y-79875959D01*
X123059032Y-79923279D01*
X123039159Y-79969230D01*
X123003928Y-80015142D01*
X122949749Y-80061797D01*
X122883281Y-80101868D01*
X122732495Y-80177019D01*
X122341035Y-80363315D01*
X122382998Y-80415960D01*
X122430469Y-80458335D01*
X122483917Y-80491359D01*
X122542451Y-80514713D01*
X122608467Y-80529246D01*
X122683311Y-80534316D01*
X122756481Y-80528231D01*
X122849274Y-80507663D01*
X122927775Y-80479397D01*
X122976882Y-80449640D01*
X123004979Y-80419094D01*
X123031235Y-80386303D01*
X123055780Y-80369478D01*
X123079808Y-80364323D01*
X123113405Y-80370993D01*
X123143831Y-80391617D01*
X123165141Y-80421455D01*
X123172041Y-80454998D01*
X123162701Y-80504994D01*
X123133314Y-80553370D01*
X123078374Y-80602160D01*
X122988584Y-80651827D01*
X122882392Y-80691541D01*
X122780981Y-80714450D01*
X122683219Y-80721894D01*
X122567622Y-80713888D01*
X122468237Y-80691184D01*
X122382474Y-80655083D01*
X122308245Y-80605940D01*
X122240420Y-80536382D01*
X122192010Y-80455074D01*
X122162006Y-80359674D01*
X122151441Y-80246720D01*
X122156222Y-80173996D01*
X122323633Y-80173996D01*
X122638248Y-80023787D01*
X122808495Y-79932250D01*
X122902580Y-79866342D01*
X122839128Y-79822167D01*
X122758453Y-79794151D01*
X122655650Y-79784002D01*
X122576741Y-79794877D01*
X122508348Y-79826760D01*
X122447647Y-79881271D01*
X122400517Y-79950451D01*
X122358659Y-80045820D01*
X122323633Y-80173996D01*
X122156222Y-80173996D01*
X122160187Y-80113697D01*
X122185250Y-79996258D01*
X122225483Y-79892092D01*
X122280585Y-79799297D01*
X122342117Y-79726798D01*
X122409360Y-79672305D01*
X122483038Y-79633793D01*
X122564509Y-79610358D01*
X122655650Y-79602285D01*
X122768054Y-79609421D01*
G37*
G36*
X124656457Y-80762927D02*
G01*
X124618186Y-80757139D01*
X124590429Y-80741126D01*
X124570466Y-80714469D01*
X124558088Y-80673717D01*
X124521177Y-80355896D01*
X124486372Y-80038075D01*
X124472536Y-79968189D01*
X124451476Y-79899681D01*
X124423072Y-79841281D01*
X124398310Y-79814768D01*
X124375730Y-79807449D01*
X124331679Y-79819019D01*
X124234314Y-79871563D01*
X124145772Y-79930046D01*
X124105170Y-79966268D01*
X124110300Y-80157693D01*
X124140983Y-80429535D01*
X124156132Y-80583583D01*
X124160491Y-80695241D01*
X124153254Y-80736571D01*
X124132281Y-80769064D01*
X124100581Y-80790676D01*
X124060108Y-80798098D01*
X124019625Y-80790659D01*
X123987842Y-80768972D01*
X123966945Y-80736386D01*
X123959724Y-80694875D01*
X123954438Y-80556534D01*
X123934628Y-80329610D01*
X123914818Y-80102685D01*
X123909532Y-79964344D01*
X123900848Y-79862797D01*
X123878757Y-79795725D01*
X123809181Y-79836937D01*
X123733311Y-79902520D01*
X123612411Y-80037984D01*
X123560112Y-80102647D01*
X123548846Y-80284364D01*
X123537581Y-80461867D01*
X123547289Y-80548146D01*
X123556998Y-80628196D01*
X123549210Y-80666871D01*
X123525765Y-80698996D01*
X123491785Y-80720584D01*
X123452493Y-80727756D01*
X123416385Y-80720101D01*
X123386797Y-80696888D01*
X123362138Y-80653358D01*
X123344031Y-80580089D01*
X123336721Y-80464340D01*
X123347987Y-80280883D01*
X123359253Y-80097426D01*
X123349453Y-79934486D01*
X123339744Y-79770446D01*
X123346291Y-79668561D01*
X123362534Y-79603899D01*
X123384723Y-79565327D01*
X123411470Y-79544651D01*
X123444249Y-79537805D01*
X123481688Y-79545934D01*
X123517522Y-79571877D01*
X123542852Y-79608406D01*
X123550861Y-79646890D01*
X123545732Y-79707431D01*
X123540603Y-79769897D01*
X123542618Y-79877424D01*
X123582956Y-79807816D01*
X123634860Y-79741867D01*
X123699422Y-79679221D01*
X123772260Y-79625471D01*
X123829653Y-79598407D01*
X123875643Y-79590561D01*
X123950534Y-79600854D01*
X124010360Y-79630096D01*
X124058819Y-79678921D01*
X124097019Y-79751853D01*
X124159399Y-79685829D01*
X124231200Y-79639654D01*
X124313096Y-79611978D01*
X124409528Y-79602285D01*
X124473884Y-79609739D01*
X124527606Y-79631027D01*
X124573122Y-79666090D01*
X124611681Y-79716901D01*
X124643176Y-79787207D01*
X124655495Y-79849203D01*
X124685217Y-80075811D01*
X124714283Y-80282001D01*
X124758948Y-80664283D01*
X124753628Y-80702219D01*
X124731287Y-80734167D01*
X124697407Y-80755654D01*
X124656457Y-80762927D01*
G37*
G36*
X125564667Y-79612934D02*
G01*
X125673759Y-79648355D01*
X125742661Y-79683517D01*
X125784239Y-79717928D01*
X125806165Y-79751810D01*
X125813069Y-79786658D01*
X125808055Y-79812562D01*
X125792644Y-79835842D01*
X125776707Y-79963978D01*
X125770113Y-80192406D01*
X125774520Y-80312796D01*
X125787515Y-80393174D01*
X125804557Y-80448822D01*
X125852087Y-80573517D01*
X125875626Y-80627830D01*
X125881762Y-80645232D01*
X125874511Y-80682799D01*
X125853094Y-80712827D01*
X125821978Y-80732871D01*
X125786508Y-80739480D01*
X125764620Y-80731759D01*
X125715799Y-80695424D01*
X125673515Y-80654390D01*
X125647106Y-80622243D01*
X125550826Y-80669828D01*
X125473907Y-80701103D01*
X125401532Y-80721878D01*
X125348977Y-80727756D01*
X125229307Y-80717952D01*
X125134280Y-80690966D01*
X125058910Y-80649055D01*
X124999557Y-80592476D01*
X124957643Y-80527275D01*
X124925274Y-80443585D01*
X124903903Y-80337163D01*
X124896530Y-80210999D01*
X125097926Y-80210999D01*
X125105777Y-80321701D01*
X125126573Y-80403242D01*
X125157369Y-80462325D01*
X125202682Y-80508181D01*
X125260745Y-80536076D01*
X125335696Y-80546039D01*
X125429172Y-80536554D01*
X125502667Y-80510319D01*
X125542169Y-80484779D01*
X125606165Y-80432650D01*
X125580227Y-80178794D01*
X125573375Y-80027084D01*
X125578962Y-79931646D01*
X125595907Y-79821829D01*
X125530785Y-79793252D01*
X125487280Y-79784002D01*
X125411006Y-79791988D01*
X125340893Y-79815582D01*
X125275300Y-79855340D01*
X125213148Y-79913237D01*
X125162161Y-79981241D01*
X125126533Y-80052807D01*
X125105172Y-80128944D01*
X125097926Y-80210999D01*
X124896530Y-80210999D01*
X124896059Y-80202939D01*
X124906962Y-80082100D01*
X124938816Y-79972538D01*
X124991535Y-79871928D01*
X125066602Y-79778598D01*
X125157643Y-79700341D01*
X125254709Y-79645957D01*
X125359395Y-79613376D01*
X125473999Y-79602285D01*
X125564667Y-79612934D01*
G37*
G36*
X126745833Y-79802045D02*
G01*
X126695091Y-79800030D01*
X126644441Y-79797923D01*
X126505040Y-79813311D01*
X126524549Y-80418178D01*
X126525556Y-80463149D01*
X126526564Y-80515356D01*
X126521578Y-80612071D01*
X126505848Y-80674102D01*
X126483199Y-80711771D01*
X126454837Y-80732472D01*
X126418944Y-80739480D01*
X126380610Y-80732789D01*
X126347778Y-80712827D01*
X126325096Y-80682801D01*
X126317553Y-80646148D01*
X126320575Y-80529187D01*
X126323689Y-80412316D01*
X126303265Y-79813311D01*
X126075752Y-79796000D01*
X126034311Y-79784360D01*
X126007082Y-79764304D01*
X125990564Y-79735524D01*
X125984528Y-79694883D01*
X125991626Y-79653337D01*
X126012188Y-79620420D01*
X126043423Y-79598278D01*
X126082896Y-79590744D01*
X126298135Y-79608147D01*
X126293464Y-79469203D01*
X126288885Y-79343449D01*
X126296397Y-79304163D01*
X126318560Y-79272740D01*
X126351407Y-79251813D01*
X126391375Y-79244713D01*
X126429890Y-79252738D01*
X126460039Y-79276624D01*
X126483684Y-79320797D01*
X126498903Y-79394740D01*
X126502017Y-79485598D01*
X126500002Y-79544857D01*
X126498903Y-79608147D01*
X126644441Y-79591752D01*
X126741875Y-79595081D01*
X126783751Y-79602010D01*
X126818182Y-79621544D01*
X126838737Y-79652331D01*
X126846308Y-79698456D01*
X126839068Y-79740070D01*
X126818098Y-79772827D01*
X126786370Y-79794579D01*
X126745833Y-79802045D01*
G37*
G36*
X127612855Y-79609421D02*
G01*
X127704186Y-79629111D01*
X127778155Y-79659438D01*
X127837190Y-79700517D01*
X127877516Y-79749218D01*
X127901829Y-79806791D01*
X127910321Y-79875959D01*
X127903833Y-79923279D01*
X127883961Y-79969230D01*
X127848729Y-80015142D01*
X127794550Y-80061797D01*
X127728082Y-80101868D01*
X127577296Y-80177019D01*
X127185836Y-80363315D01*
X127227799Y-80415960D01*
X127275271Y-80458335D01*
X127328718Y-80491359D01*
X127387252Y-80514713D01*
X127453268Y-80529246D01*
X127528112Y-80534316D01*
X127601282Y-80528231D01*
X127694075Y-80507663D01*
X127772576Y-80479397D01*
X127821683Y-80449640D01*
X127849780Y-80419094D01*
X127876036Y-80386303D01*
X127900581Y-80369478D01*
X127924610Y-80364323D01*
X127958206Y-80370993D01*
X127988632Y-80391617D01*
X128009942Y-80421455D01*
X128016842Y-80454998D01*
X128007502Y-80504994D01*
X127978115Y-80553370D01*
X127923175Y-80602160D01*
X127833385Y-80651827D01*
X127727193Y-80691541D01*
X127625782Y-80714450D01*
X127528020Y-80721894D01*
X127412423Y-80713888D01*
X127313038Y-80691184D01*
X127227275Y-80655083D01*
X127153046Y-80605940D01*
X127085221Y-80536382D01*
X127036811Y-80455074D01*
X127006807Y-80359674D01*
X126996243Y-80246720D01*
X127001024Y-80173996D01*
X127168434Y-80173996D01*
X127483049Y-80023787D01*
X127653296Y-79932250D01*
X127747381Y-79866342D01*
X127683929Y-79822167D01*
X127603254Y-79794151D01*
X127500451Y-79784002D01*
X127421543Y-79794877D01*
X127353149Y-79826760D01*
X127292448Y-79881271D01*
X127245318Y-79950451D01*
X127203460Y-80045820D01*
X127168434Y-80173996D01*
X127001024Y-80173996D01*
X127004988Y-80113697D01*
X127030051Y-79996258D01*
X127070284Y-79892092D01*
X127125386Y-79799297D01*
X127186918Y-79726798D01*
X127254161Y-79672305D01*
X127327839Y-79633793D01*
X127409310Y-79610358D01*
X127500451Y-79602285D01*
X127612855Y-79609421D01*
G37*
G36*
X129442707Y-79632420D02*
G01*
X129511608Y-79650370D01*
X129569385Y-79681847D01*
X129609977Y-79724284D01*
X129658947Y-79733446D01*
X129691466Y-79755509D01*
X129711864Y-79791272D01*
X129719611Y-79846375D01*
X129714933Y-79925004D01*
X129698087Y-80041372D01*
X129670427Y-80234263D01*
X129646888Y-80579104D01*
X129632130Y-80774737D01*
X129604848Y-80914602D01*
X129565615Y-81020691D01*
X129516201Y-81100836D01*
X129457295Y-81159883D01*
X129394340Y-81199037D01*
X129316290Y-81228866D01*
X129220004Y-81248282D01*
X129101738Y-81255321D01*
X128970933Y-81250257D01*
X128873310Y-81236911D01*
X128810071Y-81217859D01*
X128771802Y-81193593D01*
X128751050Y-81165072D01*
X128744166Y-81130757D01*
X128750316Y-81089250D01*
X128766595Y-81062393D01*
X128792933Y-81045967D01*
X128833285Y-81039807D01*
X128956291Y-81057667D01*
X129044875Y-81070448D01*
X129146892Y-81073604D01*
X129221520Y-81064183D01*
X129283955Y-81039818D01*
X129336827Y-81000731D01*
X129381598Y-80945153D01*
X129418368Y-80869539D01*
X129443376Y-80778082D01*
X129461958Y-80644936D01*
X129470667Y-80458112D01*
X129429138Y-80535222D01*
X129385183Y-80594333D01*
X129338959Y-80638363D01*
X129285535Y-80671794D01*
X129227799Y-80691687D01*
X129164295Y-80698447D01*
X129073717Y-80690141D01*
X128994596Y-80666233D01*
X128924706Y-80627204D01*
X128862502Y-80572143D01*
X128812571Y-80505883D01*
X128776470Y-80430424D01*
X128754036Y-80344032D01*
X128746181Y-80244430D01*
X128747613Y-80226295D01*
X128945026Y-80226295D01*
X128952308Y-80313445D01*
X128971818Y-80378406D01*
X129001354Y-80426330D01*
X129043305Y-80462399D01*
X129098287Y-80485048D01*
X129170431Y-80493283D01*
X129235335Y-80482801D01*
X129301461Y-80449695D01*
X129371199Y-80388686D01*
X129423928Y-80320959D01*
X129456267Y-80257849D01*
X129471674Y-80197902D01*
X129491885Y-80084372D01*
X129517745Y-79886858D01*
X129475629Y-79861933D01*
X129432748Y-79844726D01*
X129388031Y-79834372D01*
X129341523Y-79830896D01*
X129245488Y-79839162D01*
X129165103Y-79862476D01*
X129097408Y-79899675D01*
X129040280Y-79951064D01*
X128999318Y-80007645D01*
X128969743Y-80071420D01*
X128951418Y-80143725D01*
X128945026Y-80226295D01*
X128747613Y-80226295D01*
X128756977Y-80107740D01*
X128787709Y-79990108D01*
X128836999Y-79888223D01*
X128905000Y-79799572D01*
X128973732Y-79738182D01*
X129051296Y-79690250D01*
X129138944Y-79655229D01*
X129238401Y-79633375D01*
X129351782Y-79625732D01*
X129442707Y-79632420D01*
G37*
G36*
X130478955Y-79621688D02*
G01*
X130547793Y-79643816D01*
X130608543Y-79680098D01*
X130662580Y-79731660D01*
X130710443Y-79800946D01*
X130755583Y-79904902D01*
X130783099Y-80025045D01*
X130791410Y-80164654D01*
X130782311Y-80277208D01*
X130759099Y-80378164D01*
X130722494Y-80469232D01*
X130672525Y-80551810D01*
X130615115Y-80618772D01*
X130552613Y-80669078D01*
X130484358Y-80704599D01*
X130409123Y-80726189D01*
X130325211Y-80733618D01*
X130241778Y-80725631D01*
X130165637Y-80702185D01*
X130095130Y-80663100D01*
X130029098Y-80606947D01*
X129969545Y-80532642D01*
X129925294Y-80446284D01*
X129896247Y-80345682D01*
X129883559Y-80227943D01*
X129883572Y-80227669D01*
X130085426Y-80227669D01*
X130095323Y-80323716D01*
X130122774Y-80399546D01*
X130166393Y-80459669D01*
X130214858Y-80498353D01*
X130267224Y-80520867D01*
X130325211Y-80528454D01*
X130392998Y-80519764D01*
X130453434Y-80494139D01*
X130508577Y-80450418D01*
X130556502Y-80388051D01*
X130587477Y-80311634D01*
X130600809Y-80217411D01*
X130596682Y-80073132D01*
X130576224Y-79971486D01*
X130544144Y-79901894D01*
X130502718Y-79856085D01*
X130451346Y-79828905D01*
X130386669Y-79819173D01*
X130315725Y-79827684D01*
X130254379Y-79853514D01*
X130200179Y-79897460D01*
X130152013Y-79962879D01*
X130115472Y-80042549D01*
X130093126Y-80130244D01*
X130085426Y-80227669D01*
X129883572Y-80227669D01*
X129888789Y-80113751D01*
X129910188Y-80008954D01*
X129947259Y-79911934D01*
X130000338Y-79821371D01*
X130063309Y-79745665D01*
X130133523Y-79688424D01*
X130211856Y-79647674D01*
X130299922Y-79622680D01*
X130399950Y-79614009D01*
X130478955Y-79621688D01*
G37*
G36*
X131607691Y-79609421D02*
G01*
X131699022Y-79629111D01*
X131772991Y-79659438D01*
X131832026Y-79700517D01*
X131872352Y-79749218D01*
X131896665Y-79806791D01*
X131905157Y-79875959D01*
X131898669Y-79923279D01*
X131878797Y-79969230D01*
X131843565Y-80015142D01*
X131789386Y-80061797D01*
X131722918Y-80101868D01*
X131572132Y-80177019D01*
X131180672Y-80363315D01*
X131222635Y-80415960D01*
X131270107Y-80458335D01*
X131323554Y-80491359D01*
X131382088Y-80514713D01*
X131448104Y-80529246D01*
X131522948Y-80534316D01*
X131596118Y-80528231D01*
X131688911Y-80507663D01*
X131767412Y-80479397D01*
X131816519Y-80449640D01*
X131844616Y-80419094D01*
X131870872Y-80386303D01*
X131895417Y-80369478D01*
X131919446Y-80364323D01*
X131953042Y-80370993D01*
X131983468Y-80391617D01*
X132004778Y-80421455D01*
X132011678Y-80454998D01*
X132002338Y-80504994D01*
X131972951Y-80553370D01*
X131918011Y-80602160D01*
X131828221Y-80651827D01*
X131722029Y-80691541D01*
X131620618Y-80714450D01*
X131522856Y-80721894D01*
X131407259Y-80713888D01*
X131307874Y-80691184D01*
X131222111Y-80655083D01*
X131147882Y-80605940D01*
X131080057Y-80536382D01*
X131031647Y-80455074D01*
X131001643Y-80359674D01*
X130991079Y-80246720D01*
X130995860Y-80173996D01*
X131163270Y-80173996D01*
X131477885Y-80023787D01*
X131648132Y-79932250D01*
X131742217Y-79866342D01*
X131678765Y-79822167D01*
X131598090Y-79794151D01*
X131495287Y-79784002D01*
X131416379Y-79794877D01*
X131347985Y-79826760D01*
X131287284Y-79881271D01*
X131240154Y-79950451D01*
X131198296Y-80045820D01*
X131163270Y-80173996D01*
X130995860Y-80173996D01*
X130999824Y-80113697D01*
X131024887Y-79996258D01*
X131065120Y-79892092D01*
X131120222Y-79799297D01*
X131181754Y-79726798D01*
X131248997Y-79672305D01*
X131322675Y-79633793D01*
X131404146Y-79610358D01*
X131495287Y-79602285D01*
X131607691Y-79609421D01*
G37*
G36*
X132886372Y-79883653D02*
G01*
X132850874Y-79879013D01*
X132825476Y-79866436D01*
X132807513Y-79846284D01*
X132794886Y-79812629D01*
X132780860Y-79737107D01*
X132544188Y-79808731D01*
X132462627Y-79849134D01*
X132413171Y-79889204D01*
X132386838Y-79929085D01*
X132378225Y-79970481D01*
X132438675Y-79986784D01*
X132595382Y-80021834D01*
X132709164Y-80060911D01*
X132789103Y-80102281D01*
X132862861Y-80162657D01*
X132914055Y-80233041D01*
X132945192Y-80315314D01*
X132956073Y-80412866D01*
X132946746Y-80492219D01*
X132920022Y-80558852D01*
X132875846Y-80615683D01*
X132811634Y-80664192D01*
X132728894Y-80701346D01*
X132628995Y-80725102D01*
X132508285Y-80733618D01*
X132376664Y-80722355D01*
X132252196Y-80688921D01*
X132175435Y-80653093D01*
X132128267Y-80614977D01*
X132102690Y-80574667D01*
X132094385Y-80530377D01*
X132102258Y-80492736D01*
X132126625Y-80459303D01*
X132161496Y-80436268D01*
X132199897Y-80428803D01*
X132231938Y-80438529D01*
X132281871Y-80477621D01*
X132315191Y-80496514D01*
X132392605Y-80516272D01*
X132508376Y-80528454D01*
X132591542Y-80523022D01*
X132660051Y-80507937D01*
X132717170Y-80481445D01*
X132746130Y-80450454D01*
X132755306Y-80413782D01*
X132748226Y-80363967D01*
X132727544Y-80321497D01*
X132692100Y-80284402D01*
X132638299Y-80252101D01*
X132560583Y-80225471D01*
X132454063Y-80201840D01*
X132328861Y-80166320D01*
X132260348Y-80132048D01*
X132214838Y-80088016D01*
X132187222Y-80031517D01*
X132177366Y-79958483D01*
X132185782Y-79875989D01*
X132209773Y-79806309D01*
X132248833Y-79746755D01*
X132304307Y-79695658D01*
X132379233Y-79652568D01*
X132450427Y-79625094D01*
X132575879Y-79586348D01*
X132701046Y-79547670D01*
X132769594Y-79521135D01*
X132813039Y-79507337D01*
X132860819Y-79502634D01*
X132901322Y-79509974D01*
X132932992Y-79531302D01*
X132953900Y-79563665D01*
X132961202Y-79606040D01*
X132974025Y-79693143D01*
X132986848Y-79780246D01*
X132979545Y-79822622D01*
X132958638Y-79854985D01*
X132926955Y-79876309D01*
X132886372Y-79883653D01*
G37*
G36*
X134701066Y-80739480D02*
G01*
X134658314Y-80730900D01*
X134627421Y-80706192D01*
X134605812Y-80661627D01*
X134584798Y-80568575D01*
X134562764Y-80423032D01*
X134548379Y-80281016D01*
X134544262Y-80179309D01*
X134546827Y-80098525D01*
X134549392Y-80017559D01*
X134540628Y-79918945D01*
X134519600Y-79862979D01*
X134490802Y-79834371D01*
X134453038Y-79825034D01*
X134391175Y-79832006D01*
X134332613Y-79852914D01*
X134276011Y-79888796D01*
X134220488Y-79941996D01*
X134166216Y-80017082D01*
X134077056Y-80170882D01*
X134071286Y-80443332D01*
X134058506Y-80579366D01*
X134044267Y-80634699D01*
X134020560Y-80671248D01*
X133991447Y-80691562D01*
X133955149Y-80698447D01*
X133915757Y-80691313D01*
X133881326Y-80669779D01*
X133857395Y-80637765D01*
X133849544Y-80600078D01*
X133858795Y-80554924D01*
X133864624Y-80517454D01*
X133870061Y-80405264D01*
X133873175Y-80253589D01*
X133876197Y-79500069D01*
X133883341Y-79328886D01*
X133873633Y-79230059D01*
X133863924Y-79133155D01*
X133871440Y-79093586D01*
X133893599Y-79061898D01*
X133926460Y-79040828D01*
X133966414Y-79033688D01*
X134004585Y-79039524D01*
X134032336Y-79055705D01*
X134052352Y-79082732D01*
X134064783Y-79124180D01*
X134077326Y-79221792D01*
X134081178Y-79304156D01*
X134073942Y-79529378D01*
X134068905Y-79754143D01*
X134069912Y-79844360D01*
X134129677Y-79772904D01*
X134189523Y-79717385D01*
X134249706Y-79675741D01*
X134315383Y-79644517D01*
X134382863Y-79626048D01*
X134453129Y-79619870D01*
X134537026Y-79627891D01*
X134601211Y-79649762D01*
X134650174Y-79683764D01*
X134686778Y-79730421D01*
X134709760Y-79784857D01*
X134727841Y-79868776D01*
X134737978Y-79992371D01*
X134746129Y-80187827D01*
X134766646Y-80400776D01*
X134801450Y-80611527D01*
X134805572Y-80641202D01*
X134797865Y-80679722D01*
X134774797Y-80711270D01*
X134741175Y-80732369D01*
X134701066Y-80739480D01*
G37*
G36*
X135618647Y-79609421D02*
G01*
X135709978Y-79629111D01*
X135783948Y-79659438D01*
X135842982Y-79700517D01*
X135883308Y-79749218D01*
X135907621Y-79806791D01*
X135916113Y-79875959D01*
X135909625Y-79923279D01*
X135889753Y-79969230D01*
X135854521Y-80015142D01*
X135800342Y-80061797D01*
X135733874Y-80101868D01*
X135583088Y-80177019D01*
X135191628Y-80363315D01*
X135233591Y-80415960D01*
X135281063Y-80458335D01*
X135334510Y-80491359D01*
X135393044Y-80514713D01*
X135459060Y-80529246D01*
X135533904Y-80534316D01*
X135607074Y-80528231D01*
X135699867Y-80507663D01*
X135778368Y-80479397D01*
X135827475Y-80449640D01*
X135855572Y-80419094D01*
X135881828Y-80386303D01*
X135906373Y-80369478D01*
X135930402Y-80364323D01*
X135963998Y-80370993D01*
X135994424Y-80391617D01*
X136015734Y-80421455D01*
X136022634Y-80454998D01*
X136013294Y-80504994D01*
X135983907Y-80553370D01*
X135928967Y-80602160D01*
X135839177Y-80651827D01*
X135732985Y-80691541D01*
X135631574Y-80714450D01*
X135533812Y-80721894D01*
X135418215Y-80713888D01*
X135318830Y-80691184D01*
X135233067Y-80655083D01*
X135158838Y-80605940D01*
X135091014Y-80536382D01*
X135042603Y-80455074D01*
X135012599Y-80359674D01*
X135002035Y-80246720D01*
X135006816Y-80173996D01*
X135174226Y-80173996D01*
X135488841Y-80023787D01*
X135659088Y-79932250D01*
X135753173Y-79866342D01*
X135689721Y-79822167D01*
X135609046Y-79794151D01*
X135506243Y-79784002D01*
X135427335Y-79794877D01*
X135358941Y-79826760D01*
X135298240Y-79881271D01*
X135251110Y-79950451D01*
X135209252Y-80045820D01*
X135174226Y-80173996D01*
X135006816Y-80173996D01*
X135010780Y-80113697D01*
X135035843Y-79996258D01*
X135076076Y-79892092D01*
X135131178Y-79799297D01*
X135192710Y-79726798D01*
X135259953Y-79672305D01*
X135333631Y-79633793D01*
X135415102Y-79610358D01*
X135506243Y-79602285D01*
X135618647Y-79609421D01*
G37*
G36*
X137002933Y-79919556D02*
G01*
X136992156Y-79980908D01*
X136971239Y-80018718D01*
X136941580Y-80040209D01*
X136900443Y-80047784D01*
X136861450Y-80041304D01*
X136835353Y-80023663D01*
X136818734Y-79993929D01*
X136812332Y-79946851D01*
X136809310Y-79875501D01*
X136806195Y-79789863D01*
X136700376Y-79809956D01*
X136615162Y-79840740D01*
X136546993Y-79880905D01*
X136491891Y-79930232D01*
X136441289Y-79996045D01*
X136395318Y-80081398D01*
X136397333Y-80642027D01*
X136390338Y-80689154D01*
X136371813Y-80719664D01*
X136341822Y-80738335D01*
X136295850Y-80745341D01*
X136256000Y-80738699D01*
X136229304Y-80720599D01*
X136212285Y-80690059D01*
X136205724Y-80641660D01*
X136205724Y-79920930D01*
X136208289Y-79819356D01*
X136210853Y-79717690D01*
X136217414Y-79669291D01*
X136234433Y-79638751D01*
X136261129Y-79620651D01*
X136300979Y-79614009D01*
X136341737Y-79623098D01*
X136371872Y-79650054D01*
X136393311Y-79700770D01*
X136402462Y-79787757D01*
X136486139Y-79716461D01*
X136570840Y-79663123D01*
X136657234Y-79625950D01*
X136746240Y-79603839D01*
X136838985Y-79596423D01*
X136890931Y-79603772D01*
X136931282Y-79624485D01*
X136962908Y-79658980D01*
X136984039Y-79702827D01*
X136998463Y-79764021D01*
X137003941Y-79847749D01*
X137002933Y-79919556D01*
G37*
G36*
X137777265Y-79609421D02*
G01*
X137868596Y-79629111D01*
X137942566Y-79659438D01*
X138001600Y-79700517D01*
X138041926Y-79749218D01*
X138066239Y-79806791D01*
X138074732Y-79875959D01*
X138068244Y-79923279D01*
X138048371Y-79969230D01*
X138013139Y-80015142D01*
X137958961Y-80061797D01*
X137892492Y-80101868D01*
X137741707Y-80177019D01*
X137350246Y-80363315D01*
X137392209Y-80415960D01*
X137439681Y-80458335D01*
X137493128Y-80491359D01*
X137551662Y-80514713D01*
X137617679Y-80529246D01*
X137692522Y-80534316D01*
X137765692Y-80528231D01*
X137858485Y-80507663D01*
X137936986Y-80479397D01*
X137986093Y-80449640D01*
X138014190Y-80419094D01*
X138040446Y-80386303D01*
X138064991Y-80369478D01*
X138089020Y-80364323D01*
X138122616Y-80370993D01*
X138153042Y-80391617D01*
X138174353Y-80421455D01*
X138181252Y-80454998D01*
X138171912Y-80504994D01*
X138142525Y-80553370D01*
X138087586Y-80602160D01*
X137997795Y-80651827D01*
X137891603Y-80691541D01*
X137790192Y-80714450D01*
X137692431Y-80721894D01*
X137576834Y-80713888D01*
X137477448Y-80691184D01*
X137391685Y-80655083D01*
X137317457Y-80605940D01*
X137249632Y-80536382D01*
X137201222Y-80455074D01*
X137171217Y-80359674D01*
X137160653Y-80246720D01*
X137165434Y-80173996D01*
X137332844Y-80173996D01*
X137647459Y-80023787D01*
X137817707Y-79932250D01*
X137911791Y-79866342D01*
X137848339Y-79822167D01*
X137767664Y-79794151D01*
X137664862Y-79784002D01*
X137585953Y-79794877D01*
X137517559Y-79826760D01*
X137456858Y-79881271D01*
X137409728Y-79950451D01*
X137367870Y-80045820D01*
X137332844Y-80173996D01*
X137165434Y-80173996D01*
X137169398Y-80113697D01*
X137194462Y-79996258D01*
X137234694Y-79892092D01*
X137289796Y-79799297D01*
X137351328Y-79726798D01*
X137418571Y-79672305D01*
X137492250Y-79633793D01*
X137573720Y-79610358D01*
X137664862Y-79602285D01*
X137777265Y-79609421D01*
G37*
G36*
X112114905Y-39921192D02*
G01*
X112205031Y-39783989D01*
X112274640Y-39692092D01*
X112322512Y-39674568D01*
X112367452Y-39689100D01*
X112385282Y-39721798D01*
X112373225Y-39761869D01*
X112317383Y-39854727D01*
X111720942Y-40736719D01*
X112194040Y-40711287D01*
X112414511Y-40719752D01*
X112689853Y-40763860D01*
X112957552Y-40841962D01*
X113176140Y-40949363D01*
X113359709Y-41088072D01*
X113495854Y-41246210D01*
X113582813Y-41425071D01*
X113612114Y-41622771D01*
X113591220Y-41803619D01*
X113527238Y-41985731D01*
X113415865Y-42172265D01*
X113249902Y-42365849D01*
X113063784Y-42527928D01*
X112799443Y-42708644D01*
X112438853Y-42910301D01*
X111961765Y-43135001D01*
X111201437Y-42907824D01*
X110798231Y-43055543D01*
X110460194Y-43150316D01*
X110177840Y-43201505D01*
X109942365Y-43217066D01*
X109712079Y-43199824D01*
X109535175Y-43152973D01*
X109399902Y-43080931D01*
X109291115Y-42981318D01*
X109230159Y-42877648D01*
X109229706Y-42875126D01*
X109456078Y-42875126D01*
X109478291Y-42956039D01*
X109546203Y-43019596D01*
X109646231Y-43065574D01*
X109780584Y-43096207D01*
X109958974Y-43107645D01*
X110231073Y-43090240D01*
X110580537Y-43012688D01*
X111027536Y-42855892D01*
X110557889Y-42731909D01*
X110188419Y-42665008D01*
X109901332Y-42642607D01*
X109755083Y-42653529D01*
X109638759Y-42683653D01*
X109546203Y-42730656D01*
X109477786Y-42797493D01*
X109456078Y-42875126D01*
X109229706Y-42875126D01*
X109210125Y-42766133D01*
X109233422Y-42648001D01*
X109306112Y-42533281D01*
X109439713Y-42417568D01*
X109602916Y-42334975D01*
X109652489Y-42322679D01*
X110688527Y-42322679D01*
X111107404Y-42416713D01*
X111684549Y-42589393D01*
X112025939Y-42428160D01*
X112221156Y-42292760D01*
X112316540Y-42178185D01*
X112344249Y-42076696D01*
X112325837Y-42005847D01*
X112266824Y-41938638D01*
X112180767Y-41892674D01*
X112070453Y-41876661D01*
X111709951Y-41897819D01*
X110926420Y-41950820D01*
X110688527Y-42322679D01*
X109652489Y-42322679D01*
X109824015Y-42280134D01*
X110120174Y-42259634D01*
X110307528Y-42270087D01*
X110562742Y-42306437D01*
X110780607Y-41960223D01*
X110382491Y-41986082D01*
X110228817Y-41979796D01*
X109999762Y-41951674D01*
X109773329Y-41900989D01*
X109605066Y-41831782D01*
X109468149Y-41737278D01*
X109374012Y-41627473D01*
X109316494Y-41502699D01*
X109297564Y-41373155D01*
X109316554Y-41238005D01*
X109342426Y-41181241D01*
X109644633Y-41181241D01*
X109661278Y-41272523D01*
X109710773Y-41351977D01*
X109797773Y-41423163D01*
X109941219Y-41484967D01*
X110162176Y-41529100D01*
X110488981Y-41546476D01*
X110734990Y-41537988D01*
X111075896Y-41508435D01*
X111082182Y-41498818D01*
X111222198Y-41498818D01*
X111823536Y-41451749D01*
X112125652Y-41440260D01*
X112352068Y-41457721D01*
X112524701Y-41505073D01*
X112655659Y-41577891D01*
X112759399Y-41678136D01*
X112818907Y-41786437D01*
X112838841Y-41906795D01*
X112820647Y-42012644D01*
X112763616Y-42119971D01*
X112659811Y-42232279D01*
X112526676Y-42327280D01*
X112281340Y-42458090D01*
X111876036Y-42634913D01*
X112448053Y-42771048D01*
X112678127Y-42632179D01*
X112859931Y-42492976D01*
X113000041Y-42353240D01*
X113108860Y-42196854D01*
X113172781Y-42033347D01*
X113194214Y-41859137D01*
X113164613Y-41686779D01*
X113071849Y-41511854D01*
X112979083Y-41408527D01*
X112855897Y-41317860D01*
X112697180Y-41239584D01*
X112525193Y-41184402D01*
X112332267Y-41150042D01*
X112114905Y-41138071D01*
X111830350Y-41146316D01*
X111433956Y-41175043D01*
X111222198Y-41498818D01*
X111082182Y-41498818D01*
X111288632Y-41182951D01*
X110936201Y-41211007D01*
X110601088Y-41220137D01*
X110351302Y-41209443D01*
X110182596Y-41182398D01*
X110073768Y-41145123D01*
X109939320Y-41050600D01*
X109841493Y-40910895D01*
X109727606Y-40993803D01*
X109665105Y-41082621D01*
X109644633Y-41181241D01*
X109342426Y-41181241D01*
X109373028Y-41114100D01*
X109469755Y-40997876D01*
X109602678Y-40905049D01*
X109830502Y-40810236D01*
X109827815Y-40781599D01*
X109849200Y-40639013D01*
X109919838Y-40471990D01*
X109961944Y-40409311D01*
X110193935Y-40409311D01*
X110209641Y-40514733D01*
X110255182Y-40604479D01*
X110331933Y-40682436D01*
X110431282Y-40738528D01*
X110566486Y-40775493D01*
X110748611Y-40789292D01*
X111574884Y-40744626D01*
X111866022Y-40302883D01*
X111457620Y-40137072D01*
X111196552Y-40052625D01*
X110961731Y-40003729D01*
X110773035Y-39989153D01*
X110607356Y-40004120D01*
X110470065Y-40046478D01*
X110355136Y-40115029D01*
X110263671Y-40206180D01*
X110211369Y-40303148D01*
X110193935Y-40409311D01*
X109961944Y-40409311D01*
X110053251Y-40273390D01*
X110219214Y-40091975D01*
X110484022Y-39859636D01*
X110877083Y-39565147D01*
X112114905Y-39921192D01*
G37*
G36*
X115992260Y-41367812D02*
G01*
X114768115Y-42122858D01*
X114768115Y-42574219D01*
X115402170Y-42779383D01*
X115831060Y-42519509D01*
X115891144Y-42601574D01*
X115006008Y-43135001D01*
X114745437Y-43022667D01*
X114560509Y-42956551D01*
X114063230Y-42834093D01*
X114063230Y-42779383D01*
X114142598Y-42724155D01*
X114187550Y-42660986D01*
X114208797Y-42570210D01*
X114219057Y-42356018D01*
X114219057Y-40987617D01*
X114549079Y-40870289D01*
X114768115Y-40870289D01*
X114768115Y-41958727D01*
X115486922Y-41515915D01*
X114806461Y-40858108D01*
X114768115Y-40870289D01*
X114549079Y-40870289D01*
X114645261Y-40836095D01*
X115221919Y-40577289D01*
X115992260Y-41367812D01*
G37*
G36*
X117923977Y-40577289D02*
G01*
X118372163Y-40932907D01*
X118637166Y-40714065D01*
X118713614Y-40782453D01*
X118546224Y-40931961D01*
X118481339Y-41016041D01*
X118442054Y-41132965D01*
X118426629Y-41307545D01*
X118426629Y-42451762D01*
X118443155Y-42598769D01*
X118484026Y-42687700D01*
X118523944Y-42727189D01*
X118563161Y-42738350D01*
X118610887Y-42722820D01*
X118743656Y-42642607D01*
X118809357Y-42710995D01*
X118221709Y-43135001D01*
X118023217Y-42981595D01*
X117930816Y-42868715D01*
X117885737Y-42734237D01*
X117866580Y-42494718D01*
X117866580Y-41178676D01*
X117568848Y-40954065D01*
X117126036Y-41285960D01*
X117126036Y-42615252D01*
X117322896Y-42786222D01*
X116839050Y-43135001D01*
X116352763Y-42786222D01*
X116565987Y-42615252D01*
X116565987Y-41388969D01*
X116547160Y-41149660D01*
X116505903Y-41036344D01*
X116459125Y-40987602D01*
X116412847Y-40973940D01*
X116355888Y-40991620D01*
X116248960Y-41069683D01*
X116183258Y-41001295D01*
X116765289Y-40577289D01*
X116977805Y-40732359D01*
X117065952Y-40825837D01*
X117109254Y-40927666D01*
X117126036Y-41079300D01*
X117126036Y-41165426D01*
X117923977Y-40577289D01*
G37*
G36*
X121156399Y-40209171D02*
G01*
X121223454Y-40257148D01*
X121268708Y-40327773D01*
X121285003Y-40423630D01*
X121272777Y-40527946D01*
X121235666Y-40630718D01*
X121171228Y-40736305D01*
X121047110Y-40891874D01*
X120522477Y-41482789D01*
X121153845Y-41753563D01*
X121153845Y-42765705D01*
X120932428Y-42800720D01*
X120738387Y-42864654D01*
X120552384Y-42964367D01*
X120317557Y-43135001D01*
X120119066Y-43039595D01*
X119966336Y-42985402D01*
X119814356Y-42954149D01*
X119651018Y-42943514D01*
X119485313Y-42959222D01*
X119334434Y-43005516D01*
X119194528Y-43083496D01*
X119123756Y-43125485D01*
X119088039Y-43135001D01*
X119027955Y-43109996D01*
X118997913Y-43059987D01*
X119008904Y-43032714D01*
X119055310Y-42987325D01*
X119167173Y-42882820D01*
X119388486Y-42628929D01*
X119533538Y-42628929D01*
X119757508Y-42576997D01*
X119946064Y-42560541D01*
X120150581Y-42578986D01*
X120366852Y-42636670D01*
X120599169Y-42739205D01*
X120599169Y-42041861D01*
X120192016Y-41863625D01*
X119533538Y-42628929D01*
X119388486Y-42628929D01*
X119416057Y-42597300D01*
X119768499Y-42187186D01*
X119170104Y-41904017D01*
X119170104Y-41628114D01*
X119722093Y-41628114D01*
X120096273Y-41802076D01*
X120691981Y-41110075D01*
X120374954Y-41138071D01*
X120157726Y-41117193D01*
X119941531Y-41053377D01*
X119722093Y-40942097D01*
X119722093Y-41628114D01*
X119170104Y-41628114D01*
X119170104Y-41001295D01*
X119433469Y-40916686D01*
X119611207Y-40832890D01*
X119763906Y-40725955D01*
X119918709Y-40577289D01*
X120252770Y-40686627D01*
X120481688Y-40748687D01*
X120633465Y-40774268D01*
X120774047Y-40782453D01*
X120915321Y-40766557D01*
X121011695Y-40724324D01*
X121077431Y-40661536D01*
X121096448Y-40602294D01*
X121084223Y-40561885D01*
X121041737Y-40516809D01*
X120958619Y-40429989D01*
X120935247Y-40355670D01*
X120947481Y-40288006D01*
X120981653Y-40238341D01*
X121032006Y-40204821D01*
X121085457Y-40194317D01*
X121156399Y-40209171D01*
G37*
G36*
X123589190Y-41367812D02*
G01*
X122365045Y-42122858D01*
X122365045Y-42574219D01*
X122999099Y-42779383D01*
X123427990Y-42519509D01*
X123488073Y-42601574D01*
X122602937Y-43135001D01*
X122342366Y-43022667D01*
X122157438Y-42956551D01*
X121660160Y-42834093D01*
X121660160Y-42779383D01*
X121739528Y-42724155D01*
X121784480Y-42660986D01*
X121805727Y-42570210D01*
X121815987Y-42356018D01*
X121815987Y-40987617D01*
X122146009Y-40870289D01*
X122365045Y-40870289D01*
X122365045Y-41958727D01*
X123083852Y-41515915D01*
X122403391Y-40858108D01*
X122365045Y-40870289D01*
X122146009Y-40870289D01*
X122242191Y-40836095D01*
X122818848Y-40577289D01*
X123589190Y-41367812D01*
G37*
G36*
X126442020Y-39747718D02*
G01*
X126723070Y-39839340D01*
X126982988Y-39890454D01*
X127234270Y-39907087D01*
X127422365Y-39893666D01*
X127616755Y-39852377D01*
X127665847Y-39934442D01*
X126671290Y-40560620D01*
X126863158Y-40574286D01*
X127061322Y-40616323D01*
X127268220Y-40689275D01*
X127458390Y-40788295D01*
X127610307Y-40906978D01*
X127728618Y-41046388D01*
X127816083Y-41203248D01*
X127867397Y-41362032D01*
X127884445Y-41525104D01*
X127865544Y-41717996D01*
X127808438Y-41908331D01*
X127710945Y-42098583D01*
X127568883Y-42290836D01*
X127400931Y-42460850D01*
X127197810Y-42618473D01*
X126955687Y-42763965D01*
X126669825Y-42896925D01*
X126273674Y-43033286D01*
X125908967Y-43110389D01*
X125570000Y-43135001D01*
X125245914Y-43113039D01*
X124946373Y-43048624D01*
X124666789Y-42942232D01*
X124410568Y-42797615D01*
X124211902Y-42636695D01*
X124075006Y-42473133D01*
X124810404Y-42473133D01*
X125065772Y-42673575D01*
X125310369Y-42805670D01*
X125578258Y-42889148D01*
X125898018Y-42929837D01*
X125898018Y-42396410D01*
X126018185Y-42396410D01*
X126018185Y-42916159D01*
X126260095Y-42893300D01*
X126433642Y-42854823D01*
X126671592Y-42765888D01*
X126897948Y-42642821D01*
X127057056Y-42524544D01*
X127231339Y-42355377D01*
X127006768Y-42283639D01*
X126813534Y-42244392D01*
X126646622Y-42232279D01*
X126445418Y-42249508D01*
X126237120Y-42302818D01*
X126018185Y-42396410D01*
X125898018Y-42396410D01*
X125898018Y-41753563D01*
X126018185Y-41753563D01*
X126018185Y-42286989D01*
X126251406Y-42192677D01*
X126465866Y-42139718D01*
X126665673Y-42122858D01*
X126859872Y-42135685D01*
X127067545Y-42175687D01*
X127291423Y-42245957D01*
X127371144Y-42076400D01*
X127416382Y-41918701D01*
X127430886Y-41770446D01*
X127430886Y-41739885D01*
X127194356Y-41841214D01*
X127034480Y-41893117D01*
X126880008Y-41921505D01*
X126706706Y-41931372D01*
X126537954Y-41920262D01*
X126365254Y-41886278D01*
X126194865Y-41831497D01*
X126018185Y-41753563D01*
X125898018Y-41753563D01*
X125898018Y-41081223D01*
X125691400Y-41181239D01*
X125537271Y-41274847D01*
X125537271Y-41678336D01*
X125527752Y-41848060D01*
X125507229Y-41926884D01*
X125464092Y-41987693D01*
X125378757Y-42060027D01*
X125280327Y-42127346D01*
X124810404Y-42473133D01*
X124075006Y-42473133D01*
X124063021Y-42458814D01*
X123954781Y-42259190D01*
X123889717Y-42046792D01*
X123867627Y-41818104D01*
X123892125Y-41561121D01*
X123904892Y-41518479D01*
X124400565Y-41518479D01*
X124422490Y-41774317D01*
X124483852Y-41986937D01*
X124586057Y-42184351D01*
X124731270Y-42379099D01*
X124866873Y-42254904D01*
X124927885Y-42168806D01*
X124956087Y-42064058D01*
X124968918Y-41848238D01*
X124968918Y-40409098D01*
X124769153Y-40605397D01*
X124625109Y-40781417D01*
X124527571Y-40939960D01*
X124458749Y-41109100D01*
X124415650Y-41300708D01*
X124400565Y-41518479D01*
X123904892Y-41518479D01*
X123964735Y-41318604D01*
X124086224Y-41086994D01*
X124252722Y-40875913D01*
X124514640Y-40628898D01*
X124897843Y-40339214D01*
X125334009Y-40033391D01*
X125537271Y-40033391D01*
X125537271Y-41143414D01*
X125699290Y-41039336D01*
X126018185Y-41039336D01*
X126018185Y-41616787D01*
X126208616Y-41715743D01*
X126367941Y-41775362D01*
X126531726Y-41809912D01*
X126717697Y-41821951D01*
X126888277Y-41811973D01*
X127040097Y-41783269D01*
X127194728Y-41730768D01*
X127414521Y-41630465D01*
X127354296Y-41471017D01*
X127270421Y-41337821D01*
X127163196Y-41226975D01*
X127005746Y-41117067D01*
X126831814Y-41039005D01*
X126638073Y-40991288D01*
X126419965Y-40974795D01*
X126229786Y-40990208D01*
X126018185Y-41039336D01*
X125699290Y-41039336D01*
X126816127Y-40321903D01*
X126215784Y-40176136D01*
X125583677Y-39993427D01*
X125537271Y-40033391D01*
X125334009Y-40033391D01*
X126001821Y-39565147D01*
X126442020Y-39747718D01*
G37*
G36*
X129451778Y-40671466D02*
G01*
X129680362Y-40746122D01*
X129904768Y-40796552D01*
X130042575Y-40809809D01*
X130130013Y-40792070D01*
X130231130Y-40686710D01*
X130329560Y-40714065D01*
X130200251Y-40906057D01*
X130142226Y-41021811D01*
X130113866Y-41137938D01*
X130102658Y-41310323D01*
X130102658Y-42330373D01*
X130117692Y-42560187D01*
X130147599Y-42647522D01*
X130199520Y-42696431D01*
X130255799Y-42710995D01*
X130323942Y-42701164D01*
X130452414Y-42642607D01*
X130512498Y-42710995D01*
X129903356Y-43135001D01*
X129716886Y-42988850D01*
X129621744Y-42877691D01*
X129568972Y-42750977D01*
X129542609Y-42560541D01*
X128711939Y-43135001D01*
X128488480Y-42949283D01*
X128346644Y-42779894D01*
X128269162Y-42622870D01*
X128244703Y-42473133D01*
X128270185Y-42260736D01*
X128334361Y-42093152D01*
X128728304Y-42093152D01*
X128753047Y-42277114D01*
X128825784Y-42441867D01*
X128948750Y-42592474D01*
X129129839Y-42731725D01*
X129542609Y-42446205D01*
X129542609Y-41849306D01*
X128881200Y-41581311D01*
X128791724Y-41779917D01*
X128743184Y-41948842D01*
X128728304Y-42093152D01*
X128334361Y-42093152D01*
X128345819Y-42063232D01*
X128514202Y-41808381D01*
X128807438Y-41475737D01*
X128490440Y-40891019D01*
X128608136Y-40891019D01*
X128941528Y-41500314D01*
X129542609Y-41743946D01*
X129542609Y-41139140D01*
X128608136Y-40891019D01*
X128490440Y-40891019D01*
X128479665Y-40871144D01*
X128518011Y-40782453D01*
X128676280Y-40796131D01*
X128881164Y-40772222D01*
X129068621Y-40700823D01*
X129244633Y-40577289D01*
X129451778Y-40671466D01*
G37*
G36*
X130715219Y-40855116D02*
G01*
X131477745Y-40030185D01*
X131556880Y-40030185D01*
X131529525Y-40686710D01*
X132078827Y-40686710D01*
X132078827Y-40960262D01*
X131529525Y-40960262D01*
X131529525Y-42560541D01*
X131835561Y-42765705D01*
X132010439Y-42642607D01*
X132078827Y-42710995D01*
X131477501Y-43135001D01*
X131259839Y-42977274D01*
X131027560Y-42859648D01*
X130777990Y-42779383D01*
X130777990Y-42724673D01*
X130872901Y-42655051D01*
X130923070Y-42590461D01*
X130956141Y-42491147D01*
X130969476Y-42334006D01*
X130969476Y-40960262D01*
X130715219Y-40960262D01*
X130715219Y-40855116D01*
G37*
G36*
X134316336Y-41367812D02*
G01*
X133092191Y-42122858D01*
X133092191Y-42574219D01*
X133726245Y-42779383D01*
X134155136Y-42519509D01*
X134215219Y-42601574D01*
X133330083Y-43135001D01*
X133069512Y-43022667D01*
X132884584Y-42956551D01*
X132387306Y-42834093D01*
X132387306Y-42779383D01*
X132466674Y-42724155D01*
X132511625Y-42660986D01*
X132532873Y-42570210D01*
X132543133Y-42356018D01*
X132543133Y-40987617D01*
X132873155Y-40870289D01*
X133092191Y-40870289D01*
X133092191Y-41958727D01*
X133810997Y-41515915D01*
X133130537Y-40858108D01*
X133092191Y-40870289D01*
X132873155Y-40870289D01*
X132969337Y-40836095D01*
X133545994Y-40577289D01*
X134316336Y-41367812D01*
G37*
G36*
X136565080Y-39989153D02*
G01*
X136393465Y-40120203D01*
X136308395Y-40230847D01*
X136283468Y-40328314D01*
X136290636Y-40384611D01*
X136310823Y-40430255D01*
X136358597Y-40493055D01*
X136474710Y-40610415D01*
X136590874Y-40738675D01*
X136668883Y-40866656D01*
X136703597Y-40980937D01*
X136723593Y-41165426D01*
X137562323Y-40577289D01*
X137808186Y-40771995D01*
X137925757Y-40911536D01*
X137987390Y-41065320D01*
X138010509Y-41276984D01*
X138010509Y-42724673D01*
X137781843Y-42784299D01*
X137571849Y-42863372D01*
X137364961Y-42969264D01*
X137103391Y-43135001D01*
X136805038Y-42962094D01*
X136554089Y-42859311D01*
X136293324Y-42793608D01*
X135991109Y-42752028D01*
X135991109Y-42697317D01*
X136080963Y-42635522D01*
X136132037Y-42569517D01*
X136157345Y-42480043D01*
X136168918Y-42293187D01*
X136168918Y-41284037D01*
X136723593Y-41284037D01*
X136723593Y-42464798D01*
X137447529Y-42752028D01*
X137447529Y-41394740D01*
X137432770Y-41230102D01*
X137396971Y-41131873D01*
X137325903Y-41051379D01*
X137182526Y-40955988D01*
X136723593Y-41284037D01*
X136168918Y-41284037D01*
X136168918Y-41224197D01*
X136149623Y-41092550D01*
X136043133Y-40943165D01*
X135965930Y-40841903D01*
X135921500Y-40760227D01*
X135896222Y-40675419D01*
X135887306Y-40576007D01*
X135901913Y-40453920D01*
X135944884Y-40342847D01*
X136016999Y-40240051D01*
X136113797Y-40151068D01*
X136270877Y-40045638D01*
X136507683Y-39920765D01*
X136565080Y-39989153D01*
G37*
G36*
X138858032Y-40331093D02*
G01*
X139541179Y-39825021D01*
X139698744Y-39894118D01*
X139819177Y-39973761D01*
X139908520Y-40063738D01*
X139972358Y-40168829D01*
X140012923Y-40296754D01*
X140027466Y-40452909D01*
X140027466Y-42451121D01*
X140036863Y-42532471D01*
X140060195Y-42581913D01*
X140133671Y-42659417D01*
X140273419Y-42765705D01*
X140571395Y-42560541D01*
X140658834Y-42628929D01*
X139937341Y-43135001D01*
X139273244Y-42752028D01*
X139456427Y-42539811D01*
X139456427Y-40753388D01*
X139447925Y-40586128D01*
X139429071Y-40502917D01*
X139373010Y-40398504D01*
X139297913Y-40321689D01*
X139235144Y-40286067D01*
X139188736Y-40276382D01*
X139131582Y-40288930D01*
X139038527Y-40339000D01*
X138940097Y-40399481D01*
X138858032Y-40331093D01*
G37*
G36*
X141956741Y-43135001D02*
G01*
X141541284Y-42772544D01*
X141956741Y-42410088D01*
X142374884Y-42772544D01*
X141956741Y-43135001D01*
G37*
G36*
X143281758Y-40331093D02*
G01*
X143964905Y-39825021D01*
X144122470Y-39894118D01*
X144242904Y-39973761D01*
X144332247Y-40063738D01*
X144396084Y-40168829D01*
X144436649Y-40296754D01*
X144451193Y-40452909D01*
X144451193Y-42451121D01*
X144460589Y-42532471D01*
X144483921Y-42581913D01*
X144557397Y-42659417D01*
X144697145Y-42765705D01*
X144995122Y-42560541D01*
X145082561Y-42628929D01*
X144361067Y-43135001D01*
X143696971Y-42752028D01*
X143880153Y-42539811D01*
X143880153Y-40753388D01*
X143871651Y-40586128D01*
X143852798Y-40502917D01*
X143796736Y-40398504D01*
X143721639Y-40321689D01*
X143658871Y-40286067D01*
X143612463Y-40276382D01*
X143555308Y-40288930D01*
X143462254Y-40339000D01*
X143363824Y-40399481D01*
X143281758Y-40331093D01*
G37*
D11*
X107564819Y-99422857D02*
X107088628Y-99756190D01*
X107564819Y-99994285D02*
X106564819Y-99994285D01*
X106564819Y-99994285D02*
X106564819Y-99613333D01*
X106564819Y-99613333D02*
X106612438Y-99518095D01*
X106612438Y-99518095D02*
X106660057Y-99470476D01*
X106660057Y-99470476D02*
X106755295Y-99422857D01*
X106755295Y-99422857D02*
X106898152Y-99422857D01*
X106898152Y-99422857D02*
X106993390Y-99470476D01*
X106993390Y-99470476D02*
X107041009Y-99518095D01*
X107041009Y-99518095D02*
X107088628Y-99613333D01*
X107088628Y-99613333D02*
X107088628Y-99994285D01*
X107564819Y-98470476D02*
X107564819Y-99041904D01*
X107564819Y-98756190D02*
X106564819Y-98756190D01*
X106564819Y-98756190D02*
X106707676Y-98851428D01*
X106707676Y-98851428D02*
X106802914Y-98946666D01*
X106802914Y-98946666D02*
X106850533Y-99041904D01*
X106564819Y-98137142D02*
X106564819Y-97518095D01*
X106564819Y-97518095D02*
X106945771Y-97851428D01*
X106945771Y-97851428D02*
X106945771Y-97708571D01*
X106945771Y-97708571D02*
X106993390Y-97613333D01*
X106993390Y-97613333D02*
X107041009Y-97565714D01*
X107041009Y-97565714D02*
X107136247Y-97518095D01*
X107136247Y-97518095D02*
X107374342Y-97518095D01*
X107374342Y-97518095D02*
X107469580Y-97565714D01*
X107469580Y-97565714D02*
X107517200Y-97613333D01*
X107517200Y-97613333D02*
X107564819Y-97708571D01*
X107564819Y-97708571D02*
X107564819Y-97994285D01*
X107564819Y-97994285D02*
X107517200Y-98089523D01*
X107517200Y-98089523D02*
X107469580Y-98137142D01*
X158581009Y-95055714D02*
X158628628Y-94912857D01*
X158628628Y-94912857D02*
X158676247Y-94865238D01*
X158676247Y-94865238D02*
X158771485Y-94817619D01*
X158771485Y-94817619D02*
X158914342Y-94817619D01*
X158914342Y-94817619D02*
X159009580Y-94865238D01*
X159009580Y-94865238D02*
X159057200Y-94912857D01*
X159057200Y-94912857D02*
X159104819Y-95008095D01*
X159104819Y-95008095D02*
X159104819Y-95389047D01*
X159104819Y-95389047D02*
X158104819Y-95389047D01*
X158104819Y-95389047D02*
X158104819Y-95055714D01*
X158104819Y-95055714D02*
X158152438Y-94960476D01*
X158152438Y-94960476D02*
X158200057Y-94912857D01*
X158200057Y-94912857D02*
X158295295Y-94865238D01*
X158295295Y-94865238D02*
X158390533Y-94865238D01*
X158390533Y-94865238D02*
X158485771Y-94912857D01*
X158485771Y-94912857D02*
X158533390Y-94960476D01*
X158533390Y-94960476D02*
X158581009Y-95055714D01*
X158581009Y-95055714D02*
X158581009Y-95389047D01*
X158104819Y-94531904D02*
X158104819Y-93960476D01*
X159104819Y-94246190D02*
X158104819Y-94246190D01*
X158200057Y-93674761D02*
X158152438Y-93627142D01*
X158152438Y-93627142D02*
X158104819Y-93531904D01*
X158104819Y-93531904D02*
X158104819Y-93293809D01*
X158104819Y-93293809D02*
X158152438Y-93198571D01*
X158152438Y-93198571D02*
X158200057Y-93150952D01*
X158200057Y-93150952D02*
X158295295Y-93103333D01*
X158295295Y-93103333D02*
X158390533Y-93103333D01*
X158390533Y-93103333D02*
X158533390Y-93150952D01*
X158533390Y-93150952D02*
X159104819Y-93722380D01*
X159104819Y-93722380D02*
X159104819Y-93103333D01*
D10*
X101858095Y-144967419D02*
X101858095Y-143967419D01*
X101858095Y-144443609D02*
X102429523Y-144443609D01*
X102429523Y-144967419D02*
X102429523Y-143967419D01*
X103429523Y-144967419D02*
X102858095Y-144967419D01*
X103143809Y-144967419D02*
X103143809Y-143967419D01*
X103143809Y-143967419D02*
X103048571Y-144110276D01*
X103048571Y-144110276D02*
X102953333Y-144205514D01*
X102953333Y-144205514D02*
X102858095Y-144253133D01*
D11*
X110294819Y-53443333D02*
X111009104Y-53443333D01*
X111009104Y-53443333D02*
X111151961Y-53490952D01*
X111151961Y-53490952D02*
X111247200Y-53586190D01*
X111247200Y-53586190D02*
X111294819Y-53729047D01*
X111294819Y-53729047D02*
X111294819Y-53824285D01*
X110390057Y-53014761D02*
X110342438Y-52967142D01*
X110342438Y-52967142D02*
X110294819Y-52871904D01*
X110294819Y-52871904D02*
X110294819Y-52633809D01*
X110294819Y-52633809D02*
X110342438Y-52538571D01*
X110342438Y-52538571D02*
X110390057Y-52490952D01*
X110390057Y-52490952D02*
X110485295Y-52443333D01*
X110485295Y-52443333D02*
X110580533Y-52443333D01*
X110580533Y-52443333D02*
X110723390Y-52490952D01*
X110723390Y-52490952D02*
X111294819Y-53062380D01*
X111294819Y-53062380D02*
X111294819Y-52443333D01*
X103513333Y-93794819D02*
X103180000Y-93318628D01*
X102941905Y-93794819D02*
X102941905Y-92794819D01*
X102941905Y-92794819D02*
X103322857Y-92794819D01*
X103322857Y-92794819D02*
X103418095Y-92842438D01*
X103418095Y-92842438D02*
X103465714Y-92890057D01*
X103465714Y-92890057D02*
X103513333Y-92985295D01*
X103513333Y-92985295D02*
X103513333Y-93128152D01*
X103513333Y-93128152D02*
X103465714Y-93223390D01*
X103465714Y-93223390D02*
X103418095Y-93271009D01*
X103418095Y-93271009D02*
X103322857Y-93318628D01*
X103322857Y-93318628D02*
X102941905Y-93318628D01*
X104370476Y-92794819D02*
X104180000Y-92794819D01*
X104180000Y-92794819D02*
X104084762Y-92842438D01*
X104084762Y-92842438D02*
X104037143Y-92890057D01*
X104037143Y-92890057D02*
X103941905Y-93032914D01*
X103941905Y-93032914D02*
X103894286Y-93223390D01*
X103894286Y-93223390D02*
X103894286Y-93604342D01*
X103894286Y-93604342D02*
X103941905Y-93699580D01*
X103941905Y-93699580D02*
X103989524Y-93747200D01*
X103989524Y-93747200D02*
X104084762Y-93794819D01*
X104084762Y-93794819D02*
X104275238Y-93794819D01*
X104275238Y-93794819D02*
X104370476Y-93747200D01*
X104370476Y-93747200D02*
X104418095Y-93699580D01*
X104418095Y-93699580D02*
X104465714Y-93604342D01*
X104465714Y-93604342D02*
X104465714Y-93366247D01*
X104465714Y-93366247D02*
X104418095Y-93271009D01*
X104418095Y-93271009D02*
X104370476Y-93223390D01*
X104370476Y-93223390D02*
X104275238Y-93175771D01*
X104275238Y-93175771D02*
X104084762Y-93175771D01*
X104084762Y-93175771D02*
X103989524Y-93223390D01*
X103989524Y-93223390D02*
X103941905Y-93271009D01*
X103941905Y-93271009D02*
X103894286Y-93366247D01*
X112772142Y-99982319D02*
X112438809Y-99506128D01*
X112200714Y-99982319D02*
X112200714Y-98982319D01*
X112200714Y-98982319D02*
X112581666Y-98982319D01*
X112581666Y-98982319D02*
X112676904Y-99029938D01*
X112676904Y-99029938D02*
X112724523Y-99077557D01*
X112724523Y-99077557D02*
X112772142Y-99172795D01*
X112772142Y-99172795D02*
X112772142Y-99315652D01*
X112772142Y-99315652D02*
X112724523Y-99410890D01*
X112724523Y-99410890D02*
X112676904Y-99458509D01*
X112676904Y-99458509D02*
X112581666Y-99506128D01*
X112581666Y-99506128D02*
X112200714Y-99506128D01*
X113724523Y-99982319D02*
X113153095Y-99982319D01*
X113438809Y-99982319D02*
X113438809Y-98982319D01*
X113438809Y-98982319D02*
X113343571Y-99125176D01*
X113343571Y-99125176D02*
X113248333Y-99220414D01*
X113248333Y-99220414D02*
X113153095Y-99268033D01*
X114581666Y-99315652D02*
X114581666Y-99982319D01*
X114343571Y-98934700D02*
X114105476Y-99648985D01*
X114105476Y-99648985D02*
X114724523Y-99648985D01*
X124016666Y-115364819D02*
X124016666Y-116079104D01*
X124016666Y-116079104D02*
X123969047Y-116221961D01*
X123969047Y-116221961D02*
X123873809Y-116317200D01*
X123873809Y-116317200D02*
X123730952Y-116364819D01*
X123730952Y-116364819D02*
X123635714Y-116364819D01*
X124540476Y-116364819D02*
X124730952Y-116364819D01*
X124730952Y-116364819D02*
X124826190Y-116317200D01*
X124826190Y-116317200D02*
X124873809Y-116269580D01*
X124873809Y-116269580D02*
X124969047Y-116126723D01*
X124969047Y-116126723D02*
X125016666Y-115936247D01*
X125016666Y-115936247D02*
X125016666Y-115555295D01*
X125016666Y-115555295D02*
X124969047Y-115460057D01*
X124969047Y-115460057D02*
X124921428Y-115412438D01*
X124921428Y-115412438D02*
X124826190Y-115364819D01*
X124826190Y-115364819D02*
X124635714Y-115364819D01*
X124635714Y-115364819D02*
X124540476Y-115412438D01*
X124540476Y-115412438D02*
X124492857Y-115460057D01*
X124492857Y-115460057D02*
X124445238Y-115555295D01*
X124445238Y-115555295D02*
X124445238Y-115793390D01*
X124445238Y-115793390D02*
X124492857Y-115888628D01*
X124492857Y-115888628D02*
X124540476Y-115936247D01*
X124540476Y-115936247D02*
X124635714Y-115983866D01*
X124635714Y-115983866D02*
X124826190Y-115983866D01*
X124826190Y-115983866D02*
X124921428Y-115936247D01*
X124921428Y-115936247D02*
X124969047Y-115888628D01*
X124969047Y-115888628D02*
X125016666Y-115793390D01*
X111364819Y-99422857D02*
X110888628Y-99756190D01*
X111364819Y-99994285D02*
X110364819Y-99994285D01*
X110364819Y-99994285D02*
X110364819Y-99613333D01*
X110364819Y-99613333D02*
X110412438Y-99518095D01*
X110412438Y-99518095D02*
X110460057Y-99470476D01*
X110460057Y-99470476D02*
X110555295Y-99422857D01*
X110555295Y-99422857D02*
X110698152Y-99422857D01*
X110698152Y-99422857D02*
X110793390Y-99470476D01*
X110793390Y-99470476D02*
X110841009Y-99518095D01*
X110841009Y-99518095D02*
X110888628Y-99613333D01*
X110888628Y-99613333D02*
X110888628Y-99994285D01*
X111364819Y-98470476D02*
X111364819Y-99041904D01*
X111364819Y-98756190D02*
X110364819Y-98756190D01*
X110364819Y-98756190D02*
X110507676Y-98851428D01*
X110507676Y-98851428D02*
X110602914Y-98946666D01*
X110602914Y-98946666D02*
X110650533Y-99041904D01*
X110364819Y-97565714D02*
X110364819Y-98041904D01*
X110364819Y-98041904D02*
X110841009Y-98089523D01*
X110841009Y-98089523D02*
X110793390Y-98041904D01*
X110793390Y-98041904D02*
X110745771Y-97946666D01*
X110745771Y-97946666D02*
X110745771Y-97708571D01*
X110745771Y-97708571D02*
X110793390Y-97613333D01*
X110793390Y-97613333D02*
X110841009Y-97565714D01*
X110841009Y-97565714D02*
X110936247Y-97518095D01*
X110936247Y-97518095D02*
X111174342Y-97518095D01*
X111174342Y-97518095D02*
X111269580Y-97565714D01*
X111269580Y-97565714D02*
X111317200Y-97613333D01*
X111317200Y-97613333D02*
X111364819Y-97708571D01*
X111364819Y-97708571D02*
X111364819Y-97946666D01*
X111364819Y-97946666D02*
X111317200Y-98041904D01*
X111317200Y-98041904D02*
X111269580Y-98089523D01*
X111984819Y-137641904D02*
X110984819Y-137641904D01*
X111461009Y-137641904D02*
X111461009Y-137070476D01*
X111984819Y-137070476D02*
X110984819Y-137070476D01*
X110984819Y-136165714D02*
X110984819Y-136356190D01*
X110984819Y-136356190D02*
X111032438Y-136451428D01*
X111032438Y-136451428D02*
X111080057Y-136499047D01*
X111080057Y-136499047D02*
X111222914Y-136594285D01*
X111222914Y-136594285D02*
X111413390Y-136641904D01*
X111413390Y-136641904D02*
X111794342Y-136641904D01*
X111794342Y-136641904D02*
X111889580Y-136594285D01*
X111889580Y-136594285D02*
X111937200Y-136546666D01*
X111937200Y-136546666D02*
X111984819Y-136451428D01*
X111984819Y-136451428D02*
X111984819Y-136260952D01*
X111984819Y-136260952D02*
X111937200Y-136165714D01*
X111937200Y-136165714D02*
X111889580Y-136118095D01*
X111889580Y-136118095D02*
X111794342Y-136070476D01*
X111794342Y-136070476D02*
X111556247Y-136070476D01*
X111556247Y-136070476D02*
X111461009Y-136118095D01*
X111461009Y-136118095D02*
X111413390Y-136165714D01*
X111413390Y-136165714D02*
X111365771Y-136260952D01*
X111365771Y-136260952D02*
X111365771Y-136451428D01*
X111365771Y-136451428D02*
X111413390Y-136546666D01*
X111413390Y-136546666D02*
X111461009Y-136594285D01*
X111461009Y-136594285D02*
X111556247Y-136641904D01*
X97373333Y-92184819D02*
X97040000Y-91708628D01*
X96801905Y-92184819D02*
X96801905Y-91184819D01*
X96801905Y-91184819D02*
X97182857Y-91184819D01*
X97182857Y-91184819D02*
X97278095Y-91232438D01*
X97278095Y-91232438D02*
X97325714Y-91280057D01*
X97325714Y-91280057D02*
X97373333Y-91375295D01*
X97373333Y-91375295D02*
X97373333Y-91518152D01*
X97373333Y-91518152D02*
X97325714Y-91613390D01*
X97325714Y-91613390D02*
X97278095Y-91661009D01*
X97278095Y-91661009D02*
X97182857Y-91708628D01*
X97182857Y-91708628D02*
X96801905Y-91708628D01*
X97706667Y-91184819D02*
X98373333Y-91184819D01*
X98373333Y-91184819D02*
X97944762Y-92184819D01*
X128597142Y-106454819D02*
X128263809Y-105978628D01*
X128025714Y-106454819D02*
X128025714Y-105454819D01*
X128025714Y-105454819D02*
X128406666Y-105454819D01*
X128406666Y-105454819D02*
X128501904Y-105502438D01*
X128501904Y-105502438D02*
X128549523Y-105550057D01*
X128549523Y-105550057D02*
X128597142Y-105645295D01*
X128597142Y-105645295D02*
X128597142Y-105788152D01*
X128597142Y-105788152D02*
X128549523Y-105883390D01*
X128549523Y-105883390D02*
X128501904Y-105931009D01*
X128501904Y-105931009D02*
X128406666Y-105978628D01*
X128406666Y-105978628D02*
X128025714Y-105978628D01*
X129549523Y-106454819D02*
X128978095Y-106454819D01*
X129263809Y-106454819D02*
X129263809Y-105454819D01*
X129263809Y-105454819D02*
X129168571Y-105597676D01*
X129168571Y-105597676D02*
X129073333Y-105692914D01*
X129073333Y-105692914D02*
X128978095Y-105740533D01*
X130406666Y-105454819D02*
X130216190Y-105454819D01*
X130216190Y-105454819D02*
X130120952Y-105502438D01*
X130120952Y-105502438D02*
X130073333Y-105550057D01*
X130073333Y-105550057D02*
X129978095Y-105692914D01*
X129978095Y-105692914D02*
X129930476Y-105883390D01*
X129930476Y-105883390D02*
X129930476Y-106264342D01*
X129930476Y-106264342D02*
X129978095Y-106359580D01*
X129978095Y-106359580D02*
X130025714Y-106407200D01*
X130025714Y-106407200D02*
X130120952Y-106454819D01*
X130120952Y-106454819D02*
X130311428Y-106454819D01*
X130311428Y-106454819D02*
X130406666Y-106407200D01*
X130406666Y-106407200D02*
X130454285Y-106359580D01*
X130454285Y-106359580D02*
X130501904Y-106264342D01*
X130501904Y-106264342D02*
X130501904Y-106026247D01*
X130501904Y-106026247D02*
X130454285Y-105931009D01*
X130454285Y-105931009D02*
X130406666Y-105883390D01*
X130406666Y-105883390D02*
X130311428Y-105835771D01*
X130311428Y-105835771D02*
X130120952Y-105835771D01*
X130120952Y-105835771D02*
X130025714Y-105883390D01*
X130025714Y-105883390D02*
X129978095Y-105931009D01*
X129978095Y-105931009D02*
X129930476Y-106026247D01*
X120104819Y-99262857D02*
X119628628Y-99596190D01*
X120104819Y-99834285D02*
X119104819Y-99834285D01*
X119104819Y-99834285D02*
X119104819Y-99453333D01*
X119104819Y-99453333D02*
X119152438Y-99358095D01*
X119152438Y-99358095D02*
X119200057Y-99310476D01*
X119200057Y-99310476D02*
X119295295Y-99262857D01*
X119295295Y-99262857D02*
X119438152Y-99262857D01*
X119438152Y-99262857D02*
X119533390Y-99310476D01*
X119533390Y-99310476D02*
X119581009Y-99358095D01*
X119581009Y-99358095D02*
X119628628Y-99453333D01*
X119628628Y-99453333D02*
X119628628Y-99834285D01*
X120104819Y-98310476D02*
X120104819Y-98881904D01*
X120104819Y-98596190D02*
X119104819Y-98596190D01*
X119104819Y-98596190D02*
X119247676Y-98691428D01*
X119247676Y-98691428D02*
X119342914Y-98786666D01*
X119342914Y-98786666D02*
X119390533Y-98881904D01*
X120104819Y-97358095D02*
X120104819Y-97929523D01*
X120104819Y-97643809D02*
X119104819Y-97643809D01*
X119104819Y-97643809D02*
X119247676Y-97739047D01*
X119247676Y-97739047D02*
X119342914Y-97834285D01*
X119342914Y-97834285D02*
X119390533Y-97929523D01*
X103987142Y-99984819D02*
X103653809Y-99508628D01*
X103415714Y-99984819D02*
X103415714Y-98984819D01*
X103415714Y-98984819D02*
X103796666Y-98984819D01*
X103796666Y-98984819D02*
X103891904Y-99032438D01*
X103891904Y-99032438D02*
X103939523Y-99080057D01*
X103939523Y-99080057D02*
X103987142Y-99175295D01*
X103987142Y-99175295D02*
X103987142Y-99318152D01*
X103987142Y-99318152D02*
X103939523Y-99413390D01*
X103939523Y-99413390D02*
X103891904Y-99461009D01*
X103891904Y-99461009D02*
X103796666Y-99508628D01*
X103796666Y-99508628D02*
X103415714Y-99508628D01*
X104939523Y-99984819D02*
X104368095Y-99984819D01*
X104653809Y-99984819D02*
X104653809Y-98984819D01*
X104653809Y-98984819D02*
X104558571Y-99127676D01*
X104558571Y-99127676D02*
X104463333Y-99222914D01*
X104463333Y-99222914D02*
X104368095Y-99270533D01*
X105320476Y-99080057D02*
X105368095Y-99032438D01*
X105368095Y-99032438D02*
X105463333Y-98984819D01*
X105463333Y-98984819D02*
X105701428Y-98984819D01*
X105701428Y-98984819D02*
X105796666Y-99032438D01*
X105796666Y-99032438D02*
X105844285Y-99080057D01*
X105844285Y-99080057D02*
X105891904Y-99175295D01*
X105891904Y-99175295D02*
X105891904Y-99270533D01*
X105891904Y-99270533D02*
X105844285Y-99413390D01*
X105844285Y-99413390D02*
X105272857Y-99984819D01*
X105272857Y-99984819D02*
X105891904Y-99984819D01*
X138443333Y-97684819D02*
X138110000Y-97208628D01*
X137871905Y-97684819D02*
X137871905Y-96684819D01*
X137871905Y-96684819D02*
X138252857Y-96684819D01*
X138252857Y-96684819D02*
X138348095Y-96732438D01*
X138348095Y-96732438D02*
X138395714Y-96780057D01*
X138395714Y-96780057D02*
X138443333Y-96875295D01*
X138443333Y-96875295D02*
X138443333Y-97018152D01*
X138443333Y-97018152D02*
X138395714Y-97113390D01*
X138395714Y-97113390D02*
X138348095Y-97161009D01*
X138348095Y-97161009D02*
X138252857Y-97208628D01*
X138252857Y-97208628D02*
X137871905Y-97208628D01*
X139348095Y-96684819D02*
X138871905Y-96684819D01*
X138871905Y-96684819D02*
X138824286Y-97161009D01*
X138824286Y-97161009D02*
X138871905Y-97113390D01*
X138871905Y-97113390D02*
X138967143Y-97065771D01*
X138967143Y-97065771D02*
X139205238Y-97065771D01*
X139205238Y-97065771D02*
X139300476Y-97113390D01*
X139300476Y-97113390D02*
X139348095Y-97161009D01*
X139348095Y-97161009D02*
X139395714Y-97256247D01*
X139395714Y-97256247D02*
X139395714Y-97494342D01*
X139395714Y-97494342D02*
X139348095Y-97589580D01*
X139348095Y-97589580D02*
X139300476Y-97637200D01*
X139300476Y-97637200D02*
X139205238Y-97684819D01*
X139205238Y-97684819D02*
X138967143Y-97684819D01*
X138967143Y-97684819D02*
X138871905Y-97637200D01*
X138871905Y-97637200D02*
X138824286Y-97589580D01*
X129283333Y-100979580D02*
X129235714Y-101027200D01*
X129235714Y-101027200D02*
X129092857Y-101074819D01*
X129092857Y-101074819D02*
X128997619Y-101074819D01*
X128997619Y-101074819D02*
X128854762Y-101027200D01*
X128854762Y-101027200D02*
X128759524Y-100931961D01*
X128759524Y-100931961D02*
X128711905Y-100836723D01*
X128711905Y-100836723D02*
X128664286Y-100646247D01*
X128664286Y-100646247D02*
X128664286Y-100503390D01*
X128664286Y-100503390D02*
X128711905Y-100312914D01*
X128711905Y-100312914D02*
X128759524Y-100217676D01*
X128759524Y-100217676D02*
X128854762Y-100122438D01*
X128854762Y-100122438D02*
X128997619Y-100074819D01*
X128997619Y-100074819D02*
X129092857Y-100074819D01*
X129092857Y-100074819D02*
X129235714Y-100122438D01*
X129235714Y-100122438D02*
X129283333Y-100170057D01*
X129664286Y-100170057D02*
X129711905Y-100122438D01*
X129711905Y-100122438D02*
X129807143Y-100074819D01*
X129807143Y-100074819D02*
X130045238Y-100074819D01*
X130045238Y-100074819D02*
X130140476Y-100122438D01*
X130140476Y-100122438D02*
X130188095Y-100170057D01*
X130188095Y-100170057D02*
X130235714Y-100265295D01*
X130235714Y-100265295D02*
X130235714Y-100360533D01*
X130235714Y-100360533D02*
X130188095Y-100503390D01*
X130188095Y-100503390D02*
X129616667Y-101074819D01*
X129616667Y-101074819D02*
X130235714Y-101074819D01*
X125523333Y-99844819D02*
X125190000Y-99368628D01*
X124951905Y-99844819D02*
X124951905Y-98844819D01*
X124951905Y-98844819D02*
X125332857Y-98844819D01*
X125332857Y-98844819D02*
X125428095Y-98892438D01*
X125428095Y-98892438D02*
X125475714Y-98940057D01*
X125475714Y-98940057D02*
X125523333Y-99035295D01*
X125523333Y-99035295D02*
X125523333Y-99178152D01*
X125523333Y-99178152D02*
X125475714Y-99273390D01*
X125475714Y-99273390D02*
X125428095Y-99321009D01*
X125428095Y-99321009D02*
X125332857Y-99368628D01*
X125332857Y-99368628D02*
X124951905Y-99368628D01*
X125999524Y-99844819D02*
X126190000Y-99844819D01*
X126190000Y-99844819D02*
X126285238Y-99797200D01*
X126285238Y-99797200D02*
X126332857Y-99749580D01*
X126332857Y-99749580D02*
X126428095Y-99606723D01*
X126428095Y-99606723D02*
X126475714Y-99416247D01*
X126475714Y-99416247D02*
X126475714Y-99035295D01*
X126475714Y-99035295D02*
X126428095Y-98940057D01*
X126428095Y-98940057D02*
X126380476Y-98892438D01*
X126380476Y-98892438D02*
X126285238Y-98844819D01*
X126285238Y-98844819D02*
X126094762Y-98844819D01*
X126094762Y-98844819D02*
X125999524Y-98892438D01*
X125999524Y-98892438D02*
X125951905Y-98940057D01*
X125951905Y-98940057D02*
X125904286Y-99035295D01*
X125904286Y-99035295D02*
X125904286Y-99273390D01*
X125904286Y-99273390D02*
X125951905Y-99368628D01*
X125951905Y-99368628D02*
X125999524Y-99416247D01*
X125999524Y-99416247D02*
X126094762Y-99463866D01*
X126094762Y-99463866D02*
X126285238Y-99463866D01*
X126285238Y-99463866D02*
X126380476Y-99416247D01*
X126380476Y-99416247D02*
X126428095Y-99368628D01*
X126428095Y-99368628D02*
X126475714Y-99273390D01*
X97503333Y-123409580D02*
X97455714Y-123457200D01*
X97455714Y-123457200D02*
X97312857Y-123504819D01*
X97312857Y-123504819D02*
X97217619Y-123504819D01*
X97217619Y-123504819D02*
X97074762Y-123457200D01*
X97074762Y-123457200D02*
X96979524Y-123361961D01*
X96979524Y-123361961D02*
X96931905Y-123266723D01*
X96931905Y-123266723D02*
X96884286Y-123076247D01*
X96884286Y-123076247D02*
X96884286Y-122933390D01*
X96884286Y-122933390D02*
X96931905Y-122742914D01*
X96931905Y-122742914D02*
X96979524Y-122647676D01*
X96979524Y-122647676D02*
X97074762Y-122552438D01*
X97074762Y-122552438D02*
X97217619Y-122504819D01*
X97217619Y-122504819D02*
X97312857Y-122504819D01*
X97312857Y-122504819D02*
X97455714Y-122552438D01*
X97455714Y-122552438D02*
X97503333Y-122600057D01*
X97836667Y-122504819D02*
X98455714Y-122504819D01*
X98455714Y-122504819D02*
X98122381Y-122885771D01*
X98122381Y-122885771D02*
X98265238Y-122885771D01*
X98265238Y-122885771D02*
X98360476Y-122933390D01*
X98360476Y-122933390D02*
X98408095Y-122981009D01*
X98408095Y-122981009D02*
X98455714Y-123076247D01*
X98455714Y-123076247D02*
X98455714Y-123314342D01*
X98455714Y-123314342D02*
X98408095Y-123409580D01*
X98408095Y-123409580D02*
X98360476Y-123457200D01*
X98360476Y-123457200D02*
X98265238Y-123504819D01*
X98265238Y-123504819D02*
X97979524Y-123504819D01*
X97979524Y-123504819D02*
X97884286Y-123457200D01*
X97884286Y-123457200D02*
X97836667Y-123409580D01*
X138154819Y-146331904D02*
X137154819Y-146331904D01*
X137631009Y-146331904D02*
X137631009Y-145760476D01*
X138154819Y-145760476D02*
X137154819Y-145760476D01*
X137154819Y-145379523D02*
X137154819Y-144712857D01*
X137154819Y-144712857D02*
X138154819Y-145141428D01*
X99176666Y-114974819D02*
X99176666Y-115689104D01*
X99176666Y-115689104D02*
X99129047Y-115831961D01*
X99129047Y-115831961D02*
X99033809Y-115927200D01*
X99033809Y-115927200D02*
X98890952Y-115974819D01*
X98890952Y-115974819D02*
X98795714Y-115974819D01*
X100129047Y-114974819D02*
X99652857Y-114974819D01*
X99652857Y-114974819D02*
X99605238Y-115451009D01*
X99605238Y-115451009D02*
X99652857Y-115403390D01*
X99652857Y-115403390D02*
X99748095Y-115355771D01*
X99748095Y-115355771D02*
X99986190Y-115355771D01*
X99986190Y-115355771D02*
X100081428Y-115403390D01*
X100081428Y-115403390D02*
X100129047Y-115451009D01*
X100129047Y-115451009D02*
X100176666Y-115546247D01*
X100176666Y-115546247D02*
X100176666Y-115784342D01*
X100176666Y-115784342D02*
X100129047Y-115879580D01*
X100129047Y-115879580D02*
X100081428Y-115927200D01*
X100081428Y-115927200D02*
X99986190Y-115974819D01*
X99986190Y-115974819D02*
X99748095Y-115974819D01*
X99748095Y-115974819D02*
X99652857Y-115927200D01*
X99652857Y-115927200D02*
X99605238Y-115879580D01*
X156246667Y-105077200D02*
X156389524Y-105124819D01*
X156389524Y-105124819D02*
X156627619Y-105124819D01*
X156627619Y-105124819D02*
X156722857Y-105077200D01*
X156722857Y-105077200D02*
X156770476Y-105029580D01*
X156770476Y-105029580D02*
X156818095Y-104934342D01*
X156818095Y-104934342D02*
X156818095Y-104839104D01*
X156818095Y-104839104D02*
X156770476Y-104743866D01*
X156770476Y-104743866D02*
X156722857Y-104696247D01*
X156722857Y-104696247D02*
X156627619Y-104648628D01*
X156627619Y-104648628D02*
X156437143Y-104601009D01*
X156437143Y-104601009D02*
X156341905Y-104553390D01*
X156341905Y-104553390D02*
X156294286Y-104505771D01*
X156294286Y-104505771D02*
X156246667Y-104410533D01*
X156246667Y-104410533D02*
X156246667Y-104315295D01*
X156246667Y-104315295D02*
X156294286Y-104220057D01*
X156294286Y-104220057D02*
X156341905Y-104172438D01*
X156341905Y-104172438D02*
X156437143Y-104124819D01*
X156437143Y-104124819D02*
X156675238Y-104124819D01*
X156675238Y-104124819D02*
X156818095Y-104172438D01*
X157151429Y-104124819D02*
X157389524Y-105124819D01*
X157389524Y-105124819D02*
X157580000Y-104410533D01*
X157580000Y-104410533D02*
X157770476Y-105124819D01*
X157770476Y-105124819D02*
X158008572Y-104124819D01*
X158865714Y-104124819D02*
X158389524Y-104124819D01*
X158389524Y-104124819D02*
X158341905Y-104601009D01*
X158341905Y-104601009D02*
X158389524Y-104553390D01*
X158389524Y-104553390D02*
X158484762Y-104505771D01*
X158484762Y-104505771D02*
X158722857Y-104505771D01*
X158722857Y-104505771D02*
X158818095Y-104553390D01*
X158818095Y-104553390D02*
X158865714Y-104601009D01*
X158865714Y-104601009D02*
X158913333Y-104696247D01*
X158913333Y-104696247D02*
X158913333Y-104934342D01*
X158913333Y-104934342D02*
X158865714Y-105029580D01*
X158865714Y-105029580D02*
X158818095Y-105077200D01*
X158818095Y-105077200D02*
X158722857Y-105124819D01*
X158722857Y-105124819D02*
X158484762Y-105124819D01*
X158484762Y-105124819D02*
X158389524Y-105077200D01*
X158389524Y-105077200D02*
X158341905Y-105029580D01*
X143663333Y-93929580D02*
X143615714Y-93977200D01*
X143615714Y-93977200D02*
X143472857Y-94024819D01*
X143472857Y-94024819D02*
X143377619Y-94024819D01*
X143377619Y-94024819D02*
X143234762Y-93977200D01*
X143234762Y-93977200D02*
X143139524Y-93881961D01*
X143139524Y-93881961D02*
X143091905Y-93786723D01*
X143091905Y-93786723D02*
X143044286Y-93596247D01*
X143044286Y-93596247D02*
X143044286Y-93453390D01*
X143044286Y-93453390D02*
X143091905Y-93262914D01*
X143091905Y-93262914D02*
X143139524Y-93167676D01*
X143139524Y-93167676D02*
X143234762Y-93072438D01*
X143234762Y-93072438D02*
X143377619Y-93024819D01*
X143377619Y-93024819D02*
X143472857Y-93024819D01*
X143472857Y-93024819D02*
X143615714Y-93072438D01*
X143615714Y-93072438D02*
X143663333Y-93120057D01*
X144615714Y-94024819D02*
X144044286Y-94024819D01*
X144330000Y-94024819D02*
X144330000Y-93024819D01*
X144330000Y-93024819D02*
X144234762Y-93167676D01*
X144234762Y-93167676D02*
X144139524Y-93262914D01*
X144139524Y-93262914D02*
X144044286Y-93310533D01*
X105486666Y-115004819D02*
X105486666Y-115719104D01*
X105486666Y-115719104D02*
X105439047Y-115861961D01*
X105439047Y-115861961D02*
X105343809Y-115957200D01*
X105343809Y-115957200D02*
X105200952Y-116004819D01*
X105200952Y-116004819D02*
X105105714Y-116004819D01*
X106391428Y-115004819D02*
X106200952Y-115004819D01*
X106200952Y-115004819D02*
X106105714Y-115052438D01*
X106105714Y-115052438D02*
X106058095Y-115100057D01*
X106058095Y-115100057D02*
X105962857Y-115242914D01*
X105962857Y-115242914D02*
X105915238Y-115433390D01*
X105915238Y-115433390D02*
X105915238Y-115814342D01*
X105915238Y-115814342D02*
X105962857Y-115909580D01*
X105962857Y-115909580D02*
X106010476Y-115957200D01*
X106010476Y-115957200D02*
X106105714Y-116004819D01*
X106105714Y-116004819D02*
X106296190Y-116004819D01*
X106296190Y-116004819D02*
X106391428Y-115957200D01*
X106391428Y-115957200D02*
X106439047Y-115909580D01*
X106439047Y-115909580D02*
X106486666Y-115814342D01*
X106486666Y-115814342D02*
X106486666Y-115576247D01*
X106486666Y-115576247D02*
X106439047Y-115481009D01*
X106439047Y-115481009D02*
X106391428Y-115433390D01*
X106391428Y-115433390D02*
X106296190Y-115385771D01*
X106296190Y-115385771D02*
X106105714Y-115385771D01*
X106105714Y-115385771D02*
X106010476Y-115433390D01*
X106010476Y-115433390D02*
X105962857Y-115481009D01*
X105962857Y-115481009D02*
X105915238Y-115576247D01*
X139834819Y-49403333D02*
X140549104Y-49403333D01*
X140549104Y-49403333D02*
X140691961Y-49450952D01*
X140691961Y-49450952D02*
X140787200Y-49546190D01*
X140787200Y-49546190D02*
X140834819Y-49689047D01*
X140834819Y-49689047D02*
X140834819Y-49784285D01*
X140834819Y-48403333D02*
X140834819Y-48974761D01*
X140834819Y-48689047D02*
X139834819Y-48689047D01*
X139834819Y-48689047D02*
X139977676Y-48784285D01*
X139977676Y-48784285D02*
X140072914Y-48879523D01*
X140072914Y-48879523D02*
X140120533Y-48974761D01*
D10*
X117536742Y-124216999D02*
X117536742Y-125026522D01*
X117536742Y-125026522D02*
X117584361Y-125121760D01*
X117584361Y-125121760D02*
X117631980Y-125169380D01*
X117631980Y-125169380D02*
X117727218Y-125216999D01*
X117727218Y-125216999D02*
X117917694Y-125216999D01*
X117917694Y-125216999D02*
X118012932Y-125169380D01*
X118012932Y-125169380D02*
X118060551Y-125121760D01*
X118060551Y-125121760D02*
X118108170Y-125026522D01*
X118108170Y-125026522D02*
X118108170Y-124216999D01*
X118536742Y-124312237D02*
X118584361Y-124264618D01*
X118584361Y-124264618D02*
X118679599Y-124216999D01*
X118679599Y-124216999D02*
X118917694Y-124216999D01*
X118917694Y-124216999D02*
X119012932Y-124264618D01*
X119012932Y-124264618D02*
X119060551Y-124312237D01*
X119060551Y-124312237D02*
X119108170Y-124407475D01*
X119108170Y-124407475D02*
X119108170Y-124502713D01*
X119108170Y-124502713D02*
X119060551Y-124645570D01*
X119060551Y-124645570D02*
X118489123Y-125216999D01*
X118489123Y-125216999D02*
X119108170Y-125216999D01*
D11*
X118156666Y-115314819D02*
X118156666Y-116029104D01*
X118156666Y-116029104D02*
X118109047Y-116171961D01*
X118109047Y-116171961D02*
X118013809Y-116267200D01*
X118013809Y-116267200D02*
X117870952Y-116314819D01*
X117870952Y-116314819D02*
X117775714Y-116314819D01*
X118775714Y-115743390D02*
X118680476Y-115695771D01*
X118680476Y-115695771D02*
X118632857Y-115648152D01*
X118632857Y-115648152D02*
X118585238Y-115552914D01*
X118585238Y-115552914D02*
X118585238Y-115505295D01*
X118585238Y-115505295D02*
X118632857Y-115410057D01*
X118632857Y-115410057D02*
X118680476Y-115362438D01*
X118680476Y-115362438D02*
X118775714Y-115314819D01*
X118775714Y-115314819D02*
X118966190Y-115314819D01*
X118966190Y-115314819D02*
X119061428Y-115362438D01*
X119061428Y-115362438D02*
X119109047Y-115410057D01*
X119109047Y-115410057D02*
X119156666Y-115505295D01*
X119156666Y-115505295D02*
X119156666Y-115552914D01*
X119156666Y-115552914D02*
X119109047Y-115648152D01*
X119109047Y-115648152D02*
X119061428Y-115695771D01*
X119061428Y-115695771D02*
X118966190Y-115743390D01*
X118966190Y-115743390D02*
X118775714Y-115743390D01*
X118775714Y-115743390D02*
X118680476Y-115791009D01*
X118680476Y-115791009D02*
X118632857Y-115838628D01*
X118632857Y-115838628D02*
X118585238Y-115933866D01*
X118585238Y-115933866D02*
X118585238Y-116124342D01*
X118585238Y-116124342D02*
X118632857Y-116219580D01*
X118632857Y-116219580D02*
X118680476Y-116267200D01*
X118680476Y-116267200D02*
X118775714Y-116314819D01*
X118775714Y-116314819D02*
X118966190Y-116314819D01*
X118966190Y-116314819D02*
X119061428Y-116267200D01*
X119061428Y-116267200D02*
X119109047Y-116219580D01*
X119109047Y-116219580D02*
X119156666Y-116124342D01*
X119156666Y-116124342D02*
X119156666Y-115933866D01*
X119156666Y-115933866D02*
X119109047Y-115838628D01*
X119109047Y-115838628D02*
X119061428Y-115791009D01*
X119061428Y-115791009D02*
X118966190Y-115743390D01*
X122833333Y-99834819D02*
X122500000Y-99358628D01*
X122261905Y-99834819D02*
X122261905Y-98834819D01*
X122261905Y-98834819D02*
X122642857Y-98834819D01*
X122642857Y-98834819D02*
X122738095Y-98882438D01*
X122738095Y-98882438D02*
X122785714Y-98930057D01*
X122785714Y-98930057D02*
X122833333Y-99025295D01*
X122833333Y-99025295D02*
X122833333Y-99168152D01*
X122833333Y-99168152D02*
X122785714Y-99263390D01*
X122785714Y-99263390D02*
X122738095Y-99311009D01*
X122738095Y-99311009D02*
X122642857Y-99358628D01*
X122642857Y-99358628D02*
X122261905Y-99358628D01*
X123404762Y-99263390D02*
X123309524Y-99215771D01*
X123309524Y-99215771D02*
X123261905Y-99168152D01*
X123261905Y-99168152D02*
X123214286Y-99072914D01*
X123214286Y-99072914D02*
X123214286Y-99025295D01*
X123214286Y-99025295D02*
X123261905Y-98930057D01*
X123261905Y-98930057D02*
X123309524Y-98882438D01*
X123309524Y-98882438D02*
X123404762Y-98834819D01*
X123404762Y-98834819D02*
X123595238Y-98834819D01*
X123595238Y-98834819D02*
X123690476Y-98882438D01*
X123690476Y-98882438D02*
X123738095Y-98930057D01*
X123738095Y-98930057D02*
X123785714Y-99025295D01*
X123785714Y-99025295D02*
X123785714Y-99072914D01*
X123785714Y-99072914D02*
X123738095Y-99168152D01*
X123738095Y-99168152D02*
X123690476Y-99215771D01*
X123690476Y-99215771D02*
X123595238Y-99263390D01*
X123595238Y-99263390D02*
X123404762Y-99263390D01*
X123404762Y-99263390D02*
X123309524Y-99311009D01*
X123309524Y-99311009D02*
X123261905Y-99358628D01*
X123261905Y-99358628D02*
X123214286Y-99453866D01*
X123214286Y-99453866D02*
X123214286Y-99644342D01*
X123214286Y-99644342D02*
X123261905Y-99739580D01*
X123261905Y-99739580D02*
X123309524Y-99787200D01*
X123309524Y-99787200D02*
X123404762Y-99834819D01*
X123404762Y-99834819D02*
X123595238Y-99834819D01*
X123595238Y-99834819D02*
X123690476Y-99787200D01*
X123690476Y-99787200D02*
X123738095Y-99739580D01*
X123738095Y-99739580D02*
X123785714Y-99644342D01*
X123785714Y-99644342D02*
X123785714Y-99453866D01*
X123785714Y-99453866D02*
X123738095Y-99358628D01*
X123738095Y-99358628D02*
X123690476Y-99311009D01*
X123690476Y-99311009D02*
X123595238Y-99263390D01*
X142956666Y-107014819D02*
X142956666Y-107729104D01*
X142956666Y-107729104D02*
X142909047Y-107871961D01*
X142909047Y-107871961D02*
X142813809Y-107967200D01*
X142813809Y-107967200D02*
X142670952Y-108014819D01*
X142670952Y-108014819D02*
X142575714Y-108014819D01*
X143337619Y-107014819D02*
X143956666Y-107014819D01*
X143956666Y-107014819D02*
X143623333Y-107395771D01*
X143623333Y-107395771D02*
X143766190Y-107395771D01*
X143766190Y-107395771D02*
X143861428Y-107443390D01*
X143861428Y-107443390D02*
X143909047Y-107491009D01*
X143909047Y-107491009D02*
X143956666Y-107586247D01*
X143956666Y-107586247D02*
X143956666Y-107824342D01*
X143956666Y-107824342D02*
X143909047Y-107919580D01*
X143909047Y-107919580D02*
X143861428Y-107967200D01*
X143861428Y-107967200D02*
X143766190Y-108014819D01*
X143766190Y-108014819D02*
X143480476Y-108014819D01*
X143480476Y-108014819D02*
X143385238Y-107967200D01*
X143385238Y-107967200D02*
X143337619Y-107919580D01*
X116327142Y-99824819D02*
X115993809Y-99348628D01*
X115755714Y-99824819D02*
X115755714Y-98824819D01*
X115755714Y-98824819D02*
X116136666Y-98824819D01*
X116136666Y-98824819D02*
X116231904Y-98872438D01*
X116231904Y-98872438D02*
X116279523Y-98920057D01*
X116279523Y-98920057D02*
X116327142Y-99015295D01*
X116327142Y-99015295D02*
X116327142Y-99158152D01*
X116327142Y-99158152D02*
X116279523Y-99253390D01*
X116279523Y-99253390D02*
X116231904Y-99301009D01*
X116231904Y-99301009D02*
X116136666Y-99348628D01*
X116136666Y-99348628D02*
X115755714Y-99348628D01*
X117279523Y-99824819D02*
X116708095Y-99824819D01*
X116993809Y-99824819D02*
X116993809Y-98824819D01*
X116993809Y-98824819D02*
X116898571Y-98967676D01*
X116898571Y-98967676D02*
X116803333Y-99062914D01*
X116803333Y-99062914D02*
X116708095Y-99110533D01*
X117898571Y-98824819D02*
X117993809Y-98824819D01*
X117993809Y-98824819D02*
X118089047Y-98872438D01*
X118089047Y-98872438D02*
X118136666Y-98920057D01*
X118136666Y-98920057D02*
X118184285Y-99015295D01*
X118184285Y-99015295D02*
X118231904Y-99205771D01*
X118231904Y-99205771D02*
X118231904Y-99443866D01*
X118231904Y-99443866D02*
X118184285Y-99634342D01*
X118184285Y-99634342D02*
X118136666Y-99729580D01*
X118136666Y-99729580D02*
X118089047Y-99777200D01*
X118089047Y-99777200D02*
X117993809Y-99824819D01*
X117993809Y-99824819D02*
X117898571Y-99824819D01*
X117898571Y-99824819D02*
X117803333Y-99777200D01*
X117803333Y-99777200D02*
X117755714Y-99729580D01*
X117755714Y-99729580D02*
X117708095Y-99634342D01*
X117708095Y-99634342D02*
X117660476Y-99443866D01*
X117660476Y-99443866D02*
X117660476Y-99205771D01*
X117660476Y-99205771D02*
X117708095Y-99015295D01*
X117708095Y-99015295D02*
X117755714Y-98920057D01*
X117755714Y-98920057D02*
X117803333Y-98872438D01*
X117803333Y-98872438D02*
X117898571Y-98824819D01*
X111984819Y-146331904D02*
X110984819Y-146331904D01*
X111461009Y-146331904D02*
X111461009Y-145760476D01*
X111984819Y-145760476D02*
X110984819Y-145760476D01*
X110984819Y-144808095D02*
X110984819Y-145284285D01*
X110984819Y-145284285D02*
X111461009Y-145331904D01*
X111461009Y-145331904D02*
X111413390Y-145284285D01*
X111413390Y-145284285D02*
X111365771Y-145189047D01*
X111365771Y-145189047D02*
X111365771Y-144950952D01*
X111365771Y-144950952D02*
X111413390Y-144855714D01*
X111413390Y-144855714D02*
X111461009Y-144808095D01*
X111461009Y-144808095D02*
X111556247Y-144760476D01*
X111556247Y-144760476D02*
X111794342Y-144760476D01*
X111794342Y-144760476D02*
X111889580Y-144808095D01*
X111889580Y-144808095D02*
X111937200Y-144855714D01*
X111937200Y-144855714D02*
X111984819Y-144950952D01*
X111984819Y-144950952D02*
X111984819Y-145189047D01*
X111984819Y-145189047D02*
X111937200Y-145284285D01*
X111937200Y-145284285D02*
X111889580Y-145331904D01*
X136484761Y-112070057D02*
X136389523Y-112022438D01*
X136389523Y-112022438D02*
X136294285Y-111927200D01*
X136294285Y-111927200D02*
X136151428Y-111784342D01*
X136151428Y-111784342D02*
X136056190Y-111736723D01*
X136056190Y-111736723D02*
X135960952Y-111736723D01*
X136008571Y-111974819D02*
X135913333Y-111927200D01*
X135913333Y-111927200D02*
X135818095Y-111831961D01*
X135818095Y-111831961D02*
X135770476Y-111641485D01*
X135770476Y-111641485D02*
X135770476Y-111308152D01*
X135770476Y-111308152D02*
X135818095Y-111117676D01*
X135818095Y-111117676D02*
X135913333Y-111022438D01*
X135913333Y-111022438D02*
X136008571Y-110974819D01*
X136008571Y-110974819D02*
X136199047Y-110974819D01*
X136199047Y-110974819D02*
X136294285Y-111022438D01*
X136294285Y-111022438D02*
X136389523Y-111117676D01*
X136389523Y-111117676D02*
X136437142Y-111308152D01*
X136437142Y-111308152D02*
X136437142Y-111641485D01*
X136437142Y-111641485D02*
X136389523Y-111831961D01*
X136389523Y-111831961D02*
X136294285Y-111927200D01*
X136294285Y-111927200D02*
X136199047Y-111974819D01*
X136199047Y-111974819D02*
X136008571Y-111974819D01*
X137341904Y-110974819D02*
X136865714Y-110974819D01*
X136865714Y-110974819D02*
X136818095Y-111451009D01*
X136818095Y-111451009D02*
X136865714Y-111403390D01*
X136865714Y-111403390D02*
X136960952Y-111355771D01*
X136960952Y-111355771D02*
X137199047Y-111355771D01*
X137199047Y-111355771D02*
X137294285Y-111403390D01*
X137294285Y-111403390D02*
X137341904Y-111451009D01*
X137341904Y-111451009D02*
X137389523Y-111546247D01*
X137389523Y-111546247D02*
X137389523Y-111784342D01*
X137389523Y-111784342D02*
X137341904Y-111879580D01*
X137341904Y-111879580D02*
X137294285Y-111927200D01*
X137294285Y-111927200D02*
X137199047Y-111974819D01*
X137199047Y-111974819D02*
X136960952Y-111974819D01*
X136960952Y-111974819D02*
X136865714Y-111927200D01*
X136865714Y-111927200D02*
X136818095Y-111879580D01*
X111956666Y-115134819D02*
X111956666Y-115849104D01*
X111956666Y-115849104D02*
X111909047Y-115991961D01*
X111909047Y-115991961D02*
X111813809Y-116087200D01*
X111813809Y-116087200D02*
X111670952Y-116134819D01*
X111670952Y-116134819D02*
X111575714Y-116134819D01*
X112337619Y-115134819D02*
X113004285Y-115134819D01*
X113004285Y-115134819D02*
X112575714Y-116134819D01*
X132484761Y-111460057D02*
X132389523Y-111412438D01*
X132389523Y-111412438D02*
X132294285Y-111317200D01*
X132294285Y-111317200D02*
X132151428Y-111174342D01*
X132151428Y-111174342D02*
X132056190Y-111126723D01*
X132056190Y-111126723D02*
X131960952Y-111126723D01*
X132008571Y-111364819D02*
X131913333Y-111317200D01*
X131913333Y-111317200D02*
X131818095Y-111221961D01*
X131818095Y-111221961D02*
X131770476Y-111031485D01*
X131770476Y-111031485D02*
X131770476Y-110698152D01*
X131770476Y-110698152D02*
X131818095Y-110507676D01*
X131818095Y-110507676D02*
X131913333Y-110412438D01*
X131913333Y-110412438D02*
X132008571Y-110364819D01*
X132008571Y-110364819D02*
X132199047Y-110364819D01*
X132199047Y-110364819D02*
X132294285Y-110412438D01*
X132294285Y-110412438D02*
X132389523Y-110507676D01*
X132389523Y-110507676D02*
X132437142Y-110698152D01*
X132437142Y-110698152D02*
X132437142Y-111031485D01*
X132437142Y-111031485D02*
X132389523Y-111221961D01*
X132389523Y-111221961D02*
X132294285Y-111317200D01*
X132294285Y-111317200D02*
X132199047Y-111364819D01*
X132199047Y-111364819D02*
X132008571Y-111364819D01*
X133389523Y-111364819D02*
X132818095Y-111364819D01*
X133103809Y-111364819D02*
X133103809Y-110364819D01*
X133103809Y-110364819D02*
X133008571Y-110507676D01*
X133008571Y-110507676D02*
X132913333Y-110602914D01*
X132913333Y-110602914D02*
X132818095Y-110650533D01*
D10*
X101728095Y-43907419D02*
X101728095Y-42907419D01*
X101728095Y-43383609D02*
X102299523Y-43383609D01*
X102299523Y-43907419D02*
X102299523Y-42907419D01*
X102728095Y-43002657D02*
X102775714Y-42955038D01*
X102775714Y-42955038D02*
X102870952Y-42907419D01*
X102870952Y-42907419D02*
X103109047Y-42907419D01*
X103109047Y-42907419D02*
X103204285Y-42955038D01*
X103204285Y-42955038D02*
X103251904Y-43002657D01*
X103251904Y-43002657D02*
X103299523Y-43097895D01*
X103299523Y-43097895D02*
X103299523Y-43193133D01*
X103299523Y-43193133D02*
X103251904Y-43335990D01*
X103251904Y-43335990D02*
X102680476Y-43907419D01*
X102680476Y-43907419D02*
X103299523Y-43907419D01*
X151552580Y-120958095D02*
X150743057Y-120958095D01*
X150743057Y-120958095D02*
X150647819Y-121005714D01*
X150647819Y-121005714D02*
X150600200Y-121053333D01*
X150600200Y-121053333D02*
X150552580Y-121148571D01*
X150552580Y-121148571D02*
X150552580Y-121339047D01*
X150552580Y-121339047D02*
X150600200Y-121434285D01*
X150600200Y-121434285D02*
X150647819Y-121481904D01*
X150647819Y-121481904D02*
X150743057Y-121529523D01*
X150743057Y-121529523D02*
X151552580Y-121529523D01*
X150552580Y-122529523D02*
X150552580Y-121958095D01*
X150552580Y-122243809D02*
X151552580Y-122243809D01*
X151552580Y-122243809D02*
X151409723Y-122148571D01*
X151409723Y-122148571D02*
X151314485Y-122053333D01*
X151314485Y-122053333D02*
X151266866Y-121958095D01*
X151748095Y-144807419D02*
X151748095Y-143807419D01*
X151748095Y-144283609D02*
X152319523Y-144283609D01*
X152319523Y-144807419D02*
X152319523Y-143807419D01*
X153224285Y-144140752D02*
X153224285Y-144807419D01*
X152986190Y-143759800D02*
X152748095Y-144474085D01*
X152748095Y-144474085D02*
X153367142Y-144474085D01*
D11*
X138154819Y-137631904D02*
X137154819Y-137631904D01*
X137631009Y-137631904D02*
X137631009Y-137060476D01*
X138154819Y-137060476D02*
X137154819Y-137060476D01*
X137583390Y-136441428D02*
X137535771Y-136536666D01*
X137535771Y-136536666D02*
X137488152Y-136584285D01*
X137488152Y-136584285D02*
X137392914Y-136631904D01*
X137392914Y-136631904D02*
X137345295Y-136631904D01*
X137345295Y-136631904D02*
X137250057Y-136584285D01*
X137250057Y-136584285D02*
X137202438Y-136536666D01*
X137202438Y-136536666D02*
X137154819Y-136441428D01*
X137154819Y-136441428D02*
X137154819Y-136250952D01*
X137154819Y-136250952D02*
X137202438Y-136155714D01*
X137202438Y-136155714D02*
X137250057Y-136108095D01*
X137250057Y-136108095D02*
X137345295Y-136060476D01*
X137345295Y-136060476D02*
X137392914Y-136060476D01*
X137392914Y-136060476D02*
X137488152Y-136108095D01*
X137488152Y-136108095D02*
X137535771Y-136155714D01*
X137535771Y-136155714D02*
X137583390Y-136250952D01*
X137583390Y-136250952D02*
X137583390Y-136441428D01*
X137583390Y-136441428D02*
X137631009Y-136536666D01*
X137631009Y-136536666D02*
X137678628Y-136584285D01*
X137678628Y-136584285D02*
X137773866Y-136631904D01*
X137773866Y-136631904D02*
X137964342Y-136631904D01*
X137964342Y-136631904D02*
X138059580Y-136584285D01*
X138059580Y-136584285D02*
X138107200Y-136536666D01*
X138107200Y-136536666D02*
X138154819Y-136441428D01*
X138154819Y-136441428D02*
X138154819Y-136250952D01*
X138154819Y-136250952D02*
X138107200Y-136155714D01*
X138107200Y-136155714D02*
X138059580Y-136108095D01*
X138059580Y-136108095D02*
X137964342Y-136060476D01*
X137964342Y-136060476D02*
X137773866Y-136060476D01*
X137773866Y-136060476D02*
X137678628Y-136108095D01*
X137678628Y-136108095D02*
X137631009Y-136155714D01*
X137631009Y-136155714D02*
X137583390Y-136250952D01*
X143433333Y-100964819D02*
X143100000Y-100488628D01*
X142861905Y-100964819D02*
X142861905Y-99964819D01*
X142861905Y-99964819D02*
X143242857Y-99964819D01*
X143242857Y-99964819D02*
X143338095Y-100012438D01*
X143338095Y-100012438D02*
X143385714Y-100060057D01*
X143385714Y-100060057D02*
X143433333Y-100155295D01*
X143433333Y-100155295D02*
X143433333Y-100298152D01*
X143433333Y-100298152D02*
X143385714Y-100393390D01*
X143385714Y-100393390D02*
X143338095Y-100441009D01*
X143338095Y-100441009D02*
X143242857Y-100488628D01*
X143242857Y-100488628D02*
X142861905Y-100488628D01*
X144290476Y-100298152D02*
X144290476Y-100964819D01*
X144052381Y-99917200D02*
X143814286Y-100631485D01*
X143814286Y-100631485D02*
X144433333Y-100631485D01*
D10*
X151868095Y-44117419D02*
X151868095Y-43117419D01*
X151868095Y-43593609D02*
X152439523Y-43593609D01*
X152439523Y-44117419D02*
X152439523Y-43117419D01*
X152820476Y-43117419D02*
X153439523Y-43117419D01*
X153439523Y-43117419D02*
X153106190Y-43498371D01*
X153106190Y-43498371D02*
X153249047Y-43498371D01*
X153249047Y-43498371D02*
X153344285Y-43545990D01*
X153344285Y-43545990D02*
X153391904Y-43593609D01*
X153391904Y-43593609D02*
X153439523Y-43688847D01*
X153439523Y-43688847D02*
X153439523Y-43926942D01*
X153439523Y-43926942D02*
X153391904Y-44022180D01*
X153391904Y-44022180D02*
X153344285Y-44069800D01*
X153344285Y-44069800D02*
X153249047Y-44117419D01*
X153249047Y-44117419D02*
X152963333Y-44117419D01*
X152963333Y-44117419D02*
X152868095Y-44069800D01*
X152868095Y-44069800D02*
X152820476Y-44022180D01*
D11*
X100314819Y-100415238D02*
X99838628Y-100748571D01*
X100314819Y-100986666D02*
X99314819Y-100986666D01*
X99314819Y-100986666D02*
X99314819Y-100605714D01*
X99314819Y-100605714D02*
X99362438Y-100510476D01*
X99362438Y-100510476D02*
X99410057Y-100462857D01*
X99410057Y-100462857D02*
X99505295Y-100415238D01*
X99505295Y-100415238D02*
X99648152Y-100415238D01*
X99648152Y-100415238D02*
X99743390Y-100462857D01*
X99743390Y-100462857D02*
X99791009Y-100510476D01*
X99791009Y-100510476D02*
X99838628Y-100605714D01*
X99838628Y-100605714D02*
X99838628Y-100986666D01*
X99314819Y-100129523D02*
X100314819Y-99796190D01*
X100314819Y-99796190D02*
X99314819Y-99462857D01*
X100314819Y-98605714D02*
X100314819Y-99177142D01*
X100314819Y-98891428D02*
X99314819Y-98891428D01*
X99314819Y-98891428D02*
X99457676Y-98986666D01*
X99457676Y-98986666D02*
X99552914Y-99081904D01*
X99552914Y-99081904D02*
X99600533Y-99177142D01*
D15*
X106250000Y-101637936D02*
X106250000Y-102092064D01*
X107720000Y-101637936D02*
X107720000Y-102092064D01*
X149740000Y-91210000D02*
X149740000Y-97330000D01*
X149740000Y-93770000D02*
X154100000Y-93770000D01*
X149740000Y-97330000D02*
X157560000Y-97330000D01*
X152000000Y-92470000D02*
X149740000Y-92470000D01*
X152000000Y-92970000D02*
X149740000Y-92970000D01*
X154100000Y-93770000D02*
X154100000Y-94770000D01*
X154100000Y-94770000D02*
X149740000Y-94770000D01*
X155960000Y-91210000D02*
X155960000Y-92130000D01*
X155960000Y-92130000D02*
X157560000Y-92130000D01*
X155960000Y-92410000D02*
X155960000Y-92130000D01*
X155960000Y-92410000D02*
X157175000Y-92410000D01*
X155960000Y-96410000D02*
X155960000Y-96130000D01*
X155960000Y-97330000D02*
X155960000Y-96410000D01*
X157560000Y-91210000D02*
X149740000Y-91210000D01*
X157560000Y-92130000D02*
X157560000Y-91210000D01*
X157560000Y-96410000D02*
X155960000Y-96410000D01*
X157560000Y-97330000D02*
X157560000Y-96410000D01*
X152000000Y-91970000D02*
X153600000Y-91970000D01*
X153600000Y-92970000D01*
X152000000Y-92970000D01*
X152000000Y-91970000D01*
X152000000Y-95570000D02*
X153600000Y-95570000D01*
X153600000Y-96570000D01*
X152000000Y-96570000D01*
X152000000Y-95570000D01*
X111840000Y-54490000D02*
X111840000Y-53110000D01*
X113220000Y-54490000D02*
X111840000Y-54490000D01*
X114490000Y-51730000D02*
X142540000Y-51730000D01*
X114490000Y-54490000D02*
X114490000Y-51730000D01*
X114490000Y-54490000D02*
X142540000Y-54490000D01*
X142540000Y-54490000D02*
X142540000Y-51730000D01*
X134955000Y-103347064D02*
X134955000Y-102892936D01*
X136425000Y-103347064D02*
X136425000Y-102892936D01*
X100652936Y-92535000D02*
X101107064Y-92535000D01*
X100652936Y-94005000D02*
X101107064Y-94005000D01*
X112565000Y-101595436D02*
X112565000Y-102049564D01*
X114035000Y-101595436D02*
X114035000Y-102049564D01*
X121750000Y-113640000D02*
X121750000Y-114890000D01*
X121750000Y-114890000D02*
X123000000Y-114890000D01*
X121850000Y-112830000D02*
X121850000Y-113130000D01*
X121850000Y-113130000D02*
X122050000Y-113130000D01*
X121950000Y-112830000D02*
X121950000Y-113130000D01*
X122050000Y-112030000D02*
X122660000Y-112030000D01*
X122050000Y-112830000D02*
X121850000Y-112830000D01*
X122660000Y-105080000D02*
X122660000Y-107030000D01*
X122660000Y-107030000D02*
X122050000Y-107030000D01*
X122660000Y-112030000D02*
X122660000Y-113980000D01*
X122660000Y-113980000D02*
X126160000Y-113980000D01*
X123360000Y-104470000D02*
X123360000Y-105080000D01*
X123360000Y-114590000D02*
X123360000Y-113980000D01*
X124660000Y-104470000D02*
X124660000Y-105080000D01*
X124660000Y-114590000D02*
X124660000Y-113980000D01*
X125660000Y-107430000D02*
X126160000Y-107430000D01*
X125660000Y-107630000D02*
X125660000Y-107430000D01*
X125660000Y-109430000D02*
X126160000Y-109430000D01*
X125660000Y-109630000D02*
X125660000Y-109430000D01*
X125660000Y-111430000D02*
X126160000Y-111430000D01*
X125660000Y-111630000D02*
X125660000Y-111430000D01*
X126160000Y-105080000D02*
X122660000Y-105080000D01*
X126160000Y-107530000D02*
X125660000Y-107530000D01*
X126160000Y-107630000D02*
X125660000Y-107630000D01*
X126160000Y-109530000D02*
X125660000Y-109530000D01*
X126160000Y-109630000D02*
X125660000Y-109630000D01*
X126160000Y-111530000D02*
X125660000Y-111530000D01*
X126160000Y-111630000D02*
X125660000Y-111630000D01*
X126160000Y-113980000D02*
X126160000Y-105080000D01*
X122050000Y-104470000D02*
X126770000Y-104470000D01*
X126770000Y-114590000D01*
X122050000Y-114590000D01*
X122050000Y-104470000D01*
D16*
G36*
X147130060Y-54521109D02*
G01*
X147195209Y-54582798D01*
X147291055Y-54706495D01*
X147407574Y-54875639D01*
X147534743Y-55073668D01*
X147662537Y-55284020D01*
X147780931Y-55490135D01*
X147879903Y-55675449D01*
X147949427Y-55823403D01*
X147979480Y-55917434D01*
X147979967Y-55925300D01*
X147938066Y-56066353D01*
X147862964Y-56145986D01*
X147756063Y-56216591D01*
X147664514Y-56229117D01*
X147551571Y-56193917D01*
X147488466Y-56134688D01*
X147392058Y-55995377D01*
X147263468Y-55777772D01*
X147103814Y-55483660D01*
X147089428Y-55456296D01*
X146958230Y-55204756D01*
X146864308Y-55018997D01*
X146802966Y-54886535D01*
X146769508Y-54794883D01*
X146759235Y-54731557D01*
X146767452Y-54684072D01*
X146785131Y-54647424D01*
X146888973Y-54533205D01*
X147017470Y-54492435D01*
X147130060Y-54521109D01*
G37*
G36*
X147188624Y-51169433D02*
G01*
X147405769Y-51221958D01*
X147593330Y-51322851D01*
X147778969Y-51483278D01*
X147811254Y-51516163D01*
X148008083Y-51770624D01*
X148127361Y-52051879D01*
X148175012Y-52375294D01*
X148176433Y-52463544D01*
X148143138Y-52777265D01*
X148042245Y-53057274D01*
X147865996Y-53320604D01*
X147709570Y-53488734D01*
X147542044Y-53628832D01*
X147339590Y-53763718D01*
X147125489Y-53881087D01*
X146923024Y-53968637D01*
X146755477Y-54014066D01*
X146708441Y-54017740D01*
X146548758Y-53980934D01*
X146433778Y-53882234D01*
X146382416Y-53739221D01*
X146381365Y-53713783D01*
X146402333Y-53602630D01*
X146473924Y-53511227D01*
X146609172Y-53427965D01*
X146784539Y-53354690D01*
X147048175Y-53223612D01*
X147271776Y-53048794D01*
X147442822Y-52844641D01*
X147548795Y-52625558D01*
X147578366Y-52441342D01*
X147545432Y-52254127D01*
X147459278Y-52062963D01*
X147338879Y-51903776D01*
X147260958Y-51840335D01*
X147141685Y-51782869D01*
X147005929Y-51761128D01*
X146862316Y-51764281D01*
X146589681Y-51822951D01*
X146355769Y-51961540D01*
X146160623Y-52180023D01*
X146159337Y-52181918D01*
X146112920Y-52256273D01*
X146081602Y-52329899D01*
X146062435Y-52421968D01*
X146052474Y-52551656D01*
X146048771Y-52738135D01*
X146048323Y-52904229D01*
X146049449Y-53127778D01*
X146052580Y-53415078D01*
X146057350Y-53741102D01*
X146063391Y-54080823D01*
X146070336Y-54409211D01*
X146070526Y-54417390D01*
X146092729Y-55372111D01*
X145968209Y-55638544D01*
X145783941Y-55949551D01*
X145556511Y-56183395D01*
X145282858Y-56342155D01*
X144959924Y-56427908D01*
X144782764Y-56443906D01*
X144603595Y-56445889D01*
X144446159Y-56438169D01*
X144342823Y-56422408D01*
X144338708Y-56421131D01*
X144012656Y-56273540D01*
X143754346Y-56069549D01*
X143566449Y-55813199D01*
X143451638Y-55508534D01*
X143412584Y-55159595D01*
X143417348Y-55027182D01*
X143485215Y-54665391D01*
X143630107Y-54341006D01*
X143845016Y-54062703D01*
X144122932Y-53839154D01*
X144456848Y-53679035D01*
X144524583Y-53656942D01*
X144693627Y-53608391D01*
X144803831Y-53587093D01*
X144880241Y-53591131D01*
X144947898Y-53618586D01*
X144957385Y-53623791D01*
X145050532Y-53716951D01*
X145088092Y-53841064D01*
X145065011Y-53962891D01*
X145018048Y-54022683D01*
X144932902Y-54071736D01*
X144795990Y-54128762D01*
X144679608Y-54168024D01*
X144444292Y-54267936D01*
X144252774Y-54419781D01*
X144246202Y-54426502D01*
X144086381Y-54641958D01*
X143989057Y-54883134D01*
X143955069Y-55132032D01*
X143985255Y-55370652D01*
X144080453Y-55580995D01*
X144186785Y-55702266D01*
X144330531Y-55809095D01*
X144475762Y-55865899D01*
X144653994Y-55881500D01*
X144799985Y-55873932D01*
X145054777Y-55815464D01*
X145255055Y-55687332D01*
X145399444Y-55490487D01*
X145453428Y-55368999D01*
X145490386Y-55243969D01*
X145511705Y-55098688D01*
X145518769Y-54916451D01*
X145512966Y-54680551D01*
X145495681Y-54374280D01*
X145494077Y-54349778D01*
X145476455Y-54041767D01*
X145460402Y-53687614D01*
X145447635Y-53329986D01*
X145439872Y-53011553D01*
X145439630Y-52996411D01*
X145436290Y-52732219D01*
X145437066Y-52538683D01*
X145443990Y-52397674D01*
X145459098Y-52291061D01*
X145484422Y-52200715D01*
X145521996Y-52108504D01*
X145544838Y-52058565D01*
X145733323Y-51742773D01*
X145980865Y-51488208D01*
X146258435Y-51304518D01*
X146406163Y-51228824D01*
X146526708Y-51183748D01*
X146653865Y-51161538D01*
X146821426Y-51154445D01*
X146914232Y-51154112D01*
X147188624Y-51169433D01*
G37*
D15*
X110120000Y-102042064D02*
X110120000Y-101587936D01*
X111590000Y-102042064D02*
X111590000Y-101587936D01*
X96745000Y-94377064D02*
X96745000Y-93922936D01*
X98215000Y-94377064D02*
X98215000Y-93922936D01*
X128445000Y-108457064D02*
X128445000Y-108002936D01*
X129915000Y-108457064D02*
X129915000Y-108002936D01*
X118910000Y-101922064D02*
X118910000Y-101467936D01*
X120380000Y-101922064D02*
X120380000Y-101467936D01*
X103850000Y-101627936D02*
X103850000Y-102082064D01*
X105320000Y-101627936D02*
X105320000Y-102082064D01*
X138382936Y-98145000D02*
X138837064Y-98145000D01*
X138382936Y-99615000D02*
X138837064Y-99615000D01*
X128745000Y-103521252D02*
X128745000Y-102998748D01*
X130215000Y-103521252D02*
X130215000Y-102998748D01*
X124910000Y-101882064D02*
X124910000Y-101427936D01*
X126380000Y-101882064D02*
X126380000Y-101427936D01*
X97265000Y-119908748D02*
X97265000Y-120431252D01*
X98735000Y-119908748D02*
X98735000Y-120431252D01*
X96935000Y-113495000D02*
X96935000Y-114745000D01*
X96935000Y-114745000D02*
X98185000Y-114745000D01*
X97035000Y-112685000D02*
X97035000Y-112985000D01*
X97035000Y-112985000D02*
X97235000Y-112985000D01*
X97135000Y-112685000D02*
X97135000Y-112985000D01*
X97235000Y-111885000D02*
X97845000Y-111885000D01*
X97235000Y-112685000D02*
X97035000Y-112685000D01*
X97845000Y-104935000D02*
X97845000Y-106885000D01*
X97845000Y-106885000D02*
X97235000Y-106885000D01*
X97845000Y-111885000D02*
X97845000Y-113835000D01*
X97845000Y-113835000D02*
X101345000Y-113835000D01*
X98545000Y-104325000D02*
X98545000Y-104935000D01*
X98545000Y-114445000D02*
X98545000Y-113835000D01*
X99845000Y-104325000D02*
X99845000Y-104935000D01*
X99845000Y-114445000D02*
X99845000Y-113835000D01*
X100845000Y-107285000D02*
X101345000Y-107285000D01*
X100845000Y-107485000D02*
X100845000Y-107285000D01*
X100845000Y-109285000D02*
X101345000Y-109285000D01*
X100845000Y-109485000D02*
X100845000Y-109285000D01*
X100845000Y-111285000D02*
X101345000Y-111285000D01*
X100845000Y-111485000D02*
X100845000Y-111285000D01*
X101345000Y-104935000D02*
X97845000Y-104935000D01*
X101345000Y-107385000D02*
X100845000Y-107385000D01*
X101345000Y-107485000D02*
X100845000Y-107485000D01*
X101345000Y-109385000D02*
X100845000Y-109385000D01*
X101345000Y-109485000D02*
X100845000Y-109485000D01*
X101345000Y-111385000D02*
X100845000Y-111385000D01*
X101345000Y-111485000D02*
X100845000Y-111485000D01*
X101345000Y-113835000D02*
X101345000Y-104935000D01*
X97235000Y-104325000D02*
X101955000Y-104325000D01*
X101955000Y-114445000D01*
X97235000Y-114445000D01*
X97235000Y-104325000D01*
D17*
X149057700Y-98895900D02*
X149057700Y-99925945D01*
X157922300Y-98895900D02*
X149057700Y-98895900D01*
X157922300Y-99925945D02*
X157922300Y-98895900D01*
X147660700Y-101220000D02*
G75*
G02*
X146898700Y-101220000I-381000J0D01*
G01*
X146898700Y-101220000D02*
G75*
G02*
X147660700Y-101220000I381000J0D01*
G01*
D15*
X143568748Y-94515000D02*
X144091252Y-94515000D01*
X143568748Y-95985000D02*
X144091252Y-95985000D01*
X103075000Y-113505000D02*
X103075000Y-114755000D01*
X103075000Y-114755000D02*
X104325000Y-114755000D01*
X103175000Y-112695000D02*
X103175000Y-112995000D01*
X103175000Y-112995000D02*
X103375000Y-112995000D01*
X103275000Y-112695000D02*
X103275000Y-112995000D01*
X103375000Y-111895000D02*
X103985000Y-111895000D01*
X103375000Y-112695000D02*
X103175000Y-112695000D01*
X103985000Y-104945000D02*
X103985000Y-106895000D01*
X103985000Y-106895000D02*
X103375000Y-106895000D01*
X103985000Y-111895000D02*
X103985000Y-113845000D01*
X103985000Y-113845000D02*
X107485000Y-113845000D01*
X104685000Y-104335000D02*
X104685000Y-104945000D01*
X104685000Y-114455000D02*
X104685000Y-113845000D01*
X105985000Y-104335000D02*
X105985000Y-104945000D01*
X105985000Y-114455000D02*
X105985000Y-113845000D01*
X106985000Y-107295000D02*
X107485000Y-107295000D01*
X106985000Y-107495000D02*
X106985000Y-107295000D01*
X106985000Y-109295000D02*
X107485000Y-109295000D01*
X106985000Y-109495000D02*
X106985000Y-109295000D01*
X106985000Y-111295000D02*
X107485000Y-111295000D01*
X106985000Y-111495000D02*
X106985000Y-111295000D01*
X107485000Y-104945000D02*
X103985000Y-104945000D01*
X107485000Y-107395000D02*
X106985000Y-107395000D01*
X107485000Y-107495000D02*
X106985000Y-107495000D01*
X107485000Y-109395000D02*
X106985000Y-109395000D01*
X107485000Y-109495000D02*
X106985000Y-109495000D01*
X107485000Y-111395000D02*
X106985000Y-111395000D01*
X107485000Y-111495000D02*
X106985000Y-111495000D01*
X107485000Y-113845000D02*
X107485000Y-104945000D01*
X103375000Y-104335000D02*
X108095000Y-104335000D01*
X108095000Y-114455000D01*
X103375000Y-114455000D01*
X103375000Y-104335000D01*
X108680000Y-47690000D02*
X108680000Y-50450000D01*
X136730000Y-47690000D02*
X108680000Y-47690000D01*
X136730000Y-47690000D02*
X136730000Y-50450000D01*
X136730000Y-50450000D02*
X108680000Y-50450000D01*
X138000000Y-47690000D02*
X139380000Y-47690000D01*
X139380000Y-47690000D02*
X139380000Y-49070000D01*
D10*
X99730000Y-116700000D02*
X136930000Y-116700000D01*
X136930000Y-133900000D01*
X99730000Y-133900000D01*
X99730000Y-116700000D01*
D15*
X115745000Y-113615000D02*
X115745000Y-114865000D01*
X115745000Y-114865000D02*
X116995000Y-114865000D01*
X115845000Y-112805000D02*
X115845000Y-113105000D01*
X115845000Y-113105000D02*
X116045000Y-113105000D01*
X115945000Y-112805000D02*
X115945000Y-113105000D01*
X116045000Y-112005000D02*
X116655000Y-112005000D01*
X116045000Y-112805000D02*
X115845000Y-112805000D01*
X116655000Y-105055000D02*
X116655000Y-107005000D01*
X116655000Y-107005000D02*
X116045000Y-107005000D01*
X116655000Y-112005000D02*
X116655000Y-113955000D01*
X116655000Y-113955000D02*
X120155000Y-113955000D01*
X117355000Y-104445000D02*
X117355000Y-105055000D01*
X117355000Y-114565000D02*
X117355000Y-113955000D01*
X118655000Y-104445000D02*
X118655000Y-105055000D01*
X118655000Y-114565000D02*
X118655000Y-113955000D01*
X119655000Y-107405000D02*
X120155000Y-107405000D01*
X119655000Y-107605000D02*
X119655000Y-107405000D01*
X119655000Y-109405000D02*
X120155000Y-109405000D01*
X119655000Y-109605000D02*
X119655000Y-109405000D01*
X119655000Y-111405000D02*
X120155000Y-111405000D01*
X119655000Y-111605000D02*
X119655000Y-111405000D01*
X120155000Y-105055000D02*
X116655000Y-105055000D01*
X120155000Y-107505000D02*
X119655000Y-107505000D01*
X120155000Y-107605000D02*
X119655000Y-107605000D01*
X120155000Y-109505000D02*
X119655000Y-109505000D01*
X120155000Y-109605000D02*
X119655000Y-109605000D01*
X120155000Y-111505000D02*
X119655000Y-111505000D01*
X120155000Y-111605000D02*
X119655000Y-111605000D01*
X120155000Y-113955000D02*
X120155000Y-105055000D01*
X116045000Y-104445000D02*
X120765000Y-104445000D01*
X120765000Y-114565000D01*
X116045000Y-114565000D01*
X116045000Y-104445000D01*
X122250000Y-101417936D02*
X122250000Y-101872064D01*
X123720000Y-101417936D02*
X123720000Y-101872064D01*
X140230000Y-103860000D02*
X140840000Y-103860000D01*
X140230000Y-105160000D02*
X140840000Y-105160000D01*
X140840000Y-102360000D02*
X140840000Y-105860000D01*
X140840000Y-105860000D02*
X142790000Y-105860000D01*
X142790000Y-105860000D02*
X142790000Y-106470000D01*
X143190000Y-102860000D02*
X143190000Y-102360000D01*
X143290000Y-102360000D02*
X143290000Y-102860000D01*
X143390000Y-102360000D02*
X143390000Y-102860000D01*
X143390000Y-102860000D02*
X143190000Y-102860000D01*
X143790000Y-105860000D02*
X145740000Y-105860000D01*
X143790000Y-106470000D02*
X143790000Y-105860000D01*
X144590000Y-106470000D02*
X144590000Y-106670000D01*
X144590000Y-106570000D02*
X144890000Y-106570000D01*
X144590000Y-106670000D02*
X144890000Y-106670000D01*
X144890000Y-106670000D02*
X144890000Y-106470000D01*
X145400000Y-106770000D02*
X146650000Y-106770000D01*
X145740000Y-102360000D02*
X140840000Y-102360000D01*
X145740000Y-105860000D02*
X145740000Y-102360000D01*
X146350000Y-103860000D02*
X145740000Y-103860000D01*
X146350000Y-105160000D02*
X145740000Y-105160000D01*
X146650000Y-106770000D02*
X146650000Y-105520000D01*
X140230000Y-101750000D02*
X146350000Y-101750000D01*
X146350000Y-106470000D01*
X140230000Y-106470000D01*
X140230000Y-101750000D01*
X116230000Y-101427936D02*
X116230000Y-101882064D01*
X117700000Y-101427936D02*
X117700000Y-101882064D01*
X135820000Y-107560000D02*
X137340000Y-107560000D01*
X135820000Y-108560000D02*
X135820000Y-107560000D01*
X135820000Y-110680000D02*
X135820000Y-109680000D01*
X137340000Y-107560000D02*
X137340000Y-107610000D01*
X137340000Y-108730000D02*
X137340000Y-109510000D01*
X137340000Y-110630000D02*
X137340000Y-110680000D01*
X137340000Y-110680000D02*
X135820000Y-110680000D01*
X137880000Y-109500000D02*
X137640000Y-109170000D01*
X138120000Y-109170000D01*
X137880000Y-109500000D01*
G36*
X137880000Y-109500000D02*
G01*
X137640000Y-109170000D01*
X138120000Y-109170000D01*
X137880000Y-109500000D01*
G37*
X109465000Y-113615000D02*
X109465000Y-114865000D01*
X109465000Y-114865000D02*
X110715000Y-114865000D01*
X109565000Y-112805000D02*
X109565000Y-113105000D01*
X109565000Y-113105000D02*
X109765000Y-113105000D01*
X109665000Y-112805000D02*
X109665000Y-113105000D01*
X109765000Y-112005000D02*
X110375000Y-112005000D01*
X109765000Y-112805000D02*
X109565000Y-112805000D01*
X110375000Y-105055000D02*
X110375000Y-107005000D01*
X110375000Y-107005000D02*
X109765000Y-107005000D01*
X110375000Y-112005000D02*
X110375000Y-113955000D01*
X110375000Y-113955000D02*
X113875000Y-113955000D01*
X111075000Y-104445000D02*
X111075000Y-105055000D01*
X111075000Y-114565000D02*
X111075000Y-113955000D01*
X112375000Y-104445000D02*
X112375000Y-105055000D01*
X112375000Y-114565000D02*
X112375000Y-113955000D01*
X113375000Y-107405000D02*
X113875000Y-107405000D01*
X113375000Y-107605000D02*
X113375000Y-107405000D01*
X113375000Y-109405000D02*
X113875000Y-109405000D01*
X113375000Y-109605000D02*
X113375000Y-109405000D01*
X113375000Y-111405000D02*
X113875000Y-111405000D01*
X113375000Y-111605000D02*
X113375000Y-111405000D01*
X113875000Y-105055000D02*
X110375000Y-105055000D01*
X113875000Y-107505000D02*
X113375000Y-107505000D01*
X113875000Y-107605000D02*
X113375000Y-107605000D01*
X113875000Y-109505000D02*
X113375000Y-109505000D01*
X113875000Y-109605000D02*
X113375000Y-109605000D01*
X113875000Y-111505000D02*
X113375000Y-111505000D01*
X113875000Y-111605000D02*
X113375000Y-111605000D01*
X113875000Y-113955000D02*
X113875000Y-105055000D01*
X109765000Y-104445000D02*
X114485000Y-104445000D01*
X114485000Y-114565000D01*
X109765000Y-114565000D01*
X109765000Y-104445000D01*
X131020000Y-107420000D02*
X132020000Y-107420000D01*
X131020000Y-108940000D02*
X131020000Y-107420000D01*
X131070000Y-108940000D02*
X131020000Y-108940000D01*
X132970000Y-108940000D02*
X132190000Y-108940000D01*
X133140000Y-107420000D02*
X134140000Y-107420000D01*
X134140000Y-107420000D02*
X134140000Y-108940000D01*
X134140000Y-108940000D02*
X134090000Y-108940000D01*
X132530000Y-109720000D02*
X132200000Y-109480000D01*
X132530000Y-109240000D01*
X132530000Y-109720000D01*
G36*
X132530000Y-109720000D02*
G01*
X132200000Y-109480000D01*
X132530000Y-109240000D01*
X132530000Y-109720000D01*
G37*
D10*
X142660756Y-110170252D02*
X158060756Y-110170252D01*
X158060756Y-133170252D01*
X142660756Y-133170252D01*
X142660756Y-110170252D01*
D15*
X143827064Y-98125000D02*
X143372936Y-98125000D01*
X143827064Y-99595000D02*
X143372936Y-99595000D01*
X96900000Y-96355000D02*
X100273000Y-96355000D01*
X96900000Y-103285000D02*
X96900000Y-96355000D01*
X100273000Y-103285000D02*
X96900000Y-103285000D01*
X100707000Y-96355000D02*
X101620000Y-96355000D01*
X101620000Y-96355000D02*
X101620000Y-103285000D01*
X101620000Y-103285000D02*
X100707000Y-103285000D01*
%LPC*%
D18*
X106985000Y-100952500D03*
X106985000Y-102777500D03*
D19*
X156100000Y-93270000D03*
D20*
X156100000Y-95270000D03*
D21*
X113220000Y-53110000D03*
D22*
X115760000Y-53110000D03*
X118300000Y-53110000D03*
X120840000Y-53110000D03*
X123380000Y-53110000D03*
X125920000Y-53110000D03*
X128460000Y-53110000D03*
X131000000Y-53110000D03*
X133540000Y-53110000D03*
X136080000Y-53110000D03*
X138620000Y-53110000D03*
X141160000Y-53110000D03*
D23*
X109320000Y-57230000D03*
X105320000Y-57230000D03*
X130680000Y-89990000D03*
X107320000Y-57230000D03*
X99610000Y-89910000D03*
X103610000Y-89910000D03*
X115610000Y-89910000D03*
X119610000Y-89910000D03*
X113610000Y-89910000D03*
X117610000Y-89910000D03*
X101610000Y-89910000D03*
X105610000Y-89910000D03*
X107610000Y-89910000D03*
X111610000Y-89910000D03*
X121610000Y-89910000D03*
X109610000Y-89910000D03*
X129750000Y-57260000D03*
X127750000Y-57260000D03*
X128680000Y-89990000D03*
X126680000Y-89990000D03*
X134680000Y-89990000D03*
X132680000Y-89990000D03*
X103320000Y-57230000D03*
X124680000Y-89990000D03*
D24*
X135690000Y-104032500D03*
X135690000Y-102207500D03*
D25*
X99967500Y-93270000D03*
X101792500Y-93270000D03*
D18*
X113300000Y-100910000D03*
X113300000Y-102735000D03*
D26*
X123860000Y-112530000D03*
D20*
X123860000Y-110530000D03*
X123860000Y-108530000D03*
X123860000Y-106530000D03*
D24*
X110855000Y-102727500D03*
X110855000Y-100902500D03*
D27*
X114680000Y-136880000D03*
D24*
X97480000Y-95062500D03*
X97480000Y-93237500D03*
X129180000Y-109142500D03*
X129180000Y-107317500D03*
X119645000Y-102607500D03*
X119645000Y-100782500D03*
D18*
X104585000Y-100942500D03*
X104585000Y-102767500D03*
D25*
X137697500Y-98880000D03*
X139522500Y-98880000D03*
D28*
X129480000Y-104297500D03*
X129480000Y-102222500D03*
D24*
X125645000Y-102567500D03*
X125645000Y-100742500D03*
D29*
X98000000Y-119132500D03*
X98000000Y-121207500D03*
D27*
X140850000Y-145570000D03*
D26*
X99045000Y-112385000D03*
D20*
X99045000Y-110385000D03*
X99045000Y-108385000D03*
X99045000Y-106385000D03*
D30*
X151490000Y-101220000D03*
X153490000Y-101220000D03*
X155490001Y-101220000D03*
D31*
X149390001Y-101220000D03*
X157589999Y-101220000D03*
D32*
X142792500Y-95250000D03*
X144867500Y-95250000D03*
D26*
X105185000Y-112395000D03*
D20*
X105185000Y-110395000D03*
X105185000Y-108395000D03*
X105185000Y-106395000D03*
D21*
X138000000Y-49070000D03*
D22*
X135460000Y-49070000D03*
X132920000Y-49070000D03*
X130380000Y-49070000D03*
X127840000Y-49070000D03*
X125300000Y-49070000D03*
X122760000Y-49070000D03*
X120220000Y-49070000D03*
X117680000Y-49070000D03*
X115140000Y-49070000D03*
X112600000Y-49070000D03*
X110060000Y-49070000D03*
D33*
X102373647Y-121343682D03*
X102373647Y-129209580D03*
X134298647Y-121334580D03*
X134298647Y-129209580D03*
D26*
X117855000Y-112505000D03*
D20*
X117855000Y-110505000D03*
X117855000Y-108505000D03*
X117855000Y-106505000D03*
D18*
X122985000Y-100732500D03*
X122985000Y-102557500D03*
D34*
X144290000Y-104660000D03*
D35*
X142290000Y-104660000D03*
D18*
X116965000Y-100742500D03*
X116965000Y-102567500D03*
D27*
X114680000Y-145570000D03*
D36*
X137517500Y-110070000D03*
X137517500Y-108170000D03*
X135642500Y-109120000D03*
D26*
X111575000Y-112505000D03*
D20*
X111575000Y-110505000D03*
X111575000Y-108505000D03*
X111575000Y-106505000D03*
D37*
X131630000Y-109117500D03*
X133530000Y-109117500D03*
X132580000Y-107242500D03*
D38*
X157070000Y-111370000D03*
X154430000Y-111380000D03*
X151750000Y-111390000D03*
X149070000Y-111390000D03*
X146370000Y-111390000D03*
X143700000Y-111390000D03*
D27*
X140850000Y-136870000D03*
D39*
X144512500Y-98860000D03*
X142687500Y-98860000D03*
D40*
X100490000Y-102360000D03*
X97950000Y-99820000D03*
X100490000Y-97280000D03*
%LPD*%
M02*
