M48
; DRILL file KiCad 10.0.1 date 2026-06-20T20:25:09
; FORMAT={-:-/ absolute / metric / decimal}
; #@! TF.CreationDate,2026-06-20T20:25:09+02:00
; #@! TF.GenerationSoftware,Kicad,Pcbnew,10.0.1
; #@! TF.FileFunction,Plated,1,2,PTH
FMAT,2
METRIC
; #@! TA.AperFunction,Plated,PTH,ViaDrill
T1C0.300
; #@! TA.AperFunction,Plated,PTH,ViaDrill
T2C0.381
; #@! TA.AperFunction,Plated,PTH,ComponentDrill
T3C0.750
; #@! TA.AperFunction,Plated,PTH,ComponentDrill
T4C0.800
; #@! TA.AperFunction,Plated,PTH,ComponentDrill
T5C0.813
; #@! TA.AperFunction,Plated,PTH,ComponentDrill
T6C1.000
; #@! TA.AperFunction,Plated,PTH,ComponentDrill
T7C1.250
; #@! TA.AperFunction,Plated,PTH,ComponentDrill
T8C1.499
; #@! TA.AperFunction,Plated,PTH,ComponentDrill
T9C2.250
%
G90
G05
T1
X102.41Y-111.82
X104.81Y-61.31
X105.84Y-98.22
X109.34Y-86.55
X112.46Y-98.46
X116.18Y-98.46
X116.3Y-95.23
X119.1Y-94.14
X119.64Y-93.31
X121.34Y-96.07
X122.62Y-98.46
X132.55Y-96.64
X134.83Y-94.74
X138.33Y-94.02
X139.59Y-63.2
X141.01Y-96.33
X142.75Y-106.53
X148.37Y-97.3
X156.22Y-108.54
T2
X101.792Y-94.71
X101.792Y-97.31
X103.89Y-65.37
X104.72Y-66.07
X105.46Y-66.89
X106.11Y-67.71
X108.33Y-69.52
X108.93Y-98.14
X109.37Y-96.85
X110.59Y-64.89
X111.12Y-65.51
X111.81Y-66.44
X112.54Y-67.21
X113.43Y-68.77
X118.38Y-74.21
X120.49Y-75.59
X122.29Y-77.22
X125.155Y-66.395
X126.02Y-57.65
X127.06Y-67.34
X129.17Y-68.31
X130.09Y-55.14
X131.64Y-112.52
X133.24Y-69.18
X135.16Y-70.29
X135.61Y-72.93
X135.65Y-112.52
X136.29Y-73.89
X136.93Y-75.03
X137.67Y-100.54
X141.78Y-101.92
X142.77Y-65.51
X143.4Y-66.3
X143.86Y-67.21
X144.39Y-68.07
X144.895Y-68.985
X146.25Y-107.57
X153.5Y-108.17
T3
X99.045Y-106.385
X99.045Y-108.385
X99.045Y-110.385
X99.045Y-112.385
X105.185Y-106.395
X105.185Y-108.395
X105.185Y-110.395
X105.185Y-112.395
X111.575Y-106.505
X111.575Y-108.505
X111.575Y-110.505
X111.575Y-112.505
X117.855Y-106.505
X117.855Y-108.505
X117.855Y-110.505
X117.855Y-112.505
X123.86Y-106.53
X123.86Y-108.53
X123.86Y-110.53
X123.86Y-112.53
X142.29Y-104.66
X144.29Y-104.66
X156.1Y-93.27
X156.1Y-95.27
T4
X97.95Y-99.82
X100.49Y-97.28
X100.49Y-102.36
T5
X151.49Y-101.22
X153.49Y-101.22
X155.49Y-101.22
T6
X110.06Y-49.07
X112.6Y-49.07
X113.22Y-53.11
X115.14Y-49.07
X115.76Y-53.11
X117.68Y-49.07
X118.3Y-53.11
X120.22Y-49.07
X120.84Y-53.11
X122.76Y-49.07
X123.38Y-53.11
X125.3Y-49.07
X125.92Y-53.11
X127.84Y-49.07
X128.46Y-53.11
X130.38Y-49.07
X131.0Y-53.11
X132.92Y-49.07
X133.54Y-53.11
X135.46Y-49.07
X136.08Y-53.11
X138.0Y-49.07
X138.62Y-53.11
X141.16Y-53.11
T7
X143.7Y-111.39
X146.37Y-111.39
X149.07Y-111.39
X151.75Y-111.39
X154.43Y-111.38
X157.07Y-111.37
T8
X149.39Y-101.22
X157.59Y-101.22
T9
X102.374Y-121.344
X102.374Y-129.21
X134.299Y-121.335
X134.299Y-129.21
M30
